M48
;GenerationSoftware,Autodesk,EAGLE,9.6.2*%
;CreationDate,2022-08-13T10:38:59Z*%
FMAT,2
ICI,OFF
METRIC,TZ,000.000
T3C0.350
T2C1.016
T1C1.321
%
G90
M71
T1
X39675Y44577
X34671Y44577
X29667Y44577
T2
X22479Y31750
X46990Y37211
X22479Y36830
X22479Y34290
T3
X23966Y24706
X27540Y25654
X34732Y35245
X37465Y33909
X43996Y34163
X44905Y25243
X31877Y33655
X42164Y46355
X40767Y47117
X39751Y47117
X41783Y47117
X43180Y46482
X42291Y44450
X38354Y47117
X37338Y47117
X43180Y44450
X41402Y44323
X41148Y42164
X41275Y46228
X42164Y43307
X42291Y45466
X41148Y43180
X42164Y42164
X38227Y44069
X37211Y44069
X37338Y45085
X38227Y45085
X43180Y43434
X37338Y46101
X38354Y46101
X40132Y41021
X41402Y45339
X43180Y45593
X42164Y41021
X41148Y41021
X39116Y41021
X40132Y40005
X43180Y41021
X43180Y42164
X37211Y43053
X38227Y43053
X38100Y42164
X41148Y40005
X39116Y42164
X38100Y41021
X43180Y40005
X42164Y40005
X40132Y42164
X33807Y37973
X38100Y40005
X39116Y40005
X30049Y24457
X43307Y36830
X27940Y45974
X25908Y45974
X26924Y46990
X29972Y46990
X30988Y46990
X30988Y45974
X26924Y45974
X28956Y46990
X32004Y45974
X32004Y46990
X27940Y46990
X26924Y48006
X32131Y42672
X31115Y42799
X26924Y43053
X25908Y42926
X27940Y43053
X26491Y24730
X26924Y43942
X31115Y44831
X32131Y44831
X31115Y43815
X27940Y43942
X32131Y43815
X34554Y41402
X32261Y40719
X27940Y44958
X26924Y44958
X25908Y44958
X25908Y43942
X43346Y31115
X36099Y41656
X47558Y38705
X23361Y39261
X36645Y22512
X27559Y21717
X38227Y21463
X35052Y23020
X49911Y37084
X46640Y35783
X23749Y31115
X35673Y37846
M30