G04 EAGLE Gerber RS-274X export*
G75*
%MOMM*%
%FSLAX34Y34*%
%LPD*%
%INBottom Copper*%
%IPPOS*%
%AMOC8*
5,1,8,0,0,1.08239X$1,22.5*%
G01*
%ADD10R,0.700000X0.900000*%
%ADD11R,1.100000X1.000000*%
%ADD12R,0.900000X0.700000*%
%ADD13R,1.399997X0.400000*%
%ADD14R,1.000000X1.100000*%
%ADD15C,1.000000*%
%ADD16R,1.400000X1.000000*%
%ADD17R,0.550000X0.297181*%
%ADD18R,0.297181X0.550000*%
%ADD19R,5.600000X5.600000*%
%ADD20P,1.649562X8X22.500000*%
%ADD21C,1.524000*%
%ADD22R,1.600000X0.800000*%
%ADD23R,1.308000X1.308000*%
%ADD24C,1.308000*%
%ADD25C,2.100000*%
%ADD26R,2.100000X2.100000*%
%ADD27C,0.750000*%
%ADD28C,0.604800*%
%ADD29C,0.304800*%
%ADD30C,0.406400*%
%ADD31C,0.609600*%
%ADD32C,0.254000*%

G36*
X-32482Y159528D02*
X-32482Y159528D01*
X-32320Y159544D01*
X-32318Y159544D01*
X-32315Y159545D01*
X-32169Y159598D01*
X-32021Y159651D01*
X-32019Y159653D01*
X-32016Y159653D01*
X-31886Y159743D01*
X-31758Y159830D01*
X-31756Y159832D01*
X-31754Y159833D01*
X-31651Y159951D01*
X-31547Y160068D01*
X-31546Y160070D01*
X-31544Y160072D01*
X-31473Y160213D01*
X-31403Y160351D01*
X-31402Y160354D01*
X-31401Y160356D01*
X-31367Y160511D01*
X-31333Y160662D01*
X-31333Y160664D01*
X-31333Y160667D01*
X-31328Y160828D01*
X-32321Y188639D01*
X-32334Y188714D01*
X-32336Y188791D01*
X-32359Y188871D01*
X-32372Y188953D01*
X-32386Y188983D01*
X-32386Y190421D01*
X-32387Y190434D01*
X-32387Y190466D01*
X-32433Y191768D01*
X-31512Y192689D01*
X-31504Y192700D01*
X-31481Y192722D01*
X-30592Y193676D01*
X-29289Y193676D01*
X-29276Y193677D01*
X-29244Y193677D01*
X-27806Y193728D01*
X-27772Y193714D01*
X-27696Y193705D01*
X-27622Y193686D01*
X-27461Y193676D01*
X7167Y193676D01*
X7265Y193688D01*
X7364Y193691D01*
X7422Y193708D01*
X7482Y193716D01*
X7574Y193752D01*
X7670Y193780D01*
X7722Y193810D01*
X7778Y193833D01*
X7858Y193891D01*
X7943Y193941D01*
X8019Y194007D01*
X8035Y194019D01*
X8043Y194029D01*
X8064Y194047D01*
X43760Y229743D01*
X92072Y229743D01*
X92102Y229746D01*
X92131Y229744D01*
X92259Y229766D01*
X92388Y229783D01*
X92415Y229793D01*
X92444Y229799D01*
X92563Y229852D01*
X92683Y229900D01*
X92707Y229917D01*
X92734Y229929D01*
X92836Y230010D01*
X92941Y230086D01*
X92960Y230109D01*
X92983Y230128D01*
X93061Y230231D01*
X93144Y230331D01*
X93156Y230358D01*
X93174Y230382D01*
X93245Y230526D01*
X93278Y230605D01*
X94664Y231992D01*
X96476Y232743D01*
X98437Y232743D01*
X99850Y232158D01*
X99976Y232123D01*
X100100Y232083D01*
X100129Y232081D01*
X100156Y232074D01*
X100287Y232072D01*
X100417Y232064D01*
X100446Y232069D01*
X100474Y232069D01*
X100602Y232099D01*
X100730Y232124D01*
X100756Y232136D01*
X100784Y232143D01*
X100899Y232204D01*
X101017Y232260D01*
X101039Y232278D01*
X101065Y232292D01*
X101161Y232379D01*
X101262Y232463D01*
X101279Y232486D01*
X101300Y232506D01*
X101372Y232615D01*
X101449Y232720D01*
X101466Y232758D01*
X101475Y232771D01*
X101482Y232792D01*
X101517Y232866D01*
X101748Y233454D01*
X101751Y233468D01*
X101758Y233481D01*
X101804Y233636D01*
X101974Y234381D01*
X102030Y234427D01*
X102033Y234430D01*
X102036Y234433D01*
X102125Y234556D01*
X102219Y234683D01*
X102220Y234687D01*
X102223Y234690D01*
X102291Y234836D01*
X102883Y236343D01*
X102884Y236347D01*
X102886Y236351D01*
X102894Y236383D01*
X102908Y236413D01*
X102930Y236530D01*
X102961Y236651D01*
X102961Y236656D01*
X102962Y236660D01*
X102962Y236695D01*
X102968Y236726D01*
X102961Y236840D01*
X102960Y236892D01*
X103343Y237554D01*
X103349Y237568D01*
X103357Y237579D01*
X103426Y237725D01*
X103705Y238437D01*
X103767Y238474D01*
X103770Y238477D01*
X103774Y238479D01*
X103880Y238587D01*
X103992Y238699D01*
X103994Y238703D01*
X103997Y238706D01*
X104086Y238840D01*
X104896Y240242D01*
X104898Y240245D01*
X104900Y240249D01*
X104960Y240393D01*
X105019Y240535D01*
X105020Y240539D01*
X105022Y240543D01*
X105043Y240692D01*
X105055Y240772D01*
X105532Y241371D01*
X105539Y241383D01*
X105550Y241393D01*
X105639Y241527D01*
X106021Y242189D01*
X106088Y242217D01*
X106092Y242219D01*
X106096Y242221D01*
X106220Y242314D01*
X106344Y242406D01*
X106346Y242409D01*
X106350Y242412D01*
X106458Y242531D01*
X107468Y243797D01*
X107470Y243800D01*
X107473Y243803D01*
X107553Y243936D01*
X107634Y244068D01*
X107635Y244072D01*
X107637Y244076D01*
X107681Y244223D01*
X107704Y244298D01*
X108265Y244818D01*
X108274Y244829D01*
X108286Y244838D01*
X108394Y244957D01*
X108871Y245555D01*
X108941Y245572D01*
X108945Y245574D01*
X108949Y245575D01*
X109085Y245648D01*
X109222Y245721D01*
X109225Y245724D01*
X109229Y245726D01*
X109354Y245828D01*
X109577Y246035D01*
X110541Y246928D01*
X110543Y246931D01*
X110547Y246934D01*
X110645Y247053D01*
X110745Y247172D01*
X110747Y247176D01*
X110749Y247179D01*
X110815Y247318D01*
X110849Y247389D01*
X111481Y247820D01*
X111492Y247829D01*
X111505Y247836D01*
X111630Y247938D01*
X112190Y248458D01*
X112262Y248464D01*
X112266Y248465D01*
X112270Y248466D01*
X112418Y248519D01*
X112562Y248570D01*
X112566Y248572D01*
X112569Y248574D01*
X112708Y248656D01*
X113588Y249255D01*
X113642Y249303D01*
X113702Y249343D01*
X113761Y249408D01*
X113826Y249466D01*
X113867Y249525D01*
X113915Y249579D01*
X113956Y249656D01*
X114005Y249729D01*
X114029Y249797D01*
X114062Y249860D01*
X114083Y249946D01*
X114112Y250028D01*
X114119Y250100D01*
X114135Y250170D01*
X114134Y250258D01*
X114142Y250345D01*
X114131Y250416D01*
X114129Y250488D01*
X114106Y250572D01*
X114092Y250659D01*
X114063Y250725D01*
X114044Y250794D01*
X113972Y250939D01*
X86531Y298471D01*
X86467Y298555D01*
X86410Y298644D01*
X86371Y298681D01*
X86338Y298724D01*
X86256Y298790D01*
X86179Y298862D01*
X86131Y298888D01*
X86089Y298922D01*
X85993Y298965D01*
X85900Y299016D01*
X85848Y299029D01*
X85799Y299051D01*
X85694Y299069D01*
X85592Y299095D01*
X85507Y299100D01*
X85485Y299104D01*
X85470Y299103D01*
X85431Y299105D01*
X-85431Y299105D01*
X-85536Y299092D01*
X-85642Y299088D01*
X-85694Y299072D01*
X-85747Y299065D01*
X-85845Y299027D01*
X-85946Y298996D01*
X-85993Y298968D01*
X-86043Y298948D01*
X-86128Y298886D01*
X-86219Y298832D01*
X-86256Y298793D01*
X-86300Y298762D01*
X-86367Y298680D01*
X-86441Y298605D01*
X-86489Y298533D01*
X-86503Y298517D01*
X-86509Y298503D01*
X-86531Y298471D01*
X-113972Y250939D01*
X-114000Y250872D01*
X-114037Y250810D01*
X-114062Y250726D01*
X-114096Y250645D01*
X-114106Y250574D01*
X-114126Y250505D01*
X-114129Y250418D01*
X-114142Y250331D01*
X-114135Y250259D01*
X-114137Y250187D01*
X-114118Y250102D01*
X-114109Y250015D01*
X-114084Y249947D01*
X-114068Y249877D01*
X-114029Y249799D01*
X-113998Y249716D01*
X-113957Y249657D01*
X-113925Y249593D01*
X-113867Y249527D01*
X-113817Y249455D01*
X-113762Y249408D01*
X-113715Y249354D01*
X-113588Y249255D01*
X-112708Y248656D01*
X-112704Y248654D01*
X-112701Y248651D01*
X-112561Y248581D01*
X-112425Y248511D01*
X-112421Y248510D01*
X-112417Y248508D01*
X-112262Y248474D01*
X-112191Y248458D01*
X-111630Y247938D01*
X-111618Y247930D01*
X-111608Y247919D01*
X-111481Y247820D01*
X-110849Y247389D01*
X-110827Y247320D01*
X-110825Y247317D01*
X-110823Y247313D01*
X-110740Y247183D01*
X-110657Y247051D01*
X-110654Y247049D01*
X-110652Y247045D01*
X-110541Y246928D01*
X-109354Y245828D01*
X-109350Y245825D01*
X-109348Y245822D01*
X-109219Y245731D01*
X-109095Y245642D01*
X-109091Y245641D01*
X-109088Y245638D01*
X-108945Y245584D01*
X-108871Y245555D01*
X-108394Y244957D01*
X-108383Y244947D01*
X-108376Y244935D01*
X-108265Y244818D01*
X-107704Y244298D01*
X-107692Y244227D01*
X-107691Y244223D01*
X-107690Y244219D01*
X-107627Y244079D01*
X-107564Y243936D01*
X-107562Y243932D01*
X-107560Y243929D01*
X-107468Y243797D01*
X-106458Y242531D01*
X-106455Y242528D01*
X-106453Y242525D01*
X-106340Y242417D01*
X-106230Y242309D01*
X-106226Y242307D01*
X-106223Y242304D01*
X-106088Y242228D01*
X-106022Y242190D01*
X-105639Y241527D01*
X-105630Y241516D01*
X-105624Y241502D01*
X-105532Y241371D01*
X-105055Y240773D01*
X-105054Y240700D01*
X-105053Y240696D01*
X-105053Y240692D01*
X-105011Y240542D01*
X-104971Y240393D01*
X-104969Y240390D01*
X-104968Y240386D01*
X-104896Y240242D01*
X-104086Y238840D01*
X-104084Y238836D01*
X-104082Y238833D01*
X-103989Y238711D01*
X-103894Y238587D01*
X-103890Y238584D01*
X-103888Y238581D01*
X-103766Y238486D01*
X-103705Y238437D01*
X-103426Y237725D01*
X-103419Y237712D01*
X-103415Y237698D01*
X-103343Y237554D01*
X-102965Y236900D01*
X-102968Y236887D01*
X-102966Y236856D01*
X-102971Y236820D01*
X-102970Y236816D01*
X-102971Y236812D01*
X-102955Y236685D01*
X-102948Y236569D01*
X-102938Y236539D01*
X-102934Y236504D01*
X-102933Y236501D01*
X-102932Y236497D01*
X-102883Y236343D01*
X-102291Y234836D01*
X-102289Y234833D01*
X-102288Y234829D01*
X-102214Y234695D01*
X-102138Y234557D01*
X-102135Y234554D01*
X-102133Y234551D01*
X-102027Y234438D01*
X-101974Y234382D01*
X-101804Y233636D01*
X-101799Y233622D01*
X-101797Y233608D01*
X-101748Y233454D01*
X-101468Y232743D01*
X-101489Y232673D01*
X-101489Y232669D01*
X-101490Y232665D01*
X-101494Y232510D01*
X-101500Y232355D01*
X-101499Y232351D01*
X-101499Y232347D01*
X-101473Y232188D01*
X-101112Y230610D01*
X-101111Y230606D01*
X-101110Y230602D01*
X-101056Y230457D01*
X-101003Y230311D01*
X-101001Y230308D01*
X-100999Y230304D01*
X-100911Y230177D01*
X-100867Y230113D01*
X-100810Y229350D01*
X-100807Y229336D01*
X-100807Y229321D01*
X-100781Y229163D01*
X-100611Y228417D01*
X-100642Y228352D01*
X-100642Y228347D01*
X-100644Y228344D01*
X-100671Y228191D01*
X-100700Y228039D01*
X-100699Y228035D01*
X-100700Y228031D01*
X-100698Y227870D01*
X-100577Y226255D01*
X-100576Y226251D01*
X-100576Y226247D01*
X-100544Y226094D01*
X-100513Y225943D01*
X-100512Y225940D01*
X-100511Y225936D01*
X-100443Y225798D01*
X-100375Y225657D01*
X-100372Y225654D01*
X-100370Y225650D01*
X-100273Y225522D01*
X-100230Y225472D01*
X-100178Y225391D01*
X-100099Y225262D01*
X-100094Y225257D01*
X-100090Y225251D01*
X-99978Y225146D01*
X-99870Y225041D01*
X-99863Y225038D01*
X-99858Y225033D01*
X-99725Y224960D01*
X-99593Y224885D01*
X-99586Y224883D01*
X-99580Y224879D01*
X-99434Y224842D01*
X-99286Y224802D01*
X-99279Y224802D01*
X-99272Y224800D01*
X-99111Y224790D01*
X-98399Y224790D01*
X-33494Y159885D01*
X-33492Y159883D01*
X-33490Y159881D01*
X-33367Y159787D01*
X-33243Y159690D01*
X-33240Y159689D01*
X-33238Y159687D01*
X-33097Y159627D01*
X-32951Y159564D01*
X-32948Y159563D01*
X-32946Y159562D01*
X-32793Y159539D01*
X-32637Y159514D01*
X-32634Y159514D01*
X-32632Y159514D01*
X-32482Y159528D01*
G37*
G36*
X86676Y-624D02*
X86676Y-624D01*
X86754Y-615D01*
X86773Y-604D01*
X86795Y-600D01*
X86859Y-556D01*
X86927Y-517D01*
X86943Y-498D01*
X86959Y-487D01*
X86983Y-449D01*
X87033Y-389D01*
X96533Y16111D01*
X96542Y16138D01*
X96558Y16162D01*
X96573Y16232D01*
X96596Y16300D01*
X96593Y16328D01*
X96599Y16356D01*
X96586Y16427D01*
X96580Y16498D01*
X96567Y16523D01*
X96561Y16551D01*
X96521Y16611D01*
X96488Y16674D01*
X96466Y16692D01*
X96450Y16716D01*
X96367Y16774D01*
X96335Y16801D01*
X96324Y16804D01*
X96314Y16811D01*
X95686Y17108D01*
X113972Y48781D01*
X114000Y48848D01*
X114037Y48910D01*
X114062Y48994D01*
X114096Y49075D01*
X114106Y49146D01*
X114126Y49215D01*
X114129Y49302D01*
X114142Y49389D01*
X114135Y49461D01*
X114137Y49533D01*
X114118Y49618D01*
X114109Y49705D01*
X114084Y49773D01*
X114068Y49843D01*
X114029Y49921D01*
X113998Y50004D01*
X113957Y50063D01*
X113925Y50127D01*
X113867Y50193D01*
X113817Y50265D01*
X113762Y50312D01*
X113715Y50366D01*
X113588Y50465D01*
X112708Y51064D01*
X112704Y51066D01*
X112701Y51069D01*
X112561Y51139D01*
X112425Y51209D01*
X112421Y51210D01*
X112417Y51212D01*
X112262Y51246D01*
X112191Y51262D01*
X111630Y51782D01*
X111618Y51790D01*
X111608Y51801D01*
X111481Y51900D01*
X110849Y52331D01*
X110827Y52400D01*
X110825Y52403D01*
X110823Y52407D01*
X110740Y52537D01*
X110657Y52669D01*
X110654Y52671D01*
X110652Y52675D01*
X110541Y52792D01*
X109354Y53892D01*
X109350Y53895D01*
X109348Y53898D01*
X109220Y53988D01*
X109095Y54078D01*
X109091Y54079D01*
X109088Y54082D01*
X108945Y54136D01*
X108871Y54165D01*
X108394Y54763D01*
X108383Y54773D01*
X108376Y54785D01*
X108265Y54902D01*
X107704Y55422D01*
X107692Y55493D01*
X107691Y55497D01*
X107690Y55501D01*
X107628Y55640D01*
X107564Y55784D01*
X107562Y55788D01*
X107560Y55791D01*
X107468Y55923D01*
X106458Y57189D01*
X106455Y57192D01*
X106453Y57195D01*
X106341Y57303D01*
X106230Y57411D01*
X106226Y57413D01*
X106223Y57416D01*
X106090Y57491D01*
X106022Y57530D01*
X105639Y58193D01*
X105630Y58204D01*
X105624Y58218D01*
X105532Y58349D01*
X105055Y58947D01*
X105054Y59020D01*
X105053Y59024D01*
X105053Y59028D01*
X105012Y59176D01*
X104971Y59327D01*
X104969Y59330D01*
X104968Y59334D01*
X104896Y59478D01*
X104086Y60880D01*
X104084Y60884D01*
X104082Y60887D01*
X103989Y61009D01*
X103894Y61133D01*
X103890Y61136D01*
X103888Y61139D01*
X103766Y61234D01*
X103705Y61283D01*
X103426Y61995D01*
X103419Y62008D01*
X103415Y62022D01*
X103392Y62067D01*
X103389Y62078D01*
X103380Y62092D01*
X103343Y62166D01*
X102961Y62828D01*
X102971Y62900D01*
X102970Y62904D01*
X102971Y62908D01*
X102952Y63061D01*
X102934Y63216D01*
X102933Y63219D01*
X102932Y63223D01*
X102883Y63377D01*
X102291Y64884D01*
X102289Y64887D01*
X102288Y64891D01*
X102214Y65025D01*
X102138Y65163D01*
X102135Y65166D01*
X102133Y65169D01*
X102027Y65282D01*
X101974Y65338D01*
X101804Y66084D01*
X101799Y66098D01*
X101797Y66112D01*
X101748Y66266D01*
X101468Y66977D01*
X101489Y67047D01*
X101489Y67051D01*
X101490Y67055D01*
X101494Y67207D01*
X101500Y67365D01*
X101499Y67369D01*
X101499Y67373D01*
X101473Y67532D01*
X101112Y69110D01*
X101111Y69114D01*
X101110Y69118D01*
X101056Y69263D01*
X101003Y69409D01*
X101001Y69412D01*
X100999Y69416D01*
X100911Y69543D01*
X100867Y69607D01*
X100810Y70370D01*
X100807Y70384D01*
X100807Y70399D01*
X100781Y70557D01*
X100611Y71303D01*
X100642Y71369D01*
X100642Y71373D01*
X100644Y71376D01*
X100671Y71528D01*
X100700Y71681D01*
X100699Y71685D01*
X100700Y71689D01*
X100698Y71850D01*
X100577Y73465D01*
X100576Y73469D01*
X100576Y73473D01*
X100544Y73627D01*
X100513Y73777D01*
X100512Y73780D01*
X100511Y73784D01*
X100442Y73924D01*
X100408Y73993D01*
X100465Y74756D01*
X100465Y74770D01*
X100467Y74784D01*
X100465Y74945D01*
X100408Y75708D01*
X100448Y75768D01*
X100449Y75772D01*
X100452Y75776D01*
X100502Y75924D01*
X100552Y76069D01*
X100552Y76073D01*
X100554Y76077D01*
X100576Y76236D01*
X100696Y77851D01*
X100696Y77855D01*
X100697Y77859D01*
X100688Y78014D01*
X100680Y78169D01*
X100679Y78172D01*
X100679Y78177D01*
X100633Y78320D01*
X100609Y78398D01*
X100779Y79144D01*
X100780Y79158D01*
X100785Y79172D01*
X100807Y79332D01*
X100864Y80094D01*
X100912Y80148D01*
X100914Y80151D01*
X100917Y80154D01*
X100988Y80291D01*
X101060Y80429D01*
X101061Y80433D01*
X101063Y80437D01*
X101109Y80591D01*
X101468Y82170D01*
X101469Y82174D01*
X101470Y82178D01*
X101484Y82332D01*
X101500Y82487D01*
X101499Y82491D01*
X101499Y82495D01*
X101475Y82646D01*
X101463Y82724D01*
X101742Y83436D01*
X101746Y83450D01*
X101753Y83463D01*
X101798Y83618D01*
X101968Y84363D01*
X102024Y84409D01*
X102027Y84412D01*
X102030Y84415D01*
X102119Y84539D01*
X102212Y84665D01*
X102214Y84669D01*
X102216Y84673D01*
X102284Y84819D01*
X102875Y86326D01*
X102876Y86330D01*
X102878Y86334D01*
X102916Y86484D01*
X102954Y86634D01*
X102954Y86638D01*
X102954Y86642D01*
X102953Y86795D01*
X102953Y86874D01*
X103335Y87537D01*
X103341Y87551D01*
X103349Y87562D01*
X103417Y87708D01*
X103696Y88420D01*
X103759Y88457D01*
X103762Y88460D01*
X103765Y88462D01*
X103812Y88510D01*
X103849Y88537D01*
X103904Y88603D01*
X103983Y88683D01*
X103985Y88686D01*
X103988Y88689D01*
X104040Y88767D01*
X104052Y88782D01*
X104057Y88794D01*
X104077Y88823D01*
X104886Y90226D01*
X104888Y90229D01*
X104890Y90233D01*
X104950Y90377D01*
X105009Y90519D01*
X105010Y90523D01*
X105012Y90527D01*
X105033Y90681D01*
X105044Y90757D01*
X105521Y91355D01*
X105529Y91367D01*
X105539Y91378D01*
X105628Y91512D01*
X106010Y92174D01*
X106077Y92201D01*
X106081Y92204D01*
X106084Y92205D01*
X106209Y92299D01*
X106333Y92391D01*
X106335Y92394D01*
X106338Y92397D01*
X106447Y92516D01*
X107456Y93782D01*
X107458Y93786D01*
X107461Y93789D01*
X107491Y93839D01*
X107507Y93859D01*
X107524Y93894D01*
X107540Y93920D01*
X107621Y94054D01*
X107622Y94058D01*
X107625Y94061D01*
X107667Y94205D01*
X107691Y94284D01*
X108252Y94804D01*
X108261Y94815D01*
X108273Y94824D01*
X108381Y94943D01*
X108857Y95541D01*
X108928Y95558D01*
X108932Y95560D01*
X108936Y95561D01*
X109072Y95635D01*
X109209Y95708D01*
X109212Y95711D01*
X109215Y95712D01*
X109340Y95814D01*
X110527Y96916D01*
X110529Y96919D01*
X110533Y96922D01*
X110630Y97039D01*
X110731Y97160D01*
X110733Y97164D01*
X110735Y97167D01*
X110800Y97306D01*
X110834Y97377D01*
X111466Y97808D01*
X111477Y97817D01*
X111490Y97824D01*
X111615Y97926D01*
X112175Y98446D01*
X112247Y98453D01*
X112251Y98454D01*
X112255Y98455D01*
X112401Y98507D01*
X112547Y98559D01*
X112550Y98561D01*
X112554Y98562D01*
X112693Y98645D01*
X114030Y99557D01*
X114033Y99560D01*
X114037Y99562D01*
X114153Y99665D01*
X114268Y99768D01*
X114271Y99771D01*
X114274Y99774D01*
X114359Y99902D01*
X114403Y99967D01*
X115092Y100299D01*
X115105Y100307D01*
X115118Y100312D01*
X115257Y100394D01*
X115888Y100825D01*
X115961Y100820D01*
X115965Y100821D01*
X115969Y100821D01*
X116121Y100851D01*
X116273Y100880D01*
X116277Y100882D01*
X116281Y100883D01*
X116430Y100944D01*
X117888Y101646D01*
X117892Y101649D01*
X117896Y101650D01*
X118026Y101736D01*
X118155Y101819D01*
X118158Y101822D01*
X118162Y101825D01*
X118265Y101938D01*
X118318Y101996D01*
X119049Y102222D01*
X119062Y102228D01*
X119077Y102231D01*
X119226Y102291D01*
X119915Y102623D01*
X119986Y102608D01*
X119990Y102608D01*
X119994Y102607D01*
X120150Y102615D01*
X120303Y102621D01*
X120307Y102622D01*
X120311Y102622D01*
X120468Y102660D01*
X122015Y103138D01*
X122019Y103139D01*
X122023Y103140D01*
X122162Y103204D01*
X122305Y103269D01*
X122308Y103271D01*
X122312Y103273D01*
X122431Y103370D01*
X122492Y103419D01*
X123248Y103533D01*
X123262Y103537D01*
X123277Y103538D01*
X123433Y103576D01*
X124164Y103801D01*
X124232Y103776D01*
X124236Y103775D01*
X124240Y103774D01*
X124396Y103758D01*
X124548Y103741D01*
X124552Y103742D01*
X124556Y103741D01*
X124717Y103755D01*
X126317Y103997D01*
X126321Y103998D01*
X126326Y103998D01*
X126474Y104041D01*
X126624Y104083D01*
X126627Y104086D01*
X126631Y104087D01*
X126764Y104165D01*
X126831Y104204D01*
X127596Y104204D01*
X127611Y104206D01*
X127625Y104205D01*
X127786Y104219D01*
X128541Y104333D01*
X128605Y104298D01*
X128609Y104296D01*
X128612Y104294D01*
X128763Y104256D01*
X128912Y104216D01*
X128916Y104216D01*
X128920Y104215D01*
X129081Y104205D01*
X130700Y104205D01*
X130704Y104206D01*
X130708Y104205D01*
X130861Y104226D01*
X131016Y104245D01*
X131020Y104247D01*
X131024Y104247D01*
X131168Y104306D01*
X131239Y104334D01*
X131996Y104220D01*
X132010Y104220D01*
X132024Y104216D01*
X132185Y104206D01*
X132949Y104206D01*
X133007Y104162D01*
X133011Y104160D01*
X133014Y104158D01*
X133154Y104098D01*
X133299Y104035D01*
X133303Y104035D01*
X133306Y104033D01*
X133464Y103999D01*
X135065Y103758D01*
X135069Y103758D01*
X135073Y103757D01*
X135229Y103755D01*
X135383Y103751D01*
X135387Y103752D01*
X135391Y103752D01*
X135542Y103788D01*
X135677Y103819D01*
X135747Y103807D01*
X135827Y103813D01*
X135907Y103809D01*
X135985Y103825D01*
X136064Y103831D01*
X136140Y103857D01*
X136218Y103873D01*
X136290Y103908D01*
X136365Y103934D01*
X136432Y103978D01*
X136504Y104013D01*
X136565Y104065D01*
X136631Y104109D01*
X136685Y104168D01*
X136746Y104219D01*
X136792Y104285D01*
X136846Y104344D01*
X136883Y104414D01*
X136929Y104480D01*
X136957Y104554D01*
X136995Y104624D01*
X137013Y104702D01*
X137042Y104777D01*
X137051Y104856D01*
X137069Y104934D01*
X137068Y105014D01*
X137077Y105093D01*
X137066Y105172D01*
X137065Y105252D01*
X137044Y105329D01*
X137032Y105408D01*
X136986Y105542D01*
X136986Y107507D01*
X137737Y109319D01*
X139124Y110705D01*
X140936Y111456D01*
X142897Y111456D01*
X144709Y110705D01*
X146095Y109319D01*
X146292Y108845D01*
X146319Y108796D01*
X146339Y108743D01*
X146398Y108659D01*
X146449Y108569D01*
X146488Y108528D01*
X146520Y108482D01*
X146599Y108415D01*
X146670Y108341D01*
X146718Y108311D01*
X146761Y108274D01*
X146854Y108228D01*
X146941Y108174D01*
X146995Y108158D01*
X147046Y108133D01*
X147147Y108111D01*
X147245Y108081D01*
X147302Y108078D01*
X147357Y108066D01*
X147460Y108070D01*
X147563Y108066D01*
X147618Y108077D01*
X147675Y108079D01*
X147774Y108109D01*
X147875Y108130D01*
X147925Y108155D01*
X147979Y108171D01*
X148067Y108224D01*
X148160Y108270D01*
X148203Y108306D01*
X148251Y108335D01*
X148324Y108409D01*
X148402Y108476D01*
X148435Y108522D01*
X148474Y108562D01*
X148563Y108696D01*
X162808Y133369D01*
X163416Y132949D01*
X163443Y132938D01*
X163465Y132919D01*
X163534Y132899D01*
X163599Y132871D01*
X163628Y132871D01*
X163656Y132863D01*
X163727Y132871D01*
X163798Y132871D01*
X163825Y132882D01*
X163854Y132885D01*
X163916Y132920D01*
X163981Y132948D01*
X164002Y132968D01*
X164027Y132983D01*
X164090Y133060D01*
X164120Y133090D01*
X164124Y133100D01*
X164133Y133111D01*
X173633Y149611D01*
X173643Y149643D01*
X173652Y149656D01*
X173656Y149680D01*
X173657Y149684D01*
X173688Y149754D01*
X173688Y149778D01*
X173696Y149800D01*
X173690Y149876D01*
X173691Y149953D01*
X173681Y149977D01*
X173680Y149998D01*
X173659Y150037D01*
X173633Y150109D01*
X164133Y166609D01*
X164114Y166631D01*
X164101Y166657D01*
X164048Y166705D01*
X164001Y166758D01*
X163975Y166771D01*
X163954Y166790D01*
X163886Y166813D01*
X163822Y166844D01*
X163793Y166846D01*
X163766Y166855D01*
X163694Y166850D01*
X163623Y166853D01*
X163596Y166843D01*
X163567Y166841D01*
X163477Y166799D01*
X163437Y166784D01*
X163429Y166777D01*
X163416Y166771D01*
X162808Y166351D01*
X146279Y194981D01*
X146231Y195044D01*
X146191Y195113D01*
X146135Y195170D01*
X146086Y195234D01*
X146024Y195284D01*
X145969Y195340D01*
X145900Y195382D01*
X145837Y195432D01*
X145765Y195464D01*
X145697Y195505D01*
X145620Y195529D01*
X145547Y195561D01*
X145468Y195575D01*
X145392Y195598D01*
X145234Y195614D01*
X145233Y195614D01*
X145232Y195614D01*
X136121Y195994D01*
X135986Y195983D01*
X135851Y195976D01*
X135818Y195969D01*
X135804Y195967D01*
X135784Y195960D01*
X135695Y195939D01*
X135617Y195915D01*
X135550Y195941D01*
X135546Y195941D01*
X135542Y195943D01*
X135387Y195959D01*
X135234Y195976D01*
X135230Y195975D01*
X135225Y195975D01*
X135065Y195962D01*
X133464Y195721D01*
X133460Y195720D01*
X133456Y195720D01*
X133307Y195676D01*
X133158Y195634D01*
X133154Y195632D01*
X133150Y195631D01*
X133014Y195551D01*
X132950Y195514D01*
X132185Y195514D01*
X132171Y195512D01*
X132156Y195514D01*
X131996Y195500D01*
X131240Y195386D01*
X131176Y195422D01*
X131172Y195423D01*
X131169Y195425D01*
X131017Y195464D01*
X130869Y195503D01*
X130865Y195503D01*
X130861Y195504D01*
X130700Y195515D01*
X129081Y195515D01*
X129077Y195515D01*
X129073Y195515D01*
X128919Y195495D01*
X128765Y195475D01*
X128762Y195474D01*
X128758Y195473D01*
X128612Y195415D01*
X128542Y195387D01*
X127786Y195501D01*
X127771Y195502D01*
X127757Y195505D01*
X127596Y195516D01*
X126832Y195516D01*
X126775Y195560D01*
X126771Y195562D01*
X126767Y195564D01*
X126627Y195624D01*
X126483Y195687D01*
X126479Y195687D01*
X126475Y195689D01*
X126317Y195723D01*
X124717Y195965D01*
X124712Y195965D01*
X124708Y195966D01*
X124553Y195969D01*
X124399Y195973D01*
X124395Y195972D01*
X124390Y195972D01*
X124240Y195936D01*
X124165Y195919D01*
X123433Y196144D01*
X123419Y196147D01*
X123406Y196153D01*
X123248Y196187D01*
X122482Y196302D01*
X122475Y196309D01*
X122468Y196314D01*
X122462Y196320D01*
X122334Y196397D01*
X122205Y196478D01*
X122197Y196480D01*
X122190Y196485D01*
X122047Y196528D01*
X121902Y196574D01*
X121894Y196575D01*
X121886Y196577D01*
X121726Y196594D01*
X80057Y198330D01*
X80054Y198330D01*
X80051Y198330D01*
X79895Y198316D01*
X79740Y198303D01*
X79737Y198302D01*
X79734Y198302D01*
X79589Y198251D01*
X79440Y198199D01*
X79437Y198197D01*
X79434Y198196D01*
X79306Y198110D01*
X79175Y198023D01*
X79173Y198020D01*
X79170Y198018D01*
X79066Y197901D01*
X78962Y197786D01*
X78961Y197784D01*
X78958Y197781D01*
X78887Y197644D01*
X78815Y197505D01*
X78814Y197501D01*
X78812Y197498D01*
X78778Y197348D01*
X78742Y197195D01*
X78742Y197192D01*
X78741Y197189D01*
X78736Y197028D01*
X79485Y169278D01*
X79498Y169197D01*
X79500Y169115D01*
X79522Y169040D01*
X79534Y168964D01*
X79566Y168888D01*
X79589Y168810D01*
X79628Y168743D01*
X79659Y168671D01*
X79709Y168606D01*
X79750Y168536D01*
X79849Y168424D01*
X79853Y168419D01*
X79854Y168418D01*
X79857Y168415D01*
X80379Y167892D01*
X81130Y166081D01*
X81130Y164119D01*
X80379Y162308D01*
X80259Y162188D01*
X80186Y162093D01*
X80107Y162004D01*
X80089Y161968D01*
X80064Y161936D01*
X80017Y161827D01*
X79963Y161721D01*
X79954Y161682D01*
X79938Y161644D01*
X79919Y161527D01*
X79893Y161411D01*
X79894Y161370D01*
X79888Y161330D01*
X79899Y161212D01*
X79903Y161093D01*
X79914Y161054D01*
X79918Y161014D01*
X79958Y160902D01*
X79991Y160787D01*
X80012Y160753D01*
X80025Y160714D01*
X80092Y160616D01*
X80153Y160513D01*
X80193Y160468D01*
X80204Y160451D01*
X80219Y160438D01*
X80259Y160393D01*
X80379Y160272D01*
X81130Y158461D01*
X81130Y156499D01*
X80379Y154688D01*
X80279Y154587D01*
X80208Y154496D01*
X80131Y154409D01*
X80111Y154370D01*
X80084Y154336D01*
X80038Y154229D01*
X79985Y154126D01*
X79975Y154084D01*
X79958Y154044D01*
X79940Y153930D01*
X79914Y153816D01*
X79911Y153751D01*
X79908Y153730D01*
X79910Y153711D01*
X79908Y153656D01*
X79976Y151129D01*
X62756Y151129D01*
X23201Y190684D01*
X23107Y190757D01*
X23018Y190836D01*
X22982Y190854D01*
X22950Y190879D01*
X22840Y190926D01*
X22735Y190980D01*
X22695Y190989D01*
X22658Y191005D01*
X22540Y191024D01*
X22424Y191050D01*
X22384Y191049D01*
X22344Y191055D01*
X22225Y191044D01*
X22106Y191040D01*
X22067Y191029D01*
X22027Y191025D01*
X21915Y190985D01*
X21801Y190952D01*
X21766Y190931D01*
X21728Y190918D01*
X21629Y190851D01*
X21527Y190790D01*
X21482Y190751D01*
X21465Y190739D01*
X21451Y190724D01*
X21406Y190684D01*
X18774Y188051D01*
X18713Y187973D01*
X18645Y187901D01*
X18616Y187848D01*
X18579Y187800D01*
X18539Y187709D01*
X18492Y187623D01*
X18476Y187564D01*
X18452Y187508D01*
X18437Y187410D01*
X18412Y187315D01*
X18406Y187215D01*
X18402Y187194D01*
X18404Y187182D01*
X18402Y187154D01*
X18402Y147917D01*
X18367Y147854D01*
X18352Y147796D01*
X18328Y147740D01*
X18313Y147642D01*
X18288Y147546D01*
X18281Y147446D01*
X18278Y147426D01*
X18279Y147414D01*
X18278Y147386D01*
X18278Y145831D01*
X17161Y144714D01*
X-35495Y144714D01*
X-35613Y144699D01*
X-35732Y144692D01*
X-35770Y144679D01*
X-35811Y144674D01*
X-35921Y144631D01*
X-36034Y144594D01*
X-36069Y144572D01*
X-36106Y144557D01*
X-36202Y144488D01*
X-36303Y144424D01*
X-36331Y144394D01*
X-36364Y144371D01*
X-36440Y144279D01*
X-36521Y144192D01*
X-36541Y144157D01*
X-36566Y144126D01*
X-36617Y144018D01*
X-36675Y143914D01*
X-36685Y143874D01*
X-36702Y143838D01*
X-36724Y143721D01*
X-36754Y143606D01*
X-36758Y143545D01*
X-36762Y143526D01*
X-36760Y143505D01*
X-36764Y143445D01*
X-36764Y87695D01*
X-36749Y87577D01*
X-36742Y87458D01*
X-36729Y87420D01*
X-36724Y87379D01*
X-36681Y87269D01*
X-36644Y87156D01*
X-36622Y87121D01*
X-36607Y87084D01*
X-36538Y86988D01*
X-36474Y86887D01*
X-36444Y86859D01*
X-36421Y86826D01*
X-36329Y86750D01*
X-36242Y86669D01*
X-36207Y86649D01*
X-36176Y86624D01*
X-36068Y86573D01*
X-35964Y86515D01*
X-35924Y86505D01*
X-35888Y86488D01*
X-35771Y86466D01*
X-35656Y86436D01*
X-35596Y86432D01*
X-35576Y86428D01*
X-35555Y86430D01*
X-35495Y86426D01*
X5209Y86426D01*
X5307Y86438D01*
X5406Y86441D01*
X5464Y86458D01*
X5524Y86466D01*
X5616Y86502D01*
X5712Y86530D01*
X5764Y86560D01*
X5820Y86583D01*
X5900Y86641D01*
X5986Y86691D01*
X6061Y86757D01*
X6077Y86769D01*
X6085Y86779D01*
X6106Y86797D01*
X7575Y88266D01*
X20255Y88266D01*
X20373Y88281D01*
X20492Y88288D01*
X20530Y88301D01*
X20571Y88306D01*
X20681Y88349D01*
X20794Y88386D01*
X20829Y88408D01*
X20866Y88423D01*
X20962Y88492D01*
X21063Y88556D01*
X21091Y88586D01*
X21124Y88609D01*
X21200Y88701D01*
X21281Y88788D01*
X21301Y88823D01*
X21326Y88854D01*
X21377Y88962D01*
X21435Y89066D01*
X21445Y89106D01*
X21462Y89142D01*
X21484Y89259D01*
X21514Y89374D01*
X21518Y89434D01*
X21522Y89454D01*
X21520Y89475D01*
X21524Y89535D01*
X21524Y115344D01*
X22641Y116461D01*
X24196Y116461D01*
X24294Y116473D01*
X24393Y116476D01*
X24451Y116493D01*
X24497Y116499D01*
X27888Y116499D01*
X27908Y116496D01*
X28004Y116471D01*
X28104Y116464D01*
X28124Y116461D01*
X28136Y116462D01*
X28164Y116461D01*
X30099Y116461D01*
X30192Y116455D01*
X30213Y116451D01*
X30225Y116453D01*
X30255Y116451D01*
X33736Y116451D01*
X35340Y114847D01*
X35418Y114787D01*
X35490Y114719D01*
X35543Y114690D01*
X35591Y114653D01*
X35682Y114613D01*
X35769Y114565D01*
X35827Y114550D01*
X35883Y114526D01*
X35981Y114511D01*
X36077Y114486D01*
X36177Y114480D01*
X36197Y114476D01*
X36209Y114478D01*
X36237Y114476D01*
X56589Y114476D01*
X57706Y113359D01*
X57706Y112277D01*
X57721Y112159D01*
X57728Y112040D01*
X57741Y112002D01*
X57746Y111961D01*
X57789Y111851D01*
X57826Y111738D01*
X57848Y111703D01*
X57863Y111666D01*
X57932Y111570D01*
X57996Y111469D01*
X58026Y111441D01*
X58049Y111408D01*
X58141Y111332D01*
X58228Y111251D01*
X58263Y111231D01*
X58294Y111206D01*
X58402Y111155D01*
X58506Y111097D01*
X58546Y111087D01*
X58582Y111070D01*
X58699Y111048D01*
X58814Y111018D01*
X58874Y111014D01*
X58894Y111010D01*
X58915Y111012D01*
X58975Y111008D01*
X63003Y111008D01*
X63101Y111020D01*
X63200Y111023D01*
X63259Y111040D01*
X63319Y111048D01*
X63411Y111084D01*
X63506Y111112D01*
X63558Y111142D01*
X63614Y111165D01*
X63694Y111223D01*
X63780Y111273D01*
X63855Y111339D01*
X63872Y111351D01*
X63880Y111361D01*
X63901Y111379D01*
X79789Y127267D01*
X79849Y127346D01*
X79917Y127418D01*
X79946Y127471D01*
X79983Y127519D01*
X80023Y127610D01*
X80071Y127696D01*
X80086Y127755D01*
X80110Y127810D01*
X80122Y127889D01*
X80911Y129792D01*
X82298Y131179D01*
X84109Y131930D01*
X86071Y131930D01*
X87882Y131179D01*
X89269Y129792D01*
X89413Y129446D01*
X89482Y129325D01*
X89547Y129202D01*
X89560Y129187D01*
X89570Y129169D01*
X89667Y129069D01*
X89761Y128967D01*
X89778Y128955D01*
X89792Y128941D01*
X89910Y128868D01*
X90026Y128792D01*
X90046Y128785D01*
X90063Y128775D01*
X90196Y128734D01*
X90327Y128689D01*
X90347Y128687D01*
X90367Y128681D01*
X90506Y128674D01*
X90644Y128663D01*
X90664Y128667D01*
X90684Y128666D01*
X90821Y128694D01*
X90958Y128718D01*
X90976Y128726D01*
X90996Y128730D01*
X91121Y128791D01*
X91248Y128848D01*
X91263Y128861D01*
X91282Y128870D01*
X91388Y128960D01*
X91496Y129047D01*
X91508Y129063D01*
X91524Y129076D01*
X91604Y129190D01*
X91687Y129301D01*
X91700Y129326D01*
X91707Y129336D01*
X91714Y129355D01*
X91758Y129446D01*
X92402Y131001D01*
X93789Y132388D01*
X95601Y133138D01*
X97562Y133138D01*
X99374Y132388D01*
X100761Y131001D01*
X100880Y130713D01*
X100905Y130670D01*
X100921Y130623D01*
X100983Y130532D01*
X101038Y130437D01*
X101072Y130401D01*
X101100Y130360D01*
X101182Y130287D01*
X101259Y130208D01*
X101301Y130182D01*
X101338Y130150D01*
X101436Y130100D01*
X101530Y130042D01*
X101577Y130028D01*
X101622Y130005D01*
X101729Y129981D01*
X101834Y129949D01*
X101884Y129946D01*
X101932Y129935D01*
X102042Y129939D01*
X102152Y129933D01*
X102200Y129943D01*
X102250Y129945D01*
X102355Y129975D01*
X102463Y129998D01*
X102508Y130020D01*
X102555Y130033D01*
X102650Y130089D01*
X102749Y130137D01*
X102787Y130170D01*
X102829Y130195D01*
X102950Y130301D01*
X104095Y131446D01*
X108267Y131446D01*
X108296Y131449D01*
X108325Y131447D01*
X108454Y131469D01*
X108582Y131486D01*
X108610Y131496D01*
X108639Y131501D01*
X108757Y131555D01*
X108878Y131603D01*
X108902Y131620D01*
X108929Y131632D01*
X109030Y131713D01*
X109135Y131789D01*
X109154Y131812D01*
X109177Y131831D01*
X109255Y131934D01*
X109338Y132034D01*
X109351Y132061D01*
X109368Y132085D01*
X109439Y132229D01*
X110034Y133666D01*
X112714Y136346D01*
X116215Y137796D01*
X118835Y137796D01*
X118973Y137813D01*
X119112Y137826D01*
X119131Y137833D01*
X119151Y137836D01*
X119280Y137887D01*
X119411Y137934D01*
X119428Y137945D01*
X119447Y137953D01*
X119559Y138034D01*
X119674Y138112D01*
X119687Y138128D01*
X119704Y138139D01*
X119793Y138247D01*
X119885Y138351D01*
X119894Y138369D01*
X119907Y138384D01*
X119966Y138510D01*
X120029Y138634D01*
X120034Y138654D01*
X120042Y138672D01*
X120068Y138808D01*
X120099Y138944D01*
X120098Y138965D01*
X120102Y138984D01*
X120093Y139123D01*
X120089Y139262D01*
X120084Y139282D01*
X120082Y139302D01*
X120039Y139434D01*
X120001Y139568D01*
X119990Y139585D01*
X119984Y139604D01*
X119910Y139722D01*
X119839Y139842D01*
X119821Y139863D01*
X119814Y139873D01*
X119799Y139887D01*
X119733Y139962D01*
X115260Y144435D01*
X115253Y144441D01*
X115247Y144448D01*
X115127Y144538D01*
X115009Y144630D01*
X115000Y144634D01*
X114993Y144640D01*
X114848Y144711D01*
X112714Y145594D01*
X110034Y148274D01*
X108584Y151775D01*
X108584Y155565D01*
X110034Y159066D01*
X112714Y161746D01*
X116215Y163196D01*
X120005Y163196D01*
X123506Y161746D01*
X126186Y159066D01*
X127636Y155565D01*
X127636Y151775D01*
X126186Y148274D01*
X124192Y146281D01*
X124119Y146186D01*
X124040Y146097D01*
X124022Y146061D01*
X123997Y146029D01*
X123950Y145920D01*
X123896Y145814D01*
X123887Y145775D01*
X123871Y145737D01*
X123852Y145620D01*
X123826Y145504D01*
X123827Y145463D01*
X123821Y145423D01*
X123832Y145305D01*
X123836Y145186D01*
X123847Y145147D01*
X123851Y145107D01*
X123891Y144995D01*
X123924Y144880D01*
X123945Y144846D01*
X123958Y144807D01*
X124025Y144709D01*
X124086Y144606D01*
X124125Y144561D01*
X124137Y144544D01*
X124152Y144531D01*
X124192Y144486D01*
X132081Y136597D01*
X132081Y121213D01*
X124625Y113757D01*
X102574Y113757D01*
X102476Y113745D01*
X102377Y113742D01*
X102319Y113725D01*
X102259Y113717D01*
X102167Y113681D01*
X102072Y113654D01*
X102020Y113623D01*
X101963Y113600D01*
X101883Y113542D01*
X101798Y113492D01*
X101722Y113426D01*
X101706Y113414D01*
X101698Y113404D01*
X101677Y113386D01*
X91319Y103028D01*
X91246Y102933D01*
X91167Y102844D01*
X91149Y102808D01*
X91124Y102776D01*
X91077Y102667D01*
X91023Y102561D01*
X91014Y102522D01*
X90998Y102485D01*
X90979Y102367D01*
X90953Y102251D01*
X90954Y102210D01*
X90948Y102170D01*
X90959Y102052D01*
X90963Y101933D01*
X90974Y101894D01*
X90978Y101854D01*
X91018Y101742D01*
X91051Y101627D01*
X91072Y101593D01*
X91085Y101555D01*
X91152Y101456D01*
X91213Y101353D01*
X91252Y101308D01*
X91264Y101291D01*
X91279Y101278D01*
X91319Y101233D01*
X92479Y100073D01*
X92479Y98494D01*
X84999Y91014D01*
X83394Y91014D01*
X83347Y91055D01*
X83311Y91074D01*
X83279Y91098D01*
X83170Y91146D01*
X83063Y91200D01*
X83024Y91209D01*
X82987Y91225D01*
X82869Y91244D01*
X82753Y91270D01*
X82713Y91268D01*
X82673Y91275D01*
X82554Y91264D01*
X82435Y91260D01*
X82396Y91249D01*
X82356Y91245D01*
X82244Y91205D01*
X82130Y91172D01*
X82095Y91151D01*
X82057Y91137D01*
X81958Y91071D01*
X81856Y91010D01*
X81811Y90970D01*
X81794Y90959D01*
X81780Y90944D01*
X81735Y90904D01*
X81264Y90432D01*
X81179Y90323D01*
X81090Y90216D01*
X81081Y90197D01*
X81069Y90181D01*
X81013Y90053D01*
X80954Y89928D01*
X80951Y89908D01*
X80943Y89889D01*
X80921Y89751D01*
X80895Y89615D01*
X80896Y89595D01*
X80893Y89575D01*
X80906Y89436D01*
X80914Y89298D01*
X80921Y89279D01*
X80923Y89259D01*
X80970Y89127D01*
X81012Y88996D01*
X81023Y88978D01*
X81030Y88959D01*
X81108Y88844D01*
X81183Y88727D01*
X81197Y88713D01*
X81209Y88696D01*
X81313Y88604D01*
X81414Y88509D01*
X81432Y88499D01*
X81447Y88486D01*
X81571Y88422D01*
X81693Y88355D01*
X81712Y88350D01*
X81730Y88341D01*
X81866Y88311D01*
X82001Y88276D01*
X82029Y88274D01*
X82041Y88271D01*
X82061Y88272D01*
X82161Y88266D01*
X86405Y88266D01*
X88266Y86405D01*
X88266Y54472D01*
X88267Y54462D01*
X88266Y54453D01*
X88287Y54304D01*
X88306Y54156D01*
X88309Y54147D01*
X88310Y54138D01*
X88362Y53986D01*
X88750Y53051D01*
X88750Y51089D01*
X88362Y50154D01*
X88360Y50145D01*
X88355Y50137D01*
X88318Y49991D01*
X88278Y49847D01*
X88278Y49838D01*
X88276Y49829D01*
X88266Y49668D01*
X88266Y30435D01*
X86405Y28574D01*
X24085Y28574D01*
X22224Y30435D01*
X22224Y35665D01*
X22209Y35783D01*
X22202Y35902D01*
X22189Y35940D01*
X22184Y35981D01*
X22141Y36091D01*
X22104Y36204D01*
X22082Y36239D01*
X22067Y36276D01*
X21998Y36372D01*
X21934Y36473D01*
X21904Y36501D01*
X21881Y36534D01*
X21789Y36610D01*
X21702Y36691D01*
X21667Y36711D01*
X21636Y36736D01*
X21528Y36787D01*
X21424Y36845D01*
X21384Y36855D01*
X21348Y36872D01*
X21231Y36894D01*
X21116Y36924D01*
X21056Y36928D01*
X21036Y36932D01*
X21015Y36930D01*
X20955Y36934D01*
X9365Y36934D01*
X9247Y36919D01*
X9128Y36912D01*
X9090Y36899D01*
X9049Y36894D01*
X8939Y36851D01*
X8826Y36814D01*
X8791Y36792D01*
X8754Y36777D01*
X8658Y36708D01*
X8557Y36644D01*
X8529Y36614D01*
X8496Y36591D01*
X8420Y36499D01*
X8339Y36412D01*
X8319Y36377D01*
X8294Y36346D01*
X8243Y36238D01*
X8185Y36134D01*
X8175Y36094D01*
X8158Y36058D01*
X8136Y35941D01*
X8106Y35826D01*
X8102Y35766D01*
X8098Y35746D01*
X8100Y35725D01*
X8096Y35665D01*
X8096Y35351D01*
X6979Y34234D01*
X-1599Y34234D01*
X-2913Y35547D01*
X-3007Y35620D01*
X-3096Y35699D01*
X-3132Y35717D01*
X-3164Y35742D01*
X-3273Y35790D01*
X-3379Y35844D01*
X-3418Y35853D01*
X-3456Y35869D01*
X-3573Y35887D01*
X-3689Y35913D01*
X-3730Y35912D01*
X-3770Y35919D01*
X-3888Y35907D01*
X-4007Y35904D01*
X-4046Y35892D01*
X-4086Y35889D01*
X-4198Y35848D01*
X-4313Y35815D01*
X-4348Y35795D01*
X-4386Y35781D01*
X-4484Y35714D01*
X-4587Y35654D01*
X-4632Y35614D01*
X-4649Y35603D01*
X-4662Y35587D01*
X-4708Y35547D01*
X-6021Y34234D01*
X-14599Y34234D01*
X-14623Y34258D01*
X-14733Y34344D01*
X-14840Y34432D01*
X-14859Y34441D01*
X-14875Y34453D01*
X-15002Y34509D01*
X-15128Y34568D01*
X-15148Y34572D01*
X-15167Y34580D01*
X-15304Y34602D01*
X-15441Y34628D01*
X-15461Y34626D01*
X-15481Y34630D01*
X-15620Y34616D01*
X-15758Y34608D01*
X-15777Y34602D01*
X-15797Y34600D01*
X-15929Y34553D01*
X-16060Y34510D01*
X-16077Y34499D01*
X-16097Y34492D01*
X-16212Y34414D01*
X-16329Y34340D01*
X-16343Y34325D01*
X-16360Y34314D01*
X-16452Y34209D01*
X-16547Y34108D01*
X-16557Y34090D01*
X-16570Y34075D01*
X-16634Y33951D01*
X-16701Y33830D01*
X-16706Y33810D01*
X-16715Y33792D01*
X-16745Y33656D01*
X-16780Y33522D01*
X-16782Y33494D01*
X-16785Y33482D01*
X-16784Y33461D01*
X-16790Y33361D01*
X-16790Y32795D01*
X-16778Y32697D01*
X-16775Y32598D01*
X-16758Y32540D01*
X-16750Y32480D01*
X-16714Y32387D01*
X-16686Y32292D01*
X-16656Y32240D01*
X-16633Y32184D01*
X-16575Y32104D01*
X-16525Y32018D01*
X-16459Y31943D01*
X-16447Y31927D01*
X-16437Y31919D01*
X-16419Y31898D01*
X-12067Y27546D01*
X-12016Y27506D01*
X-11971Y27459D01*
X-11891Y27409D01*
X-11816Y27351D01*
X-11756Y27325D01*
X-11701Y27291D01*
X-11611Y27263D01*
X-11524Y27225D01*
X-11460Y27215D01*
X-11398Y27195D01*
X-11303Y27190D01*
X-11210Y27175D01*
X-11145Y27181D01*
X-11080Y27178D01*
X-10988Y27196D01*
X-10893Y27205D01*
X-10832Y27227D01*
X-10768Y27240D01*
X-10619Y27300D01*
X-9971Y27612D01*
X-9900Y27597D01*
X-9896Y27597D01*
X-9892Y27596D01*
X-9738Y27604D01*
X-9582Y27610D01*
X-9578Y27611D01*
X-9574Y27611D01*
X-9418Y27649D01*
X-7873Y28125D01*
X-7869Y28127D01*
X-7865Y28128D01*
X-7725Y28192D01*
X-7583Y28257D01*
X-7580Y28259D01*
X-7576Y28261D01*
X-7455Y28359D01*
X-7396Y28407D01*
X-6639Y28521D01*
X-6625Y28525D01*
X-6610Y28525D01*
X-6454Y28563D01*
X-5723Y28788D01*
X-5656Y28763D01*
X-5652Y28762D01*
X-5648Y28761D01*
X-5493Y28745D01*
X-5340Y28728D01*
X-5335Y28729D01*
X-5331Y28728D01*
X-5171Y28742D01*
X-3572Y28983D01*
X-3568Y28984D01*
X-3564Y28984D01*
X-3416Y29027D01*
X-3266Y29070D01*
X-3262Y29072D01*
X-3259Y29073D01*
X-3126Y29151D01*
X-3058Y29190D01*
X-2293Y29190D01*
X-2279Y29192D01*
X-2264Y29191D01*
X-2104Y29204D01*
X-1348Y29318D01*
X-1285Y29283D01*
X-1281Y29282D01*
X-1277Y29280D01*
X-1128Y29242D01*
X-977Y29202D01*
X-973Y29201D01*
X-969Y29200D01*
X-808Y29190D01*
X808Y29190D01*
X813Y29191D01*
X817Y29190D01*
X970Y29211D01*
X1124Y29230D01*
X1128Y29232D01*
X1132Y29232D01*
X1276Y29290D01*
X1347Y29318D01*
X2104Y29204D01*
X2118Y29204D01*
X2132Y29200D01*
X2293Y29190D01*
X3058Y29190D01*
X3115Y29146D01*
X3119Y29144D01*
X3122Y29142D01*
X3265Y29081D01*
X3407Y29019D01*
X3411Y29019D01*
X3415Y29017D01*
X3572Y28983D01*
X5171Y28742D01*
X5175Y28742D01*
X5179Y28741D01*
X5334Y28738D01*
X5489Y28734D01*
X5493Y28735D01*
X5497Y28735D01*
X5649Y28771D01*
X5723Y28789D01*
X6454Y28563D01*
X6468Y28561D01*
X6482Y28555D01*
X6639Y28521D01*
X7395Y28407D01*
X7445Y28354D01*
X7448Y28352D01*
X7451Y28349D01*
X7584Y28268D01*
X7715Y28186D01*
X7719Y28185D01*
X7722Y28183D01*
X7873Y28125D01*
X9418Y27649D01*
X9422Y27648D01*
X9426Y27646D01*
X9577Y27621D01*
X9731Y27594D01*
X9735Y27594D01*
X9739Y27594D01*
X9894Y27607D01*
X9970Y27613D01*
X10660Y27281D01*
X10674Y27276D01*
X10686Y27268D01*
X10836Y27211D01*
X11567Y26986D01*
X11609Y26927D01*
X11612Y26924D01*
X11614Y26920D01*
X11731Y26822D01*
X11850Y26720D01*
X11854Y26718D01*
X11857Y26715D01*
X11998Y26636D01*
X13454Y25935D01*
X13458Y25934D01*
X13462Y25931D01*
X13607Y25884D01*
X13756Y25834D01*
X13760Y25834D01*
X13764Y25832D01*
X13917Y25822D01*
X13995Y25817D01*
X14628Y25386D01*
X14640Y25379D01*
X14652Y25370D01*
X14792Y25291D01*
X15481Y24959D01*
X15513Y24894D01*
X15516Y24891D01*
X15518Y24887D01*
X15619Y24772D01*
X15721Y24654D01*
X15725Y24651D01*
X15727Y24648D01*
X15854Y24549D01*
X17190Y23638D01*
X17194Y23636D01*
X17197Y23634D01*
X17335Y23565D01*
X17473Y23494D01*
X17478Y23493D01*
X17481Y23491D01*
X17632Y23458D01*
X17708Y23441D01*
X18269Y22920D01*
X18280Y22912D01*
X18290Y22901D01*
X18417Y22802D01*
X19049Y22371D01*
X19071Y22302D01*
X19073Y22299D01*
X19074Y22295D01*
X19159Y22163D01*
X19241Y22034D01*
X19244Y22031D01*
X19246Y22027D01*
X19357Y21910D01*
X20542Y20811D01*
X20546Y20808D01*
X20548Y20805D01*
X20676Y20715D01*
X20801Y20625D01*
X20804Y20624D01*
X20808Y20621D01*
X20955Y20565D01*
X21025Y20538D01*
X21502Y19940D01*
X21512Y19930D01*
X21520Y19918D01*
X21631Y19801D01*
X22191Y19281D01*
X22203Y19209D01*
X22204Y19206D01*
X22205Y19201D01*
X22268Y19061D01*
X22331Y18918D01*
X22333Y18915D01*
X22335Y18911D01*
X22427Y18779D01*
X23435Y17515D01*
X23438Y17512D01*
X23440Y17509D01*
X23552Y17401D01*
X23663Y17293D01*
X23667Y17291D01*
X23670Y17288D01*
X23805Y17212D01*
X23872Y17174D01*
X24254Y16511D01*
X24263Y16499D01*
X24269Y16486D01*
X24361Y16354D01*
X24838Y15757D01*
X24839Y15684D01*
X24840Y15680D01*
X24840Y15676D01*
X24857Y15616D01*
X24857Y15609D01*
X24868Y15575D01*
X24881Y15526D01*
X24922Y15377D01*
X24924Y15373D01*
X24925Y15370D01*
X24952Y15314D01*
X24955Y15306D01*
X24961Y15296D01*
X24997Y15225D01*
X25805Y13825D01*
X25807Y13822D01*
X25809Y13818D01*
X25905Y13693D01*
X25997Y13572D01*
X26000Y13569D01*
X26003Y13566D01*
X26126Y13469D01*
X26185Y13423D01*
X26465Y12710D01*
X26472Y12697D01*
X26476Y12683D01*
X26547Y12539D01*
X26930Y11877D01*
X26920Y11805D01*
X26920Y11801D01*
X26920Y11797D01*
X26938Y11643D01*
X26956Y11489D01*
X26958Y11486D01*
X26958Y11481D01*
X27007Y11328D01*
X27598Y9823D01*
X27600Y9819D01*
X27601Y9815D01*
X27678Y9677D01*
X27750Y9544D01*
X27753Y9541D01*
X27755Y9537D01*
X27863Y9424D01*
X27914Y9368D01*
X28085Y8622D01*
X28090Y8609D01*
X28091Y8594D01*
X28140Y8441D01*
X28420Y7729D01*
X28399Y7660D01*
X28399Y7656D01*
X28398Y7652D01*
X28394Y7498D01*
X28388Y7342D01*
X28389Y7338D01*
X28389Y7334D01*
X28415Y7175D01*
X28775Y5598D01*
X28776Y5594D01*
X28777Y5590D01*
X28830Y5447D01*
X28884Y5300D01*
X28886Y5296D01*
X28888Y5292D01*
X28976Y5165D01*
X29020Y5102D01*
X29077Y4339D01*
X29080Y4324D01*
X29079Y4310D01*
X29097Y4199D01*
X29098Y4186D01*
X29101Y4177D01*
X29105Y4151D01*
X29275Y3406D01*
X29245Y3340D01*
X29244Y3336D01*
X29242Y3332D01*
X29215Y3178D01*
X29186Y3027D01*
X29187Y3023D01*
X29186Y3019D01*
X29188Y2858D01*
X29268Y1789D01*
X29282Y1719D01*
X29287Y1647D01*
X29314Y1564D01*
X29331Y1477D01*
X29363Y1413D01*
X29385Y1345D01*
X29432Y1270D01*
X29470Y1191D01*
X29516Y1137D01*
X29555Y1076D01*
X29619Y1016D01*
X29676Y949D01*
X29734Y907D01*
X29786Y858D01*
X29863Y815D01*
X29935Y765D01*
X30002Y739D01*
X30065Y704D01*
X30150Y682D01*
X30232Y651D01*
X30303Y643D01*
X30373Y625D01*
X30534Y615D01*
X67159Y615D01*
X67102Y-100D01*
X67106Y-129D01*
X67101Y-157D01*
X67118Y-226D01*
X67126Y-298D01*
X67141Y-322D01*
X67147Y-350D01*
X67190Y-408D01*
X67226Y-470D01*
X67248Y-487D01*
X67265Y-510D01*
X67327Y-547D01*
X67384Y-590D01*
X67412Y-597D01*
X67436Y-612D01*
X67536Y-628D01*
X67577Y-639D01*
X67587Y-637D01*
X67600Y-639D01*
X86600Y-639D01*
X86676Y-624D01*
G37*
G36*
X-50108Y39002D02*
X-50108Y39002D01*
X-50009Y39005D01*
X-49951Y39022D01*
X-49891Y39030D01*
X-49799Y39066D01*
X-49704Y39094D01*
X-49651Y39124D01*
X-49595Y39147D01*
X-49515Y39205D01*
X-49430Y39255D01*
X-49354Y39321D01*
X-49338Y39333D01*
X-49330Y39343D01*
X-49309Y39361D01*
X-38928Y49742D01*
X-38868Y49820D01*
X-38800Y49892D01*
X-38771Y49945D01*
X-38734Y49993D01*
X-38694Y50084D01*
X-38646Y50171D01*
X-38631Y50229D01*
X-38607Y50285D01*
X-38592Y50383D01*
X-38567Y50479D01*
X-38561Y50579D01*
X-38557Y50599D01*
X-38559Y50611D01*
X-38557Y50639D01*
X-38557Y83402D01*
X-38572Y83520D01*
X-38579Y83639D01*
X-38592Y83677D01*
X-38597Y83718D01*
X-38640Y83828D01*
X-38677Y83942D01*
X-38699Y83976D01*
X-38714Y84013D01*
X-38783Y84110D01*
X-38847Y84210D01*
X-38877Y84238D01*
X-38900Y84271D01*
X-38992Y84347D01*
X-39079Y84428D01*
X-39114Y84448D01*
X-39145Y84473D01*
X-39253Y84524D01*
X-39357Y84582D01*
X-39397Y84592D01*
X-39433Y84609D01*
X-39550Y84631D01*
X-39665Y84661D01*
X-39725Y84665D01*
X-39745Y84669D01*
X-39766Y84668D01*
X-39826Y84671D01*
X-44975Y84671D01*
X-45001Y84692D01*
X-45090Y84770D01*
X-45126Y84789D01*
X-45158Y84814D01*
X-45267Y84861D01*
X-45373Y84915D01*
X-45413Y84924D01*
X-45450Y84940D01*
X-45567Y84959D01*
X-45684Y84985D01*
X-45724Y84983D01*
X-45764Y84990D01*
X-45882Y84979D01*
X-46001Y84975D01*
X-46040Y84964D01*
X-46080Y84960D01*
X-46193Y84920D01*
X-46307Y84887D01*
X-46342Y84866D01*
X-46380Y84852D01*
X-46478Y84785D01*
X-46581Y84725D01*
X-46626Y84685D01*
X-46643Y84674D01*
X-46656Y84659D01*
X-46702Y84619D01*
X-51739Y79581D01*
X-54593Y79581D01*
X-54691Y79569D01*
X-54790Y79566D01*
X-54848Y79549D01*
X-54908Y79541D01*
X-55000Y79505D01*
X-55095Y79477D01*
X-55148Y79447D01*
X-55204Y79424D01*
X-55284Y79366D01*
X-55369Y79316D01*
X-55444Y79250D01*
X-55461Y79238D01*
X-55469Y79228D01*
X-55490Y79210D01*
X-56302Y78397D01*
X-56363Y78319D01*
X-56431Y78247D01*
X-56460Y78194D01*
X-56497Y78146D01*
X-56537Y78055D01*
X-56585Y77968D01*
X-56600Y77910D01*
X-56624Y77854D01*
X-56639Y77756D01*
X-56664Y77660D01*
X-56670Y77560D01*
X-56674Y77540D01*
X-56672Y77528D01*
X-56674Y77500D01*
X-56674Y76755D01*
X-56659Y76637D01*
X-56652Y76518D01*
X-56639Y76480D01*
X-56634Y76439D01*
X-56591Y76329D01*
X-56554Y76216D01*
X-56532Y76181D01*
X-56517Y76144D01*
X-56448Y76048D01*
X-56384Y75947D01*
X-56354Y75919D01*
X-56331Y75886D01*
X-56239Y75810D01*
X-56152Y75729D01*
X-56117Y75709D01*
X-56086Y75684D01*
X-55978Y75633D01*
X-55874Y75575D01*
X-55834Y75565D01*
X-55798Y75548D01*
X-55681Y75526D01*
X-55566Y75496D01*
X-55506Y75492D01*
X-55486Y75488D01*
X-55465Y75490D01*
X-55405Y75486D01*
X-53791Y75486D01*
X-52674Y74369D01*
X-52674Y62791D01*
X-53791Y61674D01*
X-66369Y61674D01*
X-66705Y62010D01*
X-66799Y62083D01*
X-66889Y62162D01*
X-66925Y62180D01*
X-66957Y62205D01*
X-67066Y62253D01*
X-67172Y62307D01*
X-67211Y62315D01*
X-67248Y62332D01*
X-67366Y62350D01*
X-67482Y62376D01*
X-67523Y62375D01*
X-67563Y62381D01*
X-67681Y62370D01*
X-67800Y62367D01*
X-67839Y62355D01*
X-67879Y62352D01*
X-67991Y62311D01*
X-68106Y62278D01*
X-68140Y62258D01*
X-68178Y62244D01*
X-68277Y62177D01*
X-68380Y62117D01*
X-68425Y62077D01*
X-68442Y62065D01*
X-68455Y62050D01*
X-68500Y62010D01*
X-69916Y60594D01*
X-82484Y60594D01*
X-85456Y63566D01*
X-85456Y99871D01*
X-85468Y99969D01*
X-85471Y100068D01*
X-85488Y100126D01*
X-85496Y100186D01*
X-85532Y100278D01*
X-85560Y100373D01*
X-85590Y100426D01*
X-85613Y100482D01*
X-85671Y100562D01*
X-85721Y100647D01*
X-85787Y100723D01*
X-85799Y100739D01*
X-85809Y100747D01*
X-85827Y100768D01*
X-134986Y149926D01*
X-134986Y153023D01*
X-135002Y153152D01*
X-135012Y153282D01*
X-135022Y153309D01*
X-135026Y153338D01*
X-135073Y153459D01*
X-135116Y153583D01*
X-135132Y153607D01*
X-135143Y153634D01*
X-135219Y153739D01*
X-135291Y153848D01*
X-135312Y153868D01*
X-135329Y153891D01*
X-135430Y153975D01*
X-135526Y154062D01*
X-135552Y154076D01*
X-135574Y154094D01*
X-135692Y154150D01*
X-135807Y154211D01*
X-135836Y154217D01*
X-135862Y154230D01*
X-135990Y154254D01*
X-136117Y154285D01*
X-136158Y154287D01*
X-136174Y154290D01*
X-136196Y154288D01*
X-136277Y154292D01*
X-154149Y153976D01*
X-154235Y154500D01*
X-154247Y154531D01*
X-154254Y154578D01*
X-155225Y157486D01*
X-155238Y157509D01*
X-155244Y157534D01*
X-155251Y157543D01*
X-155256Y157560D01*
X-156681Y160275D01*
X-156703Y160301D01*
X-156724Y160343D01*
X-158566Y162794D01*
X-158591Y162817D01*
X-158619Y162854D01*
X-160831Y164978D01*
X-160859Y164996D01*
X-160893Y165029D01*
X-163416Y166771D01*
X-163443Y166782D01*
X-163465Y166801D01*
X-163534Y166821D01*
X-163599Y166849D01*
X-163628Y166849D01*
X-163656Y166857D01*
X-163727Y166849D01*
X-163798Y166850D01*
X-163825Y166838D01*
X-163854Y166835D01*
X-163916Y166800D01*
X-163981Y166772D01*
X-164002Y166752D01*
X-164027Y166737D01*
X-164090Y166660D01*
X-164120Y166630D01*
X-164124Y166620D01*
X-164133Y166609D01*
X-173633Y150109D01*
X-173657Y150036D01*
X-173688Y149966D01*
X-173688Y149942D01*
X-173696Y149920D01*
X-173690Y149844D01*
X-173691Y149767D01*
X-173681Y149743D01*
X-173680Y149722D01*
X-173659Y149683D01*
X-173640Y149631D01*
X-173639Y149625D01*
X-173637Y149623D01*
X-173633Y149611D01*
X-164133Y133111D01*
X-164114Y133089D01*
X-164101Y133063D01*
X-164048Y133015D01*
X-164001Y132962D01*
X-163975Y132949D01*
X-163954Y132930D01*
X-163886Y132907D01*
X-163822Y132876D01*
X-163793Y132875D01*
X-163766Y132865D01*
X-163694Y132870D01*
X-163623Y132867D01*
X-163596Y132877D01*
X-163567Y132879D01*
X-163477Y132921D01*
X-163437Y132936D01*
X-163429Y132943D01*
X-163416Y132949D01*
X-162808Y133369D01*
X-144520Y101693D01*
X-144477Y101636D01*
X-144442Y101574D01*
X-144381Y101510D01*
X-144328Y101440D01*
X-144272Y101396D01*
X-144223Y101344D01*
X-144148Y101297D01*
X-144079Y101243D01*
X-144013Y101213D01*
X-143953Y101175D01*
X-143869Y101149D01*
X-143788Y101113D01*
X-143718Y101101D01*
X-143650Y101080D01*
X-143562Y101075D01*
X-143475Y101060D01*
X-143403Y101066D01*
X-143332Y101062D01*
X-143246Y101079D01*
X-143158Y101086D01*
X-143090Y101110D01*
X-143020Y101124D01*
X-142871Y101184D01*
X-141894Y101654D01*
X-141891Y101656D01*
X-141887Y101658D01*
X-141756Y101744D01*
X-141627Y101827D01*
X-141625Y101830D01*
X-141621Y101832D01*
X-141517Y101946D01*
X-141464Y102003D01*
X-140733Y102229D01*
X-140720Y102235D01*
X-140706Y102238D01*
X-140557Y102298D01*
X-139868Y102629D01*
X-139797Y102614D01*
X-139793Y102614D01*
X-139789Y102614D01*
X-139635Y102621D01*
X-139479Y102627D01*
X-139475Y102628D01*
X-139471Y102628D01*
X-139314Y102666D01*
X-137767Y103143D01*
X-137763Y103144D01*
X-137759Y103145D01*
X-137619Y103209D01*
X-137477Y103274D01*
X-137474Y103276D01*
X-137470Y103278D01*
X-137350Y103375D01*
X-137290Y103424D01*
X-136533Y103538D01*
X-136519Y103542D01*
X-136505Y103542D01*
X-136348Y103580D01*
X-135617Y103805D01*
X-135550Y103779D01*
X-135546Y103779D01*
X-135542Y103777D01*
X-135387Y103761D01*
X-135234Y103744D01*
X-135230Y103745D01*
X-135225Y103745D01*
X-135065Y103758D01*
X-133464Y103999D01*
X-133460Y104000D01*
X-133456Y104000D01*
X-133307Y104044D01*
X-133158Y104086D01*
X-133154Y104088D01*
X-133150Y104089D01*
X-133014Y104169D01*
X-132950Y104206D01*
X-132185Y104206D01*
X-132171Y104208D01*
X-132156Y104206D01*
X-131996Y104220D01*
X-131240Y104334D01*
X-131176Y104298D01*
X-131172Y104297D01*
X-131169Y104295D01*
X-131017Y104256D01*
X-130869Y104217D01*
X-130865Y104217D01*
X-130861Y104216D01*
X-130700Y104205D01*
X-129081Y104205D01*
X-129077Y104205D01*
X-129073Y104205D01*
X-128919Y104225D01*
X-128765Y104245D01*
X-128762Y104246D01*
X-128758Y104247D01*
X-128612Y104305D01*
X-128542Y104333D01*
X-127786Y104219D01*
X-127771Y104218D01*
X-127757Y104215D01*
X-127596Y104204D01*
X-126832Y104204D01*
X-126775Y104160D01*
X-126771Y104158D01*
X-126767Y104156D01*
X-126625Y104095D01*
X-126483Y104033D01*
X-126479Y104033D01*
X-126475Y104031D01*
X-126318Y103997D01*
X-124717Y103755D01*
X-124712Y103755D01*
X-124708Y103754D01*
X-124554Y103751D01*
X-124399Y103747D01*
X-124395Y103748D01*
X-124390Y103748D01*
X-124239Y103784D01*
X-124165Y103801D01*
X-123433Y103576D01*
X-123419Y103573D01*
X-123406Y103567D01*
X-123248Y103533D01*
X-122493Y103419D01*
X-122443Y103367D01*
X-122439Y103365D01*
X-122436Y103362D01*
X-122304Y103280D01*
X-122173Y103198D01*
X-122169Y103197D01*
X-122165Y103195D01*
X-122015Y103138D01*
X-120468Y102660D01*
X-120464Y102659D01*
X-120460Y102657D01*
X-120309Y102632D01*
X-120155Y102605D01*
X-120150Y102605D01*
X-120146Y102604D01*
X-119994Y102617D01*
X-119915Y102623D01*
X-119226Y102291D01*
X-119212Y102286D01*
X-119200Y102279D01*
X-119110Y102245D01*
X-119109Y102244D01*
X-119108Y102244D01*
X-119049Y102222D01*
X-118319Y101996D01*
X-118277Y101937D01*
X-118274Y101934D01*
X-118272Y101931D01*
X-118155Y101832D01*
X-118036Y101730D01*
X-118032Y101728D01*
X-118029Y101725D01*
X-117888Y101646D01*
X-116430Y100944D01*
X-116426Y100942D01*
X-116422Y100940D01*
X-116275Y100892D01*
X-116128Y100842D01*
X-116124Y100842D01*
X-116120Y100841D01*
X-115965Y100831D01*
X-115889Y100825D01*
X-115257Y100394D01*
X-115244Y100387D01*
X-115233Y100378D01*
X-115092Y100299D01*
X-114404Y99967D01*
X-114371Y99902D01*
X-114369Y99899D01*
X-114367Y99895D01*
X-114265Y99779D01*
X-114163Y99662D01*
X-114160Y99659D01*
X-114157Y99656D01*
X-114030Y99557D01*
X-112693Y98645D01*
X-112689Y98643D01*
X-112686Y98640D01*
X-112549Y98571D01*
X-112410Y98500D01*
X-112406Y98499D01*
X-112402Y98497D01*
X-112252Y98464D01*
X-112175Y98447D01*
X-111615Y97926D01*
X-111603Y97918D01*
X-111593Y97907D01*
X-111466Y97808D01*
X-110835Y97377D01*
X-110813Y97308D01*
X-110810Y97304D01*
X-110809Y97301D01*
X-110726Y97171D01*
X-110643Y97039D01*
X-110640Y97036D01*
X-110637Y97033D01*
X-110527Y96916D01*
X-109340Y95814D01*
X-109337Y95812D01*
X-109334Y95809D01*
X-109207Y95718D01*
X-109082Y95629D01*
X-109078Y95627D01*
X-109074Y95625D01*
X-108929Y95569D01*
X-108858Y95542D01*
X-108381Y94943D01*
X-108371Y94933D01*
X-108363Y94921D01*
X-108252Y94804D01*
X-107692Y94284D01*
X-107680Y94212D01*
X-107678Y94209D01*
X-107678Y94205D01*
X-107614Y94061D01*
X-107552Y93921D01*
X-107550Y93918D01*
X-107548Y93914D01*
X-107456Y93782D01*
X-106447Y92516D01*
X-106444Y92513D01*
X-106441Y92510D01*
X-106328Y92401D01*
X-106219Y92294D01*
X-106215Y92292D01*
X-106212Y92289D01*
X-106076Y92212D01*
X-106011Y92175D01*
X-105628Y91512D01*
X-105619Y91500D01*
X-105614Y91487D01*
X-105521Y91355D01*
X-105045Y90757D01*
X-105044Y90684D01*
X-105043Y90681D01*
X-105043Y90676D01*
X-105001Y90527D01*
X-104961Y90378D01*
X-104959Y90374D01*
X-104958Y90370D01*
X-104886Y90226D01*
X-104077Y88823D01*
X-104075Y88820D01*
X-104073Y88816D01*
X-104009Y88733D01*
X-103959Y88654D01*
X-103923Y88620D01*
X-103885Y88570D01*
X-103882Y88567D01*
X-103879Y88564D01*
X-103785Y88490D01*
X-103727Y88436D01*
X-103696Y88419D01*
X-103417Y87708D01*
X-103411Y87696D01*
X-103407Y87682D01*
X-103394Y87655D01*
X-103393Y87654D01*
X-103392Y87651D01*
X-103335Y87537D01*
X-102953Y86875D01*
X-102963Y86803D01*
X-102962Y86799D01*
X-102963Y86795D01*
X-102944Y86640D01*
X-102926Y86487D01*
X-102925Y86483D01*
X-102925Y86479D01*
X-102875Y86326D01*
X-102284Y84819D01*
X-102282Y84815D01*
X-102281Y84811D01*
X-102205Y84674D01*
X-102132Y84539D01*
X-102129Y84536D01*
X-102127Y84533D01*
X-102021Y84421D01*
X-101968Y84364D01*
X-101798Y83618D01*
X-101793Y83604D01*
X-101792Y83590D01*
X-101742Y83436D01*
X-101463Y82724D01*
X-101484Y82655D01*
X-101484Y82651D01*
X-101485Y82647D01*
X-101490Y82491D01*
X-101495Y82337D01*
X-101494Y82333D01*
X-101494Y82329D01*
X-101468Y82170D01*
X-101109Y80591D01*
X-101107Y80588D01*
X-101107Y80583D01*
X-101053Y80439D01*
X-101000Y80293D01*
X-100997Y80289D01*
X-100996Y80285D01*
X-100908Y80159D01*
X-100864Y80095D01*
X-100807Y79332D01*
X-100804Y79317D01*
X-100804Y79303D01*
X-100779Y79144D01*
X-100609Y78398D01*
X-100639Y78333D01*
X-100640Y78329D01*
X-100642Y78325D01*
X-100670Y78169D01*
X-100698Y78020D01*
X-100697Y78016D01*
X-100698Y78012D01*
X-100696Y77851D01*
X-100576Y76236D01*
X-100575Y76232D01*
X-100575Y76228D01*
X-100543Y76074D01*
X-100513Y75925D01*
X-100511Y75921D01*
X-100510Y75917D01*
X-100441Y75777D01*
X-100408Y75708D01*
X-100465Y74945D01*
X-100465Y74931D01*
X-100467Y74917D01*
X-100465Y74756D01*
X-100409Y73993D01*
X-100449Y73933D01*
X-100450Y73929D01*
X-100452Y73925D01*
X-100503Y73776D01*
X-100553Y73632D01*
X-100553Y73628D01*
X-100555Y73624D01*
X-100577Y73465D01*
X-100698Y71850D01*
X-100698Y71846D01*
X-100699Y71842D01*
X-100690Y71684D01*
X-100682Y71533D01*
X-100681Y71529D01*
X-100681Y71525D01*
X-100634Y71376D01*
X-100611Y71303D01*
X-100781Y70557D01*
X-100783Y70543D01*
X-100788Y70529D01*
X-100810Y70370D01*
X-100867Y69607D01*
X-100916Y69554D01*
X-100918Y69550D01*
X-100920Y69547D01*
X-100992Y69408D01*
X-101064Y69272D01*
X-101065Y69268D01*
X-101067Y69264D01*
X-101112Y69110D01*
X-101473Y67532D01*
X-101473Y67528D01*
X-101475Y67524D01*
X-101489Y67371D01*
X-101505Y67215D01*
X-101504Y67211D01*
X-101504Y67207D01*
X-101480Y67054D01*
X-101468Y66978D01*
X-101748Y66266D01*
X-101751Y66252D01*
X-101758Y66239D01*
X-101804Y66084D01*
X-101841Y65924D01*
X-101851Y65822D01*
X-101870Y65721D01*
X-101866Y65664D01*
X-101872Y65607D01*
X-101857Y65506D01*
X-101850Y65404D01*
X-101833Y65350D01*
X-101824Y65293D01*
X-101784Y65199D01*
X-101752Y65101D01*
X-101722Y65053D01*
X-101699Y65000D01*
X-101637Y64919D01*
X-101582Y64833D01*
X-101540Y64793D01*
X-101505Y64748D01*
X-101425Y64685D01*
X-101350Y64615D01*
X-101300Y64587D01*
X-101255Y64552D01*
X-101161Y64511D01*
X-101072Y64461D01*
X-101016Y64447D01*
X-100964Y64424D01*
X-100863Y64407D01*
X-100764Y64382D01*
X-100671Y64376D01*
X-100652Y64373D01*
X-75641Y39361D01*
X-75563Y39301D01*
X-75491Y39233D01*
X-75438Y39204D01*
X-75390Y39167D01*
X-75299Y39127D01*
X-75212Y39079D01*
X-75153Y39064D01*
X-75098Y39040D01*
X-75000Y39025D01*
X-74904Y39000D01*
X-74804Y38994D01*
X-74784Y38990D01*
X-74771Y38992D01*
X-74743Y38990D01*
X-50206Y38990D01*
X-50108Y39002D01*
G37*
G36*
X-71056Y62510D02*
X-71056Y62510D01*
X-70992Y62509D01*
X-70917Y62530D01*
X-70841Y62541D01*
X-70782Y62567D01*
X-70720Y62584D01*
X-70654Y62625D01*
X-70584Y62657D01*
X-70535Y62699D01*
X-70480Y62732D01*
X-70428Y62790D01*
X-70370Y62840D01*
X-70334Y62894D01*
X-70291Y62942D01*
X-70258Y63011D01*
X-70215Y63076D01*
X-70196Y63138D01*
X-70168Y63195D01*
X-70157Y63265D01*
X-70133Y63346D01*
X-70132Y63431D01*
X-70121Y63500D01*
X-70121Y92604D01*
X-70134Y92699D01*
X-70139Y92795D01*
X-70154Y92838D01*
X-70161Y92883D01*
X-70200Y92971D01*
X-70232Y93062D01*
X-70257Y93096D01*
X-70277Y93140D01*
X-70360Y93238D01*
X-70413Y93311D01*
X-71581Y94478D01*
X-71581Y98562D01*
X-70413Y99729D01*
X-70356Y99806D01*
X-70291Y99877D01*
X-70271Y99918D01*
X-70244Y99955D01*
X-70210Y100045D01*
X-70168Y100131D01*
X-70162Y100173D01*
X-70145Y100219D01*
X-70138Y100300D01*
X-70133Y100318D01*
X-70132Y100363D01*
X-70121Y100436D01*
X-70121Y102870D01*
X-70134Y102965D01*
X-70139Y103061D01*
X-70154Y103104D01*
X-70161Y103149D01*
X-70200Y103237D01*
X-70232Y103328D01*
X-70257Y103362D01*
X-70277Y103406D01*
X-70360Y103504D01*
X-70413Y103577D01*
X-110688Y143852D01*
X-110765Y143909D01*
X-110837Y143974D01*
X-110878Y143994D01*
X-110914Y144021D01*
X-111004Y144055D01*
X-111090Y144097D01*
X-111132Y144103D01*
X-111178Y144120D01*
X-111306Y144130D01*
X-111395Y144144D01*
X-111896Y144144D01*
X-117476Y149724D01*
X-117476Y150225D01*
X-117489Y150320D01*
X-117494Y150416D01*
X-117509Y150459D01*
X-117516Y150504D01*
X-117555Y150592D01*
X-117587Y150683D01*
X-117612Y150717D01*
X-117632Y150761D01*
X-117715Y150858D01*
X-117768Y150932D01*
X-120921Y154084D01*
X-120921Y156471D01*
X-118723Y156509D01*
X-118616Y156525D01*
X-118508Y156532D01*
X-118459Y156548D01*
X-118408Y156555D01*
X-118308Y156596D01*
X-118206Y156630D01*
X-118162Y156657D01*
X-118114Y156677D01*
X-118028Y156742D01*
X-117937Y156800D01*
X-117901Y156837D01*
X-117860Y156869D01*
X-117793Y156953D01*
X-117719Y157031D01*
X-117694Y157077D01*
X-117662Y157117D01*
X-117617Y157215D01*
X-117565Y157310D01*
X-117553Y157360D01*
X-117531Y157407D01*
X-117513Y157513D01*
X-117490Y157601D01*
X-111896Y163196D01*
X-103638Y163196D01*
X-103580Y163183D01*
X-103540Y163184D01*
X-103500Y163178D01*
X-103382Y163189D01*
X-103263Y163192D01*
X-103224Y163204D01*
X-103184Y163207D01*
X-103071Y163248D01*
X-102957Y163281D01*
X-102922Y163301D01*
X-102884Y163315D01*
X-102840Y163345D01*
X-102836Y163347D01*
X-102810Y163365D01*
X-102786Y163382D01*
X-102683Y163442D01*
X-102638Y163482D01*
X-102621Y163494D01*
X-102608Y163509D01*
X-102585Y163529D01*
X-102579Y163533D01*
X-102575Y163537D01*
X-102562Y163549D01*
X-101645Y164466D01*
X-72195Y164466D01*
X-66906Y159177D01*
X-66828Y159117D01*
X-66756Y159049D01*
X-66703Y159020D01*
X-66655Y158983D01*
X-66564Y158943D01*
X-66477Y158895D01*
X-66419Y158880D01*
X-66363Y158856D01*
X-66265Y158841D01*
X-66170Y158816D01*
X-66069Y158810D01*
X-66049Y158806D01*
X-66037Y158808D01*
X-66009Y158806D01*
X-63619Y158806D01*
X-63485Y158823D01*
X-63349Y158835D01*
X-63327Y158843D01*
X-63303Y158846D01*
X-63178Y158895D01*
X-63050Y158941D01*
X-63030Y158954D01*
X-63008Y158963D01*
X-62898Y159042D01*
X-62785Y159118D01*
X-62770Y159136D01*
X-62750Y159149D01*
X-62664Y159254D01*
X-62574Y159355D01*
X-62563Y159376D01*
X-62548Y159394D01*
X-62490Y159517D01*
X-62427Y159637D01*
X-62422Y159661D01*
X-62412Y159682D01*
X-62387Y159815D01*
X-62356Y159947D01*
X-62357Y159971D01*
X-62352Y159994D01*
X-62361Y160130D01*
X-62364Y160265D01*
X-62371Y160288D01*
X-62372Y160312D01*
X-62414Y160441D01*
X-62451Y160571D01*
X-62463Y160592D01*
X-62470Y160614D01*
X-62543Y160729D01*
X-62611Y160846D01*
X-62633Y160871D01*
X-62640Y160883D01*
X-62656Y160898D01*
X-62717Y160968D01*
X-92536Y191117D01*
X-92546Y191125D01*
X-92554Y191135D01*
X-92671Y191222D01*
X-92786Y191313D01*
X-92798Y191318D01*
X-92808Y191326D01*
X-92953Y191397D01*
X-92962Y191401D01*
X-94349Y192788D01*
X-95100Y194599D01*
X-95100Y196561D01*
X-94349Y198372D01*
X-92962Y199759D01*
X-92675Y199878D01*
X-92632Y199903D01*
X-92585Y199920D01*
X-92494Y199982D01*
X-92398Y200036D01*
X-92363Y200071D01*
X-92322Y200098D01*
X-92249Y200181D01*
X-92170Y200257D01*
X-92144Y200300D01*
X-92111Y200337D01*
X-92061Y200435D01*
X-92004Y200528D01*
X-91989Y200576D01*
X-91967Y200620D01*
X-91943Y200727D01*
X-91910Y200832D01*
X-91908Y200882D01*
X-91897Y200930D01*
X-91900Y201040D01*
X-91895Y201150D01*
X-91905Y201199D01*
X-91907Y201248D01*
X-91937Y201354D01*
X-91959Y201461D01*
X-91981Y201506D01*
X-91995Y201554D01*
X-92051Y201648D01*
X-92099Y201747D01*
X-92131Y201785D01*
X-92157Y201828D01*
X-92263Y201949D01*
X-96272Y205957D01*
X-96366Y206031D01*
X-96455Y206109D01*
X-96491Y206128D01*
X-96523Y206152D01*
X-96633Y206200D01*
X-96739Y206254D01*
X-96778Y206263D01*
X-96815Y206279D01*
X-96933Y206297D01*
X-97049Y206323D01*
X-97089Y206322D01*
X-97129Y206329D01*
X-97248Y206317D01*
X-97367Y206314D01*
X-97405Y206303D01*
X-97446Y206299D01*
X-97558Y206258D01*
X-97672Y206225D01*
X-97707Y206205D01*
X-97745Y206191D01*
X-97844Y206124D01*
X-97946Y206064D01*
X-97991Y206024D01*
X-98008Y206013D01*
X-98022Y205997D01*
X-98067Y205957D01*
X-98142Y205882D01*
X-99954Y205131D01*
X-101915Y205131D01*
X-103727Y205882D01*
X-104822Y206977D01*
X-104847Y206996D01*
X-104867Y207020D01*
X-104973Y207094D01*
X-105074Y207172D01*
X-105102Y207184D01*
X-105128Y207202D01*
X-105248Y207247D01*
X-105365Y207298D01*
X-105396Y207303D01*
X-105426Y207314D01*
X-105553Y207328D01*
X-105679Y207348D01*
X-105711Y207345D01*
X-105742Y207349D01*
X-105868Y207330D01*
X-105996Y207318D01*
X-106026Y207308D01*
X-106057Y207303D01*
X-106175Y207254D01*
X-106295Y207211D01*
X-106321Y207193D01*
X-106350Y207181D01*
X-106453Y207104D01*
X-106559Y207032D01*
X-106579Y207009D01*
X-106604Y206990D01*
X-106712Y206871D01*
X-107456Y205938D01*
X-107458Y205934D01*
X-107461Y205931D01*
X-107540Y205799D01*
X-107621Y205666D01*
X-107622Y205662D01*
X-107625Y205659D01*
X-107668Y205512D01*
X-107691Y205436D01*
X-108252Y204916D01*
X-108261Y204905D01*
X-108273Y204896D01*
X-108381Y204777D01*
X-108857Y204179D01*
X-108928Y204162D01*
X-108932Y204160D01*
X-108936Y204159D01*
X-109073Y204085D01*
X-109209Y204012D01*
X-109212Y204009D01*
X-109215Y204008D01*
X-109340Y203906D01*
X-110527Y202804D01*
X-110529Y202801D01*
X-110533Y202798D01*
X-110631Y202679D01*
X-110731Y202560D01*
X-110733Y202556D01*
X-110735Y202553D01*
X-110800Y202414D01*
X-110834Y202343D01*
X-111466Y201912D01*
X-111477Y201903D01*
X-111490Y201896D01*
X-111615Y201794D01*
X-112175Y201274D01*
X-112247Y201267D01*
X-112251Y201266D01*
X-112255Y201265D01*
X-112401Y201213D01*
X-112547Y201161D01*
X-112550Y201159D01*
X-112554Y201158D01*
X-112693Y201075D01*
X-114030Y200163D01*
X-114033Y200160D01*
X-114037Y200158D01*
X-114153Y200055D01*
X-114268Y199952D01*
X-114271Y199949D01*
X-114274Y199946D01*
X-114360Y199817D01*
X-114403Y199753D01*
X-115092Y199421D01*
X-115105Y199413D01*
X-115118Y199408D01*
X-115257Y199326D01*
X-115888Y198895D01*
X-115961Y198900D01*
X-115965Y198899D01*
X-115969Y198899D01*
X-116121Y198869D01*
X-116273Y198840D01*
X-116277Y198838D01*
X-116281Y198837D01*
X-116430Y198776D01*
X-117888Y198074D01*
X-117892Y198071D01*
X-117896Y198070D01*
X-118027Y197984D01*
X-118155Y197901D01*
X-118158Y197898D01*
X-118162Y197895D01*
X-118265Y197782D01*
X-118318Y197724D01*
X-119049Y197498D01*
X-119062Y197492D01*
X-119077Y197489D01*
X-119226Y197429D01*
X-119915Y197097D01*
X-119985Y197112D01*
X-119990Y197112D01*
X-119994Y197113D01*
X-120151Y197105D01*
X-120303Y197099D01*
X-120307Y197098D01*
X-120311Y197098D01*
X-120468Y197060D01*
X-122015Y196582D01*
X-122019Y196581D01*
X-122023Y196580D01*
X-122164Y196515D01*
X-122305Y196451D01*
X-122308Y196449D01*
X-122312Y196447D01*
X-122432Y196349D01*
X-122492Y196301D01*
X-123248Y196187D01*
X-123262Y196183D01*
X-123277Y196182D01*
X-123408Y196151D01*
X-123409Y196150D01*
X-123410Y196150D01*
X-123433Y196144D01*
X-124164Y195919D01*
X-124232Y195944D01*
X-124236Y195945D01*
X-124240Y195946D01*
X-124396Y195962D01*
X-124548Y195979D01*
X-124552Y195978D01*
X-124556Y195979D01*
X-124717Y195965D01*
X-126317Y195723D01*
X-126321Y195722D01*
X-126326Y195722D01*
X-126474Y195679D01*
X-126624Y195637D01*
X-126627Y195634D01*
X-126631Y195633D01*
X-126764Y195555D01*
X-126831Y195516D01*
X-127596Y195516D01*
X-127611Y195514D01*
X-127625Y195515D01*
X-127786Y195501D01*
X-128541Y195387D01*
X-128605Y195422D01*
X-128609Y195424D01*
X-128612Y195426D01*
X-128763Y195464D01*
X-128912Y195504D01*
X-128916Y195504D01*
X-128920Y195505D01*
X-129081Y195515D01*
X-130700Y195515D01*
X-130704Y195514D01*
X-130708Y195515D01*
X-130861Y195494D01*
X-131016Y195475D01*
X-131020Y195473D01*
X-131024Y195473D01*
X-131168Y195414D01*
X-131239Y195386D01*
X-131996Y195500D01*
X-132010Y195500D01*
X-132024Y195504D01*
X-132185Y195514D01*
X-132949Y195514D01*
X-133007Y195558D01*
X-133011Y195560D01*
X-133014Y195562D01*
X-133154Y195622D01*
X-133299Y195685D01*
X-133303Y195685D01*
X-133306Y195687D01*
X-133464Y195721D01*
X-135065Y195962D01*
X-135069Y195962D01*
X-135073Y195963D01*
X-135229Y195965D01*
X-135383Y195969D01*
X-135387Y195968D01*
X-135391Y195968D01*
X-135544Y195932D01*
X-135617Y195915D01*
X-136348Y196140D01*
X-136362Y196143D01*
X-136376Y196148D01*
X-136533Y196182D01*
X-137289Y196296D01*
X-137339Y196349D01*
X-137343Y196351D01*
X-137346Y196354D01*
X-137475Y196433D01*
X-137609Y196517D01*
X-137613Y196518D01*
X-137616Y196520D01*
X-137767Y196577D01*
X-139314Y197054D01*
X-139318Y197055D01*
X-139322Y197057D01*
X-139477Y197083D01*
X-139628Y197109D01*
X-139632Y197109D01*
X-139636Y197109D01*
X-139793Y197096D01*
X-139867Y197090D01*
X-140557Y197422D01*
X-140570Y197427D01*
X-140583Y197434D01*
X-140733Y197491D01*
X-141464Y197716D01*
X-141505Y197776D01*
X-141509Y197778D01*
X-141511Y197782D01*
X-141628Y197880D01*
X-141747Y197982D01*
X-141751Y197984D01*
X-141754Y197987D01*
X-141894Y198066D01*
X-142871Y198536D01*
X-142939Y198558D01*
X-143003Y198590D01*
X-143089Y198609D01*
X-143172Y198637D01*
X-143244Y198642D01*
X-143314Y198657D01*
X-143402Y198653D01*
X-143490Y198659D01*
X-143560Y198647D01*
X-143632Y198644D01*
X-143716Y198618D01*
X-143803Y198603D01*
X-143868Y198573D01*
X-143936Y198552D01*
X-144012Y198506D01*
X-144091Y198470D01*
X-144147Y198425D01*
X-144208Y198388D01*
X-144270Y198325D01*
X-144338Y198269D01*
X-144381Y198212D01*
X-144431Y198161D01*
X-144520Y198027D01*
X-157174Y176109D01*
X-157215Y176012D01*
X-157264Y175919D01*
X-157276Y175866D01*
X-157298Y175816D01*
X-157313Y175711D01*
X-157337Y175609D01*
X-157336Y175555D01*
X-157344Y175501D01*
X-157333Y175396D01*
X-157331Y175291D01*
X-157317Y175239D01*
X-157311Y175185D01*
X-157274Y175086D01*
X-157246Y174985D01*
X-157208Y174907D01*
X-157200Y174887D01*
X-157191Y174874D01*
X-157175Y174840D01*
X-146703Y156669D01*
X-146633Y156576D01*
X-146568Y156478D01*
X-146537Y156450D01*
X-146511Y156416D01*
X-146419Y156343D01*
X-146333Y156264D01*
X-146295Y156244D01*
X-146262Y156218D01*
X-146155Y156170D01*
X-146051Y156115D01*
X-146010Y156106D01*
X-145972Y156088D01*
X-145856Y156069D01*
X-145742Y156041D01*
X-145679Y156039D01*
X-145658Y156035D01*
X-145639Y156037D01*
X-145581Y156034D01*
X-133079Y156255D01*
X-133079Y151130D01*
X-133066Y151035D01*
X-133061Y150939D01*
X-133046Y150896D01*
X-133039Y150851D01*
X-133000Y150763D01*
X-132968Y150672D01*
X-132943Y150638D01*
X-132923Y150594D01*
X-132840Y150497D01*
X-132787Y150423D01*
X-119122Y136758D01*
X-119045Y136701D01*
X-118973Y136636D01*
X-118932Y136616D01*
X-118896Y136589D01*
X-118806Y136555D01*
X-118720Y136513D01*
X-118678Y136507D01*
X-118632Y136490D01*
X-118504Y136480D01*
X-118415Y136466D01*
X-118255Y136466D01*
X-116176Y135605D01*
X-114585Y134014D01*
X-113724Y131935D01*
X-113724Y131775D01*
X-113711Y131680D01*
X-113706Y131584D01*
X-113691Y131541D01*
X-113684Y131496D01*
X-113645Y131408D01*
X-113613Y131317D01*
X-113588Y131283D01*
X-113568Y131239D01*
X-113485Y131142D01*
X-113432Y131068D01*
X-83549Y101186D01*
X-83549Y64770D01*
X-83536Y64675D01*
X-83531Y64579D01*
X-83516Y64536D01*
X-83509Y64491D01*
X-83470Y64403D01*
X-83438Y64312D01*
X-83413Y64278D01*
X-83393Y64234D01*
X-83310Y64137D01*
X-83257Y64063D01*
X-81987Y62793D01*
X-81910Y62736D01*
X-81838Y62671D01*
X-81797Y62651D01*
X-81761Y62624D01*
X-81671Y62590D01*
X-81585Y62548D01*
X-81543Y62542D01*
X-81497Y62525D01*
X-81370Y62515D01*
X-81280Y62501D01*
X-71120Y62501D01*
X-71056Y62510D01*
G37*
G36*
X85208Y30496D02*
X85208Y30496D01*
X85327Y30503D01*
X85365Y30516D01*
X85406Y30521D01*
X85516Y30564D01*
X85629Y30601D01*
X85664Y30623D01*
X85701Y30638D01*
X85797Y30708D01*
X85898Y30771D01*
X85926Y30801D01*
X85959Y30824D01*
X86035Y30916D01*
X86116Y31003D01*
X86136Y31038D01*
X86161Y31069D01*
X86212Y31177D01*
X86270Y31281D01*
X86280Y31321D01*
X86297Y31357D01*
X86319Y31474D01*
X86349Y31589D01*
X86353Y31650D01*
X86357Y31670D01*
X86355Y31690D01*
X86359Y31750D01*
X86359Y85090D01*
X86344Y85208D01*
X86337Y85327D01*
X86324Y85365D01*
X86319Y85406D01*
X86276Y85516D01*
X86239Y85629D01*
X86217Y85664D01*
X86202Y85701D01*
X86133Y85797D01*
X86069Y85898D01*
X86039Y85926D01*
X86016Y85959D01*
X85924Y86035D01*
X85837Y86116D01*
X85802Y86136D01*
X85771Y86161D01*
X85663Y86212D01*
X85559Y86270D01*
X85519Y86280D01*
X85483Y86297D01*
X85366Y86319D01*
X85251Y86349D01*
X85191Y86353D01*
X85171Y86357D01*
X85150Y86355D01*
X85090Y86359D01*
X77716Y86359D01*
X77618Y86347D01*
X77519Y86344D01*
X77461Y86327D01*
X77401Y86319D01*
X77309Y86283D01*
X77214Y86255D01*
X77161Y86225D01*
X77105Y86202D01*
X77025Y86144D01*
X76940Y86094D01*
X76864Y86028D01*
X76848Y86016D01*
X76840Y86006D01*
X76819Y85987D01*
X76405Y85573D01*
X75473Y85573D01*
X75375Y85561D01*
X75276Y85558D01*
X75218Y85541D01*
X75158Y85533D01*
X75066Y85497D01*
X74971Y85469D01*
X74919Y85439D01*
X74862Y85416D01*
X74782Y85358D01*
X74697Y85308D01*
X74621Y85242D01*
X74605Y85230D01*
X74597Y85220D01*
X74576Y85202D01*
X74262Y84887D01*
X30461Y84887D01*
X30363Y84875D01*
X30264Y84872D01*
X30206Y84855D01*
X30145Y84847D01*
X30053Y84811D01*
X29958Y84783D01*
X29906Y84753D01*
X29850Y84730D01*
X29770Y84672D01*
X29768Y84671D01*
X24548Y84671D01*
X24430Y84656D01*
X24311Y84649D01*
X24273Y84637D01*
X24232Y84632D01*
X24122Y84588D01*
X24008Y84551D01*
X23974Y84529D01*
X23937Y84514D01*
X23840Y84445D01*
X23740Y84381D01*
X23712Y84351D01*
X23679Y84328D01*
X23603Y84236D01*
X23522Y84149D01*
X23502Y84114D01*
X23477Y84083D01*
X23426Y83975D01*
X23368Y83871D01*
X23358Y83832D01*
X23341Y83795D01*
X23319Y83678D01*
X23289Y83563D01*
X23285Y83503D01*
X23281Y83483D01*
X23282Y83462D01*
X23279Y83402D01*
X23279Y78231D01*
X22162Y77114D01*
X14535Y77114D01*
X14417Y77099D01*
X14298Y77092D01*
X14260Y77079D01*
X14219Y77074D01*
X14109Y77031D01*
X13996Y76994D01*
X13961Y76972D01*
X13924Y76957D01*
X13828Y76888D01*
X13727Y76824D01*
X13699Y76794D01*
X13666Y76771D01*
X13590Y76679D01*
X13509Y76592D01*
X13489Y76557D01*
X13464Y76526D01*
X13413Y76418D01*
X13355Y76314D01*
X13345Y76274D01*
X13328Y76238D01*
X13306Y76121D01*
X13276Y76006D01*
X13272Y75946D01*
X13268Y75926D01*
X13270Y75905D01*
X13266Y75845D01*
X13266Y72210D01*
X9317Y68262D01*
X9257Y68183D01*
X9189Y68111D01*
X9160Y68058D01*
X9123Y68010D01*
X9083Y67919D01*
X9035Y67833D01*
X9020Y67774D01*
X8996Y67719D01*
X8981Y67621D01*
X8956Y67525D01*
X8950Y67425D01*
X8946Y67404D01*
X8948Y67392D01*
X8946Y67364D01*
X8946Y59361D01*
X7993Y58407D01*
X7932Y58329D01*
X7864Y58257D01*
X7835Y58204D01*
X7798Y58156D01*
X7758Y58065D01*
X7710Y57979D01*
X7695Y57920D01*
X7671Y57864D01*
X7656Y57766D01*
X7631Y57671D01*
X7625Y57571D01*
X7621Y57550D01*
X7623Y57538D01*
X7621Y57510D01*
X7621Y56790D01*
X7633Y56692D01*
X7636Y56593D01*
X7653Y56535D01*
X7661Y56475D01*
X7697Y56382D01*
X7725Y56287D01*
X7755Y56235D01*
X7778Y56179D01*
X7836Y56099D01*
X7886Y56013D01*
X7952Y55938D01*
X7964Y55922D01*
X7974Y55914D01*
X7993Y55893D01*
X8946Y54939D01*
X8946Y52015D01*
X8961Y51897D01*
X8968Y51778D01*
X8981Y51740D01*
X8986Y51699D01*
X9029Y51589D01*
X9066Y51476D01*
X9088Y51441D01*
X9103Y51404D01*
X9172Y51308D01*
X9236Y51207D01*
X9266Y51179D01*
X9289Y51146D01*
X9381Y51070D01*
X9468Y50989D01*
X9503Y50969D01*
X9534Y50944D01*
X9642Y50893D01*
X9746Y50835D01*
X9786Y50825D01*
X9822Y50808D01*
X9939Y50786D01*
X10054Y50756D01*
X10114Y50752D01*
X10134Y50748D01*
X10155Y50750D01*
X10215Y50746D01*
X24729Y50746D01*
X25846Y49629D01*
X25846Y38051D01*
X24503Y36707D01*
X24442Y36629D01*
X24374Y36557D01*
X24345Y36504D01*
X24308Y36456D01*
X24268Y36365D01*
X24220Y36279D01*
X24205Y36220D01*
X24181Y36164D01*
X24166Y36066D01*
X24141Y35971D01*
X24135Y35871D01*
X24131Y35850D01*
X24133Y35838D01*
X24131Y35810D01*
X24131Y31750D01*
X24146Y31632D01*
X24153Y31513D01*
X24166Y31475D01*
X24171Y31434D01*
X24214Y31324D01*
X24251Y31211D01*
X24273Y31176D01*
X24288Y31139D01*
X24358Y31043D01*
X24421Y30942D01*
X24451Y30914D01*
X24474Y30881D01*
X24566Y30806D01*
X24653Y30724D01*
X24688Y30704D01*
X24719Y30679D01*
X24827Y30628D01*
X24931Y30570D01*
X24971Y30560D01*
X25007Y30543D01*
X25124Y30521D01*
X25239Y30491D01*
X25300Y30487D01*
X25320Y30483D01*
X25340Y30485D01*
X25400Y30481D01*
X85090Y30481D01*
X85208Y30496D01*
G37*
G36*
X76848Y153053D02*
X76848Y153053D01*
X76984Y153065D01*
X77006Y153073D01*
X77029Y153076D01*
X77155Y153126D01*
X77284Y153171D01*
X77303Y153184D01*
X77324Y153193D01*
X77434Y153272D01*
X77548Y153348D01*
X77563Y153366D01*
X77582Y153379D01*
X77669Y153484D01*
X77759Y153586D01*
X77770Y153606D01*
X77785Y153624D01*
X77843Y153747D01*
X77905Y153868D01*
X77910Y153891D01*
X77920Y153912D01*
X77946Y154046D01*
X77976Y154178D01*
X77977Y154211D01*
X77980Y154224D01*
X77979Y154246D01*
X77982Y154339D01*
X76875Y195312D01*
X76866Y195367D01*
X76867Y195422D01*
X76842Y195524D01*
X76826Y195626D01*
X76804Y195677D01*
X76791Y195731D01*
X76772Y195768D01*
X76825Y197041D01*
X76823Y197063D01*
X76826Y197129D01*
X76791Y198393D01*
X76803Y198432D01*
X77742Y199296D01*
X77755Y199312D01*
X77804Y199357D01*
X78674Y200275D01*
X78710Y200294D01*
X79984Y200241D01*
X80005Y200243D01*
X80071Y200241D01*
X81335Y200275D01*
X81435Y200245D01*
X81531Y200206D01*
X81587Y200199D01*
X81640Y200182D01*
X81800Y200166D01*
X111413Y198932D01*
X111443Y198934D01*
X111473Y198931D01*
X111601Y198947D01*
X111730Y198958D01*
X111758Y198968D01*
X111788Y198972D01*
X111908Y199020D01*
X112030Y199063D01*
X112055Y199080D01*
X112083Y199091D01*
X112187Y199167D01*
X112295Y199239D01*
X112315Y199261D01*
X112340Y199279D01*
X112421Y199379D01*
X112508Y199475D01*
X112522Y199502D01*
X112541Y199525D01*
X112595Y199642D01*
X112656Y199757D01*
X112662Y199786D01*
X112675Y199813D01*
X112699Y199940D01*
X112728Y200067D01*
X112728Y200097D01*
X112733Y200126D01*
X112724Y200255D01*
X112722Y200385D01*
X112714Y200413D01*
X112712Y200443D01*
X112671Y200566D01*
X112636Y200691D01*
X112621Y200717D01*
X112612Y200745D01*
X112542Y200854D01*
X112478Y200967D01*
X112457Y200988D01*
X112440Y201013D01*
X112330Y201130D01*
X111615Y201794D01*
X111603Y201802D01*
X111593Y201813D01*
X111466Y201912D01*
X110835Y202343D01*
X110813Y202412D01*
X110810Y202416D01*
X110809Y202419D01*
X110726Y202549D01*
X110643Y202681D01*
X110640Y202684D01*
X110637Y202687D01*
X110527Y202804D01*
X109340Y203906D01*
X109337Y203908D01*
X109334Y203911D01*
X109207Y204002D01*
X109082Y204091D01*
X109078Y204093D01*
X109074Y204095D01*
X108929Y204151D01*
X108858Y204178D01*
X108381Y204777D01*
X108371Y204787D01*
X108363Y204799D01*
X108252Y204916D01*
X107692Y205436D01*
X107680Y205508D01*
X107678Y205511D01*
X107678Y205515D01*
X107614Y205658D01*
X107552Y205799D01*
X107550Y205802D01*
X107548Y205806D01*
X107456Y205938D01*
X106447Y207204D01*
X106444Y207207D01*
X106441Y207210D01*
X106328Y207319D01*
X106219Y207426D01*
X106215Y207428D01*
X106212Y207431D01*
X106076Y207508D01*
X106010Y207546D01*
X105628Y208208D01*
X105619Y208220D01*
X105614Y208233D01*
X105521Y208365D01*
X105045Y208963D01*
X105044Y209036D01*
X105043Y209039D01*
X105043Y209044D01*
X105001Y209193D01*
X104961Y209342D01*
X104959Y209346D01*
X104958Y209350D01*
X104924Y209418D01*
X104923Y209422D01*
X104920Y209427D01*
X104886Y209494D01*
X104077Y210897D01*
X104075Y210900D01*
X104073Y210904D01*
X103980Y211025D01*
X103885Y211150D01*
X103882Y211153D01*
X103879Y211156D01*
X103758Y211251D01*
X103697Y211299D01*
X103417Y212012D01*
X103411Y212024D01*
X103407Y212038D01*
X103335Y212183D01*
X102953Y212845D01*
X102963Y212917D01*
X102962Y212921D01*
X102963Y212925D01*
X102944Y213078D01*
X102927Y213233D01*
X102925Y213237D01*
X102925Y213241D01*
X102875Y213394D01*
X102284Y214901D01*
X102282Y214905D01*
X102281Y214909D01*
X102206Y215044D01*
X102132Y215181D01*
X102129Y215184D01*
X102127Y215187D01*
X102020Y215301D01*
X101968Y215356D01*
X101798Y216102D01*
X101793Y216116D01*
X101792Y216130D01*
X101742Y216284D01*
X101413Y217124D01*
X101393Y217161D01*
X101380Y217200D01*
X101317Y217300D01*
X101261Y217404D01*
X101232Y217434D01*
X101210Y217469D01*
X101124Y217550D01*
X101044Y217636D01*
X101009Y217659D01*
X100978Y217687D01*
X100875Y217744D01*
X100776Y217807D01*
X100736Y217820D01*
X100700Y217841D01*
X100586Y217870D01*
X100474Y217907D01*
X100432Y217910D01*
X100392Y217920D01*
X100231Y217930D01*
X49178Y217930D01*
X49080Y217918D01*
X48981Y217915D01*
X48923Y217898D01*
X48863Y217890D01*
X48771Y217854D01*
X48675Y217826D01*
X48623Y217796D01*
X48567Y217773D01*
X48487Y217715D01*
X48402Y217665D01*
X48326Y217599D01*
X48310Y217587D01*
X48302Y217577D01*
X48281Y217559D01*
X41995Y211272D01*
X41909Y211163D01*
X41821Y211056D01*
X41812Y211037D01*
X41800Y211021D01*
X41744Y210893D01*
X41685Y210768D01*
X41681Y210748D01*
X41673Y210729D01*
X41651Y210591D01*
X41625Y210455D01*
X41627Y210435D01*
X41624Y210415D01*
X41637Y210276D01*
X41645Y210138D01*
X41651Y210119D01*
X41653Y210099D01*
X41701Y209967D01*
X41743Y209836D01*
X41754Y209818D01*
X41761Y209799D01*
X41839Y209684D01*
X41913Y209567D01*
X41928Y209553D01*
X41940Y209536D01*
X42044Y209444D01*
X42145Y209349D01*
X42163Y209339D01*
X42178Y209326D01*
X42302Y209262D01*
X42424Y209195D01*
X42443Y209190D01*
X42461Y209181D01*
X42597Y209151D01*
X42731Y209116D01*
X42760Y209114D01*
X42771Y209111D01*
X42792Y209112D01*
X42892Y209106D01*
X56859Y209106D01*
X57976Y207989D01*
X57976Y193331D01*
X56859Y192214D01*
X42201Y192214D01*
X41084Y193331D01*
X41084Y207298D01*
X41067Y207435D01*
X41054Y207574D01*
X41047Y207593D01*
X41044Y207613D01*
X40993Y207742D01*
X40946Y207873D01*
X40935Y207890D01*
X40927Y207909D01*
X40846Y208021D01*
X40768Y208137D01*
X40752Y208150D01*
X40741Y208166D01*
X40633Y208255D01*
X40529Y208347D01*
X40511Y208356D01*
X40496Y208369D01*
X40370Y208428D01*
X40246Y208492D01*
X40226Y208496D01*
X40208Y208505D01*
X40072Y208531D01*
X39936Y208561D01*
X39915Y208561D01*
X39896Y208565D01*
X39757Y208556D01*
X39618Y208552D01*
X39598Y208546D01*
X39578Y208545D01*
X39446Y208502D01*
X39312Y208463D01*
X39295Y208453D01*
X39276Y208447D01*
X39158Y208372D01*
X39038Y208302D01*
X39017Y208283D01*
X39007Y208277D01*
X38993Y208262D01*
X38918Y208195D01*
X24549Y193827D01*
X24476Y193733D01*
X24397Y193644D01*
X24379Y193608D01*
X24354Y193576D01*
X24307Y193466D01*
X24253Y193360D01*
X24244Y193321D01*
X24228Y193284D01*
X24209Y193166D01*
X24183Y193050D01*
X24184Y193010D01*
X24178Y192970D01*
X24189Y192851D01*
X24193Y192732D01*
X24204Y192694D01*
X24208Y192653D01*
X24248Y192541D01*
X24281Y192427D01*
X24302Y192392D01*
X24315Y192354D01*
X24382Y192255D01*
X24443Y192153D01*
X24483Y192108D01*
X24494Y192091D01*
X24509Y192077D01*
X24549Y192032D01*
X25138Y191444D01*
X63174Y153407D01*
X63252Y153347D01*
X63324Y153279D01*
X63377Y153250D01*
X63425Y153213D01*
X63516Y153173D01*
X63603Y153125D01*
X63661Y153110D01*
X63717Y153086D01*
X63815Y153071D01*
X63910Y153046D01*
X64011Y153040D01*
X64031Y153036D01*
X64043Y153038D01*
X64071Y153036D01*
X76713Y153036D01*
X76848Y153053D01*
G37*
G36*
X-67572Y-634D02*
X-67572Y-634D01*
X-67544Y-636D01*
X-67476Y-614D01*
X-67405Y-600D01*
X-67382Y-584D01*
X-67355Y-575D01*
X-67300Y-528D01*
X-67241Y-487D01*
X-67226Y-463D01*
X-67205Y-445D01*
X-67173Y-380D01*
X-67134Y-320D01*
X-67129Y-292D01*
X-67117Y-266D01*
X-67108Y-165D01*
X-67101Y-123D01*
X-67103Y-113D01*
X-67102Y-100D01*
X-67159Y615D01*
X-30534Y615D01*
X-30462Y624D01*
X-30391Y623D01*
X-30305Y644D01*
X-30218Y655D01*
X-30151Y681D01*
X-30082Y698D01*
X-30004Y739D01*
X-29922Y772D01*
X-29864Y814D01*
X-29801Y848D01*
X-29736Y907D01*
X-29665Y958D01*
X-29619Y1014D01*
X-29566Y1062D01*
X-29518Y1136D01*
X-29462Y1203D01*
X-29432Y1268D01*
X-29392Y1329D01*
X-29364Y1412D01*
X-29327Y1491D01*
X-29313Y1562D01*
X-29290Y1630D01*
X-29268Y1789D01*
X-29188Y2858D01*
X-29188Y2862D01*
X-29187Y2866D01*
X-29196Y3020D01*
X-29204Y3176D01*
X-29205Y3180D01*
X-29205Y3184D01*
X-29252Y3330D01*
X-29275Y3405D01*
X-29105Y4151D01*
X-29104Y4166D01*
X-29099Y4179D01*
X-29077Y4339D01*
X-29020Y5101D01*
X-28971Y5155D01*
X-28969Y5159D01*
X-28966Y5162D01*
X-28896Y5298D01*
X-28823Y5436D01*
X-28822Y5440D01*
X-28820Y5444D01*
X-28775Y5598D01*
X-28415Y7175D01*
X-28415Y7179D01*
X-28413Y7183D01*
X-28399Y7334D01*
X-28384Y7491D01*
X-28384Y7495D01*
X-28384Y7499D01*
X-28408Y7653D01*
X-28420Y7729D01*
X-28140Y8441D01*
X-28137Y8455D01*
X-28130Y8468D01*
X-28085Y8622D01*
X-27914Y9368D01*
X-27858Y9414D01*
X-27856Y9417D01*
X-27853Y9420D01*
X-27763Y9544D01*
X-27670Y9670D01*
X-27669Y9674D01*
X-27666Y9677D01*
X-27598Y9823D01*
X-27007Y11328D01*
X-27006Y11332D01*
X-27004Y11336D01*
X-26967Y11487D01*
X-26929Y11636D01*
X-26929Y11641D01*
X-26928Y11644D01*
X-26930Y11800D01*
X-26930Y11877D01*
X-26547Y12539D01*
X-26542Y12552D01*
X-26533Y12564D01*
X-26465Y12710D01*
X-26186Y13422D01*
X-26123Y13459D01*
X-26120Y13462D01*
X-26117Y13464D01*
X-26009Y13574D01*
X-25899Y13684D01*
X-25897Y13688D01*
X-25894Y13691D01*
X-25805Y13825D01*
X-24996Y15225D01*
X-24995Y15229D01*
X-24992Y15232D01*
X-24933Y15376D01*
X-24933Y15377D01*
X-24897Y15453D01*
X-24894Y15470D01*
X-24873Y15518D01*
X-24873Y15522D01*
X-24871Y15526D01*
X-24849Y15680D01*
X-24838Y15756D01*
X-24361Y16354D01*
X-24353Y16367D01*
X-24343Y16377D01*
X-24254Y16511D01*
X-23872Y17173D01*
X-23805Y17201D01*
X-23801Y17203D01*
X-23798Y17205D01*
X-23674Y17298D01*
X-23549Y17390D01*
X-23547Y17393D01*
X-23544Y17396D01*
X-23435Y17515D01*
X-23189Y17824D01*
X-23154Y17882D01*
X-23110Y17934D01*
X-23071Y18017D01*
X-23024Y18095D01*
X-23004Y18161D01*
X-22975Y18222D01*
X-22957Y18312D01*
X-22931Y18399D01*
X-22928Y18468D01*
X-22915Y18535D01*
X-22921Y18626D01*
X-22916Y18717D01*
X-22930Y18784D01*
X-22935Y18852D01*
X-22963Y18939D01*
X-22981Y19028D01*
X-23012Y19090D01*
X-23033Y19154D01*
X-23082Y19232D01*
X-23122Y19314D01*
X-23166Y19365D01*
X-23203Y19423D01*
X-23269Y19486D01*
X-23329Y19555D01*
X-23385Y19594D01*
X-23434Y19641D01*
X-23514Y19685D01*
X-23589Y19738D01*
X-23653Y19762D01*
X-23713Y19795D01*
X-23801Y19817D01*
X-23887Y19850D01*
X-23955Y19857D01*
X-24021Y19874D01*
X-24182Y19884D01*
X-24292Y19884D01*
X-26104Y20635D01*
X-27491Y22022D01*
X-28241Y23833D01*
X-28241Y24368D01*
X-28253Y24466D01*
X-28256Y24565D01*
X-28273Y24623D01*
X-28281Y24683D01*
X-28317Y24775D01*
X-28345Y24870D01*
X-28376Y24923D01*
X-28398Y24979D01*
X-28456Y25059D01*
X-28506Y25144D01*
X-28573Y25220D01*
X-28585Y25236D01*
X-28594Y25244D01*
X-28603Y25254D01*
X-28603Y39683D01*
X-28620Y39820D01*
X-28633Y39959D01*
X-28640Y39978D01*
X-28643Y39998D01*
X-28694Y40127D01*
X-28741Y40258D01*
X-28752Y40275D01*
X-28760Y40294D01*
X-28841Y40406D01*
X-28919Y40521D01*
X-28935Y40535D01*
X-28946Y40551D01*
X-29054Y40640D01*
X-29158Y40732D01*
X-29176Y40741D01*
X-29191Y40754D01*
X-29317Y40813D01*
X-29441Y40877D01*
X-29461Y40881D01*
X-29479Y40890D01*
X-29615Y40916D01*
X-29751Y40946D01*
X-29772Y40946D01*
X-29791Y40949D01*
X-29930Y40941D01*
X-30069Y40937D01*
X-30089Y40931D01*
X-30109Y40930D01*
X-30241Y40887D01*
X-30375Y40848D01*
X-30392Y40838D01*
X-30411Y40832D01*
X-30529Y40757D01*
X-30649Y40687D01*
X-30670Y40668D01*
X-30680Y40661D01*
X-30694Y40646D01*
X-30769Y40580D01*
X-41919Y29431D01*
X-44299Y27050D01*
X-82156Y27050D01*
X-103024Y47917D01*
X-103102Y47978D01*
X-103174Y48046D01*
X-103227Y48075D01*
X-103275Y48112D01*
X-103366Y48152D01*
X-103452Y48200D01*
X-103511Y48215D01*
X-103567Y48239D01*
X-103665Y48254D01*
X-103760Y48279D01*
X-103860Y48285D01*
X-103881Y48289D01*
X-103893Y48287D01*
X-103921Y48289D01*
X-104455Y48289D01*
X-106267Y49040D01*
X-107654Y50426D01*
X-108465Y52384D01*
X-108477Y52406D01*
X-108485Y52431D01*
X-108556Y52544D01*
X-108622Y52660D01*
X-108640Y52679D01*
X-108654Y52700D01*
X-108751Y52793D01*
X-108844Y52889D01*
X-108865Y52902D01*
X-108884Y52920D01*
X-109001Y52985D01*
X-109115Y53055D01*
X-109139Y53063D01*
X-109162Y53075D01*
X-109291Y53109D01*
X-109419Y53149D01*
X-109444Y53150D01*
X-109469Y53156D01*
X-109603Y53157D01*
X-109736Y53164D01*
X-109761Y53159D01*
X-109787Y53159D01*
X-109917Y53126D01*
X-110048Y53099D01*
X-110071Y53088D01*
X-110096Y53082D01*
X-110213Y53019D01*
X-110333Y52960D01*
X-110353Y52943D01*
X-110376Y52931D01*
X-110500Y52829D01*
X-110541Y52792D01*
X-110543Y52789D01*
X-110547Y52786D01*
X-110570Y52758D01*
X-110575Y52753D01*
X-110585Y52740D01*
X-110646Y52666D01*
X-110745Y52548D01*
X-110747Y52544D01*
X-110749Y52541D01*
X-110816Y52400D01*
X-110849Y52331D01*
X-111481Y51900D01*
X-111492Y51891D01*
X-111505Y51884D01*
X-111630Y51782D01*
X-112190Y51262D01*
X-112262Y51256D01*
X-112266Y51255D01*
X-112270Y51254D01*
X-112418Y51201D01*
X-112562Y51150D01*
X-112566Y51148D01*
X-112569Y51146D01*
X-112708Y51064D01*
X-113588Y50465D01*
X-113642Y50417D01*
X-113702Y50377D01*
X-113761Y50312D01*
X-113826Y50254D01*
X-113867Y50195D01*
X-113915Y50141D01*
X-113956Y50064D01*
X-114005Y49991D01*
X-114029Y49923D01*
X-114062Y49860D01*
X-114083Y49774D01*
X-114112Y49692D01*
X-114119Y49620D01*
X-114135Y49550D01*
X-114134Y49462D01*
X-114142Y49375D01*
X-114131Y49304D01*
X-114129Y49232D01*
X-114106Y49148D01*
X-114092Y49061D01*
X-114063Y48995D01*
X-114044Y48926D01*
X-113972Y48781D01*
X-95686Y17108D01*
X-96314Y16811D01*
X-96336Y16794D01*
X-96363Y16784D01*
X-96415Y16735D01*
X-96473Y16692D01*
X-96487Y16667D01*
X-96508Y16648D01*
X-96537Y16582D01*
X-96573Y16520D01*
X-96576Y16492D01*
X-96588Y16466D01*
X-96589Y16394D01*
X-96598Y16323D01*
X-96590Y16296D01*
X-96591Y16267D01*
X-96555Y16172D01*
X-96544Y16132D01*
X-96537Y16123D01*
X-96533Y16111D01*
X-87033Y-389D01*
X-86981Y-448D01*
X-86935Y-510D01*
X-86916Y-521D01*
X-86901Y-538D01*
X-86831Y-572D01*
X-86764Y-612D01*
X-86740Y-616D01*
X-86722Y-624D01*
X-86677Y-626D01*
X-86600Y-639D01*
X-67600Y-639D01*
X-67572Y-634D01*
G37*
%LPC*%
G36*
X45885Y34162D02*
X45885Y34162D01*
X44915Y35133D01*
X44836Y35193D01*
X44764Y35261D01*
X44711Y35290D01*
X44663Y35327D01*
X44572Y35367D01*
X44486Y35415D01*
X44427Y35430D01*
X44372Y35454D01*
X44274Y35469D01*
X44178Y35494D01*
X44078Y35500D01*
X44058Y35504D01*
X44045Y35502D01*
X44017Y35504D01*
X36201Y35504D01*
X35084Y36621D01*
X35084Y45165D01*
X35069Y45283D01*
X35062Y45402D01*
X35049Y45440D01*
X35044Y45481D01*
X35001Y45591D01*
X34964Y45704D01*
X34942Y45739D01*
X34927Y45776D01*
X34858Y45872D01*
X34794Y45973D01*
X34764Y46001D01*
X34741Y46034D01*
X34649Y46110D01*
X34562Y46191D01*
X34527Y46211D01*
X34496Y46236D01*
X34388Y46287D01*
X34284Y46345D01*
X34244Y46355D01*
X34208Y46372D01*
X34091Y46394D01*
X33976Y46424D01*
X33916Y46428D01*
X33896Y46432D01*
X33875Y46430D01*
X33815Y46434D01*
X31151Y46434D01*
X30034Y47551D01*
X30034Y59129D01*
X31151Y60246D01*
X43100Y60246D01*
X43238Y60263D01*
X43376Y60276D01*
X43395Y60283D01*
X43415Y60286D01*
X43544Y60337D01*
X43675Y60384D01*
X43692Y60395D01*
X43711Y60403D01*
X43823Y60484D01*
X43939Y60562D01*
X43952Y60578D01*
X43968Y60589D01*
X44057Y60697D01*
X44149Y60801D01*
X44158Y60819D01*
X44171Y60834D01*
X44230Y60960D01*
X44294Y61084D01*
X44298Y61104D01*
X44307Y61122D01*
X44333Y61259D01*
X44363Y61394D01*
X44363Y61415D01*
X44366Y61434D01*
X44358Y61573D01*
X44354Y61712D01*
X44348Y61732D01*
X44347Y61752D01*
X44304Y61884D01*
X44265Y62018D01*
X44255Y62035D01*
X44249Y62054D01*
X44174Y62172D01*
X44104Y62292D01*
X44085Y62313D01*
X44079Y62323D01*
X44064Y62337D01*
X43997Y62412D01*
X43377Y63032D01*
X42604Y64899D01*
X42601Y64952D01*
X42588Y64990D01*
X42583Y65031D01*
X42540Y65141D01*
X42503Y65254D01*
X42481Y65289D01*
X42466Y65326D01*
X42397Y65422D01*
X42333Y65523D01*
X42303Y65551D01*
X42280Y65584D01*
X42188Y65660D01*
X42101Y65741D01*
X42066Y65761D01*
X42035Y65786D01*
X41927Y65837D01*
X41823Y65895D01*
X41783Y65905D01*
X41747Y65922D01*
X41630Y65944D01*
X41515Y65974D01*
X41455Y65978D01*
X41435Y65982D01*
X41414Y65980D01*
X41354Y65984D01*
X38741Y65984D01*
X37624Y67101D01*
X37624Y77679D01*
X38741Y78796D01*
X47319Y78796D01*
X48633Y77483D01*
X48727Y77410D01*
X48816Y77331D01*
X48852Y77313D01*
X48884Y77288D01*
X48993Y77240D01*
X49099Y77186D01*
X49138Y77177D01*
X49176Y77161D01*
X49293Y77143D01*
X49409Y77117D01*
X49450Y77118D01*
X49490Y77111D01*
X49608Y77123D01*
X49727Y77126D01*
X49766Y77138D01*
X49806Y77141D01*
X49918Y77182D01*
X50033Y77215D01*
X50068Y77235D01*
X50106Y77249D01*
X50204Y77316D01*
X50307Y77376D01*
X50352Y77416D01*
X50369Y77427D01*
X50382Y77443D01*
X50428Y77483D01*
X51741Y78796D01*
X57987Y78796D01*
X58086Y78808D01*
X58185Y78811D01*
X58243Y78828D01*
X58303Y78836D01*
X58384Y78868D01*
X78769Y78868D01*
X78818Y78846D01*
X78916Y78831D01*
X79012Y78806D01*
X79112Y78800D01*
X79132Y78796D01*
X79145Y78798D01*
X79173Y78796D01*
X80639Y78796D01*
X81756Y77679D01*
X81756Y67101D01*
X81605Y66950D01*
X81600Y66943D01*
X81592Y66937D01*
X81502Y66817D01*
X81410Y66699D01*
X81407Y66690D01*
X81401Y66683D01*
X81330Y66538D01*
X80550Y64654D01*
X80509Y64614D01*
X80449Y64536D01*
X80381Y64463D01*
X80352Y64410D01*
X80315Y64363D01*
X80275Y64272D01*
X80227Y64185D01*
X80212Y64126D01*
X80188Y64071D01*
X80173Y63973D01*
X80148Y63877D01*
X80142Y63777D01*
X80138Y63757D01*
X80140Y63744D01*
X80138Y63716D01*
X80138Y49695D01*
X78575Y48132D01*
X77220Y48132D01*
X77122Y48120D01*
X77022Y48117D01*
X76964Y48100D01*
X76904Y48092D01*
X76812Y48056D01*
X76717Y48028D01*
X76665Y47998D01*
X76608Y47975D01*
X76544Y47929D01*
X74641Y47140D01*
X73787Y47140D01*
X73669Y47125D01*
X73550Y47118D01*
X73512Y47105D01*
X73471Y47100D01*
X73361Y47057D01*
X73248Y47020D01*
X73213Y46998D01*
X73176Y46983D01*
X73080Y46914D01*
X72979Y46850D01*
X72951Y46820D01*
X72918Y46797D01*
X72842Y46705D01*
X72761Y46618D01*
X72741Y46583D01*
X72716Y46552D01*
X72665Y46444D01*
X72607Y46340D01*
X72597Y46300D01*
X72580Y46264D01*
X72558Y46147D01*
X72528Y46032D01*
X72524Y45972D01*
X72520Y45952D01*
X72522Y45931D01*
X72518Y45871D01*
X72518Y35725D01*
X70955Y34162D01*
X45885Y34162D01*
G37*
%LPD*%
%LPC*%
G36*
X-62275Y233044D02*
X-62275Y233044D01*
X-64136Y234905D01*
X-64136Y256055D01*
X-64151Y256173D01*
X-64158Y256292D01*
X-64171Y256330D01*
X-64176Y256371D01*
X-64219Y256481D01*
X-64256Y256594D01*
X-64278Y256629D01*
X-64293Y256666D01*
X-64362Y256762D01*
X-64426Y256863D01*
X-64456Y256891D01*
X-64479Y256924D01*
X-64571Y257000D01*
X-64658Y257081D01*
X-64693Y257101D01*
X-64724Y257126D01*
X-64832Y257177D01*
X-64936Y257235D01*
X-64976Y257245D01*
X-65012Y257262D01*
X-65129Y257284D01*
X-65244Y257314D01*
X-65304Y257318D01*
X-65324Y257322D01*
X-65345Y257320D01*
X-65405Y257324D01*
X-77415Y257324D01*
X-77533Y257309D01*
X-77652Y257302D01*
X-77690Y257289D01*
X-77731Y257284D01*
X-77841Y257241D01*
X-77954Y257204D01*
X-77989Y257182D01*
X-78026Y257167D01*
X-78122Y257098D01*
X-78223Y257034D01*
X-78251Y257004D01*
X-78284Y256981D01*
X-78360Y256889D01*
X-78441Y256802D01*
X-78461Y256767D01*
X-78486Y256736D01*
X-78537Y256628D01*
X-78595Y256524D01*
X-78605Y256484D01*
X-78622Y256448D01*
X-78644Y256331D01*
X-78672Y256223D01*
X-79997Y254897D01*
X-80070Y254803D01*
X-80149Y254714D01*
X-80167Y254678D01*
X-80192Y254646D01*
X-80240Y254537D01*
X-80294Y254431D01*
X-80303Y254392D01*
X-80319Y254354D01*
X-80337Y254237D01*
X-80363Y254121D01*
X-80362Y254080D01*
X-80369Y254040D01*
X-80357Y253922D01*
X-80354Y253803D01*
X-80342Y253764D01*
X-80339Y253724D01*
X-80298Y253612D01*
X-80265Y253497D01*
X-80245Y253462D01*
X-80231Y253424D01*
X-80164Y253326D01*
X-80104Y253223D01*
X-80064Y253178D01*
X-80053Y253161D01*
X-80037Y253148D01*
X-79997Y253102D01*
X-78684Y251789D01*
X-78684Y246111D01*
X-78672Y246013D01*
X-78669Y245914D01*
X-78652Y245856D01*
X-78644Y245796D01*
X-78608Y245704D01*
X-78580Y245608D01*
X-78550Y245556D01*
X-78527Y245500D01*
X-78469Y245420D01*
X-78419Y245335D01*
X-78353Y245259D01*
X-78341Y245243D01*
X-78331Y245235D01*
X-78313Y245214D01*
X-77551Y244452D01*
X-77543Y244446D01*
X-77537Y244439D01*
X-77417Y244348D01*
X-77299Y244257D01*
X-77291Y244253D01*
X-77283Y244247D01*
X-77229Y244221D01*
X-75831Y242822D01*
X-75080Y241011D01*
X-75080Y239049D01*
X-75831Y237238D01*
X-77218Y235851D01*
X-79029Y235100D01*
X-80991Y235100D01*
X-82802Y235851D01*
X-84189Y237238D01*
X-84940Y239049D01*
X-84940Y240825D01*
X-84955Y240943D01*
X-84962Y241062D01*
X-84975Y241100D01*
X-84980Y241141D01*
X-85023Y241251D01*
X-85060Y241364D01*
X-85082Y241399D01*
X-85097Y241436D01*
X-85166Y241532D01*
X-85230Y241633D01*
X-85260Y241661D01*
X-85283Y241694D01*
X-85375Y241770D01*
X-85462Y241851D01*
X-85497Y241871D01*
X-85528Y241896D01*
X-85636Y241947D01*
X-85740Y242005D01*
X-85780Y242015D01*
X-85816Y242032D01*
X-85933Y242054D01*
X-86048Y242084D01*
X-86108Y242088D01*
X-86128Y242092D01*
X-86149Y242090D01*
X-86209Y242094D01*
X-90379Y242094D01*
X-91496Y243211D01*
X-91496Y251789D01*
X-90183Y253102D01*
X-90110Y253197D01*
X-90031Y253286D01*
X-90012Y253322D01*
X-89988Y253354D01*
X-89940Y253463D01*
X-89886Y253569D01*
X-89877Y253608D01*
X-89861Y253646D01*
X-89843Y253763D01*
X-89817Y253879D01*
X-89818Y253920D01*
X-89811Y253960D01*
X-89823Y254078D01*
X-89826Y254197D01*
X-89838Y254236D01*
X-89841Y254276D01*
X-89882Y254389D01*
X-89915Y254503D01*
X-89935Y254537D01*
X-89949Y254576D01*
X-90016Y254674D01*
X-90076Y254777D01*
X-90116Y254822D01*
X-90127Y254839D01*
X-90143Y254852D01*
X-90183Y254897D01*
X-91496Y256211D01*
X-91496Y264789D01*
X-90379Y265906D01*
X-79801Y265906D01*
X-78666Y264771D01*
X-78662Y264708D01*
X-78649Y264670D01*
X-78644Y264629D01*
X-78601Y264519D01*
X-78564Y264406D01*
X-78542Y264371D01*
X-78527Y264334D01*
X-78458Y264238D01*
X-78394Y264137D01*
X-78364Y264109D01*
X-78341Y264076D01*
X-78249Y264000D01*
X-78162Y263919D01*
X-78127Y263899D01*
X-78096Y263874D01*
X-77988Y263823D01*
X-77884Y263765D01*
X-77844Y263755D01*
X-77808Y263738D01*
X-77691Y263716D01*
X-77576Y263686D01*
X-77516Y263682D01*
X-77496Y263678D01*
X-77475Y263680D01*
X-77415Y263676D01*
X-65405Y263676D01*
X-65287Y263691D01*
X-65168Y263698D01*
X-65130Y263711D01*
X-65089Y263716D01*
X-64979Y263759D01*
X-64866Y263796D01*
X-64831Y263818D01*
X-64794Y263833D01*
X-64698Y263902D01*
X-64597Y263966D01*
X-64569Y263996D01*
X-64536Y264019D01*
X-64460Y264111D01*
X-64379Y264198D01*
X-64359Y264233D01*
X-64334Y264264D01*
X-64283Y264372D01*
X-64225Y264476D01*
X-64215Y264516D01*
X-64198Y264552D01*
X-64176Y264669D01*
X-64146Y264784D01*
X-64142Y264844D01*
X-64138Y264864D01*
X-64140Y264885D01*
X-64136Y264945D01*
X-64136Y269285D01*
X-62275Y271146D01*
X-32975Y271146D01*
X-28574Y266745D01*
X-28574Y234905D01*
X-30435Y233044D01*
X-62275Y233044D01*
G37*
%LPD*%
G36*
X131941Y197427D02*
X131941Y197427D01*
X131984Y197426D01*
X135977Y198027D01*
X136007Y198038D01*
X136050Y198043D01*
X139909Y199232D01*
X139937Y199247D01*
X139978Y199259D01*
X143616Y201010D01*
X143638Y201027D01*
X143664Y201036D01*
X143717Y201086D01*
X143775Y201130D01*
X143788Y201154D01*
X143808Y201173D01*
X143838Y201239D01*
X143874Y201303D01*
X143877Y201330D01*
X143888Y201355D01*
X143889Y201428D01*
X143898Y201500D01*
X143890Y201526D01*
X143890Y201554D01*
X143854Y201652D01*
X143842Y201691D01*
X143836Y201699D01*
X143832Y201710D01*
X116832Y248510D01*
X116814Y248530D01*
X116803Y248555D01*
X116749Y248604D01*
X116701Y248659D01*
X116676Y248670D01*
X116656Y248689D01*
X116587Y248713D01*
X116521Y248744D01*
X116494Y248746D01*
X116469Y248755D01*
X116396Y248750D01*
X116323Y248753D01*
X116297Y248744D01*
X116270Y248742D01*
X116174Y248698D01*
X116136Y248684D01*
X116129Y248677D01*
X116119Y248673D01*
X112782Y246399D01*
X112760Y246376D01*
X112724Y246353D01*
X109763Y243607D01*
X109744Y243581D01*
X109712Y243553D01*
X107194Y240397D01*
X107179Y240368D01*
X107152Y240335D01*
X105132Y236839D01*
X105122Y236809D01*
X105099Y236772D01*
X103623Y233014D01*
X103618Y232982D01*
X103601Y232942D01*
X102701Y229006D01*
X102701Y228974D01*
X102690Y228932D01*
X102387Y224906D01*
X102390Y224883D01*
X102387Y224863D01*
X102389Y224853D01*
X102387Y224832D01*
X102688Y220805D01*
X102696Y220774D01*
X102699Y220731D01*
X103596Y216795D01*
X103609Y216766D01*
X103618Y216723D01*
X105092Y212964D01*
X105109Y212937D01*
X105124Y212897D01*
X107142Y209400D01*
X107163Y209376D01*
X107184Y209338D01*
X109700Y206180D01*
X109725Y206160D01*
X109751Y206126D01*
X112710Y203378D01*
X112737Y203362D01*
X112768Y203332D01*
X116104Y201056D01*
X116133Y201044D01*
X116168Y201019D01*
X119806Y199266D01*
X119836Y199258D01*
X119875Y199239D01*
X123733Y198047D01*
X123765Y198044D01*
X123806Y198031D01*
X127798Y197428D01*
X127830Y197429D01*
X127872Y197422D01*
X131910Y197421D01*
X131941Y197427D01*
G37*
G36*
X-127872Y197422D02*
X-127872Y197422D01*
X-127841Y197428D01*
X-127798Y197428D01*
X-123806Y198031D01*
X-123776Y198042D01*
X-123733Y198047D01*
X-119875Y199239D01*
X-119847Y199254D01*
X-119806Y199266D01*
X-116168Y201019D01*
X-116143Y201038D01*
X-116104Y201056D01*
X-112768Y203332D01*
X-112746Y203355D01*
X-112710Y203378D01*
X-109751Y206126D01*
X-109732Y206151D01*
X-109700Y206180D01*
X-107184Y209338D01*
X-107169Y209366D01*
X-107142Y209400D01*
X-105124Y212897D01*
X-105114Y212927D01*
X-105092Y212964D01*
X-103618Y216723D01*
X-103612Y216755D01*
X-103596Y216795D01*
X-102699Y220731D01*
X-102698Y220763D01*
X-102688Y220805D01*
X-102387Y224832D01*
X-102391Y224863D01*
X-102390Y224879D01*
X-102387Y224896D01*
X-102388Y224900D01*
X-102387Y224906D01*
X-102690Y228932D01*
X-102699Y228963D01*
X-102701Y229006D01*
X-103601Y232942D01*
X-103614Y232971D01*
X-103623Y233014D01*
X-105099Y236772D01*
X-105117Y236799D01*
X-105132Y236839D01*
X-107152Y240335D01*
X-107173Y240359D01*
X-107194Y240397D01*
X-109712Y243553D01*
X-109737Y243573D01*
X-109763Y243607D01*
X-112724Y246353D01*
X-112751Y246369D01*
X-112782Y246399D01*
X-116119Y248673D01*
X-116144Y248683D01*
X-116165Y248700D01*
X-116235Y248721D01*
X-116302Y248750D01*
X-116330Y248750D01*
X-116356Y248757D01*
X-116428Y248749D01*
X-116501Y248749D01*
X-116526Y248738D01*
X-116553Y248735D01*
X-116617Y248699D01*
X-116684Y248671D01*
X-116703Y248651D01*
X-116726Y248638D01*
X-116794Y248557D01*
X-116822Y248527D01*
X-116825Y248518D01*
X-116832Y248510D01*
X-143832Y201710D01*
X-143841Y201684D01*
X-143857Y201661D01*
X-143872Y201590D01*
X-143896Y201521D01*
X-143893Y201494D01*
X-143899Y201467D01*
X-143886Y201396D01*
X-143880Y201323D01*
X-143867Y201298D01*
X-143862Y201272D01*
X-143822Y201211D01*
X-143788Y201146D01*
X-143767Y201129D01*
X-143752Y201106D01*
X-143666Y201045D01*
X-143635Y201020D01*
X-143626Y201017D01*
X-143616Y201010D01*
X-139978Y199259D01*
X-139947Y199252D01*
X-139909Y199232D01*
X-136050Y198043D01*
X-136018Y198040D01*
X-135977Y198027D01*
X-131984Y197426D01*
X-131953Y197428D01*
X-131910Y197421D01*
X-127872Y197422D01*
G37*
G36*
X116428Y50971D02*
X116428Y50971D01*
X116501Y50971D01*
X116526Y50982D01*
X116553Y50985D01*
X116617Y51021D01*
X116684Y51049D01*
X116703Y51069D01*
X116726Y51082D01*
X116794Y51163D01*
X116822Y51193D01*
X116825Y51202D01*
X116832Y51211D01*
X143832Y98011D01*
X143841Y98036D01*
X143857Y98059D01*
X143872Y98130D01*
X143896Y98199D01*
X143893Y98226D01*
X143899Y98253D01*
X143886Y98324D01*
X143880Y98397D01*
X143867Y98422D01*
X143862Y98448D01*
X143822Y98509D01*
X143788Y98574D01*
X143767Y98591D01*
X143752Y98614D01*
X143666Y98675D01*
X143635Y98700D01*
X143626Y98703D01*
X143616Y98710D01*
X139978Y100461D01*
X139947Y100468D01*
X139909Y100488D01*
X136050Y101677D01*
X136018Y101680D01*
X135977Y101693D01*
X131984Y102294D01*
X131953Y102292D01*
X131910Y102299D01*
X127872Y102298D01*
X127841Y102292D01*
X127798Y102292D01*
X123806Y101689D01*
X123776Y101678D01*
X123733Y101673D01*
X119875Y100481D01*
X119847Y100466D01*
X119806Y100454D01*
X116168Y98701D01*
X116143Y98682D01*
X116104Y98664D01*
X112768Y96388D01*
X112746Y96365D01*
X112710Y96342D01*
X109751Y93594D01*
X109732Y93569D01*
X109700Y93540D01*
X107184Y90382D01*
X107169Y90354D01*
X107142Y90320D01*
X105124Y86823D01*
X105114Y86793D01*
X105092Y86756D01*
X103618Y82997D01*
X103612Y82965D01*
X103596Y82925D01*
X102699Y78989D01*
X102698Y78957D01*
X102688Y78915D01*
X102387Y74889D01*
X102391Y74857D01*
X102387Y74814D01*
X102690Y70788D01*
X102699Y70757D01*
X102701Y70714D01*
X103601Y66778D01*
X103614Y66749D01*
X103623Y66706D01*
X105099Y62948D01*
X105117Y62921D01*
X105132Y62881D01*
X107152Y59385D01*
X107173Y59361D01*
X107194Y59323D01*
X109712Y56167D01*
X109737Y56147D01*
X109763Y56113D01*
X112724Y53367D01*
X112751Y53351D01*
X112782Y53321D01*
X116119Y51047D01*
X116144Y51037D01*
X116165Y51020D01*
X116235Y50999D01*
X116302Y50970D01*
X116330Y50971D01*
X116356Y50963D01*
X116428Y50971D01*
G37*
G36*
X-116396Y50970D02*
X-116396Y50970D01*
X-116323Y50967D01*
X-116297Y50976D01*
X-116270Y50978D01*
X-116174Y51022D01*
X-116136Y51036D01*
X-116129Y51043D01*
X-116119Y51047D01*
X-112782Y53321D01*
X-112760Y53344D01*
X-112724Y53367D01*
X-109763Y56113D01*
X-109744Y56139D01*
X-109712Y56167D01*
X-107194Y59323D01*
X-107179Y59352D01*
X-107152Y59385D01*
X-105132Y62881D01*
X-105122Y62911D01*
X-105099Y62948D01*
X-103623Y66706D01*
X-103618Y66738D01*
X-103601Y66778D01*
X-102701Y70714D01*
X-102701Y70746D01*
X-102690Y70788D01*
X-102387Y74814D01*
X-102391Y74845D01*
X-102387Y74889D01*
X-102688Y78915D01*
X-102696Y78946D01*
X-102699Y78989D01*
X-103596Y82925D01*
X-103609Y82954D01*
X-103618Y82997D01*
X-105092Y86756D01*
X-105109Y86783D01*
X-105124Y86823D01*
X-107142Y90320D01*
X-107163Y90344D01*
X-107184Y90382D01*
X-109700Y93540D01*
X-109725Y93560D01*
X-109751Y93594D01*
X-112710Y96342D01*
X-112737Y96358D01*
X-112768Y96388D01*
X-116104Y98664D01*
X-116133Y98676D01*
X-116168Y98701D01*
X-119806Y100454D01*
X-119836Y100462D01*
X-119875Y100481D01*
X-123733Y101673D01*
X-123765Y101676D01*
X-123806Y101689D01*
X-127798Y102292D01*
X-127830Y102291D01*
X-127872Y102298D01*
X-131910Y102299D01*
X-131941Y102293D01*
X-131984Y102294D01*
X-135977Y101693D01*
X-136007Y101682D01*
X-136050Y101677D01*
X-139909Y100488D01*
X-139937Y100473D01*
X-139978Y100461D01*
X-143616Y98710D01*
X-143638Y98693D01*
X-143664Y98684D01*
X-143717Y98634D01*
X-143775Y98590D01*
X-143788Y98566D01*
X-143808Y98547D01*
X-143838Y98481D01*
X-143874Y98417D01*
X-143877Y98390D01*
X-143888Y98365D01*
X-143889Y98292D01*
X-143898Y98220D01*
X-143890Y98194D01*
X-143890Y98166D01*
X-143854Y98068D01*
X-143842Y98029D01*
X-143836Y98021D01*
X-143832Y98011D01*
X-116832Y51211D01*
X-116814Y51190D01*
X-116803Y51165D01*
X-116749Y51116D01*
X-116701Y51062D01*
X-116676Y51050D01*
X-116656Y51031D01*
X-116587Y51007D01*
X-116521Y50976D01*
X-116494Y50975D01*
X-116469Y50965D01*
X-116396Y50970D01*
G37*
G36*
X27027Y-634D02*
X27027Y-634D01*
X27054Y-636D01*
X27123Y-614D01*
X27195Y-600D01*
X27217Y-584D01*
X27243Y-576D01*
X27299Y-528D01*
X27359Y-487D01*
X27373Y-464D01*
X27394Y-446D01*
X27427Y-381D01*
X27466Y-320D01*
X27470Y-293D01*
X27482Y-268D01*
X27492Y-164D01*
X27499Y-123D01*
X27497Y-114D01*
X27498Y-103D01*
X27196Y3921D01*
X27188Y3952D01*
X27185Y3995D01*
X26287Y7929D01*
X26274Y7958D01*
X26265Y8001D01*
X24791Y11757D01*
X24774Y11784D01*
X24759Y11825D01*
X22741Y15319D01*
X22720Y15343D01*
X22699Y15381D01*
X20183Y18536D01*
X20158Y18556D01*
X20132Y18591D01*
X17174Y21335D01*
X17147Y21352D01*
X17115Y21382D01*
X13781Y23655D01*
X13752Y23668D01*
X13717Y23693D01*
X10081Y25443D01*
X10050Y25451D01*
X10011Y25471D01*
X6155Y26660D01*
X6124Y26663D01*
X6082Y26677D01*
X2092Y27278D01*
X2060Y27277D01*
X2018Y27284D01*
X-2018Y27284D01*
X-2049Y27277D01*
X-2092Y27278D01*
X-6082Y26677D01*
X-6112Y26666D01*
X-6155Y26660D01*
X-10011Y25471D01*
X-10039Y25455D01*
X-10081Y25443D01*
X-13717Y23693D01*
X-13742Y23673D01*
X-13781Y23655D01*
X-17115Y21382D01*
X-17138Y21359D01*
X-17174Y21335D01*
X-20132Y18591D01*
X-20151Y18565D01*
X-20183Y18536D01*
X-22699Y15381D01*
X-22713Y15353D01*
X-22741Y15319D01*
X-24759Y11825D01*
X-24769Y11794D01*
X-24791Y11757D01*
X-26265Y8001D01*
X-26271Y7969D01*
X-26287Y7929D01*
X-27185Y3995D01*
X-27186Y3963D01*
X-27196Y3921D01*
X-27498Y-103D01*
X-27494Y-130D01*
X-27499Y-157D01*
X-27482Y-227D01*
X-27473Y-300D01*
X-27459Y-324D01*
X-27453Y-350D01*
X-27410Y-409D01*
X-27373Y-472D01*
X-27351Y-488D01*
X-27335Y-510D01*
X-27272Y-547D01*
X-27214Y-591D01*
X-27187Y-598D01*
X-27164Y-612D01*
X-27060Y-629D01*
X-27021Y-639D01*
X-27011Y-637D01*
X-27000Y-639D01*
X27000Y-639D01*
X27027Y-634D01*
G37*
G36*
X-31632Y234966D02*
X-31632Y234966D01*
X-31513Y234973D01*
X-31475Y234986D01*
X-31434Y234991D01*
X-31324Y235034D01*
X-31211Y235071D01*
X-31176Y235093D01*
X-31139Y235108D01*
X-31043Y235178D01*
X-30942Y235241D01*
X-30914Y235271D01*
X-30881Y235294D01*
X-30806Y235386D01*
X-30724Y235473D01*
X-30704Y235508D01*
X-30679Y235539D01*
X-30628Y235647D01*
X-30570Y235751D01*
X-30560Y235791D01*
X-30543Y235827D01*
X-30521Y235944D01*
X-30491Y236059D01*
X-30487Y236120D01*
X-30483Y236140D01*
X-30485Y236160D01*
X-30481Y236220D01*
X-30481Y265430D01*
X-30493Y265528D01*
X-30496Y265627D01*
X-30513Y265685D01*
X-30521Y265746D01*
X-30557Y265838D01*
X-30585Y265933D01*
X-30615Y265985D01*
X-30638Y266041D01*
X-30696Y266121D01*
X-30746Y266207D01*
X-30812Y266282D01*
X-30824Y266299D01*
X-30834Y266306D01*
X-30853Y266328D01*
X-33393Y268868D01*
X-33471Y268928D01*
X-33543Y268996D01*
X-33596Y269025D01*
X-33644Y269062D01*
X-33735Y269102D01*
X-33821Y269150D01*
X-33880Y269165D01*
X-33936Y269189D01*
X-34034Y269204D01*
X-34129Y269229D01*
X-34229Y269235D01*
X-34250Y269239D01*
X-34262Y269237D01*
X-34290Y269239D01*
X-60960Y269239D01*
X-61078Y269224D01*
X-61197Y269217D01*
X-61235Y269204D01*
X-61276Y269199D01*
X-61386Y269156D01*
X-61499Y269119D01*
X-61534Y269097D01*
X-61571Y269082D01*
X-61667Y269013D01*
X-61768Y268949D01*
X-61796Y268919D01*
X-61829Y268896D01*
X-61905Y268804D01*
X-61986Y268717D01*
X-62006Y268682D01*
X-62031Y268651D01*
X-62082Y268543D01*
X-62140Y268439D01*
X-62150Y268399D01*
X-62167Y268363D01*
X-62189Y268246D01*
X-62219Y268131D01*
X-62223Y268071D01*
X-62227Y268051D01*
X-62226Y268036D01*
X-62227Y268032D01*
X-62226Y268021D01*
X-62229Y267970D01*
X-62229Y236220D01*
X-62214Y236102D01*
X-62207Y235983D01*
X-62194Y235945D01*
X-62189Y235904D01*
X-62146Y235794D01*
X-62109Y235681D01*
X-62087Y235646D01*
X-62072Y235609D01*
X-62003Y235513D01*
X-61939Y235412D01*
X-61909Y235384D01*
X-61886Y235351D01*
X-61794Y235276D01*
X-61707Y235194D01*
X-61672Y235174D01*
X-61641Y235149D01*
X-61533Y235098D01*
X-61429Y235040D01*
X-61389Y235030D01*
X-61353Y235013D01*
X-61236Y234991D01*
X-61121Y234961D01*
X-61061Y234957D01*
X-61041Y234953D01*
X-61020Y234955D01*
X-60960Y234951D01*
X-31750Y234951D01*
X-31632Y234966D01*
G37*
G36*
X-78656Y115154D02*
X-78656Y115154D01*
X-78518Y115162D01*
X-78499Y115169D01*
X-78479Y115170D01*
X-78347Y115218D01*
X-78216Y115260D01*
X-78198Y115271D01*
X-78179Y115278D01*
X-78064Y115356D01*
X-77947Y115431D01*
X-77933Y115445D01*
X-77916Y115457D01*
X-77824Y115561D01*
X-77729Y115662D01*
X-77719Y115680D01*
X-77706Y115695D01*
X-77642Y115819D01*
X-77575Y115941D01*
X-77570Y115960D01*
X-77561Y115978D01*
X-77531Y116114D01*
X-77496Y116249D01*
X-77494Y116277D01*
X-77491Y116289D01*
X-77492Y116309D01*
X-77486Y116409D01*
X-77486Y116519D01*
X-76369Y117636D01*
X-68201Y117636D01*
X-68103Y117648D01*
X-68004Y117651D01*
X-67946Y117668D01*
X-67886Y117676D01*
X-67793Y117712D01*
X-67698Y117740D01*
X-67646Y117770D01*
X-67590Y117793D01*
X-67510Y117851D01*
X-67424Y117901D01*
X-67349Y117967D01*
X-67332Y117979D01*
X-67325Y117989D01*
X-67304Y118008D01*
X-60479Y124833D01*
X-60405Y124927D01*
X-60327Y125016D01*
X-60308Y125052D01*
X-60284Y125084D01*
X-60236Y125193D01*
X-60182Y125299D01*
X-60173Y125339D01*
X-60157Y125376D01*
X-60139Y125493D01*
X-60113Y125609D01*
X-60114Y125650D01*
X-60107Y125690D01*
X-60119Y125809D01*
X-60122Y125927D01*
X-60133Y125966D01*
X-60137Y126006D01*
X-60178Y126119D01*
X-60211Y126233D01*
X-60231Y126268D01*
X-60245Y126306D01*
X-60312Y126404D01*
X-60372Y126507D01*
X-60412Y126552D01*
X-60423Y126569D01*
X-60439Y126582D01*
X-60479Y126628D01*
X-60980Y127129D01*
X-67304Y133452D01*
X-67382Y133513D01*
X-67454Y133581D01*
X-67507Y133610D01*
X-67555Y133647D01*
X-67646Y133687D01*
X-67732Y133735D01*
X-67791Y133750D01*
X-67847Y133774D01*
X-67945Y133789D01*
X-68040Y133814D01*
X-68140Y133820D01*
X-68161Y133824D01*
X-68173Y133822D01*
X-68201Y133824D01*
X-76369Y133824D01*
X-77486Y134941D01*
X-77486Y140519D01*
X-76369Y141636D01*
X-61411Y141636D01*
X-61274Y141653D01*
X-61135Y141666D01*
X-61116Y141673D01*
X-61096Y141676D01*
X-60967Y141727D01*
X-60835Y141774D01*
X-60819Y141785D01*
X-60800Y141793D01*
X-60687Y141874D01*
X-60572Y141952D01*
X-60559Y141968D01*
X-60543Y141979D01*
X-60454Y142087D01*
X-60362Y142191D01*
X-60353Y142209D01*
X-60340Y142224D01*
X-60280Y142350D01*
X-60217Y142474D01*
X-60213Y142494D01*
X-60204Y142512D01*
X-60178Y142649D01*
X-60148Y142784D01*
X-60148Y142805D01*
X-60144Y142824D01*
X-60153Y142963D01*
X-60157Y143102D01*
X-60163Y143122D01*
X-60164Y143142D01*
X-60207Y143274D01*
X-60246Y143408D01*
X-60256Y143425D01*
X-60262Y143444D01*
X-60337Y143562D01*
X-60407Y143682D01*
X-60426Y143703D01*
X-60432Y143713D01*
X-60447Y143727D01*
X-60514Y143802D01*
X-62334Y145623D01*
X-62412Y145683D01*
X-62484Y145751D01*
X-62537Y145780D01*
X-62585Y145817D01*
X-62676Y145857D01*
X-62763Y145905D01*
X-62821Y145920D01*
X-62877Y145944D01*
X-62975Y145959D01*
X-63070Y145984D01*
X-63171Y145990D01*
X-63191Y145994D01*
X-63203Y145992D01*
X-63231Y145994D01*
X-68909Y145994D01*
X-70026Y147111D01*
X-70026Y152789D01*
X-70038Y152887D01*
X-70041Y152986D01*
X-70058Y153044D01*
X-70066Y153104D01*
X-70102Y153196D01*
X-70130Y153292D01*
X-70160Y153344D01*
X-70183Y153400D01*
X-70241Y153480D01*
X-70291Y153565D01*
X-70357Y153641D01*
X-70369Y153657D01*
X-70379Y153665D01*
X-70397Y153686D01*
X-71757Y155046D01*
X-71844Y155114D01*
X-71926Y155188D01*
X-71969Y155211D01*
X-72009Y155241D01*
X-72110Y155285D01*
X-72207Y155336D01*
X-72255Y155348D01*
X-72300Y155367D01*
X-72409Y155385D01*
X-72516Y155410D01*
X-72593Y155414D01*
X-72614Y155417D01*
X-72632Y155416D01*
X-72677Y155418D01*
X-97177Y154984D01*
X-97284Y154969D01*
X-97392Y154962D01*
X-97441Y154946D01*
X-97492Y154939D01*
X-97592Y154897D01*
X-97694Y154864D01*
X-97738Y154836D01*
X-97786Y154816D01*
X-97872Y154751D01*
X-97963Y154694D01*
X-97999Y154656D01*
X-98040Y154625D01*
X-98107Y154541D01*
X-98181Y154462D01*
X-98206Y154417D01*
X-98238Y154376D01*
X-98283Y154278D01*
X-98335Y154184D01*
X-98347Y154134D01*
X-98369Y154086D01*
X-98387Y153980D01*
X-98414Y153876D01*
X-98419Y153794D01*
X-98423Y153773D01*
X-98422Y153757D01*
X-98424Y153715D01*
X-98424Y149724D01*
X-104004Y144144D01*
X-105221Y144144D01*
X-105358Y144127D01*
X-105497Y144114D01*
X-105516Y144107D01*
X-105536Y144104D01*
X-105665Y144053D01*
X-105796Y144006D01*
X-105813Y143995D01*
X-105832Y143987D01*
X-105944Y143906D01*
X-106059Y143828D01*
X-106073Y143812D01*
X-106089Y143801D01*
X-106178Y143693D01*
X-106270Y143589D01*
X-106279Y143571D01*
X-106292Y143556D01*
X-106351Y143430D01*
X-106415Y143306D01*
X-106419Y143286D01*
X-106428Y143268D01*
X-106454Y143132D01*
X-106484Y142996D01*
X-106484Y142975D01*
X-106487Y142956D01*
X-106479Y142817D01*
X-106475Y142678D01*
X-106469Y142658D01*
X-106468Y142638D01*
X-106425Y142506D01*
X-106386Y142372D01*
X-106376Y142355D01*
X-106370Y142336D01*
X-106295Y142218D01*
X-106225Y142098D01*
X-106206Y142077D01*
X-106199Y142067D01*
X-106185Y142053D01*
X-106118Y141978D01*
X-79652Y115512D01*
X-79543Y115427D01*
X-79436Y115338D01*
X-79417Y115329D01*
X-79401Y115317D01*
X-79273Y115261D01*
X-79148Y115202D01*
X-79128Y115199D01*
X-79109Y115190D01*
X-78971Y115169D01*
X-78835Y115143D01*
X-78815Y115144D01*
X-78795Y115141D01*
X-78656Y115154D01*
G37*
%LPC*%
G36*
X24472Y119642D02*
X24472Y119642D01*
X24452Y119645D01*
X24356Y119670D01*
X24256Y119677D01*
X24236Y119680D01*
X24224Y119679D01*
X24196Y119680D01*
X22641Y119680D01*
X21524Y120797D01*
X21524Y140351D01*
X22641Y141468D01*
X29719Y141468D01*
X30836Y140351D01*
X30836Y133030D01*
X30853Y132892D01*
X30866Y132753D01*
X30873Y132734D01*
X30876Y132714D01*
X30927Y132585D01*
X30974Y132454D01*
X30985Y132437D01*
X30993Y132418D01*
X31074Y132306D01*
X31152Y132191D01*
X31168Y132177D01*
X31179Y132161D01*
X31287Y132072D01*
X31391Y131980D01*
X31409Y131971D01*
X31424Y131958D01*
X31550Y131899D01*
X31674Y131836D01*
X31694Y131831D01*
X31712Y131823D01*
X31848Y131797D01*
X31984Y131766D01*
X32005Y131767D01*
X32024Y131763D01*
X32163Y131772D01*
X32302Y131776D01*
X32322Y131781D01*
X32342Y131783D01*
X32474Y131826D01*
X32608Y131864D01*
X32625Y131874D01*
X32644Y131881D01*
X32762Y131955D01*
X32882Y132026D01*
X32903Y132044D01*
X32913Y132051D01*
X32927Y132066D01*
X33002Y132132D01*
X41501Y140631D01*
X49894Y140631D01*
X49992Y140644D01*
X50091Y140647D01*
X50149Y140663D01*
X50209Y140671D01*
X50301Y140707D01*
X50396Y140735D01*
X50449Y140766D01*
X50505Y140788D01*
X50585Y140846D01*
X50670Y140896D01*
X50746Y140963D01*
X50762Y140975D01*
X50770Y140984D01*
X50791Y141003D01*
X53189Y143401D01*
X88224Y143401D01*
X88322Y143414D01*
X88421Y143417D01*
X88479Y143433D01*
X88539Y143441D01*
X88631Y143477D01*
X88726Y143505D01*
X88779Y143536D01*
X88835Y143558D01*
X88915Y143616D01*
X89000Y143666D01*
X89076Y143733D01*
X89092Y143745D01*
X89100Y143754D01*
X89121Y143773D01*
X91219Y145870D01*
X91279Y145949D01*
X91347Y146021D01*
X91376Y146074D01*
X91413Y146122D01*
X91453Y146213D01*
X91501Y146299D01*
X91516Y146358D01*
X91540Y146413D01*
X91555Y146511D01*
X91580Y146607D01*
X91586Y146707D01*
X91590Y146727D01*
X91588Y146740D01*
X91590Y146768D01*
X91590Y147302D01*
X92341Y149114D01*
X93728Y150501D01*
X95539Y151251D01*
X97501Y151251D01*
X99312Y150501D01*
X100699Y149114D01*
X101450Y147302D01*
X101450Y145341D01*
X100699Y143529D01*
X99312Y142142D01*
X97501Y141392D01*
X96966Y141392D01*
X96868Y141379D01*
X96769Y141376D01*
X96711Y141359D01*
X96651Y141352D01*
X96559Y141315D01*
X96464Y141288D01*
X96411Y141257D01*
X96355Y141235D01*
X96275Y141177D01*
X96190Y141126D01*
X96114Y141060D01*
X96098Y141048D01*
X96090Y141039D01*
X96069Y141020D01*
X91591Y136542D01*
X56556Y136542D01*
X56458Y136529D01*
X56359Y136526D01*
X56301Y136509D01*
X56241Y136502D01*
X56149Y136465D01*
X56054Y136438D01*
X56001Y136407D01*
X55945Y136385D01*
X55865Y136327D01*
X55780Y136276D01*
X55704Y136210D01*
X55688Y136198D01*
X55680Y136189D01*
X55659Y136170D01*
X53261Y133772D01*
X44868Y133772D01*
X44770Y133759D01*
X44671Y133756D01*
X44613Y133739D01*
X44553Y133732D01*
X44461Y133695D01*
X44366Y133668D01*
X44314Y133637D01*
X44257Y133615D01*
X44177Y133557D01*
X44092Y133506D01*
X44016Y133440D01*
X44000Y133428D01*
X43992Y133419D01*
X43971Y133400D01*
X36512Y125941D01*
X36452Y125863D01*
X36384Y125791D01*
X36355Y125738D01*
X36318Y125690D01*
X36278Y125599D01*
X36230Y125513D01*
X36215Y125454D01*
X36191Y125398D01*
X36176Y125300D01*
X36151Y125205D01*
X36145Y125105D01*
X36141Y125084D01*
X36143Y125072D01*
X36141Y125044D01*
X36141Y124098D01*
X31685Y119642D01*
X24472Y119642D01*
G37*
%LPD*%
%LPC*%
G36*
X39981Y244134D02*
X39981Y244134D01*
X38864Y245251D01*
X38864Y267829D01*
X39981Y268946D01*
X62559Y268946D01*
X63676Y267829D01*
X63676Y245251D01*
X62559Y244134D01*
X39981Y244134D01*
G37*
%LPD*%
G36*
X77490Y50042D02*
X77490Y50042D01*
X77509Y50040D01*
X77611Y50062D01*
X77713Y50079D01*
X77730Y50088D01*
X77750Y50092D01*
X77839Y50145D01*
X77930Y50194D01*
X77944Y50208D01*
X77961Y50218D01*
X78028Y50297D01*
X78100Y50372D01*
X78108Y50390D01*
X78121Y50405D01*
X78160Y50501D01*
X78203Y50595D01*
X78205Y50615D01*
X78213Y50633D01*
X78231Y50800D01*
X78231Y76200D01*
X78228Y76220D01*
X78230Y76239D01*
X78208Y76341D01*
X78192Y76443D01*
X78182Y76460D01*
X78178Y76480D01*
X78125Y76569D01*
X78076Y76660D01*
X78062Y76674D01*
X78052Y76691D01*
X77973Y76758D01*
X77898Y76830D01*
X77880Y76838D01*
X77865Y76851D01*
X77769Y76890D01*
X77675Y76933D01*
X77655Y76935D01*
X77637Y76943D01*
X77470Y76961D01*
X69517Y76961D01*
X69497Y76958D01*
X69478Y76960D01*
X69376Y76938D01*
X69274Y76922D01*
X69257Y76912D01*
X69237Y76908D01*
X69148Y76855D01*
X69057Y76806D01*
X69043Y76792D01*
X69026Y76782D01*
X68959Y76703D01*
X68887Y76628D01*
X68879Y76610D01*
X68866Y76595D01*
X68827Y76499D01*
X68784Y76405D01*
X68782Y76385D01*
X68774Y76367D01*
X68756Y76200D01*
X68756Y67101D01*
X67639Y65984D01*
X59690Y65984D01*
X59670Y65981D01*
X59651Y65983D01*
X59549Y65961D01*
X59447Y65945D01*
X59430Y65935D01*
X59410Y65931D01*
X59321Y65878D01*
X59230Y65829D01*
X59216Y65815D01*
X59199Y65805D01*
X59132Y65726D01*
X59061Y65651D01*
X59052Y65633D01*
X59039Y65618D01*
X59000Y65522D01*
X58957Y65428D01*
X58955Y65408D01*
X58947Y65390D01*
X58929Y65223D01*
X58929Y50800D01*
X58932Y50780D01*
X58930Y50761D01*
X58952Y50659D01*
X58969Y50557D01*
X58978Y50540D01*
X58982Y50520D01*
X59035Y50431D01*
X59084Y50340D01*
X59098Y50326D01*
X59108Y50309D01*
X59187Y50242D01*
X59262Y50171D01*
X59280Y50162D01*
X59295Y50149D01*
X59391Y50110D01*
X59485Y50067D01*
X59505Y50065D01*
X59523Y50057D01*
X59690Y50039D01*
X77470Y50039D01*
X77490Y50042D01*
G37*
G36*
X69870Y36072D02*
X69870Y36072D01*
X69889Y36070D01*
X69991Y36092D01*
X70093Y36109D01*
X70110Y36118D01*
X70130Y36122D01*
X70219Y36175D01*
X70310Y36224D01*
X70324Y36238D01*
X70341Y36248D01*
X70408Y36327D01*
X70480Y36402D01*
X70488Y36420D01*
X70501Y36435D01*
X70540Y36531D01*
X70583Y36625D01*
X70585Y36645D01*
X70593Y36663D01*
X70611Y36830D01*
X70611Y46990D01*
X70608Y47010D01*
X70610Y47029D01*
X70588Y47131D01*
X70572Y47233D01*
X70562Y47250D01*
X70558Y47270D01*
X70505Y47359D01*
X70456Y47450D01*
X70442Y47464D01*
X70432Y47481D01*
X70353Y47548D01*
X70278Y47620D01*
X70260Y47628D01*
X70245Y47641D01*
X70149Y47680D01*
X70055Y47723D01*
X70035Y47725D01*
X70017Y47733D01*
X69850Y47751D01*
X56641Y47751D01*
X56641Y52070D01*
X56639Y52084D01*
X56640Y52094D01*
X56628Y52150D01*
X56627Y52160D01*
X56619Y52251D01*
X56607Y52281D01*
X56602Y52313D01*
X56559Y52393D01*
X56523Y52477D01*
X56497Y52510D01*
X56486Y52530D01*
X56463Y52552D01*
X56418Y52608D01*
X55965Y53061D01*
X55891Y53115D01*
X55822Y53174D01*
X55792Y53186D01*
X55766Y53205D01*
X55678Y53232D01*
X55594Y53266D01*
X55553Y53270D01*
X55530Y53277D01*
X55498Y53276D01*
X55427Y53284D01*
X52835Y53284D01*
X52745Y53270D01*
X52654Y53262D01*
X52624Y53250D01*
X52592Y53245D01*
X52512Y53202D01*
X52428Y53166D01*
X52396Y53140D01*
X52375Y53129D01*
X52353Y53106D01*
X52297Y53061D01*
X51789Y52553D01*
X51133Y52553D01*
X51043Y52539D01*
X50952Y52531D01*
X50922Y52519D01*
X50890Y52514D01*
X50810Y52471D01*
X50726Y52435D01*
X50694Y52409D01*
X50673Y52398D01*
X50651Y52375D01*
X50595Y52330D01*
X48069Y49804D01*
X48016Y49730D01*
X47956Y49661D01*
X47944Y49631D01*
X47925Y49605D01*
X47898Y49518D01*
X47864Y49433D01*
X47860Y49392D01*
X47853Y49369D01*
X47854Y49337D01*
X47846Y49266D01*
X47846Y47551D01*
X46625Y46330D01*
X46621Y46328D01*
X46530Y46279D01*
X46516Y46265D01*
X46499Y46255D01*
X46432Y46176D01*
X46361Y46101D01*
X46352Y46083D01*
X46339Y46068D01*
X46300Y45972D01*
X46257Y45878D01*
X46255Y45858D01*
X46247Y45840D01*
X46229Y45673D01*
X46229Y36830D01*
X46232Y36810D01*
X46230Y36791D01*
X46252Y36689D01*
X46269Y36587D01*
X46278Y36570D01*
X46282Y36550D01*
X46335Y36461D01*
X46384Y36370D01*
X46398Y36356D01*
X46408Y36339D01*
X46487Y36272D01*
X46562Y36201D01*
X46580Y36192D01*
X46595Y36179D01*
X46691Y36140D01*
X46785Y36097D01*
X46805Y36095D01*
X46823Y36087D01*
X46990Y36069D01*
X69850Y36069D01*
X69870Y36072D01*
G37*
%LPC*%
G36*
X116215Y169544D02*
X116215Y169544D01*
X112714Y170994D01*
X110034Y173674D01*
X108584Y177175D01*
X108584Y180965D01*
X110034Y184466D01*
X112714Y187146D01*
X116215Y188596D01*
X120005Y188596D01*
X123506Y187146D01*
X126186Y184466D01*
X127636Y180965D01*
X127636Y177175D01*
X126186Y173674D01*
X123506Y170994D01*
X120005Y169544D01*
X116215Y169544D01*
G37*
%LPD*%
D10*
X-64620Y152400D03*
X-77620Y152400D03*
D11*
X-60080Y68580D03*
X-77080Y68580D03*
D12*
X-24130Y184300D03*
X-24130Y171300D03*
D13*
X-68580Y113730D03*
X-68580Y125730D03*
X-68580Y137730D03*
D10*
G36*
X94816Y95040D02*
X99765Y90091D01*
X93402Y83728D01*
X88453Y88677D01*
X94816Y95040D01*
G37*
G36*
X85623Y104232D02*
X90572Y99283D01*
X84209Y92920D01*
X79260Y97869D01*
X85623Y104232D01*
G37*
D14*
X50800Y107070D03*
X50800Y124070D03*
D11*
X-60080Y91440D03*
X-77080Y91440D03*
D12*
X40640Y109070D03*
X40640Y122070D03*
D10*
X-62080Y100330D03*
X-75080Y100330D03*
D12*
X-143510Y149710D03*
X-143510Y162710D03*
D15*
X165200Y149860D03*
X82600Y6760D03*
X-82600Y6760D03*
X-165200Y149860D03*
X123900Y221360D03*
X123900Y78360D03*
X0Y6760D03*
X-123900Y78360D03*
X-123900Y221360D03*
D12*
X-85090Y247500D03*
X-85090Y260500D03*
D10*
X40490Y41910D03*
X53490Y41910D03*
X64920Y59690D03*
X51920Y59690D03*
D16*
X38940Y53340D03*
X16940Y62840D03*
X16940Y43840D03*
D10*
X63350Y72390D03*
X76350Y72390D03*
X56030Y72390D03*
X43030Y72390D03*
D12*
X2540Y50650D03*
X2540Y63650D03*
D10*
X-10310Y40640D03*
X2690Y40640D03*
D12*
X-11430Y50650D03*
X-11430Y63650D03*
D17*
X-41420Y88063D03*
X-41420Y93064D03*
X-41420Y98066D03*
X-41420Y103067D03*
X-41420Y108068D03*
X-41420Y113069D03*
X-41420Y118071D03*
X-41420Y123072D03*
X-41420Y128073D03*
X-41420Y133074D03*
X-41420Y138076D03*
X-41420Y143077D03*
D18*
X-35127Y149370D03*
X-30126Y149370D03*
X-25124Y149370D03*
X-20123Y149370D03*
X-15122Y149370D03*
X-10121Y149370D03*
X-5119Y149370D03*
X-118Y149370D03*
X4883Y149370D03*
X9884Y149370D03*
X14886Y149370D03*
X19887Y149370D03*
D17*
X26180Y143077D03*
X26180Y138076D03*
X26180Y133074D03*
X26180Y128073D03*
X26180Y123072D03*
X26180Y118071D03*
X26180Y113069D03*
X26180Y108068D03*
X26180Y103067D03*
X26180Y98066D03*
X26180Y93064D03*
X26180Y88063D03*
D18*
X19887Y81770D03*
X14886Y81770D03*
X9884Y81770D03*
X4883Y81770D03*
X-118Y81770D03*
X-5119Y81770D03*
X-10121Y81770D03*
X-15122Y81770D03*
X-20123Y81770D03*
X-25124Y81770D03*
X-30126Y81770D03*
X-35127Y81770D03*
D19*
X-7620Y115570D03*
D10*
X-62080Y77470D03*
X-75080Y77470D03*
D20*
X-107950Y153670D03*
D21*
X118110Y179070D03*
X118110Y153670D03*
X118110Y128270D03*
D22*
X-7130Y240030D03*
X-41130Y240030D03*
D23*
X49530Y200660D03*
D24*
X-470Y200660D03*
D10*
X78890Y41910D03*
X65890Y41910D03*
D25*
X1270Y256540D03*
D26*
X51270Y256540D03*
D25*
X-48730Y256540D03*
D27*
X-62230Y21590D03*
X-73660Y21590D03*
X-74930Y45720D03*
X-66040Y44450D03*
X-31750Y19050D03*
X-33020Y26670D03*
X20320Y26670D03*
X12700Y31750D03*
X-119380Y130810D03*
X-95250Y138430D03*
D28*
X22860Y184150D03*
D29*
X26180Y113069D02*
X26228Y113021D01*
X32316Y113021D01*
X36267Y109070D01*
X40640Y109070D01*
D30*
X50800Y107070D02*
X52070Y107070D01*
X65160Y107070D01*
X85090Y127000D01*
D28*
X85090Y127000D03*
D31*
X50070Y109070D02*
X40640Y109070D01*
X50070Y109070D02*
X52070Y107070D01*
D28*
X97457Y227813D03*
D29*
X95957Y226313D01*
X45180Y226313D01*
X9933Y149419D02*
X9884Y149370D01*
X9933Y191066D02*
X45180Y226313D01*
X9933Y191066D02*
X9933Y149419D01*
X14972Y149456D02*
X14972Y189100D01*
X14972Y149456D02*
X14886Y149370D01*
X47232Y221360D02*
X123900Y221360D01*
X47232Y221360D02*
X14972Y189100D01*
D32*
X-20170Y184300D02*
X-24130Y184300D01*
X-20170Y184300D02*
X-16510Y187960D01*
D28*
X-16510Y187960D03*
D29*
X-56240Y100330D02*
X-62080Y100330D01*
X-41468Y113021D02*
X-41420Y113069D01*
X-52552Y108025D02*
X-52552Y104018D01*
X-56240Y100330D01*
X-47556Y113021D02*
X-41468Y113021D01*
X-47556Y113021D02*
X-52552Y108025D01*
D28*
X-66651Y96520D03*
D30*
X-65160Y96520D01*
X-60080Y91440D01*
X-62080Y99600D02*
X-62080Y100330D01*
X-62080Y99600D02*
X-65160Y96520D01*
D28*
X-100935Y210061D03*
D29*
X-83717Y197960D02*
X-35127Y149370D01*
X-83717Y197960D02*
X-83717Y198253D01*
X-95525Y210061D01*
X-100935Y210061D01*
X-99819Y221360D02*
X-123900Y221360D01*
X-34008Y155549D02*
X-32221Y155549D01*
X-30126Y153454D01*
X-30126Y149370D01*
X-34008Y155549D02*
X-99819Y221360D01*
D32*
X-85090Y260500D02*
X-52690Y260500D01*
X-48730Y256540D01*
D28*
X-90170Y195580D03*
D30*
X-90170Y194324D01*
X-49782Y153490D01*
D29*
X-49554Y139860D01*
X-47770Y138076D01*
X-41420Y138076D01*
D32*
X-80010Y242420D02*
X-85090Y247500D01*
X-80010Y242420D02*
X-80010Y240030D01*
D28*
X-80010Y240030D03*
X63500Y53340D03*
X73660Y52070D03*
X68580Y59690D03*
D31*
X76350Y67460D02*
X76350Y72390D01*
X76350Y67460D02*
X68580Y59690D01*
X63350Y72390D02*
X56030Y72390D01*
X2690Y50500D02*
X2540Y50650D01*
X2690Y50500D02*
X2690Y44450D01*
X2690Y40640D01*
X3300Y43840D02*
X16940Y43840D01*
X3300Y43840D02*
X2690Y44450D01*
X-10310Y49530D02*
X-11430Y50650D01*
X-10310Y49530D02*
X-10310Y40640D01*
D29*
X9836Y81722D02*
X9884Y81770D01*
X2540Y66335D02*
X2540Y63650D01*
X9836Y73631D02*
X9836Y81722D01*
X9836Y73631D02*
X2540Y66335D01*
D31*
X2540Y63650D02*
X-11430Y63650D01*
D32*
X-57433Y128073D02*
X-67090Y137730D01*
X-68580Y137730D01*
X-57433Y128073D02*
X-41420Y128073D01*
X-57748Y123072D02*
X-67090Y113730D01*
X-68580Y113730D01*
X-57748Y123072D02*
X-41420Y123072D01*
X-54291Y142071D02*
X-64620Y152400D01*
X-54291Y142071D02*
X-54253Y139821D01*
X-54253Y137914D01*
X-54221Y137881D01*
X-54220Y137835D01*
X-52848Y136508D01*
X-49413Y133074D01*
X-41420Y133074D01*
X-100330Y161290D02*
X-107950Y153670D01*
X-100330Y161290D02*
X-73510Y161290D01*
X-64620Y152400D01*
X75089Y88749D02*
X84916Y98576D01*
X75089Y88749D02*
X73632Y88749D01*
X72946Y88063D01*
X26180Y88063D01*
X84916Y101116D02*
X100733Y116933D01*
X84916Y101116D02*
X84916Y98576D01*
X128905Y122529D02*
X128905Y135281D01*
X118110Y146076D02*
X118110Y153670D01*
X118110Y146076D02*
X128905Y135281D01*
X123310Y116933D02*
X100733Y116933D01*
X123310Y116933D02*
X128905Y122529D01*
X69964Y93064D02*
X26180Y93064D01*
X105410Y128270D02*
X118110Y128270D01*
X105410Y128270D02*
X84548Y107408D01*
X84308Y107408D01*
X69964Y93064D01*
D29*
X4883Y81770D02*
X4835Y81722D01*
X4835Y75634D01*
X-161Y70638D01*
X-18650Y70638D02*
X-20220Y69068D01*
X-15588Y26217D02*
X-15588Y22348D01*
X0Y6760D01*
X-20220Y30849D02*
X-20220Y69068D01*
X-20220Y30849D02*
X-15588Y26217D01*
X-18650Y70638D02*
X-161Y70638D01*
X-2213Y75591D02*
X-204Y77600D01*
X-204Y81684D02*
X-118Y81770D01*
X-204Y81684D02*
X-204Y77600D01*
X-2213Y75591D02*
X-20702Y75591D01*
X-25173Y71120D01*
X-25173Y26676D01*
X-23311Y24814D01*
D28*
X-23311Y24814D03*
X52070Y49530D03*
X49530Y41910D03*
X-101600Y199390D03*
X76200Y165100D03*
X76200Y157480D03*
X83820Y52070D03*
X76200Y82550D03*
D29*
X-74929Y100330D02*
X-75080Y100330D01*
X-74929Y100330D02*
X-67000Y108259D01*
X-41469Y118022D02*
X-41420Y118071D01*
X-59322Y108259D02*
X-67000Y108259D01*
X-59322Y108259D02*
X-49559Y118022D01*
X-41469Y118022D01*
D28*
X96520Y214630D03*
X97790Y208280D03*
X-104140Y171450D03*
X-148590Y180340D03*
D31*
X40490Y51790D02*
X40490Y41910D01*
X40490Y51790D02*
X38940Y53340D01*
X49737Y57507D02*
X51920Y59690D01*
X49737Y57507D02*
X48766Y57507D01*
X43049Y51790D02*
X40490Y51790D01*
X43049Y51790D02*
X48766Y57507D01*
X47577Y67843D02*
X43030Y72390D01*
X47577Y67843D02*
X47577Y65838D01*
X51920Y61495D02*
X51920Y59690D01*
X51920Y61495D02*
X47577Y65838D01*
D29*
X-41420Y108068D02*
X-41506Y107982D01*
X-45590Y107982D01*
X-47599Y105973D01*
X-53160Y83011D02*
X-56539Y83011D01*
X-62080Y77470D01*
X-47599Y88572D02*
X-47599Y105973D01*
X-47599Y88572D02*
X-53160Y83011D01*
D31*
X-62080Y70580D02*
X-60080Y68580D01*
X-62080Y70580D02*
X-62080Y77470D01*
D29*
X-30126Y81770D02*
X-30126Y46074D01*
X-45720Y30480D01*
X-80736Y30480D01*
X-103475Y53219D01*
D28*
X-103475Y53219D03*
D29*
X-35127Y48693D02*
X-35127Y81770D01*
X-102072Y60942D02*
X-106482Y60942D01*
X-123900Y78360D01*
X-102072Y60942D02*
X-76690Y35560D01*
X-48260Y35560D02*
X-35127Y48693D01*
X-48260Y35560D02*
X-76690Y35560D01*
D28*
X96582Y128208D03*
D29*
X32711Y105621D02*
X32711Y104150D01*
X32711Y105621D02*
X30264Y108068D01*
X26180Y108068D01*
X66514Y98141D02*
X96582Y128208D01*
X66514Y98141D02*
X38720Y98141D01*
X32711Y104150D01*
D28*
X96520Y146321D03*
D29*
X90170Y139971D01*
X54610Y139971D01*
X51840Y137201D01*
X30264Y123072D02*
X26180Y123072D01*
X30264Y123072D02*
X32711Y125519D01*
X32711Y126990D01*
X42922Y137201D01*
X51840Y137201D01*
X123900Y78360D02*
X132617Y87077D01*
X141916Y106526D01*
D28*
X141916Y106526D03*
D32*
X-25124Y149370D02*
X-25124Y170306D01*
X-24130Y171300D01*
M02*
