G04 EAGLE Gerber RS-274X export*
G75*
%MOMM*%
%FSLAX34Y34*%
%LPD*%
%INSilkscreen Top*%
%IPPOS*%
%AMOC8*
5,1,8,0,0,1.08239X$1,22.5*%
G01*
%ADD10C,0.152400*%
%ADD11C,0.101600*%
%ADD12R,0.014731X0.014731*%
%ADD13R,0.147319X0.014731*%
%ADD14R,0.265175X0.014731*%
%ADD15R,0.383031X0.014731*%
%ADD16R,0.515619X0.014731*%
%ADD17R,0.633475X0.014731*%
%ADD18R,0.751331X0.014731*%
%ADD19R,0.883919X0.014731*%
%ADD20R,1.001775X0.014731*%
%ADD21R,1.119631X0.014731*%
%ADD22R,1.134363X0.014731*%
%ADD23R,1.149094X0.014731*%
%ADD24R,1.163825X0.014731*%
%ADD25R,1.178556X0.014731*%
%ADD26R,1.193288X0.014731*%
%ADD27R,1.222756X0.014731*%
%ADD28R,1.237488X0.014731*%
%ADD29R,1.266950X0.014731*%
%ADD30R,1.281681X0.014731*%
%ADD31R,1.311144X0.014731*%
%ADD32R,1.325881X0.014731*%
%ADD33R,1.355344X0.014731*%
%ADD34R,1.370075X0.014731*%
%ADD35R,1.384806X0.014731*%
%ADD36R,1.399538X0.014731*%
%ADD37R,1.414275X0.014731*%
%ADD38R,1.443738X0.014731*%
%ADD39R,1.458469X0.014731*%
%ADD40R,1.487931X0.014731*%
%ADD41R,1.502663X0.014731*%
%ADD42R,1.517394X0.014731*%
%ADD43R,1.532125X0.014731*%
%ADD44R,1.546856X0.014731*%
%ADD45R,1.576319X0.014731*%
%ADD46R,1.605788X0.014731*%
%ADD47R,1.620519X0.014731*%
%ADD48R,1.649981X0.014731*%
%ADD49R,1.664713X0.014731*%
%ADD50R,1.694175X0.014731*%
%ADD51R,1.708913X0.014731*%
%ADD52R,1.738375X0.014731*%
%ADD53R,1.753106X0.014731*%
%ADD54R,1.767838X0.014731*%
%ADD55R,1.782569X0.014731*%
%ADD56R,1.797306X0.014731*%
%ADD57R,0.117856X0.014731*%
%ADD58R,1.826769X0.014731*%
%ADD59R,0.235713X0.014731*%
%ADD60R,0.353569X0.014731*%
%ADD61R,1.856231X0.014731*%
%ADD62R,0.486156X0.014731*%
%ADD63R,1.870963X0.014731*%
%ADD64R,0.604013X0.014731*%
%ADD65R,0.721869X0.014731*%
%ADD66R,1.885694X0.014731*%
%ADD67R,0.839719X0.014731*%
%ADD68R,0.972306X0.014731*%
%ADD69R,1.090169X0.014731*%
%ADD70R,1.208025X0.014731*%
%ADD71R,1.252219X0.014731*%
%ADD72R,1.296412X0.014731*%
%ADD73R,1.340612X0.014731*%
%ADD74R,1.826763X0.014731*%
%ADD75R,1.414269X0.014731*%
%ADD76R,1.812031X0.014731*%
%ADD77R,1.429000X0.014731*%
%ADD78R,1.458462X0.014731*%
%ADD79R,1.473200X0.014731*%
%ADD80R,1.723644X0.014731*%
%ADD81R,1.694181X0.014731*%
%ADD82R,1.679450X0.014731*%
%ADD83R,1.561594X0.014731*%
%ADD84R,1.576325X0.014731*%
%ADD85R,1.591056X0.014731*%
%ADD86R,1.635250X0.014731*%
%ADD87R,1.561588X0.014731*%
%ADD88R,1.443731X0.014731*%
%ADD89R,1.797300X0.014731*%
%ADD90R,1.841500X0.014731*%
%ADD91R,1.311150X0.014731*%
%ADD92R,1.296419X0.014731*%
%ADD93R,1.193294X0.014731*%
%ADD94R,0.957575X0.014731*%
%ADD95R,0.589281X0.014731*%
%ADD96R,0.471425X0.014731*%
%ADD97R,0.220975X0.014731*%
%ADD98R,1.812038X0.014731*%
%ADD99R,0.103119X0.014731*%
%ADD100R,0.029463X0.014731*%
%ADD101R,0.162050X0.014731*%
%ADD102R,0.397763X0.014731*%
%ADD103R,0.648206X0.014731*%
%ADD104R,1.679444X0.014731*%
%ADD105R,1.016506X0.014731*%
%ADD106R,1.104900X0.014731*%
%ADD107R,1.222750X0.014731*%
%ADD108R,1.429006X0.014731*%
%ADD109R,1.208019X0.014731*%
%ADD110R,0.987044X0.014731*%
%ADD111R,0.854456X0.014731*%
%ADD112R,0.618744X0.014731*%
%ADD113R,0.500888X0.014731*%
%ADD114R,0.368300X0.014731*%
%ADD115R,0.132587X0.014731*%
%ADD116R,1.664719X0.014731*%
%ADD117R,1.075438X0.014731*%
%ADD118R,0.942844X0.014731*%
%ADD119R,0.707131X0.014731*%
%ADD120R,0.456694X0.014731*%
%ADD121R,0.088388X0.014731*%
%ADD122C,0.127000*%
%ADD123C,0.076200*%
%ADD124R,0.600000X1.140000*%
%ADD125R,1.000000X0.880000*%
%ADD126C,0.203200*%
%ADD127C,0.304800*%
%ADD128C,0.050800*%


D10*
X89530Y179918D02*
X94469Y179918D01*
X94609Y179916D01*
X94748Y179910D01*
X94888Y179900D01*
X95027Y179886D01*
X95166Y179869D01*
X95304Y179847D01*
X95441Y179821D01*
X95578Y179792D01*
X95714Y179759D01*
X95848Y179722D01*
X95982Y179681D01*
X96114Y179636D01*
X96246Y179587D01*
X96375Y179535D01*
X96503Y179480D01*
X96630Y179420D01*
X96755Y179357D01*
X96878Y179291D01*
X96999Y179221D01*
X97118Y179148D01*
X97235Y179071D01*
X97349Y178991D01*
X97462Y178908D01*
X97572Y178822D01*
X97679Y178732D01*
X97784Y178640D01*
X97886Y178545D01*
X97986Y178447D01*
X98083Y178346D01*
X98177Y178242D01*
X98267Y178136D01*
X98355Y178027D01*
X98440Y177916D01*
X98521Y177802D01*
X98600Y177687D01*
X98675Y177569D01*
X98746Y177449D01*
X98814Y177326D01*
X98879Y177203D01*
X98940Y177077D01*
X98998Y176949D01*
X99052Y176821D01*
X99102Y176690D01*
X99149Y176558D01*
X99192Y176425D01*
X99231Y176291D01*
X99266Y176156D01*
X99297Y176020D01*
X99325Y175882D01*
X99348Y175745D01*
X99368Y175606D01*
X99384Y175467D01*
X99396Y175328D01*
X99404Y175189D01*
X99408Y175049D01*
X99408Y174909D01*
X99404Y174769D01*
X99396Y174630D01*
X99384Y174491D01*
X99368Y174352D01*
X99348Y174213D01*
X99325Y174076D01*
X99297Y173938D01*
X99266Y173802D01*
X99231Y173667D01*
X99192Y173533D01*
X99149Y173400D01*
X99102Y173268D01*
X99052Y173137D01*
X98998Y173009D01*
X98940Y172881D01*
X98879Y172755D01*
X98814Y172632D01*
X98746Y172510D01*
X98675Y172389D01*
X98600Y172271D01*
X98521Y172156D01*
X98440Y172042D01*
X98355Y171931D01*
X98267Y171822D01*
X98177Y171716D01*
X98083Y171612D01*
X97986Y171511D01*
X97886Y171413D01*
X97784Y171318D01*
X97679Y171226D01*
X97572Y171136D01*
X97462Y171050D01*
X97349Y170967D01*
X97235Y170887D01*
X97118Y170810D01*
X96999Y170737D01*
X96878Y170667D01*
X96755Y170601D01*
X96630Y170538D01*
X96503Y170478D01*
X96375Y170423D01*
X96246Y170371D01*
X96114Y170322D01*
X95982Y170277D01*
X95848Y170236D01*
X95714Y170199D01*
X95578Y170166D01*
X95441Y170137D01*
X95304Y170111D01*
X95166Y170089D01*
X95027Y170072D01*
X94888Y170058D01*
X94748Y170048D01*
X94609Y170042D01*
X94469Y170040D01*
X89530Y170040D01*
X89530Y187820D01*
X94469Y187820D01*
X94593Y187818D01*
X94717Y187812D01*
X94841Y187802D01*
X94964Y187789D01*
X95087Y187771D01*
X95209Y187750D01*
X95331Y187725D01*
X95452Y187696D01*
X95571Y187663D01*
X95690Y187627D01*
X95807Y187586D01*
X95923Y187543D01*
X96038Y187495D01*
X96151Y187444D01*
X96263Y187389D01*
X96372Y187331D01*
X96480Y187270D01*
X96586Y187205D01*
X96690Y187137D01*
X96791Y187065D01*
X96891Y186991D01*
X96987Y186913D01*
X97082Y186833D01*
X97174Y186749D01*
X97263Y186663D01*
X97349Y186574D01*
X97433Y186482D01*
X97513Y186387D01*
X97591Y186291D01*
X97665Y186191D01*
X97737Y186090D01*
X97805Y185986D01*
X97870Y185880D01*
X97931Y185772D01*
X97989Y185663D01*
X98044Y185551D01*
X98095Y185438D01*
X98143Y185323D01*
X98186Y185207D01*
X98227Y185090D01*
X98263Y184971D01*
X98296Y184852D01*
X98325Y184731D01*
X98350Y184609D01*
X98371Y184487D01*
X98389Y184364D01*
X98402Y184241D01*
X98412Y184117D01*
X98418Y183993D01*
X98420Y183869D01*
X98418Y183745D01*
X98412Y183621D01*
X98402Y183497D01*
X98389Y183374D01*
X98371Y183251D01*
X98350Y183129D01*
X98325Y183007D01*
X98296Y182886D01*
X98263Y182767D01*
X98227Y182648D01*
X98186Y182531D01*
X98143Y182415D01*
X98095Y182300D01*
X98044Y182187D01*
X97989Y182075D01*
X97931Y181966D01*
X97870Y181858D01*
X97805Y181752D01*
X97737Y181648D01*
X97665Y181547D01*
X97591Y181447D01*
X97513Y181351D01*
X97433Y181256D01*
X97349Y181164D01*
X97263Y181075D01*
X97174Y180989D01*
X97082Y180905D01*
X96987Y180825D01*
X96891Y180747D01*
X96791Y180673D01*
X96690Y180601D01*
X96586Y180533D01*
X96480Y180468D01*
X96372Y180407D01*
X96263Y180349D01*
X96151Y180294D01*
X96038Y180243D01*
X95923Y180195D01*
X95807Y180152D01*
X95690Y180111D01*
X95571Y180075D01*
X95452Y180042D01*
X95331Y180013D01*
X95209Y179988D01*
X95087Y179967D01*
X94964Y179949D01*
X94841Y179936D01*
X94717Y179926D01*
X94593Y179920D01*
X94469Y179918D01*
X89235Y135679D02*
X89235Y117899D01*
X89235Y135679D02*
X94174Y135679D01*
X94313Y135677D01*
X94451Y135671D01*
X94589Y135662D01*
X94727Y135648D01*
X94864Y135631D01*
X95001Y135609D01*
X95138Y135584D01*
X95273Y135555D01*
X95408Y135522D01*
X95541Y135486D01*
X95674Y135446D01*
X95805Y135402D01*
X95935Y135354D01*
X96064Y135303D01*
X96191Y135248D01*
X96317Y135190D01*
X96441Y135128D01*
X96563Y135063D01*
X96683Y134994D01*
X96802Y134922D01*
X96918Y134847D01*
X97032Y134768D01*
X97144Y134686D01*
X97253Y134601D01*
X97361Y134514D01*
X97465Y134423D01*
X97567Y134329D01*
X97666Y134232D01*
X97763Y134133D01*
X97857Y134031D01*
X97948Y133927D01*
X98035Y133819D01*
X98120Y133710D01*
X98202Y133598D01*
X98281Y133484D01*
X98356Y133368D01*
X98428Y133249D01*
X98497Y133129D01*
X98562Y133007D01*
X98624Y132883D01*
X98682Y132757D01*
X98737Y132630D01*
X98788Y132501D01*
X98836Y132371D01*
X98880Y132240D01*
X98920Y132107D01*
X98956Y131974D01*
X98989Y131839D01*
X99018Y131704D01*
X99043Y131567D01*
X99065Y131430D01*
X99082Y131293D01*
X99096Y131155D01*
X99105Y131017D01*
X99111Y130879D01*
X99113Y130740D01*
X99113Y122838D01*
X99111Y122699D01*
X99105Y122561D01*
X99096Y122423D01*
X99082Y122285D01*
X99065Y122148D01*
X99043Y122011D01*
X99018Y121874D01*
X98989Y121739D01*
X98956Y121604D01*
X98920Y121471D01*
X98880Y121338D01*
X98836Y121207D01*
X98788Y121077D01*
X98737Y120948D01*
X98682Y120821D01*
X98624Y120695D01*
X98562Y120571D01*
X98497Y120449D01*
X98428Y120329D01*
X98356Y120210D01*
X98281Y120094D01*
X98202Y119980D01*
X98120Y119868D01*
X98035Y119759D01*
X97948Y119651D01*
X97857Y119547D01*
X97763Y119445D01*
X97666Y119346D01*
X97567Y119249D01*
X97465Y119155D01*
X97361Y119064D01*
X97253Y118977D01*
X97144Y118892D01*
X97032Y118810D01*
X96918Y118731D01*
X96802Y118656D01*
X96683Y118584D01*
X96563Y118515D01*
X96441Y118450D01*
X96317Y118388D01*
X96191Y118330D01*
X96064Y118275D01*
X95935Y118224D01*
X95805Y118176D01*
X95674Y118132D01*
X95541Y118092D01*
X95408Y118056D01*
X95273Y118023D01*
X95138Y117994D01*
X95001Y117969D01*
X94864Y117947D01*
X94727Y117930D01*
X94589Y117916D01*
X94451Y117907D01*
X94313Y117901D01*
X94174Y117899D01*
X89235Y117899D01*
X93033Y144727D02*
X96984Y144727D01*
X93033Y144727D02*
X92909Y144729D01*
X92785Y144735D01*
X92661Y144745D01*
X92538Y144758D01*
X92415Y144776D01*
X92293Y144797D01*
X92171Y144822D01*
X92050Y144851D01*
X91931Y144884D01*
X91812Y144920D01*
X91695Y144961D01*
X91579Y145004D01*
X91464Y145052D01*
X91351Y145103D01*
X91239Y145158D01*
X91130Y145216D01*
X91022Y145277D01*
X90916Y145342D01*
X90812Y145410D01*
X90711Y145482D01*
X90611Y145556D01*
X90515Y145634D01*
X90420Y145714D01*
X90328Y145798D01*
X90239Y145884D01*
X90153Y145973D01*
X90069Y146065D01*
X89989Y146160D01*
X89911Y146256D01*
X89837Y146356D01*
X89765Y146457D01*
X89697Y146561D01*
X89632Y146667D01*
X89571Y146775D01*
X89513Y146884D01*
X89458Y146996D01*
X89407Y147109D01*
X89359Y147224D01*
X89316Y147340D01*
X89275Y147457D01*
X89239Y147576D01*
X89206Y147695D01*
X89177Y147816D01*
X89152Y147938D01*
X89131Y148060D01*
X89113Y148183D01*
X89100Y148306D01*
X89090Y148430D01*
X89084Y148554D01*
X89082Y148678D01*
X89082Y158556D01*
X89084Y158680D01*
X89090Y158804D01*
X89100Y158928D01*
X89113Y159051D01*
X89131Y159174D01*
X89152Y159296D01*
X89177Y159418D01*
X89206Y159539D01*
X89239Y159658D01*
X89275Y159777D01*
X89316Y159894D01*
X89359Y160010D01*
X89407Y160125D01*
X89458Y160238D01*
X89513Y160350D01*
X89571Y160459D01*
X89632Y160567D01*
X89697Y160673D01*
X89765Y160777D01*
X89837Y160878D01*
X89911Y160978D01*
X89989Y161074D01*
X90069Y161169D01*
X90153Y161261D01*
X90239Y161350D01*
X90328Y161436D01*
X90420Y161520D01*
X90515Y161600D01*
X90611Y161678D01*
X90711Y161752D01*
X90812Y161824D01*
X90916Y161892D01*
X91022Y161957D01*
X91130Y162018D01*
X91239Y162076D01*
X91351Y162131D01*
X91464Y162182D01*
X91579Y162230D01*
X91695Y162273D01*
X91812Y162314D01*
X91931Y162350D01*
X92050Y162383D01*
X92171Y162412D01*
X92293Y162437D01*
X92415Y162458D01*
X92538Y162476D01*
X92661Y162489D01*
X92785Y162499D01*
X92909Y162505D01*
X93033Y162507D01*
X96984Y162507D01*
D11*
X151982Y137670D02*
X151982Y134424D01*
X151982Y137670D02*
X151980Y137783D01*
X151974Y137896D01*
X151964Y138009D01*
X151950Y138122D01*
X151933Y138234D01*
X151911Y138345D01*
X151886Y138455D01*
X151856Y138565D01*
X151823Y138673D01*
X151786Y138780D01*
X151746Y138886D01*
X151701Y138990D01*
X151653Y139093D01*
X151602Y139194D01*
X151547Y139293D01*
X151489Y139390D01*
X151427Y139485D01*
X151362Y139578D01*
X151294Y139668D01*
X151223Y139756D01*
X151148Y139842D01*
X151071Y139925D01*
X150991Y140005D01*
X150908Y140082D01*
X150822Y140157D01*
X150734Y140228D01*
X150644Y140296D01*
X150551Y140361D01*
X150456Y140423D01*
X150359Y140481D01*
X150260Y140536D01*
X150159Y140587D01*
X150056Y140635D01*
X149952Y140680D01*
X149846Y140720D01*
X149739Y140757D01*
X149631Y140790D01*
X149521Y140820D01*
X149411Y140845D01*
X149300Y140867D01*
X149188Y140884D01*
X149075Y140898D01*
X148962Y140908D01*
X148849Y140914D01*
X148736Y140916D01*
X148623Y140914D01*
X148510Y140908D01*
X148397Y140898D01*
X148284Y140884D01*
X148172Y140867D01*
X148061Y140845D01*
X147951Y140820D01*
X147841Y140790D01*
X147733Y140757D01*
X147626Y140720D01*
X147520Y140680D01*
X147416Y140635D01*
X147313Y140587D01*
X147212Y140536D01*
X147113Y140481D01*
X147016Y140423D01*
X146921Y140361D01*
X146828Y140296D01*
X146738Y140228D01*
X146650Y140157D01*
X146564Y140082D01*
X146481Y140005D01*
X146401Y139925D01*
X146324Y139842D01*
X146249Y139756D01*
X146178Y139668D01*
X146110Y139578D01*
X146045Y139485D01*
X145983Y139390D01*
X145925Y139293D01*
X145870Y139194D01*
X145819Y139093D01*
X145771Y138990D01*
X145726Y138886D01*
X145686Y138780D01*
X145649Y138673D01*
X145616Y138565D01*
X145586Y138455D01*
X145561Y138345D01*
X145539Y138234D01*
X145522Y138122D01*
X145508Y138009D01*
X145498Y137896D01*
X145492Y137783D01*
X145490Y137670D01*
X140298Y138319D02*
X140298Y134424D01*
X140298Y138319D02*
X140300Y138420D01*
X140306Y138520D01*
X140316Y138620D01*
X140329Y138720D01*
X140347Y138819D01*
X140368Y138918D01*
X140393Y139015D01*
X140422Y139112D01*
X140455Y139207D01*
X140491Y139301D01*
X140531Y139393D01*
X140574Y139484D01*
X140621Y139573D01*
X140671Y139660D01*
X140725Y139746D01*
X140782Y139829D01*
X140842Y139909D01*
X140905Y139988D01*
X140972Y140064D01*
X141041Y140137D01*
X141113Y140207D01*
X141187Y140275D01*
X141264Y140340D01*
X141344Y140401D01*
X141426Y140460D01*
X141510Y140515D01*
X141596Y140567D01*
X141684Y140616D01*
X141774Y140661D01*
X141866Y140703D01*
X141959Y140741D01*
X142054Y140775D01*
X142149Y140806D01*
X142246Y140833D01*
X142344Y140856D01*
X142443Y140876D01*
X142543Y140891D01*
X142643Y140903D01*
X142743Y140911D01*
X142844Y140915D01*
X142944Y140915D01*
X143045Y140911D01*
X143145Y140903D01*
X143245Y140891D01*
X143345Y140876D01*
X143444Y140856D01*
X143542Y140833D01*
X143639Y140806D01*
X143734Y140775D01*
X143829Y140741D01*
X143922Y140703D01*
X144014Y140661D01*
X144104Y140616D01*
X144192Y140567D01*
X144278Y140515D01*
X144362Y140460D01*
X144444Y140401D01*
X144524Y140340D01*
X144601Y140275D01*
X144675Y140207D01*
X144747Y140137D01*
X144816Y140064D01*
X144883Y139988D01*
X144946Y139909D01*
X145006Y139829D01*
X145063Y139746D01*
X145117Y139660D01*
X145167Y139573D01*
X145214Y139484D01*
X145257Y139393D01*
X145297Y139301D01*
X145333Y139207D01*
X145366Y139112D01*
X145395Y139015D01*
X145420Y138918D01*
X145441Y138819D01*
X145459Y138720D01*
X145472Y138620D01*
X145482Y138520D01*
X145488Y138420D01*
X145490Y138319D01*
X145491Y138319D02*
X145491Y135723D01*
X140298Y145205D02*
X151982Y149100D01*
X140298Y152995D01*
X151982Y157284D02*
X151982Y160530D01*
X151980Y160643D01*
X151974Y160756D01*
X151964Y160869D01*
X151950Y160982D01*
X151933Y161094D01*
X151911Y161205D01*
X151886Y161315D01*
X151856Y161425D01*
X151823Y161533D01*
X151786Y161640D01*
X151746Y161746D01*
X151701Y161850D01*
X151653Y161953D01*
X151602Y162054D01*
X151547Y162153D01*
X151489Y162250D01*
X151427Y162345D01*
X151362Y162438D01*
X151294Y162528D01*
X151223Y162616D01*
X151148Y162702D01*
X151071Y162785D01*
X150991Y162865D01*
X150908Y162942D01*
X150822Y163017D01*
X150734Y163088D01*
X150644Y163156D01*
X150551Y163221D01*
X150456Y163283D01*
X150359Y163341D01*
X150260Y163396D01*
X150159Y163447D01*
X150056Y163495D01*
X149952Y163540D01*
X149846Y163580D01*
X149739Y163617D01*
X149631Y163650D01*
X149521Y163680D01*
X149411Y163705D01*
X149300Y163727D01*
X149188Y163744D01*
X149075Y163758D01*
X148962Y163768D01*
X148849Y163774D01*
X148736Y163776D01*
X148623Y163774D01*
X148510Y163768D01*
X148397Y163758D01*
X148284Y163744D01*
X148172Y163727D01*
X148061Y163705D01*
X147951Y163680D01*
X147841Y163650D01*
X147733Y163617D01*
X147626Y163580D01*
X147520Y163540D01*
X147416Y163495D01*
X147313Y163447D01*
X147212Y163396D01*
X147113Y163341D01*
X147016Y163283D01*
X146921Y163221D01*
X146828Y163156D01*
X146738Y163088D01*
X146650Y163017D01*
X146564Y162942D01*
X146481Y162865D01*
X146401Y162785D01*
X146324Y162702D01*
X146249Y162616D01*
X146178Y162528D01*
X146110Y162438D01*
X146045Y162345D01*
X145983Y162250D01*
X145925Y162153D01*
X145870Y162054D01*
X145819Y161953D01*
X145771Y161850D01*
X145726Y161746D01*
X145686Y161640D01*
X145649Y161533D01*
X145616Y161425D01*
X145586Y161315D01*
X145561Y161205D01*
X145539Y161094D01*
X145522Y160982D01*
X145508Y160869D01*
X145498Y160756D01*
X145492Y160643D01*
X145490Y160530D01*
X140298Y161179D02*
X140298Y157284D01*
X140298Y161179D02*
X140300Y161280D01*
X140306Y161380D01*
X140316Y161480D01*
X140329Y161580D01*
X140347Y161679D01*
X140368Y161778D01*
X140393Y161875D01*
X140422Y161972D01*
X140455Y162067D01*
X140491Y162161D01*
X140531Y162253D01*
X140574Y162344D01*
X140621Y162433D01*
X140671Y162520D01*
X140725Y162606D01*
X140782Y162689D01*
X140842Y162769D01*
X140905Y162848D01*
X140972Y162924D01*
X141041Y162997D01*
X141113Y163067D01*
X141187Y163135D01*
X141264Y163200D01*
X141344Y163261D01*
X141426Y163320D01*
X141510Y163375D01*
X141596Y163427D01*
X141684Y163476D01*
X141774Y163521D01*
X141866Y163563D01*
X141959Y163601D01*
X142054Y163635D01*
X142149Y163666D01*
X142246Y163693D01*
X142344Y163716D01*
X142443Y163736D01*
X142543Y163751D01*
X142643Y163763D01*
X142743Y163771D01*
X142844Y163775D01*
X142944Y163775D01*
X143045Y163771D01*
X143145Y163763D01*
X143245Y163751D01*
X143345Y163736D01*
X143444Y163716D01*
X143542Y163693D01*
X143639Y163666D01*
X143734Y163635D01*
X143829Y163601D01*
X143922Y163563D01*
X144014Y163521D01*
X144104Y163476D01*
X144192Y163427D01*
X144278Y163375D01*
X144362Y163320D01*
X144444Y163261D01*
X144524Y163200D01*
X144601Y163135D01*
X144675Y163067D01*
X144747Y162997D01*
X144816Y162924D01*
X144883Y162848D01*
X144946Y162769D01*
X145006Y162689D01*
X145063Y162606D01*
X145117Y162520D01*
X145167Y162433D01*
X145214Y162344D01*
X145257Y162253D01*
X145297Y162161D01*
X145333Y162067D01*
X145366Y161972D01*
X145395Y161875D01*
X145420Y161778D01*
X145441Y161679D01*
X145459Y161580D01*
X145472Y161480D01*
X145482Y161380D01*
X145488Y161280D01*
X145490Y161179D01*
X145491Y161179D02*
X145491Y158583D01*
X66078Y12309D02*
X63419Y10447D01*
X66078Y12308D02*
X66169Y12375D01*
X66259Y12444D01*
X66346Y12517D01*
X66430Y12593D01*
X66511Y12672D01*
X66590Y12753D01*
X66666Y12837D01*
X66739Y12924D01*
X66808Y13014D01*
X66875Y13105D01*
X66938Y13199D01*
X66998Y13295D01*
X67055Y13393D01*
X67108Y13493D01*
X67158Y13595D01*
X67204Y13699D01*
X67246Y13804D01*
X67285Y13910D01*
X67320Y14018D01*
X67351Y14127D01*
X67379Y14237D01*
X67402Y14348D01*
X67422Y14459D01*
X67438Y14571D01*
X67450Y14684D01*
X67458Y14797D01*
X67462Y14910D01*
X67462Y15024D01*
X67458Y15137D01*
X67450Y15250D01*
X67438Y15363D01*
X67422Y15475D01*
X67402Y15586D01*
X67379Y15697D01*
X67351Y15807D01*
X67320Y15916D01*
X67285Y16024D01*
X67246Y16130D01*
X67204Y16235D01*
X67158Y16339D01*
X67108Y16441D01*
X67055Y16541D01*
X66998Y16639D01*
X66938Y16735D01*
X66875Y16829D01*
X66808Y16920D01*
X66739Y17010D01*
X66666Y17097D01*
X66590Y17181D01*
X66511Y17262D01*
X66430Y17341D01*
X66346Y17417D01*
X66259Y17490D01*
X66170Y17559D01*
X66078Y17626D01*
X65984Y17689D01*
X65888Y17749D01*
X65790Y17806D01*
X65690Y17859D01*
X65588Y17909D01*
X65484Y17955D01*
X65379Y17997D01*
X65273Y18036D01*
X65165Y18071D01*
X65056Y18102D01*
X64946Y18130D01*
X64835Y18153D01*
X64724Y18173D01*
X64612Y18189D01*
X64499Y18201D01*
X64386Y18209D01*
X64273Y18213D01*
X64159Y18213D01*
X64046Y18209D01*
X63933Y18201D01*
X63820Y18189D01*
X63708Y18173D01*
X63597Y18153D01*
X63486Y18130D01*
X63376Y18102D01*
X63267Y18071D01*
X63159Y18036D01*
X63053Y17997D01*
X62948Y17955D01*
X62844Y17909D01*
X62742Y17859D01*
X62642Y17806D01*
X62544Y17749D01*
X62448Y17689D01*
X62354Y17626D01*
X59908Y22252D02*
X56718Y20018D01*
X59908Y22252D02*
X59992Y22308D01*
X60077Y22361D01*
X60165Y22410D01*
X60254Y22456D01*
X60346Y22499D01*
X60439Y22538D01*
X60533Y22573D01*
X60628Y22605D01*
X60725Y22633D01*
X60823Y22657D01*
X60921Y22677D01*
X61021Y22694D01*
X61121Y22706D01*
X61221Y22715D01*
X61322Y22720D01*
X61422Y22721D01*
X61523Y22718D01*
X61623Y22711D01*
X61723Y22700D01*
X61823Y22686D01*
X61922Y22667D01*
X62020Y22645D01*
X62117Y22619D01*
X62214Y22589D01*
X62309Y22556D01*
X62402Y22519D01*
X62494Y22478D01*
X62585Y22433D01*
X62673Y22386D01*
X62760Y22334D01*
X62844Y22280D01*
X62927Y22222D01*
X63007Y22161D01*
X63085Y22097D01*
X63160Y22030D01*
X63233Y21961D01*
X63302Y21888D01*
X63369Y21813D01*
X63433Y21735D01*
X63494Y21655D01*
X63552Y21572D01*
X63606Y21488D01*
X63658Y21401D01*
X63705Y21313D01*
X63750Y21222D01*
X63791Y21130D01*
X63828Y21036D01*
X63861Y20942D01*
X63891Y20845D01*
X63917Y20748D01*
X63939Y20650D01*
X63958Y20551D01*
X63972Y20451D01*
X63983Y20351D01*
X63990Y20251D01*
X63993Y20150D01*
X63992Y20050D01*
X63987Y19949D01*
X63978Y19849D01*
X63966Y19749D01*
X63949Y19649D01*
X63929Y19551D01*
X63905Y19453D01*
X63877Y19356D01*
X63845Y19261D01*
X63810Y19167D01*
X63771Y19074D01*
X63728Y18982D01*
X63682Y18893D01*
X63633Y18805D01*
X63580Y18720D01*
X63524Y18636D01*
X63464Y18555D01*
X63402Y18476D01*
X63336Y18399D01*
X63268Y18325D01*
X63197Y18254D01*
X63123Y18186D01*
X63046Y18120D01*
X62967Y18058D01*
X62886Y17998D01*
X60760Y16509D01*
X65549Y26202D02*
X75441Y18864D01*
X71929Y30669D01*
X82145Y23559D02*
X84804Y25420D01*
X84895Y25487D01*
X84985Y25556D01*
X85072Y25629D01*
X85156Y25705D01*
X85237Y25784D01*
X85316Y25865D01*
X85392Y25949D01*
X85465Y26036D01*
X85534Y26126D01*
X85601Y26217D01*
X85664Y26311D01*
X85724Y26407D01*
X85781Y26505D01*
X85834Y26605D01*
X85884Y26707D01*
X85930Y26811D01*
X85972Y26916D01*
X86011Y27022D01*
X86046Y27130D01*
X86077Y27239D01*
X86105Y27349D01*
X86128Y27460D01*
X86148Y27571D01*
X86164Y27683D01*
X86176Y27796D01*
X86184Y27909D01*
X86188Y28022D01*
X86188Y28136D01*
X86184Y28249D01*
X86176Y28362D01*
X86164Y28475D01*
X86148Y28587D01*
X86128Y28698D01*
X86105Y28809D01*
X86077Y28919D01*
X86046Y29028D01*
X86011Y29136D01*
X85972Y29242D01*
X85930Y29347D01*
X85884Y29451D01*
X85834Y29553D01*
X85781Y29653D01*
X85724Y29751D01*
X85664Y29847D01*
X85601Y29941D01*
X85534Y30032D01*
X85465Y30122D01*
X85392Y30209D01*
X85316Y30293D01*
X85237Y30374D01*
X85156Y30453D01*
X85072Y30529D01*
X84985Y30602D01*
X84896Y30671D01*
X84804Y30738D01*
X84710Y30801D01*
X84614Y30861D01*
X84516Y30918D01*
X84416Y30971D01*
X84314Y31021D01*
X84210Y31067D01*
X84105Y31109D01*
X83999Y31148D01*
X83891Y31183D01*
X83782Y31214D01*
X83672Y31242D01*
X83561Y31265D01*
X83450Y31285D01*
X83338Y31301D01*
X83225Y31313D01*
X83112Y31321D01*
X82999Y31325D01*
X82885Y31325D01*
X82772Y31321D01*
X82659Y31313D01*
X82546Y31301D01*
X82434Y31285D01*
X82323Y31265D01*
X82212Y31242D01*
X82102Y31214D01*
X81993Y31183D01*
X81885Y31148D01*
X81779Y31109D01*
X81674Y31067D01*
X81570Y31021D01*
X81468Y30971D01*
X81368Y30918D01*
X81270Y30861D01*
X81174Y30801D01*
X81080Y30738D01*
X78634Y35364D02*
X75443Y33130D01*
X78634Y35364D02*
X78718Y35420D01*
X78803Y35473D01*
X78891Y35522D01*
X78980Y35568D01*
X79072Y35611D01*
X79165Y35650D01*
X79259Y35685D01*
X79354Y35717D01*
X79451Y35745D01*
X79549Y35769D01*
X79647Y35789D01*
X79747Y35806D01*
X79847Y35818D01*
X79947Y35827D01*
X80048Y35832D01*
X80148Y35833D01*
X80249Y35830D01*
X80349Y35823D01*
X80449Y35812D01*
X80549Y35798D01*
X80648Y35779D01*
X80746Y35757D01*
X80843Y35731D01*
X80940Y35701D01*
X81035Y35668D01*
X81128Y35631D01*
X81220Y35590D01*
X81311Y35545D01*
X81399Y35498D01*
X81486Y35446D01*
X81570Y35392D01*
X81653Y35334D01*
X81733Y35273D01*
X81811Y35209D01*
X81886Y35142D01*
X81959Y35073D01*
X82028Y35000D01*
X82095Y34925D01*
X82159Y34847D01*
X82220Y34767D01*
X82278Y34684D01*
X82332Y34600D01*
X82384Y34513D01*
X82431Y34425D01*
X82476Y34334D01*
X82517Y34242D01*
X82554Y34148D01*
X82587Y34054D01*
X82617Y33957D01*
X82643Y33860D01*
X82665Y33762D01*
X82684Y33663D01*
X82698Y33563D01*
X82709Y33463D01*
X82716Y33363D01*
X82719Y33262D01*
X82718Y33162D01*
X82713Y33061D01*
X82704Y32961D01*
X82692Y32861D01*
X82675Y32761D01*
X82655Y32663D01*
X82631Y32565D01*
X82603Y32468D01*
X82571Y32373D01*
X82536Y32279D01*
X82497Y32186D01*
X82454Y32094D01*
X82408Y32005D01*
X82359Y31917D01*
X82306Y31832D01*
X82250Y31748D01*
X82190Y31667D01*
X82128Y31588D01*
X82062Y31511D01*
X81994Y31437D01*
X81923Y31366D01*
X81849Y31298D01*
X81772Y31232D01*
X81693Y31170D01*
X81612Y31110D01*
X79485Y29621D01*
X-85824Y25420D02*
X-88482Y27282D01*
X-85824Y25420D02*
X-85730Y25357D01*
X-85634Y25297D01*
X-85536Y25240D01*
X-85436Y25187D01*
X-85334Y25137D01*
X-85230Y25091D01*
X-85125Y25049D01*
X-85019Y25010D01*
X-84911Y24975D01*
X-84802Y24944D01*
X-84692Y24916D01*
X-84581Y24893D01*
X-84470Y24873D01*
X-84358Y24857D01*
X-84245Y24845D01*
X-84132Y24837D01*
X-84019Y24833D01*
X-83905Y24833D01*
X-83792Y24837D01*
X-83679Y24845D01*
X-83566Y24857D01*
X-83454Y24873D01*
X-83343Y24893D01*
X-83232Y24916D01*
X-83122Y24944D01*
X-83013Y24975D01*
X-82905Y25010D01*
X-82799Y25049D01*
X-82694Y25091D01*
X-82590Y25137D01*
X-82488Y25187D01*
X-82388Y25240D01*
X-82290Y25297D01*
X-82194Y25357D01*
X-82100Y25420D01*
X-82009Y25487D01*
X-81919Y25556D01*
X-81832Y25629D01*
X-81748Y25705D01*
X-81667Y25784D01*
X-81588Y25865D01*
X-81512Y25949D01*
X-81439Y26036D01*
X-81370Y26126D01*
X-81303Y26217D01*
X-81240Y26311D01*
X-81180Y26407D01*
X-81123Y26505D01*
X-81070Y26605D01*
X-81020Y26707D01*
X-80974Y26811D01*
X-80932Y26916D01*
X-80893Y27022D01*
X-80858Y27130D01*
X-80827Y27239D01*
X-80799Y27349D01*
X-80776Y27460D01*
X-80756Y27571D01*
X-80740Y27683D01*
X-80728Y27796D01*
X-80720Y27909D01*
X-80716Y28022D01*
X-80716Y28136D01*
X-80720Y28249D01*
X-80728Y28362D01*
X-80740Y28475D01*
X-80756Y28587D01*
X-80776Y28698D01*
X-80799Y28809D01*
X-80827Y28919D01*
X-80858Y29028D01*
X-80893Y29136D01*
X-80932Y29242D01*
X-80974Y29347D01*
X-81020Y29451D01*
X-81070Y29553D01*
X-81123Y29653D01*
X-81180Y29751D01*
X-81240Y29847D01*
X-81303Y29941D01*
X-81370Y30032D01*
X-81439Y30122D01*
X-81512Y30209D01*
X-81588Y30293D01*
X-81667Y30374D01*
X-81748Y30453D01*
X-81832Y30529D01*
X-81919Y30602D01*
X-82008Y30671D01*
X-82100Y30738D01*
X-78590Y34619D02*
X-81781Y36853D01*
X-78591Y34619D02*
X-78510Y34559D01*
X-78431Y34497D01*
X-78354Y34431D01*
X-78280Y34363D01*
X-78209Y34292D01*
X-78141Y34218D01*
X-78075Y34141D01*
X-78013Y34062D01*
X-77953Y33981D01*
X-77897Y33897D01*
X-77844Y33812D01*
X-77795Y33724D01*
X-77749Y33635D01*
X-77706Y33543D01*
X-77667Y33450D01*
X-77632Y33356D01*
X-77600Y33261D01*
X-77572Y33164D01*
X-77548Y33066D01*
X-77528Y32968D01*
X-77511Y32868D01*
X-77499Y32768D01*
X-77490Y32668D01*
X-77485Y32567D01*
X-77484Y32467D01*
X-77487Y32366D01*
X-77494Y32266D01*
X-77505Y32166D01*
X-77519Y32066D01*
X-77538Y31967D01*
X-77560Y31869D01*
X-77586Y31772D01*
X-77616Y31675D01*
X-77649Y31581D01*
X-77686Y31487D01*
X-77727Y31395D01*
X-77772Y31304D01*
X-77819Y31216D01*
X-77871Y31129D01*
X-77925Y31045D01*
X-77983Y30962D01*
X-78044Y30882D01*
X-78108Y30804D01*
X-78175Y30729D01*
X-78244Y30656D01*
X-78317Y30587D01*
X-78392Y30520D01*
X-78470Y30456D01*
X-78550Y30395D01*
X-78633Y30337D01*
X-78717Y30283D01*
X-78804Y30231D01*
X-78892Y30184D01*
X-78983Y30139D01*
X-79075Y30098D01*
X-79168Y30061D01*
X-79263Y30028D01*
X-79360Y29998D01*
X-79457Y29972D01*
X-79555Y29950D01*
X-79654Y29931D01*
X-79754Y29917D01*
X-79854Y29906D01*
X-79954Y29899D01*
X-80055Y29896D01*
X-80155Y29897D01*
X-80256Y29902D01*
X-80356Y29911D01*
X-80456Y29923D01*
X-80556Y29940D01*
X-80654Y29960D01*
X-80752Y29984D01*
X-80849Y30012D01*
X-80944Y30044D01*
X-81038Y30079D01*
X-81131Y30118D01*
X-81223Y30161D01*
X-81312Y30207D01*
X-81400Y30256D01*
X-81485Y30309D01*
X-81569Y30365D01*
X-83696Y31855D01*
X-72949Y30669D02*
X-76461Y18864D01*
X-66569Y26202D01*
X-69756Y14170D02*
X-67098Y12308D01*
X-67004Y12245D01*
X-66908Y12185D01*
X-66810Y12128D01*
X-66710Y12075D01*
X-66608Y12025D01*
X-66504Y11979D01*
X-66399Y11937D01*
X-66293Y11898D01*
X-66185Y11863D01*
X-66076Y11832D01*
X-65966Y11804D01*
X-65855Y11781D01*
X-65744Y11761D01*
X-65632Y11745D01*
X-65519Y11733D01*
X-65406Y11725D01*
X-65293Y11721D01*
X-65179Y11721D01*
X-65066Y11725D01*
X-64953Y11733D01*
X-64840Y11745D01*
X-64728Y11761D01*
X-64617Y11781D01*
X-64506Y11804D01*
X-64396Y11832D01*
X-64287Y11863D01*
X-64179Y11898D01*
X-64073Y11937D01*
X-63968Y11979D01*
X-63864Y12025D01*
X-63762Y12075D01*
X-63662Y12128D01*
X-63564Y12185D01*
X-63468Y12245D01*
X-63374Y12308D01*
X-63283Y12375D01*
X-63193Y12444D01*
X-63106Y12517D01*
X-63022Y12593D01*
X-62941Y12672D01*
X-62862Y12753D01*
X-62786Y12837D01*
X-62713Y12924D01*
X-62644Y13014D01*
X-62577Y13105D01*
X-62514Y13199D01*
X-62454Y13295D01*
X-62397Y13393D01*
X-62344Y13493D01*
X-62294Y13595D01*
X-62248Y13699D01*
X-62206Y13804D01*
X-62167Y13910D01*
X-62132Y14018D01*
X-62101Y14127D01*
X-62073Y14237D01*
X-62050Y14348D01*
X-62030Y14459D01*
X-62014Y14571D01*
X-62002Y14684D01*
X-61994Y14797D01*
X-61990Y14910D01*
X-61990Y15024D01*
X-61994Y15137D01*
X-62002Y15250D01*
X-62014Y15363D01*
X-62030Y15475D01*
X-62050Y15586D01*
X-62073Y15697D01*
X-62101Y15807D01*
X-62132Y15916D01*
X-62167Y16024D01*
X-62206Y16130D01*
X-62248Y16235D01*
X-62294Y16339D01*
X-62344Y16441D01*
X-62397Y16541D01*
X-62454Y16639D01*
X-62514Y16735D01*
X-62577Y16829D01*
X-62644Y16920D01*
X-62713Y17010D01*
X-62786Y17097D01*
X-62862Y17181D01*
X-62941Y17262D01*
X-63022Y17341D01*
X-63106Y17417D01*
X-63193Y17490D01*
X-63282Y17559D01*
X-63374Y17626D01*
X-59864Y21507D02*
X-63055Y23741D01*
X-59865Y21507D02*
X-59784Y21447D01*
X-59705Y21385D01*
X-59628Y21319D01*
X-59554Y21251D01*
X-59483Y21180D01*
X-59415Y21106D01*
X-59349Y21029D01*
X-59287Y20950D01*
X-59227Y20869D01*
X-59171Y20785D01*
X-59118Y20700D01*
X-59069Y20612D01*
X-59023Y20523D01*
X-58980Y20431D01*
X-58941Y20338D01*
X-58906Y20244D01*
X-58874Y20149D01*
X-58846Y20052D01*
X-58822Y19954D01*
X-58802Y19856D01*
X-58785Y19756D01*
X-58773Y19656D01*
X-58764Y19556D01*
X-58759Y19455D01*
X-58758Y19355D01*
X-58761Y19254D01*
X-58768Y19154D01*
X-58779Y19054D01*
X-58793Y18954D01*
X-58812Y18855D01*
X-58834Y18757D01*
X-58860Y18660D01*
X-58890Y18563D01*
X-58923Y18469D01*
X-58960Y18375D01*
X-59001Y18283D01*
X-59046Y18192D01*
X-59093Y18104D01*
X-59145Y18017D01*
X-59199Y17933D01*
X-59257Y17850D01*
X-59318Y17770D01*
X-59382Y17692D01*
X-59449Y17617D01*
X-59518Y17544D01*
X-59591Y17475D01*
X-59666Y17408D01*
X-59744Y17344D01*
X-59824Y17283D01*
X-59907Y17225D01*
X-59991Y17171D01*
X-60078Y17119D01*
X-60166Y17072D01*
X-60257Y17027D01*
X-60349Y16986D01*
X-60442Y16949D01*
X-60537Y16916D01*
X-60634Y16886D01*
X-60731Y16860D01*
X-60829Y16838D01*
X-60928Y16819D01*
X-61028Y16805D01*
X-61128Y16794D01*
X-61228Y16787D01*
X-61329Y16784D01*
X-61429Y16785D01*
X-61530Y16790D01*
X-61630Y16799D01*
X-61730Y16811D01*
X-61830Y16828D01*
X-61928Y16848D01*
X-62026Y16872D01*
X-62123Y16900D01*
X-62218Y16932D01*
X-62312Y16967D01*
X-62405Y17006D01*
X-62497Y17049D01*
X-62586Y17095D01*
X-62674Y17144D01*
X-62759Y17197D01*
X-62843Y17253D01*
X-64970Y18743D01*
X-158815Y128626D02*
X-160438Y131437D01*
X-158815Y128626D02*
X-158757Y128529D01*
X-158695Y128434D01*
X-158630Y128341D01*
X-158562Y128251D01*
X-158491Y128163D01*
X-158416Y128077D01*
X-158339Y127994D01*
X-158259Y127914D01*
X-158176Y127837D01*
X-158090Y127762D01*
X-158002Y127691D01*
X-157912Y127623D01*
X-157819Y127558D01*
X-157724Y127496D01*
X-157627Y127438D01*
X-157528Y127383D01*
X-157427Y127332D01*
X-157324Y127284D01*
X-157220Y127239D01*
X-157114Y127199D01*
X-157007Y127162D01*
X-156899Y127129D01*
X-156789Y127099D01*
X-156679Y127074D01*
X-156568Y127052D01*
X-156456Y127035D01*
X-156343Y127021D01*
X-156230Y127011D01*
X-156117Y127005D01*
X-156004Y127003D01*
X-155891Y127005D01*
X-155778Y127011D01*
X-155665Y127021D01*
X-155552Y127035D01*
X-155440Y127052D01*
X-155329Y127074D01*
X-155219Y127099D01*
X-155109Y127129D01*
X-155001Y127162D01*
X-154894Y127199D01*
X-154788Y127239D01*
X-154684Y127284D01*
X-154581Y127332D01*
X-154480Y127383D01*
X-154381Y127438D01*
X-154284Y127496D01*
X-154189Y127558D01*
X-154096Y127623D01*
X-154006Y127691D01*
X-153918Y127762D01*
X-153832Y127837D01*
X-153749Y127914D01*
X-153669Y127994D01*
X-153592Y128077D01*
X-153517Y128163D01*
X-153446Y128251D01*
X-153378Y128341D01*
X-153313Y128434D01*
X-153251Y128529D01*
X-153193Y128626D01*
X-153138Y128725D01*
X-153087Y128826D01*
X-153039Y128929D01*
X-152994Y129033D01*
X-152954Y129139D01*
X-152917Y129246D01*
X-152884Y129354D01*
X-152854Y129464D01*
X-152829Y129574D01*
X-152807Y129685D01*
X-152790Y129797D01*
X-152776Y129910D01*
X-152766Y130023D01*
X-152760Y130136D01*
X-152758Y130249D01*
X-152760Y130362D01*
X-152766Y130475D01*
X-152776Y130588D01*
X-152790Y130701D01*
X-152807Y130813D01*
X-152829Y130924D01*
X-152854Y131034D01*
X-152884Y131144D01*
X-152917Y131252D01*
X-152954Y131359D01*
X-152994Y131465D01*
X-153039Y131569D01*
X-153087Y131672D01*
X-153138Y131773D01*
X-153193Y131872D01*
X-148372Y133906D02*
X-150319Y137279D01*
X-148372Y133906D02*
X-148323Y133818D01*
X-148278Y133728D01*
X-148236Y133636D01*
X-148198Y133543D01*
X-148164Y133448D01*
X-148133Y133353D01*
X-148106Y133256D01*
X-148083Y133158D01*
X-148063Y133059D01*
X-148048Y132959D01*
X-148036Y132859D01*
X-148028Y132759D01*
X-148024Y132658D01*
X-148024Y132558D01*
X-148028Y132457D01*
X-148036Y132357D01*
X-148048Y132257D01*
X-148063Y132157D01*
X-148083Y132058D01*
X-148106Y131960D01*
X-148133Y131863D01*
X-148164Y131768D01*
X-148198Y131673D01*
X-148236Y131580D01*
X-148278Y131488D01*
X-148323Y131398D01*
X-148372Y131310D01*
X-148424Y131224D01*
X-148479Y131140D01*
X-148538Y131058D01*
X-148599Y130978D01*
X-148664Y130901D01*
X-148732Y130827D01*
X-148802Y130755D01*
X-148875Y130686D01*
X-148951Y130619D01*
X-149030Y130556D01*
X-149110Y130496D01*
X-149193Y130439D01*
X-149279Y130385D01*
X-149366Y130335D01*
X-149455Y130288D01*
X-149546Y130245D01*
X-149638Y130205D01*
X-149732Y130169D01*
X-149827Y130136D01*
X-149924Y130107D01*
X-150021Y130082D01*
X-150120Y130061D01*
X-150219Y130043D01*
X-150319Y130030D01*
X-150419Y130020D01*
X-150519Y130014D01*
X-150620Y130012D01*
X-150721Y130014D01*
X-150821Y130020D01*
X-150921Y130030D01*
X-151021Y130043D01*
X-151120Y130061D01*
X-151219Y130082D01*
X-151316Y130107D01*
X-151413Y130136D01*
X-151508Y130169D01*
X-151602Y130205D01*
X-151694Y130245D01*
X-151785Y130288D01*
X-151874Y130335D01*
X-151961Y130385D01*
X-152047Y130439D01*
X-152130Y130496D01*
X-152210Y130556D01*
X-152289Y130619D01*
X-152365Y130686D01*
X-152438Y130755D01*
X-152508Y130827D01*
X-152576Y130901D01*
X-152641Y130978D01*
X-152702Y131058D01*
X-152761Y131140D01*
X-152816Y131224D01*
X-152868Y131310D01*
X-152869Y131309D02*
X-154167Y133558D01*
X-144928Y127942D02*
X-153100Y118727D01*
X-141034Y121196D01*
X-149008Y111639D02*
X-147385Y108829D01*
X-147385Y108828D02*
X-147327Y108731D01*
X-147265Y108636D01*
X-147200Y108543D01*
X-147132Y108453D01*
X-147061Y108365D01*
X-146986Y108279D01*
X-146909Y108196D01*
X-146829Y108116D01*
X-146746Y108039D01*
X-146660Y107964D01*
X-146572Y107893D01*
X-146482Y107825D01*
X-146389Y107760D01*
X-146294Y107698D01*
X-146197Y107640D01*
X-146098Y107585D01*
X-145997Y107534D01*
X-145894Y107486D01*
X-145790Y107441D01*
X-145684Y107401D01*
X-145577Y107364D01*
X-145469Y107331D01*
X-145359Y107301D01*
X-145249Y107276D01*
X-145138Y107254D01*
X-145026Y107237D01*
X-144913Y107223D01*
X-144800Y107213D01*
X-144687Y107207D01*
X-144574Y107205D01*
X-144461Y107207D01*
X-144348Y107213D01*
X-144235Y107223D01*
X-144122Y107237D01*
X-144010Y107254D01*
X-143899Y107276D01*
X-143789Y107301D01*
X-143679Y107331D01*
X-143571Y107364D01*
X-143464Y107401D01*
X-143358Y107441D01*
X-143254Y107486D01*
X-143151Y107534D01*
X-143050Y107585D01*
X-142951Y107640D01*
X-142854Y107698D01*
X-142759Y107760D01*
X-142666Y107825D01*
X-142576Y107893D01*
X-142488Y107964D01*
X-142402Y108039D01*
X-142319Y108116D01*
X-142239Y108196D01*
X-142162Y108279D01*
X-142087Y108365D01*
X-142016Y108453D01*
X-141948Y108543D01*
X-141883Y108636D01*
X-141821Y108731D01*
X-141763Y108828D01*
X-141708Y108927D01*
X-141657Y109028D01*
X-141609Y109131D01*
X-141564Y109235D01*
X-141524Y109341D01*
X-141487Y109448D01*
X-141454Y109556D01*
X-141424Y109666D01*
X-141399Y109776D01*
X-141377Y109887D01*
X-141360Y109999D01*
X-141346Y110112D01*
X-141336Y110225D01*
X-141330Y110338D01*
X-141328Y110451D01*
X-141330Y110564D01*
X-141336Y110677D01*
X-141346Y110790D01*
X-141360Y110903D01*
X-141377Y111015D01*
X-141399Y111126D01*
X-141424Y111236D01*
X-141454Y111346D01*
X-141487Y111454D01*
X-141524Y111561D01*
X-141564Y111667D01*
X-141609Y111771D01*
X-141657Y111874D01*
X-141708Y111975D01*
X-141763Y112074D01*
X-136942Y114108D02*
X-138889Y117481D01*
X-136942Y114108D02*
X-136893Y114020D01*
X-136848Y113930D01*
X-136806Y113838D01*
X-136768Y113745D01*
X-136734Y113650D01*
X-136703Y113555D01*
X-136676Y113458D01*
X-136653Y113360D01*
X-136633Y113261D01*
X-136618Y113161D01*
X-136606Y113061D01*
X-136598Y112961D01*
X-136594Y112860D01*
X-136594Y112760D01*
X-136598Y112659D01*
X-136606Y112559D01*
X-136618Y112459D01*
X-136633Y112359D01*
X-136653Y112260D01*
X-136676Y112162D01*
X-136703Y112065D01*
X-136734Y111970D01*
X-136768Y111875D01*
X-136806Y111782D01*
X-136848Y111690D01*
X-136893Y111600D01*
X-136942Y111512D01*
X-136994Y111426D01*
X-137049Y111342D01*
X-137108Y111260D01*
X-137169Y111180D01*
X-137234Y111103D01*
X-137302Y111029D01*
X-137372Y110957D01*
X-137445Y110888D01*
X-137521Y110821D01*
X-137600Y110758D01*
X-137680Y110698D01*
X-137763Y110641D01*
X-137849Y110587D01*
X-137936Y110537D01*
X-138025Y110490D01*
X-138116Y110447D01*
X-138208Y110407D01*
X-138302Y110371D01*
X-138397Y110338D01*
X-138494Y110309D01*
X-138591Y110284D01*
X-138690Y110263D01*
X-138789Y110245D01*
X-138889Y110232D01*
X-138989Y110222D01*
X-139089Y110216D01*
X-139190Y110214D01*
X-139291Y110216D01*
X-139391Y110222D01*
X-139491Y110232D01*
X-139591Y110245D01*
X-139690Y110263D01*
X-139789Y110284D01*
X-139886Y110309D01*
X-139983Y110338D01*
X-140078Y110371D01*
X-140172Y110407D01*
X-140264Y110447D01*
X-140355Y110490D01*
X-140444Y110537D01*
X-140531Y110587D01*
X-140617Y110641D01*
X-140700Y110698D01*
X-140780Y110758D01*
X-140859Y110821D01*
X-140935Y110888D01*
X-141008Y110957D01*
X-141078Y111029D01*
X-141146Y111103D01*
X-141211Y111180D01*
X-141272Y111260D01*
X-141331Y111342D01*
X-141386Y111426D01*
X-141438Y111512D01*
X-141439Y111512D02*
X-142737Y113761D01*
D10*
X89111Y205437D02*
X89111Y223217D01*
X94050Y223217D01*
X94190Y223215D01*
X94329Y223209D01*
X94469Y223199D01*
X94608Y223185D01*
X94747Y223168D01*
X94885Y223146D01*
X95022Y223120D01*
X95159Y223091D01*
X95295Y223058D01*
X95429Y223021D01*
X95563Y222980D01*
X95695Y222935D01*
X95827Y222886D01*
X95956Y222834D01*
X96084Y222779D01*
X96211Y222719D01*
X96336Y222656D01*
X96459Y222590D01*
X96580Y222520D01*
X96699Y222447D01*
X96816Y222370D01*
X96930Y222290D01*
X97043Y222207D01*
X97153Y222121D01*
X97260Y222031D01*
X97365Y221939D01*
X97467Y221844D01*
X97567Y221746D01*
X97664Y221645D01*
X97758Y221541D01*
X97848Y221435D01*
X97936Y221326D01*
X98021Y221215D01*
X98102Y221101D01*
X98181Y220986D01*
X98256Y220868D01*
X98327Y220748D01*
X98395Y220625D01*
X98460Y220502D01*
X98521Y220376D01*
X98579Y220248D01*
X98633Y220120D01*
X98683Y219989D01*
X98730Y219857D01*
X98773Y219724D01*
X98812Y219590D01*
X98847Y219455D01*
X98878Y219319D01*
X98906Y219181D01*
X98929Y219044D01*
X98949Y218905D01*
X98965Y218766D01*
X98977Y218627D01*
X98985Y218488D01*
X98989Y218348D01*
X98989Y218208D01*
X98985Y218068D01*
X98977Y217929D01*
X98965Y217790D01*
X98949Y217651D01*
X98929Y217512D01*
X98906Y217375D01*
X98878Y217237D01*
X98847Y217101D01*
X98812Y216966D01*
X98773Y216832D01*
X98730Y216699D01*
X98683Y216567D01*
X98633Y216436D01*
X98579Y216308D01*
X98521Y216180D01*
X98460Y216054D01*
X98395Y215931D01*
X98327Y215809D01*
X98256Y215688D01*
X98181Y215570D01*
X98102Y215455D01*
X98021Y215341D01*
X97936Y215230D01*
X97848Y215121D01*
X97758Y215015D01*
X97664Y214911D01*
X97567Y214810D01*
X97467Y214712D01*
X97365Y214617D01*
X97260Y214525D01*
X97153Y214435D01*
X97043Y214349D01*
X96930Y214266D01*
X96816Y214186D01*
X96699Y214109D01*
X96580Y214036D01*
X96459Y213966D01*
X96336Y213900D01*
X96211Y213837D01*
X96084Y213777D01*
X95956Y213722D01*
X95827Y213670D01*
X95695Y213621D01*
X95563Y213576D01*
X95429Y213535D01*
X95295Y213498D01*
X95159Y213465D01*
X95022Y213436D01*
X94885Y213410D01*
X94747Y213388D01*
X94608Y213371D01*
X94469Y213357D01*
X94329Y213347D01*
X94190Y213341D01*
X94050Y213339D01*
X89111Y213339D01*
X105106Y219266D02*
X110045Y223217D01*
X110045Y205437D01*
X105106Y205437D02*
X114984Y205437D01*
X73796Y105260D02*
X73796Y87480D01*
X73796Y105260D02*
X78735Y105260D01*
X78875Y105258D01*
X79014Y105252D01*
X79154Y105242D01*
X79293Y105228D01*
X79432Y105211D01*
X79570Y105189D01*
X79707Y105163D01*
X79844Y105134D01*
X79980Y105101D01*
X80114Y105064D01*
X80248Y105023D01*
X80380Y104978D01*
X80512Y104929D01*
X80641Y104877D01*
X80769Y104822D01*
X80896Y104762D01*
X81021Y104699D01*
X81144Y104633D01*
X81265Y104563D01*
X81384Y104490D01*
X81501Y104413D01*
X81615Y104333D01*
X81728Y104250D01*
X81838Y104164D01*
X81945Y104074D01*
X82050Y103982D01*
X82152Y103887D01*
X82252Y103789D01*
X82349Y103688D01*
X82443Y103584D01*
X82533Y103478D01*
X82621Y103369D01*
X82706Y103258D01*
X82787Y103144D01*
X82866Y103029D01*
X82941Y102911D01*
X83012Y102791D01*
X83080Y102668D01*
X83145Y102545D01*
X83206Y102419D01*
X83264Y102291D01*
X83318Y102163D01*
X83368Y102032D01*
X83415Y101900D01*
X83458Y101767D01*
X83497Y101633D01*
X83532Y101498D01*
X83563Y101362D01*
X83591Y101224D01*
X83614Y101087D01*
X83634Y100948D01*
X83650Y100809D01*
X83662Y100670D01*
X83670Y100531D01*
X83674Y100391D01*
X83674Y100251D01*
X83670Y100111D01*
X83662Y99972D01*
X83650Y99833D01*
X83634Y99694D01*
X83614Y99555D01*
X83591Y99418D01*
X83563Y99280D01*
X83532Y99144D01*
X83497Y99009D01*
X83458Y98875D01*
X83415Y98742D01*
X83368Y98610D01*
X83318Y98479D01*
X83264Y98351D01*
X83206Y98223D01*
X83145Y98097D01*
X83080Y97974D01*
X83012Y97852D01*
X82941Y97731D01*
X82866Y97613D01*
X82787Y97498D01*
X82706Y97384D01*
X82621Y97273D01*
X82533Y97164D01*
X82443Y97058D01*
X82349Y96954D01*
X82252Y96853D01*
X82152Y96755D01*
X82050Y96660D01*
X81945Y96568D01*
X81838Y96478D01*
X81728Y96392D01*
X81615Y96309D01*
X81501Y96229D01*
X81384Y96152D01*
X81265Y96079D01*
X81144Y96009D01*
X81021Y95943D01*
X80896Y95880D01*
X80769Y95820D01*
X80641Y95765D01*
X80512Y95713D01*
X80380Y95664D01*
X80248Y95619D01*
X80114Y95578D01*
X79980Y95541D01*
X79844Y95508D01*
X79707Y95479D01*
X79570Y95453D01*
X79432Y95431D01*
X79293Y95414D01*
X79154Y95400D01*
X79014Y95390D01*
X78875Y95384D01*
X78735Y95382D01*
X73796Y95382D01*
X95224Y105260D02*
X95356Y105258D01*
X95487Y105252D01*
X95619Y105242D01*
X95750Y105229D01*
X95880Y105211D01*
X96010Y105190D01*
X96140Y105165D01*
X96268Y105136D01*
X96396Y105103D01*
X96522Y105066D01*
X96648Y105026D01*
X96772Y104982D01*
X96895Y104934D01*
X97016Y104883D01*
X97136Y104828D01*
X97254Y104770D01*
X97370Y104708D01*
X97484Y104642D01*
X97597Y104574D01*
X97707Y104502D01*
X97815Y104427D01*
X97921Y104348D01*
X98025Y104267D01*
X98126Y104182D01*
X98224Y104095D01*
X98320Y104004D01*
X98413Y103911D01*
X98504Y103815D01*
X98591Y103717D01*
X98676Y103616D01*
X98757Y103512D01*
X98836Y103406D01*
X98911Y103298D01*
X98983Y103188D01*
X99051Y103075D01*
X99117Y102961D01*
X99179Y102845D01*
X99237Y102727D01*
X99292Y102607D01*
X99343Y102486D01*
X99391Y102363D01*
X99435Y102239D01*
X99475Y102113D01*
X99512Y101987D01*
X99545Y101859D01*
X99574Y101731D01*
X99599Y101601D01*
X99620Y101471D01*
X99638Y101341D01*
X99651Y101210D01*
X99661Y101078D01*
X99667Y100947D01*
X99669Y100815D01*
X95224Y105261D02*
X95074Y105259D01*
X94925Y105253D01*
X94776Y105243D01*
X94627Y105230D01*
X94478Y105212D01*
X94330Y105191D01*
X94182Y105165D01*
X94036Y105136D01*
X93890Y105103D01*
X93745Y105066D01*
X93601Y105025D01*
X93458Y104981D01*
X93316Y104933D01*
X93176Y104881D01*
X93037Y104826D01*
X92899Y104767D01*
X92764Y104704D01*
X92629Y104638D01*
X92497Y104568D01*
X92367Y104495D01*
X92238Y104418D01*
X92111Y104338D01*
X91987Y104255D01*
X91865Y104169D01*
X91745Y104079D01*
X91628Y103986D01*
X91513Y103891D01*
X91400Y103792D01*
X91290Y103690D01*
X91183Y103586D01*
X91079Y103479D01*
X90977Y103369D01*
X90879Y103256D01*
X90783Y103141D01*
X90691Y103023D01*
X90601Y102903D01*
X90515Y102781D01*
X90432Y102657D01*
X90352Y102530D01*
X90276Y102402D01*
X90203Y102271D01*
X90133Y102138D01*
X90067Y102004D01*
X90005Y101868D01*
X89946Y101731D01*
X89890Y101592D01*
X89839Y101451D01*
X89791Y101310D01*
X98187Y97358D02*
X98283Y97451D01*
X98375Y97547D01*
X98465Y97646D01*
X98552Y97747D01*
X98637Y97850D01*
X98718Y97955D01*
X98796Y98063D01*
X98871Y98173D01*
X98944Y98285D01*
X99013Y98399D01*
X99079Y98515D01*
X99141Y98633D01*
X99200Y98752D01*
X99256Y98873D01*
X99309Y98996D01*
X99358Y99120D01*
X99403Y99245D01*
X99446Y99372D01*
X99484Y99499D01*
X99519Y99628D01*
X99550Y99757D01*
X99578Y99888D01*
X99602Y100019D01*
X99623Y100151D01*
X99639Y100283D01*
X99652Y100416D01*
X99662Y100549D01*
X99667Y100682D01*
X99669Y100815D01*
X98188Y97358D02*
X89791Y87480D01*
X99669Y87480D01*
X112039Y94395D02*
X112039Y100321D01*
X112039Y94395D02*
X115496Y89950D01*
X112039Y94395D02*
X108582Y89950D01*
X112039Y94395D02*
X117472Y96370D01*
X112039Y94395D02*
X106606Y96370D01*
X-13446Y36640D02*
X-13446Y18860D01*
X-13446Y36640D02*
X-8508Y36640D01*
X-8368Y36638D01*
X-8229Y36632D01*
X-8089Y36622D01*
X-7950Y36608D01*
X-7811Y36591D01*
X-7673Y36569D01*
X-7536Y36543D01*
X-7399Y36514D01*
X-7263Y36481D01*
X-7129Y36444D01*
X-6995Y36403D01*
X-6863Y36358D01*
X-6731Y36309D01*
X-6602Y36257D01*
X-6474Y36202D01*
X-6347Y36142D01*
X-6222Y36079D01*
X-6099Y36013D01*
X-5978Y35943D01*
X-5859Y35870D01*
X-5742Y35793D01*
X-5628Y35713D01*
X-5515Y35630D01*
X-5405Y35544D01*
X-5298Y35454D01*
X-5193Y35362D01*
X-5091Y35267D01*
X-4991Y35169D01*
X-4894Y35068D01*
X-4800Y34964D01*
X-4710Y34858D01*
X-4622Y34749D01*
X-4537Y34638D01*
X-4456Y34524D01*
X-4377Y34409D01*
X-4302Y34291D01*
X-4231Y34171D01*
X-4163Y34048D01*
X-4098Y33925D01*
X-4037Y33799D01*
X-3979Y33671D01*
X-3925Y33543D01*
X-3875Y33412D01*
X-3828Y33280D01*
X-3785Y33147D01*
X-3746Y33013D01*
X-3711Y32878D01*
X-3680Y32742D01*
X-3652Y32604D01*
X-3629Y32467D01*
X-3609Y32328D01*
X-3593Y32189D01*
X-3581Y32050D01*
X-3573Y31911D01*
X-3569Y31771D01*
X-3569Y31631D01*
X-3573Y31491D01*
X-3581Y31352D01*
X-3593Y31213D01*
X-3609Y31074D01*
X-3629Y30935D01*
X-3652Y30798D01*
X-3680Y30660D01*
X-3711Y30524D01*
X-3746Y30389D01*
X-3785Y30255D01*
X-3828Y30122D01*
X-3875Y29990D01*
X-3925Y29859D01*
X-3979Y29731D01*
X-4037Y29603D01*
X-4098Y29477D01*
X-4163Y29354D01*
X-4231Y29232D01*
X-4302Y29111D01*
X-4377Y28993D01*
X-4456Y28878D01*
X-4537Y28764D01*
X-4622Y28653D01*
X-4710Y28544D01*
X-4800Y28438D01*
X-4894Y28334D01*
X-4991Y28233D01*
X-5091Y28135D01*
X-5193Y28040D01*
X-5298Y27948D01*
X-5405Y27858D01*
X-5515Y27772D01*
X-5628Y27689D01*
X-5742Y27609D01*
X-5859Y27532D01*
X-5978Y27459D01*
X-6099Y27389D01*
X-6222Y27323D01*
X-6347Y27260D01*
X-6474Y27200D01*
X-6602Y27145D01*
X-6731Y27093D01*
X-6863Y27044D01*
X-6995Y26999D01*
X-7129Y26958D01*
X-7263Y26921D01*
X-7399Y26888D01*
X-7536Y26859D01*
X-7673Y26833D01*
X-7811Y26811D01*
X-7950Y26794D01*
X-8089Y26780D01*
X-8229Y26770D01*
X-8368Y26764D01*
X-8508Y26762D01*
X-13446Y26762D01*
X2549Y18860D02*
X7488Y18860D01*
X7628Y18862D01*
X7767Y18868D01*
X7907Y18878D01*
X8046Y18892D01*
X8185Y18909D01*
X8323Y18931D01*
X8460Y18957D01*
X8597Y18986D01*
X8733Y19019D01*
X8867Y19056D01*
X9001Y19097D01*
X9133Y19142D01*
X9265Y19191D01*
X9394Y19243D01*
X9522Y19298D01*
X9649Y19358D01*
X9774Y19421D01*
X9897Y19487D01*
X10018Y19557D01*
X10137Y19630D01*
X10254Y19707D01*
X10368Y19787D01*
X10481Y19870D01*
X10591Y19956D01*
X10698Y20046D01*
X10803Y20138D01*
X10905Y20233D01*
X11005Y20331D01*
X11102Y20432D01*
X11196Y20536D01*
X11286Y20642D01*
X11374Y20751D01*
X11459Y20862D01*
X11540Y20976D01*
X11619Y21091D01*
X11694Y21209D01*
X11765Y21330D01*
X11833Y21452D01*
X11898Y21575D01*
X11959Y21701D01*
X12017Y21829D01*
X12071Y21957D01*
X12121Y22088D01*
X12168Y22220D01*
X12211Y22353D01*
X12250Y22487D01*
X12285Y22622D01*
X12316Y22758D01*
X12344Y22896D01*
X12367Y23033D01*
X12387Y23172D01*
X12403Y23311D01*
X12415Y23450D01*
X12423Y23589D01*
X12427Y23729D01*
X12427Y23869D01*
X12423Y24009D01*
X12415Y24148D01*
X12403Y24287D01*
X12387Y24426D01*
X12367Y24565D01*
X12344Y24702D01*
X12316Y24840D01*
X12285Y24976D01*
X12250Y25111D01*
X12211Y25245D01*
X12168Y25378D01*
X12121Y25510D01*
X12071Y25641D01*
X12017Y25769D01*
X11959Y25897D01*
X11898Y26023D01*
X11833Y26146D01*
X11765Y26269D01*
X11694Y26389D01*
X11619Y26507D01*
X11540Y26622D01*
X11459Y26736D01*
X11374Y26847D01*
X11286Y26956D01*
X11196Y27062D01*
X11102Y27166D01*
X11005Y27267D01*
X10905Y27365D01*
X10803Y27460D01*
X10698Y27552D01*
X10591Y27642D01*
X10481Y27728D01*
X10368Y27811D01*
X10254Y27891D01*
X10137Y27968D01*
X10018Y28041D01*
X9897Y28111D01*
X9774Y28177D01*
X9649Y28240D01*
X9522Y28300D01*
X9394Y28355D01*
X9265Y28407D01*
X9133Y28456D01*
X9001Y28501D01*
X8867Y28542D01*
X8733Y28579D01*
X8597Y28612D01*
X8460Y28641D01*
X8323Y28667D01*
X8185Y28689D01*
X8046Y28706D01*
X7907Y28720D01*
X7767Y28730D01*
X7628Y28736D01*
X7488Y28738D01*
X8475Y36640D02*
X2549Y36640D01*
X8475Y36640D02*
X8599Y36638D01*
X8723Y36632D01*
X8847Y36622D01*
X8970Y36609D01*
X9093Y36591D01*
X9215Y36570D01*
X9337Y36545D01*
X9458Y36516D01*
X9577Y36483D01*
X9696Y36447D01*
X9813Y36406D01*
X9929Y36363D01*
X10044Y36315D01*
X10157Y36264D01*
X10269Y36209D01*
X10378Y36151D01*
X10486Y36090D01*
X10592Y36025D01*
X10696Y35957D01*
X10797Y35885D01*
X10897Y35811D01*
X10993Y35733D01*
X11088Y35653D01*
X11180Y35569D01*
X11269Y35483D01*
X11355Y35394D01*
X11439Y35302D01*
X11519Y35207D01*
X11597Y35111D01*
X11671Y35011D01*
X11743Y34910D01*
X11811Y34806D01*
X11876Y34700D01*
X11937Y34592D01*
X11995Y34483D01*
X12050Y34371D01*
X12101Y34258D01*
X12149Y34143D01*
X12192Y34027D01*
X12233Y33910D01*
X12269Y33791D01*
X12302Y33672D01*
X12331Y33551D01*
X12356Y33429D01*
X12377Y33307D01*
X12395Y33184D01*
X12408Y33061D01*
X12418Y32937D01*
X12424Y32813D01*
X12426Y32689D01*
X12424Y32565D01*
X12418Y32441D01*
X12408Y32317D01*
X12395Y32194D01*
X12377Y32071D01*
X12356Y31949D01*
X12331Y31827D01*
X12302Y31706D01*
X12269Y31587D01*
X12233Y31468D01*
X12192Y31351D01*
X12149Y31235D01*
X12101Y31120D01*
X12050Y31007D01*
X11995Y30895D01*
X11937Y30786D01*
X11876Y30678D01*
X11811Y30572D01*
X11743Y30468D01*
X11671Y30367D01*
X11597Y30267D01*
X11519Y30171D01*
X11439Y30076D01*
X11355Y29984D01*
X11269Y29895D01*
X11180Y29809D01*
X11088Y29725D01*
X10993Y29645D01*
X10897Y29567D01*
X10797Y29493D01*
X10696Y29421D01*
X10592Y29353D01*
X10486Y29288D01*
X10378Y29227D01*
X10269Y29169D01*
X10157Y29114D01*
X10044Y29063D01*
X9929Y29015D01*
X9813Y28972D01*
X9696Y28931D01*
X9577Y28895D01*
X9458Y28862D01*
X9337Y28833D01*
X9215Y28808D01*
X9093Y28787D01*
X8970Y28769D01*
X8847Y28756D01*
X8723Y28746D01*
X8599Y28740D01*
X8475Y28738D01*
X4524Y28738D01*
X-111623Y81849D02*
X-111623Y99629D01*
X-106684Y99629D01*
X-106544Y99627D01*
X-106405Y99621D01*
X-106265Y99611D01*
X-106126Y99597D01*
X-105987Y99580D01*
X-105849Y99558D01*
X-105712Y99532D01*
X-105575Y99503D01*
X-105439Y99470D01*
X-105305Y99433D01*
X-105171Y99392D01*
X-105039Y99347D01*
X-104907Y99298D01*
X-104778Y99246D01*
X-104650Y99191D01*
X-104523Y99131D01*
X-104398Y99068D01*
X-104275Y99002D01*
X-104154Y98932D01*
X-104035Y98859D01*
X-103918Y98782D01*
X-103804Y98702D01*
X-103691Y98619D01*
X-103581Y98533D01*
X-103474Y98443D01*
X-103369Y98351D01*
X-103267Y98256D01*
X-103167Y98158D01*
X-103070Y98057D01*
X-102976Y97953D01*
X-102886Y97847D01*
X-102798Y97738D01*
X-102713Y97627D01*
X-102632Y97513D01*
X-102553Y97398D01*
X-102478Y97280D01*
X-102407Y97160D01*
X-102339Y97037D01*
X-102274Y96914D01*
X-102213Y96788D01*
X-102155Y96660D01*
X-102101Y96532D01*
X-102051Y96401D01*
X-102004Y96269D01*
X-101961Y96136D01*
X-101922Y96002D01*
X-101887Y95867D01*
X-101856Y95731D01*
X-101828Y95593D01*
X-101805Y95456D01*
X-101785Y95317D01*
X-101769Y95178D01*
X-101757Y95039D01*
X-101749Y94900D01*
X-101745Y94760D01*
X-101745Y94620D01*
X-101749Y94480D01*
X-101757Y94341D01*
X-101769Y94202D01*
X-101785Y94063D01*
X-101805Y93924D01*
X-101828Y93787D01*
X-101856Y93649D01*
X-101887Y93513D01*
X-101922Y93378D01*
X-101961Y93244D01*
X-102004Y93111D01*
X-102051Y92979D01*
X-102101Y92848D01*
X-102155Y92720D01*
X-102213Y92592D01*
X-102274Y92466D01*
X-102339Y92343D01*
X-102407Y92221D01*
X-102478Y92100D01*
X-102553Y91982D01*
X-102632Y91867D01*
X-102713Y91753D01*
X-102798Y91642D01*
X-102886Y91533D01*
X-102976Y91427D01*
X-103070Y91323D01*
X-103167Y91222D01*
X-103267Y91124D01*
X-103369Y91029D01*
X-103474Y90937D01*
X-103581Y90847D01*
X-103691Y90761D01*
X-103804Y90678D01*
X-103918Y90598D01*
X-104035Y90521D01*
X-104154Y90448D01*
X-104275Y90378D01*
X-104398Y90312D01*
X-104523Y90249D01*
X-104650Y90189D01*
X-104778Y90134D01*
X-104907Y90082D01*
X-105039Y90033D01*
X-105171Y89988D01*
X-105305Y89947D01*
X-105439Y89910D01*
X-105575Y89877D01*
X-105712Y89848D01*
X-105849Y89822D01*
X-105987Y89800D01*
X-106126Y89783D01*
X-106265Y89769D01*
X-106405Y89759D01*
X-106544Y89753D01*
X-106684Y89751D01*
X-111623Y89751D01*
X-95628Y85800D02*
X-91677Y99629D01*
X-95628Y85800D02*
X-85750Y85800D01*
X-88713Y89751D02*
X-88713Y81849D01*
X-111183Y213348D02*
X-111183Y231128D01*
X-106244Y231128D01*
X-106104Y231126D01*
X-105965Y231120D01*
X-105825Y231110D01*
X-105686Y231096D01*
X-105547Y231079D01*
X-105409Y231057D01*
X-105272Y231031D01*
X-105135Y231002D01*
X-104999Y230969D01*
X-104865Y230932D01*
X-104731Y230891D01*
X-104599Y230846D01*
X-104467Y230797D01*
X-104338Y230745D01*
X-104210Y230690D01*
X-104083Y230630D01*
X-103958Y230567D01*
X-103835Y230501D01*
X-103714Y230431D01*
X-103595Y230358D01*
X-103478Y230281D01*
X-103364Y230201D01*
X-103251Y230118D01*
X-103141Y230032D01*
X-103034Y229942D01*
X-102929Y229850D01*
X-102827Y229755D01*
X-102727Y229657D01*
X-102630Y229556D01*
X-102536Y229452D01*
X-102446Y229346D01*
X-102358Y229237D01*
X-102273Y229126D01*
X-102192Y229012D01*
X-102113Y228897D01*
X-102038Y228779D01*
X-101967Y228659D01*
X-101899Y228536D01*
X-101834Y228413D01*
X-101773Y228287D01*
X-101715Y228159D01*
X-101661Y228031D01*
X-101611Y227900D01*
X-101564Y227768D01*
X-101521Y227635D01*
X-101482Y227501D01*
X-101447Y227366D01*
X-101416Y227230D01*
X-101388Y227092D01*
X-101365Y226955D01*
X-101345Y226816D01*
X-101329Y226677D01*
X-101317Y226538D01*
X-101309Y226399D01*
X-101305Y226259D01*
X-101305Y226119D01*
X-101309Y225979D01*
X-101317Y225840D01*
X-101329Y225701D01*
X-101345Y225562D01*
X-101365Y225423D01*
X-101388Y225286D01*
X-101416Y225148D01*
X-101447Y225012D01*
X-101482Y224877D01*
X-101521Y224743D01*
X-101564Y224610D01*
X-101611Y224478D01*
X-101661Y224347D01*
X-101715Y224219D01*
X-101773Y224091D01*
X-101834Y223965D01*
X-101899Y223842D01*
X-101967Y223720D01*
X-102038Y223599D01*
X-102113Y223481D01*
X-102192Y223366D01*
X-102273Y223252D01*
X-102358Y223141D01*
X-102446Y223032D01*
X-102536Y222926D01*
X-102630Y222822D01*
X-102727Y222721D01*
X-102827Y222623D01*
X-102929Y222528D01*
X-103034Y222436D01*
X-103141Y222346D01*
X-103251Y222260D01*
X-103364Y222177D01*
X-103478Y222097D01*
X-103595Y222020D01*
X-103714Y221947D01*
X-103835Y221877D01*
X-103958Y221811D01*
X-104083Y221748D01*
X-104210Y221688D01*
X-104338Y221633D01*
X-104467Y221581D01*
X-104599Y221532D01*
X-104731Y221487D01*
X-104865Y221446D01*
X-104999Y221409D01*
X-105135Y221376D01*
X-105272Y221347D01*
X-105409Y221321D01*
X-105547Y221299D01*
X-105686Y221282D01*
X-105825Y221268D01*
X-105965Y221258D01*
X-106104Y221252D01*
X-106244Y221250D01*
X-111183Y221250D01*
X-95188Y213348D02*
X-89262Y213348D01*
X-89138Y213350D01*
X-89014Y213356D01*
X-88890Y213366D01*
X-88767Y213379D01*
X-88644Y213397D01*
X-88522Y213418D01*
X-88400Y213443D01*
X-88279Y213472D01*
X-88160Y213505D01*
X-88041Y213541D01*
X-87924Y213582D01*
X-87808Y213625D01*
X-87693Y213673D01*
X-87580Y213724D01*
X-87468Y213779D01*
X-87359Y213837D01*
X-87251Y213898D01*
X-87145Y213963D01*
X-87041Y214031D01*
X-86940Y214103D01*
X-86840Y214177D01*
X-86744Y214255D01*
X-86649Y214335D01*
X-86557Y214419D01*
X-86468Y214505D01*
X-86382Y214594D01*
X-86298Y214686D01*
X-86218Y214781D01*
X-86140Y214877D01*
X-86066Y214977D01*
X-85994Y215078D01*
X-85926Y215182D01*
X-85861Y215288D01*
X-85800Y215396D01*
X-85742Y215505D01*
X-85687Y215617D01*
X-85636Y215730D01*
X-85588Y215845D01*
X-85545Y215961D01*
X-85504Y216078D01*
X-85468Y216197D01*
X-85435Y216316D01*
X-85406Y216437D01*
X-85381Y216559D01*
X-85360Y216681D01*
X-85342Y216804D01*
X-85329Y216927D01*
X-85319Y217051D01*
X-85313Y217175D01*
X-85311Y217299D01*
X-85310Y217299D02*
X-85310Y219275D01*
X-85311Y219275D02*
X-85313Y219399D01*
X-85319Y219523D01*
X-85329Y219647D01*
X-85342Y219770D01*
X-85360Y219893D01*
X-85381Y220015D01*
X-85406Y220137D01*
X-85435Y220258D01*
X-85468Y220377D01*
X-85504Y220496D01*
X-85545Y220613D01*
X-85588Y220729D01*
X-85636Y220844D01*
X-85687Y220957D01*
X-85742Y221069D01*
X-85800Y221178D01*
X-85861Y221286D01*
X-85926Y221392D01*
X-85994Y221496D01*
X-86066Y221597D01*
X-86140Y221697D01*
X-86218Y221793D01*
X-86298Y221888D01*
X-86382Y221980D01*
X-86468Y222069D01*
X-86557Y222155D01*
X-86649Y222239D01*
X-86744Y222319D01*
X-86840Y222397D01*
X-86940Y222471D01*
X-87041Y222543D01*
X-87145Y222611D01*
X-87251Y222676D01*
X-87359Y222737D01*
X-87468Y222795D01*
X-87580Y222850D01*
X-87693Y222901D01*
X-87808Y222949D01*
X-87924Y222992D01*
X-88041Y223033D01*
X-88160Y223069D01*
X-88279Y223102D01*
X-88400Y223131D01*
X-88522Y223156D01*
X-88644Y223177D01*
X-88767Y223195D01*
X-88890Y223208D01*
X-89014Y223218D01*
X-89138Y223224D01*
X-89262Y223226D01*
X-95188Y223226D01*
X-95188Y231128D01*
X-85310Y231128D01*
X-72941Y226189D02*
X-72941Y220262D01*
X-69483Y215817D01*
X-72941Y220262D02*
X-76398Y215817D01*
X-72941Y220262D02*
X-67508Y222238D01*
X-72941Y220262D02*
X-78373Y222238D01*
D12*
X-40546Y26086D03*
D13*
X-41062Y26233D03*
D14*
X-41651Y26380D03*
D15*
X-42093Y26528D03*
D16*
X-42609Y26675D03*
D17*
X-43050Y26822D03*
D18*
X-43640Y26970D03*
D19*
X-44155Y27117D03*
D20*
X-44597Y27264D03*
D21*
X-45039Y27412D03*
D22*
X-45113Y27559D03*
D23*
X-45039Y27706D03*
D24*
X-44966Y27854D03*
D25*
X-45039Y28001D03*
D26*
X-44966Y28148D03*
D27*
X-44966Y28296D03*
D28*
X-44892Y28443D03*
X-44892Y28590D03*
D29*
X-44892Y28738D03*
D30*
X-44818Y28885D03*
D31*
X-44818Y29032D03*
X-44818Y29180D03*
D32*
X-44745Y29327D03*
D33*
X-44745Y29474D03*
D34*
X-44671Y29621D03*
D35*
X-44745Y29769D03*
D36*
X-44671Y29916D03*
D37*
X-44597Y30063D03*
D38*
X-44597Y30211D03*
X-44597Y30358D03*
D39*
X-44524Y30505D03*
D40*
X-44524Y30653D03*
D41*
X-44450Y30800D03*
D42*
X-44524Y30947D03*
D43*
X-44450Y31095D03*
D44*
X-44376Y31242D03*
D45*
X-44376Y31389D03*
X-44376Y31537D03*
D46*
X-44376Y31684D03*
D47*
X-44303Y31831D03*
X-44303Y31979D03*
D48*
X-44303Y32126D03*
D49*
X-44229Y32273D03*
D50*
X-44229Y32421D03*
X-44229Y32568D03*
D51*
X-44155Y32715D03*
D52*
X-44155Y32863D03*
D53*
X-44082Y33010D03*
D54*
X-44155Y33157D03*
D55*
X-44082Y33304D03*
D56*
X-44008Y33452D03*
D57*
X-23531Y33452D03*
D58*
X-44008Y33599D03*
D59*
X-24120Y33599D03*
D58*
X-44008Y33746D03*
D60*
X-24562Y33746D03*
D61*
X-44008Y33894D03*
D62*
X-25077Y33894D03*
D63*
X-43934Y34041D03*
D64*
X-25519Y34041D03*
D63*
X-43934Y34188D03*
D65*
X-26109Y34188D03*
D66*
X-44008Y34336D03*
D67*
X-26551Y34336D03*
D66*
X-44008Y34483D03*
D68*
X-27066Y34483D03*
D63*
X-44082Y34630D03*
D69*
X-27508Y34630D03*
D66*
X-44155Y34778D03*
D21*
X-27656Y34778D03*
D66*
X-44155Y34925D03*
D23*
X-27656Y34925D03*
D66*
X-44303Y35072D03*
D24*
X-27582Y35072D03*
D66*
X-44303Y35220D03*
D25*
X-27508Y35220D03*
D63*
X-44376Y35367D03*
D26*
X-27582Y35367D03*
D66*
X-44450Y35514D03*
D70*
X-27508Y35514D03*
D66*
X-44450Y35662D03*
D28*
X-27508Y35662D03*
D66*
X-44597Y35809D03*
D71*
X-27435Y35809D03*
D66*
X-44597Y35956D03*
D71*
X-27435Y35956D03*
D63*
X-44671Y36104D03*
D30*
X-27435Y36104D03*
D66*
X-44745Y36251D03*
D72*
X-27361Y36251D03*
D66*
X-44745Y36398D03*
D32*
X-27361Y36398D03*
D66*
X-44892Y36546D03*
D32*
X-27361Y36546D03*
D66*
X-44892Y36693D03*
D73*
X-27287Y36693D03*
D63*
X-44966Y36840D03*
D34*
X-27287Y36840D03*
D61*
X-44892Y36987D03*
D35*
X-27214Y36987D03*
D61*
X-44892Y37135D03*
D36*
X-27287Y37135D03*
D74*
X-44892Y37282D03*
D75*
X-27214Y37282D03*
D76*
X-44818Y37429D03*
D77*
X-27140Y37429D03*
D55*
X-44818Y37577D03*
D78*
X-27140Y37577D03*
D55*
X-44818Y37724D03*
D78*
X-27140Y37724D03*
D54*
X-44745Y37871D03*
D79*
X-27066Y37871D03*
D52*
X-44745Y38019D03*
D41*
X-27066Y38019D03*
D80*
X-44671Y38166D03*
D41*
X-27066Y38166D03*
D51*
X-44745Y38313D03*
D43*
X-27066Y38313D03*
D81*
X-44671Y38461D03*
D44*
X-26993Y38461D03*
D82*
X-44597Y38608D03*
D83*
X-26919Y38608D03*
D48*
X-44597Y38755D03*
D84*
X-26993Y38755D03*
D48*
X-44597Y38903D03*
D85*
X-26919Y38903D03*
D86*
X-44524Y39050D03*
D47*
X-26919Y39050D03*
D46*
X-44524Y39197D03*
D86*
X-26845Y39197D03*
D46*
X-44524Y39345D03*
D86*
X-26845Y39345D03*
D84*
X-44524Y39492D03*
D49*
X-26845Y39492D03*
D87*
X-44450Y39639D03*
D82*
X-26772Y39639D03*
D44*
X-44376Y39787D03*
D51*
X-26772Y39787D03*
D43*
X-44450Y39934D03*
D51*
X-26772Y39934D03*
D42*
X-44376Y40081D03*
D80*
X-26698Y40081D03*
D40*
X-44376Y40229D03*
D53*
X-26698Y40229D03*
D79*
X-44303Y40376D03*
D54*
X-26624Y40376D03*
D79*
X-44303Y40523D03*
D55*
X-26698Y40523D03*
D88*
X-44303Y40670D03*
D89*
X-26624Y40670D03*
D77*
X-44229Y40818D03*
D76*
X-26551Y40818D03*
D36*
X-44229Y40965D03*
D90*
X-26551Y40965D03*
D36*
X-44229Y41112D03*
D90*
X-26551Y41112D03*
D35*
X-44155Y41260D03*
D63*
X-26551Y41260D03*
D33*
X-44155Y41407D03*
D66*
X-26477Y41407D03*
D73*
X-44082Y41554D03*
D63*
X-26551Y41554D03*
D32*
X-44155Y41702D03*
D66*
X-26624Y41702D03*
D91*
X-44082Y41849D03*
D66*
X-26624Y41849D03*
D92*
X-44008Y41996D03*
D63*
X-26698Y41996D03*
D29*
X-44008Y42144D03*
D66*
X-26772Y42144D03*
D29*
X-44008Y42291D03*
D66*
X-26772Y42291D03*
D71*
X-43934Y42438D03*
D66*
X-26919Y42438D03*
D27*
X-43934Y42586D03*
D66*
X-26919Y42586D03*
D70*
X-43861Y42733D03*
D63*
X-26993Y42733D03*
D93*
X-43934Y42880D03*
D66*
X-27066Y42880D03*
D25*
X-43861Y43028D03*
D66*
X-27066Y43028D03*
D24*
X-43787Y43175D03*
D66*
X-27214Y43175D03*
D23*
X-43861Y43322D03*
D66*
X-27214Y43322D03*
D22*
X-43787Y43470D03*
D63*
X-27287Y43470D03*
D69*
X-43861Y43617D03*
D66*
X-27361Y43617D03*
D94*
X-44376Y43764D03*
D66*
X-27361Y43764D03*
D67*
X-44966Y43912D03*
D66*
X-27508Y43912D03*
D65*
X-45408Y44059D03*
D66*
X-27508Y44059D03*
D95*
X-45923Y44206D03*
D61*
X-27508Y44206D03*
D96*
X-46365Y44353D03*
D90*
X-27435Y44353D03*
D60*
X-46954Y44501D03*
D90*
X-27435Y44501D03*
D97*
X-47470Y44648D03*
D98*
X-27435Y44648D03*
D99*
X-47912Y44795D03*
D56*
X-27361Y44795D03*
D100*
X-38115Y44943D03*
D55*
X-27435Y44943D03*
D101*
X-38631Y45090D03*
D54*
X-27361Y45090D03*
D14*
X-39146Y45237D03*
D53*
X-27287Y45237D03*
D102*
X-39662Y45385D03*
D80*
X-27287Y45385D03*
D16*
X-40104Y45532D03*
D80*
X-27287Y45532D03*
D103*
X-40620Y45679D03*
D81*
X-27287Y45679D03*
D18*
X-41135Y45827D03*
D104*
X-27214Y45827D03*
D19*
X-41651Y45974D03*
D49*
X-27140Y45974D03*
D105*
X-42167Y46121D03*
D48*
X-27214Y46121D03*
D106*
X-42609Y46269D03*
D86*
X-27140Y46269D03*
D22*
X-42609Y46416D03*
D47*
X-27066Y46416D03*
D23*
X-42535Y46563D03*
D85*
X-27066Y46563D03*
D24*
X-42461Y46711D03*
D85*
X-27066Y46711D03*
D25*
X-42535Y46858D03*
D87*
X-27066Y46858D03*
D26*
X-42461Y47005D03*
D44*
X-26993Y47005D03*
D107*
X-42461Y47153D03*
D43*
X-26919Y47153D03*
D28*
X-42388Y47300D03*
D42*
X-26993Y47300D03*
D28*
X-42388Y47447D03*
D41*
X-26919Y47447D03*
D29*
X-42388Y47595D03*
D79*
X-26919Y47595D03*
D30*
X-42314Y47742D03*
D39*
X-26845Y47742D03*
D31*
X-42314Y47889D03*
D39*
X-26845Y47889D03*
D31*
X-42314Y48036D03*
D108*
X-26845Y48036D03*
D32*
X-42240Y48184D03*
D75*
X-26772Y48184D03*
D33*
X-42240Y48331D03*
D35*
X-26772Y48331D03*
D34*
X-42167Y48478D03*
D35*
X-26772Y48478D03*
X-42240Y48626D03*
D34*
X-26698Y48626D03*
D36*
X-42167Y48773D03*
D73*
X-26698Y48773D03*
D75*
X-42093Y48920D03*
D73*
X-26698Y48920D03*
D38*
X-42093Y49068D03*
D91*
X-26698Y49068D03*
D38*
X-42093Y49215D03*
D72*
X-26624Y49215D03*
D79*
X-42093Y49362D03*
D30*
X-26551Y49362D03*
D40*
X-42019Y49510D03*
D29*
X-26624Y49510D03*
D41*
X-41946Y49657D03*
D71*
X-26551Y49657D03*
D42*
X-42019Y49804D03*
D27*
X-26551Y49804D03*
D43*
X-41946Y49952D03*
D109*
X-26477Y49952D03*
D87*
X-41946Y50099D03*
D109*
X-26477Y50099D03*
D45*
X-41872Y50246D03*
D25*
X-26477Y50246D03*
D45*
X-41872Y50394D03*
D24*
X-26403Y50394D03*
D46*
X-41872Y50541D03*
D23*
X-26330Y50541D03*
D47*
X-41798Y50688D03*
D22*
X-26403Y50688D03*
D47*
X-41798Y50836D03*
D106*
X-26403Y50836D03*
D48*
X-41798Y50983D03*
D110*
X-26845Y50983D03*
D49*
X-41725Y51130D03*
D111*
X-27361Y51130D03*
D50*
X-41725Y51278D03*
D18*
X-27877Y51278D03*
D50*
X-41725Y51425D03*
D112*
X-28392Y51425D03*
D51*
X-41651Y51572D03*
D113*
X-28834Y51572D03*
D52*
X-41651Y51719D03*
D114*
X-29350Y51719D03*
D53*
X-41577Y51867D03*
D14*
X-29865Y51867D03*
D54*
X-41651Y52014D03*
D115*
X-30381Y52014D03*
D55*
X-41577Y52161D03*
D12*
X-30823Y52161D03*
D56*
X-41504Y52309D03*
D58*
X-41504Y52456D03*
X-41504Y52603D03*
D61*
X-41504Y52751D03*
D63*
X-41430Y52898D03*
X-41430Y53045D03*
D66*
X-41504Y53193D03*
X-41504Y53340D03*
X-41651Y53487D03*
X-41651Y53635D03*
D63*
X-41725Y53782D03*
D66*
X-41798Y53929D03*
X-41798Y54077D03*
X-41946Y54224D03*
X-41946Y54371D03*
D63*
X-42019Y54519D03*
D66*
X-42093Y54666D03*
X-42093Y54813D03*
D63*
X-42167Y54961D03*
D66*
X-42240Y55108D03*
X-42240Y55255D03*
X-42388Y55402D03*
X-42388Y55550D03*
D63*
X-42461Y55697D03*
D61*
X-42388Y55844D03*
X-42388Y55992D03*
D74*
X-42388Y56139D03*
D76*
X-42314Y56286D03*
D55*
X-42314Y56434D03*
X-42314Y56581D03*
D54*
X-42240Y56728D03*
D52*
X-42240Y56876D03*
D80*
X-42167Y57023D03*
D51*
X-42240Y57170D03*
D81*
X-42167Y57318D03*
D82*
X-42093Y57465D03*
D116*
X-42167Y57612D03*
D48*
X-42093Y57760D03*
D47*
X-42093Y57907D03*
D46*
X-42019Y58054D03*
X-42019Y58202D03*
D84*
X-42019Y58349D03*
D87*
X-41946Y58496D03*
D43*
X-41946Y58644D03*
X-41946Y58791D03*
D42*
X-41872Y58938D03*
D40*
X-41872Y59085D03*
D79*
X-41798Y59233D03*
X-41798Y59380D03*
D88*
X-41798Y59527D03*
D77*
X-41725Y59675D03*
D36*
X-41725Y59822D03*
X-41725Y59969D03*
D35*
X-41651Y60117D03*
D33*
X-41651Y60264D03*
D73*
X-41577Y60411D03*
D32*
X-41651Y60559D03*
D91*
X-41577Y60706D03*
D92*
X-41504Y60853D03*
D29*
X-41504Y61001D03*
X-41504Y61148D03*
D28*
X-41504Y61295D03*
D27*
X-41430Y61443D03*
D70*
X-41356Y61590D03*
D93*
X-41430Y61737D03*
D25*
X-41356Y61885D03*
D23*
X-41356Y62032D03*
X-41356Y62179D03*
D22*
X-41283Y62327D03*
D117*
X-41430Y62474D03*
D118*
X-41946Y62621D03*
D67*
X-42461Y62768D03*
D119*
X-42977Y62916D03*
D95*
X-43419Y63063D03*
D120*
X-43934Y63210D03*
D60*
X-44450Y63358D03*
D97*
X-44966Y63505D03*
D121*
X-45481Y63652D03*
D122*
X-25360Y175300D02*
X-22860Y175300D01*
X-20360Y175300D01*
X-22860Y175300D02*
X-25360Y180300D01*
X-20360Y180300D02*
X-22860Y175300D01*
X-20360Y180300D02*
X-25360Y180300D01*
X-27860Y190300D02*
X-17860Y190300D01*
X-17860Y165300D01*
X-27860Y165300D01*
X-27860Y190300D01*
D123*
X-26811Y192471D02*
X-19445Y192471D01*
X-26811Y192471D02*
X-26811Y194517D01*
X-26809Y194606D01*
X-26803Y194695D01*
X-26793Y194784D01*
X-26780Y194872D01*
X-26763Y194960D01*
X-26741Y195047D01*
X-26716Y195132D01*
X-26688Y195217D01*
X-26655Y195300D01*
X-26619Y195382D01*
X-26580Y195462D01*
X-26537Y195540D01*
X-26491Y195616D01*
X-26441Y195691D01*
X-26388Y195763D01*
X-26332Y195832D01*
X-26273Y195899D01*
X-26212Y195964D01*
X-26147Y196025D01*
X-26080Y196084D01*
X-26011Y196140D01*
X-25939Y196193D01*
X-25864Y196243D01*
X-25788Y196289D01*
X-25710Y196332D01*
X-25630Y196371D01*
X-25548Y196407D01*
X-25465Y196440D01*
X-25380Y196468D01*
X-25295Y196493D01*
X-25208Y196515D01*
X-25120Y196532D01*
X-25032Y196545D01*
X-24943Y196555D01*
X-24854Y196561D01*
X-24765Y196563D01*
X-21491Y196563D01*
X-21402Y196561D01*
X-21313Y196555D01*
X-21224Y196545D01*
X-21136Y196532D01*
X-21048Y196515D01*
X-20961Y196493D01*
X-20876Y196468D01*
X-20791Y196440D01*
X-20708Y196407D01*
X-20626Y196371D01*
X-20546Y196332D01*
X-20468Y196289D01*
X-20392Y196243D01*
X-20317Y196193D01*
X-20245Y196140D01*
X-20176Y196084D01*
X-20109Y196025D01*
X-20044Y195964D01*
X-19983Y195899D01*
X-19924Y195832D01*
X-19868Y195763D01*
X-19815Y195691D01*
X-19765Y195616D01*
X-19719Y195540D01*
X-19676Y195462D01*
X-19637Y195382D01*
X-19601Y195300D01*
X-19568Y195217D01*
X-19540Y195132D01*
X-19515Y195047D01*
X-19493Y194960D01*
X-19476Y194872D01*
X-19463Y194784D01*
X-19453Y194695D01*
X-19447Y194606D01*
X-19445Y194517D01*
X-19445Y192471D01*
X-25174Y200030D02*
X-26811Y202076D01*
X-19445Y202076D01*
X-19445Y200030D02*
X-19445Y204122D01*
X-144229Y163162D02*
X-144229Y155796D01*
X-144229Y163162D02*
X-140955Y163162D01*
X-140955Y159888D02*
X-144229Y159888D01*
X-137787Y159888D02*
X-135741Y159888D01*
X-135652Y159886D01*
X-135563Y159880D01*
X-135474Y159870D01*
X-135386Y159857D01*
X-135298Y159840D01*
X-135211Y159818D01*
X-135126Y159793D01*
X-135041Y159765D01*
X-134958Y159732D01*
X-134876Y159696D01*
X-134796Y159657D01*
X-134718Y159614D01*
X-134642Y159568D01*
X-134567Y159518D01*
X-134495Y159465D01*
X-134426Y159409D01*
X-134359Y159350D01*
X-134294Y159289D01*
X-134233Y159224D01*
X-134174Y159157D01*
X-134118Y159088D01*
X-134065Y159016D01*
X-134015Y158941D01*
X-133969Y158865D01*
X-133926Y158787D01*
X-133887Y158707D01*
X-133851Y158625D01*
X-133818Y158542D01*
X-133790Y158457D01*
X-133765Y158372D01*
X-133743Y158285D01*
X-133726Y158197D01*
X-133713Y158109D01*
X-133703Y158020D01*
X-133697Y157931D01*
X-133695Y157842D01*
X-133697Y157753D01*
X-133703Y157664D01*
X-133713Y157575D01*
X-133726Y157487D01*
X-133743Y157399D01*
X-133765Y157312D01*
X-133790Y157227D01*
X-133818Y157142D01*
X-133851Y157059D01*
X-133887Y156977D01*
X-133926Y156897D01*
X-133969Y156819D01*
X-134015Y156743D01*
X-134065Y156668D01*
X-134118Y156596D01*
X-134174Y156527D01*
X-134233Y156460D01*
X-134294Y156395D01*
X-134359Y156334D01*
X-134426Y156275D01*
X-134495Y156219D01*
X-134567Y156166D01*
X-134642Y156116D01*
X-134718Y156070D01*
X-134796Y156027D01*
X-134876Y155988D01*
X-134958Y155952D01*
X-135041Y155919D01*
X-135126Y155891D01*
X-135211Y155866D01*
X-135298Y155844D01*
X-135386Y155827D01*
X-135474Y155814D01*
X-135563Y155804D01*
X-135652Y155798D01*
X-135741Y155796D01*
X-137787Y155796D01*
X-137787Y163162D01*
X-135741Y163162D01*
X-135662Y163160D01*
X-135583Y163154D01*
X-135504Y163145D01*
X-135426Y163132D01*
X-135349Y163114D01*
X-135273Y163094D01*
X-135198Y163069D01*
X-135124Y163041D01*
X-135051Y163010D01*
X-134980Y162974D01*
X-134911Y162936D01*
X-134844Y162894D01*
X-134779Y162849D01*
X-134716Y162801D01*
X-134655Y162750D01*
X-134598Y162696D01*
X-134542Y162640D01*
X-134490Y162581D01*
X-134440Y162519D01*
X-134394Y162455D01*
X-134350Y162389D01*
X-134310Y162321D01*
X-134274Y162251D01*
X-134240Y162179D01*
X-134210Y162105D01*
X-134184Y162031D01*
X-134161Y161955D01*
X-134143Y161878D01*
X-134127Y161801D01*
X-134116Y161722D01*
X-134108Y161644D01*
X-134104Y161565D01*
X-134104Y161485D01*
X-134108Y161406D01*
X-134116Y161328D01*
X-134127Y161249D01*
X-134143Y161172D01*
X-134161Y161095D01*
X-134184Y161019D01*
X-134210Y160945D01*
X-134240Y160871D01*
X-134274Y160799D01*
X-134310Y160729D01*
X-134350Y160661D01*
X-134394Y160595D01*
X-134440Y160531D01*
X-134490Y160469D01*
X-134542Y160410D01*
X-134598Y160354D01*
X-134655Y160300D01*
X-134716Y160249D01*
X-134779Y160201D01*
X-134844Y160156D01*
X-134911Y160114D01*
X-134980Y160076D01*
X-135051Y160040D01*
X-135124Y160009D01*
X-135198Y159981D01*
X-135273Y159956D01*
X-135349Y159936D01*
X-135426Y159918D01*
X-135504Y159905D01*
X-135583Y159896D01*
X-135662Y159890D01*
X-135741Y159888D01*
X-130834Y161525D02*
X-128787Y163162D01*
X-128787Y155796D01*
X-126741Y155796D02*
X-130834Y155796D01*
D10*
X-41540Y92715D02*
X20660Y92715D01*
X20660Y160015D02*
X-41540Y160015D01*
X20660Y160015D02*
X20660Y92715D01*
D124*
X23660Y149265D03*
X23660Y103465D03*
D125*
X25660Y126365D03*
D123*
X11986Y122021D02*
X8712Y122021D01*
X8623Y122023D01*
X8534Y122029D01*
X8445Y122039D01*
X8357Y122052D01*
X8269Y122069D01*
X8182Y122091D01*
X8097Y122116D01*
X8012Y122144D01*
X7929Y122177D01*
X7847Y122213D01*
X7767Y122252D01*
X7689Y122295D01*
X7613Y122341D01*
X7538Y122391D01*
X7466Y122444D01*
X7397Y122500D01*
X7330Y122559D01*
X7265Y122620D01*
X7204Y122685D01*
X7145Y122752D01*
X7089Y122821D01*
X7036Y122893D01*
X6986Y122968D01*
X6940Y123044D01*
X6897Y123122D01*
X6858Y123202D01*
X6822Y123284D01*
X6789Y123367D01*
X6761Y123452D01*
X6736Y123537D01*
X6714Y123624D01*
X6697Y123712D01*
X6684Y123800D01*
X6674Y123889D01*
X6668Y123978D01*
X6666Y124067D01*
X6668Y124156D01*
X6674Y124245D01*
X6684Y124334D01*
X6697Y124422D01*
X6714Y124510D01*
X6736Y124597D01*
X6761Y124682D01*
X6789Y124767D01*
X6822Y124850D01*
X6858Y124932D01*
X6897Y125012D01*
X6940Y125090D01*
X6986Y125166D01*
X7036Y125241D01*
X7089Y125313D01*
X7145Y125382D01*
X7204Y125449D01*
X7265Y125514D01*
X7330Y125575D01*
X7397Y125634D01*
X7466Y125690D01*
X7538Y125743D01*
X7613Y125793D01*
X7689Y125839D01*
X7767Y125882D01*
X7847Y125921D01*
X7929Y125957D01*
X8012Y125990D01*
X8097Y126018D01*
X8182Y126043D01*
X8269Y126065D01*
X8357Y126082D01*
X8445Y126095D01*
X8534Y126105D01*
X8623Y126111D01*
X8712Y126113D01*
X8712Y126114D02*
X11986Y126114D01*
X11986Y126113D02*
X12075Y126111D01*
X12164Y126105D01*
X12253Y126095D01*
X12341Y126082D01*
X12429Y126065D01*
X12516Y126043D01*
X12601Y126018D01*
X12686Y125990D01*
X12769Y125957D01*
X12851Y125921D01*
X12931Y125882D01*
X13009Y125839D01*
X13085Y125793D01*
X13160Y125743D01*
X13232Y125690D01*
X13301Y125634D01*
X13368Y125575D01*
X13433Y125514D01*
X13494Y125449D01*
X13553Y125382D01*
X13609Y125313D01*
X13662Y125241D01*
X13712Y125166D01*
X13758Y125090D01*
X13801Y125012D01*
X13840Y124932D01*
X13876Y124850D01*
X13909Y124767D01*
X13937Y124682D01*
X13962Y124597D01*
X13984Y124510D01*
X14001Y124422D01*
X14014Y124334D01*
X14024Y124245D01*
X14030Y124156D01*
X14032Y124067D01*
X14030Y123978D01*
X14024Y123889D01*
X14014Y123800D01*
X14001Y123712D01*
X13984Y123624D01*
X13962Y123537D01*
X13937Y123452D01*
X13909Y123367D01*
X13876Y123284D01*
X13840Y123202D01*
X13801Y123122D01*
X13758Y123044D01*
X13712Y122968D01*
X13662Y122893D01*
X13609Y122821D01*
X13553Y122752D01*
X13494Y122685D01*
X13433Y122620D01*
X13368Y122559D01*
X13301Y122500D01*
X13232Y122444D01*
X13160Y122391D01*
X13085Y122341D01*
X13009Y122295D01*
X12931Y122252D01*
X12851Y122213D01*
X12769Y122177D01*
X12686Y122144D01*
X12601Y122116D01*
X12516Y122091D01*
X12429Y122069D01*
X12341Y122052D01*
X12253Y122039D01*
X12164Y122029D01*
X12075Y122023D01*
X11986Y122021D01*
X12395Y125295D02*
X14032Y126932D01*
X8508Y133210D02*
X8423Y133208D01*
X8338Y133202D01*
X8254Y133192D01*
X8170Y133179D01*
X8086Y133161D01*
X8004Y133140D01*
X7923Y133115D01*
X7843Y133086D01*
X7764Y133053D01*
X7687Y133017D01*
X7612Y132977D01*
X7538Y132934D01*
X7467Y132888D01*
X7398Y132838D01*
X7331Y132785D01*
X7267Y132729D01*
X7206Y132670D01*
X7147Y132609D01*
X7091Y132545D01*
X7038Y132478D01*
X6988Y132409D01*
X6942Y132338D01*
X6899Y132264D01*
X6859Y132189D01*
X6823Y132112D01*
X6790Y132033D01*
X6761Y131953D01*
X6736Y131872D01*
X6715Y131790D01*
X6697Y131706D01*
X6684Y131622D01*
X6674Y131538D01*
X6668Y131453D01*
X6666Y131368D01*
X6668Y131272D01*
X6674Y131176D01*
X6684Y131081D01*
X6697Y130986D01*
X6715Y130891D01*
X6736Y130798D01*
X6761Y130705D01*
X6790Y130614D01*
X6822Y130523D01*
X6858Y130434D01*
X6898Y130347D01*
X6941Y130261D01*
X6987Y130177D01*
X7037Y130095D01*
X7091Y130015D01*
X7147Y129938D01*
X7207Y129863D01*
X7269Y129790D01*
X7335Y129720D01*
X7403Y129652D01*
X7474Y129587D01*
X7547Y129526D01*
X7623Y129467D01*
X7702Y129411D01*
X7782Y129359D01*
X7865Y129310D01*
X7949Y129264D01*
X8035Y129222D01*
X8123Y129184D01*
X8212Y129149D01*
X8303Y129117D01*
X9940Y132595D02*
X9881Y132655D01*
X9819Y132712D01*
X9755Y132767D01*
X9688Y132818D01*
X9619Y132867D01*
X9549Y132913D01*
X9476Y132956D01*
X9402Y132996D01*
X9326Y133032D01*
X9248Y133065D01*
X9169Y133095D01*
X9089Y133122D01*
X9008Y133145D01*
X8926Y133164D01*
X8844Y133180D01*
X8760Y133193D01*
X8676Y133202D01*
X8592Y133207D01*
X8508Y133209D01*
X9940Y132595D02*
X14032Y129117D01*
X14032Y133209D01*
D10*
X-101600Y173736D02*
X-106172Y173736D01*
X-106172Y195072D02*
X-101600Y195072D01*
X-102616Y192278D02*
X-102716Y192234D01*
X-102817Y192194D01*
X-102920Y192158D01*
X-103025Y192126D01*
X-103130Y192097D01*
X-103236Y192072D01*
X-103343Y192050D01*
X-103451Y192033D01*
X-103559Y192019D01*
X-103668Y192010D01*
X-103777Y192004D01*
X-103886Y192002D01*
X-103995Y192004D01*
X-104104Y192010D01*
X-104213Y192019D01*
X-104321Y192033D01*
X-104429Y192050D01*
X-104536Y192072D01*
X-104642Y192097D01*
X-104747Y192126D01*
X-104852Y192158D01*
X-104955Y192194D01*
X-105056Y192234D01*
X-105156Y192278D01*
D123*
X-118653Y198064D02*
X-118653Y202043D01*
X-118653Y198064D02*
X-116332Y195079D01*
X-118653Y198064D02*
X-120975Y195079D01*
X-118653Y198064D02*
X-115006Y199390D01*
X-118653Y198064D02*
X-122301Y199390D01*
X-107569Y199531D02*
X-107569Y204851D01*
X-107569Y199531D02*
X-107567Y199442D01*
X-107561Y199353D01*
X-107551Y199264D01*
X-107538Y199176D01*
X-107521Y199088D01*
X-107499Y199001D01*
X-107474Y198916D01*
X-107446Y198831D01*
X-107413Y198748D01*
X-107377Y198666D01*
X-107338Y198586D01*
X-107295Y198508D01*
X-107249Y198432D01*
X-107199Y198357D01*
X-107146Y198285D01*
X-107090Y198216D01*
X-107031Y198149D01*
X-106970Y198084D01*
X-106905Y198023D01*
X-106838Y197964D01*
X-106769Y197908D01*
X-106697Y197855D01*
X-106622Y197805D01*
X-106546Y197759D01*
X-106468Y197716D01*
X-106388Y197677D01*
X-106306Y197641D01*
X-106223Y197608D01*
X-106138Y197580D01*
X-106053Y197555D01*
X-105966Y197533D01*
X-105878Y197516D01*
X-105790Y197503D01*
X-105701Y197493D01*
X-105612Y197487D01*
X-105523Y197485D01*
X-105434Y197487D01*
X-105345Y197493D01*
X-105256Y197503D01*
X-105168Y197516D01*
X-105080Y197533D01*
X-104993Y197555D01*
X-104908Y197580D01*
X-104823Y197608D01*
X-104740Y197641D01*
X-104658Y197677D01*
X-104578Y197716D01*
X-104500Y197759D01*
X-104424Y197805D01*
X-104349Y197855D01*
X-104277Y197908D01*
X-104208Y197964D01*
X-104141Y198023D01*
X-104076Y198084D01*
X-104015Y198149D01*
X-103956Y198216D01*
X-103900Y198285D01*
X-103847Y198357D01*
X-103797Y198432D01*
X-103751Y198508D01*
X-103708Y198586D01*
X-103669Y198666D01*
X-103633Y198748D01*
X-103600Y198831D01*
X-103572Y198916D01*
X-103547Y199001D01*
X-103525Y199088D01*
X-103508Y199176D01*
X-103495Y199264D01*
X-103485Y199353D01*
X-103479Y199442D01*
X-103477Y199531D01*
X-103477Y204851D01*
X-97759Y204852D02*
X-97674Y204850D01*
X-97589Y204844D01*
X-97505Y204834D01*
X-97421Y204821D01*
X-97337Y204803D01*
X-97255Y204782D01*
X-97174Y204757D01*
X-97094Y204728D01*
X-97015Y204695D01*
X-96938Y204659D01*
X-96863Y204619D01*
X-96789Y204576D01*
X-96718Y204530D01*
X-96649Y204480D01*
X-96582Y204427D01*
X-96518Y204371D01*
X-96457Y204312D01*
X-96398Y204251D01*
X-96342Y204187D01*
X-96289Y204120D01*
X-96239Y204051D01*
X-96193Y203980D01*
X-96150Y203906D01*
X-96110Y203831D01*
X-96074Y203754D01*
X-96041Y203675D01*
X-96012Y203595D01*
X-95987Y203514D01*
X-95966Y203432D01*
X-95948Y203348D01*
X-95935Y203264D01*
X-95925Y203180D01*
X-95919Y203095D01*
X-95917Y203010D01*
X-97759Y204851D02*
X-97855Y204849D01*
X-97951Y204843D01*
X-98046Y204833D01*
X-98141Y204820D01*
X-98236Y204802D01*
X-98329Y204781D01*
X-98422Y204756D01*
X-98513Y204727D01*
X-98604Y204695D01*
X-98693Y204659D01*
X-98780Y204619D01*
X-98866Y204576D01*
X-98950Y204530D01*
X-99032Y204480D01*
X-99112Y204426D01*
X-99189Y204370D01*
X-99264Y204310D01*
X-99337Y204248D01*
X-99407Y204182D01*
X-99475Y204114D01*
X-99540Y204043D01*
X-99601Y203970D01*
X-99660Y203894D01*
X-99716Y203815D01*
X-99768Y203735D01*
X-99817Y203652D01*
X-99863Y203568D01*
X-99905Y203482D01*
X-99943Y203394D01*
X-99978Y203305D01*
X-100010Y203214D01*
X-96532Y201578D02*
X-96472Y201637D01*
X-96415Y201699D01*
X-96360Y201763D01*
X-96309Y201830D01*
X-96260Y201899D01*
X-96214Y201969D01*
X-96171Y202042D01*
X-96131Y202116D01*
X-96095Y202192D01*
X-96062Y202270D01*
X-96032Y202349D01*
X-96005Y202429D01*
X-95982Y202510D01*
X-95963Y202592D01*
X-95947Y202674D01*
X-95934Y202758D01*
X-95925Y202842D01*
X-95920Y202926D01*
X-95918Y203010D01*
X-96532Y201577D02*
X-100010Y197485D01*
X-95918Y197485D01*
D126*
X-127000Y185801D02*
X-127000Y178181D01*
D123*
X-137033Y177771D02*
X-137033Y176134D01*
X-137035Y176056D01*
X-137040Y175978D01*
X-137050Y175901D01*
X-137063Y175824D01*
X-137079Y175748D01*
X-137099Y175673D01*
X-137123Y175599D01*
X-137150Y175526D01*
X-137181Y175454D01*
X-137215Y175384D01*
X-137252Y175316D01*
X-137293Y175249D01*
X-137337Y175184D01*
X-137383Y175122D01*
X-137433Y175062D01*
X-137485Y175004D01*
X-137540Y174949D01*
X-137598Y174897D01*
X-137658Y174847D01*
X-137720Y174801D01*
X-137785Y174757D01*
X-137852Y174716D01*
X-137920Y174679D01*
X-137990Y174645D01*
X-138062Y174614D01*
X-138135Y174587D01*
X-138209Y174563D01*
X-138284Y174543D01*
X-138360Y174527D01*
X-138437Y174514D01*
X-138514Y174504D01*
X-138592Y174499D01*
X-138670Y174497D01*
X-138670Y174498D02*
X-142762Y174498D01*
X-142762Y174497D02*
X-142840Y174499D01*
X-142918Y174504D01*
X-142995Y174514D01*
X-143072Y174527D01*
X-143148Y174543D01*
X-143223Y174563D01*
X-143297Y174587D01*
X-143370Y174614D01*
X-143442Y174645D01*
X-143512Y174679D01*
X-143581Y174716D01*
X-143647Y174757D01*
X-143712Y174801D01*
X-143774Y174847D01*
X-143834Y174897D01*
X-143892Y174949D01*
X-143947Y175004D01*
X-143999Y175062D01*
X-144049Y175122D01*
X-144095Y175184D01*
X-144139Y175249D01*
X-144180Y175316D01*
X-144217Y175384D01*
X-144251Y175454D01*
X-144282Y175526D01*
X-144309Y175599D01*
X-144333Y175673D01*
X-144353Y175748D01*
X-144369Y175824D01*
X-144382Y175901D01*
X-144392Y175978D01*
X-144397Y176056D01*
X-144399Y176134D01*
X-144399Y177771D01*
X-142762Y180617D02*
X-144399Y182663D01*
X-137033Y182663D01*
X-137033Y180617D02*
X-137033Y184709D01*
X-142762Y187932D02*
X-144399Y189978D01*
X-137033Y189978D01*
X-137033Y187932D02*
X-137033Y192024D01*
D127*
X-49530Y196790D02*
X-49530Y171390D01*
D123*
X-38227Y176851D02*
X-30861Y176851D01*
X-38227Y176851D02*
X-38227Y178897D01*
X-38225Y178986D01*
X-38219Y179075D01*
X-38209Y179164D01*
X-38196Y179252D01*
X-38179Y179340D01*
X-38157Y179427D01*
X-38132Y179512D01*
X-38104Y179597D01*
X-38071Y179680D01*
X-38035Y179762D01*
X-37996Y179842D01*
X-37953Y179920D01*
X-37907Y179996D01*
X-37857Y180071D01*
X-37804Y180143D01*
X-37748Y180212D01*
X-37689Y180279D01*
X-37628Y180344D01*
X-37563Y180405D01*
X-37496Y180464D01*
X-37427Y180520D01*
X-37355Y180573D01*
X-37280Y180623D01*
X-37204Y180669D01*
X-37126Y180712D01*
X-37046Y180751D01*
X-36964Y180787D01*
X-36881Y180820D01*
X-36796Y180848D01*
X-36711Y180873D01*
X-36624Y180895D01*
X-36536Y180912D01*
X-36448Y180925D01*
X-36359Y180935D01*
X-36270Y180941D01*
X-36181Y180943D01*
X-36092Y180941D01*
X-36003Y180935D01*
X-35914Y180925D01*
X-35826Y180912D01*
X-35738Y180895D01*
X-35651Y180873D01*
X-35566Y180848D01*
X-35481Y180820D01*
X-35398Y180787D01*
X-35316Y180751D01*
X-35236Y180712D01*
X-35158Y180669D01*
X-35082Y180623D01*
X-35007Y180573D01*
X-34935Y180520D01*
X-34866Y180464D01*
X-34799Y180405D01*
X-34734Y180344D01*
X-34673Y180279D01*
X-34614Y180212D01*
X-34558Y180143D01*
X-34505Y180071D01*
X-34455Y179996D01*
X-34409Y179920D01*
X-34366Y179842D01*
X-34327Y179762D01*
X-34291Y179680D01*
X-34258Y179597D01*
X-34230Y179512D01*
X-34205Y179427D01*
X-34183Y179340D01*
X-34166Y179252D01*
X-34153Y179164D01*
X-34143Y179075D01*
X-34137Y178986D01*
X-34135Y178897D01*
X-34135Y176851D01*
X-34135Y179306D02*
X-30861Y180943D01*
X-37409Y184115D02*
X-38227Y184115D01*
X-38227Y188207D01*
X-30861Y186161D01*
D122*
X-85130Y252690D02*
X-87630Y252690D01*
X-90130Y252690D01*
X-87630Y252690D02*
X-85130Y247690D01*
X-90130Y247690D02*
X-87630Y252690D01*
X-90130Y247690D02*
X-85130Y247690D01*
X-82630Y237690D02*
X-92630Y237690D01*
X-92630Y262690D01*
X-82630Y262690D01*
X-82630Y237690D01*
D123*
X-95363Y243553D02*
X-102729Y243553D01*
X-102729Y245599D01*
X-102727Y245688D01*
X-102721Y245777D01*
X-102711Y245866D01*
X-102698Y245954D01*
X-102681Y246042D01*
X-102659Y246129D01*
X-102634Y246214D01*
X-102606Y246299D01*
X-102573Y246382D01*
X-102537Y246464D01*
X-102498Y246544D01*
X-102455Y246622D01*
X-102409Y246698D01*
X-102359Y246773D01*
X-102306Y246845D01*
X-102250Y246914D01*
X-102191Y246981D01*
X-102130Y247046D01*
X-102065Y247107D01*
X-101998Y247166D01*
X-101929Y247222D01*
X-101857Y247275D01*
X-101782Y247325D01*
X-101706Y247371D01*
X-101628Y247414D01*
X-101548Y247453D01*
X-101466Y247489D01*
X-101383Y247522D01*
X-101298Y247550D01*
X-101213Y247575D01*
X-101126Y247597D01*
X-101038Y247614D01*
X-100950Y247627D01*
X-100861Y247637D01*
X-100772Y247643D01*
X-100683Y247645D01*
X-97409Y247645D01*
X-97320Y247643D01*
X-97231Y247637D01*
X-97142Y247627D01*
X-97054Y247614D01*
X-96966Y247597D01*
X-96879Y247575D01*
X-96794Y247550D01*
X-96709Y247522D01*
X-96626Y247489D01*
X-96544Y247453D01*
X-96464Y247414D01*
X-96386Y247371D01*
X-96310Y247325D01*
X-96235Y247275D01*
X-96163Y247222D01*
X-96094Y247166D01*
X-96027Y247107D01*
X-95962Y247046D01*
X-95901Y246981D01*
X-95842Y246914D01*
X-95786Y246845D01*
X-95733Y246773D01*
X-95683Y246698D01*
X-95637Y246622D01*
X-95594Y246544D01*
X-95555Y246464D01*
X-95519Y246382D01*
X-95486Y246299D01*
X-95458Y246214D01*
X-95433Y246129D01*
X-95411Y246042D01*
X-95394Y245954D01*
X-95381Y245866D01*
X-95371Y245777D01*
X-95365Y245688D01*
X-95363Y245599D01*
X-95363Y243553D01*
X-102730Y253363D02*
X-102728Y253448D01*
X-102722Y253533D01*
X-102712Y253617D01*
X-102699Y253701D01*
X-102681Y253785D01*
X-102660Y253867D01*
X-102635Y253948D01*
X-102606Y254028D01*
X-102573Y254107D01*
X-102537Y254184D01*
X-102497Y254259D01*
X-102454Y254333D01*
X-102408Y254404D01*
X-102358Y254473D01*
X-102305Y254540D01*
X-102249Y254604D01*
X-102190Y254665D01*
X-102129Y254724D01*
X-102065Y254780D01*
X-101998Y254833D01*
X-101929Y254883D01*
X-101858Y254929D01*
X-101784Y254972D01*
X-101709Y255012D01*
X-101632Y255048D01*
X-101553Y255081D01*
X-101473Y255110D01*
X-101392Y255135D01*
X-101310Y255156D01*
X-101226Y255174D01*
X-101142Y255187D01*
X-101058Y255197D01*
X-100973Y255203D01*
X-100888Y255205D01*
X-102729Y253363D02*
X-102727Y253267D01*
X-102721Y253171D01*
X-102711Y253076D01*
X-102698Y252981D01*
X-102680Y252886D01*
X-102659Y252793D01*
X-102634Y252700D01*
X-102605Y252609D01*
X-102573Y252518D01*
X-102537Y252429D01*
X-102497Y252342D01*
X-102454Y252256D01*
X-102408Y252172D01*
X-102358Y252090D01*
X-102304Y252010D01*
X-102248Y251933D01*
X-102188Y251858D01*
X-102126Y251785D01*
X-102060Y251715D01*
X-101992Y251647D01*
X-101921Y251582D01*
X-101848Y251521D01*
X-101772Y251462D01*
X-101693Y251406D01*
X-101613Y251354D01*
X-101530Y251305D01*
X-101446Y251259D01*
X-101360Y251217D01*
X-101272Y251179D01*
X-101183Y251144D01*
X-101092Y251112D01*
X-99456Y254590D02*
X-99515Y254650D01*
X-99577Y254707D01*
X-99641Y254762D01*
X-99708Y254813D01*
X-99777Y254862D01*
X-99847Y254908D01*
X-99920Y254951D01*
X-99994Y254991D01*
X-100070Y255027D01*
X-100148Y255060D01*
X-100227Y255090D01*
X-100307Y255117D01*
X-100388Y255140D01*
X-100470Y255159D01*
X-100552Y255175D01*
X-100636Y255188D01*
X-100720Y255197D01*
X-100804Y255202D01*
X-100888Y255204D01*
X-99455Y254590D02*
X-95363Y251112D01*
X-95363Y255204D01*
D126*
X34544Y88900D02*
X34544Y81788D01*
D123*
X37079Y61537D02*
X29713Y61537D01*
X29713Y63583D01*
X29715Y63672D01*
X29721Y63761D01*
X29731Y63850D01*
X29744Y63938D01*
X29761Y64026D01*
X29783Y64113D01*
X29808Y64198D01*
X29836Y64283D01*
X29869Y64366D01*
X29905Y64448D01*
X29944Y64528D01*
X29987Y64606D01*
X30033Y64682D01*
X30083Y64757D01*
X30136Y64829D01*
X30192Y64898D01*
X30251Y64965D01*
X30312Y65030D01*
X30377Y65091D01*
X30444Y65150D01*
X30513Y65206D01*
X30585Y65259D01*
X30660Y65309D01*
X30736Y65355D01*
X30814Y65398D01*
X30894Y65437D01*
X30976Y65473D01*
X31059Y65506D01*
X31144Y65534D01*
X31229Y65559D01*
X31316Y65581D01*
X31404Y65598D01*
X31492Y65611D01*
X31581Y65621D01*
X31670Y65627D01*
X31759Y65629D01*
X31848Y65627D01*
X31937Y65621D01*
X32026Y65611D01*
X32114Y65598D01*
X32202Y65581D01*
X32289Y65559D01*
X32374Y65534D01*
X32459Y65506D01*
X32542Y65473D01*
X32624Y65437D01*
X32704Y65398D01*
X32782Y65355D01*
X32858Y65309D01*
X32933Y65259D01*
X33005Y65206D01*
X33074Y65150D01*
X33141Y65091D01*
X33206Y65030D01*
X33267Y64965D01*
X33326Y64898D01*
X33382Y64829D01*
X33435Y64757D01*
X33485Y64682D01*
X33531Y64606D01*
X33574Y64528D01*
X33613Y64448D01*
X33649Y64366D01*
X33682Y64283D01*
X33710Y64198D01*
X33735Y64113D01*
X33757Y64026D01*
X33774Y63938D01*
X33787Y63850D01*
X33797Y63761D01*
X33803Y63672D01*
X33805Y63583D01*
X33805Y61537D01*
X33805Y63992D02*
X37079Y65629D01*
X32987Y68801D02*
X32987Y71256D01*
X32989Y71334D01*
X32994Y71412D01*
X33004Y71489D01*
X33017Y71566D01*
X33033Y71642D01*
X33053Y71717D01*
X33077Y71791D01*
X33104Y71864D01*
X33135Y71936D01*
X33169Y72006D01*
X33206Y72075D01*
X33247Y72141D01*
X33291Y72206D01*
X33337Y72268D01*
X33387Y72328D01*
X33439Y72386D01*
X33494Y72441D01*
X33552Y72493D01*
X33612Y72543D01*
X33674Y72589D01*
X33739Y72633D01*
X33806Y72674D01*
X33874Y72711D01*
X33944Y72745D01*
X34016Y72776D01*
X34089Y72803D01*
X34163Y72827D01*
X34238Y72847D01*
X34314Y72863D01*
X34391Y72876D01*
X34468Y72886D01*
X34546Y72891D01*
X34624Y72893D01*
X35033Y72893D01*
X35122Y72891D01*
X35211Y72885D01*
X35300Y72875D01*
X35388Y72862D01*
X35476Y72845D01*
X35563Y72823D01*
X35648Y72798D01*
X35733Y72770D01*
X35816Y72737D01*
X35898Y72701D01*
X35978Y72662D01*
X36056Y72619D01*
X36132Y72573D01*
X36207Y72523D01*
X36279Y72470D01*
X36348Y72414D01*
X36415Y72355D01*
X36480Y72294D01*
X36541Y72229D01*
X36600Y72162D01*
X36656Y72093D01*
X36709Y72021D01*
X36759Y71946D01*
X36805Y71870D01*
X36848Y71792D01*
X36887Y71712D01*
X36923Y71630D01*
X36956Y71547D01*
X36984Y71462D01*
X37009Y71377D01*
X37031Y71290D01*
X37048Y71202D01*
X37061Y71114D01*
X37071Y71025D01*
X37077Y70936D01*
X37079Y70847D01*
X37077Y70758D01*
X37071Y70669D01*
X37061Y70580D01*
X37048Y70492D01*
X37031Y70404D01*
X37009Y70317D01*
X36984Y70232D01*
X36956Y70147D01*
X36923Y70064D01*
X36887Y69982D01*
X36848Y69902D01*
X36805Y69824D01*
X36759Y69748D01*
X36709Y69673D01*
X36656Y69601D01*
X36600Y69532D01*
X36541Y69465D01*
X36480Y69400D01*
X36415Y69339D01*
X36348Y69280D01*
X36279Y69224D01*
X36207Y69171D01*
X36132Y69121D01*
X36056Y69075D01*
X35978Y69032D01*
X35898Y68993D01*
X35816Y68957D01*
X35733Y68924D01*
X35648Y68896D01*
X35563Y68871D01*
X35476Y68849D01*
X35388Y68832D01*
X35300Y68819D01*
X35211Y68809D01*
X35122Y68803D01*
X35033Y68801D01*
X32987Y68801D01*
X32873Y68803D01*
X32759Y68809D01*
X32645Y68819D01*
X32531Y68833D01*
X32418Y68851D01*
X32306Y68873D01*
X32195Y68898D01*
X32085Y68928D01*
X31975Y68961D01*
X31867Y68998D01*
X31761Y69039D01*
X31655Y69084D01*
X31552Y69132D01*
X31450Y69184D01*
X31350Y69240D01*
X31252Y69298D01*
X31156Y69361D01*
X31063Y69426D01*
X30971Y69495D01*
X30883Y69567D01*
X30796Y69642D01*
X30713Y69720D01*
X30632Y69801D01*
X30554Y69884D01*
X30479Y69970D01*
X30407Y70059D01*
X30338Y70151D01*
X30273Y70244D01*
X30211Y70340D01*
X30152Y70438D01*
X30096Y70538D01*
X30044Y70640D01*
X29996Y70743D01*
X29951Y70848D01*
X29910Y70955D01*
X29873Y71063D01*
X29840Y71173D01*
X29810Y71283D01*
X29785Y71394D01*
X29763Y71506D01*
X29745Y71619D01*
X29731Y71733D01*
X29721Y71847D01*
X29715Y71961D01*
X29713Y72075D01*
D10*
X48641Y85344D02*
X68199Y85344D01*
X48641Y85344D02*
X48641Y83693D01*
X48641Y51816D02*
X68199Y51816D01*
X68199Y53467D01*
X68199Y83693D02*
X68199Y85344D01*
X48641Y53467D02*
X48641Y51816D01*
D123*
X80982Y60802D02*
X80982Y64781D01*
X80982Y60802D02*
X83303Y57817D01*
X80982Y60802D02*
X78661Y57817D01*
X80982Y60802D02*
X84630Y62128D01*
X80982Y60802D02*
X77334Y62128D01*
D128*
X59859Y62792D02*
X54356Y62792D01*
X59859Y62792D02*
X59950Y62794D01*
X60041Y62800D01*
X60132Y62810D01*
X60222Y62823D01*
X60311Y62841D01*
X60400Y62862D01*
X60487Y62887D01*
X60574Y62916D01*
X60659Y62949D01*
X60742Y62985D01*
X60824Y63025D01*
X60904Y63068D01*
X60983Y63115D01*
X61059Y63165D01*
X61133Y63218D01*
X61204Y63274D01*
X61273Y63334D01*
X61340Y63396D01*
X61403Y63461D01*
X61464Y63529D01*
X61522Y63599D01*
X61577Y63672D01*
X61629Y63747D01*
X61677Y63824D01*
X61722Y63904D01*
X61764Y63985D01*
X61802Y64067D01*
X61836Y64152D01*
X61867Y64238D01*
X61894Y64325D01*
X61917Y64413D01*
X61936Y64502D01*
X61952Y64591D01*
X61964Y64682D01*
X61972Y64772D01*
X61976Y64863D01*
X61976Y64955D01*
X61972Y65046D01*
X61964Y65136D01*
X61952Y65227D01*
X61936Y65316D01*
X61917Y65405D01*
X61894Y65493D01*
X61867Y65580D01*
X61836Y65666D01*
X61802Y65751D01*
X61764Y65833D01*
X61722Y65914D01*
X61677Y65994D01*
X61629Y66071D01*
X61577Y66146D01*
X61522Y66219D01*
X61464Y66289D01*
X61403Y66357D01*
X61340Y66422D01*
X61273Y66484D01*
X61204Y66544D01*
X61133Y66600D01*
X61059Y66653D01*
X60983Y66703D01*
X60904Y66750D01*
X60824Y66793D01*
X60742Y66833D01*
X60659Y66869D01*
X60574Y66902D01*
X60487Y66931D01*
X60400Y66956D01*
X60311Y66977D01*
X60222Y66995D01*
X60132Y67008D01*
X60041Y67018D01*
X59950Y67024D01*
X59859Y67026D01*
X59859Y67025D02*
X54356Y67025D01*
X61976Y70351D02*
X61976Y72468D01*
X61974Y72559D01*
X61968Y72650D01*
X61958Y72741D01*
X61945Y72831D01*
X61927Y72920D01*
X61906Y73009D01*
X61881Y73096D01*
X61852Y73183D01*
X61819Y73268D01*
X61783Y73351D01*
X61743Y73433D01*
X61700Y73513D01*
X61653Y73592D01*
X61603Y73668D01*
X61550Y73742D01*
X61494Y73813D01*
X61434Y73882D01*
X61372Y73949D01*
X61307Y74012D01*
X61239Y74073D01*
X61169Y74131D01*
X61096Y74186D01*
X61021Y74238D01*
X60944Y74286D01*
X60864Y74331D01*
X60783Y74373D01*
X60701Y74411D01*
X60616Y74445D01*
X60530Y74476D01*
X60443Y74503D01*
X60355Y74526D01*
X60266Y74545D01*
X60177Y74561D01*
X60086Y74573D01*
X59996Y74581D01*
X59905Y74585D01*
X59813Y74585D01*
X59722Y74581D01*
X59632Y74573D01*
X59541Y74561D01*
X59452Y74545D01*
X59363Y74526D01*
X59275Y74503D01*
X59188Y74476D01*
X59102Y74445D01*
X59017Y74411D01*
X58935Y74373D01*
X58854Y74331D01*
X58774Y74286D01*
X58697Y74238D01*
X58622Y74186D01*
X58549Y74131D01*
X58479Y74073D01*
X58411Y74012D01*
X58346Y73949D01*
X58284Y73882D01*
X58224Y73813D01*
X58168Y73742D01*
X58115Y73668D01*
X58065Y73592D01*
X58018Y73513D01*
X57975Y73433D01*
X57935Y73351D01*
X57899Y73268D01*
X57866Y73183D01*
X57837Y73096D01*
X57812Y73009D01*
X57791Y72920D01*
X57773Y72831D01*
X57760Y72741D01*
X57750Y72650D01*
X57744Y72559D01*
X57742Y72468D01*
X54356Y72891D02*
X54356Y70351D01*
X54356Y72891D02*
X54358Y72972D01*
X54364Y73052D01*
X54373Y73132D01*
X54387Y73211D01*
X54404Y73290D01*
X54425Y73368D01*
X54449Y73445D01*
X54477Y73520D01*
X54509Y73594D01*
X54544Y73667D01*
X54583Y73738D01*
X54625Y73806D01*
X54670Y73873D01*
X54718Y73938D01*
X54770Y74000D01*
X54824Y74059D01*
X54881Y74116D01*
X54940Y74170D01*
X55002Y74222D01*
X55067Y74270D01*
X55134Y74315D01*
X55203Y74357D01*
X55273Y74396D01*
X55346Y74431D01*
X55420Y74463D01*
X55495Y74491D01*
X55572Y74515D01*
X55650Y74536D01*
X55729Y74553D01*
X55808Y74567D01*
X55888Y74576D01*
X55968Y74582D01*
X56049Y74584D01*
X56130Y74582D01*
X56210Y74576D01*
X56290Y74567D01*
X56369Y74553D01*
X56448Y74536D01*
X56526Y74515D01*
X56603Y74491D01*
X56678Y74463D01*
X56752Y74431D01*
X56825Y74396D01*
X56896Y74357D01*
X56964Y74315D01*
X57031Y74270D01*
X57096Y74222D01*
X57158Y74170D01*
X57217Y74116D01*
X57274Y74059D01*
X57328Y74000D01*
X57380Y73938D01*
X57428Y73873D01*
X57473Y73806D01*
X57515Y73738D01*
X57554Y73667D01*
X57589Y73594D01*
X57621Y73520D01*
X57649Y73445D01*
X57673Y73368D01*
X57694Y73290D01*
X57711Y73211D01*
X57725Y73132D01*
X57734Y73052D01*
X57740Y72972D01*
X57742Y72891D01*
X57743Y72891D02*
X57743Y71198D01*
D10*
X-101600Y166370D02*
X-114300Y166370D01*
X-101600Y166370D02*
X-95250Y160020D01*
X-95250Y147320D01*
X-101600Y140970D01*
X-120650Y147320D02*
X-120650Y160020D01*
X-114300Y166370D01*
X-120650Y147320D02*
X-114300Y140970D01*
X-101600Y140970D01*
X-112268Y137668D02*
X-112268Y121412D01*
X-112268Y137668D02*
X-107752Y137668D01*
X-107619Y137666D01*
X-107487Y137660D01*
X-107355Y137650D01*
X-107223Y137637D01*
X-107091Y137619D01*
X-106961Y137598D01*
X-106830Y137573D01*
X-106701Y137544D01*
X-106573Y137511D01*
X-106445Y137475D01*
X-106319Y137435D01*
X-106194Y137391D01*
X-106070Y137343D01*
X-105948Y137292D01*
X-105827Y137237D01*
X-105708Y137179D01*
X-105590Y137117D01*
X-105475Y137052D01*
X-105361Y136983D01*
X-105250Y136912D01*
X-105141Y136836D01*
X-105034Y136758D01*
X-104929Y136677D01*
X-104827Y136592D01*
X-104727Y136505D01*
X-104630Y136415D01*
X-104535Y136322D01*
X-104444Y136226D01*
X-104355Y136128D01*
X-104269Y136027D01*
X-104186Y135923D01*
X-104106Y135817D01*
X-104030Y135709D01*
X-103956Y135599D01*
X-103886Y135486D01*
X-103819Y135372D01*
X-103756Y135255D01*
X-103696Y135137D01*
X-103639Y135017D01*
X-103586Y134895D01*
X-103537Y134772D01*
X-103491Y134648D01*
X-103449Y134522D01*
X-103411Y134395D01*
X-103376Y134267D01*
X-103345Y134138D01*
X-103318Y134009D01*
X-103295Y133878D01*
X-103275Y133747D01*
X-103260Y133615D01*
X-103248Y133483D01*
X-103240Y133351D01*
X-103236Y133218D01*
X-103236Y133086D01*
X-103240Y132953D01*
X-103248Y132821D01*
X-103260Y132689D01*
X-103275Y132557D01*
X-103295Y132426D01*
X-103318Y132295D01*
X-103345Y132166D01*
X-103376Y132037D01*
X-103411Y131909D01*
X-103449Y131782D01*
X-103491Y131656D01*
X-103537Y131532D01*
X-103586Y131409D01*
X-103639Y131287D01*
X-103696Y131167D01*
X-103756Y131049D01*
X-103819Y130932D01*
X-103886Y130818D01*
X-103956Y130705D01*
X-104030Y130595D01*
X-104106Y130487D01*
X-104186Y130381D01*
X-104269Y130277D01*
X-104355Y130176D01*
X-104444Y130078D01*
X-104535Y129982D01*
X-104630Y129889D01*
X-104727Y129799D01*
X-104827Y129712D01*
X-104929Y129627D01*
X-105034Y129546D01*
X-105141Y129468D01*
X-105250Y129392D01*
X-105361Y129321D01*
X-105475Y129252D01*
X-105590Y129187D01*
X-105708Y129125D01*
X-105827Y129067D01*
X-105948Y129012D01*
X-106070Y128961D01*
X-106194Y128913D01*
X-106319Y128869D01*
X-106445Y128829D01*
X-106573Y128793D01*
X-106701Y128760D01*
X-106830Y128731D01*
X-106961Y128706D01*
X-107091Y128685D01*
X-107223Y128667D01*
X-107355Y128654D01*
X-107487Y128644D01*
X-107619Y128638D01*
X-107752Y128636D01*
X-107752Y128637D02*
X-112268Y128637D01*
X-106849Y128637D02*
X-103237Y121412D01*
X130810Y172720D02*
X130810Y185420D01*
X130810Y172720D02*
X124460Y166370D01*
X111760Y166370D01*
X105410Y172720D01*
X124460Y166370D02*
X130810Y160020D01*
X130810Y147320D01*
X124460Y140970D01*
X111760Y140970D01*
X105410Y147320D01*
X105410Y160020D01*
X111760Y166370D01*
X111760Y191770D02*
X124460Y191770D01*
X130810Y185420D01*
X111760Y191770D02*
X105410Y185420D01*
X105410Y172720D01*
X124460Y140970D02*
X130810Y134620D01*
X130810Y121920D01*
X124460Y115570D01*
X111760Y115570D01*
X105410Y121920D01*
X105410Y134620D01*
X111760Y140970D01*
D123*
X-3102Y210947D02*
X-4739Y210947D01*
X-4817Y210949D01*
X-4895Y210954D01*
X-4972Y210964D01*
X-5049Y210977D01*
X-5125Y210993D01*
X-5200Y211013D01*
X-5274Y211037D01*
X-5347Y211064D01*
X-5419Y211095D01*
X-5489Y211129D01*
X-5558Y211166D01*
X-5624Y211207D01*
X-5689Y211251D01*
X-5751Y211297D01*
X-5811Y211347D01*
X-5869Y211399D01*
X-5924Y211454D01*
X-5976Y211512D01*
X-6026Y211572D01*
X-6072Y211634D01*
X-6116Y211699D01*
X-6157Y211766D01*
X-6194Y211834D01*
X-6228Y211904D01*
X-6259Y211976D01*
X-6286Y212049D01*
X-6310Y212123D01*
X-6330Y212198D01*
X-6346Y212274D01*
X-6359Y212351D01*
X-6369Y212428D01*
X-6374Y212506D01*
X-6376Y212584D01*
X-6376Y216676D01*
X-6374Y216754D01*
X-6369Y216832D01*
X-6359Y216909D01*
X-6346Y216986D01*
X-6330Y217062D01*
X-6310Y217137D01*
X-6286Y217211D01*
X-6259Y217284D01*
X-6228Y217356D01*
X-6194Y217426D01*
X-6157Y217495D01*
X-6116Y217561D01*
X-6072Y217626D01*
X-6026Y217688D01*
X-5976Y217748D01*
X-5924Y217806D01*
X-5869Y217861D01*
X-5811Y217913D01*
X-5751Y217963D01*
X-5689Y218009D01*
X-5624Y218053D01*
X-5558Y218094D01*
X-5489Y218131D01*
X-5419Y218165D01*
X-5347Y218196D01*
X-5274Y218223D01*
X-5200Y218247D01*
X-5125Y218267D01*
X-5049Y218283D01*
X-4972Y218296D01*
X-4895Y218306D01*
X-4817Y218311D01*
X-4739Y218313D01*
X-3102Y218313D01*
X-257Y215039D02*
X2199Y215039D01*
X2277Y215037D01*
X2355Y215032D01*
X2432Y215022D01*
X2509Y215009D01*
X2585Y214993D01*
X2660Y214973D01*
X2734Y214949D01*
X2807Y214922D01*
X2879Y214891D01*
X2949Y214857D01*
X3017Y214820D01*
X3084Y214779D01*
X3149Y214735D01*
X3211Y214689D01*
X3271Y214639D01*
X3329Y214587D01*
X3384Y214532D01*
X3436Y214474D01*
X3486Y214414D01*
X3532Y214352D01*
X3576Y214287D01*
X3617Y214221D01*
X3654Y214152D01*
X3688Y214082D01*
X3719Y214010D01*
X3746Y213937D01*
X3770Y213863D01*
X3790Y213788D01*
X3806Y213712D01*
X3819Y213635D01*
X3829Y213558D01*
X3834Y213480D01*
X3836Y213402D01*
X3836Y212993D01*
X3834Y212904D01*
X3828Y212815D01*
X3818Y212726D01*
X3805Y212638D01*
X3788Y212550D01*
X3766Y212463D01*
X3741Y212378D01*
X3713Y212293D01*
X3680Y212210D01*
X3644Y212128D01*
X3605Y212048D01*
X3562Y211970D01*
X3516Y211894D01*
X3466Y211819D01*
X3413Y211747D01*
X3357Y211678D01*
X3298Y211611D01*
X3237Y211546D01*
X3172Y211485D01*
X3105Y211426D01*
X3036Y211370D01*
X2964Y211317D01*
X2889Y211267D01*
X2813Y211221D01*
X2735Y211178D01*
X2655Y211139D01*
X2573Y211103D01*
X2490Y211070D01*
X2405Y211042D01*
X2320Y211017D01*
X2233Y210995D01*
X2145Y210978D01*
X2057Y210965D01*
X1968Y210955D01*
X1879Y210949D01*
X1790Y210947D01*
X1701Y210949D01*
X1612Y210955D01*
X1523Y210965D01*
X1435Y210978D01*
X1347Y210995D01*
X1260Y211017D01*
X1175Y211042D01*
X1090Y211070D01*
X1007Y211103D01*
X925Y211139D01*
X845Y211178D01*
X767Y211221D01*
X691Y211267D01*
X616Y211317D01*
X544Y211370D01*
X475Y211426D01*
X408Y211485D01*
X343Y211546D01*
X282Y211611D01*
X223Y211678D01*
X167Y211747D01*
X114Y211819D01*
X64Y211894D01*
X18Y211970D01*
X-25Y212048D01*
X-64Y212128D01*
X-100Y212210D01*
X-133Y212293D01*
X-161Y212378D01*
X-186Y212463D01*
X-208Y212550D01*
X-225Y212638D01*
X-238Y212726D01*
X-248Y212815D01*
X-254Y212904D01*
X-256Y212993D01*
X-257Y212993D02*
X-257Y215039D01*
X-255Y215153D01*
X-249Y215267D01*
X-239Y215381D01*
X-225Y215495D01*
X-207Y215608D01*
X-185Y215720D01*
X-160Y215831D01*
X-130Y215941D01*
X-97Y216051D01*
X-60Y216159D01*
X-19Y216265D01*
X26Y216371D01*
X74Y216474D01*
X126Y216576D01*
X182Y216676D01*
X240Y216774D01*
X303Y216870D01*
X368Y216963D01*
X437Y217055D01*
X509Y217143D01*
X584Y217230D01*
X662Y217313D01*
X743Y217394D01*
X826Y217472D01*
X913Y217547D01*
X1001Y217619D01*
X1093Y217688D01*
X1186Y217753D01*
X1282Y217815D01*
X1380Y217874D01*
X1480Y217930D01*
X1582Y217982D01*
X1685Y218030D01*
X1791Y218075D01*
X1897Y218116D01*
X2005Y218153D01*
X2115Y218186D01*
X2225Y218216D01*
X2336Y218241D01*
X2448Y218263D01*
X2561Y218281D01*
X2675Y218295D01*
X2789Y218305D01*
X2903Y218311D01*
X3017Y218313D01*
D126*
X20066Y203200D02*
X27686Y203200D01*
D123*
X17625Y212471D02*
X15988Y212471D01*
X15910Y212473D01*
X15832Y212478D01*
X15755Y212488D01*
X15678Y212501D01*
X15602Y212517D01*
X15527Y212537D01*
X15453Y212561D01*
X15380Y212588D01*
X15308Y212619D01*
X15238Y212653D01*
X15169Y212690D01*
X15103Y212731D01*
X15038Y212775D01*
X14976Y212821D01*
X14916Y212871D01*
X14858Y212923D01*
X14803Y212978D01*
X14751Y213036D01*
X14701Y213096D01*
X14655Y213158D01*
X14611Y213223D01*
X14570Y213290D01*
X14533Y213358D01*
X14499Y213428D01*
X14468Y213500D01*
X14441Y213573D01*
X14417Y213647D01*
X14397Y213722D01*
X14381Y213798D01*
X14368Y213875D01*
X14358Y213952D01*
X14353Y214030D01*
X14351Y214108D01*
X14351Y218200D01*
X14353Y218280D01*
X14359Y218360D01*
X14369Y218440D01*
X14382Y218519D01*
X14400Y218598D01*
X14421Y218675D01*
X14447Y218751D01*
X14476Y218826D01*
X14508Y218900D01*
X14544Y218972D01*
X14584Y219042D01*
X14627Y219109D01*
X14673Y219175D01*
X14723Y219238D01*
X14775Y219299D01*
X14830Y219358D01*
X14889Y219413D01*
X14949Y219465D01*
X15013Y219515D01*
X15079Y219561D01*
X15146Y219604D01*
X15216Y219644D01*
X15288Y219680D01*
X15362Y219712D01*
X15436Y219741D01*
X15513Y219767D01*
X15590Y219788D01*
X15669Y219806D01*
X15748Y219819D01*
X15828Y219829D01*
X15908Y219835D01*
X15988Y219837D01*
X17625Y219837D01*
X22107Y215745D02*
X24562Y215745D01*
X22107Y215745D02*
X22029Y215747D01*
X21951Y215752D01*
X21874Y215762D01*
X21797Y215775D01*
X21721Y215791D01*
X21646Y215811D01*
X21572Y215835D01*
X21499Y215862D01*
X21427Y215893D01*
X21357Y215927D01*
X21288Y215964D01*
X21222Y216005D01*
X21157Y216049D01*
X21095Y216095D01*
X21035Y216145D01*
X20977Y216197D01*
X20922Y216252D01*
X20870Y216310D01*
X20820Y216370D01*
X20774Y216432D01*
X20730Y216497D01*
X20689Y216564D01*
X20652Y216632D01*
X20618Y216702D01*
X20587Y216774D01*
X20560Y216847D01*
X20536Y216921D01*
X20516Y216996D01*
X20500Y217072D01*
X20487Y217149D01*
X20477Y217226D01*
X20472Y217304D01*
X20470Y217382D01*
X20470Y217791D01*
X20472Y217880D01*
X20478Y217969D01*
X20488Y218058D01*
X20501Y218146D01*
X20518Y218234D01*
X20540Y218321D01*
X20565Y218406D01*
X20593Y218491D01*
X20626Y218574D01*
X20662Y218656D01*
X20701Y218736D01*
X20744Y218814D01*
X20790Y218890D01*
X20840Y218965D01*
X20893Y219037D01*
X20949Y219106D01*
X21008Y219173D01*
X21069Y219238D01*
X21134Y219299D01*
X21201Y219358D01*
X21270Y219414D01*
X21342Y219467D01*
X21417Y219517D01*
X21493Y219563D01*
X21571Y219606D01*
X21651Y219645D01*
X21733Y219681D01*
X21816Y219714D01*
X21901Y219742D01*
X21986Y219767D01*
X22073Y219789D01*
X22161Y219806D01*
X22249Y219819D01*
X22338Y219829D01*
X22427Y219835D01*
X22516Y219837D01*
X22605Y219835D01*
X22694Y219829D01*
X22783Y219819D01*
X22871Y219806D01*
X22959Y219789D01*
X23046Y219767D01*
X23131Y219742D01*
X23216Y219714D01*
X23299Y219681D01*
X23381Y219645D01*
X23461Y219606D01*
X23539Y219563D01*
X23615Y219517D01*
X23690Y219467D01*
X23762Y219414D01*
X23831Y219358D01*
X23898Y219299D01*
X23963Y219238D01*
X24024Y219173D01*
X24083Y219106D01*
X24139Y219037D01*
X24192Y218965D01*
X24242Y218890D01*
X24288Y218814D01*
X24331Y218736D01*
X24370Y218656D01*
X24406Y218574D01*
X24439Y218491D01*
X24467Y218406D01*
X24492Y218321D01*
X24514Y218234D01*
X24531Y218146D01*
X24544Y218058D01*
X24554Y217969D01*
X24560Y217880D01*
X24562Y217791D01*
X24562Y215745D01*
X24563Y215745D02*
X24561Y215633D01*
X24555Y215522D01*
X24546Y215410D01*
X24533Y215299D01*
X24515Y215189D01*
X24495Y215079D01*
X24470Y214970D01*
X24442Y214862D01*
X24410Y214755D01*
X24374Y214649D01*
X24335Y214544D01*
X24292Y214441D01*
X24246Y214339D01*
X24196Y214239D01*
X24143Y214140D01*
X24086Y214044D01*
X24027Y213949D01*
X23964Y213857D01*
X23898Y213767D01*
X23829Y213679D01*
X23757Y213593D01*
X23682Y213510D01*
X23604Y213430D01*
X23524Y213352D01*
X23441Y213277D01*
X23355Y213205D01*
X23267Y213136D01*
X23177Y213070D01*
X23085Y213007D01*
X22990Y212948D01*
X22894Y212891D01*
X22795Y212838D01*
X22695Y212788D01*
X22593Y212742D01*
X22490Y212699D01*
X22385Y212660D01*
X22279Y212624D01*
X22172Y212592D01*
X22064Y212564D01*
X21955Y212539D01*
X21845Y212519D01*
X21735Y212501D01*
X21624Y212488D01*
X21512Y212479D01*
X21401Y212473D01*
X21289Y212471D01*
D126*
X20066Y194310D02*
X27686Y194310D01*
D123*
X11275Y179451D02*
X9638Y179451D01*
X9560Y179453D01*
X9482Y179458D01*
X9405Y179468D01*
X9328Y179481D01*
X9252Y179497D01*
X9177Y179517D01*
X9103Y179541D01*
X9030Y179568D01*
X8958Y179599D01*
X8888Y179633D01*
X8819Y179670D01*
X8753Y179711D01*
X8688Y179755D01*
X8626Y179801D01*
X8566Y179851D01*
X8508Y179903D01*
X8453Y179958D01*
X8401Y180016D01*
X8351Y180076D01*
X8305Y180138D01*
X8261Y180203D01*
X8220Y180270D01*
X8183Y180338D01*
X8149Y180408D01*
X8118Y180480D01*
X8091Y180553D01*
X8067Y180627D01*
X8047Y180702D01*
X8031Y180778D01*
X8018Y180855D01*
X8008Y180932D01*
X8003Y181010D01*
X8001Y181088D01*
X8001Y185180D01*
X8003Y185260D01*
X8009Y185340D01*
X8019Y185420D01*
X8032Y185499D01*
X8050Y185578D01*
X8071Y185655D01*
X8097Y185731D01*
X8126Y185806D01*
X8158Y185880D01*
X8194Y185952D01*
X8234Y186022D01*
X8277Y186089D01*
X8323Y186155D01*
X8373Y186218D01*
X8425Y186279D01*
X8480Y186338D01*
X8539Y186393D01*
X8599Y186445D01*
X8663Y186495D01*
X8729Y186541D01*
X8796Y186584D01*
X8866Y186624D01*
X8938Y186660D01*
X9012Y186692D01*
X9086Y186721D01*
X9163Y186747D01*
X9240Y186768D01*
X9319Y186786D01*
X9398Y186799D01*
X9478Y186809D01*
X9558Y186815D01*
X9638Y186817D01*
X11275Y186817D01*
X14120Y185180D02*
X16166Y186817D01*
X16166Y179451D01*
X14120Y179451D02*
X18212Y179451D01*
X25528Y184976D02*
X25526Y185061D01*
X25520Y185146D01*
X25510Y185230D01*
X25497Y185314D01*
X25479Y185398D01*
X25458Y185480D01*
X25433Y185561D01*
X25404Y185641D01*
X25371Y185720D01*
X25335Y185797D01*
X25295Y185872D01*
X25252Y185946D01*
X25206Y186017D01*
X25156Y186086D01*
X25103Y186153D01*
X25047Y186217D01*
X24988Y186278D01*
X24927Y186337D01*
X24863Y186393D01*
X24796Y186446D01*
X24727Y186496D01*
X24656Y186542D01*
X24582Y186585D01*
X24507Y186625D01*
X24430Y186661D01*
X24351Y186694D01*
X24271Y186723D01*
X24190Y186748D01*
X24108Y186769D01*
X24024Y186787D01*
X23940Y186800D01*
X23856Y186810D01*
X23771Y186816D01*
X23686Y186818D01*
X23686Y186817D02*
X23590Y186815D01*
X23494Y186809D01*
X23399Y186799D01*
X23304Y186786D01*
X23209Y186768D01*
X23116Y186747D01*
X23023Y186722D01*
X22932Y186693D01*
X22841Y186661D01*
X22752Y186625D01*
X22665Y186585D01*
X22579Y186542D01*
X22495Y186496D01*
X22413Y186446D01*
X22333Y186392D01*
X22256Y186336D01*
X22181Y186276D01*
X22108Y186214D01*
X22038Y186148D01*
X21970Y186080D01*
X21905Y186009D01*
X21844Y185936D01*
X21785Y185860D01*
X21729Y185781D01*
X21677Y185701D01*
X21628Y185618D01*
X21582Y185534D01*
X21540Y185448D01*
X21502Y185360D01*
X21467Y185271D01*
X21435Y185180D01*
X24914Y183544D02*
X24974Y183603D01*
X25031Y183665D01*
X25086Y183729D01*
X25137Y183796D01*
X25186Y183865D01*
X25232Y183935D01*
X25275Y184008D01*
X25315Y184082D01*
X25351Y184158D01*
X25384Y184236D01*
X25414Y184315D01*
X25441Y184395D01*
X25464Y184476D01*
X25483Y184558D01*
X25499Y184640D01*
X25512Y184724D01*
X25521Y184808D01*
X25526Y184892D01*
X25528Y184976D01*
X24914Y183543D02*
X21435Y179451D01*
X25528Y179451D01*
D126*
X51054Y43180D02*
X58674Y43180D01*
D123*
X27276Y40513D02*
X25639Y40513D01*
X25561Y40515D01*
X25483Y40520D01*
X25406Y40530D01*
X25329Y40543D01*
X25253Y40559D01*
X25178Y40579D01*
X25104Y40603D01*
X25031Y40630D01*
X24959Y40661D01*
X24889Y40695D01*
X24820Y40732D01*
X24754Y40773D01*
X24689Y40817D01*
X24627Y40863D01*
X24567Y40913D01*
X24509Y40965D01*
X24454Y41020D01*
X24402Y41078D01*
X24352Y41138D01*
X24306Y41200D01*
X24262Y41265D01*
X24221Y41332D01*
X24184Y41400D01*
X24150Y41470D01*
X24119Y41542D01*
X24092Y41615D01*
X24068Y41689D01*
X24048Y41764D01*
X24032Y41840D01*
X24019Y41917D01*
X24009Y41994D01*
X24004Y42072D01*
X24002Y42150D01*
X24003Y42150D02*
X24003Y46242D01*
X24002Y46242D02*
X24004Y46322D01*
X24010Y46402D01*
X24020Y46482D01*
X24033Y46561D01*
X24051Y46640D01*
X24072Y46717D01*
X24098Y46793D01*
X24127Y46868D01*
X24159Y46942D01*
X24195Y47014D01*
X24235Y47084D01*
X24278Y47151D01*
X24324Y47217D01*
X24374Y47280D01*
X24426Y47341D01*
X24481Y47400D01*
X24540Y47455D01*
X24600Y47507D01*
X24664Y47557D01*
X24730Y47603D01*
X24797Y47646D01*
X24867Y47686D01*
X24939Y47722D01*
X25013Y47754D01*
X25087Y47783D01*
X25164Y47809D01*
X25241Y47830D01*
X25320Y47848D01*
X25399Y47861D01*
X25479Y47871D01*
X25559Y47877D01*
X25639Y47879D01*
X27276Y47879D01*
X30122Y46242D02*
X32168Y47879D01*
X32168Y40513D01*
X30122Y40513D02*
X34214Y40513D01*
X37437Y44605D02*
X39892Y44605D01*
X39970Y44603D01*
X40048Y44598D01*
X40125Y44588D01*
X40202Y44575D01*
X40278Y44559D01*
X40353Y44539D01*
X40427Y44515D01*
X40500Y44488D01*
X40572Y44457D01*
X40642Y44423D01*
X40711Y44386D01*
X40777Y44345D01*
X40842Y44301D01*
X40904Y44255D01*
X40964Y44205D01*
X41022Y44153D01*
X41077Y44098D01*
X41129Y44040D01*
X41179Y43980D01*
X41225Y43918D01*
X41269Y43853D01*
X41310Y43787D01*
X41347Y43718D01*
X41381Y43648D01*
X41412Y43576D01*
X41439Y43503D01*
X41463Y43429D01*
X41483Y43354D01*
X41499Y43278D01*
X41512Y43201D01*
X41522Y43124D01*
X41527Y43046D01*
X41529Y42968D01*
X41529Y42559D01*
X41527Y42470D01*
X41521Y42381D01*
X41511Y42292D01*
X41498Y42204D01*
X41481Y42116D01*
X41459Y42029D01*
X41434Y41944D01*
X41406Y41859D01*
X41373Y41776D01*
X41337Y41694D01*
X41298Y41614D01*
X41255Y41536D01*
X41209Y41460D01*
X41159Y41385D01*
X41106Y41313D01*
X41050Y41244D01*
X40991Y41177D01*
X40930Y41112D01*
X40865Y41051D01*
X40798Y40992D01*
X40729Y40936D01*
X40657Y40883D01*
X40582Y40833D01*
X40506Y40787D01*
X40428Y40744D01*
X40348Y40705D01*
X40266Y40669D01*
X40183Y40636D01*
X40098Y40608D01*
X40013Y40583D01*
X39926Y40561D01*
X39838Y40544D01*
X39750Y40531D01*
X39661Y40521D01*
X39572Y40515D01*
X39483Y40513D01*
X39394Y40515D01*
X39305Y40521D01*
X39216Y40531D01*
X39128Y40544D01*
X39040Y40561D01*
X38953Y40583D01*
X38868Y40608D01*
X38783Y40636D01*
X38700Y40669D01*
X38618Y40705D01*
X38538Y40744D01*
X38460Y40787D01*
X38384Y40833D01*
X38309Y40883D01*
X38237Y40936D01*
X38168Y40992D01*
X38101Y41051D01*
X38036Y41112D01*
X37975Y41177D01*
X37916Y41244D01*
X37860Y41313D01*
X37807Y41385D01*
X37757Y41460D01*
X37711Y41536D01*
X37668Y41614D01*
X37629Y41694D01*
X37593Y41776D01*
X37560Y41859D01*
X37532Y41944D01*
X37507Y42029D01*
X37485Y42116D01*
X37468Y42204D01*
X37455Y42292D01*
X37445Y42381D01*
X37439Y42470D01*
X37437Y42559D01*
X37437Y44605D01*
X37439Y44719D01*
X37445Y44833D01*
X37455Y44947D01*
X37469Y45061D01*
X37487Y45174D01*
X37509Y45286D01*
X37534Y45397D01*
X37564Y45507D01*
X37597Y45617D01*
X37634Y45725D01*
X37675Y45831D01*
X37720Y45937D01*
X37768Y46040D01*
X37820Y46142D01*
X37876Y46242D01*
X37934Y46340D01*
X37997Y46436D01*
X38062Y46529D01*
X38131Y46621D01*
X38203Y46709D01*
X38278Y46796D01*
X38356Y46879D01*
X38437Y46960D01*
X38520Y47038D01*
X38607Y47113D01*
X38695Y47185D01*
X38787Y47254D01*
X38880Y47319D01*
X38976Y47381D01*
X39074Y47440D01*
X39174Y47496D01*
X39276Y47548D01*
X39379Y47596D01*
X39485Y47641D01*
X39591Y47682D01*
X39699Y47719D01*
X39809Y47752D01*
X39919Y47782D01*
X40030Y47807D01*
X40142Y47829D01*
X40255Y47847D01*
X40369Y47861D01*
X40483Y47871D01*
X40597Y47877D01*
X40711Y47879D01*
D126*
X-69088Y166624D02*
X-76200Y166624D01*
D123*
X-82552Y159639D02*
X-82552Y152273D01*
X-82552Y159639D02*
X-80506Y159639D01*
X-80417Y159637D01*
X-80328Y159631D01*
X-80239Y159621D01*
X-80151Y159608D01*
X-80063Y159591D01*
X-79976Y159569D01*
X-79891Y159544D01*
X-79806Y159516D01*
X-79723Y159483D01*
X-79641Y159447D01*
X-79561Y159408D01*
X-79483Y159365D01*
X-79407Y159319D01*
X-79332Y159269D01*
X-79260Y159216D01*
X-79191Y159160D01*
X-79124Y159101D01*
X-79059Y159040D01*
X-78998Y158975D01*
X-78939Y158908D01*
X-78883Y158839D01*
X-78830Y158767D01*
X-78780Y158692D01*
X-78734Y158616D01*
X-78691Y158538D01*
X-78652Y158458D01*
X-78616Y158376D01*
X-78583Y158293D01*
X-78555Y158208D01*
X-78530Y158123D01*
X-78508Y158036D01*
X-78491Y157948D01*
X-78478Y157860D01*
X-78468Y157771D01*
X-78462Y157682D01*
X-78460Y157593D01*
X-78462Y157504D01*
X-78468Y157415D01*
X-78478Y157326D01*
X-78491Y157238D01*
X-78508Y157150D01*
X-78530Y157063D01*
X-78555Y156978D01*
X-78583Y156893D01*
X-78616Y156810D01*
X-78652Y156728D01*
X-78691Y156648D01*
X-78734Y156570D01*
X-78780Y156494D01*
X-78830Y156419D01*
X-78883Y156347D01*
X-78939Y156278D01*
X-78998Y156211D01*
X-79059Y156146D01*
X-79124Y156085D01*
X-79191Y156026D01*
X-79260Y155970D01*
X-79332Y155917D01*
X-79407Y155867D01*
X-79483Y155821D01*
X-79561Y155778D01*
X-79641Y155739D01*
X-79723Y155703D01*
X-79806Y155670D01*
X-79891Y155642D01*
X-79976Y155617D01*
X-80063Y155595D01*
X-80151Y155578D01*
X-80239Y155565D01*
X-80328Y155555D01*
X-80417Y155549D01*
X-80506Y155547D01*
X-82552Y155547D01*
X-80097Y155547D02*
X-78460Y152273D01*
X-75288Y158002D02*
X-73242Y159639D01*
X-73242Y152273D01*
X-75288Y152273D02*
X-71196Y152273D01*
X-67973Y155956D02*
X-67971Y156109D01*
X-67965Y156262D01*
X-67956Y156414D01*
X-67942Y156567D01*
X-67925Y156719D01*
X-67904Y156870D01*
X-67879Y157021D01*
X-67850Y157171D01*
X-67818Y157321D01*
X-67781Y157469D01*
X-67741Y157617D01*
X-67698Y157764D01*
X-67650Y157909D01*
X-67599Y158053D01*
X-67545Y158196D01*
X-67486Y158338D01*
X-67425Y158477D01*
X-67359Y158616D01*
X-67333Y158686D01*
X-67303Y158755D01*
X-67271Y158823D01*
X-67234Y158889D01*
X-67195Y158953D01*
X-67152Y159015D01*
X-67107Y159074D01*
X-67058Y159132D01*
X-67007Y159186D01*
X-66953Y159239D01*
X-66896Y159288D01*
X-66837Y159335D01*
X-66776Y159378D01*
X-66713Y159419D01*
X-66648Y159456D01*
X-66581Y159491D01*
X-66512Y159521D01*
X-66442Y159549D01*
X-66371Y159572D01*
X-66299Y159593D01*
X-66226Y159609D01*
X-66152Y159622D01*
X-66077Y159632D01*
X-66002Y159637D01*
X-65927Y159639D01*
X-65852Y159637D01*
X-65777Y159632D01*
X-65702Y159622D01*
X-65628Y159609D01*
X-65555Y159593D01*
X-65483Y159572D01*
X-65412Y159549D01*
X-65342Y159521D01*
X-65273Y159491D01*
X-65206Y159456D01*
X-65141Y159419D01*
X-65078Y159378D01*
X-65017Y159335D01*
X-64958Y159288D01*
X-64901Y159239D01*
X-64847Y159186D01*
X-64796Y159132D01*
X-64748Y159074D01*
X-64702Y159015D01*
X-64659Y158953D01*
X-64620Y158889D01*
X-64584Y158823D01*
X-64551Y158756D01*
X-64521Y158686D01*
X-64495Y158616D01*
X-64430Y158478D01*
X-64368Y158338D01*
X-64310Y158196D01*
X-64255Y158053D01*
X-64204Y157909D01*
X-64156Y157764D01*
X-64113Y157617D01*
X-64073Y157470D01*
X-64036Y157321D01*
X-64004Y157171D01*
X-63975Y157021D01*
X-63950Y156870D01*
X-63929Y156719D01*
X-63912Y156567D01*
X-63898Y156414D01*
X-63889Y156262D01*
X-63883Y156109D01*
X-63881Y155956D01*
X-67974Y155956D02*
X-67972Y155803D01*
X-67966Y155650D01*
X-67957Y155497D01*
X-67943Y155345D01*
X-67926Y155193D01*
X-67905Y155042D01*
X-67880Y154891D01*
X-67851Y154740D01*
X-67819Y154591D01*
X-67782Y154442D01*
X-67742Y154295D01*
X-67699Y154148D01*
X-67651Y154003D01*
X-67600Y153858D01*
X-67545Y153716D01*
X-67487Y153574D01*
X-67425Y153434D01*
X-67360Y153296D01*
X-67359Y153296D02*
X-67333Y153226D01*
X-67303Y153156D01*
X-67271Y153089D01*
X-67234Y153023D01*
X-67195Y152959D01*
X-67152Y152897D01*
X-67106Y152838D01*
X-67058Y152780D01*
X-67007Y152726D01*
X-66953Y152673D01*
X-66896Y152624D01*
X-66837Y152577D01*
X-66776Y152534D01*
X-66713Y152493D01*
X-66648Y152456D01*
X-66581Y152421D01*
X-66512Y152391D01*
X-66442Y152363D01*
X-66371Y152340D01*
X-66299Y152319D01*
X-66226Y152303D01*
X-66152Y152290D01*
X-66077Y152280D01*
X-66002Y152275D01*
X-65927Y152273D01*
X-64495Y153296D02*
X-64430Y153434D01*
X-64368Y153574D01*
X-64310Y153716D01*
X-64255Y153859D01*
X-64204Y154003D01*
X-64156Y154148D01*
X-64113Y154295D01*
X-64073Y154443D01*
X-64036Y154591D01*
X-64004Y154741D01*
X-63975Y154891D01*
X-63950Y155042D01*
X-63929Y155193D01*
X-63912Y155345D01*
X-63898Y155498D01*
X-63889Y155650D01*
X-63883Y155803D01*
X-63881Y155956D01*
X-64495Y153296D02*
X-64521Y153225D01*
X-64551Y153156D01*
X-64584Y153089D01*
X-64620Y153023D01*
X-64659Y152959D01*
X-64702Y152897D01*
X-64748Y152838D01*
X-64796Y152780D01*
X-64847Y152726D01*
X-64901Y152673D01*
X-64958Y152624D01*
X-65017Y152577D01*
X-65078Y152534D01*
X-65141Y152493D01*
X-65206Y152456D01*
X-65273Y152421D01*
X-65342Y152391D01*
X-65412Y152363D01*
X-65483Y152340D01*
X-65555Y152319D01*
X-65628Y152303D01*
X-65702Y152290D01*
X-65777Y152280D01*
X-65852Y152275D01*
X-65927Y152273D01*
X-67564Y153910D02*
X-64290Y158002D01*
D126*
X-69088Y197104D02*
X-76200Y197104D01*
D123*
X-81282Y203073D02*
X-81282Y210439D01*
X-79236Y210439D01*
X-79147Y210437D01*
X-79058Y210431D01*
X-78969Y210421D01*
X-78881Y210408D01*
X-78793Y210391D01*
X-78706Y210369D01*
X-78621Y210344D01*
X-78536Y210316D01*
X-78453Y210283D01*
X-78371Y210247D01*
X-78291Y210208D01*
X-78213Y210165D01*
X-78137Y210119D01*
X-78062Y210069D01*
X-77990Y210016D01*
X-77921Y209960D01*
X-77854Y209901D01*
X-77789Y209840D01*
X-77728Y209775D01*
X-77669Y209708D01*
X-77613Y209639D01*
X-77560Y209567D01*
X-77510Y209492D01*
X-77464Y209416D01*
X-77421Y209338D01*
X-77382Y209258D01*
X-77346Y209176D01*
X-77313Y209093D01*
X-77285Y209008D01*
X-77260Y208923D01*
X-77238Y208836D01*
X-77221Y208748D01*
X-77208Y208660D01*
X-77198Y208571D01*
X-77192Y208482D01*
X-77190Y208393D01*
X-77192Y208304D01*
X-77198Y208215D01*
X-77208Y208126D01*
X-77221Y208038D01*
X-77238Y207950D01*
X-77260Y207863D01*
X-77285Y207778D01*
X-77313Y207693D01*
X-77346Y207610D01*
X-77382Y207528D01*
X-77421Y207448D01*
X-77464Y207370D01*
X-77510Y207294D01*
X-77560Y207219D01*
X-77613Y207147D01*
X-77669Y207078D01*
X-77728Y207011D01*
X-77789Y206946D01*
X-77854Y206885D01*
X-77921Y206826D01*
X-77990Y206770D01*
X-78062Y206717D01*
X-78137Y206667D01*
X-78213Y206621D01*
X-78291Y206578D01*
X-78371Y206539D01*
X-78453Y206503D01*
X-78536Y206470D01*
X-78621Y206442D01*
X-78706Y206417D01*
X-78793Y206395D01*
X-78881Y206378D01*
X-78969Y206365D01*
X-79058Y206355D01*
X-79147Y206349D01*
X-79236Y206347D01*
X-81282Y206347D01*
X-78827Y206347D02*
X-77190Y203073D01*
X-74018Y208802D02*
X-71972Y210439D01*
X-71972Y203073D01*
X-74018Y203073D02*
X-69926Y203073D01*
X-66703Y203073D02*
X-64657Y203073D01*
X-64568Y203075D01*
X-64479Y203081D01*
X-64390Y203091D01*
X-64302Y203104D01*
X-64214Y203121D01*
X-64127Y203143D01*
X-64042Y203168D01*
X-63957Y203196D01*
X-63874Y203229D01*
X-63792Y203265D01*
X-63712Y203304D01*
X-63634Y203347D01*
X-63558Y203393D01*
X-63483Y203443D01*
X-63411Y203496D01*
X-63342Y203552D01*
X-63275Y203611D01*
X-63210Y203672D01*
X-63149Y203737D01*
X-63090Y203804D01*
X-63034Y203873D01*
X-62981Y203945D01*
X-62931Y204020D01*
X-62885Y204096D01*
X-62842Y204174D01*
X-62803Y204254D01*
X-62767Y204336D01*
X-62734Y204419D01*
X-62706Y204504D01*
X-62681Y204589D01*
X-62659Y204676D01*
X-62642Y204764D01*
X-62629Y204852D01*
X-62619Y204941D01*
X-62613Y205030D01*
X-62611Y205119D01*
X-62613Y205208D01*
X-62619Y205297D01*
X-62629Y205386D01*
X-62642Y205474D01*
X-62659Y205562D01*
X-62681Y205649D01*
X-62706Y205734D01*
X-62734Y205819D01*
X-62767Y205902D01*
X-62803Y205984D01*
X-62842Y206064D01*
X-62885Y206142D01*
X-62931Y206218D01*
X-62981Y206293D01*
X-63034Y206365D01*
X-63090Y206434D01*
X-63149Y206501D01*
X-63210Y206566D01*
X-63275Y206627D01*
X-63342Y206686D01*
X-63411Y206742D01*
X-63483Y206795D01*
X-63558Y206845D01*
X-63634Y206891D01*
X-63712Y206934D01*
X-63792Y206973D01*
X-63874Y207009D01*
X-63957Y207042D01*
X-64042Y207070D01*
X-64127Y207095D01*
X-64214Y207117D01*
X-64302Y207134D01*
X-64390Y207147D01*
X-64479Y207157D01*
X-64568Y207163D01*
X-64657Y207165D01*
X-64248Y210439D02*
X-66703Y210439D01*
X-64248Y210439D02*
X-64169Y210437D01*
X-64090Y210431D01*
X-64011Y210422D01*
X-63933Y210409D01*
X-63856Y210391D01*
X-63780Y210371D01*
X-63705Y210346D01*
X-63631Y210318D01*
X-63558Y210287D01*
X-63487Y210251D01*
X-63418Y210213D01*
X-63351Y210171D01*
X-63286Y210126D01*
X-63223Y210078D01*
X-63162Y210027D01*
X-63105Y209973D01*
X-63049Y209917D01*
X-62997Y209858D01*
X-62947Y209796D01*
X-62901Y209732D01*
X-62857Y209666D01*
X-62817Y209598D01*
X-62781Y209528D01*
X-62747Y209456D01*
X-62717Y209382D01*
X-62691Y209308D01*
X-62668Y209232D01*
X-62650Y209155D01*
X-62634Y209078D01*
X-62623Y208999D01*
X-62615Y208921D01*
X-62611Y208842D01*
X-62611Y208762D01*
X-62615Y208683D01*
X-62623Y208605D01*
X-62634Y208526D01*
X-62650Y208449D01*
X-62668Y208372D01*
X-62691Y208296D01*
X-62717Y208222D01*
X-62747Y208148D01*
X-62781Y208076D01*
X-62817Y208006D01*
X-62857Y207938D01*
X-62901Y207872D01*
X-62947Y207808D01*
X-62997Y207746D01*
X-63049Y207687D01*
X-63105Y207631D01*
X-63162Y207577D01*
X-63223Y207526D01*
X-63286Y207478D01*
X-63351Y207433D01*
X-63418Y207391D01*
X-63487Y207353D01*
X-63558Y207317D01*
X-63631Y207286D01*
X-63705Y207258D01*
X-63780Y207233D01*
X-63856Y207213D01*
X-63933Y207195D01*
X-64011Y207182D01*
X-64090Y207173D01*
X-64169Y207167D01*
X-64248Y207165D01*
X-65885Y207165D01*
D126*
X-78740Y185166D02*
X-78740Y177546D01*
D123*
X-63881Y175105D02*
X-63881Y173468D01*
X-63883Y173390D01*
X-63888Y173312D01*
X-63898Y173235D01*
X-63911Y173158D01*
X-63927Y173082D01*
X-63947Y173007D01*
X-63971Y172933D01*
X-63998Y172860D01*
X-64029Y172788D01*
X-64063Y172718D01*
X-64100Y172650D01*
X-64141Y172583D01*
X-64185Y172518D01*
X-64231Y172456D01*
X-64281Y172396D01*
X-64333Y172338D01*
X-64388Y172283D01*
X-64446Y172231D01*
X-64506Y172181D01*
X-64568Y172135D01*
X-64633Y172091D01*
X-64699Y172050D01*
X-64768Y172013D01*
X-64838Y171979D01*
X-64910Y171948D01*
X-64983Y171921D01*
X-65057Y171897D01*
X-65132Y171877D01*
X-65208Y171861D01*
X-65285Y171848D01*
X-65362Y171838D01*
X-65440Y171833D01*
X-65518Y171831D01*
X-69610Y171831D01*
X-69688Y171833D01*
X-69766Y171838D01*
X-69843Y171848D01*
X-69920Y171861D01*
X-69996Y171877D01*
X-70071Y171897D01*
X-70145Y171921D01*
X-70218Y171948D01*
X-70290Y171979D01*
X-70360Y172013D01*
X-70429Y172050D01*
X-70495Y172091D01*
X-70560Y172135D01*
X-70622Y172181D01*
X-70682Y172231D01*
X-70740Y172283D01*
X-70795Y172338D01*
X-70847Y172396D01*
X-70897Y172456D01*
X-70943Y172518D01*
X-70987Y172583D01*
X-71028Y172650D01*
X-71065Y172718D01*
X-71099Y172788D01*
X-71130Y172860D01*
X-71157Y172933D01*
X-71181Y173007D01*
X-71201Y173082D01*
X-71217Y173158D01*
X-71230Y173235D01*
X-71240Y173312D01*
X-71245Y173390D01*
X-71247Y173468D01*
X-71247Y175105D01*
X-69610Y177950D02*
X-71247Y179996D01*
X-63881Y179996D01*
X-63881Y177950D02*
X-63881Y182042D01*
X-63881Y185265D02*
X-63881Y187311D01*
X-63883Y187400D01*
X-63889Y187489D01*
X-63899Y187578D01*
X-63912Y187666D01*
X-63929Y187754D01*
X-63951Y187841D01*
X-63976Y187926D01*
X-64004Y188011D01*
X-64037Y188094D01*
X-64073Y188176D01*
X-64112Y188256D01*
X-64155Y188334D01*
X-64201Y188410D01*
X-64251Y188485D01*
X-64304Y188557D01*
X-64360Y188626D01*
X-64419Y188693D01*
X-64480Y188758D01*
X-64545Y188819D01*
X-64612Y188878D01*
X-64681Y188934D01*
X-64753Y188987D01*
X-64828Y189037D01*
X-64904Y189083D01*
X-64982Y189126D01*
X-65062Y189165D01*
X-65144Y189201D01*
X-65227Y189234D01*
X-65312Y189262D01*
X-65397Y189287D01*
X-65484Y189309D01*
X-65572Y189326D01*
X-65660Y189339D01*
X-65749Y189349D01*
X-65838Y189355D01*
X-65927Y189357D01*
X-66016Y189355D01*
X-66105Y189349D01*
X-66194Y189339D01*
X-66282Y189326D01*
X-66370Y189309D01*
X-66457Y189287D01*
X-66542Y189262D01*
X-66627Y189234D01*
X-66710Y189201D01*
X-66792Y189165D01*
X-66872Y189126D01*
X-66950Y189083D01*
X-67026Y189037D01*
X-67101Y188987D01*
X-67173Y188934D01*
X-67242Y188878D01*
X-67309Y188819D01*
X-67374Y188758D01*
X-67435Y188693D01*
X-67494Y188626D01*
X-67550Y188557D01*
X-67603Y188485D01*
X-67653Y188410D01*
X-67699Y188334D01*
X-67742Y188256D01*
X-67781Y188176D01*
X-67817Y188094D01*
X-67850Y188011D01*
X-67878Y187926D01*
X-67903Y187841D01*
X-67925Y187754D01*
X-67942Y187666D01*
X-67955Y187578D01*
X-67965Y187489D01*
X-67971Y187400D01*
X-67973Y187311D01*
X-71247Y187721D02*
X-71247Y185265D01*
X-71247Y187721D02*
X-71245Y187800D01*
X-71239Y187879D01*
X-71230Y187958D01*
X-71217Y188036D01*
X-71199Y188113D01*
X-71179Y188189D01*
X-71154Y188264D01*
X-71126Y188338D01*
X-71095Y188411D01*
X-71059Y188482D01*
X-71021Y188551D01*
X-70979Y188618D01*
X-70934Y188683D01*
X-70886Y188746D01*
X-70835Y188807D01*
X-70781Y188864D01*
X-70725Y188920D01*
X-70666Y188972D01*
X-70604Y189022D01*
X-70540Y189068D01*
X-70474Y189112D01*
X-70406Y189152D01*
X-70336Y189188D01*
X-70264Y189222D01*
X-70190Y189252D01*
X-70116Y189278D01*
X-70040Y189301D01*
X-69963Y189319D01*
X-69886Y189335D01*
X-69807Y189346D01*
X-69729Y189354D01*
X-69650Y189358D01*
X-69570Y189358D01*
X-69491Y189354D01*
X-69413Y189346D01*
X-69334Y189335D01*
X-69257Y189319D01*
X-69180Y189301D01*
X-69104Y189278D01*
X-69030Y189252D01*
X-68956Y189222D01*
X-68884Y189188D01*
X-68814Y189152D01*
X-68746Y189112D01*
X-68680Y189068D01*
X-68616Y189022D01*
X-68554Y188972D01*
X-68495Y188920D01*
X-68439Y188864D01*
X-68385Y188807D01*
X-68334Y188746D01*
X-68286Y188683D01*
X-68241Y188618D01*
X-68199Y188551D01*
X-68161Y188482D01*
X-68125Y188411D01*
X-68094Y188338D01*
X-68066Y188264D01*
X-68041Y188189D01*
X-68021Y188113D01*
X-68003Y188036D01*
X-67990Y187958D01*
X-67981Y187879D01*
X-67975Y187800D01*
X-67973Y187721D01*
X-67973Y186084D01*
X-1266Y200430D02*
X-1266Y206159D01*
X-1266Y200430D02*
X-1268Y200352D01*
X-1273Y200274D01*
X-1283Y200197D01*
X-1296Y200120D01*
X-1312Y200044D01*
X-1332Y199969D01*
X-1356Y199895D01*
X-1383Y199822D01*
X-1414Y199750D01*
X-1448Y199680D01*
X-1485Y199612D01*
X-1526Y199545D01*
X-1570Y199480D01*
X-1616Y199418D01*
X-1666Y199358D01*
X-1718Y199300D01*
X-1773Y199245D01*
X-1831Y199193D01*
X-1891Y199143D01*
X-1953Y199097D01*
X-2018Y199053D01*
X-2084Y199012D01*
X-2153Y198975D01*
X-2223Y198941D01*
X-2295Y198910D01*
X-2368Y198883D01*
X-2442Y198859D01*
X-2517Y198839D01*
X-2593Y198823D01*
X-2670Y198810D01*
X-2747Y198800D01*
X-2825Y198795D01*
X-2903Y198793D01*
X-3721Y198793D01*
X2169Y204522D02*
X4215Y206159D01*
X4215Y198793D01*
X2169Y198793D02*
X6261Y198793D01*
M02*
