G04 EAGLE Gerber RS-274X export*
G75*
%MOMM*%
%FSLAX34Y34*%
%LPD*%
%INSolderpaste Bottom*%
%IPPOS*%
%AMOC8*
5,1,8,0,0,1.08239X$1,22.5*%
G01*
%ADD10R,0.700000X0.900000*%
%ADD11R,1.100000X1.000000*%
%ADD12R,0.900000X0.700000*%
%ADD13R,1.399997X0.400000*%
%ADD14R,1.000000X1.100000*%
%ADD15R,1.400000X1.000000*%
%ADD16R,0.550000X0.297181*%
%ADD17R,0.297181X0.550000*%
%ADD18R,1.600000X0.800000*%

G36*
X-22842Y130669D02*
X-22842Y130669D01*
X-22840Y130668D01*
X-22797Y130688D01*
X-22753Y130706D01*
X-22753Y130708D01*
X-22751Y130709D01*
X-22718Y130794D01*
X-22718Y143018D01*
X-22719Y143020D01*
X-22718Y143022D01*
X-22738Y143065D01*
X-22756Y143109D01*
X-22758Y143109D01*
X-22759Y143111D01*
X-22844Y143144D01*
X-35068Y143144D01*
X-35070Y143143D01*
X-35072Y143144D01*
X-35115Y143124D01*
X-35159Y143106D01*
X-35159Y143104D01*
X-35161Y143103D01*
X-35194Y143018D01*
X-35194Y130794D01*
X-35193Y130792D01*
X-35194Y130790D01*
X-35174Y130747D01*
X-35156Y130703D01*
X-35154Y130703D01*
X-35153Y130701D01*
X-35068Y130668D01*
X-22844Y130668D01*
X-22842Y130669D01*
G37*
G36*
X-8618Y130669D02*
X-8618Y130669D01*
X-8616Y130668D01*
X-8573Y130688D01*
X-8529Y130706D01*
X-8529Y130708D01*
X-8527Y130709D01*
X-8494Y130794D01*
X-8494Y143018D01*
X-8495Y143020D01*
X-8494Y143022D01*
X-8514Y143065D01*
X-8532Y143109D01*
X-8534Y143109D01*
X-8535Y143111D01*
X-8620Y143144D01*
X-20844Y143144D01*
X-20846Y143143D01*
X-20848Y143144D01*
X-20891Y143124D01*
X-20935Y143106D01*
X-20935Y143104D01*
X-20937Y143103D01*
X-20970Y143018D01*
X-20970Y130794D01*
X-20969Y130792D01*
X-20970Y130790D01*
X-20950Y130747D01*
X-20932Y130703D01*
X-20930Y130703D01*
X-20929Y130701D01*
X-20844Y130668D01*
X-8620Y130668D01*
X-8618Y130669D01*
G37*
G36*
X19830Y130669D02*
X19830Y130669D01*
X19832Y130668D01*
X19875Y130688D01*
X19919Y130706D01*
X19919Y130708D01*
X19921Y130709D01*
X19954Y130794D01*
X19954Y143018D01*
X19953Y143020D01*
X19954Y143022D01*
X19934Y143065D01*
X19916Y143109D01*
X19914Y143109D01*
X19913Y143111D01*
X19828Y143144D01*
X7604Y143144D01*
X7602Y143143D01*
X7600Y143144D01*
X7557Y143124D01*
X7513Y143106D01*
X7513Y143104D01*
X7511Y143103D01*
X7478Y143018D01*
X7478Y130794D01*
X7479Y130792D01*
X7478Y130790D01*
X7498Y130747D01*
X7516Y130703D01*
X7518Y130703D01*
X7519Y130701D01*
X7604Y130668D01*
X19828Y130668D01*
X19830Y130669D01*
G37*
G36*
X5606Y130669D02*
X5606Y130669D01*
X5608Y130668D01*
X5651Y130688D01*
X5695Y130706D01*
X5695Y130708D01*
X5697Y130709D01*
X5730Y130794D01*
X5730Y143018D01*
X5729Y143020D01*
X5730Y143022D01*
X5710Y143065D01*
X5692Y143109D01*
X5690Y143109D01*
X5689Y143111D01*
X5604Y143144D01*
X-6620Y143144D01*
X-6622Y143143D01*
X-6624Y143144D01*
X-6667Y143124D01*
X-6711Y143106D01*
X-6711Y143104D01*
X-6713Y143103D01*
X-6746Y143018D01*
X-6746Y130794D01*
X-6745Y130792D01*
X-6746Y130790D01*
X-6726Y130747D01*
X-6708Y130703D01*
X-6706Y130703D01*
X-6705Y130701D01*
X-6620Y130668D01*
X5604Y130668D01*
X5606Y130669D01*
G37*
G36*
X19830Y116445D02*
X19830Y116445D01*
X19832Y116444D01*
X19875Y116464D01*
X19919Y116482D01*
X19919Y116484D01*
X19921Y116485D01*
X19954Y116570D01*
X19954Y128794D01*
X19953Y128796D01*
X19954Y128798D01*
X19934Y128841D01*
X19916Y128885D01*
X19914Y128885D01*
X19913Y128887D01*
X19828Y128920D01*
X7604Y128920D01*
X7602Y128919D01*
X7600Y128920D01*
X7557Y128900D01*
X7513Y128882D01*
X7513Y128880D01*
X7511Y128879D01*
X7478Y128794D01*
X7478Y116570D01*
X7479Y116568D01*
X7478Y116566D01*
X7498Y116523D01*
X7516Y116479D01*
X7518Y116479D01*
X7519Y116477D01*
X7604Y116444D01*
X19828Y116444D01*
X19830Y116445D01*
G37*
G36*
X-8618Y116445D02*
X-8618Y116445D01*
X-8616Y116444D01*
X-8573Y116464D01*
X-8529Y116482D01*
X-8529Y116484D01*
X-8527Y116485D01*
X-8494Y116570D01*
X-8494Y128794D01*
X-8495Y128796D01*
X-8494Y128798D01*
X-8514Y128841D01*
X-8532Y128885D01*
X-8534Y128885D01*
X-8535Y128887D01*
X-8620Y128920D01*
X-20844Y128920D01*
X-20846Y128919D01*
X-20848Y128920D01*
X-20891Y128900D01*
X-20935Y128882D01*
X-20935Y128880D01*
X-20937Y128879D01*
X-20970Y128794D01*
X-20970Y116570D01*
X-20969Y116568D01*
X-20970Y116566D01*
X-20950Y116523D01*
X-20932Y116479D01*
X-20930Y116479D01*
X-20929Y116477D01*
X-20844Y116444D01*
X-8620Y116444D01*
X-8618Y116445D01*
G37*
G36*
X-22842Y116445D02*
X-22842Y116445D01*
X-22840Y116444D01*
X-22797Y116464D01*
X-22753Y116482D01*
X-22753Y116484D01*
X-22751Y116485D01*
X-22718Y116570D01*
X-22718Y128794D01*
X-22719Y128796D01*
X-22718Y128798D01*
X-22738Y128841D01*
X-22756Y128885D01*
X-22758Y128885D01*
X-22759Y128887D01*
X-22844Y128920D01*
X-35068Y128920D01*
X-35070Y128919D01*
X-35072Y128920D01*
X-35115Y128900D01*
X-35159Y128882D01*
X-35159Y128880D01*
X-35161Y128879D01*
X-35194Y128794D01*
X-35194Y116570D01*
X-35193Y116568D01*
X-35194Y116566D01*
X-35174Y116523D01*
X-35156Y116479D01*
X-35154Y116479D01*
X-35153Y116477D01*
X-35068Y116444D01*
X-22844Y116444D01*
X-22842Y116445D01*
G37*
G36*
X5606Y116445D02*
X5606Y116445D01*
X5608Y116444D01*
X5651Y116464D01*
X5695Y116482D01*
X5695Y116484D01*
X5697Y116485D01*
X5730Y116570D01*
X5730Y128794D01*
X5729Y128796D01*
X5730Y128798D01*
X5710Y128841D01*
X5692Y128885D01*
X5690Y128885D01*
X5689Y128887D01*
X5604Y128920D01*
X-6620Y128920D01*
X-6622Y128919D01*
X-6624Y128920D01*
X-6667Y128900D01*
X-6711Y128882D01*
X-6711Y128880D01*
X-6713Y128879D01*
X-6746Y128794D01*
X-6746Y116570D01*
X-6745Y116568D01*
X-6746Y116566D01*
X-6726Y116523D01*
X-6708Y116479D01*
X-6706Y116479D01*
X-6705Y116477D01*
X-6620Y116444D01*
X5604Y116444D01*
X5606Y116445D01*
G37*
G36*
X5606Y102221D02*
X5606Y102221D01*
X5608Y102220D01*
X5651Y102240D01*
X5695Y102258D01*
X5695Y102260D01*
X5697Y102261D01*
X5730Y102346D01*
X5730Y114570D01*
X5729Y114572D01*
X5730Y114574D01*
X5710Y114617D01*
X5692Y114661D01*
X5690Y114661D01*
X5689Y114663D01*
X5604Y114696D01*
X-6620Y114696D01*
X-6622Y114695D01*
X-6624Y114696D01*
X-6667Y114676D01*
X-6711Y114658D01*
X-6711Y114656D01*
X-6713Y114655D01*
X-6746Y114570D01*
X-6746Y102346D01*
X-6745Y102344D01*
X-6746Y102342D01*
X-6726Y102299D01*
X-6708Y102255D01*
X-6706Y102255D01*
X-6705Y102253D01*
X-6620Y102220D01*
X5604Y102220D01*
X5606Y102221D01*
G37*
G36*
X-8618Y102221D02*
X-8618Y102221D01*
X-8616Y102220D01*
X-8573Y102240D01*
X-8529Y102258D01*
X-8529Y102260D01*
X-8527Y102261D01*
X-8494Y102346D01*
X-8494Y114570D01*
X-8495Y114572D01*
X-8494Y114574D01*
X-8514Y114617D01*
X-8532Y114661D01*
X-8534Y114661D01*
X-8535Y114663D01*
X-8620Y114696D01*
X-20844Y114696D01*
X-20846Y114695D01*
X-20848Y114696D01*
X-20891Y114676D01*
X-20935Y114658D01*
X-20935Y114656D01*
X-20937Y114655D01*
X-20970Y114570D01*
X-20970Y102346D01*
X-20969Y102344D01*
X-20970Y102342D01*
X-20950Y102299D01*
X-20932Y102255D01*
X-20930Y102255D01*
X-20929Y102253D01*
X-20844Y102220D01*
X-8620Y102220D01*
X-8618Y102221D01*
G37*
G36*
X19830Y102221D02*
X19830Y102221D01*
X19832Y102220D01*
X19875Y102240D01*
X19919Y102258D01*
X19919Y102260D01*
X19921Y102261D01*
X19954Y102346D01*
X19954Y114570D01*
X19953Y114572D01*
X19954Y114574D01*
X19934Y114617D01*
X19916Y114661D01*
X19914Y114661D01*
X19913Y114663D01*
X19828Y114696D01*
X7604Y114696D01*
X7602Y114695D01*
X7600Y114696D01*
X7557Y114676D01*
X7513Y114658D01*
X7513Y114656D01*
X7511Y114655D01*
X7478Y114570D01*
X7478Y102346D01*
X7479Y102344D01*
X7478Y102342D01*
X7498Y102299D01*
X7516Y102255D01*
X7518Y102255D01*
X7519Y102253D01*
X7604Y102220D01*
X19828Y102220D01*
X19830Y102221D01*
G37*
G36*
X-22842Y102221D02*
X-22842Y102221D01*
X-22840Y102220D01*
X-22797Y102240D01*
X-22753Y102258D01*
X-22753Y102260D01*
X-22751Y102261D01*
X-22718Y102346D01*
X-22718Y114570D01*
X-22719Y114572D01*
X-22718Y114574D01*
X-22738Y114617D01*
X-22756Y114661D01*
X-22758Y114661D01*
X-22759Y114663D01*
X-22844Y114696D01*
X-35068Y114696D01*
X-35070Y114695D01*
X-35072Y114696D01*
X-35115Y114676D01*
X-35159Y114658D01*
X-35159Y114656D01*
X-35161Y114655D01*
X-35194Y114570D01*
X-35194Y102346D01*
X-35193Y102344D01*
X-35194Y102342D01*
X-35174Y102299D01*
X-35156Y102255D01*
X-35154Y102255D01*
X-35153Y102253D01*
X-35068Y102220D01*
X-22844Y102220D01*
X-22842Y102221D01*
G37*
G36*
X19830Y87997D02*
X19830Y87997D01*
X19832Y87996D01*
X19875Y88016D01*
X19919Y88034D01*
X19919Y88036D01*
X19921Y88037D01*
X19954Y88122D01*
X19954Y100346D01*
X19953Y100348D01*
X19954Y100350D01*
X19934Y100393D01*
X19916Y100437D01*
X19914Y100437D01*
X19913Y100439D01*
X19828Y100472D01*
X7604Y100472D01*
X7602Y100471D01*
X7600Y100472D01*
X7557Y100452D01*
X7513Y100434D01*
X7513Y100432D01*
X7511Y100431D01*
X7478Y100346D01*
X7478Y88122D01*
X7479Y88120D01*
X7478Y88118D01*
X7498Y88075D01*
X7516Y88031D01*
X7518Y88031D01*
X7519Y88029D01*
X7604Y87996D01*
X19828Y87996D01*
X19830Y87997D01*
G37*
G36*
X5606Y87997D02*
X5606Y87997D01*
X5608Y87996D01*
X5651Y88016D01*
X5695Y88034D01*
X5695Y88036D01*
X5697Y88037D01*
X5730Y88122D01*
X5730Y100346D01*
X5729Y100348D01*
X5730Y100350D01*
X5710Y100393D01*
X5692Y100437D01*
X5690Y100437D01*
X5689Y100439D01*
X5604Y100472D01*
X-6620Y100472D01*
X-6622Y100471D01*
X-6624Y100472D01*
X-6667Y100452D01*
X-6711Y100434D01*
X-6711Y100432D01*
X-6713Y100431D01*
X-6746Y100346D01*
X-6746Y88122D01*
X-6745Y88120D01*
X-6746Y88118D01*
X-6726Y88075D01*
X-6708Y88031D01*
X-6706Y88031D01*
X-6705Y88029D01*
X-6620Y87996D01*
X5604Y87996D01*
X5606Y87997D01*
G37*
G36*
X-8618Y87997D02*
X-8618Y87997D01*
X-8616Y87996D01*
X-8573Y88016D01*
X-8529Y88034D01*
X-8529Y88036D01*
X-8527Y88037D01*
X-8494Y88122D01*
X-8494Y100346D01*
X-8495Y100348D01*
X-8494Y100350D01*
X-8514Y100393D01*
X-8532Y100437D01*
X-8534Y100437D01*
X-8535Y100439D01*
X-8620Y100472D01*
X-20844Y100472D01*
X-20846Y100471D01*
X-20848Y100472D01*
X-20891Y100452D01*
X-20935Y100434D01*
X-20935Y100432D01*
X-20937Y100431D01*
X-20970Y100346D01*
X-20970Y88122D01*
X-20969Y88120D01*
X-20970Y88118D01*
X-20950Y88075D01*
X-20932Y88031D01*
X-20930Y88031D01*
X-20929Y88029D01*
X-20844Y87996D01*
X-8620Y87996D01*
X-8618Y87997D01*
G37*
G36*
X-22842Y87997D02*
X-22842Y87997D01*
X-22840Y87996D01*
X-22797Y88016D01*
X-22753Y88034D01*
X-22753Y88036D01*
X-22751Y88037D01*
X-22718Y88122D01*
X-22718Y100346D01*
X-22719Y100348D01*
X-22718Y100350D01*
X-22738Y100393D01*
X-22756Y100437D01*
X-22758Y100437D01*
X-22759Y100439D01*
X-22844Y100472D01*
X-35068Y100472D01*
X-35070Y100471D01*
X-35072Y100472D01*
X-35115Y100452D01*
X-35159Y100434D01*
X-35159Y100432D01*
X-35161Y100431D01*
X-35194Y100346D01*
X-35194Y88122D01*
X-35193Y88120D01*
X-35194Y88118D01*
X-35174Y88075D01*
X-35156Y88031D01*
X-35154Y88031D01*
X-35153Y88029D01*
X-35068Y87996D01*
X-22844Y87996D01*
X-22842Y87997D01*
G37*
D10*
X-64620Y152400D03*
X-77620Y152400D03*
D11*
X-60080Y68580D03*
X-77080Y68580D03*
D12*
X-24130Y184300D03*
X-24130Y171300D03*
D13*
X-68580Y113730D03*
X-68580Y125730D03*
X-68580Y137730D03*
D10*
G36*
X94816Y95040D02*
X99765Y90091D01*
X93402Y83728D01*
X88453Y88677D01*
X94816Y95040D01*
G37*
G36*
X85623Y104232D02*
X90572Y99283D01*
X84209Y92920D01*
X79260Y97869D01*
X85623Y104232D01*
G37*
D14*
X50800Y107070D03*
X50800Y124070D03*
D11*
X-60080Y91440D03*
X-77080Y91440D03*
D12*
X40640Y109070D03*
X40640Y122070D03*
D10*
X-62080Y100330D03*
X-75080Y100330D03*
D12*
X-143510Y149710D03*
X-143510Y162710D03*
X-85090Y247500D03*
X-85090Y260500D03*
D10*
X40490Y41910D03*
X53490Y41910D03*
X64920Y59690D03*
X51920Y59690D03*
D15*
X38940Y53340D03*
X16940Y62840D03*
X16940Y43840D03*
D10*
X63350Y72390D03*
X76350Y72390D03*
X56030Y72390D03*
X43030Y72390D03*
D12*
X2540Y50650D03*
X2540Y63650D03*
D10*
X-10310Y40640D03*
X2690Y40640D03*
D12*
X-11430Y50650D03*
X-11430Y63650D03*
D16*
X-41420Y88063D03*
X-41420Y93064D03*
X-41420Y98066D03*
X-41420Y103067D03*
X-41420Y108068D03*
X-41420Y113069D03*
X-41420Y118071D03*
X-41420Y123072D03*
X-41420Y128073D03*
X-41420Y133074D03*
X-41420Y138076D03*
X-41420Y143077D03*
D17*
X-35127Y149370D03*
X-30126Y149370D03*
X-25124Y149370D03*
X-20123Y149370D03*
X-15122Y149370D03*
X-10121Y149370D03*
X-5119Y149370D03*
X-118Y149370D03*
X4883Y149370D03*
X9884Y149370D03*
X14886Y149370D03*
X19887Y149370D03*
D16*
X26180Y143077D03*
X26180Y138076D03*
X26180Y133074D03*
X26180Y128073D03*
X26180Y123072D03*
X26180Y118071D03*
X26180Y113069D03*
X26180Y108068D03*
X26180Y103067D03*
X26180Y98066D03*
X26180Y93064D03*
X26180Y88063D03*
D17*
X19887Y81770D03*
X14886Y81770D03*
X9884Y81770D03*
X4883Y81770D03*
X-118Y81770D03*
X-5119Y81770D03*
X-10121Y81770D03*
X-15122Y81770D03*
X-20123Y81770D03*
X-25124Y81770D03*
X-30126Y81770D03*
X-35127Y81770D03*
D10*
X-62080Y77470D03*
X-75080Y77470D03*
D18*
X-7130Y240030D03*
X-41130Y240030D03*
D10*
X78890Y41910D03*
X65890Y41910D03*
M02*
