G04 EAGLE Gerber RS-274X export*
G75*
%MOMM*%
%FSLAX34Y34*%
%LPD*%
%INBottom Copper*%
%IPPOS*%
%AMOC8*
5,1,8,0,0,1.08239X$1,22.5*%
G01*
%ADD10R,0.400000X1.399997*%
%ADD11R,1.000000X1.100000*%
%ADD12C,1.000000*%
%ADD13R,0.254000X0.550000*%
%ADD14R,0.550000X0.254000*%
%ADD15R,5.600000X5.600000*%
%ADD16P,1.649562X8X112.500000*%
%ADD17C,1.524000*%
%ADD18R,1.308000X1.308000*%
%ADD19C,1.308000*%
%ADD20R,1.100000X1.000000*%
%ADD21R,0.800000X0.500000*%
%ADD22R,1.803000X1.600000*%
%ADD23R,0.650000X1.528000*%
%ADD24R,0.800000X1.600000*%
%ADD25C,1.981200*%
%ADD26R,1.300000X1.500000*%
%ADD27R,1.220000X0.915000*%
%ADD28C,0.609600*%
%ADD29C,0.750000*%
%ADD30C,0.604800*%
%ADD31C,0.254000*%
%ADD32C,0.304800*%
%ADD33C,0.203200*%
%ADD34C,0.508000*%

G36*
X-18000Y13526D02*
X-18000Y13526D01*
X-17949Y13535D01*
X-17897Y13533D01*
X-17828Y13554D01*
X-17757Y13566D01*
X-17712Y13590D01*
X-17662Y13605D01*
X-17603Y13647D01*
X-17540Y13681D01*
X-17504Y13719D01*
X-17462Y13749D01*
X-17389Y13840D01*
X-17371Y13859D01*
X-17367Y13868D01*
X-17357Y13880D01*
X-17247Y14054D01*
X-17244Y14054D01*
X-17158Y14096D01*
X-17070Y14132D01*
X-17048Y14150D01*
X-17023Y14162D01*
X-16898Y14273D01*
X-15954Y15322D01*
X-15939Y15345D01*
X-15919Y15364D01*
X-15873Y15448D01*
X-15822Y15529D01*
X-15815Y15556D01*
X-15802Y15580D01*
X-15777Y15688D01*
X-15296Y16069D01*
X-15274Y16093D01*
X-15203Y16156D01*
X-14796Y16608D01*
X-14794Y16608D01*
X-14702Y16635D01*
X-14608Y16655D01*
X-14585Y16670D01*
X-14558Y16677D01*
X-14416Y16767D01*
X-13310Y17643D01*
X-13292Y17663D01*
X-13268Y17678D01*
X-13209Y17754D01*
X-13145Y17824D01*
X-13134Y17850D01*
X-13117Y17872D01*
X-13074Y17974D01*
X-12536Y18270D01*
X-12511Y18290D01*
X-12430Y18340D01*
X-11954Y18718D01*
X-11952Y18717D01*
X-11856Y18729D01*
X-11761Y18733D01*
X-11735Y18743D01*
X-11707Y18747D01*
X-11552Y18811D01*
X-10316Y19490D01*
X-10294Y19507D01*
X-10269Y19518D01*
X-10198Y19583D01*
X-10123Y19642D01*
X-10108Y19665D01*
X-10087Y19684D01*
X-10028Y19778D01*
X-9449Y19979D01*
X-9420Y19995D01*
X-9332Y20031D01*
X-8800Y20324D01*
X-8797Y20323D01*
X-8702Y20318D01*
X-8607Y20307D01*
X-8579Y20313D01*
X-8552Y20311D01*
X-8388Y20349D01*
X-7056Y20812D01*
X-7032Y20826D01*
X-7005Y20832D01*
X-6924Y20884D01*
X-6840Y20930D01*
X-6821Y20950D01*
X-6798Y20965D01*
X-6724Y21048D01*
X-6119Y21150D01*
X-6088Y21161D01*
X-6017Y21177D01*
X-6008Y21178D01*
X-6006Y21180D01*
X-5996Y21182D01*
X-5422Y21382D01*
X-5419Y21380D01*
X-5326Y21360D01*
X-5234Y21333D01*
X-5206Y21334D01*
X-5179Y21328D01*
X-5012Y21337D01*
X-3621Y21573D01*
X-3595Y21582D01*
X-3567Y21584D01*
X-3479Y21621D01*
X-3388Y21652D01*
X-3366Y21669D01*
X-3341Y21680D01*
X-3254Y21749D01*
X-2641Y21749D01*
X-2609Y21754D01*
X-2514Y21760D01*
X-1914Y21861D01*
X-1913Y21860D01*
X-1824Y21824D01*
X-1738Y21782D01*
X-1710Y21778D01*
X-1684Y21768D01*
X-1518Y21749D01*
X-107Y21749D01*
X-80Y21754D01*
X-52Y21751D01*
X41Y21774D01*
X135Y21789D01*
X160Y21802D01*
X187Y21809D01*
X284Y21862D01*
X889Y21760D01*
X921Y21760D01*
X1016Y21749D01*
X1624Y21749D01*
X1625Y21747D01*
X1707Y21697D01*
X1784Y21641D01*
X1811Y21633D01*
X1835Y21619D01*
X1996Y21573D01*
X3387Y21337D01*
X3415Y21337D01*
X3441Y21330D01*
X3537Y21337D01*
X3633Y21336D01*
X3659Y21345D01*
X3687Y21347D01*
X3791Y21384D01*
X4371Y21182D01*
X4402Y21176D01*
X4433Y21168D01*
X4459Y21157D01*
X4476Y21155D01*
X4494Y21150D01*
X5093Y21049D01*
X5095Y21047D01*
X5167Y20983D01*
X5234Y20916D01*
X5259Y20903D01*
X5280Y20885D01*
X5431Y20812D01*
X6763Y20349D01*
X6790Y20344D01*
X6816Y20332D01*
X6911Y20323D01*
X7005Y20306D01*
X7033Y20311D01*
X7061Y20308D01*
X7170Y20327D01*
X7707Y20031D01*
X7738Y20020D01*
X7824Y19979D01*
X8398Y19779D01*
X8399Y19777D01*
X8459Y19703D01*
X8514Y19625D01*
X8537Y19608D01*
X8554Y19587D01*
X8691Y19490D01*
X9927Y18811D01*
X9953Y18801D01*
X9977Y18786D01*
X10069Y18761D01*
X10159Y18729D01*
X10187Y18728D01*
X10214Y18721D01*
X10324Y18721D01*
X10805Y18340D01*
X10834Y18324D01*
X10911Y18270D01*
X11444Y17977D01*
X11445Y17974D01*
X11492Y17891D01*
X11533Y17805D01*
X11553Y17785D01*
X11566Y17761D01*
X11686Y17643D01*
X12791Y16767D01*
X12815Y16753D01*
X12835Y16734D01*
X12922Y16693D01*
X13006Y16647D01*
X13033Y16642D01*
X13058Y16630D01*
X13167Y16612D01*
X13578Y16156D01*
X13603Y16136D01*
X13671Y16069D01*
X14147Y15691D01*
X14147Y15689D01*
X14180Y15599D01*
X14206Y15507D01*
X14222Y15484D01*
X14232Y15458D01*
X14329Y15322D01*
X15273Y14273D01*
X15295Y14256D01*
X15312Y14234D01*
X15390Y14180D01*
X15465Y14120D01*
X15491Y14110D01*
X15514Y14094D01*
X15619Y14058D01*
X15732Y13880D01*
X15767Y13841D01*
X15793Y13797D01*
X15848Y13750D01*
X15896Y13696D01*
X15941Y13670D01*
X15980Y13637D01*
X16047Y13610D01*
X16110Y13574D01*
X16160Y13564D01*
X16208Y13545D01*
X16324Y13532D01*
X16351Y13527D01*
X16360Y13528D01*
X16375Y13526D01*
X28455Y13526D01*
X28525Y13538D01*
X28597Y13540D01*
X28646Y13558D01*
X28697Y13566D01*
X28761Y13600D01*
X28828Y13624D01*
X28869Y13657D01*
X28915Y13681D01*
X28964Y13733D01*
X29020Y13778D01*
X29048Y13822D01*
X29084Y13859D01*
X29114Y13924D01*
X29153Y13985D01*
X29166Y14035D01*
X29188Y14083D01*
X29196Y14154D01*
X29213Y14223D01*
X29209Y14275D01*
X29215Y14327D01*
X29200Y14397D01*
X29194Y14469D01*
X29174Y14516D01*
X29163Y14567D01*
X29126Y14629D01*
X29098Y14695D01*
X29053Y14751D01*
X29036Y14778D01*
X29019Y14794D01*
X28993Y14826D01*
X28888Y14931D01*
X28888Y25344D01*
X29781Y26237D01*
X43244Y26237D01*
X44137Y25344D01*
X44137Y24963D01*
X44140Y24944D01*
X44138Y24924D01*
X44160Y24823D01*
X44177Y24721D01*
X44186Y24703D01*
X44191Y24684D01*
X44244Y24595D01*
X44292Y24503D01*
X44306Y24490D01*
X44317Y24473D01*
X44395Y24405D01*
X44470Y24334D01*
X44488Y24326D01*
X44504Y24313D01*
X44600Y24274D01*
X44693Y24230D01*
X44713Y24228D01*
X44732Y24221D01*
X44898Y24202D01*
X50864Y24202D01*
X50884Y24205D01*
X50903Y24203D01*
X51005Y24225D01*
X51107Y24242D01*
X51124Y24251D01*
X51144Y24256D01*
X51233Y24309D01*
X51324Y24357D01*
X51338Y24371D01*
X51355Y24382D01*
X51422Y24460D01*
X51494Y24535D01*
X51502Y24553D01*
X51515Y24569D01*
X51554Y24665D01*
X51597Y24758D01*
X51599Y24778D01*
X51607Y24797D01*
X51625Y24963D01*
X51625Y26557D01*
X52518Y27450D01*
X61782Y27450D01*
X62675Y26557D01*
X62675Y14288D01*
X62678Y14268D01*
X62676Y14248D01*
X62698Y14147D01*
X62714Y14045D01*
X62724Y14027D01*
X62728Y14008D01*
X62781Y13919D01*
X62830Y13827D01*
X62844Y13814D01*
X62854Y13797D01*
X62933Y13729D01*
X63008Y13658D01*
X63026Y13650D01*
X63041Y13637D01*
X63137Y13598D01*
X63231Y13554D01*
X63251Y13552D01*
X63269Y13545D01*
X63436Y13526D01*
X193675Y13526D01*
X193734Y13536D01*
X193793Y13535D01*
X193886Y13561D01*
X193918Y13566D01*
X193931Y13573D01*
X193955Y13580D01*
X218437Y23252D01*
X240706Y22764D01*
X240779Y22774D01*
X240853Y22775D01*
X240918Y22794D01*
X240949Y22798D01*
X240971Y22809D01*
X241014Y22822D01*
X243408Y23813D01*
X267767Y23813D01*
X271822Y22134D01*
X271878Y22121D01*
X271930Y22098D01*
X272031Y22085D01*
X272061Y22078D01*
X272075Y22079D01*
X272097Y22076D01*
X296409Y21543D01*
X296437Y21547D01*
X296465Y21544D01*
X296558Y21564D01*
X296652Y21577D01*
X296678Y21590D01*
X296705Y21596D01*
X296787Y21645D01*
X296872Y21688D01*
X296892Y21708D01*
X296916Y21722D01*
X296978Y21795D01*
X297045Y21862D01*
X297058Y21888D01*
X297076Y21909D01*
X297112Y21998D01*
X297154Y22083D01*
X297158Y22111D01*
X297168Y22137D01*
X297187Y22304D01*
X297187Y79375D01*
X297184Y79395D01*
X297186Y79414D01*
X297164Y79516D01*
X297147Y79618D01*
X297138Y79635D01*
X297133Y79655D01*
X297080Y79744D01*
X297032Y79835D01*
X297018Y79849D01*
X297007Y79866D01*
X296929Y79933D01*
X296854Y80005D01*
X296836Y80013D01*
X296820Y80026D01*
X296724Y80065D01*
X296631Y80108D01*
X296611Y80110D01*
X296592Y80118D01*
X296426Y80136D01*
X196024Y80136D01*
X196024Y151897D01*
X196010Y151983D01*
X196004Y152071D01*
X195990Y152104D01*
X195984Y152140D01*
X195943Y152217D01*
X195910Y152298D01*
X195881Y152335D01*
X195869Y152357D01*
X195846Y152379D01*
X195806Y152430D01*
X171433Y177286D01*
X171362Y177337D01*
X171297Y177396D01*
X171264Y177410D01*
X171235Y177431D01*
X171151Y177458D01*
X171071Y177492D01*
X171025Y177498D01*
X171000Y177506D01*
X170969Y177505D01*
X170904Y177514D01*
X161126Y177705D01*
X161099Y177702D01*
X161072Y177705D01*
X160977Y177684D01*
X160882Y177671D01*
X160858Y177658D01*
X160831Y177652D01*
X160749Y177603D01*
X160663Y177560D01*
X160644Y177540D01*
X160620Y177526D01*
X160558Y177453D01*
X160490Y177385D01*
X160478Y177360D01*
X160460Y177339D01*
X160424Y177250D01*
X160382Y177164D01*
X160378Y177137D01*
X160368Y177111D01*
X160350Y176944D01*
X160350Y160126D01*
X159457Y159233D01*
X151693Y159233D01*
X150800Y160126D01*
X150800Y176684D01*
X150834Y176718D01*
X150860Y176771D01*
X150895Y176819D01*
X150913Y176881D01*
X150942Y176939D01*
X150949Y176998D01*
X150967Y177055D01*
X150965Y177119D01*
X150974Y177183D01*
X150962Y177241D01*
X150961Y177300D01*
X150938Y177361D01*
X150926Y177424D01*
X150897Y177476D01*
X150876Y177531D01*
X150836Y177582D01*
X150804Y177638D01*
X150760Y177677D01*
X150722Y177723D01*
X150668Y177758D01*
X150620Y177801D01*
X150566Y177824D01*
X150516Y177857D01*
X150453Y177872D01*
X150394Y177897D01*
X150309Y177909D01*
X150277Y177917D01*
X150258Y177915D01*
X150228Y177919D01*
X148213Y177959D01*
X148134Y177947D01*
X148055Y177945D01*
X148013Y177930D01*
X147969Y177924D01*
X147899Y177888D01*
X147824Y177861D01*
X147789Y177833D01*
X147750Y177813D01*
X147694Y177757D01*
X147632Y177707D01*
X147608Y177670D01*
X147577Y177638D01*
X147542Y177567D01*
X147499Y177500D01*
X147488Y177457D01*
X147469Y177417D01*
X147459Y177338D01*
X147439Y177262D01*
X147443Y177217D01*
X147437Y177173D01*
X147440Y177156D01*
X147442Y177146D01*
X147452Y177095D01*
X147458Y177017D01*
X147476Y176975D01*
X147484Y176932D01*
X147492Y176919D01*
X147492Y176915D01*
X147524Y176862D01*
X147555Y176790D01*
X147592Y176744D01*
X147606Y176718D01*
X147614Y176711D01*
X147619Y176704D01*
X147635Y176690D01*
X147650Y176671D01*
X147650Y160126D01*
X146757Y159233D01*
X138993Y159233D01*
X138100Y160126D01*
X138100Y176669D01*
X138295Y176864D01*
X138333Y176916D01*
X138378Y176962D01*
X138404Y177015D01*
X138439Y177064D01*
X138458Y177125D01*
X138486Y177183D01*
X138494Y177242D01*
X138511Y177299D01*
X138509Y177363D01*
X138518Y177427D01*
X138506Y177485D01*
X138505Y177545D01*
X138483Y177605D01*
X138470Y177668D01*
X138441Y177720D01*
X138420Y177776D01*
X138380Y177826D01*
X138348Y177882D01*
X138304Y177921D01*
X138267Y177968D01*
X138213Y178002D01*
X138165Y178045D01*
X138110Y178069D01*
X138060Y178101D01*
X137997Y178116D01*
X137938Y178142D01*
X137853Y178153D01*
X137821Y178161D01*
X137803Y178159D01*
X137772Y178163D01*
X135259Y178213D01*
X135181Y178201D01*
X135101Y178199D01*
X135059Y178184D01*
X135015Y178178D01*
X134945Y178142D01*
X134870Y178115D01*
X134835Y178087D01*
X134796Y178067D01*
X134740Y178011D01*
X134678Y177961D01*
X134654Y177924D01*
X134623Y177892D01*
X134588Y177821D01*
X134545Y177754D01*
X134534Y177711D01*
X134515Y177671D01*
X134505Y177592D01*
X134485Y177516D01*
X134489Y177471D01*
X134483Y177427D01*
X134498Y177349D01*
X134504Y177271D01*
X134522Y177230D01*
X134530Y177186D01*
X134570Y177117D01*
X134601Y177044D01*
X134638Y176998D01*
X134652Y176972D01*
X134673Y176954D01*
X134705Y176913D01*
X134950Y176669D01*
X134950Y160126D01*
X134057Y159233D01*
X126293Y159233D01*
X125400Y160126D01*
X125400Y176669D01*
X125839Y177108D01*
X125877Y177160D01*
X125922Y177206D01*
X125948Y177260D01*
X125983Y177308D01*
X126002Y177369D01*
X126030Y177427D01*
X126038Y177486D01*
X126055Y177543D01*
X126054Y177607D01*
X126062Y177671D01*
X126051Y177729D01*
X126049Y177789D01*
X126027Y177849D01*
X126014Y177912D01*
X125985Y177964D01*
X125965Y178020D01*
X125924Y178070D01*
X125892Y178126D01*
X125848Y178165D01*
X125811Y178212D01*
X125757Y178247D01*
X125709Y178290D01*
X125654Y178313D01*
X125604Y178345D01*
X125541Y178361D01*
X125482Y178386D01*
X125397Y178397D01*
X125365Y178405D01*
X125347Y178404D01*
X125316Y178408D01*
X92673Y179048D01*
X92590Y179036D01*
X92505Y179032D01*
X92457Y179017D01*
X92430Y179013D01*
X92403Y178999D01*
X92346Y178981D01*
X-38199Y120144D01*
X-38228Y120125D01*
X-38260Y120113D01*
X-38330Y120057D01*
X-38404Y120008D01*
X-38425Y119980D01*
X-38452Y119959D01*
X-38500Y119884D01*
X-38555Y119813D01*
X-38566Y119781D01*
X-38585Y119752D01*
X-38607Y119665D01*
X-38636Y119581D01*
X-38637Y119547D01*
X-38645Y119514D01*
X-38638Y119425D01*
X-38639Y119335D01*
X-38628Y119303D01*
X-38626Y119268D01*
X-38591Y119186D01*
X-38563Y119101D01*
X-38543Y119074D01*
X-38529Y119042D01*
X-38425Y118911D01*
X-37652Y118139D01*
X-37578Y118085D01*
X-37507Y118025D01*
X-37478Y118014D01*
X-37453Y117995D01*
X-37365Y117968D01*
X-37279Y117934D01*
X-37239Y117930D01*
X-37218Y117923D01*
X-37185Y117924D01*
X-37112Y117916D01*
X107016Y118352D01*
X107035Y118355D01*
X107053Y118353D01*
X107156Y118375D01*
X107259Y118392D01*
X107275Y118401D01*
X107294Y118405D01*
X107384Y118459D01*
X107476Y118508D01*
X107489Y118522D01*
X107505Y118531D01*
X107573Y118611D01*
X107645Y118687D01*
X107653Y118704D01*
X107665Y118718D01*
X107704Y118815D01*
X107748Y118910D01*
X107750Y118929D01*
X107757Y118946D01*
X107775Y119113D01*
X107775Y121457D01*
X108668Y122350D01*
X119932Y122350D01*
X120825Y121457D01*
X120825Y117987D01*
X120828Y117968D01*
X120826Y117948D01*
X120848Y117847D01*
X120864Y117745D01*
X120874Y117727D01*
X120878Y117708D01*
X120931Y117619D01*
X120980Y117527D01*
X120994Y117514D01*
X121004Y117497D01*
X121083Y117429D01*
X121158Y117358D01*
X121176Y117350D01*
X121191Y117337D01*
X121287Y117298D01*
X121381Y117254D01*
X121401Y117252D01*
X121419Y117245D01*
X121586Y117226D01*
X124639Y117226D01*
X124659Y117229D01*
X124678Y117227D01*
X124780Y117249D01*
X124882Y117266D01*
X124899Y117275D01*
X124919Y117280D01*
X125008Y117333D01*
X125099Y117381D01*
X125113Y117395D01*
X125130Y117406D01*
X125197Y117484D01*
X125269Y117559D01*
X125277Y117577D01*
X125290Y117593D01*
X125329Y117689D01*
X125372Y117782D01*
X125374Y117802D01*
X125382Y117821D01*
X125400Y117987D01*
X125400Y122449D01*
X126293Y123342D01*
X134057Y123342D01*
X134950Y122449D01*
X134950Y105906D01*
X134057Y105013D01*
X126293Y105013D01*
X125400Y105906D01*
X125400Y110368D01*
X125397Y110387D01*
X125399Y110407D01*
X125377Y110508D01*
X125361Y110610D01*
X125351Y110628D01*
X125347Y110647D01*
X125294Y110736D01*
X125245Y110828D01*
X125231Y110841D01*
X125221Y110858D01*
X125142Y110926D01*
X125067Y110997D01*
X125049Y111005D01*
X125034Y111018D01*
X124938Y111057D01*
X124844Y111101D01*
X124824Y111103D01*
X124806Y111110D01*
X124639Y111129D01*
X121586Y111129D01*
X121566Y111126D01*
X121547Y111128D01*
X121445Y111106D01*
X121343Y111089D01*
X121326Y111080D01*
X121306Y111075D01*
X121217Y111022D01*
X121126Y110974D01*
X121112Y110960D01*
X121095Y110949D01*
X121028Y110871D01*
X120956Y110796D01*
X120948Y110778D01*
X120935Y110762D01*
X120896Y110666D01*
X120853Y110573D01*
X120851Y110553D01*
X120843Y110534D01*
X120825Y110368D01*
X120825Y109193D01*
X119932Y108300D01*
X108668Y108300D01*
X107775Y109193D01*
X107775Y111493D01*
X107772Y111514D01*
X107774Y111535D01*
X107752Y111635D01*
X107736Y111736D01*
X107726Y111754D01*
X107721Y111775D01*
X107668Y111863D01*
X107620Y111953D01*
X107605Y111968D01*
X107594Y111986D01*
X107516Y112052D01*
X107442Y112122D01*
X107423Y112131D01*
X107407Y112145D01*
X107312Y112183D01*
X107219Y112226D01*
X107198Y112228D01*
X107178Y112236D01*
X107012Y112254D01*
X-37107Y111819D01*
X-37136Y111814D01*
X-38684Y111814D01*
X-38685Y111814D01*
X-38686Y111814D01*
X-39947Y111810D01*
X-40841Y112704D01*
X-40842Y112705D01*
X-40843Y112706D01*
X-41928Y113785D01*
X-41954Y113818D01*
X-44776Y116640D01*
X-44781Y116643D01*
X-44784Y116648D01*
X-44882Y116716D01*
X-44976Y116783D01*
X-44981Y116785D01*
X-44986Y116788D01*
X-45100Y116821D01*
X-45211Y116856D01*
X-45217Y116856D01*
X-45222Y116857D01*
X-45339Y116852D01*
X-45457Y116849D01*
X-45462Y116847D01*
X-45468Y116847D01*
X-45627Y116796D01*
X-45794Y116720D01*
X-100243Y171170D01*
X-100317Y171223D01*
X-100387Y171282D01*
X-100417Y171295D01*
X-100443Y171313D01*
X-100530Y171340D01*
X-100615Y171374D01*
X-100656Y171379D01*
X-100678Y171386D01*
X-100710Y171385D01*
X-100782Y171393D01*
X-143779Y171393D01*
X-144764Y172378D01*
X-144838Y172431D01*
X-144908Y172491D01*
X-144938Y172503D01*
X-144964Y172522D01*
X-145051Y172549D01*
X-145136Y172583D01*
X-145177Y172587D01*
X-145199Y172594D01*
X-145231Y172593D01*
X-145303Y172601D01*
X-157314Y172601D01*
X-157334Y172598D01*
X-157353Y172600D01*
X-157455Y172578D01*
X-157557Y172562D01*
X-157574Y172552D01*
X-157594Y172548D01*
X-157683Y172495D01*
X-157774Y172446D01*
X-157788Y172432D01*
X-157805Y172422D01*
X-157872Y172343D01*
X-157944Y172268D01*
X-157952Y172250D01*
X-157965Y172235D01*
X-158004Y172139D01*
X-158047Y172045D01*
X-158049Y172025D01*
X-158057Y172007D01*
X-158075Y171840D01*
X-158075Y170018D01*
X-158968Y169125D01*
X-171232Y169125D01*
X-172125Y170018D01*
X-172125Y171840D01*
X-172128Y171860D01*
X-172126Y171879D01*
X-172148Y171981D01*
X-172164Y172083D01*
X-172174Y172100D01*
X-172178Y172120D01*
X-172231Y172209D01*
X-172280Y172300D01*
X-172294Y172314D01*
X-172304Y172331D01*
X-172383Y172398D01*
X-172458Y172470D01*
X-172476Y172478D01*
X-172491Y172491D01*
X-172587Y172530D01*
X-172681Y172573D01*
X-172701Y172575D01*
X-172719Y172583D01*
X-172886Y172601D01*
X-178196Y172601D01*
X-178286Y172587D01*
X-178377Y172579D01*
X-178407Y172567D01*
X-178439Y172562D01*
X-178520Y172519D01*
X-178603Y172483D01*
X-178636Y172457D01*
X-178656Y172446D01*
X-178678Y172423D01*
X-178734Y172378D01*
X-179902Y171211D01*
X-179953Y171140D01*
X-180010Y171074D01*
X-180024Y171041D01*
X-180045Y171011D01*
X-180071Y170928D01*
X-180105Y170847D01*
X-180110Y170801D01*
X-180118Y170776D01*
X-180117Y170745D01*
X-180125Y170680D01*
X-180430Y140126D01*
X-180427Y140103D01*
X-180429Y140079D01*
X-180408Y139981D01*
X-180393Y139883D01*
X-180382Y139862D01*
X-180377Y139839D01*
X-180326Y139753D01*
X-180280Y139664D01*
X-180263Y139648D01*
X-180251Y139628D01*
X-180175Y139563D01*
X-180103Y139493D01*
X-180082Y139483D01*
X-180064Y139468D01*
X-179971Y139430D01*
X-179881Y139387D01*
X-179858Y139385D01*
X-179836Y139376D01*
X-179669Y139357D01*
X-160922Y139357D01*
X-150519Y128954D01*
X-150519Y117598D01*
X-150516Y117579D01*
X-150518Y117559D01*
X-150496Y117458D01*
X-150479Y117356D01*
X-150470Y117338D01*
X-150465Y117319D01*
X-150412Y117230D01*
X-150364Y117138D01*
X-150350Y117125D01*
X-150339Y117108D01*
X-150261Y117040D01*
X-150186Y116969D01*
X-150168Y116961D01*
X-150152Y116948D01*
X-150056Y116909D01*
X-149963Y116865D01*
X-149943Y116863D01*
X-149924Y116856D01*
X-149758Y116837D01*
X-146866Y116837D01*
X-146847Y116840D01*
X-146827Y116838D01*
X-146726Y116860D01*
X-146624Y116877D01*
X-146606Y116886D01*
X-146587Y116891D01*
X-146498Y116944D01*
X-146406Y116992D01*
X-146393Y117006D01*
X-146376Y117017D01*
X-146308Y117095D01*
X-146237Y117170D01*
X-146229Y117188D01*
X-146216Y117204D01*
X-146177Y117300D01*
X-146133Y117393D01*
X-146131Y117413D01*
X-146124Y117432D01*
X-146105Y117598D01*
X-146105Y124494D01*
X-146074Y124525D01*
X-146021Y124599D01*
X-145962Y124669D01*
X-145949Y124699D01*
X-145931Y124725D01*
X-145904Y124812D01*
X-145870Y124897D01*
X-145865Y124938D01*
X-145858Y124960D01*
X-145859Y124992D01*
X-145851Y125063D01*
X-145851Y128639D01*
X-145866Y128729D01*
X-145873Y128820D01*
X-145886Y128850D01*
X-145891Y128882D01*
X-145934Y128963D01*
X-145969Y129046D01*
X-145995Y129079D01*
X-146006Y129099D01*
X-146029Y129121D01*
X-146074Y129177D01*
X-154305Y137408D01*
X-154323Y137443D01*
X-154359Y137527D01*
X-154385Y137559D01*
X-154396Y137579D01*
X-154419Y137601D01*
X-154464Y137657D01*
X-155225Y138418D01*
X-155225Y153682D01*
X-154332Y154575D01*
X-149068Y154575D01*
X-148175Y153682D01*
X-148175Y138780D01*
X-148160Y138690D01*
X-148153Y138599D01*
X-148141Y138569D01*
X-148135Y138537D01*
X-148093Y138457D01*
X-148057Y138373D01*
X-148031Y138341D01*
X-148020Y138320D01*
X-147997Y138298D01*
X-147952Y138242D01*
X-142128Y132417D01*
X-142111Y132405D01*
X-142099Y132390D01*
X-142012Y132334D01*
X-141928Y132274D01*
X-141909Y132268D01*
X-141892Y132257D01*
X-141792Y132232D01*
X-141693Y132201D01*
X-141673Y132202D01*
X-141654Y132197D01*
X-141551Y132205D01*
X-141447Y132208D01*
X-141428Y132214D01*
X-141408Y132216D01*
X-141314Y132256D01*
X-141216Y132292D01*
X-141200Y132305D01*
X-141182Y132312D01*
X-141051Y132417D01*
X-137242Y136226D01*
X-137201Y136284D01*
X-137151Y136336D01*
X-137129Y136383D01*
X-137099Y136426D01*
X-137078Y136494D01*
X-137048Y136559D01*
X-137042Y136611D01*
X-137026Y136661D01*
X-137028Y136732D01*
X-137020Y136804D01*
X-137031Y136854D01*
X-137033Y136906D01*
X-137057Y136974D01*
X-137073Y137044D01*
X-137099Y137089D01*
X-137117Y137137D01*
X-137162Y137194D01*
X-137199Y137255D01*
X-137238Y137289D01*
X-137271Y137330D01*
X-137331Y137368D01*
X-137386Y137415D01*
X-137434Y137434D01*
X-137478Y137463D01*
X-137547Y137480D01*
X-137614Y137507D01*
X-137685Y137515D01*
X-137716Y137523D01*
X-137740Y137521D01*
X-137781Y137525D01*
X-142332Y137525D01*
X-143225Y138418D01*
X-143225Y141800D01*
X-143239Y141890D01*
X-143247Y141981D01*
X-143259Y142011D01*
X-143264Y142043D01*
X-143307Y142123D01*
X-143343Y142207D01*
X-143369Y142239D01*
X-143380Y142260D01*
X-143403Y142282D01*
X-143448Y142338D01*
X-144975Y143865D01*
X-144975Y148235D01*
X-143448Y149762D01*
X-143395Y149836D01*
X-143335Y149905D01*
X-143323Y149935D01*
X-143304Y149962D01*
X-143277Y150049D01*
X-143243Y150133D01*
X-143239Y150174D01*
X-143232Y150197D01*
X-143233Y150229D01*
X-143225Y150300D01*
X-143225Y153682D01*
X-142332Y154575D01*
X-137068Y154575D01*
X-136175Y153682D01*
X-136175Y150300D01*
X-136161Y150210D01*
X-136153Y150119D01*
X-136141Y150089D01*
X-136136Y150057D01*
X-136093Y149977D01*
X-136057Y149893D01*
X-136031Y149861D01*
X-136020Y149840D01*
X-135997Y149818D01*
X-135952Y149762D01*
X-134425Y148235D01*
X-134425Y143865D01*
X-135952Y142338D01*
X-136005Y142264D01*
X-136065Y142195D01*
X-136077Y142165D01*
X-136096Y142138D01*
X-136123Y142051D01*
X-136157Y141967D01*
X-136161Y141926D01*
X-136168Y141903D01*
X-136167Y141871D01*
X-136175Y141800D01*
X-136175Y139131D01*
X-136172Y139112D01*
X-136174Y139093D01*
X-136163Y139042D01*
X-136162Y138988D01*
X-136144Y138939D01*
X-136136Y138888D01*
X-136126Y138869D01*
X-136122Y138853D01*
X-136097Y138811D01*
X-136077Y138757D01*
X-136045Y138717D01*
X-136020Y138671D01*
X-136004Y138654D01*
X-135996Y138642D01*
X-135961Y138612D01*
X-135924Y138565D01*
X-135880Y138537D01*
X-135842Y138501D01*
X-135819Y138491D01*
X-135809Y138482D01*
X-135768Y138465D01*
X-135717Y138432D01*
X-135666Y138419D01*
X-135619Y138398D01*
X-135593Y138395D01*
X-135581Y138390D01*
X-135522Y138383D01*
X-135478Y138372D01*
X-135445Y138375D01*
X-135414Y138371D01*
X-135412Y138371D01*
X-135400Y138373D01*
X-135375Y138370D01*
X-135304Y138386D01*
X-135233Y138391D01*
X-135197Y138406D01*
X-135169Y138411D01*
X-135156Y138418D01*
X-135134Y138423D01*
X-135073Y138460D01*
X-135007Y138488D01*
X-134971Y138516D01*
X-134952Y138526D01*
X-134940Y138539D01*
X-134923Y138549D01*
X-134908Y138567D01*
X-134876Y138592D01*
X-131448Y142020D01*
X-131395Y142094D01*
X-131335Y142164D01*
X-131323Y142194D01*
X-131304Y142220D01*
X-131277Y142307D01*
X-131243Y142392D01*
X-131239Y142433D01*
X-131232Y142455D01*
X-131233Y142487D01*
X-131225Y142559D01*
X-131225Y153682D01*
X-130332Y154575D01*
X-125068Y154575D01*
X-124175Y153682D01*
X-124175Y138418D01*
X-125068Y137525D01*
X-128441Y137525D01*
X-128531Y137511D01*
X-128622Y137503D01*
X-128652Y137491D01*
X-128684Y137486D01*
X-128764Y137443D01*
X-128849Y137407D01*
X-128881Y137381D01*
X-128901Y137370D01*
X-128923Y137347D01*
X-128980Y137302D01*
X-131846Y134436D01*
X-131888Y134378D01*
X-131937Y134326D01*
X-131959Y134278D01*
X-131990Y134236D01*
X-132011Y134168D01*
X-132041Y134102D01*
X-132047Y134051D01*
X-132062Y134001D01*
X-132060Y133929D01*
X-132068Y133858D01*
X-132057Y133807D01*
X-132056Y133755D01*
X-132031Y133688D01*
X-132016Y133618D01*
X-131989Y133573D01*
X-131971Y133524D01*
X-131926Y133468D01*
X-131890Y133407D01*
X-131850Y133373D01*
X-131817Y133332D01*
X-131757Y133293D01*
X-131703Y133247D01*
X-131654Y133227D01*
X-131611Y133199D01*
X-131541Y133182D01*
X-131475Y133155D01*
X-131403Y133147D01*
X-131372Y133139D01*
X-131349Y133141D01*
X-131308Y133136D01*
X-130480Y133136D01*
X-127816Y130472D01*
X-127816Y126703D01*
X-127832Y126687D01*
X-127874Y126629D01*
X-127924Y126577D01*
X-127946Y126529D01*
X-127976Y126487D01*
X-127997Y126418D01*
X-128027Y126353D01*
X-128033Y126302D01*
X-128048Y126252D01*
X-128046Y126180D01*
X-128054Y126109D01*
X-128043Y126058D01*
X-128042Y126006D01*
X-128017Y125939D01*
X-128002Y125869D01*
X-127975Y125824D01*
X-127957Y125775D01*
X-127913Y125719D01*
X-127876Y125658D01*
X-127836Y125624D01*
X-127804Y125583D01*
X-127744Y125544D01*
X-127689Y125498D01*
X-127641Y125478D01*
X-127597Y125450D01*
X-127527Y125433D01*
X-127461Y125406D01*
X-127390Y125398D01*
X-127358Y125390D01*
X-127335Y125392D01*
X-127294Y125387D01*
X-126405Y125387D01*
X-126344Y125327D01*
X-126328Y125315D01*
X-126316Y125299D01*
X-126229Y125243D01*
X-126145Y125183D01*
X-126126Y125177D01*
X-126109Y125166D01*
X-126008Y125141D01*
X-125910Y125111D01*
X-125890Y125111D01*
X-125870Y125106D01*
X-125767Y125114D01*
X-125664Y125117D01*
X-125645Y125124D01*
X-125625Y125125D01*
X-125530Y125166D01*
X-125433Y125201D01*
X-125417Y125214D01*
X-125399Y125222D01*
X-125268Y125327D01*
X-125207Y125387D01*
X-121404Y125387D01*
X-121107Y125090D01*
X-121048Y125048D01*
X-120997Y124999D01*
X-120949Y124977D01*
X-120907Y124947D01*
X-120839Y124925D01*
X-120773Y124895D01*
X-120722Y124889D01*
X-120672Y124874D01*
X-120600Y124876D01*
X-120529Y124868D01*
X-120478Y124879D01*
X-120426Y124881D01*
X-120359Y124905D01*
X-120289Y124920D01*
X-120244Y124947D01*
X-120195Y124965D01*
X-120139Y125010D01*
X-120078Y125047D01*
X-120044Y125086D01*
X-120003Y125119D01*
X-119964Y125179D01*
X-119918Y125233D01*
X-119898Y125282D01*
X-119870Y125326D01*
X-119853Y125395D01*
X-119826Y125462D01*
X-119818Y125533D01*
X-119810Y125564D01*
X-119812Y125587D01*
X-119807Y125628D01*
X-119807Y138145D01*
X-112535Y145418D01*
X-112482Y145492D01*
X-112422Y145561D01*
X-112410Y145591D01*
X-112391Y145617D01*
X-112364Y145704D01*
X-112330Y145789D01*
X-112326Y145830D01*
X-112319Y145853D01*
X-112320Y145885D01*
X-112312Y145956D01*
X-112312Y148121D01*
X-109647Y150786D01*
X-105879Y150786D01*
X-103539Y148446D01*
X-103523Y148434D01*
X-103510Y148419D01*
X-103423Y148362D01*
X-103339Y148302D01*
X-103320Y148296D01*
X-103303Y148286D01*
X-103203Y148260D01*
X-103104Y148230D01*
X-103084Y148230D01*
X-103065Y148225D01*
X-102962Y148233D01*
X-102858Y148236D01*
X-102839Y148243D01*
X-102819Y148245D01*
X-102725Y148285D01*
X-102627Y148321D01*
X-102611Y148333D01*
X-102593Y148341D01*
X-102462Y148446D01*
X-100309Y150599D01*
X-96541Y150599D01*
X-93876Y147934D01*
X-93876Y144166D01*
X-96541Y141501D01*
X-98706Y141501D01*
X-98796Y141487D01*
X-98887Y141479D01*
X-98917Y141467D01*
X-98949Y141462D01*
X-99029Y141419D01*
X-99113Y141383D01*
X-99145Y141357D01*
X-99166Y141346D01*
X-99188Y141323D01*
X-99244Y141278D01*
X-106520Y134003D01*
X-106573Y133929D01*
X-106632Y133859D01*
X-106645Y133829D01*
X-106663Y133803D01*
X-106690Y133716D01*
X-106724Y133631D01*
X-106729Y133590D01*
X-106736Y133568D01*
X-106735Y133536D01*
X-106743Y133465D01*
X-106743Y111555D01*
X-109630Y108668D01*
X-109641Y108652D01*
X-109657Y108639D01*
X-109713Y108552D01*
X-109773Y108468D01*
X-109779Y108449D01*
X-109790Y108432D01*
X-109815Y108332D01*
X-109846Y108233D01*
X-109845Y108213D01*
X-109850Y108194D01*
X-109842Y108091D01*
X-109839Y107987D01*
X-109832Y107968D01*
X-109831Y107949D01*
X-109791Y107854D01*
X-109755Y107756D01*
X-109742Y107741D01*
X-109735Y107722D01*
X-109630Y107591D01*
X-92623Y90584D01*
X-92549Y90531D01*
X-92479Y90472D01*
X-92449Y90459D01*
X-92423Y90441D01*
X-92336Y90414D01*
X-92251Y90380D01*
X-92210Y90375D01*
X-92188Y90368D01*
X-92156Y90369D01*
X-92084Y90361D01*
X132939Y90361D01*
X132959Y90364D01*
X132978Y90362D01*
X133080Y90384D01*
X133182Y90401D01*
X133199Y90410D01*
X133219Y90415D01*
X133308Y90468D01*
X133399Y90516D01*
X133413Y90530D01*
X133430Y90541D01*
X133497Y90619D01*
X133569Y90694D01*
X133577Y90712D01*
X133590Y90728D01*
X133629Y90824D01*
X133672Y90917D01*
X133674Y90937D01*
X133682Y90956D01*
X133700Y91122D01*
X133700Y102469D01*
X134593Y103362D01*
X139065Y103362D01*
X139085Y103365D01*
X139104Y103363D01*
X139206Y103385D01*
X139308Y103402D01*
X139325Y103411D01*
X139345Y103416D01*
X139434Y103469D01*
X139525Y103517D01*
X139539Y103531D01*
X139556Y103542D01*
X139623Y103620D01*
X139695Y103695D01*
X139703Y103713D01*
X139716Y103729D01*
X139755Y103825D01*
X139798Y103918D01*
X139800Y103938D01*
X139808Y103957D01*
X139826Y104123D01*
X139826Y104252D01*
X139823Y104271D01*
X139825Y104291D01*
X139803Y104392D01*
X139787Y104494D01*
X139777Y104512D01*
X139773Y104531D01*
X139720Y104620D01*
X139671Y104712D01*
X139657Y104725D01*
X139647Y104742D01*
X139568Y104810D01*
X139493Y104881D01*
X139475Y104889D01*
X139460Y104902D01*
X139364Y104941D01*
X139270Y104985D01*
X139250Y104987D01*
X139232Y104994D01*
X139065Y105013D01*
X138993Y105013D01*
X138100Y105906D01*
X138100Y122449D01*
X138993Y123342D01*
X146757Y123342D01*
X147650Y122449D01*
X147650Y105906D01*
X146757Y105013D01*
X146685Y105013D01*
X146665Y105010D01*
X146646Y105012D01*
X146544Y104990D01*
X146442Y104973D01*
X146425Y104964D01*
X146405Y104959D01*
X146316Y104906D01*
X146225Y104858D01*
X146211Y104844D01*
X146194Y104833D01*
X146127Y104755D01*
X146055Y104680D01*
X146047Y104662D01*
X146034Y104646D01*
X145995Y104550D01*
X145952Y104457D01*
X145950Y104437D01*
X145942Y104418D01*
X145924Y104252D01*
X145924Y104123D01*
X145927Y104104D01*
X145925Y104084D01*
X145947Y103983D01*
X145963Y103881D01*
X145973Y103863D01*
X145977Y103844D01*
X146030Y103755D01*
X146079Y103663D01*
X146093Y103650D01*
X146103Y103633D01*
X146182Y103565D01*
X146257Y103494D01*
X146275Y103486D01*
X146290Y103473D01*
X146386Y103434D01*
X146480Y103390D01*
X146500Y103388D01*
X146518Y103381D01*
X146685Y103362D01*
X146857Y103362D01*
X147750Y102469D01*
X147750Y91206D01*
X147473Y90929D01*
X147427Y90866D01*
X147403Y90841D01*
X147399Y90831D01*
X147360Y90785D01*
X147348Y90755D01*
X147329Y90729D01*
X147302Y90642D01*
X147268Y90557D01*
X147264Y90516D01*
X147257Y90494D01*
X147258Y90462D01*
X147250Y90391D01*
X147250Y81181D01*
X146357Y80288D01*
X135093Y80288D01*
X134200Y81181D01*
X134200Y83503D01*
X134197Y83522D01*
X134199Y83542D01*
X134177Y83643D01*
X134161Y83745D01*
X134151Y83763D01*
X134147Y83782D01*
X134094Y83871D01*
X134045Y83963D01*
X134031Y83976D01*
X134021Y83993D01*
X133942Y84061D01*
X133867Y84132D01*
X133849Y84140D01*
X133834Y84153D01*
X133738Y84192D01*
X133644Y84236D01*
X133624Y84238D01*
X133606Y84245D01*
X133439Y84264D01*
X-94925Y84264D01*
X-111438Y100777D01*
X-111496Y100818D01*
X-111548Y100868D01*
X-111596Y100890D01*
X-111638Y100920D01*
X-111706Y100941D01*
X-111772Y100972D01*
X-111823Y100977D01*
X-111873Y100993D01*
X-111945Y100991D01*
X-112016Y100999D01*
X-112067Y100988D01*
X-112119Y100986D01*
X-112186Y100962D01*
X-112256Y100946D01*
X-112301Y100920D01*
X-112350Y100902D01*
X-112406Y100857D01*
X-112467Y100820D01*
X-112501Y100781D01*
X-112542Y100748D01*
X-112581Y100688D01*
X-112627Y100633D01*
X-112647Y100585D01*
X-112675Y100541D01*
X-112692Y100472D01*
X-112719Y100405D01*
X-112727Y100334D01*
X-112735Y100303D01*
X-112733Y100279D01*
X-112738Y100238D01*
X-112738Y97914D01*
X-112798Y97853D01*
X-112810Y97837D01*
X-112826Y97825D01*
X-112882Y97738D01*
X-112942Y97654D01*
X-112948Y97635D01*
X-112959Y97618D01*
X-112984Y97517D01*
X-113014Y97419D01*
X-113014Y97399D01*
X-113019Y97379D01*
X-113011Y97276D01*
X-113008Y97173D01*
X-113001Y97154D01*
X-113000Y97134D01*
X-112959Y97039D01*
X-112924Y96942D01*
X-112911Y96926D01*
X-112903Y96908D01*
X-112798Y96777D01*
X-112738Y96716D01*
X-112738Y92913D01*
X-112798Y92852D01*
X-112810Y92836D01*
X-112826Y92824D01*
X-112882Y92737D01*
X-112942Y92653D01*
X-112948Y92634D01*
X-112959Y92617D01*
X-112984Y92516D01*
X-113014Y92418D01*
X-113014Y92398D01*
X-113019Y92378D01*
X-113011Y92275D01*
X-113008Y92172D01*
X-113001Y92153D01*
X-113000Y92133D01*
X-112959Y92038D01*
X-112924Y91941D01*
X-112911Y91925D01*
X-112903Y91907D01*
X-112798Y91776D01*
X-112738Y91715D01*
X-112738Y87912D01*
X-112799Y87851D01*
X-112811Y87835D01*
X-112826Y87822D01*
X-112882Y87735D01*
X-112942Y87651D01*
X-112948Y87632D01*
X-112959Y87615D01*
X-112984Y87515D01*
X-113015Y87416D01*
X-113014Y87396D01*
X-113019Y87377D01*
X-113011Y87274D01*
X-113008Y87170D01*
X-113002Y87151D01*
X-113000Y87132D01*
X-112960Y87036D01*
X-112924Y86939D01*
X-112912Y86923D01*
X-112904Y86905D01*
X-112799Y86774D01*
X-112738Y86713D01*
X-112738Y83620D01*
X-112735Y83601D01*
X-112737Y83581D01*
X-112715Y83480D01*
X-112698Y83378D01*
X-112689Y83360D01*
X-112684Y83341D01*
X-112631Y83252D01*
X-112583Y83160D01*
X-112569Y83147D01*
X-112558Y83130D01*
X-112480Y83062D01*
X-112405Y82991D01*
X-112387Y82983D01*
X-112371Y82970D01*
X-112275Y82931D01*
X-112182Y82887D01*
X-112162Y82885D01*
X-112143Y82878D01*
X-111977Y82859D01*
X-104510Y82859D01*
X-99448Y77797D01*
X-99374Y77744D01*
X-99304Y77684D01*
X-99274Y77672D01*
X-99248Y77653D01*
X-99161Y77626D01*
X-99076Y77592D01*
X-99035Y77588D01*
X-99013Y77581D01*
X-98981Y77582D01*
X-98909Y77574D01*
X-97103Y77574D01*
X-94439Y74909D01*
X-94439Y71141D01*
X-97103Y68476D01*
X-100872Y68476D01*
X-103536Y71141D01*
X-103536Y72947D01*
X-103551Y73037D01*
X-103558Y73128D01*
X-103571Y73158D01*
X-103576Y73190D01*
X-103619Y73270D01*
X-103654Y73354D01*
X-103680Y73386D01*
X-103691Y73407D01*
X-103714Y73429D01*
X-103759Y73485D01*
X-106813Y76539D01*
X-106887Y76592D01*
X-106956Y76651D01*
X-106986Y76664D01*
X-107013Y76682D01*
X-107100Y76709D01*
X-107184Y76743D01*
X-107225Y76748D01*
X-107248Y76755D01*
X-107280Y76754D01*
X-107351Y76762D01*
X-111977Y76762D01*
X-111996Y76759D01*
X-112016Y76761D01*
X-112117Y76739D01*
X-112219Y76722D01*
X-112237Y76713D01*
X-112256Y76708D01*
X-112345Y76655D01*
X-112437Y76607D01*
X-112450Y76593D01*
X-112467Y76582D01*
X-112535Y76504D01*
X-112606Y76429D01*
X-112614Y76411D01*
X-112627Y76395D01*
X-112666Y76299D01*
X-112710Y76206D01*
X-112712Y76186D01*
X-112719Y76167D01*
X-112738Y76001D01*
X-112738Y73110D01*
X-112735Y73091D01*
X-112737Y73071D01*
X-112715Y72970D01*
X-112698Y72868D01*
X-112689Y72850D01*
X-112684Y72831D01*
X-112631Y72742D01*
X-112583Y72650D01*
X-112569Y72637D01*
X-112558Y72620D01*
X-112480Y72552D01*
X-112405Y72481D01*
X-112387Y72473D01*
X-112371Y72460D01*
X-112275Y72421D01*
X-112182Y72377D01*
X-112162Y72375D01*
X-112143Y72368D01*
X-111977Y72349D01*
X-108177Y72349D01*
X-70068Y34240D01*
X-70068Y14287D01*
X-70065Y14268D01*
X-70067Y14248D01*
X-70045Y14147D01*
X-70028Y14045D01*
X-70019Y14027D01*
X-70015Y14008D01*
X-69962Y13919D01*
X-69913Y13827D01*
X-69899Y13814D01*
X-69889Y13797D01*
X-69810Y13729D01*
X-69735Y13658D01*
X-69717Y13650D01*
X-69702Y13637D01*
X-69605Y13598D01*
X-69512Y13554D01*
X-69492Y13552D01*
X-69474Y13545D01*
X-69307Y13526D01*
X-18000Y13526D01*
G37*
G36*
X-188473Y117375D02*
X-188473Y117375D01*
X-188382Y117382D01*
X-188353Y117395D01*
X-188321Y117400D01*
X-188240Y117443D01*
X-188156Y117478D01*
X-188124Y117504D01*
X-188103Y117515D01*
X-188081Y117538D01*
X-188025Y117583D01*
X-187994Y117614D01*
X-182935Y117614D01*
X-182919Y117617D01*
X-182903Y117615D01*
X-182797Y117637D01*
X-182692Y117654D01*
X-182678Y117661D01*
X-182662Y117665D01*
X-182569Y117719D01*
X-182474Y117769D01*
X-182463Y117781D01*
X-182449Y117789D01*
X-182379Y117870D01*
X-182305Y117947D01*
X-182298Y117962D01*
X-182288Y117974D01*
X-182247Y118073D01*
X-182201Y118170D01*
X-182200Y118186D01*
X-182194Y118201D01*
X-182173Y118368D01*
X-182027Y132999D01*
X-182031Y133022D01*
X-182028Y133046D01*
X-182049Y133143D01*
X-182064Y133242D01*
X-182075Y133263D01*
X-182080Y133286D01*
X-182132Y133372D01*
X-182177Y133461D01*
X-182194Y133477D01*
X-182207Y133497D01*
X-182282Y133562D01*
X-182354Y133632D01*
X-182375Y133642D01*
X-182393Y133657D01*
X-182486Y133695D01*
X-182576Y133738D01*
X-182599Y133740D01*
X-182622Y133749D01*
X-182788Y133768D01*
X-185908Y133768D01*
X-190682Y138542D01*
X-190682Y138764D01*
X-190685Y138784D01*
X-190683Y138803D01*
X-190705Y138905D01*
X-190722Y139007D01*
X-190731Y139024D01*
X-190736Y139044D01*
X-190789Y139133D01*
X-190837Y139224D01*
X-190851Y139238D01*
X-190862Y139255D01*
X-190940Y139322D01*
X-191015Y139394D01*
X-191033Y139402D01*
X-191049Y139415D01*
X-191145Y139454D01*
X-191238Y139497D01*
X-191258Y139499D01*
X-191277Y139507D01*
X-191443Y139525D01*
X-194019Y139525D01*
X-194912Y140418D01*
X-194912Y147377D01*
X-194915Y147396D01*
X-194913Y147416D01*
X-194935Y147517D01*
X-194952Y147619D01*
X-194961Y147637D01*
X-194966Y147656D01*
X-195019Y147745D01*
X-195067Y147837D01*
X-195081Y147850D01*
X-195092Y147867D01*
X-195170Y147935D01*
X-195245Y148006D01*
X-195263Y148014D01*
X-195279Y148027D01*
X-195375Y148066D01*
X-195468Y148110D01*
X-195488Y148112D01*
X-195507Y148119D01*
X-195673Y148138D01*
X-196019Y148138D01*
X-196912Y149031D01*
X-196912Y165294D01*
X-196019Y166187D01*
X-192697Y166187D01*
X-192678Y166190D01*
X-192658Y166188D01*
X-192557Y166210D01*
X-192455Y166227D01*
X-192437Y166236D01*
X-192418Y166241D01*
X-192329Y166294D01*
X-192237Y166342D01*
X-192224Y166356D01*
X-192207Y166367D01*
X-192139Y166445D01*
X-192068Y166520D01*
X-192060Y166538D01*
X-192047Y166554D01*
X-192008Y166650D01*
X-191964Y166743D01*
X-191962Y166763D01*
X-191955Y166782D01*
X-191936Y166948D01*
X-191936Y167800D01*
X-181037Y178699D01*
X-172886Y178699D01*
X-172866Y178702D01*
X-172847Y178700D01*
X-172745Y178722D01*
X-172643Y178738D01*
X-172626Y178748D01*
X-172606Y178752D01*
X-172517Y178805D01*
X-172426Y178854D01*
X-172412Y178868D01*
X-172395Y178878D01*
X-172328Y178957D01*
X-172256Y179032D01*
X-172248Y179050D01*
X-172235Y179065D01*
X-172196Y179161D01*
X-172153Y179255D01*
X-172151Y179275D01*
X-172143Y179293D01*
X-172125Y179460D01*
X-172125Y181282D01*
X-171232Y182175D01*
X-158968Y182175D01*
X-158075Y181282D01*
X-158075Y179460D01*
X-158072Y179440D01*
X-158074Y179421D01*
X-158052Y179319D01*
X-158036Y179217D01*
X-158026Y179200D01*
X-158022Y179180D01*
X-157969Y179091D01*
X-157920Y179000D01*
X-157906Y178986D01*
X-157896Y178969D01*
X-157817Y178902D01*
X-157742Y178830D01*
X-157724Y178822D01*
X-157709Y178809D01*
X-157613Y178770D01*
X-157519Y178727D01*
X-157499Y178725D01*
X-157481Y178717D01*
X-157314Y178699D01*
X-142462Y178699D01*
X-141476Y177713D01*
X-141402Y177660D01*
X-141333Y177601D01*
X-141302Y177588D01*
X-141276Y177570D01*
X-141189Y177543D01*
X-141104Y177509D01*
X-141063Y177504D01*
X-141041Y177497D01*
X-141009Y177498D01*
X-140938Y177490D01*
X-97004Y177490D01*
X-94995Y175482D01*
X-94995Y175481D01*
X-40729Y121216D01*
X-40725Y121213D01*
X-40721Y121208D01*
X-40624Y121140D01*
X-40529Y121072D01*
X-40524Y121071D01*
X-40520Y121067D01*
X-40406Y121034D01*
X-40294Y121000D01*
X-40289Y121000D01*
X-40283Y120998D01*
X-40166Y121003D01*
X-40048Y121006D01*
X-40043Y121008D01*
X-40038Y121008D01*
X-39878Y121060D01*
X46960Y160198D01*
X46992Y160220D01*
X47028Y160233D01*
X47094Y160287D01*
X47165Y160334D01*
X47189Y160365D01*
X47218Y160389D01*
X47264Y160461D01*
X47265Y160463D01*
X47275Y160474D01*
X47278Y160480D01*
X47316Y160528D01*
X47328Y160565D01*
X47349Y160598D01*
X47366Y160670D01*
X47379Y160697D01*
X47381Y160714D01*
X47397Y160761D01*
X47397Y160799D01*
X47406Y160837D01*
X47403Y160918D01*
X47406Y160941D01*
X47402Y160961D01*
X47400Y161005D01*
X42279Y195279D01*
X42267Y195317D01*
X42264Y195356D01*
X42243Y195403D01*
X42236Y195438D01*
X42220Y195464D01*
X42204Y195514D01*
X42181Y195545D01*
X42165Y195581D01*
X42121Y195630D01*
X42110Y195649D01*
X42096Y195661D01*
X42058Y195712D01*
X42026Y195734D01*
X42000Y195763D01*
X41931Y195801D01*
X41923Y195809D01*
X41915Y195812D01*
X41857Y195853D01*
X41819Y195864D01*
X41785Y195883D01*
X41702Y195898D01*
X41696Y195900D01*
X41694Y195901D01*
X41621Y195922D01*
X41582Y195921D01*
X41543Y195928D01*
X41460Y195916D01*
X41375Y195913D01*
X41338Y195899D01*
X41299Y195894D01*
X41146Y195826D01*
X16967Y181867D01*
X16139Y183625D01*
X16122Y183648D01*
X16112Y183676D01*
X16063Y183728D01*
X16020Y183785D01*
X15995Y183799D01*
X15975Y183820D01*
X15910Y183849D01*
X15849Y183885D01*
X15820Y183889D01*
X15793Y183900D01*
X15722Y183901D01*
X15652Y183910D01*
X15624Y183903D01*
X15594Y183903D01*
X15501Y183868D01*
X15460Y183857D01*
X15451Y183850D01*
X15438Y183845D01*
X-813Y174489D01*
X-17063Y183845D01*
X-17091Y183854D01*
X-17115Y183871D01*
X-17185Y183886D01*
X-17252Y183908D01*
X-17281Y183906D01*
X-17310Y183912D01*
X-17379Y183898D01*
X-17450Y183892D01*
X-17476Y183879D01*
X-17505Y183873D01*
X-17564Y183833D01*
X-17627Y183801D01*
X-17645Y183778D01*
X-17669Y183762D01*
X-17726Y183680D01*
X-17753Y183647D01*
X-17756Y183636D01*
X-17764Y183625D01*
X-18592Y181867D01*
X-51177Y200679D01*
X-51284Y200720D01*
X-51390Y200763D01*
X-51399Y200763D01*
X-51407Y200766D01*
X-51521Y200770D01*
X-51635Y200777D01*
X-51644Y200775D01*
X-51652Y200775D01*
X-51763Y200743D01*
X-51873Y200713D01*
X-51880Y200708D01*
X-51888Y200705D01*
X-51982Y200639D01*
X-52077Y200576D01*
X-52084Y200568D01*
X-52090Y200564D01*
X-52103Y200546D01*
X-52186Y200449D01*
X-52387Y200154D01*
X-52387Y200153D01*
X-52496Y199993D01*
X-52511Y199962D01*
X-52533Y199935D01*
X-52563Y199851D01*
X-52600Y199770D01*
X-52604Y199736D01*
X-52616Y199703D01*
X-52622Y199624D01*
X-53059Y199152D01*
X-53077Y199125D01*
X-53130Y199063D01*
X-53424Y198631D01*
X-53425Y198631D01*
X-53491Y198534D01*
X-53556Y198503D01*
X-53639Y198473D01*
X-53666Y198451D01*
X-53698Y198436D01*
X-53825Y198327D01*
X-55323Y196711D01*
X-55342Y196682D01*
X-55368Y196658D01*
X-55410Y196580D01*
X-55459Y196506D01*
X-55468Y196472D01*
X-55485Y196441D01*
X-55502Y196364D01*
X-56005Y195963D01*
X-56027Y195938D01*
X-56089Y195885D01*
X-56524Y195416D01*
X-56593Y195395D01*
X-56680Y195377D01*
X-56710Y195360D01*
X-56743Y195350D01*
X-56885Y195261D01*
X-58608Y193886D01*
X-58631Y193860D01*
X-58660Y193840D01*
X-58713Y193769D01*
X-58773Y193703D01*
X-58787Y193671D01*
X-58807Y193644D01*
X-58836Y193570D01*
X-59393Y193248D01*
X-59419Y193227D01*
X-59488Y193184D01*
X-59988Y192784D01*
X-60059Y192774D01*
X-60148Y192770D01*
X-60180Y192757D01*
X-60214Y192752D01*
X-60368Y192685D01*
X-62277Y191582D01*
X-62304Y191560D01*
X-62335Y191545D01*
X-62398Y191483D01*
X-62467Y191426D01*
X-62485Y191397D01*
X-62510Y191373D01*
X-62550Y191304D01*
X-63149Y191068D01*
X-63177Y191052D01*
X-63251Y191019D01*
X-63806Y190699D01*
X-63877Y190699D01*
X-63966Y190708D01*
X-64000Y190700D01*
X-64034Y190701D01*
X-64196Y190657D01*
X-66248Y189851D01*
X-66278Y189833D01*
X-66311Y189823D01*
X-66383Y189771D01*
X-66459Y189725D01*
X-66482Y189699D01*
X-66510Y189679D01*
X-66559Y189616D01*
X-67187Y189473D01*
X-67217Y189460D01*
X-67295Y189439D01*
X-67891Y189205D01*
X-67962Y189217D01*
X-68048Y189238D01*
X-68083Y189236D01*
X-68117Y189241D01*
X-68284Y189222D01*
X-70433Y188731D01*
X-70465Y188718D01*
X-70499Y188713D01*
X-70578Y188672D01*
X-70660Y188638D01*
X-70687Y188616D01*
X-70718Y188600D01*
X-70776Y188545D01*
X-71417Y188497D01*
X-71449Y188489D01*
X-71530Y188480D01*
X-72154Y188337D01*
X-72222Y188359D01*
X-72305Y188394D01*
X-72339Y188396D01*
X-72372Y188407D01*
X-72540Y188413D01*
X-74738Y188247D01*
X-74771Y188239D01*
X-74806Y188239D01*
X-74890Y188210D01*
X-74977Y188189D01*
X-75006Y188171D01*
X-75039Y188160D01*
X-75104Y188115D01*
X-75746Y188163D01*
X-75779Y188160D01*
X-75860Y188163D01*
X-76499Y188115D01*
X-76563Y188147D01*
X-76639Y188193D01*
X-76673Y188200D01*
X-76704Y188216D01*
X-76869Y188247D01*
X-79067Y188411D01*
X-79101Y188408D01*
X-79136Y188413D01*
X-79223Y188397D01*
X-79312Y188389D01*
X-79343Y188375D01*
X-79378Y188369D01*
X-79449Y188334D01*
X-80077Y188477D01*
X-80110Y188479D01*
X-80189Y188494D01*
X-80828Y188542D01*
X-80887Y188583D01*
X-80955Y188640D01*
X-80987Y188653D01*
X-81016Y188672D01*
X-81174Y188728D01*
X-82695Y189074D01*
X-82748Y189077D01*
X-82800Y189090D01*
X-82870Y189085D01*
X-82940Y189089D01*
X-82992Y189076D01*
X-83045Y189071D01*
X-83110Y189044D01*
X-83178Y189025D01*
X-83222Y188996D01*
X-83271Y188975D01*
X-83347Y188914D01*
X-83349Y188913D01*
X-83352Y188911D01*
X-83359Y188905D01*
X-83383Y188889D01*
X-83389Y188881D01*
X-83402Y188870D01*
X-84128Y188144D01*
X-84181Y188070D01*
X-84241Y188001D01*
X-84253Y187971D01*
X-84272Y187945D01*
X-84299Y187858D01*
X-84333Y187773D01*
X-84337Y187732D01*
X-84344Y187710D01*
X-84343Y187677D01*
X-84351Y187606D01*
X-84351Y185441D01*
X-87016Y182776D01*
X-90784Y182776D01*
X-93449Y185441D01*
X-93449Y189209D01*
X-91193Y191465D01*
X-91126Y191557D01*
X-91058Y191648D01*
X-91055Y191657D01*
X-91050Y191665D01*
X-91016Y191773D01*
X-90980Y191882D01*
X-90980Y191891D01*
X-90977Y191900D01*
X-90980Y192014D01*
X-90980Y192128D01*
X-90983Y192136D01*
X-90984Y192145D01*
X-91023Y192253D01*
X-91059Y192361D01*
X-91065Y192368D01*
X-91068Y192377D01*
X-91139Y192465D01*
X-91208Y192556D01*
X-91216Y192561D01*
X-91222Y192569D01*
X-91318Y192630D01*
X-91412Y192694D01*
X-91421Y192697D01*
X-91429Y192702D01*
X-91539Y192729D01*
X-91579Y192740D01*
X-92122Y193173D01*
X-92151Y193189D01*
X-92216Y193237D01*
X-92771Y193557D01*
X-92806Y193620D01*
X-92843Y193701D01*
X-92866Y193726D01*
X-92883Y193756D01*
X-93002Y193875D01*
X-94726Y195248D01*
X-94756Y195265D01*
X-94782Y195289D01*
X-94863Y195325D01*
X-94941Y195369D01*
X-94975Y195375D01*
X-95006Y195389D01*
X-95085Y195401D01*
X-95523Y195873D01*
X-95549Y195893D01*
X-95606Y195950D01*
X-96107Y196349D01*
X-96133Y196416D01*
X-96157Y196502D01*
X-96176Y196530D01*
X-96189Y196563D01*
X-96289Y196697D01*
X-97788Y198313D01*
X-97816Y198334D01*
X-97837Y198361D01*
X-97912Y198409D01*
X-97983Y198464D01*
X-98015Y198475D01*
X-98045Y198494D01*
X-98120Y198517D01*
X-98483Y199049D01*
X-98506Y199072D01*
X-98554Y199137D01*
X-98990Y199607D01*
X-99005Y199677D01*
X-99016Y199765D01*
X-99031Y199796D01*
X-99039Y199830D01*
X-99117Y199978D01*
X-100360Y201799D01*
X-100384Y201824D01*
X-100401Y201854D01*
X-100468Y201913D01*
X-100529Y201977D01*
X-100560Y201993D01*
X-100586Y202016D01*
X-100658Y202051D01*
X-100937Y202630D01*
X-100956Y202657D01*
X-100994Y202729D01*
X-101355Y203258D01*
X-101360Y203329D01*
X-101358Y203418D01*
X-101368Y203451D01*
X-101370Y203486D01*
X-101426Y203644D01*
X-102383Y205630D01*
X-102403Y205658D01*
X-102415Y205690D01*
X-102473Y205758D01*
X-102524Y205831D01*
X-102552Y205852D01*
X-102574Y205878D01*
X-102640Y205923D01*
X-102830Y206538D01*
X-102845Y206567D01*
X-102871Y206644D01*
X-103150Y207221D01*
X-103144Y207292D01*
X-103128Y207380D01*
X-103133Y207414D01*
X-103130Y207449D01*
X-103162Y207613D01*
X-103812Y209719D01*
X-103828Y209750D01*
X-103836Y209784D01*
X-103882Y209860D01*
X-103922Y209939D01*
X-103946Y209964D01*
X-103965Y209994D01*
X-104023Y210047D01*
X-104119Y210684D01*
X-104129Y210715D01*
X-104144Y210795D01*
X-104333Y211407D01*
X-104317Y211476D01*
X-104289Y211561D01*
X-104289Y211595D01*
X-104281Y211629D01*
X-104287Y211797D01*
X-104616Y213976D01*
X-104627Y214009D01*
X-104630Y214044D01*
X-104665Y214126D01*
X-104692Y214210D01*
X-104713Y214238D01*
X-104726Y214270D01*
X-104776Y214332D01*
X-104776Y214976D01*
X-104778Y214985D01*
X-104777Y214990D01*
X-104781Y215010D01*
X-104784Y215089D01*
X-104880Y215722D01*
X-104853Y215789D01*
X-104813Y215868D01*
X-104808Y215902D01*
X-104795Y215934D01*
X-104776Y216101D01*
X-104777Y218305D01*
X-104783Y218340D01*
X-104780Y218374D01*
X-104802Y218460D01*
X-104817Y218548D01*
X-104833Y218579D01*
X-104842Y218612D01*
X-104882Y218681D01*
X-104786Y219317D01*
X-104786Y219350D01*
X-104777Y219431D01*
X-104778Y220071D01*
X-104741Y220133D01*
X-104689Y220205D01*
X-104679Y220238D01*
X-104662Y220268D01*
X-104618Y220430D01*
X-104291Y222610D01*
X-104291Y222645D01*
X-104283Y222679D01*
X-104293Y222767D01*
X-104294Y222856D01*
X-104305Y222889D01*
X-104309Y222923D01*
X-104338Y222997D01*
X-104149Y223612D01*
X-104144Y223645D01*
X-104123Y223723D01*
X-104028Y224356D01*
X-103983Y224412D01*
X-103921Y224476D01*
X-103906Y224507D01*
X-103884Y224534D01*
X-103817Y224688D01*
X-103168Y226794D01*
X-103163Y226829D01*
X-103151Y226861D01*
X-103147Y226950D01*
X-103135Y227038D01*
X-103141Y227072D01*
X-103139Y227107D01*
X-103157Y227184D01*
X-102878Y227764D01*
X-102869Y227796D01*
X-102837Y227870D01*
X-102648Y228482D01*
X-102595Y228530D01*
X-102524Y228584D01*
X-102505Y228613D01*
X-102479Y228636D01*
X-102390Y228778D01*
X-102143Y229291D01*
X-102111Y229400D01*
X-102076Y229509D01*
X-102077Y229518D01*
X-102074Y229527D01*
X-102078Y229640D01*
X-102080Y229755D01*
X-102083Y229764D01*
X-102083Y229773D01*
X-102124Y229879D01*
X-102162Y229987D01*
X-102168Y229994D01*
X-102171Y230003D01*
X-102243Y230091D01*
X-102314Y230181D01*
X-102322Y230187D01*
X-102327Y230193D01*
X-102347Y230205D01*
X-102449Y230280D01*
X-135032Y249092D01*
X-133902Y250729D01*
X-133890Y250756D01*
X-133872Y250778D01*
X-133852Y250846D01*
X-133824Y250912D01*
X-133823Y250941D01*
X-133815Y250968D01*
X-133823Y251040D01*
X-133823Y251111D01*
X-133834Y251137D01*
X-133837Y251166D01*
X-133873Y251228D01*
X-133900Y251294D01*
X-133921Y251314D01*
X-133935Y251339D01*
X-134012Y251403D01*
X-134043Y251433D01*
X-134053Y251437D01*
X-134063Y251445D01*
X-150563Y260945D01*
X-150636Y260969D01*
X-150707Y261000D01*
X-150730Y261001D01*
X-150752Y261008D01*
X-150829Y261002D01*
X-150906Y261003D01*
X-150930Y260994D01*
X-150950Y260992D01*
X-150990Y260972D01*
X-151062Y260945D01*
X-167562Y251445D01*
X-167583Y251426D01*
X-167610Y251414D01*
X-167657Y251361D01*
X-167711Y251314D01*
X-167723Y251288D01*
X-167743Y251266D01*
X-167766Y251199D01*
X-167797Y251134D01*
X-167798Y251105D01*
X-167807Y251078D01*
X-167803Y251007D01*
X-167806Y250936D01*
X-167796Y250909D01*
X-167794Y250880D01*
X-167751Y250789D01*
X-167737Y250749D01*
X-167729Y250741D01*
X-167723Y250729D01*
X-166593Y249092D01*
X-199176Y230280D01*
X-199265Y230207D01*
X-199355Y230138D01*
X-199360Y230130D01*
X-199367Y230125D01*
X-199428Y230027D01*
X-199490Y229932D01*
X-199493Y229924D01*
X-199497Y229916D01*
X-199524Y229805D01*
X-199553Y229695D01*
X-199553Y229686D01*
X-199555Y229677D01*
X-199545Y229563D01*
X-199537Y229449D01*
X-199534Y229439D01*
X-199533Y229432D01*
X-199524Y229411D01*
X-199482Y229291D01*
X-199235Y228778D01*
X-199215Y228750D01*
X-199202Y228718D01*
X-199145Y228649D01*
X-199094Y228577D01*
X-199066Y228556D01*
X-199043Y228530D01*
X-198978Y228485D01*
X-198788Y227870D01*
X-198774Y227840D01*
X-198747Y227764D01*
X-198469Y227187D01*
X-198475Y227115D01*
X-198491Y227028D01*
X-198485Y226994D01*
X-198488Y226959D01*
X-198457Y226794D01*
X-197808Y224688D01*
X-197792Y224657D01*
X-197785Y224623D01*
X-197738Y224547D01*
X-197698Y224467D01*
X-197674Y224443D01*
X-197656Y224413D01*
X-197597Y224360D01*
X-197502Y223723D01*
X-197492Y223692D01*
X-197476Y223612D01*
X-197288Y223000D01*
X-197304Y222930D01*
X-197333Y222846D01*
X-197333Y222811D01*
X-197341Y222778D01*
X-197334Y222610D01*
X-197007Y220430D01*
X-196996Y220397D01*
X-196993Y220363D01*
X-196958Y220281D01*
X-196931Y220196D01*
X-196911Y220168D01*
X-196897Y220136D01*
X-196847Y220074D01*
X-196848Y219431D01*
X-196842Y219398D01*
X-196839Y219317D01*
X-196744Y218684D01*
X-196771Y218617D01*
X-196811Y218538D01*
X-196816Y218504D01*
X-196829Y218472D01*
X-196848Y218305D01*
X-196849Y216101D01*
X-196843Y216067D01*
X-196846Y216032D01*
X-196823Y215946D01*
X-196809Y215858D01*
X-196793Y215828D01*
X-196784Y215794D01*
X-196744Y215726D01*
X-196841Y215089D01*
X-196840Y215056D01*
X-196849Y214976D01*
X-196849Y214335D01*
X-196886Y214273D01*
X-196938Y214201D01*
X-196948Y214168D01*
X-196965Y214138D01*
X-197009Y213976D01*
X-197338Y211797D01*
X-197337Y211762D01*
X-197345Y211728D01*
X-197336Y211640D01*
X-197335Y211551D01*
X-197323Y211518D01*
X-197320Y211484D01*
X-197291Y211410D01*
X-197481Y210795D01*
X-197485Y210762D01*
X-197506Y210684D01*
X-197602Y210051D01*
X-197647Y209995D01*
X-197709Y209931D01*
X-197724Y209900D01*
X-197746Y209873D01*
X-197813Y209719D01*
X-198463Y207613D01*
X-198468Y207579D01*
X-198480Y207547D01*
X-198485Y207458D01*
X-198497Y207370D01*
X-198490Y207336D01*
X-198492Y207301D01*
X-198474Y207224D01*
X-198754Y206644D01*
X-198763Y206612D01*
X-198795Y206538D01*
X-198984Y205926D01*
X-199037Y205878D01*
X-199108Y205824D01*
X-199128Y205795D01*
X-199153Y205772D01*
X-199242Y205630D01*
X-200199Y203644D01*
X-200209Y203611D01*
X-200226Y203581D01*
X-200244Y203494D01*
X-200269Y203408D01*
X-200267Y203374D01*
X-200274Y203340D01*
X-200268Y203261D01*
X-200631Y202729D01*
X-200645Y202699D01*
X-200688Y202630D01*
X-200966Y202053D01*
X-201026Y202014D01*
X-201104Y201971D01*
X-201127Y201946D01*
X-201156Y201926D01*
X-201265Y201799D01*
X-202388Y200154D01*
X-202388Y200153D01*
X-202508Y199978D01*
X-202522Y199947D01*
X-202544Y199920D01*
X-202574Y199836D01*
X-202611Y199755D01*
X-202615Y199721D01*
X-202627Y199688D01*
X-202633Y199609D01*
X-203071Y199137D01*
X-203089Y199110D01*
X-203142Y199049D01*
X-203427Y198631D01*
X-203503Y198520D01*
X-203568Y198489D01*
X-203651Y198459D01*
X-203678Y198437D01*
X-203710Y198422D01*
X-203837Y198313D01*
X-205336Y196697D01*
X-205356Y196668D01*
X-205381Y196645D01*
X-205423Y196567D01*
X-205472Y196492D01*
X-205481Y196459D01*
X-205498Y196428D01*
X-205515Y196351D01*
X-206019Y195950D01*
X-206041Y195925D01*
X-206102Y195873D01*
X-206538Y195403D01*
X-206607Y195383D01*
X-206694Y195365D01*
X-206724Y195348D01*
X-206757Y195338D01*
X-206899Y195248D01*
X-208310Y194124D01*
X-208317Y194116D01*
X-208326Y194110D01*
X-208400Y194025D01*
X-208475Y193942D01*
X-208479Y193932D01*
X-208486Y193924D01*
X-208529Y193819D01*
X-208573Y193716D01*
X-208574Y193705D01*
X-208578Y193695D01*
X-208597Y193529D01*
X-208597Y136362D01*
X-208582Y136272D01*
X-208575Y136181D01*
X-208562Y136151D01*
X-208557Y136119D01*
X-208514Y136039D01*
X-208479Y135955D01*
X-208453Y135923D01*
X-208442Y135902D01*
X-208419Y135880D01*
X-208374Y135824D01*
X-190133Y117583D01*
X-190059Y117530D01*
X-189990Y117471D01*
X-189959Y117458D01*
X-189933Y117440D01*
X-189846Y117413D01*
X-189761Y117379D01*
X-189721Y117374D01*
X-189698Y117367D01*
X-189666Y117368D01*
X-189595Y117360D01*
X-188563Y117360D01*
X-188473Y117375D01*
G37*
G36*
X166680Y-73382D02*
X166680Y-73382D01*
X166752Y-73382D01*
X166801Y-73365D01*
X166852Y-73358D01*
X166959Y-73311D01*
X166985Y-73302D01*
X166992Y-73296D01*
X167005Y-73291D01*
X296806Y1648D01*
X296859Y1691D01*
X296916Y1725D01*
X296953Y1768D01*
X296996Y1804D01*
X297032Y1861D01*
X297076Y1912D01*
X297097Y1964D01*
X297127Y2012D01*
X297143Y2078D01*
X297168Y2140D01*
X297177Y2219D01*
X297185Y2251D01*
X297183Y2272D01*
X297187Y2307D01*
X297187Y19050D01*
X297184Y19070D01*
X297186Y19089D01*
X297164Y19191D01*
X297147Y19293D01*
X297138Y19310D01*
X297133Y19330D01*
X297080Y19419D01*
X297032Y19510D01*
X297018Y19524D01*
X297007Y19541D01*
X296929Y19608D01*
X296854Y19680D01*
X296836Y19688D01*
X296820Y19701D01*
X296724Y19740D01*
X296631Y19783D01*
X296611Y19785D01*
X296592Y19793D01*
X296426Y19811D01*
X214024Y19811D01*
X213966Y19802D01*
X213906Y19802D01*
X213813Y19777D01*
X213781Y19772D01*
X213768Y19764D01*
X213745Y19758D01*
X195103Y12393D01*
X195042Y12356D01*
X194976Y12328D01*
X194920Y12283D01*
X194892Y12267D01*
X194877Y12249D01*
X194845Y12223D01*
X194622Y12001D01*
X194255Y12001D01*
X194197Y11991D01*
X194137Y11992D01*
X194044Y11966D01*
X194013Y11961D01*
X193999Y11954D01*
X193976Y11948D01*
X193634Y11813D01*
X193345Y11938D01*
X193276Y11955D01*
X193209Y11982D01*
X193138Y11990D01*
X193107Y11998D01*
X193084Y11996D01*
X193043Y12001D01*
X65087Y12001D01*
X65068Y11998D01*
X65048Y12000D01*
X64947Y11978D01*
X64845Y11961D01*
X64827Y11952D01*
X64808Y11947D01*
X64719Y11894D01*
X64627Y11846D01*
X64614Y11832D01*
X64597Y11821D01*
X64529Y11743D01*
X64458Y11668D01*
X64450Y11650D01*
X64437Y11634D01*
X64398Y11538D01*
X64354Y11445D01*
X64352Y11425D01*
X64345Y11406D01*
X64326Y11240D01*
X64326Y-23959D01*
X64337Y-24026D01*
X64338Y-24094D01*
X64357Y-24147D01*
X64366Y-24202D01*
X64398Y-24262D01*
X64420Y-24326D01*
X64455Y-24370D01*
X64481Y-24420D01*
X64530Y-24466D01*
X64572Y-24519D01*
X64636Y-24566D01*
X64659Y-24589D01*
X64678Y-24598D01*
X64707Y-24619D01*
X138651Y-67309D01*
X138700Y-67328D01*
X138745Y-67355D01*
X138814Y-67371D01*
X138881Y-67396D01*
X138934Y-67398D01*
X138985Y-67410D01*
X139056Y-67403D01*
X139127Y-67405D01*
X139177Y-67390D01*
X139229Y-67385D01*
X139336Y-67343D01*
X139363Y-67335D01*
X139371Y-67330D01*
X139386Y-67324D01*
X139983Y-67011D01*
X140007Y-66993D01*
X140035Y-66981D01*
X140105Y-66919D01*
X140179Y-66863D01*
X140196Y-66838D01*
X140219Y-66818D01*
X140273Y-66734D01*
X140865Y-66536D01*
X140894Y-66521D01*
X140978Y-66488D01*
X141525Y-66201D01*
X141615Y-66207D01*
X141707Y-66220D01*
X141737Y-66214D01*
X141767Y-66216D01*
X141931Y-66181D01*
X143134Y-65779D01*
X143161Y-65765D01*
X143190Y-65758D01*
X143269Y-65708D01*
X143352Y-65664D01*
X143373Y-65643D01*
X143398Y-65626D01*
X143465Y-65553D01*
X144081Y-65452D01*
X144112Y-65442D01*
X144200Y-65423D01*
X144787Y-65227D01*
X144874Y-65247D01*
X144963Y-65275D01*
X144993Y-65274D01*
X145023Y-65281D01*
X145191Y-65272D01*
X146442Y-65069D01*
X146471Y-65059D01*
X146501Y-65057D01*
X146587Y-65020D01*
X146675Y-64991D01*
X146700Y-64972D01*
X146728Y-64960D01*
X146805Y-64898D01*
X147429Y-64898D01*
X147462Y-64893D01*
X147552Y-64888D01*
X148162Y-64789D01*
X148245Y-64823D01*
X148329Y-64864D01*
X148359Y-64868D01*
X148387Y-64880D01*
X148553Y-64898D01*
X149822Y-64898D01*
X149851Y-64893D01*
X149882Y-64896D01*
X149972Y-64874D01*
X150064Y-64859D01*
X150091Y-64844D01*
X150121Y-64837D01*
X150207Y-64788D01*
X150823Y-64888D01*
X150856Y-64888D01*
X150945Y-64898D01*
X151564Y-64898D01*
X151640Y-64945D01*
X151716Y-64999D01*
X151745Y-65008D01*
X151771Y-65024D01*
X151933Y-65069D01*
X153184Y-65272D01*
X153215Y-65272D01*
X153244Y-65279D01*
X153337Y-65272D01*
X153430Y-65272D01*
X153459Y-65262D01*
X153489Y-65260D01*
X153583Y-65225D01*
X154175Y-65423D01*
X154207Y-65428D01*
X154294Y-65452D01*
X154904Y-65552D01*
X154972Y-65610D01*
X155038Y-65676D01*
X155066Y-65689D01*
X155089Y-65709D01*
X155241Y-65779D01*
X156444Y-66181D01*
X156474Y-66185D01*
X156502Y-66197D01*
X156595Y-66205D01*
X156687Y-66220D01*
X156717Y-66215D01*
X156747Y-66217D01*
X156844Y-66198D01*
X157397Y-66488D01*
X157428Y-66499D01*
X157510Y-66537D01*
X158096Y-66732D01*
X158154Y-66801D01*
X158209Y-66876D01*
X158234Y-66894D01*
X158253Y-66917D01*
X158392Y-67011D01*
X159515Y-67600D01*
X159544Y-67610D01*
X159570Y-67626D01*
X159660Y-67648D01*
X159749Y-67678D01*
X159779Y-67678D01*
X159808Y-67685D01*
X159908Y-67682D01*
X160407Y-68057D01*
X160436Y-68072D01*
X160511Y-68123D01*
X161058Y-68410D01*
X161104Y-68487D01*
X161146Y-68570D01*
X161168Y-68591D01*
X161183Y-68617D01*
X161305Y-68732D01*
X162319Y-69494D01*
X162346Y-69508D01*
X162369Y-69528D01*
X162455Y-69565D01*
X162537Y-69608D01*
X162567Y-69613D01*
X162595Y-69625D01*
X162694Y-69638D01*
X163126Y-70088D01*
X163152Y-70108D01*
X163218Y-70169D01*
X163712Y-70541D01*
X163737Y-70602D01*
X163742Y-70627D01*
X163751Y-70642D01*
X163773Y-70713D01*
X163791Y-70737D01*
X163803Y-70765D01*
X163905Y-70899D01*
X164783Y-71813D01*
X164807Y-71831D01*
X164827Y-71855D01*
X164905Y-71905D01*
X164980Y-71961D01*
X165009Y-71970D01*
X165034Y-71986D01*
X165130Y-72015D01*
X165484Y-72529D01*
X165507Y-72553D01*
X165562Y-72624D01*
X166076Y-73159D01*
X166117Y-73189D01*
X166151Y-73228D01*
X166215Y-73263D01*
X166272Y-73306D01*
X166321Y-73322D01*
X166366Y-73347D01*
X166437Y-73361D01*
X166506Y-73383D01*
X166557Y-73383D01*
X166608Y-73392D01*
X166680Y-73382D01*
G37*
G36*
X206917Y151654D02*
X206917Y151654D01*
X207008Y151661D01*
X207038Y151673D01*
X207070Y151679D01*
X207150Y151721D01*
X207234Y151757D01*
X207266Y151783D01*
X207287Y151794D01*
X207309Y151817D01*
X207365Y151862D01*
X208603Y153099D01*
X296426Y153099D01*
X296445Y153102D01*
X296465Y153100D01*
X296566Y153122D01*
X296668Y153139D01*
X296686Y153148D01*
X296705Y153153D01*
X296794Y153206D01*
X296886Y153254D01*
X296899Y153268D01*
X296916Y153279D01*
X296984Y153357D01*
X297055Y153432D01*
X297063Y153450D01*
X297076Y153466D01*
X297115Y153562D01*
X297159Y153655D01*
X297161Y153675D01*
X297168Y153694D01*
X297187Y153860D01*
X297187Y172318D01*
X297176Y172384D01*
X297175Y172452D01*
X297156Y172505D01*
X297147Y172561D01*
X297115Y172620D01*
X297093Y172684D01*
X297058Y172728D01*
X297032Y172778D01*
X296983Y172824D01*
X296941Y172878D01*
X296877Y172925D01*
X296854Y172947D01*
X296835Y172956D01*
X296806Y172977D01*
X293275Y175016D01*
X293270Y175018D01*
X293263Y175022D01*
X178169Y238791D01*
X178067Y238827D01*
X177967Y238868D01*
X177948Y238870D01*
X177937Y238874D01*
X177908Y238874D01*
X177800Y238886D01*
X138113Y238886D01*
X137996Y238867D01*
X137879Y238850D01*
X137874Y238847D01*
X137870Y238847D01*
X137856Y238839D01*
X137726Y238781D01*
X48826Y186393D01*
X48805Y186376D01*
X48781Y186364D01*
X48711Y186298D01*
X48637Y186236D01*
X48623Y186213D01*
X48603Y186194D01*
X48559Y186109D01*
X48508Y186026D01*
X48502Y186000D01*
X48490Y185976D01*
X48475Y185880D01*
X48453Y185787D01*
X48455Y185760D01*
X48451Y185733D01*
X48471Y185566D01*
X53233Y164929D01*
X53271Y164837D01*
X53303Y164743D01*
X53317Y164724D01*
X53327Y164701D01*
X53392Y164626D01*
X53452Y164547D01*
X53472Y164534D01*
X53488Y164515D01*
X53573Y164465D01*
X53655Y164409D01*
X53679Y164403D01*
X53699Y164390D01*
X53797Y164370D01*
X53892Y164343D01*
X53917Y164345D01*
X53940Y164340D01*
X54039Y164351D01*
X54138Y164356D01*
X54166Y164366D01*
X54184Y164368D01*
X54214Y164382D01*
X54297Y164410D01*
X81358Y177039D01*
X84161Y177039D01*
X84237Y177051D01*
X84314Y177054D01*
X84374Y177074D01*
X84404Y177079D01*
X84427Y177091D01*
X84474Y177106D01*
X91239Y180155D01*
X91277Y180181D01*
X91320Y180198D01*
X91427Y180280D01*
X91444Y180291D01*
X91447Y180295D01*
X91453Y180300D01*
X91756Y180591D01*
X92017Y180586D01*
X92101Y180598D01*
X92185Y180602D01*
X92234Y180617D01*
X92260Y180621D01*
X92287Y180635D01*
X92345Y180653D01*
X92582Y180761D01*
X92976Y180612D01*
X93021Y180602D01*
X93064Y180584D01*
X93197Y180567D01*
X93217Y180563D01*
X93222Y180564D01*
X93230Y180563D01*
X170920Y179039D01*
X170922Y179040D01*
X170927Y179039D01*
X171872Y179030D01*
X172528Y178348D01*
X172531Y178346D01*
X172533Y178342D01*
X173588Y177267D01*
X173664Y177211D01*
X173736Y177149D01*
X173763Y177138D01*
X173786Y177122D01*
X173876Y177093D01*
X173965Y177057D01*
X174000Y177053D01*
X174020Y177047D01*
X174053Y177047D01*
X174131Y177039D01*
X177485Y177039D01*
X202662Y151862D01*
X202736Y151809D01*
X202805Y151749D01*
X202835Y151737D01*
X202861Y151718D01*
X202948Y151691D01*
X203033Y151657D01*
X203074Y151653D01*
X203097Y151646D01*
X203129Y151647D01*
X203200Y151639D01*
X206827Y151639D01*
X206917Y151654D01*
G37*
G36*
X-150796Y-86377D02*
X-150796Y-86377D01*
X-150719Y-86378D01*
X-150695Y-86369D01*
X-150675Y-86367D01*
X-150635Y-86347D01*
X-150563Y-86320D01*
X-134063Y-76820D01*
X-134042Y-76801D01*
X-134015Y-76789D01*
X-133981Y-76751D01*
X-133978Y-76749D01*
X-133976Y-76745D01*
X-133968Y-76736D01*
X-133914Y-76689D01*
X-133902Y-76663D01*
X-133882Y-76641D01*
X-133859Y-76574D01*
X-133828Y-76509D01*
X-133827Y-76480D01*
X-133818Y-76453D01*
X-133822Y-76382D01*
X-133819Y-76311D01*
X-133829Y-76284D01*
X-133831Y-76255D01*
X-133874Y-76164D01*
X-133888Y-76124D01*
X-133896Y-76116D01*
X-133902Y-76104D01*
X-135032Y-74467D01*
X-102449Y-55655D01*
X-102360Y-55582D01*
X-102270Y-55513D01*
X-102265Y-55505D01*
X-102258Y-55500D01*
X-102197Y-55402D01*
X-102135Y-55307D01*
X-102132Y-55299D01*
X-102128Y-55291D01*
X-102101Y-55180D01*
X-102072Y-55070D01*
X-102072Y-55061D01*
X-102070Y-55052D01*
X-102080Y-54938D01*
X-102088Y-54824D01*
X-102091Y-54814D01*
X-102092Y-54807D01*
X-102101Y-54786D01*
X-102143Y-54666D01*
X-102390Y-54153D01*
X-102410Y-54125D01*
X-102423Y-54093D01*
X-102480Y-54024D01*
X-102531Y-53952D01*
X-102559Y-53931D01*
X-102582Y-53905D01*
X-102647Y-53860D01*
X-102837Y-53245D01*
X-102851Y-53215D01*
X-102878Y-53139D01*
X-103156Y-52562D01*
X-103150Y-52490D01*
X-103134Y-52403D01*
X-103140Y-52369D01*
X-103137Y-52334D01*
X-103168Y-52169D01*
X-103817Y-50063D01*
X-103833Y-50032D01*
X-103840Y-49998D01*
X-103887Y-49922D01*
X-103927Y-49842D01*
X-103951Y-49818D01*
X-103969Y-49788D01*
X-104028Y-49735D01*
X-104123Y-49098D01*
X-104133Y-49067D01*
X-104149Y-48987D01*
X-104337Y-48375D01*
X-104321Y-48306D01*
X-104292Y-48221D01*
X-104292Y-48186D01*
X-104284Y-48153D01*
X-104291Y-47985D01*
X-104618Y-45805D01*
X-104629Y-45772D01*
X-104632Y-45738D01*
X-104667Y-45656D01*
X-104694Y-45571D01*
X-104714Y-45543D01*
X-104728Y-45511D01*
X-104778Y-45449D01*
X-104777Y-44806D01*
X-104783Y-44773D01*
X-104786Y-44692D01*
X-104881Y-44059D01*
X-104854Y-43992D01*
X-104814Y-43913D01*
X-104809Y-43879D01*
X-104796Y-43847D01*
X-104777Y-43680D01*
X-104776Y-41476D01*
X-104782Y-41442D01*
X-104779Y-41407D01*
X-104802Y-41321D01*
X-104816Y-41233D01*
X-104832Y-41203D01*
X-104841Y-41169D01*
X-104881Y-41101D01*
X-104784Y-40464D01*
X-104785Y-40431D01*
X-104776Y-40351D01*
X-104776Y-39710D01*
X-104739Y-39648D01*
X-104687Y-39576D01*
X-104677Y-39543D01*
X-104660Y-39513D01*
X-104616Y-39351D01*
X-104287Y-37172D01*
X-104288Y-37137D01*
X-104280Y-37103D01*
X-104289Y-37015D01*
X-104290Y-36926D01*
X-104302Y-36893D01*
X-104305Y-36859D01*
X-104334Y-36785D01*
X-104144Y-36170D01*
X-104140Y-36137D01*
X-104119Y-36059D01*
X-104023Y-35426D01*
X-103978Y-35370D01*
X-103916Y-35306D01*
X-103901Y-35275D01*
X-103879Y-35248D01*
X-103812Y-35094D01*
X-103162Y-32988D01*
X-103157Y-32954D01*
X-103145Y-32922D01*
X-103140Y-32833D01*
X-103128Y-32745D01*
X-103135Y-32711D01*
X-103133Y-32676D01*
X-103151Y-32599D01*
X-102871Y-32019D01*
X-102862Y-31987D01*
X-102830Y-31913D01*
X-102641Y-31301D01*
X-102588Y-31253D01*
X-102517Y-31199D01*
X-102497Y-31170D01*
X-102472Y-31147D01*
X-102383Y-31005D01*
X-101426Y-29019D01*
X-101416Y-28986D01*
X-101399Y-28956D01*
X-101381Y-28869D01*
X-101356Y-28783D01*
X-101358Y-28749D01*
X-101351Y-28715D01*
X-101357Y-28636D01*
X-101139Y-28316D01*
X-100994Y-28104D01*
X-100980Y-28074D01*
X-100937Y-28005D01*
X-100659Y-27428D01*
X-100600Y-27389D01*
X-100521Y-27346D01*
X-100498Y-27321D01*
X-100469Y-27301D01*
X-100360Y-27174D01*
X-100100Y-26794D01*
X-99581Y-26033D01*
X-99117Y-25353D01*
X-99103Y-25322D01*
X-99081Y-25295D01*
X-99051Y-25211D01*
X-99014Y-25130D01*
X-99010Y-25096D01*
X-98998Y-25063D01*
X-98992Y-24984D01*
X-98554Y-24512D01*
X-98536Y-24485D01*
X-98483Y-24424D01*
X-98122Y-23895D01*
X-98057Y-23864D01*
X-97974Y-23834D01*
X-97947Y-23812D01*
X-97915Y-23797D01*
X-97788Y-23688D01*
X-96289Y-22072D01*
X-96269Y-22043D01*
X-96244Y-22020D01*
X-96202Y-21942D01*
X-96153Y-21867D01*
X-96144Y-21834D01*
X-96127Y-21803D01*
X-96110Y-21726D01*
X-95606Y-21325D01*
X-95584Y-21300D01*
X-95523Y-21248D01*
X-95087Y-20778D01*
X-95018Y-20758D01*
X-94931Y-20740D01*
X-94901Y-20723D01*
X-94868Y-20713D01*
X-94726Y-20623D01*
X-93002Y-19250D01*
X-92979Y-19224D01*
X-92950Y-19204D01*
X-92897Y-19133D01*
X-92837Y-19067D01*
X-92823Y-19036D01*
X-92803Y-19008D01*
X-92774Y-18934D01*
X-92216Y-18612D01*
X-92191Y-18591D01*
X-92122Y-18548D01*
X-91621Y-18149D01*
X-91550Y-18139D01*
X-91461Y-18135D01*
X-91429Y-18122D01*
X-91395Y-18117D01*
X-91241Y-18050D01*
X-89332Y-16948D01*
X-89305Y-16926D01*
X-89274Y-16911D01*
X-89210Y-16849D01*
X-89142Y-16793D01*
X-89123Y-16763D01*
X-89098Y-16739D01*
X-89059Y-16670D01*
X-88460Y-16435D01*
X-88431Y-16418D01*
X-88357Y-16386D01*
X-87802Y-16066D01*
X-87730Y-16067D01*
X-87642Y-16075D01*
X-87608Y-16068D01*
X-87574Y-16068D01*
X-87412Y-16024D01*
X-85360Y-15220D01*
X-85330Y-15202D01*
X-85297Y-15192D01*
X-85225Y-15140D01*
X-85148Y-15094D01*
X-85125Y-15068D01*
X-85097Y-15048D01*
X-85048Y-14985D01*
X-84421Y-14842D01*
X-84390Y-14830D01*
X-84312Y-14809D01*
X-83716Y-14575D01*
X-83645Y-14587D01*
X-83559Y-14608D01*
X-83524Y-14606D01*
X-83490Y-14611D01*
X-83323Y-14592D01*
X-82445Y-14392D01*
X-82392Y-14370D01*
X-82335Y-14358D01*
X-82278Y-14324D01*
X-82217Y-14300D01*
X-82173Y-14262D01*
X-82124Y-14232D01*
X-82081Y-14182D01*
X-82031Y-14139D01*
X-82001Y-14089D01*
X-81964Y-14045D01*
X-81939Y-13984D01*
X-81906Y-13928D01*
X-81893Y-13871D01*
X-81872Y-13817D01*
X-81861Y-13718D01*
X-81854Y-13687D01*
X-81856Y-13673D01*
X-81853Y-13650D01*
X-81853Y11240D01*
X-81856Y11259D01*
X-81854Y11279D01*
X-81876Y11380D01*
X-81893Y11482D01*
X-81902Y11500D01*
X-81907Y11519D01*
X-81960Y11608D01*
X-82008Y11700D01*
X-82022Y11713D01*
X-82033Y11730D01*
X-82111Y11798D01*
X-82186Y11869D01*
X-82204Y11877D01*
X-82220Y11890D01*
X-82316Y11929D01*
X-82409Y11973D01*
X-82429Y11975D01*
X-82448Y11982D01*
X-82614Y12001D01*
X-90657Y12001D01*
X-91996Y13340D01*
X-91996Y37647D01*
X-92011Y37737D01*
X-92018Y37828D01*
X-92031Y37858D01*
X-92036Y37890D01*
X-92079Y37971D01*
X-92115Y38054D01*
X-92140Y38087D01*
X-92151Y38107D01*
X-92175Y38129D01*
X-92219Y38185D01*
X-107029Y52995D01*
X-107117Y53058D01*
X-107202Y53125D01*
X-107216Y53130D01*
X-107228Y53138D01*
X-107332Y53170D01*
X-107434Y53206D01*
X-107452Y53207D01*
X-107463Y53211D01*
X-107493Y53210D01*
X-107602Y53217D01*
X-119784Y52662D01*
X-119787Y52661D01*
X-119789Y52661D01*
X-119906Y52636D01*
X-120025Y52611D01*
X-120027Y52610D01*
X-120029Y52609D01*
X-120132Y52548D01*
X-120237Y52486D01*
X-120238Y52484D01*
X-120240Y52483D01*
X-120319Y52391D01*
X-120398Y52300D01*
X-120399Y52298D01*
X-120400Y52296D01*
X-120447Y52181D01*
X-120491Y52073D01*
X-120491Y52070D01*
X-120492Y52068D01*
X-120511Y51901D01*
X-120511Y50131D01*
X-121404Y49238D01*
X-125207Y49238D01*
X-125268Y49298D01*
X-125284Y49310D01*
X-125296Y49326D01*
X-125383Y49382D01*
X-125467Y49442D01*
X-125486Y49448D01*
X-125503Y49459D01*
X-125604Y49484D01*
X-125702Y49514D01*
X-125722Y49514D01*
X-125742Y49519D01*
X-125845Y49511D01*
X-125948Y49508D01*
X-125967Y49501D01*
X-125987Y49500D01*
X-126082Y49459D01*
X-126179Y49424D01*
X-126195Y49411D01*
X-126213Y49403D01*
X-126344Y49298D01*
X-126405Y49238D01*
X-130208Y49238D01*
X-130269Y49299D01*
X-130285Y49311D01*
X-130298Y49326D01*
X-130385Y49382D01*
X-130469Y49442D01*
X-130488Y49448D01*
X-130505Y49459D01*
X-130605Y49484D01*
X-130704Y49515D01*
X-130724Y49514D01*
X-130743Y49519D01*
X-130846Y49511D01*
X-130950Y49508D01*
X-130969Y49502D01*
X-130988Y49500D01*
X-131084Y49460D01*
X-131181Y49424D01*
X-131197Y49412D01*
X-131215Y49404D01*
X-131346Y49299D01*
X-131407Y49238D01*
X-135210Y49238D01*
X-135271Y49298D01*
X-135287Y49310D01*
X-135299Y49326D01*
X-135386Y49382D01*
X-135470Y49442D01*
X-135489Y49448D01*
X-135506Y49459D01*
X-135607Y49484D01*
X-135705Y49514D01*
X-135725Y49514D01*
X-135745Y49519D01*
X-135848Y49511D01*
X-135951Y49508D01*
X-135970Y49501D01*
X-135990Y49500D01*
X-136085Y49459D01*
X-136182Y49424D01*
X-136198Y49411D01*
X-136216Y49403D01*
X-136347Y49298D01*
X-136408Y49238D01*
X-140009Y49238D01*
X-140028Y49235D01*
X-140048Y49237D01*
X-140149Y49215D01*
X-140251Y49198D01*
X-140269Y49189D01*
X-140288Y49184D01*
X-140377Y49131D01*
X-140469Y49083D01*
X-140482Y49069D01*
X-140499Y49058D01*
X-140567Y48980D01*
X-140638Y48905D01*
X-140646Y48887D01*
X-140659Y48871D01*
X-140698Y48775D01*
X-140742Y48682D01*
X-140744Y48662D01*
X-140751Y48643D01*
X-140770Y48477D01*
X-140770Y32955D01*
X-195012Y-21288D01*
X-195058Y-21352D01*
X-195076Y-21370D01*
X-195079Y-21378D01*
X-195125Y-21431D01*
X-195137Y-21461D01*
X-195156Y-21487D01*
X-195182Y-21574D01*
X-195217Y-21659D01*
X-195221Y-21700D01*
X-195228Y-21723D01*
X-195227Y-21755D01*
X-195235Y-21826D01*
X-195235Y-24350D01*
X-197900Y-27015D01*
X-199933Y-27015D01*
X-199934Y-27015D01*
X-200055Y-27035D01*
X-200176Y-27055D01*
X-200177Y-27055D01*
X-200296Y-27118D01*
X-200393Y-27170D01*
X-200394Y-27170D01*
X-200482Y-27263D01*
X-200562Y-27348D01*
X-200563Y-27349D01*
X-200616Y-27464D01*
X-200666Y-27571D01*
X-200666Y-27572D01*
X-200680Y-27694D01*
X-200693Y-27816D01*
X-200693Y-27817D01*
X-200666Y-27939D01*
X-200641Y-28056D01*
X-200641Y-28057D01*
X-200640Y-28057D01*
X-200562Y-28205D01*
X-200270Y-28633D01*
X-200265Y-28704D01*
X-200267Y-28793D01*
X-200257Y-28827D01*
X-200255Y-28861D01*
X-200199Y-29019D01*
X-199242Y-31005D01*
X-199222Y-31033D01*
X-199210Y-31065D01*
X-199152Y-31134D01*
X-199101Y-31206D01*
X-199073Y-31227D01*
X-199051Y-31253D01*
X-198985Y-31298D01*
X-198795Y-31913D01*
X-198780Y-31942D01*
X-198778Y-31948D01*
X-198773Y-31974D01*
X-198764Y-31989D01*
X-198754Y-32019D01*
X-198475Y-32596D01*
X-198481Y-32667D01*
X-198497Y-32755D01*
X-198492Y-32789D01*
X-198495Y-32824D01*
X-198463Y-32988D01*
X-197813Y-35094D01*
X-197797Y-35125D01*
X-197789Y-35159D01*
X-197743Y-35235D01*
X-197703Y-35314D01*
X-197679Y-35339D01*
X-197660Y-35369D01*
X-197602Y-35422D01*
X-197506Y-36059D01*
X-197496Y-36090D01*
X-197481Y-36170D01*
X-197292Y-36782D01*
X-197308Y-36851D01*
X-197336Y-36936D01*
X-197336Y-36970D01*
X-197344Y-37004D01*
X-197338Y-37172D01*
X-197009Y-39351D01*
X-196998Y-39384D01*
X-196995Y-39419D01*
X-196960Y-39501D01*
X-196933Y-39585D01*
X-196912Y-39613D01*
X-196899Y-39645D01*
X-196849Y-39707D01*
X-196849Y-40351D01*
X-196844Y-40383D01*
X-196841Y-40464D01*
X-196745Y-41097D01*
X-196772Y-41164D01*
X-196812Y-41243D01*
X-196817Y-41277D01*
X-196830Y-41309D01*
X-196849Y-41476D01*
X-196848Y-43680D01*
X-196842Y-43714D01*
X-196845Y-43749D01*
X-196823Y-43835D01*
X-196808Y-43923D01*
X-196792Y-43954D01*
X-196783Y-43987D01*
X-196743Y-44056D01*
X-196839Y-44692D01*
X-196839Y-44725D01*
X-196848Y-44806D01*
X-196847Y-45446D01*
X-196884Y-45508D01*
X-196936Y-45580D01*
X-196946Y-45613D01*
X-196963Y-45643D01*
X-197007Y-45805D01*
X-197334Y-47985D01*
X-197334Y-48020D01*
X-197341Y-48054D01*
X-197332Y-48142D01*
X-197331Y-48231D01*
X-197320Y-48264D01*
X-197316Y-48298D01*
X-197287Y-48372D01*
X-197476Y-48987D01*
X-197477Y-48993D01*
X-197480Y-48998D01*
X-197483Y-49027D01*
X-197502Y-49098D01*
X-197597Y-49731D01*
X-197642Y-49787D01*
X-197704Y-49851D01*
X-197719Y-49882D01*
X-197741Y-49909D01*
X-197808Y-50063D01*
X-198457Y-52169D01*
X-198462Y-52204D01*
X-198474Y-52236D01*
X-198478Y-52325D01*
X-198490Y-52413D01*
X-198484Y-52447D01*
X-198486Y-52482D01*
X-198468Y-52559D01*
X-198747Y-53139D01*
X-198756Y-53171D01*
X-198788Y-53245D01*
X-198977Y-53857D01*
X-199030Y-53905D01*
X-199101Y-53959D01*
X-199120Y-53988D01*
X-199146Y-54011D01*
X-199235Y-54153D01*
X-199482Y-54666D01*
X-199514Y-54775D01*
X-199549Y-54884D01*
X-199548Y-54893D01*
X-199551Y-54902D01*
X-199547Y-55016D01*
X-199545Y-55130D01*
X-199542Y-55139D01*
X-199542Y-55148D01*
X-199501Y-55255D01*
X-199463Y-55362D01*
X-199457Y-55369D01*
X-199454Y-55378D01*
X-199382Y-55466D01*
X-199311Y-55556D01*
X-199303Y-55562D01*
X-199298Y-55568D01*
X-199278Y-55580D01*
X-199176Y-55655D01*
X-166593Y-74467D01*
X-167723Y-76104D01*
X-167735Y-76131D01*
X-167753Y-76153D01*
X-167774Y-76221D01*
X-167801Y-76287D01*
X-167802Y-76316D01*
X-167810Y-76343D01*
X-167802Y-76415D01*
X-167802Y-76486D01*
X-167791Y-76512D01*
X-167788Y-76541D01*
X-167753Y-76603D01*
X-167725Y-76669D01*
X-167704Y-76689D01*
X-167690Y-76714D01*
X-167627Y-76766D01*
X-167623Y-76772D01*
X-167613Y-76777D01*
X-167613Y-76778D01*
X-167582Y-76808D01*
X-167572Y-76812D01*
X-167562Y-76820D01*
X-151062Y-86320D01*
X-150989Y-86344D01*
X-150918Y-86375D01*
X-150895Y-86376D01*
X-150873Y-86383D01*
X-150796Y-86377D01*
G37*
G36*
X-249981Y-26150D02*
X-249981Y-26150D01*
X-249973Y-26150D01*
X-249862Y-26118D01*
X-249752Y-26088D01*
X-249745Y-26083D01*
X-249737Y-26080D01*
X-249643Y-26014D01*
X-249548Y-25951D01*
X-249541Y-25943D01*
X-249535Y-25939D01*
X-249522Y-25921D01*
X-249439Y-25824D01*
X-249129Y-25368D01*
X-249114Y-25337D01*
X-249092Y-25310D01*
X-249062Y-25226D01*
X-249025Y-25145D01*
X-249021Y-25111D01*
X-249009Y-25078D01*
X-249003Y-24999D01*
X-248566Y-24527D01*
X-248548Y-24500D01*
X-248495Y-24438D01*
X-248134Y-23909D01*
X-248069Y-23878D01*
X-247986Y-23848D01*
X-247959Y-23826D01*
X-247927Y-23811D01*
X-247800Y-23702D01*
X-246302Y-22086D01*
X-246283Y-22057D01*
X-246257Y-22033D01*
X-246215Y-21955D01*
X-246166Y-21881D01*
X-246157Y-21847D01*
X-246140Y-21816D01*
X-246123Y-21739D01*
X-245620Y-21338D01*
X-245598Y-21313D01*
X-245536Y-21260D01*
X-245101Y-20791D01*
X-245032Y-20770D01*
X-244945Y-20752D01*
X-244915Y-20735D01*
X-244882Y-20725D01*
X-244740Y-20636D01*
X-243017Y-19261D01*
X-242994Y-19235D01*
X-242965Y-19215D01*
X-242912Y-19144D01*
X-242852Y-19078D01*
X-242838Y-19046D01*
X-242818Y-19019D01*
X-242789Y-18945D01*
X-242232Y-18623D01*
X-242206Y-18602D01*
X-242137Y-18559D01*
X-241637Y-18159D01*
X-241566Y-18149D01*
X-241477Y-18145D01*
X-241445Y-18132D01*
X-241411Y-18127D01*
X-241257Y-18060D01*
X-239348Y-16957D01*
X-239321Y-16935D01*
X-239290Y-16920D01*
X-239227Y-16858D01*
X-239158Y-16801D01*
X-239140Y-16772D01*
X-239115Y-16748D01*
X-239075Y-16679D01*
X-238476Y-16443D01*
X-238448Y-16427D01*
X-238374Y-16394D01*
X-237819Y-16074D01*
X-237748Y-16074D01*
X-237659Y-16083D01*
X-237625Y-16075D01*
X-237591Y-16076D01*
X-237429Y-16032D01*
X-235377Y-15226D01*
X-235347Y-15208D01*
X-235314Y-15198D01*
X-235242Y-15146D01*
X-235166Y-15100D01*
X-235143Y-15074D01*
X-235115Y-15054D01*
X-235066Y-14991D01*
X-234438Y-14848D01*
X-234408Y-14835D01*
X-234330Y-14814D01*
X-233734Y-14580D01*
X-233663Y-14592D01*
X-233577Y-14613D01*
X-233542Y-14611D01*
X-233508Y-14616D01*
X-233341Y-14597D01*
X-231192Y-14106D01*
X-231160Y-14093D01*
X-231126Y-14088D01*
X-231047Y-14047D01*
X-230965Y-14013D01*
X-230938Y-13991D01*
X-230907Y-13975D01*
X-230849Y-13920D01*
X-230208Y-13872D01*
X-230176Y-13864D01*
X-230095Y-13855D01*
X-229471Y-13712D01*
X-229403Y-13734D01*
X-229320Y-13769D01*
X-229286Y-13771D01*
X-229253Y-13782D01*
X-229085Y-13788D01*
X-226887Y-13622D01*
X-226854Y-13614D01*
X-226819Y-13614D01*
X-226735Y-13585D01*
X-226648Y-13564D01*
X-226619Y-13546D01*
X-226586Y-13535D01*
X-226521Y-13490D01*
X-225879Y-13538D01*
X-225846Y-13535D01*
X-225765Y-13538D01*
X-225126Y-13490D01*
X-225062Y-13522D01*
X-224986Y-13568D01*
X-224952Y-13575D01*
X-224921Y-13591D01*
X-224756Y-13622D01*
X-222558Y-13786D01*
X-222524Y-13783D01*
X-222489Y-13788D01*
X-222402Y-13772D01*
X-222313Y-13764D01*
X-222282Y-13750D01*
X-222247Y-13744D01*
X-222176Y-13709D01*
X-221548Y-13852D01*
X-221515Y-13854D01*
X-221436Y-13869D01*
X-220797Y-13917D01*
X-220738Y-13958D01*
X-220670Y-14015D01*
X-220638Y-14028D01*
X-220609Y-14047D01*
X-220451Y-14103D01*
X-220167Y-14167D01*
X-218302Y-14592D01*
X-218267Y-14594D01*
X-218234Y-14605D01*
X-218145Y-14602D01*
X-218056Y-14608D01*
X-218023Y-14599D01*
X-217988Y-14598D01*
X-217913Y-14574D01*
X-217313Y-14809D01*
X-217281Y-14816D01*
X-217204Y-14842D01*
X-216827Y-14929D01*
X-216580Y-14985D01*
X-216528Y-15034D01*
X-216469Y-15101D01*
X-216439Y-15118D01*
X-216414Y-15142D01*
X-216265Y-15220D01*
X-214213Y-16024D01*
X-214179Y-16032D01*
X-214148Y-16047D01*
X-214060Y-16057D01*
X-213973Y-16076D01*
X-213938Y-16072D01*
X-213904Y-16076D01*
X-213825Y-16064D01*
X-213268Y-16386D01*
X-213237Y-16398D01*
X-213165Y-16435D01*
X-212569Y-16669D01*
X-212525Y-16725D01*
X-212477Y-16800D01*
X-212450Y-16822D01*
X-212428Y-16849D01*
X-212293Y-16948D01*
X-210384Y-18050D01*
X-210351Y-18062D01*
X-210323Y-18082D01*
X-210237Y-18105D01*
X-210154Y-18137D01*
X-210119Y-18138D01*
X-210086Y-18147D01*
X-210006Y-18147D01*
X-209503Y-18548D01*
X-209474Y-18564D01*
X-209409Y-18612D01*
X-208977Y-18861D01*
X-208936Y-18877D01*
X-208899Y-18901D01*
X-208822Y-18920D01*
X-208747Y-18948D01*
X-208703Y-18950D01*
X-208661Y-18961D01*
X-208581Y-18954D01*
X-208501Y-18957D01*
X-208459Y-18945D01*
X-208416Y-18941D01*
X-208342Y-18910D01*
X-208265Y-18887D01*
X-208230Y-18862D01*
X-208189Y-18845D01*
X-208075Y-18754D01*
X-208064Y-18746D01*
X-208062Y-18743D01*
X-208058Y-18740D01*
X-170531Y18788D01*
X-170486Y18849D01*
X-170456Y18881D01*
X-170449Y18897D01*
X-170412Y18942D01*
X-170402Y18966D01*
X-170387Y18987D01*
X-170358Y19080D01*
X-170323Y19171D01*
X-170322Y19197D01*
X-170315Y19222D01*
X-170317Y19320D01*
X-170313Y19417D01*
X-170320Y19442D01*
X-170321Y19468D01*
X-170354Y19560D01*
X-170382Y19653D01*
X-170396Y19675D01*
X-170405Y19699D01*
X-170466Y19775D01*
X-170522Y19855D01*
X-170543Y19871D01*
X-170559Y19891D01*
X-170641Y19944D01*
X-170719Y20002D01*
X-170744Y20010D01*
X-170766Y20024D01*
X-170860Y20048D01*
X-170953Y20078D01*
X-170979Y20078D01*
X-171005Y20084D01*
X-171102Y20077D01*
X-171199Y20076D01*
X-171230Y20067D01*
X-171250Y20065D01*
X-171280Y20052D01*
X-171360Y20029D01*
X-172806Y19430D01*
X-176444Y19430D01*
X-179805Y20822D01*
X-182378Y23395D01*
X-183770Y26756D01*
X-183770Y30394D01*
X-182378Y33755D01*
X-179805Y36328D01*
X-176329Y37767D01*
X-176230Y37829D01*
X-176130Y37889D01*
X-176125Y37894D01*
X-176120Y37897D01*
X-176046Y37987D01*
X-175970Y38076D01*
X-175967Y38082D01*
X-175963Y38086D01*
X-175922Y38194D01*
X-175878Y38304D01*
X-175877Y38311D01*
X-175875Y38316D01*
X-175874Y38334D01*
X-175859Y38471D01*
X-175859Y46591D01*
X-175871Y46662D01*
X-175873Y46734D01*
X-175891Y46783D01*
X-175899Y46834D01*
X-175933Y46897D01*
X-175957Y46965D01*
X-175990Y47005D01*
X-176014Y47052D01*
X-176066Y47101D01*
X-176111Y47157D01*
X-176155Y47185D01*
X-176192Y47221D01*
X-176257Y47251D01*
X-176318Y47290D01*
X-176368Y47303D01*
X-176415Y47325D01*
X-176487Y47332D01*
X-176556Y47350D01*
X-176608Y47346D01*
X-176660Y47352D01*
X-176730Y47336D01*
X-176801Y47331D01*
X-176849Y47310D01*
X-176900Y47299D01*
X-176962Y47263D01*
X-177028Y47234D01*
X-177084Y47190D01*
X-177111Y47173D01*
X-177127Y47155D01*
X-177159Y47130D01*
X-178125Y46164D01*
X-178528Y46164D01*
X-178618Y46149D01*
X-178709Y46142D01*
X-178739Y46129D01*
X-178771Y46124D01*
X-178851Y46081D01*
X-178935Y46046D01*
X-178967Y46020D01*
X-178988Y46009D01*
X-179010Y45986D01*
X-179066Y45941D01*
X-191614Y33393D01*
X-191681Y33299D01*
X-191752Y33204D01*
X-191754Y33198D01*
X-191757Y33193D01*
X-191792Y33082D01*
X-191828Y32970D01*
X-191828Y32964D01*
X-191830Y32958D01*
X-191827Y32841D01*
X-191826Y32725D01*
X-191824Y32717D01*
X-191823Y32712D01*
X-191817Y32695D01*
X-191779Y32563D01*
X-190880Y30394D01*
X-190880Y26756D01*
X-192272Y23395D01*
X-194845Y20822D01*
X-198206Y19430D01*
X-201844Y19430D01*
X-205205Y20822D01*
X-207778Y23395D01*
X-208676Y25564D01*
X-208738Y25664D01*
X-208798Y25764D01*
X-208802Y25768D01*
X-208806Y25773D01*
X-208896Y25848D01*
X-208985Y25924D01*
X-208990Y25926D01*
X-208995Y25930D01*
X-209104Y25972D01*
X-209213Y26016D01*
X-209220Y26017D01*
X-209225Y26018D01*
X-209243Y26019D01*
X-209379Y26034D01*
X-216071Y26034D01*
X-216185Y26015D01*
X-216302Y25998D01*
X-216307Y25996D01*
X-216313Y25995D01*
X-216416Y25940D01*
X-216521Y25887D01*
X-216525Y25882D01*
X-216531Y25879D01*
X-216611Y25795D01*
X-216693Y25711D01*
X-216697Y25705D01*
X-216700Y25701D01*
X-216708Y25684D01*
X-216774Y25564D01*
X-217672Y23395D01*
X-220245Y20822D01*
X-223606Y19430D01*
X-227244Y19430D01*
X-230605Y20822D01*
X-233178Y23395D01*
X-234570Y26756D01*
X-234570Y30394D01*
X-233178Y33755D01*
X-230605Y36328D01*
X-227244Y37720D01*
X-223606Y37720D01*
X-220245Y36328D01*
X-217672Y33755D01*
X-216774Y31586D01*
X-216712Y31486D01*
X-216652Y31386D01*
X-216648Y31382D01*
X-216644Y31377D01*
X-216554Y31302D01*
X-216465Y31226D01*
X-216460Y31224D01*
X-216455Y31220D01*
X-216346Y31178D01*
X-216237Y31134D01*
X-216230Y31133D01*
X-216225Y31132D01*
X-216207Y31131D01*
X-216071Y31116D01*
X-209379Y31116D01*
X-209265Y31135D01*
X-209148Y31152D01*
X-209143Y31154D01*
X-209137Y31155D01*
X-209034Y31210D01*
X-208929Y31263D01*
X-208925Y31268D01*
X-208919Y31271D01*
X-208839Y31355D01*
X-208757Y31439D01*
X-208753Y31445D01*
X-208750Y31449D01*
X-208742Y31466D01*
X-208676Y31586D01*
X-207778Y33755D01*
X-205205Y36328D01*
X-201844Y37720D01*
X-198206Y37720D01*
X-196037Y36821D01*
X-195923Y36794D01*
X-195809Y36766D01*
X-195803Y36766D01*
X-195797Y36765D01*
X-195681Y36776D01*
X-195564Y36785D01*
X-195559Y36787D01*
X-195552Y36788D01*
X-195445Y36836D01*
X-195338Y36881D01*
X-195332Y36886D01*
X-195328Y36888D01*
X-195314Y36901D01*
X-195207Y36986D01*
X-187329Y44864D01*
X-187287Y44922D01*
X-187238Y44974D01*
X-187216Y45022D01*
X-187185Y45064D01*
X-187164Y45132D01*
X-187134Y45198D01*
X-187128Y45249D01*
X-187113Y45299D01*
X-187115Y45371D01*
X-187107Y45442D01*
X-187118Y45493D01*
X-187119Y45545D01*
X-187144Y45612D01*
X-187159Y45682D01*
X-187186Y45727D01*
X-187204Y45776D01*
X-187249Y45832D01*
X-187285Y45893D01*
X-187325Y45927D01*
X-187358Y45968D01*
X-187418Y46007D01*
X-187472Y46053D01*
X-187521Y46073D01*
X-187564Y46101D01*
X-187634Y46118D01*
X-187700Y46145D01*
X-187772Y46153D01*
X-187803Y46161D01*
X-187826Y46159D01*
X-187867Y46164D01*
X-190589Y46164D01*
X-190609Y46161D01*
X-190628Y46163D01*
X-190730Y46141D01*
X-190832Y46124D01*
X-190849Y46115D01*
X-190869Y46110D01*
X-190958Y46057D01*
X-191049Y46009D01*
X-191063Y45995D01*
X-191080Y45984D01*
X-191147Y45906D01*
X-191219Y45831D01*
X-191227Y45813D01*
X-191240Y45797D01*
X-191279Y45701D01*
X-191322Y45608D01*
X-191324Y45588D01*
X-191332Y45569D01*
X-191350Y45403D01*
X-191350Y43081D01*
X-192243Y42188D01*
X-203507Y42188D01*
X-204400Y43081D01*
X-204400Y55344D01*
X-203507Y56237D01*
X-192243Y56237D01*
X-191350Y55344D01*
X-191350Y53022D01*
X-191347Y53003D01*
X-191349Y52983D01*
X-191327Y52882D01*
X-191311Y52780D01*
X-191301Y52762D01*
X-191297Y52743D01*
X-191244Y52654D01*
X-191195Y52562D01*
X-191181Y52549D01*
X-191171Y52532D01*
X-191092Y52464D01*
X-191017Y52393D01*
X-190999Y52385D01*
X-190984Y52372D01*
X-190888Y52333D01*
X-190794Y52289D01*
X-190774Y52287D01*
X-190756Y52280D01*
X-190589Y52261D01*
X-183638Y52261D01*
X-183601Y52267D01*
X-183564Y52265D01*
X-183480Y52287D01*
X-183395Y52301D01*
X-183362Y52318D01*
X-183326Y52328D01*
X-183254Y52376D01*
X-183178Y52416D01*
X-183152Y52443D01*
X-183121Y52464D01*
X-183068Y52532D01*
X-183008Y52594D01*
X-182993Y52628D01*
X-182970Y52658D01*
X-182941Y52739D01*
X-182905Y52817D01*
X-182901Y52855D01*
X-182888Y52890D01*
X-182877Y53057D01*
X-182880Y53102D01*
X-182870Y53137D01*
X-182844Y53202D01*
X-182835Y53275D01*
X-182827Y53307D01*
X-182828Y53329D01*
X-182823Y53369D01*
X-182795Y56242D01*
X-182798Y56265D01*
X-182796Y56289D01*
X-182817Y56386D01*
X-182832Y56485D01*
X-182843Y56506D01*
X-182848Y56529D01*
X-182899Y56615D01*
X-182945Y56704D01*
X-182962Y56720D01*
X-182974Y56740D01*
X-183050Y56805D01*
X-183122Y56875D01*
X-183143Y56885D01*
X-183161Y56900D01*
X-183254Y56938D01*
X-183344Y56981D01*
X-183367Y56983D01*
X-183389Y56992D01*
X-183556Y57011D01*
X-187994Y57011D01*
X-188887Y57904D01*
X-188887Y61707D01*
X-188827Y61768D01*
X-188815Y61784D01*
X-188799Y61796D01*
X-188743Y61883D01*
X-188683Y61967D01*
X-188677Y61986D01*
X-188666Y62003D01*
X-188641Y62104D01*
X-188611Y62202D01*
X-188611Y62222D01*
X-188606Y62242D01*
X-188614Y62345D01*
X-188617Y62448D01*
X-188624Y62467D01*
X-188625Y62487D01*
X-188666Y62582D01*
X-188701Y62679D01*
X-188714Y62695D01*
X-188722Y62713D01*
X-188827Y62844D01*
X-188887Y62905D01*
X-188887Y66708D01*
X-188826Y66769D01*
X-188814Y66785D01*
X-188799Y66798D01*
X-188743Y66885D01*
X-188683Y66969D01*
X-188677Y66988D01*
X-188666Y67005D01*
X-188641Y67105D01*
X-188610Y67204D01*
X-188611Y67224D01*
X-188606Y67243D01*
X-188614Y67346D01*
X-188617Y67450D01*
X-188623Y67469D01*
X-188625Y67488D01*
X-188665Y67584D01*
X-188701Y67681D01*
X-188713Y67697D01*
X-188721Y67715D01*
X-188826Y67846D01*
X-188887Y67907D01*
X-188887Y71508D01*
X-188890Y71527D01*
X-188888Y71547D01*
X-188910Y71648D01*
X-188927Y71750D01*
X-188936Y71768D01*
X-188941Y71787D01*
X-188994Y71876D01*
X-189042Y71968D01*
X-189056Y71981D01*
X-189067Y71998D01*
X-189145Y72066D01*
X-189220Y72137D01*
X-189238Y72145D01*
X-189254Y72158D01*
X-189350Y72197D01*
X-189443Y72241D01*
X-189463Y72243D01*
X-189482Y72250D01*
X-189648Y72269D01*
X-275582Y72269D01*
X-275626Y72262D01*
X-275670Y72264D01*
X-275810Y72231D01*
X-275825Y72229D01*
X-275828Y72227D01*
X-275833Y72226D01*
X-275896Y72204D01*
X-275926Y72188D01*
X-275960Y72179D01*
X-276034Y72129D01*
X-276112Y72087D01*
X-276135Y72061D01*
X-276164Y72042D01*
X-276273Y71914D01*
X-277073Y70741D01*
X-277514Y70095D01*
X-277528Y70064D01*
X-277550Y70037D01*
X-277580Y69953D01*
X-277618Y69872D01*
X-277621Y69838D01*
X-277633Y69805D01*
X-277639Y69726D01*
X-278077Y69254D01*
X-278095Y69227D01*
X-278148Y69165D01*
X-278508Y68636D01*
X-278573Y68606D01*
X-278657Y68575D01*
X-278684Y68554D01*
X-278715Y68539D01*
X-278842Y68429D01*
X-280340Y66815D01*
X-280359Y66786D01*
X-280385Y66762D01*
X-280427Y66684D01*
X-280476Y66610D01*
X-280485Y66577D01*
X-280502Y66546D01*
X-280519Y66469D01*
X-281022Y66067D01*
X-281044Y66043D01*
X-281106Y65990D01*
X-281541Y65520D01*
X-281610Y65500D01*
X-281697Y65482D01*
X-281727Y65465D01*
X-281760Y65455D01*
X-281902Y65366D01*
X-283624Y63993D01*
X-283647Y63967D01*
X-283676Y63947D01*
X-283729Y63876D01*
X-283789Y63810D01*
X-283802Y63779D01*
X-283823Y63751D01*
X-283852Y63677D01*
X-284410Y63355D01*
X-284435Y63334D01*
X-284464Y63316D01*
X-284481Y63307D01*
X-284485Y63303D01*
X-284504Y63291D01*
X-285004Y62892D01*
X-285075Y62882D01*
X-285164Y62877D01*
X-285196Y62864D01*
X-285231Y62860D01*
X-285384Y62792D01*
X-287291Y61691D01*
X-287318Y61669D01*
X-287349Y61654D01*
X-287413Y61592D01*
X-287482Y61535D01*
X-287500Y61506D01*
X-287525Y61482D01*
X-287564Y61413D01*
X-288163Y61178D01*
X-288192Y61161D01*
X-288266Y61129D01*
X-288821Y60808D01*
X-288892Y60809D01*
X-288981Y60818D01*
X-289015Y60810D01*
X-289049Y60810D01*
X-289211Y60767D01*
X-291261Y59962D01*
X-291291Y59944D01*
X-291324Y59934D01*
X-291396Y59882D01*
X-291472Y59837D01*
X-291495Y59810D01*
X-291523Y59790D01*
X-291573Y59728D01*
X-292200Y59584D01*
X-292231Y59572D01*
X-292309Y59551D01*
X-292905Y59317D01*
X-292976Y59328D01*
X-293062Y59350D01*
X-293096Y59348D01*
X-293131Y59353D01*
X-293297Y59334D01*
X-295444Y58844D01*
X-295476Y58831D01*
X-295510Y58826D01*
X-295590Y58785D01*
X-295672Y58751D01*
X-295698Y58729D01*
X-295729Y58713D01*
X-295787Y58659D01*
X-296429Y58611D01*
X-296461Y58603D01*
X-296541Y58594D01*
X-297166Y58451D01*
X-297234Y58473D01*
X-297316Y58507D01*
X-297351Y58510D01*
X-297384Y58521D01*
X-297551Y58526D01*
X-298107Y58485D01*
X-298219Y58458D01*
X-298330Y58434D01*
X-298338Y58429D01*
X-298346Y58427D01*
X-298443Y58366D01*
X-298541Y58307D01*
X-298547Y58301D01*
X-298555Y58296D01*
X-298627Y58208D01*
X-298701Y58121D01*
X-298705Y58112D01*
X-298710Y58106D01*
X-298750Y57999D01*
X-298793Y57892D01*
X-298794Y57882D01*
X-298797Y57875D01*
X-298798Y57852D01*
X-298812Y57726D01*
X-298812Y20090D01*
X-300791Y20250D01*
X-300819Y20246D01*
X-300848Y20251D01*
X-300917Y20234D01*
X-300988Y20226D01*
X-301013Y20211D01*
X-301041Y20205D01*
X-301099Y20162D01*
X-301161Y20127D01*
X-301178Y20104D01*
X-301201Y20087D01*
X-301238Y20025D01*
X-301281Y19968D01*
X-301288Y19940D01*
X-301303Y19915D01*
X-301319Y19817D01*
X-301330Y19776D01*
X-301328Y19765D01*
X-301330Y19751D01*
X-301307Y712D01*
X-301292Y637D01*
X-301284Y560D01*
X-301272Y540D01*
X-301268Y517D01*
X-301224Y454D01*
X-301186Y387D01*
X-301166Y370D01*
X-301155Y353D01*
X-301117Y329D01*
X-301058Y280D01*
X-284581Y-9259D01*
X-284554Y-9268D01*
X-284530Y-9285D01*
X-284460Y-9300D01*
X-284393Y-9322D01*
X-284364Y-9320D01*
X-284335Y-9326D01*
X-284265Y-9313D01*
X-284194Y-9307D01*
X-284169Y-9294D01*
X-284140Y-9288D01*
X-284081Y-9248D01*
X-284018Y-9216D01*
X-283999Y-9193D01*
X-283975Y-9177D01*
X-283918Y-9095D01*
X-283891Y-9063D01*
X-283888Y-9052D01*
X-283880Y-9041D01*
X-283028Y-7245D01*
X-250448Y-26054D01*
X-250341Y-26095D01*
X-250235Y-26138D01*
X-250226Y-26138D01*
X-250218Y-26141D01*
X-250104Y-26145D01*
X-249990Y-26152D01*
X-249981Y-26150D01*
G37*
G36*
X-189629Y82354D02*
X-189629Y82354D01*
X-189609Y82352D01*
X-189508Y82374D01*
X-189406Y82391D01*
X-189388Y82400D01*
X-189369Y82405D01*
X-189280Y82458D01*
X-189188Y82506D01*
X-189175Y82520D01*
X-189158Y82531D01*
X-189090Y82609D01*
X-189019Y82684D01*
X-189011Y82702D01*
X-188998Y82718D01*
X-188959Y82814D01*
X-188915Y82907D01*
X-188913Y82927D01*
X-188906Y82946D01*
X-188887Y83112D01*
X-188887Y86713D01*
X-188826Y86774D01*
X-188814Y86790D01*
X-188799Y86803D01*
X-188743Y86890D01*
X-188683Y86974D01*
X-188677Y86993D01*
X-188666Y87010D01*
X-188641Y87110D01*
X-188610Y87209D01*
X-188611Y87229D01*
X-188606Y87248D01*
X-188614Y87351D01*
X-188617Y87455D01*
X-188623Y87474D01*
X-188625Y87493D01*
X-188665Y87589D01*
X-188701Y87686D01*
X-188713Y87702D01*
X-188721Y87720D01*
X-188826Y87851D01*
X-188887Y87912D01*
X-188887Y91715D01*
X-188827Y91776D01*
X-188815Y91792D01*
X-188799Y91804D01*
X-188743Y91891D01*
X-188683Y91975D01*
X-188677Y91994D01*
X-188666Y92011D01*
X-188641Y92112D01*
X-188611Y92210D01*
X-188611Y92230D01*
X-188606Y92250D01*
X-188614Y92353D01*
X-188617Y92456D01*
X-188624Y92475D01*
X-188625Y92495D01*
X-188666Y92590D01*
X-188701Y92687D01*
X-188714Y92703D01*
X-188722Y92721D01*
X-188827Y92852D01*
X-188887Y92913D01*
X-188887Y96716D01*
X-188827Y96777D01*
X-188815Y96793D01*
X-188799Y96805D01*
X-188743Y96892D01*
X-188683Y96976D01*
X-188677Y96995D01*
X-188666Y97012D01*
X-188641Y97113D01*
X-188611Y97211D01*
X-188611Y97231D01*
X-188606Y97251D01*
X-188614Y97354D01*
X-188617Y97457D01*
X-188624Y97476D01*
X-188625Y97496D01*
X-188666Y97591D01*
X-188701Y97688D01*
X-188714Y97704D01*
X-188722Y97722D01*
X-188827Y97853D01*
X-188887Y97914D01*
X-188887Y101261D01*
X-188890Y101280D01*
X-188888Y101300D01*
X-188910Y101401D01*
X-188927Y101503D01*
X-188936Y101521D01*
X-188941Y101540D01*
X-188994Y101629D01*
X-189042Y101721D01*
X-189056Y101734D01*
X-189067Y101751D01*
X-189145Y101819D01*
X-189220Y101890D01*
X-189238Y101898D01*
X-189254Y101911D01*
X-189350Y101950D01*
X-189443Y101994D01*
X-189463Y101996D01*
X-189482Y102003D01*
X-189648Y102022D01*
X-196939Y102022D01*
X-196959Y102019D01*
X-196978Y102021D01*
X-197080Y101999D01*
X-197182Y101982D01*
X-197199Y101973D01*
X-197219Y101968D01*
X-197308Y101915D01*
X-197399Y101867D01*
X-197413Y101853D01*
X-197430Y101842D01*
X-197497Y101764D01*
X-197569Y101689D01*
X-197577Y101671D01*
X-197590Y101655D01*
X-197629Y101559D01*
X-197672Y101466D01*
X-197674Y101446D01*
X-197682Y101427D01*
X-197700Y101261D01*
X-197700Y97056D01*
X-198593Y96163D01*
X-209857Y96163D01*
X-210750Y97056D01*
X-210750Y109319D01*
X-209857Y110212D01*
X-198350Y110212D01*
X-198279Y110224D01*
X-198207Y110226D01*
X-198158Y110244D01*
X-198107Y110252D01*
X-198044Y110286D01*
X-197976Y110310D01*
X-197936Y110343D01*
X-197889Y110367D01*
X-197840Y110419D01*
X-197784Y110464D01*
X-197756Y110508D01*
X-197720Y110545D01*
X-197690Y110610D01*
X-197651Y110671D01*
X-197638Y110721D01*
X-197616Y110768D01*
X-197609Y110840D01*
X-197591Y110909D01*
X-197595Y110961D01*
X-197589Y111013D01*
X-197605Y111083D01*
X-197610Y111154D01*
X-197631Y111202D01*
X-197642Y111253D01*
X-197678Y111315D01*
X-197707Y111381D01*
X-197751Y111437D01*
X-197768Y111464D01*
X-197786Y111480D01*
X-197811Y111512D01*
X-215904Y129604D01*
X-217615Y131316D01*
X-217615Y180558D01*
X-217618Y180578D01*
X-217616Y180597D01*
X-217638Y180699D01*
X-217655Y180801D01*
X-217664Y180818D01*
X-217669Y180838D01*
X-217722Y180927D01*
X-217770Y181018D01*
X-217784Y181032D01*
X-217795Y181049D01*
X-217873Y181116D01*
X-217948Y181187D01*
X-217966Y181196D01*
X-217982Y181209D01*
X-218078Y181247D01*
X-218171Y181291D01*
X-218191Y181293D01*
X-218210Y181301D01*
X-218376Y181319D01*
X-218967Y181319D01*
X-221631Y183984D01*
X-221631Y187583D01*
X-221640Y187636D01*
X-221639Y187689D01*
X-221660Y187756D01*
X-221671Y187826D01*
X-221696Y187873D01*
X-221712Y187924D01*
X-221753Y187981D01*
X-221786Y188043D01*
X-221825Y188080D01*
X-221856Y188123D01*
X-221944Y188193D01*
X-221964Y188212D01*
X-221974Y188217D01*
X-221987Y188227D01*
X-222096Y188296D01*
X-222128Y188309D01*
X-222156Y188330D01*
X-222241Y188357D01*
X-222323Y188391D01*
X-222358Y188394D01*
X-222391Y188405D01*
X-222558Y188411D01*
X-224756Y188247D01*
X-224790Y188238D01*
X-224825Y188238D01*
X-224909Y188210D01*
X-224995Y188189D01*
X-225025Y188170D01*
X-225058Y188159D01*
X-225123Y188114D01*
X-225765Y188163D01*
X-225798Y188160D01*
X-225879Y188163D01*
X-226517Y188115D01*
X-226582Y188147D01*
X-226658Y188193D01*
X-226691Y188201D01*
X-226722Y188216D01*
X-226887Y188247D01*
X-229085Y188413D01*
X-229120Y188410D01*
X-229154Y188415D01*
X-229242Y188399D01*
X-229330Y188391D01*
X-229362Y188377D01*
X-229396Y188371D01*
X-229468Y188337D01*
X-230095Y188480D01*
X-230128Y188482D01*
X-230208Y188497D01*
X-230846Y188545D01*
X-230905Y188586D01*
X-230973Y188643D01*
X-231005Y188656D01*
X-231034Y188676D01*
X-231192Y188731D01*
X-233341Y189222D01*
X-233376Y189224D01*
X-233409Y189234D01*
X-233498Y189232D01*
X-233587Y189238D01*
X-233620Y189229D01*
X-233655Y189228D01*
X-233731Y189204D01*
X-234330Y189439D01*
X-234362Y189446D01*
X-234438Y189473D01*
X-235063Y189616D01*
X-235115Y189665D01*
X-235174Y189732D01*
X-235204Y189749D01*
X-235229Y189773D01*
X-235377Y189851D01*
X-237429Y190657D01*
X-237463Y190664D01*
X-237494Y190679D01*
X-237582Y190690D01*
X-237669Y190709D01*
X-237704Y190705D01*
X-237738Y190709D01*
X-237817Y190697D01*
X-238374Y191019D01*
X-238405Y191031D01*
X-238476Y191068D01*
X-239072Y191303D01*
X-239117Y191359D01*
X-239165Y191434D01*
X-239192Y191455D01*
X-239213Y191483D01*
X-239348Y191582D01*
X-241257Y192685D01*
X-241289Y192697D01*
X-241318Y192717D01*
X-241404Y192740D01*
X-241487Y192772D01*
X-241522Y192773D01*
X-241555Y192782D01*
X-241634Y192782D01*
X-242137Y193184D01*
X-242166Y193200D01*
X-242232Y193248D01*
X-242786Y193568D01*
X-242821Y193631D01*
X-242858Y193712D01*
X-242881Y193737D01*
X-242898Y193767D01*
X-243017Y193886D01*
X-244740Y195261D01*
X-244770Y195278D01*
X-244796Y195301D01*
X-244877Y195337D01*
X-244955Y195381D01*
X-244989Y195387D01*
X-245020Y195402D01*
X-245099Y195413D01*
X-245536Y195885D01*
X-245562Y195905D01*
X-245620Y195963D01*
X-246120Y196362D01*
X-246146Y196429D01*
X-246170Y196515D01*
X-246190Y196543D01*
X-246202Y196576D01*
X-246302Y196711D01*
X-247800Y198327D01*
X-247828Y198348D01*
X-247849Y198375D01*
X-247924Y198423D01*
X-247995Y198478D01*
X-248027Y198489D01*
X-248056Y198508D01*
X-248132Y198531D01*
X-248495Y199063D01*
X-248518Y199087D01*
X-248566Y199152D01*
X-249001Y199622D01*
X-249016Y199692D01*
X-249027Y199780D01*
X-249043Y199811D01*
X-249050Y199845D01*
X-249129Y199993D01*
X-249439Y200449D01*
X-249518Y200531D01*
X-249595Y200616D01*
X-249602Y200620D01*
X-249608Y200627D01*
X-249709Y200680D01*
X-249809Y200736D01*
X-249818Y200738D01*
X-249826Y200742D01*
X-249939Y200760D01*
X-250051Y200781D01*
X-250060Y200780D01*
X-250068Y200781D01*
X-250182Y200763D01*
X-250295Y200747D01*
X-250304Y200742D01*
X-250311Y200741D01*
X-250331Y200731D01*
X-250448Y200679D01*
X-283028Y181870D01*
X-283880Y183666D01*
X-283897Y183689D01*
X-283907Y183716D01*
X-283956Y183768D01*
X-283999Y183825D01*
X-284024Y183840D01*
X-284044Y183861D01*
X-284109Y183889D01*
X-284171Y183925D01*
X-284200Y183929D01*
X-284226Y183940D01*
X-284298Y183941D01*
X-284368Y183950D01*
X-284396Y183942D01*
X-284425Y183942D01*
X-284519Y183907D01*
X-284560Y183896D01*
X-284568Y183889D01*
X-284581Y183884D01*
X-301058Y174345D01*
X-301116Y174293D01*
X-301178Y174248D01*
X-301190Y174228D01*
X-301207Y174213D01*
X-301240Y174143D01*
X-301279Y174077D01*
X-301284Y174052D01*
X-301293Y174033D01*
X-301295Y173989D01*
X-301307Y173913D01*
X-301330Y154874D01*
X-301324Y154845D01*
X-301327Y154816D01*
X-301305Y154749D01*
X-301291Y154679D01*
X-301274Y154655D01*
X-301265Y154627D01*
X-301219Y154573D01*
X-301178Y154515D01*
X-301154Y154499D01*
X-301135Y154477D01*
X-301071Y154446D01*
X-301011Y154407D01*
X-300982Y154403D01*
X-300956Y154390D01*
X-300857Y154381D01*
X-300815Y154374D01*
X-300804Y154377D01*
X-300791Y154375D01*
X-298812Y154535D01*
X-298812Y116899D01*
X-298793Y116787D01*
X-298777Y116673D01*
X-298773Y116665D01*
X-298772Y116657D01*
X-298719Y116556D01*
X-298667Y116453D01*
X-298661Y116447D01*
X-298657Y116439D01*
X-298574Y116361D01*
X-298493Y116280D01*
X-298485Y116276D01*
X-298479Y116270D01*
X-298375Y116222D01*
X-298272Y116171D01*
X-298262Y116169D01*
X-298256Y116166D01*
X-298233Y116164D01*
X-298107Y116140D01*
X-297551Y116098D01*
X-297517Y116102D01*
X-297482Y116096D01*
X-297395Y116112D01*
X-297306Y116120D01*
X-297274Y116134D01*
X-297240Y116140D01*
X-297169Y116175D01*
X-296541Y116031D01*
X-296508Y116029D01*
X-296429Y116014D01*
X-295790Y115967D01*
X-295731Y115926D01*
X-295663Y115868D01*
X-295631Y115856D01*
X-295603Y115836D01*
X-295444Y115781D01*
X-293297Y115291D01*
X-293263Y115289D01*
X-293230Y115279D01*
X-293141Y115281D01*
X-293052Y115276D01*
X-293018Y115285D01*
X-292984Y115286D01*
X-292908Y115309D01*
X-292309Y115074D01*
X-292277Y115067D01*
X-292200Y115041D01*
X-291576Y114898D01*
X-291524Y114849D01*
X-291465Y114782D01*
X-291435Y114765D01*
X-291409Y114741D01*
X-291261Y114663D01*
X-289211Y113858D01*
X-289177Y113851D01*
X-289146Y113836D01*
X-289058Y113825D01*
X-288971Y113807D01*
X-288936Y113811D01*
X-288902Y113806D01*
X-288823Y113818D01*
X-288266Y113496D01*
X-288235Y113485D01*
X-288163Y113447D01*
X-287567Y113213D01*
X-287523Y113157D01*
X-287475Y113082D01*
X-287448Y113060D01*
X-287427Y113033D01*
X-287291Y112934D01*
X-285384Y111833D01*
X-285352Y111821D01*
X-285323Y111801D01*
X-285238Y111777D01*
X-285154Y111746D01*
X-285120Y111745D01*
X-285086Y111735D01*
X-285007Y111735D01*
X-284504Y111334D01*
X-284475Y111318D01*
X-284410Y111270D01*
X-283855Y110950D01*
X-283820Y110887D01*
X-283783Y110806D01*
X-283760Y110781D01*
X-283743Y110751D01*
X-283624Y110632D01*
X-281902Y109260D01*
X-281872Y109243D01*
X-281847Y109219D01*
X-281765Y109183D01*
X-281688Y109139D01*
X-281654Y109133D01*
X-281622Y109119D01*
X-281543Y109107D01*
X-281106Y108635D01*
X-281080Y108615D01*
X-281022Y108558D01*
X-280521Y108158D01*
X-280496Y108092D01*
X-280472Y108006D01*
X-280452Y107977D01*
X-280440Y107945D01*
X-280340Y107810D01*
X-278842Y106196D01*
X-278815Y106175D01*
X-278793Y106148D01*
X-278718Y106100D01*
X-278648Y106045D01*
X-278615Y106034D01*
X-278586Y106015D01*
X-278510Y105992D01*
X-278148Y105460D01*
X-278125Y105436D01*
X-278077Y105371D01*
X-277641Y104901D01*
X-277626Y104831D01*
X-277615Y104743D01*
X-277600Y104712D01*
X-277592Y104678D01*
X-277514Y104530D01*
X-276273Y102711D01*
X-276249Y102685D01*
X-276232Y102655D01*
X-276165Y102597D01*
X-276104Y102532D01*
X-276073Y102516D01*
X-276047Y102493D01*
X-275975Y102459D01*
X-275696Y101879D01*
X-275677Y101852D01*
X-275639Y101781D01*
X-275279Y101251D01*
X-275274Y101180D01*
X-275276Y101091D01*
X-275266Y101058D01*
X-275264Y101023D01*
X-275208Y100865D01*
X-274252Y98881D01*
X-274233Y98853D01*
X-274220Y98821D01*
X-274168Y98760D01*
X-274162Y98750D01*
X-274157Y98745D01*
X-274111Y98680D01*
X-274083Y98659D01*
X-274061Y98633D01*
X-273995Y98588D01*
X-273806Y97973D01*
X-273791Y97943D01*
X-273764Y97867D01*
X-273486Y97290D01*
X-273492Y97219D01*
X-273508Y97131D01*
X-273502Y97097D01*
X-273505Y97062D01*
X-273474Y96898D01*
X-272825Y94793D01*
X-272809Y94762D01*
X-272802Y94729D01*
X-272755Y94653D01*
X-272715Y94573D01*
X-272691Y94549D01*
X-272673Y94519D01*
X-272614Y94465D01*
X-272518Y93829D01*
X-272508Y93797D01*
X-272493Y93718D01*
X-272304Y93106D01*
X-272321Y93036D01*
X-272349Y92952D01*
X-272349Y92917D01*
X-272357Y92883D01*
X-272351Y92716D01*
X-272023Y90538D01*
X-272012Y90505D01*
X-272009Y90471D01*
X-271974Y90389D01*
X-271947Y90304D01*
X-271926Y90276D01*
X-271913Y90245D01*
X-271863Y90183D01*
X-271863Y89539D01*
X-271858Y89506D01*
X-271855Y89426D01*
X-271759Y88792D01*
X-271786Y88726D01*
X-271827Y88647D01*
X-271832Y88612D01*
X-271845Y88580D01*
X-271863Y88413D01*
X-271863Y86212D01*
X-271858Y86178D01*
X-271860Y86145D01*
X-271850Y86105D01*
X-271849Y86068D01*
X-271832Y86022D01*
X-271824Y85969D01*
X-271808Y85939D01*
X-271800Y85907D01*
X-271774Y85862D01*
X-271765Y85837D01*
X-271746Y85814D01*
X-271716Y85761D01*
X-271715Y85760D01*
X-271711Y85756D01*
X-271708Y85751D01*
X-271657Y85702D01*
X-271611Y85645D01*
X-271572Y85620D01*
X-271540Y85588D01*
X-271533Y85585D01*
X-271530Y85582D01*
X-271468Y85553D01*
X-271404Y85512D01*
X-271359Y85501D01*
X-271318Y85481D01*
X-271310Y85480D01*
X-271307Y85478D01*
X-271243Y85471D01*
X-271241Y85471D01*
X-271165Y85452D01*
X-271120Y85456D01*
X-271074Y85450D01*
X-271065Y85452D01*
X-271063Y85451D01*
X-271012Y85462D01*
X-270998Y85465D01*
X-270920Y85471D01*
X-270878Y85489D01*
X-270833Y85498D01*
X-270825Y85503D01*
X-270822Y85504D01*
X-270809Y85511D01*
X-266956Y85511D01*
X-264181Y82736D01*
X-264136Y82652D01*
X-264122Y82639D01*
X-264112Y82622D01*
X-264033Y82554D01*
X-263958Y82483D01*
X-263940Y82475D01*
X-263925Y82462D01*
X-263829Y82423D01*
X-263735Y82379D01*
X-263715Y82377D01*
X-263697Y82370D01*
X-263530Y82351D01*
X-189648Y82351D01*
X-189629Y82354D01*
G37*
G36*
X296445Y89729D02*
X296445Y89729D01*
X296465Y89727D01*
X296566Y89749D01*
X296668Y89766D01*
X296686Y89775D01*
X296705Y89780D01*
X296794Y89833D01*
X296886Y89881D01*
X296899Y89896D01*
X296916Y89906D01*
X296984Y89984D01*
X297055Y90059D01*
X297063Y90077D01*
X297076Y90093D01*
X297115Y90189D01*
X297159Y90283D01*
X297161Y90302D01*
X297168Y90321D01*
X297187Y90488D01*
X297187Y150813D01*
X297184Y150832D01*
X297186Y150852D01*
X297164Y150953D01*
X297147Y151055D01*
X297138Y151073D01*
X297133Y151092D01*
X297080Y151181D01*
X297032Y151273D01*
X297018Y151286D01*
X297007Y151303D01*
X296929Y151371D01*
X296854Y151442D01*
X296836Y151450D01*
X296820Y151463D01*
X296724Y151502D01*
X296631Y151546D01*
X296611Y151548D01*
X296592Y151555D01*
X296426Y151574D01*
X269758Y151574D01*
X269694Y151563D01*
X269628Y151563D01*
X269548Y151539D01*
X269515Y151534D01*
X269498Y151525D01*
X269467Y151516D01*
X267767Y150812D01*
X243408Y150812D01*
X241708Y151516D01*
X241644Y151531D01*
X241584Y151555D01*
X241501Y151564D01*
X241469Y151572D01*
X241449Y151570D01*
X241417Y151574D01*
X209550Y151574D01*
X209530Y151571D01*
X209511Y151573D01*
X209409Y151551D01*
X209307Y151534D01*
X209290Y151525D01*
X209270Y151520D01*
X209181Y151467D01*
X209090Y151419D01*
X209076Y151405D01*
X209059Y151394D01*
X208992Y151316D01*
X208921Y151241D01*
X208912Y151223D01*
X208899Y151207D01*
X208860Y151111D01*
X208817Y151018D01*
X208815Y150998D01*
X208807Y150979D01*
X208789Y150813D01*
X208789Y90488D01*
X208792Y90468D01*
X208790Y90448D01*
X208812Y90347D01*
X208829Y90245D01*
X208838Y90227D01*
X208842Y90208D01*
X208895Y90119D01*
X208944Y90027D01*
X208958Y90014D01*
X208968Y89997D01*
X209047Y89929D01*
X209122Y89858D01*
X209140Y89850D01*
X209155Y89837D01*
X209251Y89798D01*
X209345Y89754D01*
X209365Y89752D01*
X209383Y89745D01*
X209550Y89726D01*
X296426Y89726D01*
X296445Y89729D01*
G37*
G36*
X-51443Y-26138D02*
X-51443Y-26138D01*
X-51330Y-26122D01*
X-51321Y-26117D01*
X-51314Y-26116D01*
X-51294Y-26106D01*
X-51177Y-26054D01*
X-18592Y-7242D01*
X-17764Y-9000D01*
X-17747Y-9023D01*
X-17737Y-9051D01*
X-17688Y-9103D01*
X-17645Y-9160D01*
X-17620Y-9174D01*
X-17600Y-9195D01*
X-17535Y-9224D01*
X-17474Y-9260D01*
X-17445Y-9264D01*
X-17418Y-9275D01*
X-17347Y-9276D01*
X-17277Y-9285D01*
X-17249Y-9278D01*
X-17219Y-9278D01*
X-17126Y-9243D01*
X-17085Y-9232D01*
X-17076Y-9225D01*
X-17063Y-9220D01*
X-813Y136D01*
X15438Y-9220D01*
X15466Y-9229D01*
X15490Y-9246D01*
X15560Y-9261D01*
X15627Y-9283D01*
X15656Y-9281D01*
X15685Y-9287D01*
X15754Y-9273D01*
X15825Y-9267D01*
X15851Y-9254D01*
X15880Y-9248D01*
X15939Y-9208D01*
X16002Y-9176D01*
X16020Y-9153D01*
X16044Y-9137D01*
X16101Y-9055D01*
X16128Y-9022D01*
X16131Y-9011D01*
X16139Y-9000D01*
X16967Y-7242D01*
X47253Y-24727D01*
X47340Y-24760D01*
X47424Y-24800D01*
X47454Y-24803D01*
X47483Y-24814D01*
X47576Y-24818D01*
X47668Y-24828D01*
X47698Y-24822D01*
X47729Y-24823D01*
X47818Y-24797D01*
X47909Y-24778D01*
X47935Y-24762D01*
X47965Y-24753D01*
X48041Y-24700D01*
X48121Y-24653D01*
X48141Y-24630D01*
X48166Y-24612D01*
X48221Y-24537D01*
X48282Y-24467D01*
X48294Y-24439D01*
X48312Y-24414D01*
X48340Y-24325D01*
X48375Y-24240D01*
X48380Y-24201D01*
X48387Y-24180D01*
X48386Y-24147D01*
X48395Y-24073D01*
X48629Y11234D01*
X48625Y11257D01*
X48628Y11279D01*
X48606Y11378D01*
X48591Y11477D01*
X48580Y11497D01*
X48576Y11519D01*
X48524Y11606D01*
X48477Y11696D01*
X48461Y11711D01*
X48450Y11730D01*
X48373Y11796D01*
X48300Y11866D01*
X48280Y11876D01*
X48263Y11890D01*
X48169Y11928D01*
X48078Y11971D01*
X48055Y11974D01*
X48034Y11982D01*
X47868Y12001D01*
X15118Y12001D01*
X14785Y12525D01*
X14761Y12551D01*
X14734Y12592D01*
X12601Y14962D01*
X12573Y14982D01*
X12540Y15019D01*
X10041Y16999D01*
X10010Y17015D01*
X9972Y17046D01*
X7177Y18582D01*
X7144Y18592D01*
X7101Y18616D01*
X7021Y18644D01*
X5587Y19143D01*
X4154Y19642D01*
X4090Y19664D01*
X4055Y19669D01*
X4009Y19685D01*
X865Y20217D01*
X830Y20216D01*
X782Y20224D01*
X-2407Y20224D01*
X-2441Y20217D01*
X-2490Y20217D01*
X-5634Y19685D01*
X-5667Y19672D01*
X-5715Y19664D01*
X-8726Y18616D01*
X-8756Y18598D01*
X-8802Y18582D01*
X-11597Y17046D01*
X-11623Y17023D01*
X-11666Y16999D01*
X-14165Y15019D01*
X-14188Y14992D01*
X-14226Y14962D01*
X-16359Y12592D01*
X-16377Y12562D01*
X-16410Y12525D01*
X-16743Y12001D01*
X-69307Y12001D01*
X-69326Y11998D01*
X-69346Y12000D01*
X-69448Y11978D01*
X-69550Y11961D01*
X-69567Y11952D01*
X-69587Y11947D01*
X-69676Y11894D01*
X-69767Y11846D01*
X-69781Y11832D01*
X-69798Y11821D01*
X-69865Y11743D01*
X-69936Y11668D01*
X-69945Y11650D01*
X-69958Y11634D01*
X-69996Y11538D01*
X-70040Y11445D01*
X-70042Y11425D01*
X-70050Y11406D01*
X-70068Y11240D01*
X-70068Y-5075D01*
X-70066Y-5085D01*
X-70067Y-5090D01*
X-70061Y-5117D01*
X-70053Y-5165D01*
X-70046Y-5256D01*
X-70034Y-5286D01*
X-70028Y-5318D01*
X-69986Y-5399D01*
X-69950Y-5483D01*
X-69924Y-5515D01*
X-69913Y-5535D01*
X-69890Y-5558D01*
X-69845Y-5613D01*
X-68060Y-7399D01*
X-68060Y-11167D01*
X-69920Y-13027D01*
X-69984Y-13115D01*
X-70051Y-13202D01*
X-70056Y-13215D01*
X-70064Y-13227D01*
X-70096Y-13331D01*
X-70132Y-13434D01*
X-70132Y-13448D01*
X-70136Y-13462D01*
X-70133Y-13571D01*
X-70134Y-13680D01*
X-70130Y-13694D01*
X-70130Y-13708D01*
X-70092Y-13811D01*
X-70058Y-13914D01*
X-70050Y-13926D01*
X-70045Y-13939D01*
X-69977Y-14024D01*
X-69912Y-14112D01*
X-69900Y-14120D01*
X-69892Y-14131D01*
X-69799Y-14190D01*
X-69710Y-14252D01*
X-69694Y-14258D01*
X-69685Y-14264D01*
X-69656Y-14271D01*
X-69552Y-14307D01*
X-68284Y-14597D01*
X-68249Y-14599D01*
X-68216Y-14609D01*
X-68127Y-14607D01*
X-68038Y-14613D01*
X-68005Y-14604D01*
X-67970Y-14603D01*
X-67894Y-14579D01*
X-67295Y-14814D01*
X-67263Y-14821D01*
X-67187Y-14848D01*
X-66562Y-14991D01*
X-66510Y-15040D01*
X-66451Y-15107D01*
X-66421Y-15124D01*
X-66396Y-15148D01*
X-66248Y-15226D01*
X-64196Y-16032D01*
X-64162Y-16039D01*
X-64131Y-16054D01*
X-64043Y-16065D01*
X-63956Y-16084D01*
X-63921Y-16080D01*
X-63887Y-16084D01*
X-63808Y-16072D01*
X-63251Y-16394D01*
X-63220Y-16406D01*
X-63149Y-16443D01*
X-62553Y-16678D01*
X-62508Y-16734D01*
X-62460Y-16809D01*
X-62433Y-16830D01*
X-62412Y-16858D01*
X-62277Y-16957D01*
X-60368Y-18060D01*
X-60336Y-18072D01*
X-60307Y-18092D01*
X-60221Y-18115D01*
X-60138Y-18147D01*
X-60103Y-18148D01*
X-60070Y-18157D01*
X-59991Y-18157D01*
X-59488Y-18559D01*
X-59459Y-18575D01*
X-59393Y-18623D01*
X-58839Y-18943D01*
X-58804Y-19006D01*
X-58767Y-19087D01*
X-58744Y-19112D01*
X-58727Y-19142D01*
X-58608Y-19261D01*
X-56885Y-20636D01*
X-56855Y-20653D01*
X-56829Y-20676D01*
X-56748Y-20712D01*
X-56670Y-20756D01*
X-56636Y-20762D01*
X-56605Y-20777D01*
X-56526Y-20788D01*
X-56089Y-21260D01*
X-56063Y-21280D01*
X-56005Y-21338D01*
X-55505Y-21737D01*
X-55479Y-21804D01*
X-55455Y-21890D01*
X-55435Y-21918D01*
X-55423Y-21951D01*
X-55323Y-22086D01*
X-53825Y-23702D01*
X-53797Y-23723D01*
X-53776Y-23750D01*
X-53701Y-23798D01*
X-53630Y-23853D01*
X-53598Y-23864D01*
X-53569Y-23883D01*
X-53493Y-23906D01*
X-53130Y-24438D01*
X-53107Y-24462D01*
X-53059Y-24527D01*
X-52624Y-24997D01*
X-52609Y-25067D01*
X-52598Y-25155D01*
X-52582Y-25186D01*
X-52575Y-25220D01*
X-52496Y-25368D01*
X-52186Y-25824D01*
X-52107Y-25906D01*
X-52030Y-25991D01*
X-52023Y-25995D01*
X-52017Y-26002D01*
X-51916Y-26055D01*
X-51816Y-26111D01*
X-51807Y-26113D01*
X-51799Y-26117D01*
X-51686Y-26135D01*
X-51574Y-26156D01*
X-51565Y-26155D01*
X-51557Y-26156D01*
X-51443Y-26138D01*
G37*
%LPC*%
G36*
X151031Y71825D02*
X151031Y71825D01*
X150138Y72718D01*
X150138Y83982D01*
X150977Y84821D01*
X151030Y84895D01*
X151090Y84964D01*
X151102Y84995D01*
X151121Y85021D01*
X151148Y85108D01*
X151182Y85193D01*
X151186Y85234D01*
X151193Y85256D01*
X151192Y85288D01*
X151200Y85359D01*
X151200Y90391D01*
X151186Y90481D01*
X151178Y90572D01*
X151166Y90601D01*
X151161Y90633D01*
X151118Y90714D01*
X151082Y90798D01*
X151056Y90830D01*
X151045Y90851D01*
X151022Y90873D01*
X151003Y90897D01*
X150999Y90903D01*
X150995Y90907D01*
X150977Y90929D01*
X150700Y91206D01*
X150700Y102469D01*
X151722Y103491D01*
X151772Y103517D01*
X151785Y103531D01*
X151802Y103542D01*
X151870Y103620D01*
X151941Y103695D01*
X151949Y103713D01*
X151962Y103729D01*
X152001Y103825D01*
X152045Y103918D01*
X152047Y103938D01*
X152054Y103957D01*
X152073Y104123D01*
X152073Y104318D01*
X152058Y104408D01*
X152051Y104499D01*
X152038Y104529D01*
X152033Y104561D01*
X151990Y104642D01*
X151955Y104725D01*
X151929Y104758D01*
X151918Y104778D01*
X151895Y104800D01*
X151850Y104856D01*
X150800Y105906D01*
X150800Y122449D01*
X151693Y123342D01*
X159457Y123342D01*
X160350Y122449D01*
X160350Y105881D01*
X160313Y105838D01*
X160300Y105808D01*
X160282Y105782D01*
X160255Y105695D01*
X160221Y105610D01*
X160216Y105569D01*
X160209Y105547D01*
X160210Y105514D01*
X160202Y105443D01*
X160202Y104123D01*
X160205Y104104D01*
X160203Y104084D01*
X160225Y103983D01*
X160242Y103881D01*
X160251Y103863D01*
X160256Y103844D01*
X160309Y103755D01*
X160357Y103663D01*
X160371Y103650D01*
X160382Y103633D01*
X160460Y103565D01*
X160535Y103494D01*
X160553Y103486D01*
X160569Y103473D01*
X160665Y103434D01*
X160758Y103390D01*
X160778Y103388D01*
X160797Y103381D01*
X160963Y103362D01*
X163857Y103362D01*
X163927Y103292D01*
X163985Y103250D01*
X164037Y103201D01*
X164084Y103179D01*
X164126Y103149D01*
X164195Y103127D01*
X164260Y103097D01*
X164312Y103091D01*
X164362Y103076D01*
X164433Y103078D01*
X164504Y103070D01*
X164555Y103081D01*
X164607Y103083D01*
X164675Y103107D01*
X164745Y103122D01*
X164790Y103149D01*
X164838Y103167D01*
X164894Y103212D01*
X164956Y103249D01*
X164990Y103288D01*
X165030Y103321D01*
X165069Y103381D01*
X165116Y103435D01*
X165135Y103484D01*
X165163Y103528D01*
X165181Y103597D01*
X165208Y103664D01*
X165216Y103735D01*
X165224Y103766D01*
X165222Y103789D01*
X165226Y103830D01*
X165226Y104252D01*
X165223Y104271D01*
X165225Y104291D01*
X165203Y104392D01*
X165187Y104494D01*
X165177Y104512D01*
X165173Y104531D01*
X165120Y104620D01*
X165071Y104712D01*
X165057Y104725D01*
X165047Y104742D01*
X164968Y104810D01*
X164893Y104881D01*
X164875Y104889D01*
X164860Y104902D01*
X164764Y104941D01*
X164670Y104985D01*
X164650Y104987D01*
X164632Y104994D01*
X164465Y105013D01*
X164393Y105013D01*
X163500Y105906D01*
X163500Y122449D01*
X164393Y123342D01*
X172157Y123342D01*
X173050Y122449D01*
X173050Y105890D01*
X173001Y105838D01*
X172979Y105791D01*
X172949Y105749D01*
X172927Y105680D01*
X172897Y105615D01*
X172891Y105563D01*
X172876Y105514D01*
X172878Y105442D01*
X172870Y105371D01*
X172881Y105320D01*
X172883Y105268D01*
X172907Y105200D01*
X172922Y105130D01*
X172949Y105085D01*
X172967Y105037D01*
X173012Y104981D01*
X173049Y104919D01*
X173088Y104885D01*
X173121Y104845D01*
X173181Y104806D01*
X173235Y104759D01*
X173284Y104740D01*
X173328Y104712D01*
X173397Y104694D01*
X173464Y104667D01*
X173535Y104659D01*
X173566Y104651D01*
X173589Y104653D01*
X173630Y104649D01*
X179477Y104649D01*
X179496Y104652D01*
X179516Y104650D01*
X179617Y104672D01*
X179719Y104688D01*
X179737Y104698D01*
X179756Y104702D01*
X179845Y104755D01*
X179937Y104804D01*
X179950Y104818D01*
X179967Y104828D01*
X180035Y104907D01*
X180106Y104982D01*
X180114Y105000D01*
X180127Y105015D01*
X180166Y105111D01*
X180210Y105205D01*
X180212Y105225D01*
X180219Y105243D01*
X180238Y105410D01*
X180238Y107732D01*
X181131Y108625D01*
X192394Y108625D01*
X193287Y107732D01*
X193287Y98059D01*
X193302Y97969D01*
X193309Y97878D01*
X193322Y97849D01*
X193327Y97817D01*
X193370Y97736D01*
X193405Y97652D01*
X193431Y97620D01*
X193442Y97599D01*
X193465Y97577D01*
X193510Y97521D01*
X193850Y97182D01*
X193850Y84918D01*
X192957Y84025D01*
X181693Y84025D01*
X181416Y84302D01*
X181342Y84356D01*
X181273Y84415D01*
X181243Y84427D01*
X181217Y84446D01*
X181130Y84473D01*
X181045Y84507D01*
X181004Y84511D01*
X180982Y84518D01*
X180949Y84517D01*
X180878Y84525D01*
X171668Y84525D01*
X170775Y85418D01*
X170775Y96682D01*
X171345Y97252D01*
X171387Y97310D01*
X171437Y97362D01*
X171459Y97409D01*
X171489Y97451D01*
X171510Y97520D01*
X171540Y97585D01*
X171546Y97637D01*
X171561Y97687D01*
X171559Y97758D01*
X171567Y97829D01*
X171556Y97880D01*
X171555Y97932D01*
X171530Y98000D01*
X171515Y98070D01*
X171488Y98115D01*
X171471Y98163D01*
X171426Y98219D01*
X171389Y98281D01*
X171349Y98315D01*
X171317Y98355D01*
X171257Y98394D01*
X171202Y98441D01*
X171154Y98460D01*
X171110Y98488D01*
X171040Y98506D01*
X170974Y98533D01*
X170903Y98541D01*
X170871Y98549D01*
X170848Y98547D01*
X170807Y98551D01*
X170187Y98551D01*
X166049Y102689D01*
X165991Y102731D01*
X165939Y102780D01*
X165892Y102802D01*
X165850Y102833D01*
X165781Y102854D01*
X165716Y102884D01*
X165664Y102890D01*
X165614Y102905D01*
X165543Y102903D01*
X165472Y102911D01*
X165421Y102900D01*
X165369Y102899D01*
X165301Y102874D01*
X165231Y102859D01*
X165186Y102832D01*
X165138Y102814D01*
X165082Y102769D01*
X165020Y102733D01*
X164986Y102693D01*
X164946Y102661D01*
X164907Y102600D01*
X164860Y102546D01*
X164841Y102497D01*
X164813Y102454D01*
X164795Y102384D01*
X164768Y102318D01*
X164760Y102246D01*
X164752Y102215D01*
X164754Y102192D01*
X164750Y102151D01*
X164750Y91206D01*
X164473Y90929D01*
X164427Y90866D01*
X164403Y90841D01*
X164399Y90831D01*
X164360Y90785D01*
X164348Y90755D01*
X164329Y90729D01*
X164302Y90642D01*
X164268Y90557D01*
X164264Y90516D01*
X164257Y90494D01*
X164258Y90462D01*
X164250Y90391D01*
X164250Y81087D01*
X164240Y81055D01*
X164206Y80970D01*
X164201Y80929D01*
X164194Y80907D01*
X164195Y80874D01*
X164187Y80803D01*
X164187Y72718D01*
X163294Y71825D01*
X151031Y71825D01*
G37*
%LPD*%
G36*
X-99146Y-56578D02*
X-99146Y-56578D01*
X-99119Y-56578D01*
X-99020Y-56541D01*
X-98981Y-56530D01*
X-98974Y-56524D01*
X-98963Y-56520D01*
X-52163Y-29520D01*
X-52143Y-29502D01*
X-52118Y-29491D01*
X-52069Y-29437D01*
X-52014Y-29388D01*
X-52002Y-29364D01*
X-51984Y-29344D01*
X-51960Y-29275D01*
X-51928Y-29209D01*
X-51927Y-29182D01*
X-51918Y-29156D01*
X-51923Y-29083D01*
X-51919Y-29010D01*
X-51929Y-28985D01*
X-51930Y-28958D01*
X-51974Y-28862D01*
X-51989Y-28824D01*
X-51995Y-28817D01*
X-52000Y-28806D01*
X-54273Y-25470D01*
X-54296Y-25447D01*
X-54320Y-25411D01*
X-57065Y-22451D01*
X-57091Y-22432D01*
X-57120Y-22400D01*
X-60276Y-19881D01*
X-60304Y-19867D01*
X-60338Y-19839D01*
X-63834Y-17819D01*
X-63864Y-17809D01*
X-63901Y-17787D01*
X-67659Y-16311D01*
X-67690Y-16305D01*
X-67730Y-16289D01*
X-71666Y-15389D01*
X-71698Y-15388D01*
X-71740Y-15378D01*
X-75766Y-15075D01*
X-75798Y-15079D01*
X-75841Y-15075D01*
X-79867Y-15375D01*
X-79898Y-15384D01*
X-79941Y-15386D01*
X-83878Y-16283D01*
X-83907Y-16297D01*
X-83949Y-16305D01*
X-87708Y-17779D01*
X-87735Y-17797D01*
X-87776Y-17812D01*
X-91273Y-19829D01*
X-91297Y-19850D01*
X-91335Y-19871D01*
X-94492Y-22388D01*
X-94513Y-22412D01*
X-94547Y-22439D01*
X-97294Y-25397D01*
X-97311Y-25425D01*
X-97341Y-25456D01*
X-99616Y-28791D01*
X-99629Y-28820D01*
X-99654Y-28856D01*
X-101407Y-32493D01*
X-101414Y-32524D01*
X-101434Y-32562D01*
X-102625Y-36420D01*
X-102628Y-36452D01*
X-102642Y-36493D01*
X-103245Y-40485D01*
X-103243Y-40517D01*
X-103251Y-40560D01*
X-103252Y-44598D01*
X-103249Y-44612D01*
X-103251Y-44621D01*
X-103246Y-44641D01*
X-103246Y-44672D01*
X-102646Y-48665D01*
X-102635Y-48695D01*
X-102629Y-48737D01*
X-101440Y-52596D01*
X-101425Y-52624D01*
X-101413Y-52666D01*
X-99662Y-56304D01*
X-99646Y-56326D01*
X-99636Y-56351D01*
X-99586Y-56404D01*
X-99542Y-56462D01*
X-99519Y-56476D01*
X-99500Y-56496D01*
X-99433Y-56525D01*
X-99370Y-56561D01*
X-99343Y-56565D01*
X-99318Y-56576D01*
X-99245Y-56576D01*
X-99172Y-56585D01*
X-99146Y-56578D01*
G37*
G36*
X-75809Y189704D02*
X-75809Y189704D01*
X-75766Y189700D01*
X-71740Y190003D01*
X-71709Y190011D01*
X-71666Y190014D01*
X-67730Y190914D01*
X-67701Y190927D01*
X-67659Y190936D01*
X-63901Y192412D01*
X-63874Y192429D01*
X-63834Y192444D01*
X-60338Y194464D01*
X-60314Y194485D01*
X-60276Y194506D01*
X-57120Y197025D01*
X-57100Y197049D01*
X-57065Y197076D01*
X-54320Y200036D01*
X-54303Y200064D01*
X-54273Y200095D01*
X-52000Y203431D01*
X-51989Y203457D01*
X-51972Y203477D01*
X-51951Y203547D01*
X-51923Y203615D01*
X-51923Y203642D01*
X-51915Y203668D01*
X-51923Y203741D01*
X-51924Y203814D01*
X-51934Y203839D01*
X-51937Y203866D01*
X-51973Y203929D01*
X-52002Y203996D01*
X-52021Y204015D01*
X-52035Y204039D01*
X-52116Y204106D01*
X-52145Y204134D01*
X-52154Y204138D01*
X-52163Y204145D01*
X-98963Y231145D01*
X-98989Y231154D01*
X-99011Y231169D01*
X-99082Y231185D01*
X-99152Y231208D01*
X-99179Y231206D01*
X-99205Y231212D01*
X-99277Y231198D01*
X-99350Y231193D01*
X-99374Y231180D01*
X-99401Y231175D01*
X-99462Y231134D01*
X-99526Y231101D01*
X-99544Y231080D01*
X-99566Y231065D01*
X-99627Y230979D01*
X-99653Y230948D01*
X-99656Y230938D01*
X-99662Y230929D01*
X-101413Y227291D01*
X-101421Y227260D01*
X-101440Y227221D01*
X-102629Y223362D01*
X-102632Y223331D01*
X-102646Y223290D01*
X-103246Y219297D01*
X-103245Y219265D01*
X-103252Y219223D01*
X-103251Y215185D01*
X-103245Y215155D01*
X-103247Y215143D01*
X-103245Y215135D01*
X-103245Y215110D01*
X-102642Y211118D01*
X-102631Y211088D01*
X-102625Y211045D01*
X-101434Y207187D01*
X-101419Y207159D01*
X-101407Y207118D01*
X-99654Y203481D01*
X-99634Y203455D01*
X-99616Y203416D01*
X-97341Y200081D01*
X-97318Y200059D01*
X-97294Y200022D01*
X-94547Y197064D01*
X-94521Y197045D01*
X-94492Y197013D01*
X-91335Y194496D01*
X-91306Y194482D01*
X-91273Y194454D01*
X-87776Y192437D01*
X-87745Y192427D01*
X-87708Y192404D01*
X-83949Y190930D01*
X-83918Y190925D01*
X-83878Y190908D01*
X-79941Y190011D01*
X-79909Y190010D01*
X-79867Y190000D01*
X-75841Y189700D01*
X-75809Y189704D01*
G37*
G36*
X-202348Y-56573D02*
X-202348Y-56573D01*
X-202275Y-56568D01*
X-202251Y-56555D01*
X-202224Y-56550D01*
X-202164Y-56509D01*
X-202099Y-56476D01*
X-202081Y-56455D01*
X-202059Y-56440D01*
X-201998Y-56354D01*
X-201972Y-56323D01*
X-201969Y-56313D01*
X-201963Y-56304D01*
X-200212Y-52666D01*
X-200204Y-52635D01*
X-200185Y-52596D01*
X-198996Y-48737D01*
X-198993Y-48706D01*
X-198979Y-48665D01*
X-198379Y-44672D01*
X-198380Y-44640D01*
X-198373Y-44598D01*
X-198374Y-40560D01*
X-198381Y-40529D01*
X-198380Y-40485D01*
X-198983Y-36493D01*
X-198994Y-36463D01*
X-199000Y-36420D01*
X-200191Y-32562D01*
X-200206Y-32534D01*
X-200218Y-32493D01*
X-201971Y-28856D01*
X-201991Y-28830D01*
X-202009Y-28791D01*
X-204284Y-25456D01*
X-204307Y-25434D01*
X-204331Y-25397D01*
X-207078Y-22439D01*
X-207104Y-22420D01*
X-207133Y-22388D01*
X-210290Y-19871D01*
X-210319Y-19857D01*
X-210352Y-19829D01*
X-213849Y-17812D01*
X-213880Y-17802D01*
X-213917Y-17779D01*
X-217676Y-16305D01*
X-217707Y-16300D01*
X-217747Y-16283D01*
X-221684Y-15386D01*
X-221716Y-15385D01*
X-221758Y-15375D01*
X-225784Y-15075D01*
X-225816Y-15079D01*
X-225859Y-15075D01*
X-229885Y-15378D01*
X-229916Y-15386D01*
X-229959Y-15389D01*
X-233895Y-16289D01*
X-233924Y-16302D01*
X-233966Y-16311D01*
X-237724Y-17787D01*
X-237751Y-17804D01*
X-237791Y-17819D01*
X-241288Y-19839D01*
X-241311Y-19860D01*
X-241349Y-19881D01*
X-244505Y-22400D01*
X-244526Y-22424D01*
X-244560Y-22451D01*
X-247305Y-25411D01*
X-247322Y-25439D01*
X-247352Y-25470D01*
X-249625Y-28806D01*
X-249636Y-28832D01*
X-249653Y-28852D01*
X-249674Y-28922D01*
X-249702Y-28990D01*
X-249702Y-29017D01*
X-249710Y-29043D01*
X-249702Y-29116D01*
X-249701Y-29189D01*
X-249691Y-29214D01*
X-249688Y-29241D01*
X-249652Y-29304D01*
X-249623Y-29371D01*
X-249604Y-29390D01*
X-249590Y-29414D01*
X-249509Y-29481D01*
X-249480Y-29509D01*
X-249471Y-29513D01*
X-249462Y-29520D01*
X-202662Y-56520D01*
X-202636Y-56529D01*
X-202614Y-56544D01*
X-202543Y-56560D01*
X-202473Y-56583D01*
X-202446Y-56581D01*
X-202420Y-56587D01*
X-202348Y-56573D01*
G37*
G36*
X-221758Y190000D02*
X-221758Y190000D01*
X-221727Y190009D01*
X-221684Y190011D01*
X-217747Y190908D01*
X-217718Y190922D01*
X-217676Y190930D01*
X-213917Y192404D01*
X-213890Y192422D01*
X-213849Y192437D01*
X-210352Y194454D01*
X-210328Y194475D01*
X-210290Y194496D01*
X-207133Y197013D01*
X-207112Y197037D01*
X-207078Y197064D01*
X-204331Y200022D01*
X-204314Y200050D01*
X-204284Y200081D01*
X-202009Y203416D01*
X-201996Y203445D01*
X-201971Y203481D01*
X-200218Y207118D01*
X-200211Y207149D01*
X-200191Y207187D01*
X-199000Y211045D01*
X-198997Y211077D01*
X-198983Y211118D01*
X-198380Y215110D01*
X-198382Y215142D01*
X-198374Y215185D01*
X-198373Y219223D01*
X-198380Y219254D01*
X-198379Y219297D01*
X-198979Y223290D01*
X-198990Y223320D01*
X-198996Y223362D01*
X-200185Y227221D01*
X-200200Y227249D01*
X-200212Y227291D01*
X-201963Y230929D01*
X-201979Y230951D01*
X-201989Y230976D01*
X-202039Y231029D01*
X-202083Y231087D01*
X-202106Y231101D01*
X-202125Y231121D01*
X-202192Y231150D01*
X-202255Y231186D01*
X-202282Y231190D01*
X-202307Y231201D01*
X-202380Y231201D01*
X-202453Y231210D01*
X-202479Y231203D01*
X-202506Y231203D01*
X-202605Y231166D01*
X-202644Y231155D01*
X-202651Y231149D01*
X-202662Y231145D01*
X-249462Y204145D01*
X-249482Y204127D01*
X-249507Y204116D01*
X-249556Y204062D01*
X-249611Y204013D01*
X-249623Y203989D01*
X-249641Y203969D01*
X-249665Y203900D01*
X-249697Y203834D01*
X-249698Y203807D01*
X-249707Y203781D01*
X-249702Y203708D01*
X-249706Y203635D01*
X-249696Y203610D01*
X-249695Y203583D01*
X-249651Y203487D01*
X-249636Y203449D01*
X-249630Y203442D01*
X-249625Y203431D01*
X-247352Y200095D01*
X-247329Y200072D01*
X-247305Y200036D01*
X-244560Y197076D01*
X-244534Y197057D01*
X-244505Y197025D01*
X-241349Y194506D01*
X-241321Y194492D01*
X-241288Y194464D01*
X-237791Y192444D01*
X-237761Y192434D01*
X-237724Y192412D01*
X-233966Y190936D01*
X-233935Y190930D01*
X-233895Y190914D01*
X-229959Y190014D01*
X-229927Y190013D01*
X-229885Y190003D01*
X-225859Y189700D01*
X-225827Y189704D01*
X-225784Y189700D01*
X-221758Y190000D01*
G37*
G36*
X-300787Y59816D02*
X-300787Y59816D01*
X-300775Y59815D01*
X-296751Y60116D01*
X-296720Y60125D01*
X-296677Y60127D01*
X-292743Y61025D01*
X-292714Y61038D01*
X-292672Y61047D01*
X-288915Y62522D01*
X-288888Y62539D01*
X-288848Y62554D01*
X-285353Y64572D01*
X-285329Y64593D01*
X-285292Y64614D01*
X-282137Y67130D01*
X-282116Y67154D01*
X-282082Y67181D01*
X-279337Y70139D01*
X-279321Y70166D01*
X-279291Y70197D01*
X-277017Y73531D01*
X-277005Y73561D01*
X-276980Y73596D01*
X-275229Y77232D01*
X-275221Y77263D01*
X-275202Y77301D01*
X-274012Y81157D01*
X-274009Y81189D01*
X-273996Y81230D01*
X-273394Y85220D01*
X-273396Y85252D01*
X-273389Y85295D01*
X-273389Y89330D01*
X-273395Y89361D01*
X-273394Y89405D01*
X-273996Y93395D01*
X-274007Y93425D01*
X-274012Y93468D01*
X-275202Y97324D01*
X-275217Y97352D01*
X-275229Y97393D01*
X-276980Y101029D01*
X-276999Y101055D01*
X-277017Y101094D01*
X-279291Y104428D01*
X-279313Y104450D01*
X-279337Y104486D01*
X-282082Y107444D01*
X-282108Y107463D01*
X-282137Y107495D01*
X-285292Y110011D01*
X-285320Y110026D01*
X-285353Y110053D01*
X-288848Y112071D01*
X-288878Y112081D01*
X-288915Y112103D01*
X-292672Y113578D01*
X-292703Y113583D01*
X-292743Y113600D01*
X-296677Y114498D01*
X-296709Y114498D01*
X-296751Y114509D01*
X-300775Y114810D01*
X-300802Y114807D01*
X-300829Y114811D01*
X-300900Y114795D01*
X-300972Y114785D01*
X-300996Y114772D01*
X-301022Y114765D01*
X-301081Y114722D01*
X-301144Y114685D01*
X-301161Y114664D01*
X-301183Y114648D01*
X-301220Y114585D01*
X-301264Y114526D01*
X-301270Y114500D01*
X-301284Y114477D01*
X-301302Y114373D01*
X-301311Y114333D01*
X-301310Y114324D01*
X-301312Y114313D01*
X-301312Y60313D01*
X-301306Y60286D01*
X-301309Y60259D01*
X-301287Y60189D01*
X-301272Y60118D01*
X-301257Y60095D01*
X-301249Y60069D01*
X-301201Y60014D01*
X-301160Y59954D01*
X-301137Y59939D01*
X-301119Y59918D01*
X-301054Y59886D01*
X-300992Y59847D01*
X-300965Y59842D01*
X-300941Y59830D01*
X-300836Y59820D01*
X-300796Y59814D01*
X-300787Y59816D01*
G37*
%LPC*%
G36*
X52518Y42400D02*
X52518Y42400D01*
X51625Y43293D01*
X51625Y50668D01*
X51611Y50758D01*
X51603Y50849D01*
X51591Y50878D01*
X51586Y50910D01*
X51552Y50973D01*
X51552Y62064D01*
X51549Y62084D01*
X51551Y62103D01*
X51529Y62205D01*
X51513Y62307D01*
X51503Y62324D01*
X51499Y62344D01*
X51446Y62433D01*
X51397Y62524D01*
X51383Y62538D01*
X51373Y62555D01*
X51294Y62622D01*
X51219Y62694D01*
X51201Y62702D01*
X51186Y62715D01*
X51090Y62754D01*
X50996Y62797D01*
X50976Y62799D01*
X50958Y62807D01*
X50791Y62825D01*
X50493Y62825D01*
X49600Y63718D01*
X49600Y75982D01*
X50493Y76875D01*
X61757Y76875D01*
X62650Y75982D01*
X62650Y67809D01*
X62653Y67789D01*
X62651Y67770D01*
X62673Y67668D01*
X62689Y67566D01*
X62699Y67549D01*
X62703Y67529D01*
X62756Y67440D01*
X62805Y67349D01*
X62819Y67335D01*
X62829Y67318D01*
X62908Y67251D01*
X62983Y67179D01*
X63001Y67171D01*
X63016Y67158D01*
X63112Y67119D01*
X63206Y67076D01*
X63226Y67074D01*
X63244Y67066D01*
X63411Y67048D01*
X70502Y67048D01*
X70521Y67051D01*
X70541Y67049D01*
X70642Y67071D01*
X70744Y67087D01*
X70762Y67097D01*
X70781Y67101D01*
X70870Y67154D01*
X70962Y67203D01*
X70975Y67217D01*
X70992Y67227D01*
X71060Y67306D01*
X71131Y67381D01*
X71139Y67399D01*
X71152Y67414D01*
X71191Y67510D01*
X71235Y67604D01*
X71237Y67624D01*
X71244Y67642D01*
X71263Y67809D01*
X71263Y68607D01*
X72156Y69500D01*
X92944Y69500D01*
X93837Y68607D01*
X93837Y56343D01*
X92944Y55450D01*
X72156Y55450D01*
X71263Y56343D01*
X71263Y57141D01*
X71260Y57161D01*
X71262Y57180D01*
X71240Y57282D01*
X71223Y57384D01*
X71214Y57401D01*
X71209Y57421D01*
X71156Y57510D01*
X71108Y57601D01*
X71094Y57615D01*
X71083Y57632D01*
X71005Y57699D01*
X70930Y57771D01*
X70912Y57779D01*
X70896Y57792D01*
X70800Y57831D01*
X70707Y57874D01*
X70687Y57876D01*
X70668Y57884D01*
X70502Y57902D01*
X63436Y57902D01*
X63416Y57899D01*
X63397Y57901D01*
X63295Y57879D01*
X63193Y57863D01*
X63176Y57853D01*
X63156Y57849D01*
X63067Y57796D01*
X62976Y57747D01*
X62962Y57733D01*
X62945Y57723D01*
X62878Y57644D01*
X62806Y57569D01*
X62798Y57551D01*
X62785Y57536D01*
X62746Y57440D01*
X62703Y57346D01*
X62701Y57326D01*
X62693Y57308D01*
X62675Y57141D01*
X62675Y43293D01*
X61782Y42400D01*
X52518Y42400D01*
G37*
%LPD*%
G36*
X149204Y-86377D02*
X149204Y-86377D01*
X149281Y-86378D01*
X149305Y-86369D01*
X149325Y-86367D01*
X149365Y-86347D01*
X149437Y-86320D01*
X165937Y-76820D01*
X165958Y-76801D01*
X165985Y-76789D01*
X166019Y-76751D01*
X166022Y-76749D01*
X166024Y-76745D01*
X166032Y-76736D01*
X166086Y-76689D01*
X166098Y-76663D01*
X166118Y-76641D01*
X166141Y-76574D01*
X166172Y-76509D01*
X166173Y-76480D01*
X166182Y-76453D01*
X166178Y-76382D01*
X166181Y-76311D01*
X166171Y-76284D01*
X166169Y-76255D01*
X166126Y-76164D01*
X166112Y-76124D01*
X166104Y-76116D01*
X166098Y-76104D01*
X164357Y-73580D01*
X164332Y-73557D01*
X164306Y-73518D01*
X162182Y-71307D01*
X162154Y-71288D01*
X162122Y-71254D01*
X159670Y-69412D01*
X159640Y-69397D01*
X159602Y-69369D01*
X156887Y-67944D01*
X156855Y-67934D01*
X156814Y-67912D01*
X153905Y-66941D01*
X153879Y-66938D01*
X153870Y-66937D01*
X153827Y-66922D01*
X150801Y-66430D01*
X150767Y-66432D01*
X150721Y-66424D01*
X147654Y-66424D01*
X147621Y-66431D01*
X147574Y-66430D01*
X144548Y-66922D01*
X144516Y-66934D01*
X144470Y-66941D01*
X141561Y-67912D01*
X141532Y-67929D01*
X141488Y-67944D01*
X138773Y-69369D01*
X138746Y-69390D01*
X138705Y-69412D01*
X136253Y-71254D01*
X136231Y-71279D01*
X136193Y-71307D01*
X134069Y-73518D01*
X134051Y-73547D01*
X134018Y-73580D01*
X132277Y-76104D01*
X132265Y-76131D01*
X132247Y-76153D01*
X132227Y-76221D01*
X132199Y-76287D01*
X132198Y-76316D01*
X132190Y-76343D01*
X132198Y-76415D01*
X132198Y-76486D01*
X132209Y-76512D01*
X132212Y-76541D01*
X132248Y-76603D01*
X132275Y-76669D01*
X132296Y-76689D01*
X132310Y-76714D01*
X132373Y-76766D01*
X132377Y-76772D01*
X132387Y-76777D01*
X132387Y-76778D01*
X132418Y-76808D01*
X132428Y-76812D01*
X132438Y-76820D01*
X148938Y-86320D01*
X149011Y-86344D01*
X149082Y-86375D01*
X149105Y-86376D01*
X149127Y-86383D01*
X149204Y-86377D01*
G37*
G36*
X150754Y241056D02*
X150754Y241056D01*
X150801Y241055D01*
X153827Y241547D01*
X153859Y241559D01*
X153905Y241566D01*
X156814Y242537D01*
X156843Y242554D01*
X156887Y242569D01*
X159602Y243994D01*
X159629Y244015D01*
X159670Y244037D01*
X162122Y245879D01*
X162144Y245904D01*
X162182Y245932D01*
X164306Y248143D01*
X164324Y248172D01*
X164357Y248205D01*
X166098Y250729D01*
X166110Y250756D01*
X166128Y250778D01*
X166149Y250846D01*
X166176Y250912D01*
X166177Y250941D01*
X166185Y250968D01*
X166177Y251040D01*
X166177Y251111D01*
X166166Y251137D01*
X166163Y251166D01*
X166128Y251228D01*
X166100Y251294D01*
X166079Y251314D01*
X166065Y251339D01*
X165988Y251403D01*
X165957Y251433D01*
X165947Y251437D01*
X165937Y251445D01*
X149437Y260945D01*
X149364Y260969D01*
X149293Y261000D01*
X149270Y261001D01*
X149248Y261008D01*
X149171Y261002D01*
X149094Y261003D01*
X149070Y260994D01*
X149050Y260992D01*
X149010Y260972D01*
X148938Y260945D01*
X132438Y251445D01*
X132417Y251426D01*
X132390Y251414D01*
X132343Y251361D01*
X132289Y251314D01*
X132277Y251288D01*
X132257Y251266D01*
X132234Y251199D01*
X132203Y251134D01*
X132202Y251105D01*
X132193Y251078D01*
X132197Y251007D01*
X132194Y250936D01*
X132204Y250909D01*
X132206Y250880D01*
X132249Y250789D01*
X132263Y250749D01*
X132271Y250741D01*
X132277Y250729D01*
X134018Y248205D01*
X134043Y248182D01*
X134069Y248143D01*
X136193Y245932D01*
X136221Y245913D01*
X136253Y245879D01*
X138705Y244037D01*
X138735Y244022D01*
X138773Y243994D01*
X141488Y242569D01*
X141520Y242559D01*
X141561Y242537D01*
X144470Y241566D01*
X144504Y241562D01*
X144548Y241547D01*
X147574Y241055D01*
X147608Y241057D01*
X147654Y241049D01*
X150721Y241049D01*
X150754Y241056D01*
G37*
%LPC*%
G36*
X29781Y46788D02*
X29781Y46788D01*
X28888Y47681D01*
X28888Y58094D01*
X29781Y58987D01*
X33089Y58987D01*
X33109Y58990D01*
X33128Y58988D01*
X33230Y59010D01*
X33332Y59027D01*
X33349Y59036D01*
X33369Y59041D01*
X33458Y59094D01*
X33549Y59142D01*
X33563Y59156D01*
X33580Y59167D01*
X33647Y59245D01*
X33719Y59320D01*
X33727Y59338D01*
X33740Y59354D01*
X33779Y59450D01*
X33822Y59543D01*
X33824Y59563D01*
X33832Y59582D01*
X33850Y59748D01*
X33850Y62153D01*
X33836Y62243D01*
X33828Y62334D01*
X33816Y62364D01*
X33811Y62396D01*
X33768Y62477D01*
X33732Y62560D01*
X33706Y62593D01*
X33695Y62613D01*
X33672Y62635D01*
X33627Y62691D01*
X32600Y63718D01*
X32600Y75982D01*
X33493Y76875D01*
X44757Y76875D01*
X45650Y75982D01*
X45650Y63718D01*
X44623Y62691D01*
X44570Y62617D01*
X44510Y62548D01*
X44498Y62518D01*
X44479Y62492D01*
X44452Y62405D01*
X44418Y62320D01*
X44414Y62279D01*
X44407Y62257D01*
X44408Y62224D01*
X44400Y62153D01*
X44400Y59728D01*
X43990Y59318D01*
X43978Y59302D01*
X43963Y59289D01*
X43907Y59202D01*
X43846Y59118D01*
X43841Y59099D01*
X43830Y59082D01*
X43805Y58982D01*
X43774Y58883D01*
X43775Y58863D01*
X43770Y58844D01*
X43778Y58741D01*
X43780Y58637D01*
X43787Y58618D01*
X43789Y58599D01*
X43829Y58504D01*
X43865Y58406D01*
X43877Y58391D01*
X43885Y58372D01*
X43990Y58241D01*
X44137Y58094D01*
X44137Y56738D01*
X44152Y56648D01*
X44159Y56557D01*
X44172Y56527D01*
X44177Y56495D01*
X44220Y56414D01*
X44255Y56330D01*
X44281Y56298D01*
X44292Y56278D01*
X44315Y56255D01*
X44360Y56199D01*
X44400Y56160D01*
X44400Y51790D01*
X44360Y51751D01*
X44307Y51677D01*
X44248Y51607D01*
X44235Y51577D01*
X44217Y51551D01*
X44190Y51464D01*
X44156Y51379D01*
X44151Y51338D01*
X44144Y51316D01*
X44145Y51284D01*
X44137Y51212D01*
X44137Y47681D01*
X43244Y46788D01*
X29781Y46788D01*
G37*
%LPD*%
%LPC*%
G36*
X-254613Y19430D02*
X-254613Y19430D01*
X-259970Y24787D01*
X-259970Y32363D01*
X-254613Y37720D01*
X-247037Y37720D01*
X-241680Y32363D01*
X-241680Y24787D01*
X-247037Y19430D01*
X-254613Y19430D01*
G37*
%LPD*%
%LPC*%
G36*
X-171232Y186125D02*
X-171232Y186125D01*
X-172125Y187018D01*
X-172125Y198282D01*
X-171232Y199175D01*
X-158968Y199175D01*
X-158075Y198282D01*
X-158075Y196873D01*
X-158072Y196854D01*
X-158074Y196834D01*
X-158052Y196733D01*
X-158036Y196631D01*
X-158026Y196613D01*
X-158022Y196594D01*
X-157969Y196505D01*
X-157920Y196413D01*
X-157906Y196400D01*
X-157896Y196383D01*
X-157817Y196315D01*
X-157742Y196244D01*
X-157724Y196236D01*
X-157709Y196223D01*
X-157613Y196184D01*
X-157519Y196140D01*
X-157499Y196138D01*
X-157481Y196131D01*
X-157314Y196112D01*
X-150831Y196112D01*
X-149938Y195219D01*
X-149938Y188956D01*
X-150831Y188063D01*
X-157314Y188063D01*
X-157334Y188060D01*
X-157353Y188062D01*
X-157455Y188040D01*
X-157557Y188023D01*
X-157574Y188014D01*
X-157594Y188009D01*
X-157683Y187956D01*
X-157774Y187908D01*
X-157788Y187894D01*
X-157805Y187883D01*
X-157872Y187805D01*
X-157944Y187730D01*
X-157952Y187712D01*
X-157965Y187696D01*
X-158004Y187600D01*
X-158047Y187507D01*
X-158049Y187487D01*
X-158057Y187468D01*
X-158075Y187302D01*
X-158075Y187018D01*
X-158968Y186125D01*
X-171232Y186125D01*
G37*
%LPD*%
%LPC*%
G36*
X-226857Y96163D02*
X-226857Y96163D01*
X-227750Y97056D01*
X-227750Y109319D01*
X-226857Y110212D01*
X-215593Y110212D01*
X-214700Y109319D01*
X-214700Y97056D01*
X-215593Y96163D01*
X-226857Y96163D01*
G37*
%LPD*%
D10*
X-151700Y146050D03*
X-139700Y146050D03*
X-127700Y146050D03*
D11*
X-214875Y49213D03*
X-197875Y49213D03*
D12*
X-150813Y252513D03*
X-93Y164833D03*
X-93Y9793D03*
X-150813Y-77888D03*
X-222313Y211213D03*
X-79313Y211213D03*
X-79313Y-36588D03*
X-222313Y-36588D03*
X149188Y252513D03*
X149188Y-77888D03*
X-293880Y169913D03*
X-293880Y4713D03*
X-293913Y87313D03*
D13*
X-178320Y121113D03*
X-173319Y121113D03*
X-168317Y121113D03*
X-163316Y121113D03*
X-158315Y121113D03*
X-153314Y121113D03*
X-148312Y121113D03*
X-143311Y121113D03*
X-138310Y121113D03*
X-133309Y121113D03*
X-128307Y121113D03*
X-123306Y121113D03*
D14*
X-117013Y114820D03*
X-117013Y109819D03*
X-117013Y104817D03*
X-117013Y99816D03*
X-117013Y94815D03*
X-117013Y89814D03*
X-117013Y84812D03*
X-117013Y79811D03*
X-117013Y74810D03*
X-117013Y69809D03*
X-117013Y64807D03*
X-117013Y59806D03*
D13*
X-123306Y53513D03*
X-128307Y53513D03*
X-133309Y53513D03*
X-138310Y53513D03*
X-143311Y53513D03*
X-148312Y53513D03*
X-153314Y53513D03*
X-158315Y53513D03*
X-163316Y53513D03*
X-168317Y53513D03*
X-173319Y53513D03*
X-178320Y53513D03*
D14*
X-184613Y59806D03*
X-184613Y64807D03*
X-184613Y69809D03*
X-184613Y74810D03*
X-184613Y79811D03*
X-184613Y84812D03*
X-184613Y89814D03*
X-184613Y94815D03*
X-184613Y99816D03*
X-184613Y104817D03*
X-184613Y109819D03*
X-184613Y114820D03*
D15*
X-150813Y87313D03*
D16*
X-250825Y28575D03*
D17*
X-225425Y28575D03*
X-200025Y28575D03*
X-174625Y28575D03*
D18*
X107633Y-26734D03*
D19*
X107633Y23267D03*
D11*
X87313Y45475D03*
X87313Y62475D03*
X186763Y101600D03*
X203763Y101600D03*
D20*
X157163Y78350D03*
X157163Y61350D03*
D11*
X-204225Y103188D03*
X-221225Y103188D03*
D20*
X-46038Y4200D03*
X-46038Y21200D03*
X-187888Y146050D03*
X-170888Y146050D03*
X-165100Y192650D03*
X-165100Y175650D03*
D21*
X-155463Y192088D03*
X-133463Y192088D03*
D11*
X56125Y69850D03*
X39125Y69850D03*
D22*
X219075Y98358D03*
X219075Y69918D03*
D20*
X177800Y74050D03*
X177800Y91050D03*
D11*
X140725Y87313D03*
X157725Y87313D03*
D20*
X157725Y96838D03*
X140725Y96838D03*
D23*
X130175Y168398D03*
X142875Y168398D03*
X155575Y168398D03*
X168275Y168398D03*
X168275Y114178D03*
X155575Y114178D03*
X142875Y114178D03*
X130175Y114178D03*
D11*
X77788Y45475D03*
X77788Y62475D03*
X187325Y91050D03*
X187325Y74050D03*
X114300Y132325D03*
X114300Y115325D03*
D24*
X57150Y51925D03*
X57150Y17925D03*
D25*
X245682Y12383D02*
X265494Y12383D01*
X265494Y62167D02*
X245682Y62167D01*
X245682Y112459D02*
X265494Y112459D01*
X265494Y162243D02*
X245682Y162243D01*
D26*
X-188888Y157163D03*
X-169888Y157163D03*
D27*
X36513Y20138D03*
X36513Y52888D03*
D28*
X147828Y-77888D02*
X149188Y-77888D01*
X147828Y-77888D02*
X9787Y1808D01*
X655Y4255D01*
X118Y4793D01*
X-1743Y4793D01*
X-1773Y4763D01*
X-3175Y4763D01*
X147288Y250613D02*
X149188Y252513D01*
X147288Y250613D02*
X14918Y174192D01*
X655Y170370D01*
X118Y169832D01*
X-1421Y169832D01*
X-1451Y169863D01*
X-1588Y169863D01*
D29*
X-65088Y3175D03*
X-87313Y3175D03*
X-179388Y-12700D03*
X-194148Y473D03*
X-210023Y67148D03*
X-208435Y86198D03*
X-222723Y170335D03*
X-203673Y170335D03*
X-139700Y146050D03*
X-139700Y181240D03*
D30*
X-220663Y118625D03*
D31*
X-220663Y119063D01*
D29*
X-134938Y65088D03*
D30*
X-134938Y42863D03*
D28*
X-134938Y71438D02*
X-150813Y87313D01*
X-134938Y71438D02*
X-134938Y65088D01*
D29*
X-165100Y192650D03*
D32*
X-164538Y192088D02*
X-155463Y192088D01*
X-164538Y192088D02*
X-165100Y192650D01*
D30*
X-72609Y-9283D03*
D33*
X-109230Y69809D02*
X-117013Y69809D01*
X-109230Y69809D02*
X-72609Y33188D01*
X-72609Y-9283D01*
X-79313Y-36588D02*
X-79313Y34863D01*
X-109538Y65088D01*
X-116732Y65088D01*
X-117013Y64807D01*
D32*
X118623Y114178D02*
X130175Y114178D01*
X118623Y114178D02*
X114300Y115325D01*
X-38688Y114863D01*
D31*
X-153314Y121113D02*
X-153314Y127797D01*
X-162079Y136563D01*
X-184750Y136563D01*
X-187888Y139700D01*
X-187888Y146050D01*
X-188888Y147050D01*
X-188888Y157163D01*
D32*
X-188888Y166537D02*
X-179774Y175650D01*
X-188888Y166537D02*
X-188888Y157163D01*
X-98267Y174442D02*
X-38688Y114863D01*
X-165100Y175650D02*
X-179774Y175650D01*
X-165100Y175650D02*
X-143724Y175650D01*
X-142516Y174442D01*
X-98267Y174442D01*
D31*
X-117013Y136988D02*
X-117013Y114820D01*
X-117013Y136988D02*
X-107763Y146237D01*
D30*
X-107763Y146237D03*
D31*
X-88900Y187325D02*
X-79313Y196913D01*
X-79313Y211213D01*
D30*
X-88900Y187325D03*
X-98425Y146050D03*
D31*
X-109538Y134938D01*
X-112432Y109819D02*
X-117013Y109819D01*
X-109538Y112713D02*
X-109538Y134938D01*
X-109538Y112713D02*
X-112432Y109819D01*
D29*
X82550Y188913D03*
X73025Y180975D03*
X57150Y184150D03*
X114300Y206375D03*
X128588Y222250D03*
X155575Y207963D03*
X169863Y225425D03*
X185738Y180975D03*
X203200Y187325D03*
X231775Y185738D03*
X201613Y214313D03*
D32*
X140725Y96838D02*
X140725Y87313D01*
X142875Y98988D02*
X142875Y114178D01*
X142875Y98988D02*
X140725Y96838D01*
X140725Y87313D02*
X-93663Y87313D01*
X-111167Y104817D02*
X-117013Y104817D01*
X-111167Y104817D02*
X-93663Y87313D01*
D31*
X-100772Y74810D02*
X-98988Y73025D01*
D30*
X-98988Y73025D03*
D32*
X-105773Y79811D01*
X-117013Y79811D01*
D33*
X-127700Y142175D02*
X-127700Y146050D01*
X-138310Y131566D02*
X-138310Y121113D01*
X-138310Y131566D02*
X-127700Y142175D01*
X-151700Y138396D02*
X-151700Y146050D01*
X-143311Y130007D02*
X-143311Y121113D01*
X-143311Y130007D02*
X-151700Y138396D01*
D30*
X-132365Y128588D03*
D33*
X-133309Y127644D01*
X-133309Y121113D01*
X-178320Y53513D02*
X-178320Y50281D01*
X-179388Y49213D01*
X-200025Y28575D01*
X-225425Y28575D01*
D32*
X-197875Y49213D02*
X-179388Y49213D01*
D33*
X-173319Y53513D02*
X-173319Y29882D01*
X-174625Y28575D01*
X-184613Y74810D02*
X-281410Y74810D01*
X-293913Y87313D01*
D30*
X-268840Y80963D03*
D33*
X-267688Y79811D02*
X-184613Y79811D01*
X-267688Y79811D02*
X-268840Y80963D01*
D28*
X56125Y52950D02*
X57150Y51925D01*
X56125Y52950D02*
X56125Y63500D01*
X56125Y69850D01*
X77788Y62475D02*
X82550Y62475D01*
X77788Y62475D02*
X57150Y62475D01*
X56125Y63500D01*
D34*
X82550Y62475D02*
X87313Y62475D01*
D30*
X82550Y62475D03*
D29*
X239713Y-19050D03*
X198438Y-39688D03*
X147638Y-42863D03*
X133350Y-19050D03*
X173038Y-12700D03*
X222250Y-3175D03*
X87313Y0D03*
X85725Y-20638D03*
D30*
X-166688Y129613D03*
D31*
X-161925Y129613D01*
X-158315Y126002D01*
X-158315Y121113D01*
D33*
X-143311Y53513D02*
X-143311Y34007D01*
X-199784Y-22466D01*
D30*
X-199784Y-22466D03*
D33*
X-158315Y27411D02*
X-158315Y53513D01*
X-158315Y27411D02*
X-222313Y-36588D01*
D30*
X-220663Y103625D03*
D31*
X-221100Y103188D01*
X-221225Y103188D01*
X-202596Y104817D02*
X-184613Y104817D01*
X-202596Y104817D02*
X-204225Y103188D01*
D34*
X215833Y101600D02*
X219075Y98358D01*
X215833Y101600D02*
X203763Y101600D01*
D32*
X186763Y101600D02*
X171450Y101600D01*
X168275Y104775D02*
X168275Y114178D01*
X168275Y104775D02*
X171450Y101600D01*
D34*
X186763Y91613D02*
X187325Y91050D01*
X186763Y91613D02*
X186763Y101600D01*
X187325Y91050D02*
X177800Y91050D01*
X156138Y113615D02*
X155575Y114178D01*
X156138Y113615D02*
X156138Y98425D01*
X157725Y96838D01*
X157725Y87313D01*
X157725Y78913D01*
X157163Y78350D01*
D28*
X39688Y69288D02*
X39125Y69850D01*
D29*
X39125Y69850D03*
X39125Y53975D03*
X39125Y61913D03*
D34*
X39125Y69850D01*
X39125Y61913D02*
X39125Y53975D01*
X39125Y54575D02*
X39125Y61913D01*
X37600Y53975D02*
X36513Y52888D01*
X37600Y53975D02*
X39125Y53975D01*
D28*
X56063Y19013D02*
X57150Y17925D01*
D34*
X54938Y20138D02*
X36513Y20138D01*
X54938Y20138D02*
X56063Y19013D01*
D29*
X117475Y73025D03*
X107950Y73025D03*
X107950Y65088D03*
X117475Y65088D03*
X4763Y122042D03*
D31*
X-148312Y121113D02*
X-148312Y129081D01*
X-165281Y146050D01*
X-170888Y146050D01*
X-169888Y147050D02*
X-169888Y157163D01*
X-169888Y147050D02*
X-170888Y146050D01*
D29*
X-26988Y96642D03*
X-23813Y104579D03*
X-39688Y72829D03*
X-23813Y72829D03*
X4763Y133154D03*
X-174625Y149788D03*
D30*
X-217083Y185868D03*
D33*
X-215075Y183860D01*
X-192525Y109819D02*
X-184613Y109819D01*
X-192525Y109819D02*
X-215075Y132368D01*
X-215075Y183860D01*
X-190963Y114820D02*
X-184613Y114820D01*
X-190963Y114820D02*
X-211138Y134995D01*
X-211138Y200038D02*
X-222313Y211213D01*
X-211138Y200038D02*
X-211138Y134995D01*
M02*
