M48
;GenerationSoftware,Autodesk,EAGLE,9.6.1*%
;CreationDate,2024-06-17T16:56:10Z*%
FMAT,2
ICI,OFF
METRIC,TZ,000.000
T5C0.300
T4C0.350
T3C0.800
T2C1.016
T1C1.321
%
G90
M71
T1
X25559Y16224
X25559Y11246
X25559Y6217
X25559Y1238
T2
X-25082Y2857
X-17463Y2857
X-22542Y2857
X-20003Y2857
T3
X10763Y2327
X10763Y-2673
T4
X-6509Y318
X-8731Y318
X-17939Y-1270
X-19415Y47
X-21002Y6715
X-20844Y8620
X-22272Y17034
X-20367Y17034
X-13970Y18124
X-2699Y9664
X-13494Y6509
X-16510Y19265
X8255Y18891
X7302Y18098
X5715Y18415
X11430Y20638
X12859Y22225
X15557Y20796
X16986Y22542
X18574Y18098
X20320Y18733
X23177Y18574
X20161Y21431
X23971Y-1905
X-13970Y14605
X14764Y-4286
X13335Y-1905
X17304Y-1270
X22225Y-318
X8731Y0
X8573Y-2064
X3912Y6985
X3912Y5398
X3912Y6191
X11747Y7302
X10795Y7302
X10795Y6509
X11747Y6509
X476Y12204
X-2381Y10458
X-3969Y7283
X-2381Y7283
X476Y13315
X-17463Y14979
X19844Y-3969
T5
X-22066Y11862
X8255Y6247
X-22066Y10363
X-21708Y18587
X-26884Y8096
X-16669Y12961
X-13236Y12859
X-9899Y7302
X-9843Y14605
X-8890Y18733
X-10776Y14624
X-7261Y-928
X-13494Y4286
X-19978Y-2247
M30