G04 EAGLE Gerber RS-274X export*
G75*
%MOMM*%
%FSLAX34Y34*%
%LPD*%
%INSolderpaste Top*%
%IPPOS*%
%AMOC8*
5,1,8,0,0,1.08239X$1,22.5*%
G01*
%ADD10R,1.000000X1.100000*%
%ADD11R,1.600000X3.000000*%
%ADD12R,6.200000X5.800000*%
%ADD13R,1.000000X1.400000*%
%ADD14R,1.003300X0.550000*%
%ADD15R,1.100000X1.000000*%
%ADD16R,0.800000X0.800000*%
%ADD17R,1.600000X0.800000*%
%ADD18R,2.200000X3.100000*%
%ADD19R,1.520000X1.500000*%
%ADD20R,1.500000X1.300000*%


D10*
X-133350Y128025D03*
X-133350Y145025D03*
D11*
X39053Y61550D03*
X84773Y61550D03*
D12*
X61913Y133350D03*
D10*
X-33900Y125413D03*
X-16900Y125413D03*
X10088Y71438D03*
X-6913Y71438D03*
D13*
X-61913Y112600D03*
X-52413Y90600D03*
X-71413Y90600D03*
D14*
X-37339Y106338D03*
X-37339Y96838D03*
X-37339Y87338D03*
X-10287Y87338D03*
X-10287Y96838D03*
X-10287Y106338D03*
D10*
X-24375Y53975D03*
X-7375Y53975D03*
X-81988Y73025D03*
X-98988Y73025D03*
X-76200Y45475D03*
X-76200Y62475D03*
D15*
X-100013Y45475D03*
X-100013Y62475D03*
D10*
X-169863Y132788D03*
X-169863Y149788D03*
D16*
X-220663Y103625D03*
X-220663Y118625D03*
D17*
X-24938Y34925D03*
X9063Y34925D03*
D18*
X112713Y101438D03*
D19*
X112713Y69238D03*
D10*
X4763Y118038D03*
X4763Y101038D03*
X-70413Y73025D03*
X-53413Y73025D03*
D20*
X-180975Y131788D03*
X-180975Y150788D03*
M02*
