G04 EAGLE Gerber RS-274X export*
G75*
%MOMM*%
%FSLAX34Y34*%
%LPD*%
%INSolderpaste Bottom*%
%IPPOS*%
%AMOC8*
5,1,8,0,0,1.08239X$1,22.5*%
G01*
%ADD10R,0.400000X1.399997*%
%ADD11R,1.000000X1.100000*%
%ADD12R,0.254000X0.550000*%
%ADD13R,0.550000X0.254000*%
%ADD14R,1.100000X1.000000*%
%ADD15R,0.800000X0.500000*%
%ADD16R,1.803000X1.600000*%
%ADD17R,0.650000X1.528000*%
%ADD18R,0.800000X1.600000*%
%ADD19R,1.300000X1.500000*%
%ADD20R,1.220000X0.915000*%

G36*
X-123363Y102411D02*
X-123363Y102411D01*
X-123360Y102410D01*
X-123317Y102430D01*
X-123274Y102449D01*
X-123273Y102451D01*
X-123271Y102452D01*
X-123238Y102537D01*
X-123238Y114761D01*
X-123239Y114763D01*
X-123238Y114765D01*
X-123258Y114808D01*
X-123277Y114851D01*
X-123279Y114852D01*
X-123280Y114854D01*
X-123365Y114887D01*
X-135589Y114887D01*
X-135591Y114886D01*
X-135593Y114887D01*
X-135636Y114867D01*
X-135679Y114848D01*
X-135680Y114846D01*
X-135682Y114845D01*
X-135715Y114761D01*
X-135715Y102537D01*
X-135714Y102535D01*
X-135715Y102532D01*
X-135695Y102489D01*
X-135676Y102446D01*
X-135674Y102445D01*
X-135673Y102443D01*
X-135589Y102410D01*
X-123365Y102410D01*
X-123363Y102411D01*
G37*
G36*
X-137587Y102411D02*
X-137587Y102411D01*
X-137584Y102410D01*
X-137541Y102430D01*
X-137498Y102449D01*
X-137497Y102451D01*
X-137495Y102452D01*
X-137462Y102537D01*
X-137462Y114761D01*
X-137463Y114763D01*
X-137462Y114765D01*
X-137482Y114808D01*
X-137501Y114851D01*
X-137503Y114852D01*
X-137504Y114854D01*
X-137589Y114887D01*
X-149813Y114887D01*
X-149815Y114886D01*
X-149817Y114887D01*
X-149860Y114867D01*
X-149903Y114848D01*
X-149904Y114846D01*
X-149906Y114845D01*
X-149939Y114761D01*
X-149939Y102537D01*
X-149938Y102535D01*
X-149939Y102532D01*
X-149919Y102489D01*
X-149900Y102446D01*
X-149898Y102445D01*
X-149897Y102443D01*
X-149813Y102410D01*
X-137589Y102410D01*
X-137587Y102411D01*
G37*
G36*
X-151811Y102411D02*
X-151811Y102411D01*
X-151808Y102410D01*
X-151765Y102430D01*
X-151722Y102449D01*
X-151721Y102451D01*
X-151719Y102452D01*
X-151686Y102537D01*
X-151686Y114761D01*
X-151687Y114763D01*
X-151686Y114765D01*
X-151706Y114808D01*
X-151725Y114851D01*
X-151727Y114852D01*
X-151728Y114854D01*
X-151813Y114887D01*
X-164037Y114887D01*
X-164039Y114886D01*
X-164041Y114887D01*
X-164084Y114867D01*
X-164127Y114848D01*
X-164128Y114846D01*
X-164130Y114845D01*
X-164163Y114761D01*
X-164163Y102537D01*
X-164162Y102535D01*
X-164163Y102532D01*
X-164143Y102489D01*
X-164124Y102446D01*
X-164122Y102445D01*
X-164121Y102443D01*
X-164037Y102410D01*
X-151813Y102410D01*
X-151811Y102411D01*
G37*
G36*
X-166035Y102411D02*
X-166035Y102411D01*
X-166032Y102410D01*
X-165989Y102430D01*
X-165946Y102449D01*
X-165945Y102451D01*
X-165943Y102452D01*
X-165910Y102537D01*
X-165910Y114761D01*
X-165911Y114763D01*
X-165910Y114765D01*
X-165930Y114808D01*
X-165949Y114851D01*
X-165951Y114852D01*
X-165952Y114854D01*
X-166037Y114887D01*
X-178261Y114887D01*
X-178263Y114886D01*
X-178265Y114887D01*
X-178308Y114867D01*
X-178351Y114848D01*
X-178352Y114846D01*
X-178354Y114845D01*
X-178387Y114761D01*
X-178387Y102537D01*
X-178386Y102535D01*
X-178387Y102532D01*
X-178367Y102489D01*
X-178348Y102446D01*
X-178346Y102445D01*
X-178345Y102443D01*
X-178261Y102410D01*
X-166037Y102410D01*
X-166035Y102411D01*
G37*
G36*
X-123363Y88187D02*
X-123363Y88187D01*
X-123360Y88186D01*
X-123317Y88206D01*
X-123274Y88225D01*
X-123273Y88227D01*
X-123271Y88228D01*
X-123238Y88313D01*
X-123238Y100537D01*
X-123239Y100539D01*
X-123238Y100541D01*
X-123258Y100584D01*
X-123277Y100627D01*
X-123279Y100628D01*
X-123280Y100630D01*
X-123365Y100663D01*
X-135589Y100663D01*
X-135591Y100662D01*
X-135593Y100663D01*
X-135636Y100643D01*
X-135679Y100624D01*
X-135680Y100622D01*
X-135682Y100621D01*
X-135715Y100537D01*
X-135715Y88313D01*
X-135714Y88311D01*
X-135715Y88308D01*
X-135695Y88265D01*
X-135676Y88222D01*
X-135674Y88221D01*
X-135673Y88219D01*
X-135589Y88186D01*
X-123365Y88186D01*
X-123363Y88187D01*
G37*
G36*
X-166035Y88187D02*
X-166035Y88187D01*
X-166032Y88186D01*
X-165989Y88206D01*
X-165946Y88225D01*
X-165945Y88227D01*
X-165943Y88228D01*
X-165910Y88313D01*
X-165910Y100537D01*
X-165911Y100539D01*
X-165910Y100541D01*
X-165930Y100584D01*
X-165949Y100627D01*
X-165951Y100628D01*
X-165952Y100630D01*
X-166037Y100663D01*
X-178261Y100663D01*
X-178263Y100662D01*
X-178265Y100663D01*
X-178308Y100643D01*
X-178351Y100624D01*
X-178352Y100622D01*
X-178354Y100621D01*
X-178387Y100537D01*
X-178387Y88313D01*
X-178386Y88311D01*
X-178387Y88308D01*
X-178367Y88265D01*
X-178348Y88222D01*
X-178346Y88221D01*
X-178345Y88219D01*
X-178261Y88186D01*
X-166037Y88186D01*
X-166035Y88187D01*
G37*
G36*
X-151811Y88187D02*
X-151811Y88187D01*
X-151808Y88186D01*
X-151765Y88206D01*
X-151722Y88225D01*
X-151721Y88227D01*
X-151719Y88228D01*
X-151686Y88313D01*
X-151686Y100537D01*
X-151687Y100539D01*
X-151686Y100541D01*
X-151706Y100584D01*
X-151725Y100627D01*
X-151727Y100628D01*
X-151728Y100630D01*
X-151813Y100663D01*
X-164037Y100663D01*
X-164039Y100662D01*
X-164041Y100663D01*
X-164084Y100643D01*
X-164127Y100624D01*
X-164128Y100622D01*
X-164130Y100621D01*
X-164163Y100537D01*
X-164163Y88313D01*
X-164162Y88311D01*
X-164163Y88308D01*
X-164143Y88265D01*
X-164124Y88222D01*
X-164122Y88221D01*
X-164121Y88219D01*
X-164037Y88186D01*
X-151813Y88186D01*
X-151811Y88187D01*
G37*
G36*
X-137587Y88187D02*
X-137587Y88187D01*
X-137584Y88186D01*
X-137541Y88206D01*
X-137498Y88225D01*
X-137497Y88227D01*
X-137495Y88228D01*
X-137462Y88313D01*
X-137462Y100537D01*
X-137463Y100539D01*
X-137462Y100541D01*
X-137482Y100584D01*
X-137501Y100627D01*
X-137503Y100628D01*
X-137504Y100630D01*
X-137589Y100663D01*
X-149813Y100663D01*
X-149815Y100662D01*
X-149817Y100663D01*
X-149860Y100643D01*
X-149903Y100624D01*
X-149904Y100622D01*
X-149906Y100621D01*
X-149939Y100537D01*
X-149939Y88313D01*
X-149938Y88311D01*
X-149939Y88308D01*
X-149919Y88265D01*
X-149900Y88222D01*
X-149898Y88221D01*
X-149897Y88219D01*
X-149813Y88186D01*
X-137589Y88186D01*
X-137587Y88187D01*
G37*
G36*
X-151811Y73963D02*
X-151811Y73963D01*
X-151808Y73962D01*
X-151765Y73982D01*
X-151722Y74001D01*
X-151721Y74003D01*
X-151719Y74004D01*
X-151686Y74089D01*
X-151686Y86313D01*
X-151687Y86315D01*
X-151686Y86317D01*
X-151706Y86360D01*
X-151725Y86403D01*
X-151727Y86404D01*
X-151728Y86406D01*
X-151813Y86439D01*
X-164037Y86439D01*
X-164039Y86438D01*
X-164041Y86439D01*
X-164084Y86419D01*
X-164127Y86400D01*
X-164128Y86398D01*
X-164130Y86397D01*
X-164163Y86313D01*
X-164163Y74089D01*
X-164162Y74087D01*
X-164163Y74084D01*
X-164143Y74041D01*
X-164124Y73998D01*
X-164122Y73997D01*
X-164121Y73995D01*
X-164037Y73962D01*
X-151813Y73962D01*
X-151811Y73963D01*
G37*
G36*
X-123363Y73963D02*
X-123363Y73963D01*
X-123360Y73962D01*
X-123317Y73982D01*
X-123274Y74001D01*
X-123273Y74003D01*
X-123271Y74004D01*
X-123238Y74089D01*
X-123238Y86313D01*
X-123239Y86315D01*
X-123238Y86317D01*
X-123258Y86360D01*
X-123277Y86403D01*
X-123279Y86404D01*
X-123280Y86406D01*
X-123365Y86439D01*
X-135589Y86439D01*
X-135591Y86438D01*
X-135593Y86439D01*
X-135636Y86419D01*
X-135679Y86400D01*
X-135680Y86398D01*
X-135682Y86397D01*
X-135715Y86313D01*
X-135715Y74089D01*
X-135714Y74087D01*
X-135715Y74084D01*
X-135695Y74041D01*
X-135676Y73998D01*
X-135674Y73997D01*
X-135673Y73995D01*
X-135589Y73962D01*
X-123365Y73962D01*
X-123363Y73963D01*
G37*
G36*
X-137587Y73963D02*
X-137587Y73963D01*
X-137584Y73962D01*
X-137541Y73982D01*
X-137498Y74001D01*
X-137497Y74003D01*
X-137495Y74004D01*
X-137462Y74089D01*
X-137462Y86313D01*
X-137463Y86315D01*
X-137462Y86317D01*
X-137482Y86360D01*
X-137501Y86403D01*
X-137503Y86404D01*
X-137504Y86406D01*
X-137589Y86439D01*
X-149813Y86439D01*
X-149815Y86438D01*
X-149817Y86439D01*
X-149860Y86419D01*
X-149903Y86400D01*
X-149904Y86398D01*
X-149906Y86397D01*
X-149939Y86313D01*
X-149939Y74089D01*
X-149938Y74087D01*
X-149939Y74084D01*
X-149919Y74041D01*
X-149900Y73998D01*
X-149898Y73997D01*
X-149897Y73995D01*
X-149813Y73962D01*
X-137589Y73962D01*
X-137587Y73963D01*
G37*
G36*
X-166035Y73963D02*
X-166035Y73963D01*
X-166032Y73962D01*
X-165989Y73982D01*
X-165946Y74001D01*
X-165945Y74003D01*
X-165943Y74004D01*
X-165910Y74089D01*
X-165910Y86313D01*
X-165911Y86315D01*
X-165910Y86317D01*
X-165930Y86360D01*
X-165949Y86403D01*
X-165951Y86404D01*
X-165952Y86406D01*
X-166037Y86439D01*
X-178261Y86439D01*
X-178263Y86438D01*
X-178265Y86439D01*
X-178308Y86419D01*
X-178351Y86400D01*
X-178352Y86398D01*
X-178354Y86397D01*
X-178387Y86313D01*
X-178387Y74089D01*
X-178386Y74087D01*
X-178387Y74084D01*
X-178367Y74041D01*
X-178348Y73998D01*
X-178346Y73997D01*
X-178345Y73995D01*
X-178261Y73962D01*
X-166037Y73962D01*
X-166035Y73963D01*
G37*
G36*
X-137587Y59739D02*
X-137587Y59739D01*
X-137584Y59738D01*
X-137541Y59758D01*
X-137498Y59777D01*
X-137497Y59779D01*
X-137495Y59780D01*
X-137462Y59865D01*
X-137462Y72089D01*
X-137463Y72091D01*
X-137462Y72093D01*
X-137482Y72136D01*
X-137501Y72179D01*
X-137503Y72180D01*
X-137504Y72182D01*
X-137589Y72215D01*
X-149813Y72215D01*
X-149815Y72214D01*
X-149817Y72215D01*
X-149860Y72195D01*
X-149903Y72176D01*
X-149904Y72174D01*
X-149906Y72173D01*
X-149939Y72089D01*
X-149939Y59865D01*
X-149938Y59863D01*
X-149939Y59860D01*
X-149919Y59817D01*
X-149900Y59774D01*
X-149898Y59773D01*
X-149897Y59771D01*
X-149813Y59738D01*
X-137589Y59738D01*
X-137587Y59739D01*
G37*
G36*
X-151811Y59739D02*
X-151811Y59739D01*
X-151808Y59738D01*
X-151765Y59758D01*
X-151722Y59777D01*
X-151721Y59779D01*
X-151719Y59780D01*
X-151686Y59865D01*
X-151686Y72089D01*
X-151687Y72091D01*
X-151686Y72093D01*
X-151706Y72136D01*
X-151725Y72179D01*
X-151727Y72180D01*
X-151728Y72182D01*
X-151813Y72215D01*
X-164037Y72215D01*
X-164039Y72214D01*
X-164041Y72215D01*
X-164084Y72195D01*
X-164127Y72176D01*
X-164128Y72174D01*
X-164130Y72173D01*
X-164163Y72089D01*
X-164163Y59865D01*
X-164162Y59863D01*
X-164163Y59860D01*
X-164143Y59817D01*
X-164124Y59774D01*
X-164122Y59773D01*
X-164121Y59771D01*
X-164037Y59738D01*
X-151813Y59738D01*
X-151811Y59739D01*
G37*
G36*
X-166035Y59739D02*
X-166035Y59739D01*
X-166032Y59738D01*
X-165989Y59758D01*
X-165946Y59777D01*
X-165945Y59779D01*
X-165943Y59780D01*
X-165910Y59865D01*
X-165910Y72089D01*
X-165911Y72091D01*
X-165910Y72093D01*
X-165930Y72136D01*
X-165949Y72179D01*
X-165951Y72180D01*
X-165952Y72182D01*
X-166037Y72215D01*
X-178261Y72215D01*
X-178263Y72214D01*
X-178265Y72215D01*
X-178308Y72195D01*
X-178351Y72176D01*
X-178352Y72174D01*
X-178354Y72173D01*
X-178387Y72089D01*
X-178387Y59865D01*
X-178386Y59863D01*
X-178387Y59860D01*
X-178367Y59817D01*
X-178348Y59774D01*
X-178346Y59773D01*
X-178345Y59771D01*
X-178261Y59738D01*
X-166037Y59738D01*
X-166035Y59739D01*
G37*
G36*
X-123363Y59739D02*
X-123363Y59739D01*
X-123360Y59738D01*
X-123317Y59758D01*
X-123274Y59777D01*
X-123273Y59779D01*
X-123271Y59780D01*
X-123238Y59865D01*
X-123238Y72089D01*
X-123239Y72091D01*
X-123238Y72093D01*
X-123258Y72136D01*
X-123277Y72179D01*
X-123279Y72180D01*
X-123280Y72182D01*
X-123365Y72215D01*
X-135589Y72215D01*
X-135591Y72214D01*
X-135593Y72215D01*
X-135636Y72195D01*
X-135679Y72176D01*
X-135680Y72174D01*
X-135682Y72173D01*
X-135715Y72089D01*
X-135715Y59865D01*
X-135714Y59863D01*
X-135715Y59860D01*
X-135695Y59817D01*
X-135676Y59774D01*
X-135674Y59773D01*
X-135673Y59771D01*
X-135589Y59738D01*
X-123365Y59738D01*
X-123363Y59739D01*
G37*
D10*
X-151700Y146050D03*
X-139700Y146050D03*
X-127700Y146050D03*
D11*
X-214875Y49213D03*
X-197875Y49213D03*
D12*
X-178320Y121113D03*
X-173319Y121113D03*
X-168317Y121113D03*
X-163316Y121113D03*
X-158315Y121113D03*
X-153314Y121113D03*
X-148312Y121113D03*
X-143311Y121113D03*
X-138310Y121113D03*
X-133309Y121113D03*
X-128307Y121113D03*
X-123306Y121113D03*
D13*
X-117013Y114820D03*
X-117013Y109819D03*
X-117013Y104817D03*
X-117013Y99816D03*
X-117013Y94815D03*
X-117013Y89814D03*
X-117013Y84812D03*
X-117013Y79811D03*
X-117013Y74810D03*
X-117013Y69809D03*
X-117013Y64807D03*
X-117013Y59806D03*
D12*
X-123306Y53513D03*
X-128307Y53513D03*
X-133309Y53513D03*
X-138310Y53513D03*
X-143311Y53513D03*
X-148312Y53513D03*
X-153314Y53513D03*
X-158315Y53513D03*
X-163316Y53513D03*
X-168317Y53513D03*
X-173319Y53513D03*
X-178320Y53513D03*
D13*
X-184613Y59806D03*
X-184613Y64807D03*
X-184613Y69809D03*
X-184613Y74810D03*
X-184613Y79811D03*
X-184613Y84812D03*
X-184613Y89814D03*
X-184613Y94815D03*
X-184613Y99816D03*
X-184613Y104817D03*
X-184613Y109819D03*
X-184613Y114820D03*
D11*
X87313Y45475D03*
X87313Y62475D03*
X186763Y101600D03*
X203763Y101600D03*
D14*
X157163Y78350D03*
X157163Y61350D03*
D11*
X-204225Y103188D03*
X-221225Y103188D03*
D14*
X-46038Y4200D03*
X-46038Y21200D03*
X-187888Y146050D03*
X-170888Y146050D03*
X-165100Y192650D03*
X-165100Y175650D03*
D15*
X-155463Y192088D03*
X-133463Y192088D03*
D11*
X56125Y69850D03*
X39125Y69850D03*
D16*
X219075Y98358D03*
X219075Y69918D03*
D14*
X177800Y74050D03*
X177800Y91050D03*
D11*
X140725Y87313D03*
X157725Y87313D03*
D14*
X157725Y96838D03*
X140725Y96838D03*
D17*
X130175Y168398D03*
X142875Y168398D03*
X155575Y168398D03*
X168275Y168398D03*
X168275Y114178D03*
X155575Y114178D03*
X142875Y114178D03*
X130175Y114178D03*
D11*
X77788Y45475D03*
X77788Y62475D03*
X187325Y91050D03*
X187325Y74050D03*
X114300Y132325D03*
X114300Y115325D03*
D18*
X57150Y51925D03*
X57150Y17925D03*
D19*
X-188888Y157163D03*
X-169888Y157163D03*
D20*
X36513Y20138D03*
X36513Y52888D03*
M02*
