M48
;GenerationSoftware,Autodesk,EAGLE,9.6.2*%
;CreationDate,2023-11-16T14:50:56Z*%
FMAT,2
ICI,OFF
METRIC,TZ,000.000
T5C0.300
T4C0.350
T3C0.800
T2C1.016
T1C1.300
%
G90
M71
T1
X-4873Y25654
X5127Y25654
X127Y25654
T2
X11811Y15367
X11811Y17907
X-10795Y15367
X11811Y12827
T3
X-47Y20066
X4953Y20066
T4
X-6223Y2159
X-7366Y2159
X-7493Y4572
X-6604Y4445
X-3175Y1905
X2032Y2667
X1270Y3175
X-11938Y13081
X-9525Y13843
X-3302Y2667
T5
X2286Y18415
X8509Y12700
X9746Y22781
X-1651Y18796
X-6665Y9652
X-10160Y19939
X7620Y16510
X7620Y15748
X8382Y5207
X7620Y8255
X9652Y21463
X9779Y20828
X-10414Y17145
X-14859Y18034
X-10347Y5322
X9658Y12821
X5207Y4953
X14192Y10653
X-2331Y2481
X6858Y5969
X7366Y5207
X4953Y4191
X6350Y5334
X-8001Y24003
X-9017Y19558
X-10093Y21006
X9652Y14632
M30