G04 EAGLE Gerber RS-274X export*
G75*
%MOMM*%
%FSLAX34Y34*%
%LPD*%
%INTop Copper*%
%IPPOS*%
%AMOC8*
5,1,8,0,0,1.08239X$1,22.5*%
G01*
%ADD10R,0.800000X0.800000*%
%ADD11R,1.000000X1.100000*%
%ADD12R,1.600000X3.000000*%
%ADD13R,6.200000X5.800000*%
%ADD14R,3.200000X1.800000*%
%ADD15C,1.000000*%
%ADD16R,1.100000X1.000000*%
%ADD17C,1.981200*%
%ADD18C,1.981200*%
%ADD19P,1.649562X8X22.500000*%
%ADD20C,1.524000*%
%ADD21C,0.756400*%
%ADD22C,0.609600*%
%ADD23C,0.254000*%
%ADD24C,0.304800*%
%ADD25C,0.406400*%

G36*
X267834Y253750D02*
X267834Y253750D01*
X267860Y253748D01*
X268007Y253770D01*
X268154Y253787D01*
X268178Y253795D01*
X268204Y253799D01*
X268342Y253854D01*
X268482Y253904D01*
X268504Y253918D01*
X268528Y253928D01*
X268650Y254013D01*
X268775Y254093D01*
X268793Y254112D01*
X268814Y254127D01*
X268914Y254237D01*
X269017Y254344D01*
X269030Y254366D01*
X269048Y254386D01*
X269120Y254516D01*
X269196Y254643D01*
X269204Y254668D01*
X269216Y254691D01*
X269257Y254834D01*
X269302Y254975D01*
X269304Y255001D01*
X269311Y255026D01*
X269331Y255270D01*
X269331Y257747D01*
X270255Y259978D01*
X271962Y261685D01*
X274192Y262609D01*
X276607Y262609D01*
X278837Y261685D01*
X280544Y259978D01*
X280890Y259142D01*
X280891Y259140D01*
X280892Y259139D01*
X280975Y258990D01*
X281060Y258838D01*
X281061Y258836D01*
X281062Y258834D01*
X281221Y258648D01*
X282196Y257672D01*
X282197Y257672D01*
X285676Y254193D01*
X285775Y254114D01*
X285869Y254030D01*
X285911Y254006D01*
X285949Y253976D01*
X286063Y253922D01*
X286174Y253861D01*
X286220Y253848D01*
X286264Y253827D01*
X286387Y253801D01*
X286509Y253766D01*
X286570Y253762D01*
X286605Y253754D01*
X286653Y253755D01*
X286753Y253747D01*
X424793Y253747D01*
X424918Y253761D01*
X425044Y253768D01*
X425091Y253781D01*
X425139Y253787D01*
X425258Y253829D01*
X425379Y253864D01*
X425421Y253888D01*
X425467Y253904D01*
X425573Y253973D01*
X425683Y254034D01*
X425730Y254074D01*
X425760Y254093D01*
X425793Y254128D01*
X425870Y254193D01*
X427543Y255866D01*
X427622Y255965D01*
X427706Y256059D01*
X427730Y256102D01*
X427760Y256139D01*
X427814Y256254D01*
X427875Y256364D01*
X427888Y256411D01*
X427909Y256454D01*
X427935Y256578D01*
X427970Y256700D01*
X427975Y256760D01*
X427982Y256795D01*
X427981Y256843D01*
X427989Y256943D01*
X427989Y299062D01*
X429067Y300140D01*
X429146Y300239D01*
X429230Y300332D01*
X429254Y300375D01*
X429284Y300413D01*
X429338Y300527D01*
X429399Y300637D01*
X429412Y300684D01*
X429433Y300728D01*
X429459Y300851D01*
X429494Y300973D01*
X429499Y301034D01*
X429506Y301068D01*
X429505Y301116D01*
X429513Y301217D01*
X429513Y305883D01*
X429499Y306009D01*
X429492Y306135D01*
X429479Y306182D01*
X429473Y306230D01*
X429431Y306349D01*
X429396Y306470D01*
X429372Y306512D01*
X429356Y306558D01*
X429287Y306664D01*
X429226Y306774D01*
X429186Y306820D01*
X429167Y306850D01*
X429132Y306884D01*
X429067Y306960D01*
X428315Y307712D01*
X427391Y309943D01*
X427391Y312357D01*
X428228Y314377D01*
X428269Y314522D01*
X428315Y314665D01*
X428317Y314689D01*
X428324Y314712D01*
X428331Y314863D01*
X428343Y315012D01*
X428339Y315036D01*
X428341Y315060D01*
X428314Y315208D01*
X428291Y315357D01*
X428282Y315379D01*
X428278Y315403D01*
X428218Y315541D01*
X428163Y315681D01*
X428149Y315701D01*
X428139Y315723D01*
X428049Y315844D01*
X427964Y315967D01*
X427946Y315983D01*
X427931Y316003D01*
X427816Y316100D01*
X427705Y316200D01*
X427684Y316212D01*
X427665Y316228D01*
X427532Y316296D01*
X427400Y316369D01*
X427376Y316375D01*
X427355Y316386D01*
X427210Y316423D01*
X427064Y316464D01*
X427035Y316466D01*
X427017Y316471D01*
X426970Y316471D01*
X426821Y316483D01*
X419731Y316483D01*
X419353Y316861D01*
X419353Y341404D01*
X419350Y341430D01*
X419352Y341456D01*
X419330Y341603D01*
X419313Y341750D01*
X419305Y341775D01*
X419301Y341801D01*
X419246Y341939D01*
X419196Y342078D01*
X419182Y342100D01*
X419172Y342125D01*
X419087Y342246D01*
X419007Y342371D01*
X418988Y342389D01*
X418973Y342411D01*
X418863Y342510D01*
X418756Y342613D01*
X418734Y342627D01*
X418714Y342644D01*
X418584Y342716D01*
X418457Y342792D01*
X418432Y342800D01*
X418409Y342813D01*
X418266Y342853D01*
X418125Y342898D01*
X418099Y342900D01*
X418074Y342908D01*
X417830Y342927D01*
X385854Y342927D01*
X385728Y342913D01*
X385602Y342906D01*
X385556Y342893D01*
X385508Y342887D01*
X385389Y342845D01*
X385267Y342810D01*
X385225Y342786D01*
X385180Y342770D01*
X385073Y342701D01*
X384963Y342640D01*
X384917Y342600D01*
X384887Y342581D01*
X384853Y342546D01*
X384777Y342481D01*
X381165Y338869D01*
X381086Y338770D01*
X381002Y338676D01*
X380978Y338634D01*
X380948Y338596D01*
X380894Y338482D01*
X380833Y338371D01*
X380820Y338325D01*
X380799Y338281D01*
X380773Y338158D01*
X380738Y338036D01*
X380733Y337975D01*
X380726Y337940D01*
X380727Y337902D01*
X379795Y335652D01*
X378088Y333945D01*
X375822Y333007D01*
X375696Y333000D01*
X375672Y332993D01*
X353691Y332993D01*
X337627Y349057D01*
X337528Y349136D01*
X337434Y349220D01*
X337392Y349244D01*
X337354Y349274D01*
X337240Y349328D01*
X337129Y349389D01*
X337083Y349402D01*
X337039Y349423D01*
X336916Y349449D01*
X336794Y349484D01*
X336733Y349489D01*
X336698Y349496D01*
X336650Y349495D01*
X336550Y349503D01*
X248920Y349503D01*
X248864Y349497D01*
X248808Y349499D01*
X248691Y349477D01*
X248574Y349463D01*
X248521Y349444D01*
X248466Y349434D01*
X248260Y349351D01*
X248246Y349346D01*
X248243Y349344D01*
X248239Y349342D01*
X235539Y342992D01*
X235520Y342980D01*
X235499Y342972D01*
X235375Y342885D01*
X235247Y342802D01*
X235231Y342786D01*
X235213Y342773D01*
X235111Y342660D01*
X235006Y342550D01*
X234995Y342531D01*
X234980Y342514D01*
X234906Y342381D01*
X234829Y342250D01*
X234822Y342229D01*
X234811Y342209D01*
X234770Y342062D01*
X234724Y341918D01*
X234722Y341895D01*
X234716Y341874D01*
X234697Y341630D01*
X234697Y330200D01*
X234711Y330074D01*
X234718Y329948D01*
X234731Y329902D01*
X234737Y329854D01*
X234779Y329735D01*
X234814Y329613D01*
X234838Y329571D01*
X234854Y329526D01*
X234923Y329419D01*
X234984Y329309D01*
X235024Y329263D01*
X235043Y329233D01*
X235078Y329199D01*
X235143Y329123D01*
X256287Y307979D01*
X256287Y257810D01*
X256301Y257684D01*
X256308Y257558D01*
X256321Y257512D01*
X256327Y257464D01*
X256369Y257345D01*
X256404Y257223D01*
X256428Y257181D01*
X256444Y257136D01*
X256513Y257029D01*
X256574Y256919D01*
X256614Y256873D01*
X256633Y256843D01*
X256668Y256809D01*
X256733Y256733D01*
X259273Y254193D01*
X259372Y254114D01*
X259466Y254030D01*
X259508Y254006D01*
X259546Y253976D01*
X259660Y253922D01*
X259771Y253861D01*
X259817Y253848D01*
X259861Y253827D01*
X259984Y253801D01*
X260106Y253766D01*
X260167Y253762D01*
X260202Y253754D01*
X260250Y253755D01*
X260350Y253747D01*
X267808Y253747D01*
X267834Y253750D01*
G37*
G36*
X279138Y196216D02*
X279138Y196216D01*
X279166Y196214D01*
X279234Y196236D01*
X279305Y196250D01*
X279328Y196266D01*
X279355Y196275D01*
X279410Y196322D01*
X279469Y196363D01*
X279484Y196387D01*
X279506Y196405D01*
X279537Y196470D01*
X279576Y196530D01*
X279581Y196558D01*
X279593Y196584D01*
X279602Y196685D01*
X279609Y196727D01*
X279607Y196737D01*
X279608Y196750D01*
X279551Y197465D01*
X315559Y197465D01*
X315701Y197481D01*
X315845Y197492D01*
X315874Y197501D01*
X315905Y197505D01*
X316040Y197553D01*
X316177Y197596D01*
X316204Y197612D01*
X316233Y197622D01*
X316354Y197700D01*
X316477Y197773D01*
X316500Y197794D01*
X316526Y197811D01*
X316626Y197914D01*
X316729Y198014D01*
X316746Y198039D01*
X316768Y198062D01*
X316842Y198185D01*
X316920Y198305D01*
X316931Y198334D01*
X316947Y198361D01*
X316991Y198498D01*
X317040Y198633D01*
X317046Y198670D01*
X317053Y198693D01*
X317057Y198742D01*
X317078Y198874D01*
X317127Y199528D01*
X317126Y199541D01*
X317128Y199553D01*
X317119Y199715D01*
X317113Y199876D01*
X317109Y199889D01*
X317109Y199901D01*
X317063Y200056D01*
X317028Y200185D01*
X317223Y201039D01*
X317226Y201067D01*
X317257Y201265D01*
X317323Y202142D01*
X317355Y202177D01*
X317361Y202188D01*
X317370Y202198D01*
X317447Y202339D01*
X317527Y202480D01*
X317531Y202493D01*
X317537Y202504D01*
X317610Y202737D01*
X317877Y203906D01*
X317878Y203918D01*
X317882Y203930D01*
X317898Y204092D01*
X317915Y204252D01*
X317914Y204265D01*
X317915Y204277D01*
X317893Y204439D01*
X317877Y204570D01*
X318197Y205386D01*
X318205Y205413D01*
X318265Y205603D01*
X318460Y206461D01*
X318498Y206491D01*
X318506Y206501D01*
X318515Y206509D01*
X318613Y206638D01*
X318713Y206765D01*
X318719Y206777D01*
X318726Y206787D01*
X318834Y207007D01*
X319272Y208123D01*
X319275Y208135D01*
X319281Y208146D01*
X319320Y208304D01*
X319361Y208460D01*
X319361Y208472D01*
X319364Y208484D01*
X319367Y208646D01*
X319371Y208779D01*
X319809Y209538D01*
X319820Y209564D01*
X319908Y209744D01*
X320229Y210563D01*
X320271Y210587D01*
X320280Y210596D01*
X320291Y210602D01*
X320407Y210715D01*
X320525Y210826D01*
X320532Y210836D01*
X320541Y210845D01*
X320680Y211046D01*
X321279Y212085D01*
X321284Y212096D01*
X321291Y212107D01*
X321353Y212257D01*
X321418Y212405D01*
X321420Y212417D01*
X321425Y212429D01*
X321451Y212589D01*
X321475Y212719D01*
X322021Y213405D01*
X322036Y213428D01*
X322150Y213593D01*
X322590Y214355D01*
X322634Y214372D01*
X322645Y214380D01*
X322657Y214384D01*
X322788Y214479D01*
X322921Y214571D01*
X322929Y214580D01*
X322940Y214588D01*
X323107Y214766D01*
X323855Y215703D01*
X323861Y215714D01*
X323870Y215723D01*
X323953Y215861D01*
X324039Y215999D01*
X324043Y216011D01*
X324050Y216022D01*
X324099Y216175D01*
X324143Y216301D01*
X324785Y216898D01*
X324803Y216919D01*
X324940Y217065D01*
X325489Y217753D01*
X325536Y217763D01*
X325547Y217769D01*
X325559Y217772D01*
X325704Y217846D01*
X325849Y217917D01*
X325858Y217925D01*
X325870Y217931D01*
X326062Y218082D01*
X326941Y218898D01*
X326949Y218907D01*
X326959Y218915D01*
X327062Y219039D01*
X327167Y219162D01*
X327173Y219174D01*
X327181Y219183D01*
X327253Y219328D01*
X327315Y219446D01*
X328039Y219940D01*
X328060Y219958D01*
X328217Y220082D01*
X328862Y220680D01*
X328910Y220684D01*
X328922Y220688D01*
X328935Y220689D01*
X329088Y220740D01*
X329242Y220789D01*
X329253Y220796D01*
X329265Y220800D01*
X329478Y220921D01*
X330468Y221596D01*
X330478Y221605D01*
X330489Y221611D01*
X330609Y221718D01*
X330732Y221824D01*
X330739Y221835D01*
X330749Y221843D01*
X330841Y221975D01*
X330920Y222083D01*
X331710Y222463D01*
X331734Y222478D01*
X331907Y222577D01*
X332634Y223073D01*
X332682Y223069D01*
X332694Y223071D01*
X332707Y223071D01*
X332867Y223099D01*
X333026Y223124D01*
X333038Y223129D01*
X333051Y223131D01*
X333279Y223219D01*
X334359Y223739D01*
X334370Y223746D01*
X334381Y223750D01*
X334517Y223839D01*
X334654Y223925D01*
X334662Y223934D01*
X334673Y223941D01*
X334785Y224058D01*
X334878Y224153D01*
X335716Y224411D01*
X335742Y224423D01*
X335928Y224494D01*
X336720Y224876D01*
X336767Y224866D01*
X336780Y224866D01*
X336792Y224863D01*
X336955Y224867D01*
X337116Y224868D01*
X337128Y224871D01*
X337141Y224871D01*
X337380Y224925D01*
X338525Y225278D01*
X338537Y225283D01*
X338549Y225286D01*
X338696Y225353D01*
X338844Y225418D01*
X338855Y225426D01*
X338866Y225431D01*
X338994Y225530D01*
X339100Y225610D01*
X339967Y225740D01*
X339995Y225748D01*
X340189Y225791D01*
X341030Y226051D01*
X341075Y226033D01*
X341087Y226031D01*
X341099Y226027D01*
X341260Y226006D01*
X341420Y225984D01*
X341432Y225985D01*
X341445Y225983D01*
X341689Y226000D01*
X342875Y226179D01*
X342887Y226182D01*
X342899Y226183D01*
X343054Y226227D01*
X343211Y226270D01*
X343222Y226276D01*
X343234Y226279D01*
X343375Y226358D01*
X343518Y226435D01*
X343527Y226443D01*
X343538Y226449D01*
X343542Y226453D01*
X343560Y226458D01*
X343584Y226461D01*
X343726Y226512D01*
X343869Y226558D01*
X343889Y226570D01*
X343912Y226579D01*
X344039Y226660D01*
X344167Y226738D01*
X344185Y226755D01*
X344205Y226768D01*
X344310Y226876D01*
X344417Y226981D01*
X344430Y227001D01*
X344447Y227018D01*
X344524Y227147D01*
X344606Y227274D01*
X344614Y227297D01*
X344626Y227317D01*
X344672Y227460D01*
X344722Y227602D01*
X344725Y227626D01*
X344732Y227649D01*
X344744Y227799D01*
X344761Y227949D01*
X344758Y227973D01*
X344760Y227997D01*
X344738Y228145D01*
X344720Y228295D01*
X344711Y228322D01*
X344708Y228341D01*
X344691Y228385D01*
X344645Y228527D01*
X344451Y228995D01*
X344451Y231410D01*
X345375Y233640D01*
X347082Y235347D01*
X349313Y236271D01*
X351727Y236271D01*
X351936Y236185D01*
X352009Y236164D01*
X352079Y236134D01*
X352176Y236116D01*
X352271Y236089D01*
X352347Y236085D01*
X352422Y236072D01*
X352521Y236077D01*
X352619Y236072D01*
X352694Y236086D01*
X352771Y236090D01*
X352865Y236117D01*
X352962Y236135D01*
X353032Y236165D01*
X353105Y236186D01*
X353191Y236234D01*
X353281Y236274D01*
X353343Y236319D01*
X353410Y236356D01*
X353523Y236453D01*
X353561Y236481D01*
X353574Y236496D01*
X353596Y236515D01*
X355838Y238757D01*
X357798Y239569D01*
X371283Y239569D01*
X373243Y238757D01*
X374958Y237042D01*
X378369Y233631D01*
X380084Y231916D01*
X380896Y229955D01*
X380896Y224179D01*
X380911Y224054D01*
X380917Y223927D01*
X380931Y223881D01*
X380936Y223833D01*
X380979Y223714D01*
X381014Y223592D01*
X381037Y223550D01*
X381054Y223505D01*
X381122Y223398D01*
X381184Y223288D01*
X381223Y223242D01*
X381243Y223212D01*
X381277Y223178D01*
X381342Y223102D01*
X383721Y220723D01*
X383723Y220722D01*
X383724Y220720D01*
X383854Y220618D01*
X383878Y220596D01*
X383889Y220590D01*
X383994Y220506D01*
X383996Y220506D01*
X383998Y220504D01*
X384216Y220393D01*
X385708Y219775D01*
X387415Y218068D01*
X388339Y215837D01*
X388339Y213423D01*
X387415Y211192D01*
X385708Y209485D01*
X383477Y208561D01*
X381063Y208561D01*
X378832Y209485D01*
X377125Y211192D01*
X376507Y212684D01*
X376506Y212686D01*
X376506Y212688D01*
X376425Y212832D01*
X376338Y212989D01*
X376336Y212991D01*
X376335Y212992D01*
X376177Y213179D01*
X373315Y216041D01*
X373198Y216134D01*
X373083Y216231D01*
X373061Y216242D01*
X373042Y216257D01*
X372907Y216321D01*
X372773Y216390D01*
X372749Y216396D01*
X372727Y216406D01*
X372581Y216438D01*
X372435Y216474D01*
X372410Y216474D01*
X372386Y216480D01*
X372237Y216477D01*
X372087Y216479D01*
X372062Y216474D01*
X372038Y216474D01*
X371892Y216437D01*
X371746Y216405D01*
X371724Y216395D01*
X371700Y216389D01*
X371566Y216320D01*
X371431Y216256D01*
X371412Y216241D01*
X371390Y216229D01*
X371275Y216132D01*
X371159Y216039D01*
X371143Y216019D01*
X371124Y216003D01*
X371035Y215883D01*
X370943Y215765D01*
X370932Y215743D01*
X370917Y215723D01*
X370858Y215586D01*
X370794Y215450D01*
X370789Y215426D01*
X370779Y215403D01*
X370753Y215256D01*
X370721Y215109D01*
X370722Y215084D01*
X370717Y215060D01*
X370725Y214911D01*
X370728Y214761D01*
X370734Y214737D01*
X370735Y214712D01*
X370777Y214568D01*
X370814Y214423D01*
X370827Y214396D01*
X370832Y214377D01*
X370855Y214336D01*
X370919Y214202D01*
X371270Y213593D01*
X371287Y213570D01*
X371399Y213405D01*
X371947Y212717D01*
X371947Y212668D01*
X371950Y212656D01*
X371950Y212644D01*
X371990Y212487D01*
X372027Y212329D01*
X372033Y212318D01*
X372036Y212306D01*
X372141Y212085D01*
X372740Y211046D01*
X372748Y211036D01*
X372753Y211025D01*
X372852Y210897D01*
X372948Y210767D01*
X372958Y210758D01*
X372965Y210748D01*
X373091Y210646D01*
X373192Y210560D01*
X373512Y209744D01*
X373525Y209719D01*
X373611Y209538D01*
X374051Y208777D01*
X374044Y208729D01*
X374045Y208716D01*
X374043Y208704D01*
X374059Y208542D01*
X374072Y208381D01*
X374076Y208370D01*
X374078Y208357D01*
X374148Y208123D01*
X374586Y207007D01*
X374592Y206996D01*
X374596Y206983D01*
X374674Y206841D01*
X374750Y206699D01*
X374758Y206689D01*
X374764Y206678D01*
X374873Y206559D01*
X374960Y206458D01*
X375155Y205603D01*
X375165Y205577D01*
X375223Y205386D01*
X375544Y204567D01*
X375530Y204521D01*
X375529Y204508D01*
X375526Y204496D01*
X375517Y204335D01*
X375506Y204173D01*
X375508Y204160D01*
X375508Y204148D01*
X375543Y203906D01*
X375810Y202737D01*
X375814Y202725D01*
X375816Y202712D01*
X375872Y202561D01*
X375926Y202408D01*
X375932Y202398D01*
X375937Y202386D01*
X376026Y202251D01*
X376098Y202139D01*
X376163Y201265D01*
X376168Y201237D01*
X376197Y201039D01*
X376393Y200182D01*
X376372Y200138D01*
X376369Y200126D01*
X376364Y200114D01*
X376332Y199955D01*
X376297Y199798D01*
X376297Y199785D01*
X376295Y199773D01*
X376293Y199528D01*
X376342Y198874D01*
X376369Y198733D01*
X376391Y198591D01*
X376402Y198562D01*
X376408Y198532D01*
X376466Y198401D01*
X376519Y198267D01*
X376537Y198242D01*
X376550Y198213D01*
X376637Y198099D01*
X376718Y197981D01*
X376741Y197960D01*
X376760Y197936D01*
X376871Y197844D01*
X376977Y197748D01*
X377004Y197733D01*
X377028Y197713D01*
X377157Y197649D01*
X377282Y197579D01*
X377312Y197571D01*
X377340Y197557D01*
X377479Y197523D01*
X377618Y197484D01*
X377655Y197481D01*
X377679Y197476D01*
X377728Y197475D01*
X377861Y197465D01*
X413869Y197465D01*
X413812Y196750D01*
X413816Y196721D01*
X413811Y196693D01*
X413828Y196624D01*
X413836Y196552D01*
X413851Y196528D01*
X413857Y196500D01*
X413900Y196442D01*
X413936Y196380D01*
X413958Y196363D01*
X413975Y196340D01*
X414037Y196303D01*
X414094Y196260D01*
X414122Y196253D01*
X414146Y196238D01*
X414246Y196222D01*
X414287Y196211D01*
X414297Y196213D01*
X414310Y196211D01*
X433310Y196211D01*
X433386Y196226D01*
X433464Y196235D01*
X433483Y196246D01*
X433505Y196250D01*
X433569Y196294D01*
X433637Y196333D01*
X433653Y196352D01*
X433669Y196363D01*
X433693Y196401D01*
X433743Y196461D01*
X443243Y212961D01*
X443252Y212988D01*
X443268Y213012D01*
X443283Y213082D01*
X443306Y213150D01*
X443303Y213178D01*
X443309Y213206D01*
X443296Y213277D01*
X443290Y213348D01*
X443277Y213373D01*
X443271Y213401D01*
X443231Y213461D01*
X443198Y213524D01*
X443176Y213542D01*
X443160Y213566D01*
X443077Y213624D01*
X443045Y213651D01*
X443034Y213654D01*
X443024Y213661D01*
X442396Y213958D01*
X460374Y245096D01*
X460431Y245228D01*
X460493Y245358D01*
X460500Y245388D01*
X460512Y245416D01*
X460538Y245558D01*
X460569Y245698D01*
X460569Y245729D01*
X460574Y245759D01*
X460567Y245903D01*
X460566Y246046D01*
X460559Y246076D01*
X460557Y246107D01*
X460517Y246246D01*
X460483Y246385D01*
X460470Y246413D01*
X460461Y246442D01*
X460391Y246568D01*
X460326Y246696D01*
X460306Y246720D01*
X460292Y246747D01*
X460195Y246853D01*
X460102Y246963D01*
X460073Y246987D01*
X460057Y247005D01*
X460016Y247033D01*
X459912Y247117D01*
X459376Y247482D01*
X459365Y247488D01*
X459355Y247496D01*
X459211Y247569D01*
X459137Y247607D01*
X459119Y247618D01*
X459117Y247618D01*
X459068Y247644D01*
X459055Y247647D01*
X459044Y247653D01*
X458887Y247691D01*
X458758Y247724D01*
X458115Y248320D01*
X458093Y248337D01*
X457937Y248462D01*
X457210Y248958D01*
X457196Y249004D01*
X457189Y249015D01*
X457185Y249027D01*
X457101Y249165D01*
X457019Y249304D01*
X457010Y249313D01*
X457004Y249324D01*
X456838Y249504D01*
X456691Y249641D01*
X456593Y249713D01*
X456500Y249792D01*
X456453Y249816D01*
X456410Y249847D01*
X456298Y249895D01*
X456189Y249951D01*
X456138Y249964D01*
X456089Y249984D01*
X455969Y250005D01*
X455851Y250035D01*
X455798Y250036D01*
X455746Y250045D01*
X455625Y250038D01*
X455503Y250040D01*
X455451Y250029D01*
X455398Y250026D01*
X455281Y249992D01*
X455162Y249966D01*
X455114Y249943D01*
X455064Y249928D01*
X454958Y249868D01*
X454848Y249816D01*
X454806Y249783D01*
X454760Y249757D01*
X454670Y249674D01*
X454575Y249598D01*
X454542Y249557D01*
X454503Y249521D01*
X454435Y249421D01*
X454359Y249325D01*
X454329Y249265D01*
X454307Y249233D01*
X454290Y249190D01*
X454248Y249107D01*
X454198Y248988D01*
X452491Y247281D01*
X450261Y246357D01*
X447847Y246357D01*
X445616Y247281D01*
X443909Y248988D01*
X442985Y251219D01*
X442985Y253633D01*
X443909Y255864D01*
X445616Y257571D01*
X447919Y258525D01*
X447937Y258530D01*
X447975Y258535D01*
X448104Y258581D01*
X448234Y258620D01*
X448267Y258639D01*
X448303Y258652D01*
X448418Y258726D01*
X448536Y258794D01*
X448564Y258820D01*
X448596Y258841D01*
X448691Y258939D01*
X448790Y259032D01*
X448812Y259064D01*
X448838Y259092D01*
X448908Y259209D01*
X448984Y259322D01*
X448997Y259358D01*
X449017Y259391D01*
X449059Y259521D01*
X449107Y259648D01*
X449112Y259686D01*
X449123Y259723D01*
X449134Y259859D01*
X449152Y259994D01*
X449148Y260032D01*
X449151Y260070D01*
X449131Y260205D01*
X449118Y260341D01*
X449104Y260386D01*
X449100Y260415D01*
X449081Y260461D01*
X449047Y260575D01*
X448723Y261400D01*
X448717Y261411D01*
X448713Y261423D01*
X448635Y261564D01*
X448559Y261708D01*
X448551Y261717D01*
X448544Y261728D01*
X448436Y261848D01*
X448348Y261948D01*
X448153Y262803D01*
X448144Y262830D01*
X448086Y263021D01*
X447764Y263840D01*
X447778Y263886D01*
X447779Y263898D01*
X447783Y263910D01*
X447791Y264072D01*
X447802Y264233D01*
X447800Y264246D01*
X447800Y264258D01*
X447765Y264501D01*
X447497Y265671D01*
X447493Y265683D01*
X447492Y265696D01*
X447435Y265848D01*
X447381Y266000D01*
X447375Y266011D01*
X447370Y266023D01*
X447281Y266158D01*
X447209Y266270D01*
X447143Y267144D01*
X447138Y267172D01*
X447109Y267369D01*
X446913Y268227D01*
X446934Y268270D01*
X446937Y268282D01*
X446942Y268294D01*
X446974Y268453D01*
X447009Y268611D01*
X447009Y268623D01*
X447011Y268636D01*
X447013Y268880D01*
X446923Y270078D01*
X446920Y270090D01*
X446920Y270103D01*
X446887Y270261D01*
X446857Y270420D01*
X446852Y270432D01*
X446849Y270444D01*
X446781Y270590D01*
X446727Y270712D01*
X446792Y271586D01*
X446791Y271614D01*
X446792Y271814D01*
X446726Y272692D01*
X446753Y272732D01*
X446757Y272743D01*
X446764Y272754D01*
X446820Y272906D01*
X446878Y273057D01*
X446879Y273070D01*
X446884Y273081D01*
X446922Y273323D01*
X447011Y274521D01*
X447010Y274534D01*
X447013Y274546D01*
X447003Y274707D01*
X446997Y274869D01*
X446994Y274881D01*
X446993Y274894D01*
X446947Y275049D01*
X446912Y275177D01*
X447107Y276032D01*
X447110Y276060D01*
X447140Y276257D01*
X447206Y277135D01*
X447239Y277170D01*
X447245Y277181D01*
X447253Y277191D01*
X447331Y277333D01*
X447411Y277473D01*
X447414Y277485D01*
X447420Y277497D01*
X447494Y277730D01*
X447760Y278901D01*
X447762Y278913D01*
X447766Y278926D01*
X447781Y279088D01*
X447799Y279247D01*
X447797Y279260D01*
X447798Y279273D01*
X447776Y279433D01*
X447760Y279565D01*
X448080Y280381D01*
X448087Y280408D01*
X448147Y280599D01*
X448343Y281457D01*
X448381Y281487D01*
X448388Y281497D01*
X448398Y281505D01*
X448496Y281634D01*
X448596Y281761D01*
X448601Y281772D01*
X448609Y281782D01*
X448716Y282002D01*
X449154Y283120D01*
X449158Y283133D01*
X449163Y283144D01*
X449202Y283301D01*
X449244Y283457D01*
X449244Y283470D01*
X449247Y283482D01*
X449249Y283645D01*
X449253Y283777D01*
X449691Y284536D01*
X449702Y284562D01*
X449790Y284742D01*
X450111Y285561D01*
X450153Y285585D01*
X450162Y285594D01*
X450173Y285600D01*
X450289Y285713D01*
X450407Y285824D01*
X450414Y285834D01*
X450423Y285843D01*
X450561Y286045D01*
X451162Y287085D01*
X451167Y287097D01*
X451174Y287107D01*
X451236Y287256D01*
X451300Y287405D01*
X451303Y287417D01*
X451307Y287429D01*
X451333Y287588D01*
X451357Y287719D01*
X451904Y288405D01*
X451919Y288429D01*
X452032Y288593D01*
X452472Y289355D01*
X452516Y289373D01*
X452527Y289380D01*
X452538Y289385D01*
X452670Y289479D01*
X452803Y289572D01*
X452811Y289581D01*
X452822Y289588D01*
X452989Y289767D01*
X453738Y290706D01*
X453744Y290717D01*
X453753Y290726D01*
X453836Y290864D01*
X453922Y291002D01*
X453926Y291014D01*
X453933Y291025D01*
X453983Y291179D01*
X454025Y291304D01*
X454668Y291901D01*
X454686Y291922D01*
X454823Y292068D01*
X455371Y292756D01*
X455418Y292767D01*
X455429Y292772D01*
X455442Y292775D01*
X455585Y292849D01*
X455731Y292920D01*
X455741Y292928D01*
X455752Y292934D01*
X455944Y293086D01*
X456824Y293903D01*
X456832Y293913D01*
X456843Y293920D01*
X456945Y294045D01*
X457051Y294168D01*
X457057Y294179D01*
X457065Y294189D01*
X457137Y294333D01*
X457198Y294452D01*
X457922Y294946D01*
X457944Y294964D01*
X458100Y295088D01*
X458745Y295686D01*
X458793Y295690D01*
X458805Y295694D01*
X458818Y295695D01*
X458970Y295746D01*
X459125Y295795D01*
X459136Y295802D01*
X459148Y295806D01*
X459361Y295927D01*
X460353Y296604D01*
X460362Y296612D01*
X460374Y296618D01*
X460494Y296726D01*
X460616Y296832D01*
X460624Y296842D01*
X460633Y296851D01*
X460726Y296983D01*
X460804Y297091D01*
X461594Y297471D01*
X461618Y297486D01*
X461791Y297585D01*
X462518Y298081D01*
X462566Y298078D01*
X462579Y298080D01*
X462591Y298079D01*
X462750Y298107D01*
X462910Y298132D01*
X462922Y298137D01*
X462935Y298139D01*
X463163Y298227D01*
X464245Y298749D01*
X464255Y298756D01*
X464267Y298760D01*
X464403Y298849D01*
X464539Y298935D01*
X464548Y298944D01*
X464559Y298951D01*
X464670Y299068D01*
X464764Y299163D01*
X465601Y299422D01*
X465627Y299433D01*
X465813Y299505D01*
X466606Y299887D01*
X466653Y299876D01*
X466666Y299876D01*
X466678Y299874D01*
X466839Y299878D01*
X467001Y299879D01*
X467014Y299882D01*
X467026Y299882D01*
X467265Y299935D01*
X468413Y300290D01*
X468425Y300295D01*
X468437Y300298D01*
X468583Y300365D01*
X468732Y300430D01*
X468742Y300438D01*
X468754Y300443D01*
X468881Y300542D01*
X468988Y300622D01*
X469854Y300753D01*
X469881Y300760D01*
X470076Y300804D01*
X470917Y301063D01*
X470962Y301046D01*
X470975Y301044D01*
X470986Y301040D01*
X471147Y301019D01*
X471307Y300997D01*
X471320Y300998D01*
X471332Y300996D01*
X471576Y301013D01*
X472764Y301192D01*
X472776Y301196D01*
X472789Y301196D01*
X472944Y301241D01*
X473100Y301284D01*
X473111Y301290D01*
X473124Y301293D01*
X473265Y301372D01*
X473382Y301435D01*
X474259Y301435D01*
X474286Y301439D01*
X474486Y301453D01*
X475356Y301584D01*
X475398Y301560D01*
X475410Y301556D01*
X475421Y301550D01*
X475576Y301506D01*
X475731Y301460D01*
X475744Y301459D01*
X475756Y301456D01*
X476000Y301436D01*
X477201Y301436D01*
X477214Y301438D01*
X477226Y301437D01*
X477386Y301458D01*
X477547Y301476D01*
X477559Y301481D01*
X477572Y301482D01*
X477723Y301539D01*
X477848Y301584D01*
X478715Y301454D01*
X478743Y301453D01*
X478942Y301437D01*
X479822Y301437D01*
X479860Y301407D01*
X479871Y301402D01*
X479881Y301394D01*
X480029Y301328D01*
X480175Y301258D01*
X480188Y301256D01*
X480199Y301251D01*
X480437Y301195D01*
X481625Y301016D01*
X481638Y301016D01*
X481650Y301013D01*
X481811Y301010D01*
X481973Y301004D01*
X481986Y301007D01*
X481998Y301006D01*
X482156Y301040D01*
X482287Y301066D01*
X483125Y300808D01*
X483152Y300803D01*
X483347Y300757D01*
X484217Y300626D01*
X484250Y300591D01*
X484260Y300584D01*
X484269Y300575D01*
X484405Y300487D01*
X484539Y300397D01*
X484551Y300393D01*
X484562Y300386D01*
X484789Y300295D01*
X485937Y299941D01*
X485949Y299939D01*
X485961Y299934D01*
X486121Y299907D01*
X486279Y299878D01*
X486292Y299878D01*
X486305Y299876D01*
X486465Y299886D01*
X486599Y299892D01*
X487389Y299512D01*
X487415Y299503D01*
X487601Y299429D01*
X488442Y299170D01*
X488469Y299130D01*
X488478Y299121D01*
X488486Y299111D01*
X488607Y299004D01*
X488726Y298895D01*
X488737Y298889D01*
X488747Y298880D01*
X488958Y298757D01*
X489560Y298467D01*
X489695Y298420D01*
X489828Y298368D01*
X489859Y298363D01*
X489889Y298353D01*
X490032Y298338D01*
X490173Y298317D01*
X490204Y298320D01*
X490235Y298317D01*
X490378Y298335D01*
X490521Y298347D01*
X490550Y298356D01*
X490581Y298360D01*
X490716Y298410D01*
X490852Y298454D01*
X490879Y298470D01*
X490908Y298481D01*
X491028Y298560D01*
X491151Y298634D01*
X491173Y298656D01*
X491199Y298673D01*
X491297Y298777D01*
X491400Y298877D01*
X491422Y298908D01*
X491439Y298926D01*
X491464Y298969D01*
X491539Y299078D01*
X509518Y330219D01*
X510126Y329799D01*
X510153Y329788D01*
X510175Y329769D01*
X510244Y329749D01*
X510309Y329721D01*
X510338Y329721D01*
X510366Y329713D01*
X510437Y329721D01*
X510508Y329721D01*
X510535Y329732D01*
X510564Y329735D01*
X510626Y329770D01*
X510691Y329798D01*
X510712Y329818D01*
X510737Y329833D01*
X510800Y329910D01*
X510830Y329940D01*
X510834Y329950D01*
X510843Y329961D01*
X520343Y346461D01*
X520353Y346493D01*
X520362Y346506D01*
X520366Y346530D01*
X520367Y346534D01*
X520398Y346604D01*
X520398Y346628D01*
X520406Y346650D01*
X520400Y346726D01*
X520401Y346803D01*
X520391Y346827D01*
X520390Y346848D01*
X520369Y346887D01*
X520343Y346959D01*
X510843Y363459D01*
X510824Y363481D01*
X510811Y363507D01*
X510758Y363555D01*
X510711Y363608D01*
X510685Y363621D01*
X510664Y363640D01*
X510596Y363663D01*
X510532Y363694D01*
X510503Y363696D01*
X510476Y363705D01*
X510404Y363700D01*
X510333Y363703D01*
X510306Y363693D01*
X510277Y363691D01*
X510187Y363649D01*
X510147Y363634D01*
X510139Y363627D01*
X510126Y363621D01*
X509518Y363201D01*
X506985Y367589D01*
X506984Y367589D01*
X506984Y367590D01*
X506885Y367722D01*
X506777Y367869D01*
X506776Y367869D01*
X506776Y367870D01*
X506639Y367985D01*
X506511Y368094D01*
X506510Y368094D01*
X506510Y368095D01*
X506348Y368178D01*
X506201Y368253D01*
X506200Y368253D01*
X506200Y368254D01*
X506041Y368293D01*
X505863Y368338D01*
X505862Y368338D01*
X505861Y368338D01*
X505695Y368340D01*
X505514Y368343D01*
X505513Y368343D01*
X505324Y368302D01*
X505174Y368269D01*
X505173Y368269D01*
X505172Y368268D01*
X505009Y368191D01*
X504859Y368119D01*
X504858Y368119D01*
X504724Y368012D01*
X504586Y367902D01*
X504585Y367901D01*
X504480Y367768D01*
X504370Y367629D01*
X504370Y367628D01*
X504369Y367628D01*
X504258Y367410D01*
X504255Y367402D01*
X502548Y365695D01*
X500224Y364733D01*
X500212Y364731D01*
X500093Y364689D01*
X499972Y364654D01*
X499929Y364630D01*
X499884Y364614D01*
X499778Y364545D01*
X499667Y364484D01*
X499621Y364444D01*
X499591Y364425D01*
X499558Y364390D01*
X499481Y364325D01*
X491683Y356527D01*
X491604Y356428D01*
X491520Y356334D01*
X491496Y356292D01*
X491466Y356254D01*
X491412Y356140D01*
X491351Y356029D01*
X491338Y355983D01*
X491317Y355939D01*
X491291Y355815D01*
X491256Y355694D01*
X491252Y355633D01*
X491244Y355598D01*
X491245Y355550D01*
X491237Y355450D01*
X491237Y353691D01*
X489589Y352043D01*
X468576Y352043D01*
X468574Y352043D01*
X468572Y352043D01*
X468399Y352023D01*
X468230Y352003D01*
X468228Y352003D01*
X468226Y352002D01*
X467993Y351927D01*
X467603Y351766D01*
X465189Y351766D01*
X464798Y351927D01*
X464796Y351928D01*
X464794Y351929D01*
X464626Y351976D01*
X464463Y352023D01*
X464461Y352023D01*
X464459Y352024D01*
X464215Y352043D01*
X459508Y352043D01*
X459408Y352032D01*
X459308Y352030D01*
X459236Y352012D01*
X459162Y352003D01*
X459067Y351970D01*
X458970Y351945D01*
X458904Y351911D01*
X458834Y351886D01*
X458749Y351831D01*
X458660Y351785D01*
X458603Y351737D01*
X458541Y351697D01*
X458471Y351625D01*
X458395Y351560D01*
X458351Y351500D01*
X458299Y351446D01*
X458247Y351360D01*
X458188Y351279D01*
X458158Y351211D01*
X458120Y351147D01*
X458089Y351051D01*
X458050Y350959D01*
X458036Y350886D01*
X458014Y350815D01*
X458006Y350715D01*
X457988Y350616D01*
X457992Y350542D01*
X457986Y350468D01*
X458001Y350368D01*
X458006Y350268D01*
X458026Y350197D01*
X458037Y350123D01*
X458075Y350030D01*
X458102Y349933D01*
X458139Y349868D01*
X458166Y349799D01*
X458223Y349717D01*
X458273Y349629D01*
X458338Y349553D01*
X458365Y349513D01*
X458392Y349489D01*
X458431Y349443D01*
X459797Y348077D01*
X459797Y335183D01*
X458457Y333843D01*
X451700Y333843D01*
X451574Y333829D01*
X451448Y333822D01*
X451402Y333809D01*
X451354Y333803D01*
X451235Y333761D01*
X451113Y333726D01*
X451071Y333702D01*
X451026Y333686D01*
X450919Y333617D01*
X450809Y333556D01*
X450763Y333516D01*
X450733Y333497D01*
X450699Y333462D01*
X450623Y333397D01*
X445290Y328064D01*
X445273Y328043D01*
X445253Y328026D01*
X445165Y327907D01*
X445073Y327791D01*
X445062Y327767D01*
X445046Y327746D01*
X444987Y327610D01*
X444924Y327476D01*
X444919Y327450D01*
X444908Y327426D01*
X444882Y327280D01*
X444851Y327135D01*
X444851Y327109D01*
X444846Y327083D01*
X444854Y326934D01*
X444857Y326787D01*
X444863Y326762D01*
X444863Y305157D01*
X436057Y296351D01*
X435978Y296252D01*
X435894Y296158D01*
X435870Y296116D01*
X435840Y296078D01*
X435786Y295964D01*
X435725Y295853D01*
X435712Y295806D01*
X435691Y295763D01*
X435665Y295639D01*
X435630Y295518D01*
X435625Y295457D01*
X435618Y295422D01*
X435619Y295374D01*
X435611Y295274D01*
X435611Y253106D01*
X435586Y253075D01*
X435532Y252961D01*
X435471Y252850D01*
X435458Y252803D01*
X435437Y252760D01*
X435411Y252636D01*
X435376Y252514D01*
X435372Y252454D01*
X435364Y252419D01*
X435365Y252371D01*
X435357Y252271D01*
X435357Y252091D01*
X429899Y246633D01*
X429719Y246633D01*
X429594Y246619D01*
X429468Y246612D01*
X429421Y246599D01*
X429373Y246593D01*
X429254Y246551D01*
X429133Y246516D01*
X429091Y246492D01*
X429045Y246476D01*
X428939Y246407D01*
X428829Y246346D01*
X428782Y246306D01*
X428752Y246287D01*
X428719Y246252D01*
X428642Y246187D01*
X428298Y245843D01*
X316230Y245843D01*
X316204Y245840D01*
X316178Y245842D01*
X316031Y245820D01*
X315884Y245803D01*
X315859Y245795D01*
X315833Y245791D01*
X315695Y245736D01*
X315556Y245686D01*
X315534Y245672D01*
X315509Y245662D01*
X315388Y245577D01*
X315263Y245497D01*
X315245Y245478D01*
X315223Y245463D01*
X315124Y245353D01*
X315021Y245246D01*
X315007Y245224D01*
X314990Y245204D01*
X314918Y245074D01*
X314842Y244947D01*
X314834Y244922D01*
X314821Y244899D01*
X314781Y244756D01*
X314736Y244615D01*
X314734Y244589D01*
X314726Y244564D01*
X314707Y244320D01*
X314707Y243201D01*
X306709Y235203D01*
X281298Y235203D01*
X281272Y235200D01*
X281246Y235202D01*
X281099Y235180D01*
X280952Y235163D01*
X280927Y235155D01*
X280901Y235151D01*
X280763Y235096D01*
X280624Y235046D01*
X280602Y235032D01*
X280577Y235022D01*
X280456Y234937D01*
X280331Y234857D01*
X280313Y234838D01*
X280291Y234823D01*
X280192Y234713D01*
X280089Y234606D01*
X280075Y234584D01*
X280058Y234564D01*
X279986Y234434D01*
X279910Y234307D01*
X279902Y234282D01*
X279889Y234259D01*
X279849Y234116D01*
X279804Y233975D01*
X279802Y233949D01*
X279794Y233924D01*
X279775Y233680D01*
X279775Y222199D01*
X279789Y222073D01*
X279796Y221947D01*
X279809Y221900D01*
X279815Y221852D01*
X279857Y221733D01*
X279892Y221612D01*
X279916Y221570D01*
X279932Y221524D01*
X280001Y221418D01*
X280062Y221308D01*
X280102Y221262D01*
X280121Y221232D01*
X280156Y221198D01*
X280221Y221122D01*
X280735Y220608D01*
X281659Y218377D01*
X281659Y215963D01*
X280735Y213732D01*
X279028Y212025D01*
X276797Y211101D01*
X274383Y211101D01*
X272152Y212025D01*
X270445Y213732D01*
X269520Y215966D01*
X269500Y216132D01*
X269481Y216298D01*
X269481Y216300D01*
X269480Y216302D01*
X269405Y216534D01*
X269105Y217259D01*
X269105Y235338D01*
X269091Y235464D01*
X269084Y235590D01*
X269071Y235636D01*
X269065Y235684D01*
X269023Y235803D01*
X268988Y235925D01*
X268964Y235967D01*
X268948Y236012D01*
X268879Y236119D01*
X268818Y236229D01*
X268778Y236275D01*
X268759Y236305D01*
X268724Y236339D01*
X268659Y236415D01*
X264162Y240912D01*
X264161Y240913D01*
X264160Y240915D01*
X264023Y241022D01*
X263889Y241128D01*
X263888Y241129D01*
X263886Y241130D01*
X263668Y241242D01*
X261474Y242151D01*
X259767Y243858D01*
X258858Y246052D01*
X258857Y246054D01*
X258857Y246056D01*
X258774Y246204D01*
X258689Y246356D01*
X258688Y246358D01*
X258687Y246360D01*
X258528Y246546D01*
X252983Y252091D01*
X252983Y306324D01*
X252969Y306450D01*
X252962Y306576D01*
X252949Y306622D01*
X252943Y306670D01*
X252901Y306789D01*
X252866Y306911D01*
X252842Y306953D01*
X252826Y306998D01*
X252757Y307105D01*
X252696Y307215D01*
X252656Y307261D01*
X252637Y307291D01*
X252602Y307325D01*
X252537Y307401D01*
X243901Y316037D01*
X243802Y316116D01*
X243708Y316200D01*
X243666Y316224D01*
X243628Y316254D01*
X243514Y316308D01*
X243403Y316369D01*
X243357Y316382D01*
X243313Y316403D01*
X243190Y316429D01*
X243068Y316464D01*
X243007Y316469D01*
X242972Y316476D01*
X242924Y316475D01*
X242824Y316483D01*
X236110Y316483D01*
X236034Y316475D01*
X235957Y316476D01*
X235861Y316455D01*
X235763Y316443D01*
X235691Y316418D01*
X235617Y316401D01*
X235528Y316359D01*
X235435Y316326D01*
X235371Y316284D01*
X235302Y316252D01*
X235225Y316190D01*
X235142Y316137D01*
X235089Y316082D01*
X235030Y316034D01*
X234969Y315957D01*
X234900Y315886D01*
X234861Y315821D01*
X234814Y315761D01*
X234746Y315628D01*
X234721Y315587D01*
X234716Y315569D01*
X234702Y315543D01*
X233189Y311888D01*
X230402Y309101D01*
X226761Y307593D01*
X222819Y307593D01*
X219178Y309101D01*
X216391Y311888D01*
X214883Y315529D01*
X214883Y319471D01*
X216037Y322257D01*
X216038Y322259D01*
X216039Y322260D01*
X216085Y322422D01*
X216133Y322592D01*
X216133Y322594D01*
X216134Y322596D01*
X216153Y322840D01*
X216153Y337560D01*
X216153Y337562D01*
X216153Y337564D01*
X216133Y337735D01*
X216113Y337907D01*
X216113Y337909D01*
X216112Y337911D01*
X216037Y338143D01*
X214883Y340929D01*
X214883Y344871D01*
X216037Y347657D01*
X216038Y347659D01*
X216039Y347660D01*
X216085Y347822D01*
X216133Y347992D01*
X216133Y347994D01*
X216134Y347996D01*
X216153Y348240D01*
X216153Y362960D01*
X216153Y362962D01*
X216153Y362964D01*
X216133Y363135D01*
X216113Y363307D01*
X216113Y363309D01*
X216112Y363311D01*
X216037Y363543D01*
X214883Y366329D01*
X214883Y370271D01*
X216037Y373057D01*
X216038Y373059D01*
X216039Y373060D01*
X216085Y373222D01*
X216133Y373392D01*
X216133Y373394D01*
X216134Y373396D01*
X216153Y373640D01*
X216153Y390437D01*
X216143Y390524D01*
X216143Y390611D01*
X216123Y390696D01*
X216113Y390783D01*
X216084Y390865D01*
X216064Y390950D01*
X216025Y391029D01*
X215996Y391111D01*
X215949Y391185D01*
X215910Y391263D01*
X215854Y391331D01*
X215807Y391404D01*
X215744Y391465D01*
X215689Y391532D01*
X215619Y391585D01*
X215556Y391646D01*
X215481Y391691D01*
X215412Y391744D01*
X215332Y391780D01*
X215257Y391825D01*
X215174Y391852D01*
X215095Y391888D01*
X214973Y391916D01*
X214925Y391931D01*
X214898Y391934D01*
X214856Y391943D01*
X214705Y391966D01*
X214677Y391967D01*
X214478Y391983D01*
X213598Y391983D01*
X213560Y392013D01*
X213549Y392018D01*
X213539Y392026D01*
X213391Y392092D01*
X213245Y392162D01*
X213232Y392164D01*
X213221Y392169D01*
X212983Y392225D01*
X211795Y392404D01*
X211782Y392404D01*
X211770Y392407D01*
X211609Y392410D01*
X211447Y392416D01*
X211434Y392413D01*
X211422Y392414D01*
X211264Y392380D01*
X211133Y392354D01*
X210295Y392612D01*
X210267Y392617D01*
X210073Y392663D01*
X210049Y392666D01*
X210021Y392667D01*
X209982Y392670D01*
X209952Y392676D01*
X209927Y392675D01*
X209823Y392683D01*
X201803Y392683D01*
X201653Y392666D01*
X201502Y392653D01*
X201480Y392646D01*
X201457Y392643D01*
X201315Y392593D01*
X201171Y392546D01*
X201151Y392534D01*
X201129Y392526D01*
X201002Y392444D01*
X200872Y392366D01*
X200855Y392350D01*
X200836Y392337D01*
X200731Y392228D01*
X200623Y392123D01*
X200606Y392100D01*
X200594Y392086D01*
X200569Y392046D01*
X200484Y391922D01*
X183902Y363201D01*
X183294Y363621D01*
X183267Y363632D01*
X183245Y363651D01*
X183176Y363671D01*
X183111Y363699D01*
X183082Y363699D01*
X183054Y363707D01*
X182983Y363699D01*
X182912Y363700D01*
X182885Y363688D01*
X182856Y363685D01*
X182794Y363650D01*
X182729Y363622D01*
X182708Y363602D01*
X182683Y363587D01*
X182620Y363510D01*
X182590Y363480D01*
X182586Y363470D01*
X182577Y363459D01*
X173077Y346959D01*
X173053Y346886D01*
X173022Y346816D01*
X173022Y346792D01*
X173014Y346770D01*
X173021Y346694D01*
X173020Y346617D01*
X173029Y346593D01*
X173030Y346572D01*
X173051Y346533D01*
X173070Y346481D01*
X173071Y346475D01*
X173073Y346473D01*
X173077Y346461D01*
X182577Y329961D01*
X182596Y329939D01*
X182609Y329913D01*
X182662Y329865D01*
X182709Y329812D01*
X182735Y329799D01*
X182757Y329780D01*
X182824Y329757D01*
X182888Y329726D01*
X182917Y329725D01*
X182944Y329715D01*
X183016Y329720D01*
X183087Y329717D01*
X183114Y329727D01*
X183143Y329729D01*
X183233Y329771D01*
X183273Y329786D01*
X183281Y329793D01*
X183294Y329799D01*
X183902Y330219D01*
X201881Y299078D01*
X201966Y298963D01*
X202047Y298845D01*
X202070Y298824D01*
X202088Y298799D01*
X202198Y298706D01*
X202303Y298609D01*
X202330Y298593D01*
X202354Y298573D01*
X202482Y298508D01*
X202607Y298437D01*
X202637Y298428D01*
X202664Y298414D01*
X202804Y298379D01*
X202941Y298339D01*
X202972Y298337D01*
X203002Y298330D01*
X203146Y298327D01*
X203289Y298319D01*
X203320Y298325D01*
X203351Y298324D01*
X203491Y298355D01*
X203632Y298379D01*
X203668Y298393D01*
X203691Y298398D01*
X203736Y298419D01*
X203860Y298467D01*
X204462Y298757D01*
X204473Y298764D01*
X204485Y298768D01*
X204620Y298857D01*
X204757Y298943D01*
X204766Y298952D01*
X204776Y298959D01*
X204888Y299076D01*
X204981Y299171D01*
X205819Y299429D01*
X205844Y299440D01*
X206031Y299512D01*
X206824Y299893D01*
X206871Y299883D01*
X206884Y299883D01*
X206896Y299880D01*
X207059Y299884D01*
X207220Y299885D01*
X207232Y299888D01*
X207244Y299888D01*
X207483Y299942D01*
X208631Y300295D01*
X208643Y300300D01*
X208655Y300303D01*
X208802Y300370D01*
X208950Y300435D01*
X208960Y300443D01*
X208972Y300448D01*
X209100Y300547D01*
X209206Y300627D01*
X210073Y300757D01*
X210100Y300765D01*
X210295Y300808D01*
X211136Y301067D01*
X211181Y301049D01*
X211194Y301048D01*
X211205Y301043D01*
X211365Y301023D01*
X211526Y301000D01*
X211538Y301001D01*
X211551Y300999D01*
X211795Y301016D01*
X212983Y301195D01*
X212995Y301198D01*
X213008Y301199D01*
X213163Y301244D01*
X213319Y301286D01*
X213330Y301292D01*
X213343Y301295D01*
X213484Y301374D01*
X213601Y301437D01*
X214478Y301437D01*
X214505Y301440D01*
X214705Y301454D01*
X215575Y301585D01*
X215617Y301561D01*
X215629Y301557D01*
X215640Y301551D01*
X215795Y301507D01*
X215950Y301460D01*
X215963Y301460D01*
X215975Y301456D01*
X216219Y301436D01*
X217420Y301436D01*
X217433Y301437D01*
X217445Y301436D01*
X217606Y301457D01*
X217766Y301476D01*
X217778Y301480D01*
X217791Y301482D01*
X217943Y301539D01*
X218067Y301583D01*
X218934Y301453D01*
X218962Y301452D01*
X219161Y301435D01*
X220041Y301435D01*
X220079Y301405D01*
X220090Y301400D01*
X220100Y301392D01*
X220248Y301325D01*
X220394Y301256D01*
X220406Y301254D01*
X220418Y301248D01*
X220656Y301192D01*
X221844Y301013D01*
X221856Y301013D01*
X221869Y301009D01*
X222030Y301006D01*
X222192Y301001D01*
X222205Y301003D01*
X222217Y301003D01*
X222375Y301037D01*
X222506Y301062D01*
X223344Y300804D01*
X223371Y300799D01*
X223565Y300753D01*
X224435Y300622D01*
X224468Y300586D01*
X224479Y300579D01*
X224488Y300570D01*
X224623Y300482D01*
X224758Y300392D01*
X224770Y300387D01*
X224780Y300381D01*
X225007Y300290D01*
X226155Y299935D01*
X226167Y299933D01*
X226179Y299928D01*
X226338Y299901D01*
X226497Y299871D01*
X226510Y299872D01*
X226523Y299870D01*
X226684Y299880D01*
X226817Y299886D01*
X227607Y299505D01*
X227633Y299496D01*
X227819Y299422D01*
X228659Y299162D01*
X228687Y299122D01*
X228696Y299114D01*
X228703Y299103D01*
X228824Y298996D01*
X228944Y298887D01*
X228955Y298881D01*
X228964Y298873D01*
X229175Y298749D01*
X230257Y298227D01*
X230269Y298223D01*
X230280Y298217D01*
X230435Y298166D01*
X230586Y298113D01*
X230599Y298112D01*
X230611Y298108D01*
X230773Y298093D01*
X230905Y298079D01*
X231629Y297585D01*
X231654Y297572D01*
X231826Y297471D01*
X232619Y297089D01*
X232640Y297046D01*
X232647Y297036D01*
X232653Y297025D01*
X232757Y296901D01*
X232859Y296775D01*
X232869Y296767D01*
X232877Y296758D01*
X233067Y296604D01*
X234059Y295927D01*
X234071Y295921D01*
X234080Y295913D01*
X234225Y295840D01*
X234368Y295765D01*
X234380Y295762D01*
X234391Y295756D01*
X234549Y295718D01*
X234677Y295684D01*
X235320Y295088D01*
X235342Y295071D01*
X235498Y294946D01*
X236225Y294450D01*
X236239Y294404D01*
X236245Y294393D01*
X236249Y294381D01*
X236333Y294243D01*
X236415Y294103D01*
X236424Y294094D01*
X236431Y294083D01*
X236596Y293903D01*
X237476Y293086D01*
X237486Y293078D01*
X237495Y293069D01*
X237626Y292976D01*
X237757Y292879D01*
X237769Y292874D01*
X237779Y292867D01*
X237928Y292806D01*
X238051Y292754D01*
X238597Y292068D01*
X238617Y292048D01*
X238752Y291901D01*
X239397Y291302D01*
X239404Y291255D01*
X239409Y291243D01*
X239411Y291230D01*
X239474Y291081D01*
X239534Y290931D01*
X239541Y290921D01*
X239546Y290909D01*
X239682Y290706D01*
X240431Y289767D01*
X240440Y289758D01*
X240447Y289747D01*
X240563Y289636D01*
X240678Y289521D01*
X240689Y289514D01*
X240698Y289506D01*
X240836Y289423D01*
X240950Y289353D01*
X241388Y288593D01*
X241405Y288571D01*
X241516Y288405D01*
X242065Y287717D01*
X242065Y287669D01*
X242068Y287657D01*
X242068Y287644D01*
X242107Y287488D01*
X242145Y287330D01*
X242150Y287318D01*
X242153Y287306D01*
X242258Y287085D01*
X242859Y286045D01*
X242866Y286035D01*
X242871Y286023D01*
X242970Y285895D01*
X243066Y285765D01*
X243076Y285756D01*
X243083Y285746D01*
X243208Y285644D01*
X243310Y285558D01*
X243630Y284742D01*
X243643Y284717D01*
X243729Y284536D01*
X244168Y283774D01*
X244161Y283727D01*
X244162Y283714D01*
X244161Y283701D01*
X244176Y283542D01*
X244190Y283379D01*
X244194Y283367D01*
X244195Y283355D01*
X244266Y283120D01*
X244704Y282002D01*
X244710Y281991D01*
X244713Y281979D01*
X244792Y281836D01*
X244868Y281694D01*
X244876Y281685D01*
X244882Y281674D01*
X244991Y281554D01*
X245078Y281453D01*
X245273Y280599D01*
X245282Y280572D01*
X245340Y280381D01*
X245661Y279562D01*
X245647Y279516D01*
X245646Y279503D01*
X245642Y279491D01*
X245634Y279331D01*
X245623Y279168D01*
X245625Y279156D01*
X245625Y279143D01*
X245660Y278901D01*
X245926Y277730D01*
X245931Y277718D01*
X245932Y277705D01*
X245989Y277554D01*
X246042Y277401D01*
X246049Y277390D01*
X246053Y277379D01*
X246143Y277244D01*
X246214Y277132D01*
X246280Y276257D01*
X246285Y276230D01*
X246313Y276032D01*
X246509Y275174D01*
X246488Y275131D01*
X246485Y275118D01*
X246480Y275107D01*
X246448Y274948D01*
X246413Y274791D01*
X246413Y274778D01*
X246411Y274765D01*
X246409Y274521D01*
X246498Y273323D01*
X246501Y273311D01*
X246501Y273298D01*
X246533Y273140D01*
X246564Y272981D01*
X246569Y272969D01*
X246572Y272957D01*
X246640Y272811D01*
X246694Y272688D01*
X246628Y271814D01*
X246629Y271787D01*
X246628Y271586D01*
X246693Y270709D01*
X246666Y270669D01*
X246662Y270658D01*
X246655Y270647D01*
X246599Y270495D01*
X246541Y270344D01*
X246540Y270331D01*
X246535Y270320D01*
X246497Y270078D01*
X246407Y268880D01*
X246408Y268867D01*
X246406Y268855D01*
X246415Y268695D01*
X246421Y268532D01*
X246424Y268520D01*
X246425Y268507D01*
X246471Y268352D01*
X246506Y268224D01*
X246311Y267369D01*
X246308Y267342D01*
X246277Y267144D01*
X246211Y266266D01*
X246178Y266231D01*
X246172Y266220D01*
X246163Y266211D01*
X246085Y266068D01*
X246006Y265928D01*
X246002Y265916D01*
X245996Y265905D01*
X245923Y265671D01*
X245655Y264501D01*
X245654Y264488D01*
X245649Y264476D01*
X245634Y264314D01*
X245617Y264154D01*
X245618Y264142D01*
X245617Y264129D01*
X245639Y263968D01*
X245655Y263837D01*
X245334Y263021D01*
X245327Y262994D01*
X245267Y262803D01*
X245071Y261945D01*
X245033Y261915D01*
X245025Y261905D01*
X245016Y261897D01*
X244917Y261768D01*
X244818Y261641D01*
X244813Y261630D01*
X244805Y261620D01*
X244697Y261400D01*
X244258Y260282D01*
X244255Y260270D01*
X244249Y260259D01*
X244210Y260101D01*
X244169Y259945D01*
X244168Y259933D01*
X244165Y259920D01*
X244163Y259758D01*
X244159Y259626D01*
X243720Y258866D01*
X243709Y258840D01*
X243622Y258661D01*
X243300Y257842D01*
X243258Y257818D01*
X243249Y257810D01*
X243238Y257803D01*
X243122Y257690D01*
X243004Y257579D01*
X242997Y257569D01*
X242988Y257560D01*
X242849Y257359D01*
X242248Y256319D01*
X242243Y256307D01*
X242236Y256297D01*
X242174Y256148D01*
X242110Y255999D01*
X242107Y255986D01*
X242103Y255975D01*
X242076Y255816D01*
X242052Y255684D01*
X241506Y254999D01*
X241490Y254974D01*
X241436Y254896D01*
X241417Y254874D01*
X241407Y254855D01*
X241378Y254812D01*
X241367Y254793D01*
X241344Y254741D01*
X241321Y254703D01*
X241302Y254649D01*
X241258Y254564D01*
X241247Y254517D01*
X241228Y254473D01*
X241211Y254383D01*
X241208Y254374D01*
X241206Y254355D01*
X241205Y254348D01*
X241174Y254225D01*
X241174Y254178D01*
X241165Y254130D01*
X241171Y254004D01*
X241169Y253877D01*
X241179Y253830D01*
X241182Y253782D01*
X241217Y253660D01*
X241244Y253536D01*
X241264Y253493D01*
X241277Y253447D01*
X241339Y253336D01*
X241393Y253222D01*
X241423Y253184D01*
X241446Y253142D01*
X241532Y253048D01*
X241611Y252949D01*
X241648Y252920D01*
X241680Y252884D01*
X241785Y252812D01*
X241884Y252733D01*
X241938Y252706D01*
X241967Y252686D01*
X242012Y252668D01*
X242102Y252622D01*
X243102Y252208D01*
X244809Y250501D01*
X245733Y248270D01*
X245733Y245856D01*
X244809Y243625D01*
X243102Y241918D01*
X240872Y240994D01*
X238391Y240994D01*
X238269Y241029D01*
X238244Y241030D01*
X238219Y241036D01*
X238070Y241039D01*
X237921Y241046D01*
X237896Y241041D01*
X237870Y241042D01*
X237725Y241010D01*
X237578Y240983D01*
X237555Y240973D01*
X237530Y240968D01*
X237395Y240904D01*
X237259Y240845D01*
X237238Y240829D01*
X237215Y240818D01*
X237098Y240726D01*
X236979Y240637D01*
X236962Y240617D01*
X236942Y240601D01*
X236850Y240484D01*
X236754Y240371D01*
X236742Y240348D01*
X236726Y240328D01*
X236663Y240193D01*
X236595Y240061D01*
X236589Y240036D01*
X236578Y240013D01*
X236547Y239867D01*
X236511Y239722D01*
X236510Y239697D01*
X236505Y239672D01*
X236508Y239523D01*
X236506Y239374D01*
X236511Y239349D01*
X236512Y239323D01*
X236548Y239179D01*
X236580Y239033D01*
X236591Y239010D01*
X236597Y238985D01*
X236702Y238764D01*
X251024Y213958D01*
X250397Y213661D01*
X250374Y213644D01*
X250347Y213634D01*
X250295Y213585D01*
X250237Y213542D01*
X250223Y213517D01*
X250202Y213498D01*
X250173Y213432D01*
X250137Y213370D01*
X250134Y213342D01*
X250122Y213316D01*
X250121Y213244D01*
X250112Y213173D01*
X250120Y213146D01*
X250120Y213117D01*
X250155Y213022D01*
X250166Y212982D01*
X250173Y212973D01*
X250177Y212961D01*
X259677Y196461D01*
X259729Y196403D01*
X259775Y196340D01*
X259794Y196329D01*
X259809Y196312D01*
X259879Y196278D01*
X259946Y196238D01*
X259971Y196234D01*
X259988Y196226D01*
X260033Y196224D01*
X260110Y196211D01*
X279110Y196211D01*
X279138Y196216D01*
G37*
G36*
X289678Y356886D02*
X289678Y356886D01*
X289797Y356893D01*
X289835Y356906D01*
X289876Y356911D01*
X289986Y356954D01*
X290099Y356991D01*
X290134Y357013D01*
X290171Y357028D01*
X290267Y357098D01*
X290368Y357161D01*
X290396Y357191D01*
X290429Y357214D01*
X290505Y357306D01*
X290586Y357393D01*
X290606Y357428D01*
X290631Y357459D01*
X290682Y357567D01*
X290740Y357671D01*
X290750Y357711D01*
X290767Y357747D01*
X290789Y357864D01*
X290819Y357979D01*
X290823Y358040D01*
X290827Y358060D01*
X290825Y358080D01*
X290829Y358140D01*
X290829Y384284D01*
X295372Y388827D01*
X295432Y388905D01*
X295500Y388977D01*
X295529Y389030D01*
X295566Y389078D01*
X295606Y389169D01*
X295654Y389255D01*
X295669Y389314D01*
X295693Y389370D01*
X295708Y389468D01*
X295733Y389563D01*
X295739Y389663D01*
X295743Y389684D01*
X295741Y389696D01*
X295743Y389724D01*
X295743Y391637D01*
X297083Y392977D01*
X298996Y392977D01*
X299094Y392989D01*
X299193Y392992D01*
X299251Y393009D01*
X299312Y393017D01*
X299404Y393053D01*
X299499Y393081D01*
X299551Y393111D01*
X299607Y393134D01*
X299687Y393192D01*
X299773Y393242D01*
X299848Y393308D01*
X299865Y393320D01*
X299872Y393330D01*
X299893Y393348D01*
X324748Y418203D01*
X324808Y418281D01*
X324876Y418353D01*
X324905Y418406D01*
X324942Y418454D01*
X324982Y418545D01*
X325030Y418631D01*
X325045Y418690D01*
X325069Y418746D01*
X325084Y418844D01*
X325109Y418939D01*
X325115Y419039D01*
X325119Y419060D01*
X325117Y419072D01*
X325119Y419100D01*
X325119Y494686D01*
X325104Y494804D01*
X325097Y494923D01*
X325084Y494961D01*
X325079Y495002D01*
X325036Y495112D01*
X324999Y495225D01*
X324977Y495260D01*
X324962Y495297D01*
X324893Y495393D01*
X324829Y495494D01*
X324799Y495522D01*
X324776Y495555D01*
X324684Y495631D01*
X324597Y495712D01*
X324562Y495732D01*
X324531Y495757D01*
X324423Y495808D01*
X324319Y495866D01*
X324279Y495876D01*
X324243Y495893D01*
X324126Y495915D01*
X324011Y495945D01*
X323951Y495949D01*
X323931Y495953D01*
X323910Y495951D01*
X323850Y495955D01*
X269896Y495955D01*
X269798Y495943D01*
X269699Y495940D01*
X269641Y495923D01*
X269580Y495915D01*
X269488Y495879D01*
X269393Y495851D01*
X269341Y495821D01*
X269285Y495798D01*
X269205Y495740D01*
X269119Y495690D01*
X269044Y495624D01*
X269027Y495612D01*
X269020Y495602D01*
X268999Y495584D01*
X248610Y475195D01*
X248558Y475127D01*
X248498Y475066D01*
X248422Y474953D01*
X248415Y474944D01*
X248413Y474940D01*
X248408Y474932D01*
X245281Y469515D01*
X245245Y469430D01*
X245200Y469349D01*
X245184Y469284D01*
X245158Y469222D01*
X245144Y469130D01*
X245121Y469041D01*
X245114Y468924D01*
X245111Y468907D01*
X245112Y468899D01*
X245111Y468880D01*
X245111Y431443D01*
X245119Y431382D01*
X245117Y431320D01*
X245143Y431161D01*
X245271Y430598D01*
X245276Y430585D01*
X245278Y430570D01*
X245327Y430417D01*
X245652Y429591D01*
X245621Y429486D01*
X245620Y429482D01*
X245619Y429478D01*
X245615Y429323D01*
X245610Y429168D01*
X245611Y429164D01*
X245610Y429160D01*
X245636Y429001D01*
X245941Y427667D01*
X245943Y427663D01*
X245943Y427659D01*
X245996Y427516D01*
X246031Y427409D01*
X246041Y427393D01*
X246050Y427368D01*
X246053Y427365D01*
X246054Y427361D01*
X246136Y427243D01*
X246201Y427141D01*
X246212Y427130D01*
X246278Y426257D01*
X246281Y426243D01*
X246281Y426228D01*
X246306Y426070D01*
X246504Y425205D01*
X246458Y425105D01*
X246457Y425101D01*
X246455Y425097D01*
X246428Y424946D01*
X246400Y424792D01*
X246400Y424788D01*
X246399Y424784D01*
X246401Y424623D01*
X246504Y423259D01*
X246505Y423255D01*
X246504Y423251D01*
X246537Y423097D01*
X246567Y422947D01*
X246569Y422943D01*
X246570Y422939D01*
X246638Y422801D01*
X246692Y422690D01*
X246627Y421814D01*
X246627Y421800D01*
X246625Y421786D01*
X246627Y421625D01*
X246693Y420740D01*
X246633Y420648D01*
X246631Y420644D01*
X246629Y420641D01*
X246579Y420493D01*
X246529Y420348D01*
X246528Y420344D01*
X246527Y420340D01*
X246505Y420180D01*
X246403Y418816D01*
X246403Y418812D01*
X246402Y418808D01*
X246411Y418652D01*
X246419Y418498D01*
X246420Y418494D01*
X246421Y418490D01*
X246468Y418343D01*
X246504Y418225D01*
X246309Y417369D01*
X246308Y417355D01*
X246303Y417341D01*
X246281Y417182D01*
X246215Y416297D01*
X246141Y416215D01*
X246139Y416212D01*
X246137Y416209D01*
X246065Y416071D01*
X245994Y415934D01*
X245993Y415930D01*
X245991Y415926D01*
X245945Y415772D01*
X245641Y414437D01*
X245641Y414433D01*
X245639Y414429D01*
X245625Y414277D01*
X245610Y414121D01*
X245610Y414117D01*
X245610Y414113D01*
X245634Y413961D01*
X245653Y413839D01*
X245333Y413021D01*
X245329Y413007D01*
X245323Y412994D01*
X245277Y412840D01*
X245142Y412250D01*
X245136Y412189D01*
X245121Y412129D01*
X245111Y411968D01*
X245111Y358140D01*
X245126Y358022D01*
X245133Y357903D01*
X245146Y357865D01*
X245151Y357824D01*
X245194Y357714D01*
X245231Y357601D01*
X245253Y357566D01*
X245268Y357529D01*
X245338Y357433D01*
X245401Y357332D01*
X245431Y357304D01*
X245454Y357271D01*
X245546Y357196D01*
X245633Y357114D01*
X245668Y357094D01*
X245699Y357069D01*
X245807Y357018D01*
X245911Y356960D01*
X245951Y356950D01*
X245987Y356933D01*
X246104Y356911D01*
X246219Y356881D01*
X246280Y356877D01*
X246300Y356873D01*
X246320Y356875D01*
X246380Y356871D01*
X289560Y356871D01*
X289678Y356886D01*
G37*
G36*
X418338Y368316D02*
X418338Y368316D01*
X418457Y368323D01*
X418495Y368336D01*
X418536Y368341D01*
X418646Y368384D01*
X418759Y368421D01*
X418794Y368443D01*
X418831Y368458D01*
X418927Y368528D01*
X419028Y368591D01*
X419056Y368621D01*
X419089Y368644D01*
X419165Y368736D01*
X419246Y368823D01*
X419266Y368858D01*
X419291Y368889D01*
X419342Y368997D01*
X419400Y369101D01*
X419410Y369141D01*
X419427Y369177D01*
X419449Y369294D01*
X419479Y369409D01*
X419483Y369470D01*
X419487Y369490D01*
X419485Y369510D01*
X419489Y369570D01*
X419489Y377470D01*
X421722Y379703D01*
X434340Y379703D01*
X434458Y379718D01*
X434577Y379725D01*
X434615Y379738D01*
X434656Y379743D01*
X434766Y379786D01*
X434879Y379823D01*
X434914Y379845D01*
X434951Y379860D01*
X435047Y379929D01*
X435148Y379993D01*
X435176Y380023D01*
X435209Y380046D01*
X435285Y380138D01*
X435366Y380225D01*
X435386Y380260D01*
X435411Y380291D01*
X435462Y380399D01*
X435520Y380503D01*
X435530Y380543D01*
X435547Y380579D01*
X435569Y380696D01*
X435599Y380811D01*
X435603Y380871D01*
X435607Y380891D01*
X435606Y380908D01*
X435607Y380913D01*
X435606Y380922D01*
X435609Y380972D01*
X435609Y490878D01*
X435598Y490970D01*
X435596Y491062D01*
X435578Y491127D01*
X435569Y491193D01*
X435535Y491279D01*
X435511Y491368D01*
X435459Y491473D01*
X435452Y491489D01*
X435447Y491496D01*
X435439Y491513D01*
X434603Y492961D01*
X434551Y493029D01*
X434508Y493103D01*
X434417Y493206D01*
X434411Y493214D01*
X434407Y493217D01*
X434401Y493224D01*
X432041Y495584D01*
X431963Y495644D01*
X431891Y495712D01*
X431838Y495741D01*
X431790Y495778D01*
X431699Y495818D01*
X431613Y495866D01*
X431554Y495881D01*
X431498Y495905D01*
X431400Y495920D01*
X431305Y495945D01*
X431205Y495951D01*
X431184Y495955D01*
X431172Y495953D01*
X431144Y495955D01*
X370840Y495955D01*
X370722Y495940D01*
X370603Y495933D01*
X370565Y495920D01*
X370524Y495915D01*
X370414Y495872D01*
X370301Y495835D01*
X370266Y495813D01*
X370229Y495798D01*
X370133Y495729D01*
X370032Y495665D01*
X370004Y495635D01*
X369971Y495612D01*
X369896Y495520D01*
X369814Y495433D01*
X369794Y495398D01*
X369769Y495367D01*
X369718Y495259D01*
X369660Y495155D01*
X369650Y495115D01*
X369633Y495079D01*
X369611Y494962D01*
X369581Y494847D01*
X369577Y494787D01*
X369573Y494767D01*
X369575Y494746D01*
X369571Y494686D01*
X369571Y375364D01*
X369583Y375266D01*
X369586Y375167D01*
X369603Y375109D01*
X369611Y375049D01*
X369647Y374957D01*
X369675Y374861D01*
X369705Y374809D01*
X369728Y374753D01*
X369786Y374673D01*
X369836Y374588D01*
X369902Y374512D01*
X369914Y374496D01*
X369924Y374488D01*
X369943Y374467D01*
X375737Y368673D01*
X375815Y368612D01*
X375887Y368544D01*
X375940Y368515D01*
X375988Y368478D01*
X376079Y368438D01*
X376166Y368390D01*
X376224Y368375D01*
X376280Y368351D01*
X376378Y368336D01*
X376473Y368311D01*
X376574Y368305D01*
X376594Y368301D01*
X376606Y368303D01*
X376634Y368301D01*
X418220Y368301D01*
X418338Y368316D01*
G37*
G36*
X478651Y394277D02*
X478651Y394277D01*
X478694Y394276D01*
X482687Y394877D01*
X482717Y394888D01*
X482760Y394893D01*
X486619Y396082D01*
X486647Y396097D01*
X486688Y396109D01*
X490326Y397860D01*
X490348Y397877D01*
X490374Y397886D01*
X490427Y397936D01*
X490485Y397980D01*
X490498Y398004D01*
X490518Y398023D01*
X490548Y398089D01*
X490584Y398153D01*
X490587Y398180D01*
X490598Y398205D01*
X490599Y398278D01*
X490608Y398350D01*
X490600Y398376D01*
X490600Y398404D01*
X490564Y398502D01*
X490552Y398541D01*
X490546Y398549D01*
X490542Y398560D01*
X463542Y445360D01*
X463524Y445380D01*
X463513Y445405D01*
X463459Y445454D01*
X463411Y445509D01*
X463386Y445520D01*
X463366Y445539D01*
X463297Y445563D01*
X463231Y445594D01*
X463204Y445596D01*
X463179Y445605D01*
X463106Y445600D01*
X463033Y445603D01*
X463007Y445594D01*
X462980Y445592D01*
X462884Y445548D01*
X462846Y445534D01*
X462839Y445527D01*
X462829Y445523D01*
X459492Y443249D01*
X459470Y443226D01*
X459434Y443203D01*
X456473Y440457D01*
X456454Y440431D01*
X456422Y440403D01*
X453904Y437247D01*
X453889Y437218D01*
X453862Y437185D01*
X451842Y433689D01*
X451832Y433659D01*
X451809Y433622D01*
X450333Y429864D01*
X450328Y429832D01*
X450311Y429792D01*
X449411Y425856D01*
X449411Y425824D01*
X449400Y425782D01*
X449097Y421756D01*
X449100Y421733D01*
X449097Y421713D01*
X449099Y421703D01*
X449097Y421682D01*
X449398Y417655D01*
X449406Y417624D01*
X449409Y417581D01*
X450306Y413645D01*
X450319Y413616D01*
X450328Y413573D01*
X451802Y409814D01*
X451819Y409787D01*
X451834Y409747D01*
X453852Y406250D01*
X453873Y406226D01*
X453894Y406188D01*
X456410Y403030D01*
X456435Y403010D01*
X456461Y402976D01*
X459420Y400228D01*
X459447Y400212D01*
X459478Y400182D01*
X462814Y397906D01*
X462843Y397894D01*
X462878Y397869D01*
X466516Y396116D01*
X466546Y396108D01*
X466585Y396089D01*
X470443Y394897D01*
X470475Y394894D01*
X470516Y394881D01*
X474508Y394278D01*
X474540Y394279D01*
X474582Y394272D01*
X478620Y394271D01*
X478651Y394277D01*
G37*
G36*
X218838Y394272D02*
X218838Y394272D01*
X218869Y394278D01*
X218912Y394278D01*
X222904Y394881D01*
X222934Y394892D01*
X222977Y394897D01*
X226835Y396089D01*
X226863Y396104D01*
X226905Y396116D01*
X230542Y397869D01*
X230567Y397888D01*
X230606Y397906D01*
X233942Y400182D01*
X233964Y400205D01*
X234000Y400228D01*
X236959Y402976D01*
X236978Y403001D01*
X237010Y403030D01*
X239526Y406188D01*
X239541Y406216D01*
X239568Y406250D01*
X241586Y409747D01*
X241596Y409777D01*
X241618Y409814D01*
X243092Y413573D01*
X243098Y413605D01*
X243114Y413645D01*
X244011Y417581D01*
X244012Y417613D01*
X244022Y417655D01*
X244323Y421682D01*
X244319Y421713D01*
X244320Y421729D01*
X244323Y421746D01*
X244322Y421750D01*
X244323Y421756D01*
X244020Y425782D01*
X244011Y425813D01*
X244009Y425856D01*
X243109Y429792D01*
X243096Y429821D01*
X243087Y429864D01*
X241611Y433622D01*
X241593Y433649D01*
X241578Y433689D01*
X239558Y437185D01*
X239537Y437209D01*
X239516Y437247D01*
X236998Y440403D01*
X236973Y440423D01*
X236947Y440457D01*
X233986Y443203D01*
X233959Y443219D01*
X233928Y443249D01*
X230591Y445523D01*
X230566Y445533D01*
X230545Y445550D01*
X230475Y445571D01*
X230408Y445600D01*
X230380Y445600D01*
X230354Y445607D01*
X230282Y445599D01*
X230209Y445599D01*
X230184Y445588D01*
X230157Y445585D01*
X230093Y445549D01*
X230026Y445521D01*
X230007Y445501D01*
X229984Y445488D01*
X229917Y445407D01*
X229888Y445377D01*
X229885Y445368D01*
X229878Y445360D01*
X202878Y398560D01*
X202869Y398534D01*
X202853Y398511D01*
X202838Y398440D01*
X202814Y398371D01*
X202817Y398344D01*
X202811Y398317D01*
X202824Y398246D01*
X202830Y398173D01*
X202843Y398148D01*
X202848Y398122D01*
X202888Y398061D01*
X202922Y397996D01*
X202943Y397979D01*
X202958Y397956D01*
X203044Y397895D01*
X203075Y397870D01*
X203084Y397867D01*
X203094Y397860D01*
X206732Y396109D01*
X206763Y396102D01*
X206801Y396082D01*
X210660Y394893D01*
X210692Y394890D01*
X210733Y394877D01*
X214726Y394276D01*
X214757Y394278D01*
X214800Y394271D01*
X218838Y394272D01*
G37*
G36*
X463138Y247821D02*
X463138Y247821D01*
X463211Y247821D01*
X463236Y247832D01*
X463263Y247835D01*
X463327Y247871D01*
X463394Y247899D01*
X463413Y247919D01*
X463436Y247932D01*
X463504Y248013D01*
X463532Y248043D01*
X463535Y248052D01*
X463542Y248061D01*
X490542Y294861D01*
X490551Y294886D01*
X490567Y294909D01*
X490582Y294980D01*
X490606Y295049D01*
X490603Y295076D01*
X490609Y295103D01*
X490596Y295174D01*
X490590Y295247D01*
X490577Y295272D01*
X490572Y295298D01*
X490532Y295359D01*
X490498Y295424D01*
X490477Y295441D01*
X490462Y295464D01*
X490376Y295525D01*
X490345Y295550D01*
X490336Y295553D01*
X490326Y295560D01*
X486688Y297311D01*
X486657Y297318D01*
X486619Y297338D01*
X482760Y298527D01*
X482728Y298530D01*
X482687Y298543D01*
X478694Y299144D01*
X478663Y299142D01*
X478620Y299149D01*
X474582Y299148D01*
X474551Y299142D01*
X474508Y299142D01*
X470516Y298539D01*
X470486Y298528D01*
X470443Y298523D01*
X466585Y297331D01*
X466557Y297316D01*
X466516Y297304D01*
X462878Y295551D01*
X462853Y295532D01*
X462814Y295514D01*
X459478Y293238D01*
X459456Y293215D01*
X459420Y293192D01*
X456461Y290444D01*
X456442Y290419D01*
X456410Y290390D01*
X453894Y287232D01*
X453879Y287204D01*
X453852Y287170D01*
X451834Y283673D01*
X451824Y283643D01*
X451802Y283606D01*
X450328Y279847D01*
X450322Y279815D01*
X450306Y279775D01*
X449409Y275839D01*
X449408Y275807D01*
X449398Y275765D01*
X449097Y271739D01*
X449101Y271707D01*
X449097Y271664D01*
X449400Y267638D01*
X449409Y267607D01*
X449411Y267564D01*
X450311Y263628D01*
X450324Y263599D01*
X450333Y263556D01*
X451809Y259798D01*
X451827Y259771D01*
X451842Y259731D01*
X453862Y256235D01*
X453883Y256211D01*
X453904Y256173D01*
X456422Y253017D01*
X456447Y252997D01*
X456473Y252963D01*
X459434Y250217D01*
X459461Y250201D01*
X459492Y250171D01*
X462829Y247897D01*
X462854Y247887D01*
X462875Y247870D01*
X462945Y247849D01*
X463012Y247820D01*
X463040Y247821D01*
X463066Y247813D01*
X463138Y247821D01*
G37*
G36*
X230314Y247820D02*
X230314Y247820D01*
X230387Y247817D01*
X230413Y247826D01*
X230440Y247828D01*
X230536Y247872D01*
X230574Y247886D01*
X230581Y247893D01*
X230591Y247897D01*
X233928Y250171D01*
X233950Y250194D01*
X233986Y250217D01*
X236947Y252963D01*
X236966Y252989D01*
X236998Y253017D01*
X239516Y256173D01*
X239531Y256202D01*
X239558Y256235D01*
X241578Y259731D01*
X241588Y259761D01*
X241611Y259798D01*
X243087Y263556D01*
X243092Y263588D01*
X243109Y263628D01*
X244009Y267564D01*
X244009Y267596D01*
X244020Y267638D01*
X244323Y271664D01*
X244319Y271695D01*
X244323Y271739D01*
X244022Y275765D01*
X244014Y275796D01*
X244011Y275839D01*
X243114Y279775D01*
X243101Y279804D01*
X243092Y279847D01*
X241618Y283606D01*
X241601Y283633D01*
X241586Y283673D01*
X239568Y287170D01*
X239547Y287194D01*
X239526Y287232D01*
X237010Y290390D01*
X236985Y290410D01*
X236959Y290444D01*
X234000Y293192D01*
X233973Y293208D01*
X233942Y293238D01*
X230606Y295514D01*
X230577Y295526D01*
X230542Y295551D01*
X226905Y297304D01*
X226874Y297312D01*
X226835Y297331D01*
X222977Y298523D01*
X222945Y298526D01*
X222904Y298539D01*
X218912Y299142D01*
X218880Y299141D01*
X218838Y299148D01*
X214800Y299149D01*
X214769Y299143D01*
X214726Y299144D01*
X210733Y298543D01*
X210703Y298532D01*
X210660Y298527D01*
X206801Y297338D01*
X206773Y297323D01*
X206732Y297311D01*
X203094Y295560D01*
X203072Y295543D01*
X203046Y295534D01*
X202993Y295484D01*
X202935Y295440D01*
X202922Y295416D01*
X202902Y295397D01*
X202872Y295331D01*
X202836Y295267D01*
X202833Y295240D01*
X202822Y295215D01*
X202821Y295142D01*
X202812Y295070D01*
X202820Y295044D01*
X202820Y295016D01*
X202856Y294918D01*
X202868Y294879D01*
X202874Y294871D01*
X202878Y294861D01*
X229878Y248061D01*
X229896Y248040D01*
X229907Y248015D01*
X229961Y247966D01*
X230009Y247912D01*
X230034Y247900D01*
X230054Y247881D01*
X230123Y247857D01*
X230189Y247826D01*
X230216Y247825D01*
X230241Y247815D01*
X230314Y247820D01*
G37*
G36*
X373737Y196216D02*
X373737Y196216D01*
X373764Y196214D01*
X373833Y196236D01*
X373905Y196250D01*
X373927Y196266D01*
X373953Y196274D01*
X374009Y196322D01*
X374069Y196363D01*
X374083Y196386D01*
X374104Y196404D01*
X374137Y196469D01*
X374176Y196530D01*
X374180Y196557D01*
X374192Y196582D01*
X374202Y196686D01*
X374209Y196727D01*
X374207Y196736D01*
X374208Y196747D01*
X373906Y200771D01*
X373898Y200802D01*
X373895Y200845D01*
X372997Y204779D01*
X372984Y204808D01*
X372975Y204851D01*
X371501Y208607D01*
X371484Y208634D01*
X371469Y208675D01*
X369451Y212169D01*
X369430Y212193D01*
X369409Y212231D01*
X366893Y215386D01*
X366868Y215406D01*
X366842Y215441D01*
X363884Y218185D01*
X363857Y218202D01*
X363825Y218232D01*
X360491Y220505D01*
X360462Y220518D01*
X360427Y220543D01*
X356791Y222293D01*
X356760Y222301D01*
X356721Y222321D01*
X352865Y223510D01*
X352834Y223513D01*
X352792Y223527D01*
X348802Y224128D01*
X348770Y224127D01*
X348728Y224134D01*
X344692Y224134D01*
X344661Y224127D01*
X344618Y224128D01*
X340628Y223527D01*
X340598Y223516D01*
X340555Y223510D01*
X336699Y222321D01*
X336671Y222305D01*
X336629Y222293D01*
X332993Y220543D01*
X332968Y220523D01*
X332929Y220505D01*
X329595Y218232D01*
X329572Y218209D01*
X329536Y218185D01*
X326578Y215441D01*
X326560Y215415D01*
X326527Y215386D01*
X324011Y212231D01*
X323997Y212203D01*
X323969Y212169D01*
X321951Y208675D01*
X321941Y208644D01*
X321919Y208607D01*
X320445Y204851D01*
X320439Y204819D01*
X320423Y204779D01*
X319525Y200845D01*
X319524Y200813D01*
X319514Y200771D01*
X319212Y196747D01*
X319216Y196720D01*
X319211Y196693D01*
X319228Y196623D01*
X319237Y196550D01*
X319251Y196526D01*
X319257Y196500D01*
X319300Y196441D01*
X319337Y196378D01*
X319359Y196362D01*
X319375Y196340D01*
X319438Y196303D01*
X319496Y196259D01*
X319523Y196252D01*
X319546Y196238D01*
X319650Y196221D01*
X319689Y196211D01*
X319699Y196213D01*
X319710Y196211D01*
X373710Y196211D01*
X373737Y196216D01*
G37*
D10*
X289440Y245110D03*
X274440Y245110D03*
D11*
X452510Y341630D03*
X469510Y341630D03*
D12*
X323215Y374060D03*
X277495Y374060D03*
D13*
X300355Y302260D03*
D11*
X447040Y386960D03*
X447040Y369960D03*
D14*
X400050Y323730D03*
X400050Y379730D03*
D15*
X511910Y346710D03*
X429310Y203610D03*
X264110Y203610D03*
X181510Y346710D03*
X470610Y418210D03*
X470610Y275210D03*
X346710Y203610D03*
X222810Y275210D03*
X222810Y418210D03*
D16*
X344170Y364880D03*
X344170Y381880D03*
D10*
X361950Y362070D03*
X361950Y377070D03*
D17*
X396748Y435864D02*
X396748Y455676D01*
D18*
X346710Y445770D03*
D17*
X296672Y455676D02*
X296672Y435864D01*
D16*
X303530Y368690D03*
X303530Y385690D03*
D19*
X469900Y372110D03*
D20*
X224790Y368300D03*
X224790Y342900D03*
X224790Y317500D03*
D21*
X264912Y247296D03*
X275590Y217170D03*
X382270Y214630D03*
X350520Y230203D03*
D22*
X370222Y234234D02*
X375562Y228894D01*
X370222Y234234D02*
X358860Y234234D01*
X375562Y221338D02*
X382270Y214630D01*
X354828Y230203D02*
X350520Y230203D01*
X375562Y228894D02*
X375562Y221338D01*
X358860Y234234D02*
X354828Y230203D01*
D21*
X499110Y370840D03*
D22*
X498452Y370840D01*
X485446Y357834D01*
X466396Y357834D01*
D21*
X466396Y357834D03*
D22*
X272255Y247296D02*
X264912Y247296D01*
X272255Y247296D02*
X274440Y245110D01*
X274440Y218320D02*
X275590Y217170D01*
X274440Y218320D02*
X274440Y245110D01*
D21*
X237490Y311150D03*
X239664Y247063D03*
D23*
X239664Y249603D01*
X222810Y266457D01*
X222810Y275210D01*
D24*
X289370Y245110D02*
X289440Y245110D01*
X289370Y245110D02*
X277940Y256540D01*
X275400Y256540D01*
D21*
X275400Y256540D03*
X347321Y352449D03*
D24*
X347321Y347369D02*
X355600Y339090D01*
X347321Y347369D02*
X347321Y352449D01*
X355600Y339090D02*
X374650Y339090D01*
D21*
X374650Y339090D03*
X439956Y341630D03*
D23*
X452510Y341630D01*
D24*
X470610Y275210D02*
X449054Y253654D01*
D23*
X449054Y252426D01*
D21*
X449054Y252426D03*
X318770Y336550D03*
X421640Y463550D03*
X407670Y471170D03*
X397510Y471170D03*
X417830Y471170D03*
X431800Y464820D03*
X422910Y444500D03*
X383540Y471170D03*
X373380Y471170D03*
X431800Y444500D03*
X414020Y443230D03*
X411480Y421640D03*
X412750Y462280D03*
X421640Y433070D03*
X422910Y454660D03*
X411480Y431800D03*
X421640Y421640D03*
X382270Y440690D03*
X372110Y440690D03*
X373380Y450850D03*
X382270Y450850D03*
X431800Y434340D03*
X373380Y461010D03*
X383540Y461010D03*
X401320Y410210D03*
X414020Y453390D03*
X431800Y455930D03*
X421640Y410210D03*
X411480Y410210D03*
X391160Y410210D03*
X401320Y400050D03*
X431800Y410210D03*
X431800Y421640D03*
X372110Y430530D03*
X382270Y430530D03*
X381000Y421640D03*
X411480Y400050D03*
X391160Y421640D03*
X381000Y410210D03*
X431800Y400050D03*
X421640Y400050D03*
X401320Y421640D03*
X338072Y379730D03*
D24*
X338072Y381000D02*
X353312Y396240D01*
X338072Y381000D02*
X338072Y379730D01*
X353312Y396240D02*
X374650Y396240D01*
X383540Y387350D01*
X392430Y387350D01*
X400050Y379730D01*
X445285Y386960D02*
X447040Y386960D01*
X445285Y386960D02*
X445285Y400050D01*
X431800Y400050D01*
X344170Y381880D02*
X340222Y381880D01*
X338072Y379730D01*
D21*
X381000Y400050D03*
X391160Y400050D03*
X300490Y244574D03*
D24*
X305570Y249654D01*
D21*
X433070Y368300D03*
D24*
X431800Y367030D01*
X426720Y249654D02*
X305570Y249654D01*
X426720Y249654D02*
X431800Y254734D01*
X431800Y297483D02*
X441052Y306735D01*
X441052Y324758D01*
X431800Y334010D01*
X431800Y367030D01*
X431800Y297483D02*
X431800Y254734D01*
D21*
X279400Y459740D03*
X259080Y459740D03*
X269240Y469900D03*
X299720Y469900D03*
X309880Y469900D03*
X309880Y459740D03*
X269240Y459740D03*
X289560Y469900D03*
X320040Y459740D03*
X320040Y469900D03*
X279400Y469900D03*
X269240Y480060D03*
X321310Y426720D03*
X311150Y427990D03*
X269240Y430530D03*
X259080Y429260D03*
X279400Y430530D03*
X259080Y439420D03*
X269240Y439420D03*
X311150Y448310D03*
X321310Y448310D03*
X311150Y438150D03*
X279400Y439420D03*
X321310Y438150D03*
X345539Y414020D03*
D25*
X334010Y414020D01*
X321310Y426720D01*
D21*
X322608Y407190D03*
D24*
X322608Y416532D02*
X311150Y427990D01*
X322608Y416532D02*
X322608Y407190D01*
D21*
X279400Y449580D03*
X269240Y449580D03*
X259080Y449580D03*
X356732Y378460D03*
D24*
X379125Y346738D02*
X423300Y346738D01*
X433460Y321310D02*
X433460Y311150D01*
X433460Y321310D02*
X423300Y331470D01*
X423300Y346738D01*
D21*
X433460Y311150D03*
D24*
X440662Y369960D02*
X447040Y369960D01*
X440662Y369960D02*
X440662Y375892D01*
X423300Y375892D01*
X423300Y346738D01*
X379125Y346738D02*
X372300Y353563D01*
X372300Y366720D02*
X361950Y377070D01*
X372300Y366720D02*
X372300Y353563D01*
X361950Y377070D02*
X360560Y378460D01*
X356732Y378460D01*
D23*
X364760Y364880D02*
X361950Y362070D01*
X364760Y364880D02*
X344170Y364880D01*
D25*
X322190Y368690D02*
X303530Y368690D01*
D24*
X322190Y368690D02*
X322580Y368300D01*
X323215Y368935D01*
X323215Y374060D01*
D25*
X303530Y386960D02*
X311540Y394970D01*
X303530Y386960D02*
X303530Y385690D01*
X311540Y394970D02*
X339400Y394970D01*
X360990Y416560D01*
D21*
X360990Y416560D03*
D24*
X470610Y392026D02*
X475582Y387054D01*
D21*
X475582Y387054D03*
D24*
X470610Y392026D02*
X470610Y418210D01*
D21*
X233615Y392612D03*
D23*
X222810Y403416D01*
X222810Y418210D01*
D21*
X366446Y225118D03*
D23*
X366446Y223346D01*
X346710Y203610D01*
M02*
