G04 EAGLE Gerber RS-274X export*
G75*
%MOMM*%
%FSLAX34Y34*%
%LPD*%
%INSilkscreen Top*%
%IPPOS*%
%AMOC8*
5,1,8,0,0,1.08239X$1,22.5*%
G01*
%ADD10C,0.152400*%
%ADD11C,0.101600*%
%ADD12R,0.014731X0.014731*%
%ADD13R,0.147319X0.014731*%
%ADD14R,0.265175X0.014731*%
%ADD15R,0.383031X0.014731*%
%ADD16R,0.515619X0.014731*%
%ADD17R,0.633475X0.014731*%
%ADD18R,0.751331X0.014731*%
%ADD19R,0.883919X0.014731*%
%ADD20R,1.001775X0.014731*%
%ADD21R,1.119631X0.014731*%
%ADD22R,1.134363X0.014731*%
%ADD23R,1.149094X0.014731*%
%ADD24R,1.163825X0.014731*%
%ADD25R,1.178556X0.014731*%
%ADD26R,1.193288X0.014731*%
%ADD27R,1.222756X0.014731*%
%ADD28R,1.237488X0.014731*%
%ADD29R,1.266950X0.014731*%
%ADD30R,1.281681X0.014731*%
%ADD31R,1.311144X0.014731*%
%ADD32R,1.325881X0.014731*%
%ADD33R,1.355344X0.014731*%
%ADD34R,1.370075X0.014731*%
%ADD35R,1.384806X0.014731*%
%ADD36R,1.399538X0.014731*%
%ADD37R,1.414275X0.014731*%
%ADD38R,1.443738X0.014731*%
%ADD39R,1.458469X0.014731*%
%ADD40R,1.487931X0.014731*%
%ADD41R,1.502663X0.014731*%
%ADD42R,1.517394X0.014731*%
%ADD43R,1.532125X0.014731*%
%ADD44R,1.546856X0.014731*%
%ADD45R,1.576319X0.014731*%
%ADD46R,1.605788X0.014731*%
%ADD47R,1.620519X0.014731*%
%ADD48R,1.649981X0.014731*%
%ADD49R,1.664713X0.014731*%
%ADD50R,1.694175X0.014731*%
%ADD51R,1.708913X0.014731*%
%ADD52R,1.738375X0.014731*%
%ADD53R,1.753106X0.014731*%
%ADD54R,1.767838X0.014731*%
%ADD55R,1.782569X0.014731*%
%ADD56R,1.797306X0.014731*%
%ADD57R,0.117856X0.014731*%
%ADD58R,1.826769X0.014731*%
%ADD59R,0.235713X0.014731*%
%ADD60R,0.353569X0.014731*%
%ADD61R,1.856231X0.014731*%
%ADD62R,0.486156X0.014731*%
%ADD63R,1.870963X0.014731*%
%ADD64R,0.604013X0.014731*%
%ADD65R,0.721869X0.014731*%
%ADD66R,1.885694X0.014731*%
%ADD67R,0.839719X0.014731*%
%ADD68R,0.972306X0.014731*%
%ADD69R,1.090169X0.014731*%
%ADD70R,1.208025X0.014731*%
%ADD71R,1.252219X0.014731*%
%ADD72R,1.296412X0.014731*%
%ADD73R,1.340612X0.014731*%
%ADD74R,1.826763X0.014731*%
%ADD75R,1.414269X0.014731*%
%ADD76R,1.812031X0.014731*%
%ADD77R,1.429000X0.014731*%
%ADD78R,1.458462X0.014731*%
%ADD79R,1.473200X0.014731*%
%ADD80R,1.723644X0.014731*%
%ADD81R,1.694181X0.014731*%
%ADD82R,1.679450X0.014731*%
%ADD83R,1.561594X0.014731*%
%ADD84R,1.576325X0.014731*%
%ADD85R,1.591056X0.014731*%
%ADD86R,1.635250X0.014731*%
%ADD87R,1.561588X0.014731*%
%ADD88R,1.443731X0.014731*%
%ADD89R,1.797300X0.014731*%
%ADD90R,1.841500X0.014731*%
%ADD91R,1.311150X0.014731*%
%ADD92R,1.296419X0.014731*%
%ADD93R,1.193294X0.014731*%
%ADD94R,0.957575X0.014731*%
%ADD95R,0.589281X0.014731*%
%ADD96R,0.471425X0.014731*%
%ADD97R,0.220975X0.014731*%
%ADD98R,1.812038X0.014731*%
%ADD99R,0.103119X0.014731*%
%ADD100R,0.029463X0.014731*%
%ADD101R,0.162050X0.014731*%
%ADD102R,0.397763X0.014731*%
%ADD103R,0.648206X0.014731*%
%ADD104R,1.679444X0.014731*%
%ADD105R,1.016506X0.014731*%
%ADD106R,1.104900X0.014731*%
%ADD107R,1.222750X0.014731*%
%ADD108R,1.429006X0.014731*%
%ADD109R,1.208019X0.014731*%
%ADD110R,0.987044X0.014731*%
%ADD111R,0.854456X0.014731*%
%ADD112R,0.618744X0.014731*%
%ADD113R,0.500888X0.014731*%
%ADD114R,0.368300X0.014731*%
%ADD115R,0.132587X0.014731*%
%ADD116R,1.664719X0.014731*%
%ADD117R,1.075438X0.014731*%
%ADD118R,0.942844X0.014731*%
%ADD119R,0.707131X0.014731*%
%ADD120R,0.456694X0.014731*%
%ADD121R,0.088388X0.014731*%
%ADD122C,0.127000*%
%ADD123C,0.076200*%
%ADD124R,1.140000X0.600000*%
%ADD125R,0.880000X1.000000*%
%ADD126R,0.762000X3.810000*%
%ADD127C,0.177800*%


D10*
X244470Y370418D02*
X249409Y370418D01*
X249549Y370416D01*
X249688Y370410D01*
X249828Y370400D01*
X249967Y370386D01*
X250106Y370369D01*
X250244Y370347D01*
X250381Y370321D01*
X250518Y370292D01*
X250654Y370259D01*
X250788Y370222D01*
X250922Y370181D01*
X251054Y370136D01*
X251186Y370087D01*
X251315Y370035D01*
X251443Y369980D01*
X251570Y369920D01*
X251695Y369857D01*
X251818Y369791D01*
X251939Y369721D01*
X252058Y369648D01*
X252175Y369571D01*
X252289Y369491D01*
X252402Y369408D01*
X252512Y369322D01*
X252619Y369232D01*
X252724Y369140D01*
X252826Y369045D01*
X252926Y368947D01*
X253023Y368846D01*
X253117Y368742D01*
X253207Y368636D01*
X253295Y368527D01*
X253380Y368416D01*
X253461Y368302D01*
X253540Y368187D01*
X253615Y368069D01*
X253686Y367949D01*
X253754Y367826D01*
X253819Y367703D01*
X253880Y367577D01*
X253938Y367449D01*
X253992Y367321D01*
X254042Y367190D01*
X254089Y367058D01*
X254132Y366925D01*
X254171Y366791D01*
X254206Y366656D01*
X254237Y366520D01*
X254265Y366382D01*
X254288Y366245D01*
X254308Y366106D01*
X254324Y365967D01*
X254336Y365828D01*
X254344Y365689D01*
X254348Y365549D01*
X254348Y365409D01*
X254344Y365269D01*
X254336Y365130D01*
X254324Y364991D01*
X254308Y364852D01*
X254288Y364713D01*
X254265Y364576D01*
X254237Y364438D01*
X254206Y364302D01*
X254171Y364167D01*
X254132Y364033D01*
X254089Y363900D01*
X254042Y363768D01*
X253992Y363637D01*
X253938Y363509D01*
X253880Y363381D01*
X253819Y363255D01*
X253754Y363132D01*
X253686Y363010D01*
X253615Y362889D01*
X253540Y362771D01*
X253461Y362656D01*
X253380Y362542D01*
X253295Y362431D01*
X253207Y362322D01*
X253117Y362216D01*
X253023Y362112D01*
X252926Y362011D01*
X252826Y361913D01*
X252724Y361818D01*
X252619Y361726D01*
X252512Y361636D01*
X252402Y361550D01*
X252289Y361467D01*
X252175Y361387D01*
X252058Y361310D01*
X251939Y361237D01*
X251818Y361167D01*
X251695Y361101D01*
X251570Y361038D01*
X251443Y360978D01*
X251315Y360923D01*
X251186Y360871D01*
X251054Y360822D01*
X250922Y360777D01*
X250788Y360736D01*
X250654Y360699D01*
X250518Y360666D01*
X250381Y360637D01*
X250244Y360611D01*
X250106Y360589D01*
X249967Y360572D01*
X249828Y360558D01*
X249688Y360548D01*
X249549Y360542D01*
X249409Y360540D01*
X244470Y360540D01*
X244470Y378320D01*
X249409Y378320D01*
X249533Y378318D01*
X249657Y378312D01*
X249781Y378302D01*
X249904Y378289D01*
X250027Y378271D01*
X250149Y378250D01*
X250271Y378225D01*
X250392Y378196D01*
X250511Y378163D01*
X250630Y378127D01*
X250747Y378086D01*
X250863Y378043D01*
X250978Y377995D01*
X251091Y377944D01*
X251203Y377889D01*
X251312Y377831D01*
X251420Y377770D01*
X251526Y377705D01*
X251630Y377637D01*
X251731Y377565D01*
X251831Y377491D01*
X251927Y377413D01*
X252022Y377333D01*
X252114Y377249D01*
X252203Y377163D01*
X252289Y377074D01*
X252373Y376982D01*
X252453Y376887D01*
X252531Y376791D01*
X252605Y376691D01*
X252677Y376590D01*
X252745Y376486D01*
X252810Y376380D01*
X252871Y376272D01*
X252929Y376163D01*
X252984Y376051D01*
X253035Y375938D01*
X253083Y375823D01*
X253126Y375707D01*
X253167Y375590D01*
X253203Y375471D01*
X253236Y375352D01*
X253265Y375231D01*
X253290Y375109D01*
X253311Y374987D01*
X253329Y374864D01*
X253342Y374741D01*
X253352Y374617D01*
X253358Y374493D01*
X253360Y374369D01*
X253358Y374245D01*
X253352Y374121D01*
X253342Y373997D01*
X253329Y373874D01*
X253311Y373751D01*
X253290Y373629D01*
X253265Y373507D01*
X253236Y373386D01*
X253203Y373267D01*
X253167Y373148D01*
X253126Y373031D01*
X253083Y372915D01*
X253035Y372800D01*
X252984Y372687D01*
X252929Y372575D01*
X252871Y372466D01*
X252810Y372358D01*
X252745Y372252D01*
X252677Y372148D01*
X252605Y372047D01*
X252531Y371947D01*
X252453Y371851D01*
X252373Y371756D01*
X252289Y371664D01*
X252203Y371575D01*
X252114Y371489D01*
X252022Y371405D01*
X251927Y371325D01*
X251831Y371247D01*
X251731Y371173D01*
X251630Y371101D01*
X251526Y371033D01*
X251420Y370968D01*
X251312Y370907D01*
X251203Y370849D01*
X251091Y370794D01*
X250978Y370743D01*
X250863Y370695D01*
X250747Y370652D01*
X250630Y370611D01*
X250511Y370575D01*
X250392Y370542D01*
X250271Y370513D01*
X250149Y370488D01*
X250027Y370467D01*
X249904Y370449D01*
X249781Y370436D01*
X249657Y370426D01*
X249533Y370420D01*
X249409Y370418D01*
X245445Y327449D02*
X245445Y309669D01*
X245445Y327449D02*
X250384Y327449D01*
X250523Y327447D01*
X250661Y327441D01*
X250799Y327432D01*
X250937Y327418D01*
X251074Y327401D01*
X251211Y327379D01*
X251348Y327354D01*
X251483Y327325D01*
X251618Y327292D01*
X251751Y327256D01*
X251884Y327216D01*
X252015Y327172D01*
X252145Y327124D01*
X252274Y327073D01*
X252401Y327018D01*
X252527Y326960D01*
X252651Y326898D01*
X252773Y326833D01*
X252893Y326764D01*
X253012Y326692D01*
X253128Y326617D01*
X253242Y326538D01*
X253354Y326456D01*
X253463Y326371D01*
X253571Y326284D01*
X253675Y326193D01*
X253777Y326099D01*
X253876Y326002D01*
X253973Y325903D01*
X254067Y325801D01*
X254158Y325697D01*
X254245Y325589D01*
X254330Y325480D01*
X254412Y325368D01*
X254491Y325254D01*
X254566Y325138D01*
X254638Y325019D01*
X254707Y324899D01*
X254772Y324777D01*
X254834Y324653D01*
X254892Y324527D01*
X254947Y324400D01*
X254998Y324271D01*
X255046Y324141D01*
X255090Y324010D01*
X255130Y323877D01*
X255166Y323744D01*
X255199Y323609D01*
X255228Y323474D01*
X255253Y323337D01*
X255275Y323200D01*
X255292Y323063D01*
X255306Y322925D01*
X255315Y322787D01*
X255321Y322649D01*
X255323Y322510D01*
X255323Y314608D01*
X255321Y314469D01*
X255315Y314331D01*
X255306Y314193D01*
X255292Y314055D01*
X255275Y313918D01*
X255253Y313781D01*
X255228Y313644D01*
X255199Y313509D01*
X255166Y313374D01*
X255130Y313241D01*
X255090Y313108D01*
X255046Y312977D01*
X254998Y312847D01*
X254947Y312718D01*
X254892Y312591D01*
X254834Y312465D01*
X254772Y312341D01*
X254707Y312219D01*
X254638Y312099D01*
X254566Y311980D01*
X254491Y311864D01*
X254412Y311750D01*
X254330Y311638D01*
X254245Y311529D01*
X254158Y311421D01*
X254067Y311317D01*
X253973Y311215D01*
X253876Y311116D01*
X253777Y311019D01*
X253675Y310925D01*
X253571Y310834D01*
X253463Y310747D01*
X253354Y310662D01*
X253242Y310580D01*
X253128Y310501D01*
X253012Y310426D01*
X252893Y310354D01*
X252773Y310285D01*
X252651Y310220D01*
X252527Y310158D01*
X252401Y310100D01*
X252274Y310045D01*
X252145Y309994D01*
X252015Y309946D01*
X251884Y309902D01*
X251751Y309862D01*
X251618Y309826D01*
X251483Y309793D01*
X251348Y309764D01*
X251211Y309739D01*
X251074Y309717D01*
X250937Y309700D01*
X250799Y309686D01*
X250661Y309677D01*
X250523Y309671D01*
X250384Y309669D01*
X245445Y309669D01*
X249243Y333957D02*
X253194Y333957D01*
X249243Y333957D02*
X249119Y333959D01*
X248995Y333965D01*
X248871Y333975D01*
X248748Y333988D01*
X248625Y334006D01*
X248503Y334027D01*
X248381Y334052D01*
X248260Y334081D01*
X248141Y334114D01*
X248022Y334150D01*
X247905Y334191D01*
X247789Y334234D01*
X247674Y334282D01*
X247561Y334333D01*
X247449Y334388D01*
X247340Y334446D01*
X247232Y334507D01*
X247126Y334572D01*
X247022Y334640D01*
X246921Y334712D01*
X246821Y334786D01*
X246725Y334864D01*
X246630Y334944D01*
X246538Y335028D01*
X246449Y335114D01*
X246363Y335203D01*
X246279Y335295D01*
X246199Y335390D01*
X246121Y335486D01*
X246047Y335586D01*
X245975Y335687D01*
X245907Y335791D01*
X245842Y335897D01*
X245781Y336005D01*
X245723Y336114D01*
X245668Y336226D01*
X245617Y336339D01*
X245569Y336454D01*
X245526Y336570D01*
X245485Y336687D01*
X245449Y336806D01*
X245416Y336925D01*
X245387Y337046D01*
X245362Y337168D01*
X245341Y337290D01*
X245323Y337413D01*
X245310Y337536D01*
X245300Y337660D01*
X245294Y337784D01*
X245292Y337908D01*
X245292Y347786D01*
X245294Y347910D01*
X245300Y348034D01*
X245310Y348158D01*
X245323Y348281D01*
X245341Y348404D01*
X245362Y348526D01*
X245387Y348648D01*
X245416Y348769D01*
X245449Y348888D01*
X245485Y349007D01*
X245526Y349124D01*
X245569Y349240D01*
X245617Y349355D01*
X245668Y349468D01*
X245723Y349580D01*
X245781Y349689D01*
X245842Y349797D01*
X245907Y349903D01*
X245975Y350007D01*
X246047Y350108D01*
X246121Y350208D01*
X246199Y350304D01*
X246279Y350399D01*
X246363Y350491D01*
X246449Y350580D01*
X246538Y350666D01*
X246630Y350750D01*
X246725Y350830D01*
X246821Y350908D01*
X246921Y350982D01*
X247022Y351054D01*
X247126Y351122D01*
X247232Y351187D01*
X247340Y351248D01*
X247449Y351306D01*
X247561Y351361D01*
X247674Y351412D01*
X247789Y351460D01*
X247905Y351503D01*
X248022Y351544D01*
X248141Y351580D01*
X248260Y351613D01*
X248381Y351642D01*
X248503Y351667D01*
X248625Y351688D01*
X248748Y351706D01*
X248871Y351719D01*
X248995Y351729D01*
X249119Y351735D01*
X249243Y351737D01*
X253194Y351737D01*
D11*
X498692Y334520D02*
X498692Y331274D01*
X498692Y334520D02*
X498690Y334633D01*
X498684Y334746D01*
X498674Y334859D01*
X498660Y334972D01*
X498643Y335084D01*
X498621Y335195D01*
X498596Y335305D01*
X498566Y335415D01*
X498533Y335523D01*
X498496Y335630D01*
X498456Y335736D01*
X498411Y335840D01*
X498363Y335943D01*
X498312Y336044D01*
X498257Y336143D01*
X498199Y336240D01*
X498137Y336335D01*
X498072Y336428D01*
X498004Y336518D01*
X497933Y336606D01*
X497858Y336692D01*
X497781Y336775D01*
X497701Y336855D01*
X497618Y336932D01*
X497532Y337007D01*
X497444Y337078D01*
X497354Y337146D01*
X497261Y337211D01*
X497166Y337273D01*
X497069Y337331D01*
X496970Y337386D01*
X496869Y337437D01*
X496766Y337485D01*
X496662Y337530D01*
X496556Y337570D01*
X496449Y337607D01*
X496341Y337640D01*
X496231Y337670D01*
X496121Y337695D01*
X496010Y337717D01*
X495898Y337734D01*
X495785Y337748D01*
X495672Y337758D01*
X495559Y337764D01*
X495446Y337766D01*
X495333Y337764D01*
X495220Y337758D01*
X495107Y337748D01*
X494994Y337734D01*
X494882Y337717D01*
X494771Y337695D01*
X494661Y337670D01*
X494551Y337640D01*
X494443Y337607D01*
X494336Y337570D01*
X494230Y337530D01*
X494126Y337485D01*
X494023Y337437D01*
X493922Y337386D01*
X493823Y337331D01*
X493726Y337273D01*
X493631Y337211D01*
X493538Y337146D01*
X493448Y337078D01*
X493360Y337007D01*
X493274Y336932D01*
X493191Y336855D01*
X493111Y336775D01*
X493034Y336692D01*
X492959Y336606D01*
X492888Y336518D01*
X492820Y336428D01*
X492755Y336335D01*
X492693Y336240D01*
X492635Y336143D01*
X492580Y336044D01*
X492529Y335943D01*
X492481Y335840D01*
X492436Y335736D01*
X492396Y335630D01*
X492359Y335523D01*
X492326Y335415D01*
X492296Y335305D01*
X492271Y335195D01*
X492249Y335084D01*
X492232Y334972D01*
X492218Y334859D01*
X492208Y334746D01*
X492202Y334633D01*
X492200Y334520D01*
X487008Y335169D02*
X487008Y331274D01*
X487008Y335169D02*
X487010Y335270D01*
X487016Y335370D01*
X487026Y335470D01*
X487039Y335570D01*
X487057Y335669D01*
X487078Y335768D01*
X487103Y335865D01*
X487132Y335962D01*
X487165Y336057D01*
X487201Y336151D01*
X487241Y336243D01*
X487284Y336334D01*
X487331Y336423D01*
X487381Y336510D01*
X487435Y336596D01*
X487492Y336679D01*
X487552Y336759D01*
X487615Y336838D01*
X487682Y336914D01*
X487751Y336987D01*
X487823Y337057D01*
X487897Y337125D01*
X487974Y337190D01*
X488054Y337251D01*
X488136Y337310D01*
X488220Y337365D01*
X488306Y337417D01*
X488394Y337466D01*
X488484Y337511D01*
X488576Y337553D01*
X488669Y337591D01*
X488764Y337625D01*
X488859Y337656D01*
X488956Y337683D01*
X489054Y337706D01*
X489153Y337726D01*
X489253Y337741D01*
X489353Y337753D01*
X489453Y337761D01*
X489554Y337765D01*
X489654Y337765D01*
X489755Y337761D01*
X489855Y337753D01*
X489955Y337741D01*
X490055Y337726D01*
X490154Y337706D01*
X490252Y337683D01*
X490349Y337656D01*
X490444Y337625D01*
X490539Y337591D01*
X490632Y337553D01*
X490724Y337511D01*
X490814Y337466D01*
X490902Y337417D01*
X490988Y337365D01*
X491072Y337310D01*
X491154Y337251D01*
X491234Y337190D01*
X491311Y337125D01*
X491385Y337057D01*
X491457Y336987D01*
X491526Y336914D01*
X491593Y336838D01*
X491656Y336759D01*
X491716Y336679D01*
X491773Y336596D01*
X491827Y336510D01*
X491877Y336423D01*
X491924Y336334D01*
X491967Y336243D01*
X492007Y336151D01*
X492043Y336057D01*
X492076Y335962D01*
X492105Y335865D01*
X492130Y335768D01*
X492151Y335669D01*
X492169Y335570D01*
X492182Y335470D01*
X492192Y335370D01*
X492198Y335270D01*
X492200Y335169D01*
X492201Y335169D02*
X492201Y332573D01*
X487008Y342055D02*
X498692Y345950D01*
X487008Y349845D01*
X498692Y354134D02*
X498692Y357380D01*
X498690Y357493D01*
X498684Y357606D01*
X498674Y357719D01*
X498660Y357832D01*
X498643Y357944D01*
X498621Y358055D01*
X498596Y358165D01*
X498566Y358275D01*
X498533Y358383D01*
X498496Y358490D01*
X498456Y358596D01*
X498411Y358700D01*
X498363Y358803D01*
X498312Y358904D01*
X498257Y359003D01*
X498199Y359100D01*
X498137Y359195D01*
X498072Y359288D01*
X498004Y359378D01*
X497933Y359466D01*
X497858Y359552D01*
X497781Y359635D01*
X497701Y359715D01*
X497618Y359792D01*
X497532Y359867D01*
X497444Y359938D01*
X497354Y360006D01*
X497261Y360071D01*
X497166Y360133D01*
X497069Y360191D01*
X496970Y360246D01*
X496869Y360297D01*
X496766Y360345D01*
X496662Y360390D01*
X496556Y360430D01*
X496449Y360467D01*
X496341Y360500D01*
X496231Y360530D01*
X496121Y360555D01*
X496010Y360577D01*
X495898Y360594D01*
X495785Y360608D01*
X495672Y360618D01*
X495559Y360624D01*
X495446Y360626D01*
X495333Y360624D01*
X495220Y360618D01*
X495107Y360608D01*
X494994Y360594D01*
X494882Y360577D01*
X494771Y360555D01*
X494661Y360530D01*
X494551Y360500D01*
X494443Y360467D01*
X494336Y360430D01*
X494230Y360390D01*
X494126Y360345D01*
X494023Y360297D01*
X493922Y360246D01*
X493823Y360191D01*
X493726Y360133D01*
X493631Y360071D01*
X493538Y360006D01*
X493448Y359938D01*
X493360Y359867D01*
X493274Y359792D01*
X493191Y359715D01*
X493111Y359635D01*
X493034Y359552D01*
X492959Y359466D01*
X492888Y359378D01*
X492820Y359288D01*
X492755Y359195D01*
X492693Y359100D01*
X492635Y359003D01*
X492580Y358904D01*
X492529Y358803D01*
X492481Y358700D01*
X492436Y358596D01*
X492396Y358490D01*
X492359Y358383D01*
X492326Y358275D01*
X492296Y358165D01*
X492271Y358055D01*
X492249Y357944D01*
X492232Y357832D01*
X492218Y357719D01*
X492208Y357606D01*
X492202Y357493D01*
X492200Y357380D01*
X487008Y358029D02*
X487008Y354134D01*
X487008Y358029D02*
X487010Y358130D01*
X487016Y358230D01*
X487026Y358330D01*
X487039Y358430D01*
X487057Y358529D01*
X487078Y358628D01*
X487103Y358725D01*
X487132Y358822D01*
X487165Y358917D01*
X487201Y359011D01*
X487241Y359103D01*
X487284Y359194D01*
X487331Y359283D01*
X487381Y359370D01*
X487435Y359456D01*
X487492Y359539D01*
X487552Y359619D01*
X487615Y359698D01*
X487682Y359774D01*
X487751Y359847D01*
X487823Y359917D01*
X487897Y359985D01*
X487974Y360050D01*
X488054Y360111D01*
X488136Y360170D01*
X488220Y360225D01*
X488306Y360277D01*
X488394Y360326D01*
X488484Y360371D01*
X488576Y360413D01*
X488669Y360451D01*
X488764Y360485D01*
X488859Y360516D01*
X488956Y360543D01*
X489054Y360566D01*
X489153Y360586D01*
X489253Y360601D01*
X489353Y360613D01*
X489453Y360621D01*
X489554Y360625D01*
X489654Y360625D01*
X489755Y360621D01*
X489855Y360613D01*
X489955Y360601D01*
X490055Y360586D01*
X490154Y360566D01*
X490252Y360543D01*
X490349Y360516D01*
X490444Y360485D01*
X490539Y360451D01*
X490632Y360413D01*
X490724Y360371D01*
X490814Y360326D01*
X490902Y360277D01*
X490988Y360225D01*
X491072Y360170D01*
X491154Y360111D01*
X491234Y360050D01*
X491311Y359985D01*
X491385Y359917D01*
X491457Y359847D01*
X491526Y359774D01*
X491593Y359698D01*
X491656Y359619D01*
X491716Y359539D01*
X491773Y359456D01*
X491827Y359370D01*
X491877Y359283D01*
X491924Y359194D01*
X491967Y359103D01*
X492007Y359011D01*
X492043Y358917D01*
X492076Y358822D01*
X492105Y358725D01*
X492130Y358628D01*
X492151Y358529D01*
X492169Y358430D01*
X492182Y358330D01*
X492192Y358230D01*
X492198Y358130D01*
X492200Y358029D01*
X492201Y358029D02*
X492201Y355433D01*
X412788Y209159D02*
X410129Y207297D01*
X412788Y209158D02*
X412879Y209225D01*
X412969Y209294D01*
X413056Y209367D01*
X413140Y209443D01*
X413221Y209522D01*
X413300Y209603D01*
X413376Y209687D01*
X413449Y209774D01*
X413518Y209864D01*
X413585Y209955D01*
X413648Y210049D01*
X413708Y210145D01*
X413765Y210243D01*
X413818Y210343D01*
X413868Y210445D01*
X413914Y210549D01*
X413956Y210654D01*
X413995Y210760D01*
X414030Y210868D01*
X414061Y210977D01*
X414089Y211087D01*
X414112Y211198D01*
X414132Y211309D01*
X414148Y211421D01*
X414160Y211534D01*
X414168Y211647D01*
X414172Y211760D01*
X414172Y211874D01*
X414168Y211987D01*
X414160Y212100D01*
X414148Y212213D01*
X414132Y212325D01*
X414112Y212436D01*
X414089Y212547D01*
X414061Y212657D01*
X414030Y212766D01*
X413995Y212874D01*
X413956Y212980D01*
X413914Y213085D01*
X413868Y213189D01*
X413818Y213291D01*
X413765Y213391D01*
X413708Y213489D01*
X413648Y213585D01*
X413585Y213679D01*
X413518Y213770D01*
X413449Y213860D01*
X413376Y213947D01*
X413300Y214031D01*
X413221Y214112D01*
X413140Y214191D01*
X413056Y214267D01*
X412969Y214340D01*
X412880Y214409D01*
X412788Y214476D01*
X412694Y214539D01*
X412598Y214599D01*
X412500Y214656D01*
X412400Y214709D01*
X412298Y214759D01*
X412194Y214805D01*
X412089Y214847D01*
X411983Y214886D01*
X411875Y214921D01*
X411766Y214952D01*
X411656Y214980D01*
X411545Y215003D01*
X411434Y215023D01*
X411322Y215039D01*
X411209Y215051D01*
X411096Y215059D01*
X410983Y215063D01*
X410869Y215063D01*
X410756Y215059D01*
X410643Y215051D01*
X410530Y215039D01*
X410418Y215023D01*
X410307Y215003D01*
X410196Y214980D01*
X410086Y214952D01*
X409977Y214921D01*
X409869Y214886D01*
X409763Y214847D01*
X409658Y214805D01*
X409554Y214759D01*
X409452Y214709D01*
X409352Y214656D01*
X409254Y214599D01*
X409158Y214539D01*
X409064Y214476D01*
X406618Y219102D02*
X403428Y216868D01*
X406618Y219102D02*
X406702Y219158D01*
X406787Y219211D01*
X406875Y219260D01*
X406964Y219306D01*
X407056Y219349D01*
X407149Y219388D01*
X407243Y219423D01*
X407338Y219455D01*
X407435Y219483D01*
X407533Y219507D01*
X407631Y219527D01*
X407731Y219544D01*
X407831Y219556D01*
X407931Y219565D01*
X408032Y219570D01*
X408132Y219571D01*
X408233Y219568D01*
X408333Y219561D01*
X408433Y219550D01*
X408533Y219536D01*
X408632Y219517D01*
X408730Y219495D01*
X408827Y219469D01*
X408924Y219439D01*
X409019Y219406D01*
X409112Y219369D01*
X409204Y219328D01*
X409295Y219283D01*
X409383Y219236D01*
X409470Y219184D01*
X409554Y219130D01*
X409637Y219072D01*
X409717Y219011D01*
X409795Y218947D01*
X409870Y218880D01*
X409943Y218811D01*
X410012Y218738D01*
X410079Y218663D01*
X410143Y218585D01*
X410204Y218505D01*
X410262Y218422D01*
X410316Y218338D01*
X410368Y218251D01*
X410415Y218163D01*
X410460Y218072D01*
X410501Y217980D01*
X410538Y217886D01*
X410571Y217792D01*
X410601Y217695D01*
X410627Y217598D01*
X410649Y217500D01*
X410668Y217401D01*
X410682Y217301D01*
X410693Y217201D01*
X410700Y217101D01*
X410703Y217000D01*
X410702Y216900D01*
X410697Y216799D01*
X410688Y216699D01*
X410676Y216599D01*
X410659Y216499D01*
X410639Y216401D01*
X410615Y216303D01*
X410587Y216206D01*
X410555Y216111D01*
X410520Y216017D01*
X410481Y215924D01*
X410438Y215832D01*
X410392Y215743D01*
X410343Y215655D01*
X410290Y215570D01*
X410234Y215486D01*
X410174Y215405D01*
X410112Y215326D01*
X410046Y215249D01*
X409978Y215175D01*
X409907Y215104D01*
X409833Y215036D01*
X409756Y214970D01*
X409677Y214908D01*
X409596Y214848D01*
X407470Y213359D01*
X412259Y223052D02*
X422151Y215714D01*
X418639Y227519D01*
X428855Y220409D02*
X431514Y222270D01*
X431605Y222337D01*
X431695Y222406D01*
X431782Y222479D01*
X431866Y222555D01*
X431947Y222634D01*
X432026Y222715D01*
X432102Y222799D01*
X432175Y222886D01*
X432244Y222976D01*
X432311Y223067D01*
X432374Y223161D01*
X432434Y223257D01*
X432491Y223355D01*
X432544Y223455D01*
X432594Y223557D01*
X432640Y223661D01*
X432682Y223766D01*
X432721Y223872D01*
X432756Y223980D01*
X432787Y224089D01*
X432815Y224199D01*
X432838Y224310D01*
X432858Y224421D01*
X432874Y224533D01*
X432886Y224646D01*
X432894Y224759D01*
X432898Y224872D01*
X432898Y224986D01*
X432894Y225099D01*
X432886Y225212D01*
X432874Y225325D01*
X432858Y225437D01*
X432838Y225548D01*
X432815Y225659D01*
X432787Y225769D01*
X432756Y225878D01*
X432721Y225986D01*
X432682Y226092D01*
X432640Y226197D01*
X432594Y226301D01*
X432544Y226403D01*
X432491Y226503D01*
X432434Y226601D01*
X432374Y226697D01*
X432311Y226791D01*
X432244Y226882D01*
X432175Y226972D01*
X432102Y227059D01*
X432026Y227143D01*
X431947Y227224D01*
X431866Y227303D01*
X431782Y227379D01*
X431695Y227452D01*
X431606Y227521D01*
X431514Y227588D01*
X431420Y227651D01*
X431324Y227711D01*
X431226Y227768D01*
X431126Y227821D01*
X431024Y227871D01*
X430920Y227917D01*
X430815Y227959D01*
X430709Y227998D01*
X430601Y228033D01*
X430492Y228064D01*
X430382Y228092D01*
X430271Y228115D01*
X430160Y228135D01*
X430048Y228151D01*
X429935Y228163D01*
X429822Y228171D01*
X429709Y228175D01*
X429595Y228175D01*
X429482Y228171D01*
X429369Y228163D01*
X429256Y228151D01*
X429144Y228135D01*
X429033Y228115D01*
X428922Y228092D01*
X428812Y228064D01*
X428703Y228033D01*
X428595Y227998D01*
X428489Y227959D01*
X428384Y227917D01*
X428280Y227871D01*
X428178Y227821D01*
X428078Y227768D01*
X427980Y227711D01*
X427884Y227651D01*
X427790Y227588D01*
X425344Y232214D02*
X422153Y229980D01*
X425344Y232214D02*
X425428Y232270D01*
X425513Y232323D01*
X425601Y232372D01*
X425690Y232418D01*
X425782Y232461D01*
X425875Y232500D01*
X425969Y232535D01*
X426064Y232567D01*
X426161Y232595D01*
X426259Y232619D01*
X426357Y232639D01*
X426457Y232656D01*
X426557Y232668D01*
X426657Y232677D01*
X426758Y232682D01*
X426858Y232683D01*
X426959Y232680D01*
X427059Y232673D01*
X427159Y232662D01*
X427259Y232648D01*
X427358Y232629D01*
X427456Y232607D01*
X427553Y232581D01*
X427650Y232551D01*
X427745Y232518D01*
X427838Y232481D01*
X427930Y232440D01*
X428021Y232395D01*
X428109Y232348D01*
X428196Y232296D01*
X428280Y232242D01*
X428363Y232184D01*
X428443Y232123D01*
X428521Y232059D01*
X428596Y231992D01*
X428669Y231923D01*
X428738Y231850D01*
X428805Y231775D01*
X428869Y231697D01*
X428930Y231617D01*
X428988Y231534D01*
X429042Y231450D01*
X429094Y231363D01*
X429141Y231275D01*
X429186Y231184D01*
X429227Y231092D01*
X429264Y230998D01*
X429297Y230904D01*
X429327Y230807D01*
X429353Y230710D01*
X429375Y230612D01*
X429394Y230513D01*
X429408Y230413D01*
X429419Y230313D01*
X429426Y230213D01*
X429429Y230112D01*
X429428Y230012D01*
X429423Y229911D01*
X429414Y229811D01*
X429402Y229711D01*
X429385Y229611D01*
X429365Y229513D01*
X429341Y229415D01*
X429313Y229318D01*
X429281Y229223D01*
X429246Y229129D01*
X429207Y229036D01*
X429164Y228944D01*
X429118Y228855D01*
X429069Y228767D01*
X429016Y228682D01*
X428960Y228598D01*
X428900Y228517D01*
X428838Y228438D01*
X428772Y228361D01*
X428704Y228287D01*
X428633Y228216D01*
X428559Y228148D01*
X428482Y228082D01*
X428403Y228020D01*
X428322Y227960D01*
X426195Y226471D01*
X260886Y222270D02*
X258228Y224132D01*
X260886Y222270D02*
X260980Y222207D01*
X261076Y222147D01*
X261174Y222090D01*
X261274Y222037D01*
X261376Y221987D01*
X261480Y221941D01*
X261585Y221899D01*
X261691Y221860D01*
X261799Y221825D01*
X261908Y221794D01*
X262018Y221766D01*
X262129Y221743D01*
X262240Y221723D01*
X262352Y221707D01*
X262465Y221695D01*
X262578Y221687D01*
X262691Y221683D01*
X262805Y221683D01*
X262918Y221687D01*
X263031Y221695D01*
X263144Y221707D01*
X263256Y221723D01*
X263367Y221743D01*
X263478Y221766D01*
X263588Y221794D01*
X263697Y221825D01*
X263805Y221860D01*
X263911Y221899D01*
X264016Y221941D01*
X264120Y221987D01*
X264222Y222037D01*
X264322Y222090D01*
X264420Y222147D01*
X264516Y222207D01*
X264610Y222270D01*
X264701Y222337D01*
X264791Y222406D01*
X264878Y222479D01*
X264962Y222555D01*
X265043Y222634D01*
X265122Y222715D01*
X265198Y222799D01*
X265271Y222886D01*
X265340Y222976D01*
X265407Y223067D01*
X265470Y223161D01*
X265530Y223257D01*
X265587Y223355D01*
X265640Y223455D01*
X265690Y223557D01*
X265736Y223661D01*
X265778Y223766D01*
X265817Y223872D01*
X265852Y223980D01*
X265883Y224089D01*
X265911Y224199D01*
X265934Y224310D01*
X265954Y224421D01*
X265970Y224533D01*
X265982Y224646D01*
X265990Y224759D01*
X265994Y224872D01*
X265994Y224986D01*
X265990Y225099D01*
X265982Y225212D01*
X265970Y225325D01*
X265954Y225437D01*
X265934Y225548D01*
X265911Y225659D01*
X265883Y225769D01*
X265852Y225878D01*
X265817Y225986D01*
X265778Y226092D01*
X265736Y226197D01*
X265690Y226301D01*
X265640Y226403D01*
X265587Y226503D01*
X265530Y226601D01*
X265470Y226697D01*
X265407Y226791D01*
X265340Y226882D01*
X265271Y226972D01*
X265198Y227059D01*
X265122Y227143D01*
X265043Y227224D01*
X264962Y227303D01*
X264878Y227379D01*
X264791Y227452D01*
X264702Y227521D01*
X264610Y227588D01*
X268120Y231469D02*
X264929Y233703D01*
X268119Y231469D02*
X268200Y231409D01*
X268279Y231347D01*
X268356Y231281D01*
X268430Y231213D01*
X268501Y231142D01*
X268569Y231068D01*
X268635Y230991D01*
X268697Y230912D01*
X268757Y230831D01*
X268813Y230747D01*
X268866Y230662D01*
X268915Y230574D01*
X268961Y230485D01*
X269004Y230393D01*
X269043Y230300D01*
X269078Y230206D01*
X269110Y230111D01*
X269138Y230014D01*
X269162Y229916D01*
X269182Y229818D01*
X269199Y229718D01*
X269211Y229618D01*
X269220Y229518D01*
X269225Y229418D01*
X269226Y229317D01*
X269223Y229216D01*
X269216Y229116D01*
X269205Y229016D01*
X269191Y228916D01*
X269172Y228817D01*
X269150Y228719D01*
X269124Y228622D01*
X269094Y228525D01*
X269061Y228431D01*
X269024Y228337D01*
X268983Y228245D01*
X268938Y228154D01*
X268891Y228066D01*
X268839Y227979D01*
X268785Y227895D01*
X268727Y227812D01*
X268666Y227732D01*
X268602Y227654D01*
X268535Y227579D01*
X268466Y227506D01*
X268393Y227437D01*
X268318Y227370D01*
X268240Y227306D01*
X268160Y227245D01*
X268077Y227187D01*
X267993Y227133D01*
X267906Y227081D01*
X267818Y227034D01*
X267727Y226989D01*
X267635Y226948D01*
X267541Y226911D01*
X267447Y226878D01*
X267350Y226848D01*
X267253Y226822D01*
X267155Y226800D01*
X267056Y226781D01*
X266956Y226767D01*
X266856Y226756D01*
X266756Y226749D01*
X266655Y226746D01*
X266554Y226747D01*
X266454Y226752D01*
X266354Y226761D01*
X266254Y226773D01*
X266154Y226790D01*
X266056Y226810D01*
X265958Y226834D01*
X265861Y226862D01*
X265766Y226894D01*
X265672Y226929D01*
X265579Y226968D01*
X265487Y227011D01*
X265398Y227057D01*
X265310Y227106D01*
X265225Y227159D01*
X265141Y227215D01*
X263014Y228705D01*
X273760Y227519D02*
X270249Y215714D01*
X280141Y223052D01*
X276953Y211020D02*
X279612Y209158D01*
X279706Y209095D01*
X279802Y209035D01*
X279900Y208978D01*
X280000Y208925D01*
X280102Y208875D01*
X280206Y208829D01*
X280311Y208787D01*
X280417Y208748D01*
X280525Y208713D01*
X280634Y208682D01*
X280744Y208654D01*
X280855Y208631D01*
X280966Y208611D01*
X281078Y208595D01*
X281191Y208583D01*
X281304Y208575D01*
X281417Y208571D01*
X281531Y208571D01*
X281644Y208575D01*
X281757Y208583D01*
X281870Y208595D01*
X281982Y208611D01*
X282093Y208631D01*
X282204Y208654D01*
X282314Y208682D01*
X282423Y208713D01*
X282531Y208748D01*
X282637Y208787D01*
X282742Y208829D01*
X282846Y208875D01*
X282948Y208925D01*
X283048Y208978D01*
X283146Y209035D01*
X283242Y209095D01*
X283336Y209158D01*
X283427Y209225D01*
X283517Y209294D01*
X283604Y209367D01*
X283688Y209443D01*
X283769Y209522D01*
X283848Y209603D01*
X283924Y209687D01*
X283997Y209774D01*
X284066Y209864D01*
X284133Y209955D01*
X284196Y210049D01*
X284256Y210145D01*
X284313Y210243D01*
X284366Y210343D01*
X284416Y210445D01*
X284462Y210549D01*
X284504Y210654D01*
X284543Y210760D01*
X284578Y210868D01*
X284609Y210977D01*
X284637Y211087D01*
X284660Y211198D01*
X284680Y211309D01*
X284696Y211421D01*
X284708Y211534D01*
X284716Y211647D01*
X284720Y211760D01*
X284720Y211874D01*
X284716Y211987D01*
X284708Y212100D01*
X284696Y212213D01*
X284680Y212325D01*
X284660Y212436D01*
X284637Y212547D01*
X284609Y212657D01*
X284578Y212766D01*
X284543Y212874D01*
X284504Y212980D01*
X284462Y213085D01*
X284416Y213189D01*
X284366Y213291D01*
X284313Y213391D01*
X284256Y213489D01*
X284196Y213585D01*
X284133Y213679D01*
X284066Y213770D01*
X283997Y213860D01*
X283924Y213947D01*
X283848Y214031D01*
X283769Y214112D01*
X283688Y214191D01*
X283604Y214267D01*
X283517Y214340D01*
X283428Y214409D01*
X283336Y214476D01*
X286845Y218357D02*
X283655Y220591D01*
X286845Y218357D02*
X286926Y218297D01*
X287005Y218235D01*
X287082Y218169D01*
X287156Y218101D01*
X287227Y218030D01*
X287295Y217956D01*
X287361Y217879D01*
X287423Y217800D01*
X287483Y217719D01*
X287539Y217635D01*
X287592Y217550D01*
X287641Y217462D01*
X287687Y217373D01*
X287730Y217281D01*
X287769Y217188D01*
X287804Y217094D01*
X287836Y216999D01*
X287864Y216902D01*
X287888Y216804D01*
X287908Y216706D01*
X287925Y216606D01*
X287937Y216506D01*
X287946Y216406D01*
X287951Y216306D01*
X287952Y216205D01*
X287949Y216104D01*
X287942Y216004D01*
X287931Y215904D01*
X287917Y215804D01*
X287898Y215705D01*
X287876Y215607D01*
X287850Y215510D01*
X287820Y215413D01*
X287787Y215319D01*
X287750Y215225D01*
X287709Y215133D01*
X287664Y215042D01*
X287617Y214954D01*
X287565Y214867D01*
X287511Y214783D01*
X287453Y214700D01*
X287392Y214620D01*
X287328Y214542D01*
X287261Y214467D01*
X287192Y214394D01*
X287119Y214325D01*
X287044Y214258D01*
X286966Y214194D01*
X286886Y214133D01*
X286803Y214075D01*
X286719Y214021D01*
X286632Y213969D01*
X286544Y213922D01*
X286453Y213877D01*
X286361Y213836D01*
X286267Y213799D01*
X286173Y213766D01*
X286076Y213736D01*
X285979Y213710D01*
X285881Y213688D01*
X285782Y213669D01*
X285682Y213655D01*
X285582Y213644D01*
X285482Y213637D01*
X285381Y213634D01*
X285280Y213635D01*
X285180Y213640D01*
X285080Y213649D01*
X284980Y213661D01*
X284880Y213678D01*
X284782Y213698D01*
X284684Y213722D01*
X284587Y213750D01*
X284492Y213782D01*
X284398Y213817D01*
X284305Y213856D01*
X284213Y213899D01*
X284124Y213945D01*
X284036Y213994D01*
X283951Y214047D01*
X283867Y214103D01*
X281740Y215593D01*
X206842Y331524D02*
X206842Y334770D01*
X206840Y334883D01*
X206834Y334996D01*
X206824Y335109D01*
X206810Y335222D01*
X206793Y335334D01*
X206771Y335445D01*
X206746Y335555D01*
X206716Y335665D01*
X206683Y335773D01*
X206646Y335880D01*
X206606Y335986D01*
X206561Y336090D01*
X206513Y336193D01*
X206462Y336294D01*
X206407Y336393D01*
X206349Y336490D01*
X206287Y336585D01*
X206222Y336678D01*
X206154Y336768D01*
X206083Y336856D01*
X206008Y336942D01*
X205931Y337025D01*
X205851Y337105D01*
X205768Y337182D01*
X205682Y337257D01*
X205594Y337328D01*
X205504Y337396D01*
X205411Y337461D01*
X205316Y337523D01*
X205219Y337581D01*
X205120Y337636D01*
X205019Y337687D01*
X204916Y337735D01*
X204812Y337780D01*
X204706Y337820D01*
X204599Y337857D01*
X204491Y337890D01*
X204381Y337920D01*
X204271Y337945D01*
X204160Y337967D01*
X204048Y337984D01*
X203935Y337998D01*
X203822Y338008D01*
X203709Y338014D01*
X203596Y338016D01*
X203483Y338014D01*
X203370Y338008D01*
X203257Y337998D01*
X203144Y337984D01*
X203032Y337967D01*
X202921Y337945D01*
X202811Y337920D01*
X202701Y337890D01*
X202593Y337857D01*
X202486Y337820D01*
X202380Y337780D01*
X202276Y337735D01*
X202173Y337687D01*
X202072Y337636D01*
X201973Y337581D01*
X201876Y337523D01*
X201781Y337461D01*
X201688Y337396D01*
X201598Y337328D01*
X201510Y337257D01*
X201424Y337182D01*
X201341Y337105D01*
X201261Y337025D01*
X201184Y336942D01*
X201109Y336856D01*
X201038Y336768D01*
X200970Y336678D01*
X200905Y336585D01*
X200843Y336490D01*
X200785Y336393D01*
X200730Y336294D01*
X200679Y336193D01*
X200631Y336090D01*
X200586Y335986D01*
X200546Y335880D01*
X200509Y335773D01*
X200476Y335665D01*
X200446Y335555D01*
X200421Y335445D01*
X200399Y335334D01*
X200382Y335222D01*
X200368Y335109D01*
X200358Y334996D01*
X200352Y334883D01*
X200350Y334770D01*
X195158Y335419D02*
X195158Y331524D01*
X195158Y335419D02*
X195160Y335520D01*
X195166Y335620D01*
X195176Y335720D01*
X195189Y335820D01*
X195207Y335919D01*
X195228Y336018D01*
X195253Y336115D01*
X195282Y336212D01*
X195315Y336307D01*
X195351Y336401D01*
X195391Y336493D01*
X195434Y336584D01*
X195481Y336673D01*
X195531Y336760D01*
X195585Y336846D01*
X195642Y336929D01*
X195702Y337009D01*
X195765Y337088D01*
X195832Y337164D01*
X195901Y337237D01*
X195973Y337307D01*
X196047Y337375D01*
X196124Y337440D01*
X196204Y337501D01*
X196286Y337560D01*
X196370Y337615D01*
X196456Y337667D01*
X196544Y337716D01*
X196634Y337761D01*
X196726Y337803D01*
X196819Y337841D01*
X196914Y337875D01*
X197009Y337906D01*
X197106Y337933D01*
X197204Y337956D01*
X197303Y337976D01*
X197403Y337991D01*
X197503Y338003D01*
X197603Y338011D01*
X197704Y338015D01*
X197804Y338015D01*
X197905Y338011D01*
X198005Y338003D01*
X198105Y337991D01*
X198205Y337976D01*
X198304Y337956D01*
X198402Y337933D01*
X198499Y337906D01*
X198594Y337875D01*
X198689Y337841D01*
X198782Y337803D01*
X198874Y337761D01*
X198964Y337716D01*
X199052Y337667D01*
X199138Y337615D01*
X199222Y337560D01*
X199304Y337501D01*
X199384Y337440D01*
X199461Y337375D01*
X199535Y337307D01*
X199607Y337237D01*
X199676Y337164D01*
X199743Y337088D01*
X199806Y337009D01*
X199866Y336929D01*
X199923Y336846D01*
X199977Y336760D01*
X200027Y336673D01*
X200074Y336584D01*
X200117Y336493D01*
X200157Y336401D01*
X200193Y336307D01*
X200226Y336212D01*
X200255Y336115D01*
X200280Y336018D01*
X200301Y335919D01*
X200319Y335820D01*
X200332Y335720D01*
X200342Y335620D01*
X200348Y335520D01*
X200350Y335419D01*
X200351Y335419D02*
X200351Y332823D01*
X195158Y342305D02*
X206842Y346200D01*
X195158Y350095D01*
X206842Y354384D02*
X206842Y357630D01*
X206840Y357743D01*
X206834Y357856D01*
X206824Y357969D01*
X206810Y358082D01*
X206793Y358194D01*
X206771Y358305D01*
X206746Y358415D01*
X206716Y358525D01*
X206683Y358633D01*
X206646Y358740D01*
X206606Y358846D01*
X206561Y358950D01*
X206513Y359053D01*
X206462Y359154D01*
X206407Y359253D01*
X206349Y359350D01*
X206287Y359445D01*
X206222Y359538D01*
X206154Y359628D01*
X206083Y359716D01*
X206008Y359802D01*
X205931Y359885D01*
X205851Y359965D01*
X205768Y360042D01*
X205682Y360117D01*
X205594Y360188D01*
X205504Y360256D01*
X205411Y360321D01*
X205316Y360383D01*
X205219Y360441D01*
X205120Y360496D01*
X205019Y360547D01*
X204916Y360595D01*
X204812Y360640D01*
X204706Y360680D01*
X204599Y360717D01*
X204491Y360750D01*
X204381Y360780D01*
X204271Y360805D01*
X204160Y360827D01*
X204048Y360844D01*
X203935Y360858D01*
X203822Y360868D01*
X203709Y360874D01*
X203596Y360876D01*
X203483Y360874D01*
X203370Y360868D01*
X203257Y360858D01*
X203144Y360844D01*
X203032Y360827D01*
X202921Y360805D01*
X202811Y360780D01*
X202701Y360750D01*
X202593Y360717D01*
X202486Y360680D01*
X202380Y360640D01*
X202276Y360595D01*
X202173Y360547D01*
X202072Y360496D01*
X201973Y360441D01*
X201876Y360383D01*
X201781Y360321D01*
X201688Y360256D01*
X201598Y360188D01*
X201510Y360117D01*
X201424Y360042D01*
X201341Y359965D01*
X201261Y359885D01*
X201184Y359802D01*
X201109Y359716D01*
X201038Y359628D01*
X200970Y359538D01*
X200905Y359445D01*
X200843Y359350D01*
X200785Y359253D01*
X200730Y359154D01*
X200679Y359053D01*
X200631Y358950D01*
X200586Y358846D01*
X200546Y358740D01*
X200509Y358633D01*
X200476Y358525D01*
X200446Y358415D01*
X200421Y358305D01*
X200399Y358194D01*
X200382Y358082D01*
X200368Y357969D01*
X200358Y357856D01*
X200352Y357743D01*
X200350Y357630D01*
X195158Y358279D02*
X195158Y354384D01*
X195158Y358279D02*
X195160Y358380D01*
X195166Y358480D01*
X195176Y358580D01*
X195189Y358680D01*
X195207Y358779D01*
X195228Y358878D01*
X195253Y358975D01*
X195282Y359072D01*
X195315Y359167D01*
X195351Y359261D01*
X195391Y359353D01*
X195434Y359444D01*
X195481Y359533D01*
X195531Y359620D01*
X195585Y359706D01*
X195642Y359789D01*
X195702Y359869D01*
X195765Y359948D01*
X195832Y360024D01*
X195901Y360097D01*
X195973Y360167D01*
X196047Y360235D01*
X196124Y360300D01*
X196204Y360361D01*
X196286Y360420D01*
X196370Y360475D01*
X196456Y360527D01*
X196544Y360576D01*
X196634Y360621D01*
X196726Y360663D01*
X196819Y360701D01*
X196914Y360735D01*
X197009Y360766D01*
X197106Y360793D01*
X197204Y360816D01*
X197303Y360836D01*
X197403Y360851D01*
X197503Y360863D01*
X197603Y360871D01*
X197704Y360875D01*
X197804Y360875D01*
X197905Y360871D01*
X198005Y360863D01*
X198105Y360851D01*
X198205Y360836D01*
X198304Y360816D01*
X198402Y360793D01*
X198499Y360766D01*
X198594Y360735D01*
X198689Y360701D01*
X198782Y360663D01*
X198874Y360621D01*
X198964Y360576D01*
X199052Y360527D01*
X199138Y360475D01*
X199222Y360420D01*
X199304Y360361D01*
X199384Y360300D01*
X199461Y360235D01*
X199535Y360167D01*
X199607Y360097D01*
X199676Y360024D01*
X199743Y359948D01*
X199806Y359869D01*
X199866Y359789D01*
X199923Y359706D01*
X199977Y359620D01*
X200027Y359533D01*
X200074Y359444D01*
X200117Y359353D01*
X200157Y359261D01*
X200193Y359167D01*
X200226Y359072D01*
X200255Y358975D01*
X200280Y358878D01*
X200301Y358779D01*
X200319Y358680D01*
X200332Y358580D01*
X200342Y358480D01*
X200348Y358380D01*
X200350Y358279D01*
X200351Y358279D02*
X200351Y355683D01*
D10*
X435821Y402287D02*
X435821Y420067D01*
X440760Y420067D01*
X440900Y420065D01*
X441039Y420059D01*
X441179Y420049D01*
X441318Y420035D01*
X441457Y420018D01*
X441595Y419996D01*
X441732Y419970D01*
X441869Y419941D01*
X442005Y419908D01*
X442139Y419871D01*
X442273Y419830D01*
X442405Y419785D01*
X442537Y419736D01*
X442666Y419684D01*
X442794Y419629D01*
X442921Y419569D01*
X443046Y419506D01*
X443169Y419440D01*
X443290Y419370D01*
X443409Y419297D01*
X443526Y419220D01*
X443640Y419140D01*
X443753Y419057D01*
X443863Y418971D01*
X443970Y418881D01*
X444075Y418789D01*
X444177Y418694D01*
X444277Y418596D01*
X444374Y418495D01*
X444468Y418391D01*
X444558Y418285D01*
X444646Y418176D01*
X444731Y418065D01*
X444812Y417951D01*
X444891Y417836D01*
X444966Y417718D01*
X445037Y417598D01*
X445105Y417475D01*
X445170Y417352D01*
X445231Y417226D01*
X445289Y417098D01*
X445343Y416970D01*
X445393Y416839D01*
X445440Y416707D01*
X445483Y416574D01*
X445522Y416440D01*
X445557Y416305D01*
X445588Y416169D01*
X445616Y416031D01*
X445639Y415894D01*
X445659Y415755D01*
X445675Y415616D01*
X445687Y415477D01*
X445695Y415338D01*
X445699Y415198D01*
X445699Y415058D01*
X445695Y414918D01*
X445687Y414779D01*
X445675Y414640D01*
X445659Y414501D01*
X445639Y414362D01*
X445616Y414225D01*
X445588Y414087D01*
X445557Y413951D01*
X445522Y413816D01*
X445483Y413682D01*
X445440Y413549D01*
X445393Y413417D01*
X445343Y413286D01*
X445289Y413158D01*
X445231Y413030D01*
X445170Y412904D01*
X445105Y412781D01*
X445037Y412659D01*
X444966Y412538D01*
X444891Y412420D01*
X444812Y412305D01*
X444731Y412191D01*
X444646Y412080D01*
X444558Y411971D01*
X444468Y411865D01*
X444374Y411761D01*
X444277Y411660D01*
X444177Y411562D01*
X444075Y411467D01*
X443970Y411375D01*
X443863Y411285D01*
X443753Y411199D01*
X443640Y411116D01*
X443526Y411036D01*
X443409Y410959D01*
X443290Y410886D01*
X443169Y410816D01*
X443046Y410750D01*
X442921Y410687D01*
X442794Y410627D01*
X442666Y410572D01*
X442537Y410520D01*
X442405Y410471D01*
X442273Y410426D01*
X442139Y410385D01*
X442005Y410348D01*
X441869Y410315D01*
X441732Y410286D01*
X441595Y410260D01*
X441457Y410238D01*
X441318Y410221D01*
X441179Y410207D01*
X441039Y410197D01*
X440900Y410191D01*
X440760Y410189D01*
X435821Y410189D01*
X451816Y416116D02*
X456755Y420067D01*
X456755Y402287D01*
X451816Y402287D02*
X461694Y402287D01*
X420506Y302110D02*
X420506Y284330D01*
X420506Y302110D02*
X425445Y302110D01*
X425585Y302108D01*
X425724Y302102D01*
X425864Y302092D01*
X426003Y302078D01*
X426142Y302061D01*
X426280Y302039D01*
X426417Y302013D01*
X426554Y301984D01*
X426690Y301951D01*
X426824Y301914D01*
X426958Y301873D01*
X427090Y301828D01*
X427222Y301779D01*
X427351Y301727D01*
X427479Y301672D01*
X427606Y301612D01*
X427731Y301549D01*
X427854Y301483D01*
X427975Y301413D01*
X428094Y301340D01*
X428211Y301263D01*
X428325Y301183D01*
X428438Y301100D01*
X428548Y301014D01*
X428655Y300924D01*
X428760Y300832D01*
X428862Y300737D01*
X428962Y300639D01*
X429059Y300538D01*
X429153Y300434D01*
X429243Y300328D01*
X429331Y300219D01*
X429416Y300108D01*
X429497Y299994D01*
X429576Y299879D01*
X429651Y299761D01*
X429722Y299641D01*
X429790Y299518D01*
X429855Y299395D01*
X429916Y299269D01*
X429974Y299141D01*
X430028Y299013D01*
X430078Y298882D01*
X430125Y298750D01*
X430168Y298617D01*
X430207Y298483D01*
X430242Y298348D01*
X430273Y298212D01*
X430301Y298074D01*
X430324Y297937D01*
X430344Y297798D01*
X430360Y297659D01*
X430372Y297520D01*
X430380Y297381D01*
X430384Y297241D01*
X430384Y297101D01*
X430380Y296961D01*
X430372Y296822D01*
X430360Y296683D01*
X430344Y296544D01*
X430324Y296405D01*
X430301Y296268D01*
X430273Y296130D01*
X430242Y295994D01*
X430207Y295859D01*
X430168Y295725D01*
X430125Y295592D01*
X430078Y295460D01*
X430028Y295329D01*
X429974Y295201D01*
X429916Y295073D01*
X429855Y294947D01*
X429790Y294824D01*
X429722Y294702D01*
X429651Y294581D01*
X429576Y294463D01*
X429497Y294348D01*
X429416Y294234D01*
X429331Y294123D01*
X429243Y294014D01*
X429153Y293908D01*
X429059Y293804D01*
X428962Y293703D01*
X428862Y293605D01*
X428760Y293510D01*
X428655Y293418D01*
X428548Y293328D01*
X428438Y293242D01*
X428325Y293159D01*
X428211Y293079D01*
X428094Y293002D01*
X427975Y292929D01*
X427854Y292859D01*
X427731Y292793D01*
X427606Y292730D01*
X427479Y292670D01*
X427351Y292615D01*
X427222Y292563D01*
X427090Y292514D01*
X426958Y292469D01*
X426824Y292428D01*
X426690Y292391D01*
X426554Y292358D01*
X426417Y292329D01*
X426280Y292303D01*
X426142Y292281D01*
X426003Y292264D01*
X425864Y292250D01*
X425724Y292240D01*
X425585Y292234D01*
X425445Y292232D01*
X420506Y292232D01*
X441934Y302110D02*
X442066Y302108D01*
X442197Y302102D01*
X442329Y302092D01*
X442460Y302079D01*
X442590Y302061D01*
X442720Y302040D01*
X442850Y302015D01*
X442978Y301986D01*
X443106Y301953D01*
X443232Y301916D01*
X443358Y301876D01*
X443482Y301832D01*
X443605Y301784D01*
X443726Y301733D01*
X443846Y301678D01*
X443964Y301620D01*
X444080Y301558D01*
X444194Y301492D01*
X444307Y301424D01*
X444417Y301352D01*
X444525Y301277D01*
X444631Y301198D01*
X444735Y301117D01*
X444836Y301032D01*
X444934Y300945D01*
X445030Y300854D01*
X445123Y300761D01*
X445214Y300665D01*
X445301Y300567D01*
X445386Y300466D01*
X445467Y300362D01*
X445546Y300256D01*
X445621Y300148D01*
X445693Y300038D01*
X445761Y299925D01*
X445827Y299811D01*
X445889Y299695D01*
X445947Y299577D01*
X446002Y299457D01*
X446053Y299336D01*
X446101Y299213D01*
X446145Y299089D01*
X446185Y298963D01*
X446222Y298837D01*
X446255Y298709D01*
X446284Y298581D01*
X446309Y298451D01*
X446330Y298321D01*
X446348Y298191D01*
X446361Y298060D01*
X446371Y297928D01*
X446377Y297797D01*
X446379Y297665D01*
X441934Y302111D02*
X441784Y302109D01*
X441635Y302103D01*
X441486Y302093D01*
X441337Y302080D01*
X441188Y302062D01*
X441040Y302041D01*
X440892Y302015D01*
X440746Y301986D01*
X440600Y301953D01*
X440455Y301916D01*
X440311Y301875D01*
X440168Y301831D01*
X440026Y301783D01*
X439886Y301731D01*
X439747Y301676D01*
X439609Y301617D01*
X439474Y301554D01*
X439339Y301488D01*
X439207Y301418D01*
X439077Y301345D01*
X438948Y301268D01*
X438821Y301188D01*
X438697Y301105D01*
X438575Y301019D01*
X438455Y300929D01*
X438338Y300836D01*
X438223Y300741D01*
X438110Y300642D01*
X438000Y300540D01*
X437893Y300436D01*
X437789Y300329D01*
X437687Y300219D01*
X437589Y300106D01*
X437493Y299991D01*
X437401Y299873D01*
X437311Y299753D01*
X437225Y299631D01*
X437142Y299507D01*
X437062Y299380D01*
X436986Y299252D01*
X436913Y299121D01*
X436843Y298988D01*
X436777Y298854D01*
X436715Y298718D01*
X436656Y298581D01*
X436600Y298442D01*
X436549Y298301D01*
X436501Y298160D01*
X444897Y294208D02*
X444993Y294301D01*
X445085Y294397D01*
X445175Y294496D01*
X445262Y294597D01*
X445347Y294700D01*
X445428Y294805D01*
X445506Y294913D01*
X445581Y295023D01*
X445654Y295135D01*
X445723Y295249D01*
X445789Y295365D01*
X445851Y295483D01*
X445910Y295602D01*
X445966Y295723D01*
X446019Y295846D01*
X446068Y295970D01*
X446113Y296095D01*
X446156Y296222D01*
X446194Y296349D01*
X446229Y296478D01*
X446260Y296607D01*
X446288Y296738D01*
X446312Y296869D01*
X446333Y297001D01*
X446349Y297133D01*
X446362Y297266D01*
X446372Y297399D01*
X446377Y297532D01*
X446379Y297665D01*
X444898Y294208D02*
X436501Y284330D01*
X446379Y284330D01*
X458749Y291245D02*
X458749Y297171D01*
X458749Y291245D02*
X462206Y286800D01*
X458749Y291245D02*
X455292Y286800D01*
X458749Y291245D02*
X464182Y293220D01*
X458749Y291245D02*
X453316Y293220D01*
X333264Y233490D02*
X333264Y215710D01*
X333264Y233490D02*
X338203Y233490D01*
X338343Y233488D01*
X338482Y233482D01*
X338622Y233472D01*
X338761Y233458D01*
X338900Y233441D01*
X339038Y233419D01*
X339175Y233393D01*
X339312Y233364D01*
X339448Y233331D01*
X339582Y233294D01*
X339716Y233253D01*
X339848Y233208D01*
X339980Y233159D01*
X340109Y233107D01*
X340237Y233052D01*
X340364Y232992D01*
X340489Y232929D01*
X340612Y232863D01*
X340733Y232793D01*
X340852Y232720D01*
X340969Y232643D01*
X341083Y232563D01*
X341196Y232480D01*
X341306Y232394D01*
X341413Y232304D01*
X341518Y232212D01*
X341620Y232117D01*
X341720Y232019D01*
X341817Y231918D01*
X341911Y231814D01*
X342001Y231708D01*
X342089Y231599D01*
X342174Y231488D01*
X342255Y231374D01*
X342334Y231259D01*
X342409Y231141D01*
X342480Y231021D01*
X342548Y230898D01*
X342613Y230775D01*
X342674Y230649D01*
X342732Y230521D01*
X342786Y230393D01*
X342836Y230262D01*
X342883Y230130D01*
X342926Y229997D01*
X342965Y229863D01*
X343000Y229728D01*
X343031Y229592D01*
X343059Y229454D01*
X343082Y229317D01*
X343102Y229178D01*
X343118Y229039D01*
X343130Y228900D01*
X343138Y228761D01*
X343142Y228621D01*
X343142Y228481D01*
X343138Y228341D01*
X343130Y228202D01*
X343118Y228063D01*
X343102Y227924D01*
X343082Y227785D01*
X343059Y227648D01*
X343031Y227510D01*
X343000Y227374D01*
X342965Y227239D01*
X342926Y227105D01*
X342883Y226972D01*
X342836Y226840D01*
X342786Y226709D01*
X342732Y226581D01*
X342674Y226453D01*
X342613Y226327D01*
X342548Y226204D01*
X342480Y226082D01*
X342409Y225961D01*
X342334Y225843D01*
X342255Y225728D01*
X342174Y225614D01*
X342089Y225503D01*
X342001Y225394D01*
X341911Y225288D01*
X341817Y225184D01*
X341720Y225083D01*
X341620Y224985D01*
X341518Y224890D01*
X341413Y224798D01*
X341306Y224708D01*
X341196Y224622D01*
X341083Y224539D01*
X340969Y224459D01*
X340852Y224382D01*
X340733Y224309D01*
X340612Y224239D01*
X340489Y224173D01*
X340364Y224110D01*
X340237Y224050D01*
X340109Y223995D01*
X339980Y223943D01*
X339848Y223894D01*
X339716Y223849D01*
X339582Y223808D01*
X339448Y223771D01*
X339312Y223738D01*
X339175Y223709D01*
X339038Y223683D01*
X338900Y223661D01*
X338761Y223644D01*
X338622Y223630D01*
X338482Y223620D01*
X338343Y223614D01*
X338203Y223612D01*
X333264Y223612D01*
X349259Y215710D02*
X354198Y215710D01*
X354338Y215712D01*
X354477Y215718D01*
X354617Y215728D01*
X354756Y215742D01*
X354895Y215759D01*
X355033Y215781D01*
X355170Y215807D01*
X355307Y215836D01*
X355443Y215869D01*
X355577Y215906D01*
X355711Y215947D01*
X355843Y215992D01*
X355975Y216041D01*
X356104Y216093D01*
X356232Y216148D01*
X356359Y216208D01*
X356484Y216271D01*
X356607Y216337D01*
X356728Y216407D01*
X356847Y216480D01*
X356964Y216557D01*
X357078Y216637D01*
X357191Y216720D01*
X357301Y216806D01*
X357408Y216896D01*
X357513Y216988D01*
X357615Y217083D01*
X357715Y217181D01*
X357812Y217282D01*
X357906Y217386D01*
X357996Y217492D01*
X358084Y217601D01*
X358169Y217712D01*
X358250Y217826D01*
X358329Y217941D01*
X358404Y218059D01*
X358475Y218180D01*
X358543Y218302D01*
X358608Y218425D01*
X358669Y218551D01*
X358727Y218679D01*
X358781Y218807D01*
X358831Y218938D01*
X358878Y219070D01*
X358921Y219203D01*
X358960Y219337D01*
X358995Y219472D01*
X359026Y219608D01*
X359054Y219746D01*
X359077Y219883D01*
X359097Y220022D01*
X359113Y220161D01*
X359125Y220300D01*
X359133Y220439D01*
X359137Y220579D01*
X359137Y220719D01*
X359133Y220859D01*
X359125Y220998D01*
X359113Y221137D01*
X359097Y221276D01*
X359077Y221415D01*
X359054Y221552D01*
X359026Y221690D01*
X358995Y221826D01*
X358960Y221961D01*
X358921Y222095D01*
X358878Y222228D01*
X358831Y222360D01*
X358781Y222491D01*
X358727Y222619D01*
X358669Y222747D01*
X358608Y222873D01*
X358543Y222996D01*
X358475Y223119D01*
X358404Y223239D01*
X358329Y223357D01*
X358250Y223472D01*
X358169Y223586D01*
X358084Y223697D01*
X357996Y223806D01*
X357906Y223912D01*
X357812Y224016D01*
X357715Y224117D01*
X357615Y224215D01*
X357513Y224310D01*
X357408Y224402D01*
X357301Y224492D01*
X357191Y224578D01*
X357078Y224661D01*
X356964Y224741D01*
X356847Y224818D01*
X356728Y224891D01*
X356607Y224961D01*
X356484Y225027D01*
X356359Y225090D01*
X356232Y225150D01*
X356104Y225205D01*
X355975Y225257D01*
X355843Y225306D01*
X355711Y225351D01*
X355577Y225392D01*
X355443Y225429D01*
X355307Y225462D01*
X355170Y225491D01*
X355033Y225517D01*
X354895Y225539D01*
X354756Y225556D01*
X354617Y225570D01*
X354477Y225580D01*
X354338Y225586D01*
X354198Y225588D01*
X355185Y233490D02*
X349259Y233490D01*
X355185Y233490D02*
X355309Y233488D01*
X355433Y233482D01*
X355557Y233472D01*
X355680Y233459D01*
X355803Y233441D01*
X355925Y233420D01*
X356047Y233395D01*
X356168Y233366D01*
X356287Y233333D01*
X356406Y233297D01*
X356523Y233256D01*
X356639Y233213D01*
X356754Y233165D01*
X356867Y233114D01*
X356979Y233059D01*
X357088Y233001D01*
X357196Y232940D01*
X357302Y232875D01*
X357406Y232807D01*
X357507Y232735D01*
X357607Y232661D01*
X357703Y232583D01*
X357798Y232503D01*
X357890Y232419D01*
X357979Y232333D01*
X358065Y232244D01*
X358149Y232152D01*
X358229Y232057D01*
X358307Y231961D01*
X358381Y231861D01*
X358453Y231760D01*
X358521Y231656D01*
X358586Y231550D01*
X358647Y231442D01*
X358705Y231333D01*
X358760Y231221D01*
X358811Y231108D01*
X358859Y230993D01*
X358902Y230877D01*
X358943Y230760D01*
X358979Y230641D01*
X359012Y230522D01*
X359041Y230401D01*
X359066Y230279D01*
X359087Y230157D01*
X359105Y230034D01*
X359118Y229911D01*
X359128Y229787D01*
X359134Y229663D01*
X359136Y229539D01*
X359134Y229415D01*
X359128Y229291D01*
X359118Y229167D01*
X359105Y229044D01*
X359087Y228921D01*
X359066Y228799D01*
X359041Y228677D01*
X359012Y228556D01*
X358979Y228437D01*
X358943Y228318D01*
X358902Y228201D01*
X358859Y228085D01*
X358811Y227970D01*
X358760Y227857D01*
X358705Y227745D01*
X358647Y227636D01*
X358586Y227528D01*
X358521Y227422D01*
X358453Y227318D01*
X358381Y227217D01*
X358307Y227117D01*
X358229Y227021D01*
X358149Y226926D01*
X358065Y226834D01*
X357979Y226745D01*
X357890Y226659D01*
X357798Y226575D01*
X357703Y226495D01*
X357607Y226417D01*
X357507Y226343D01*
X357406Y226271D01*
X357302Y226203D01*
X357196Y226138D01*
X357088Y226077D01*
X356979Y226019D01*
X356867Y225964D01*
X356754Y225913D01*
X356639Y225865D01*
X356523Y225822D01*
X356406Y225781D01*
X356287Y225745D01*
X356168Y225712D01*
X356047Y225683D01*
X355925Y225658D01*
X355803Y225637D01*
X355680Y225619D01*
X355557Y225606D01*
X355433Y225596D01*
X355309Y225590D01*
X355185Y225588D01*
X351234Y225588D01*
X235087Y278699D02*
X235087Y296479D01*
X240026Y296479D01*
X240166Y296477D01*
X240305Y296471D01*
X240445Y296461D01*
X240584Y296447D01*
X240723Y296430D01*
X240861Y296408D01*
X240998Y296382D01*
X241135Y296353D01*
X241271Y296320D01*
X241405Y296283D01*
X241539Y296242D01*
X241671Y296197D01*
X241803Y296148D01*
X241932Y296096D01*
X242060Y296041D01*
X242187Y295981D01*
X242312Y295918D01*
X242435Y295852D01*
X242556Y295782D01*
X242675Y295709D01*
X242792Y295632D01*
X242906Y295552D01*
X243019Y295469D01*
X243129Y295383D01*
X243236Y295293D01*
X243341Y295201D01*
X243443Y295106D01*
X243543Y295008D01*
X243640Y294907D01*
X243734Y294803D01*
X243824Y294697D01*
X243912Y294588D01*
X243997Y294477D01*
X244078Y294363D01*
X244157Y294248D01*
X244232Y294130D01*
X244303Y294010D01*
X244371Y293887D01*
X244436Y293764D01*
X244497Y293638D01*
X244555Y293510D01*
X244609Y293382D01*
X244659Y293251D01*
X244706Y293119D01*
X244749Y292986D01*
X244788Y292852D01*
X244823Y292717D01*
X244854Y292581D01*
X244882Y292443D01*
X244905Y292306D01*
X244925Y292167D01*
X244941Y292028D01*
X244953Y291889D01*
X244961Y291750D01*
X244965Y291610D01*
X244965Y291470D01*
X244961Y291330D01*
X244953Y291191D01*
X244941Y291052D01*
X244925Y290913D01*
X244905Y290774D01*
X244882Y290637D01*
X244854Y290499D01*
X244823Y290363D01*
X244788Y290228D01*
X244749Y290094D01*
X244706Y289961D01*
X244659Y289829D01*
X244609Y289698D01*
X244555Y289570D01*
X244497Y289442D01*
X244436Y289316D01*
X244371Y289193D01*
X244303Y289071D01*
X244232Y288950D01*
X244157Y288832D01*
X244078Y288717D01*
X243997Y288603D01*
X243912Y288492D01*
X243824Y288383D01*
X243734Y288277D01*
X243640Y288173D01*
X243543Y288072D01*
X243443Y287974D01*
X243341Y287879D01*
X243236Y287787D01*
X243129Y287697D01*
X243019Y287611D01*
X242906Y287528D01*
X242792Y287448D01*
X242675Y287371D01*
X242556Y287298D01*
X242435Y287228D01*
X242312Y287162D01*
X242187Y287099D01*
X242060Y287039D01*
X241932Y286984D01*
X241803Y286932D01*
X241671Y286883D01*
X241539Y286838D01*
X241405Y286797D01*
X241271Y286760D01*
X241135Y286727D01*
X240998Y286698D01*
X240861Y286672D01*
X240723Y286650D01*
X240584Y286633D01*
X240445Y286619D01*
X240305Y286609D01*
X240166Y286603D01*
X240026Y286601D01*
X235087Y286601D01*
X251082Y282650D02*
X255033Y296479D01*
X251082Y282650D02*
X260960Y282650D01*
X257997Y286601D02*
X257997Y278699D01*
X239348Y403848D02*
X239348Y421628D01*
X244287Y421628D01*
X244427Y421626D01*
X244566Y421620D01*
X244706Y421610D01*
X244845Y421596D01*
X244984Y421579D01*
X245122Y421557D01*
X245259Y421531D01*
X245396Y421502D01*
X245532Y421469D01*
X245666Y421432D01*
X245800Y421391D01*
X245932Y421346D01*
X246064Y421297D01*
X246193Y421245D01*
X246321Y421190D01*
X246448Y421130D01*
X246573Y421067D01*
X246696Y421001D01*
X246817Y420931D01*
X246936Y420858D01*
X247053Y420781D01*
X247167Y420701D01*
X247280Y420618D01*
X247390Y420532D01*
X247497Y420442D01*
X247602Y420350D01*
X247704Y420255D01*
X247804Y420157D01*
X247901Y420056D01*
X247995Y419952D01*
X248085Y419846D01*
X248173Y419737D01*
X248258Y419626D01*
X248339Y419512D01*
X248418Y419397D01*
X248493Y419279D01*
X248564Y419159D01*
X248632Y419036D01*
X248697Y418913D01*
X248758Y418787D01*
X248816Y418659D01*
X248870Y418531D01*
X248920Y418400D01*
X248967Y418268D01*
X249010Y418135D01*
X249049Y418001D01*
X249084Y417866D01*
X249115Y417730D01*
X249143Y417592D01*
X249166Y417455D01*
X249186Y417316D01*
X249202Y417177D01*
X249214Y417038D01*
X249222Y416899D01*
X249226Y416759D01*
X249226Y416619D01*
X249222Y416479D01*
X249214Y416340D01*
X249202Y416201D01*
X249186Y416062D01*
X249166Y415923D01*
X249143Y415786D01*
X249115Y415648D01*
X249084Y415512D01*
X249049Y415377D01*
X249010Y415243D01*
X248967Y415110D01*
X248920Y414978D01*
X248870Y414847D01*
X248816Y414719D01*
X248758Y414591D01*
X248697Y414465D01*
X248632Y414342D01*
X248564Y414220D01*
X248493Y414099D01*
X248418Y413981D01*
X248339Y413866D01*
X248258Y413752D01*
X248173Y413641D01*
X248085Y413532D01*
X247995Y413426D01*
X247901Y413322D01*
X247804Y413221D01*
X247704Y413123D01*
X247602Y413028D01*
X247497Y412936D01*
X247390Y412846D01*
X247280Y412760D01*
X247167Y412677D01*
X247053Y412597D01*
X246936Y412520D01*
X246817Y412447D01*
X246696Y412377D01*
X246573Y412311D01*
X246448Y412248D01*
X246321Y412188D01*
X246193Y412133D01*
X246064Y412081D01*
X245932Y412032D01*
X245800Y411987D01*
X245666Y411946D01*
X245532Y411909D01*
X245396Y411876D01*
X245259Y411847D01*
X245122Y411821D01*
X244984Y411799D01*
X244845Y411782D01*
X244706Y411768D01*
X244566Y411758D01*
X244427Y411752D01*
X244287Y411750D01*
X239348Y411750D01*
X255343Y403848D02*
X261270Y403848D01*
X261394Y403850D01*
X261518Y403856D01*
X261642Y403866D01*
X261765Y403879D01*
X261888Y403897D01*
X262010Y403918D01*
X262132Y403943D01*
X262253Y403972D01*
X262372Y404005D01*
X262491Y404041D01*
X262608Y404082D01*
X262724Y404125D01*
X262839Y404173D01*
X262952Y404224D01*
X263064Y404279D01*
X263173Y404337D01*
X263281Y404398D01*
X263387Y404463D01*
X263491Y404531D01*
X263592Y404603D01*
X263692Y404677D01*
X263788Y404755D01*
X263883Y404835D01*
X263975Y404919D01*
X264064Y405005D01*
X264150Y405094D01*
X264234Y405186D01*
X264314Y405281D01*
X264392Y405377D01*
X264466Y405477D01*
X264538Y405578D01*
X264606Y405682D01*
X264671Y405788D01*
X264732Y405896D01*
X264790Y406005D01*
X264845Y406117D01*
X264896Y406230D01*
X264944Y406345D01*
X264987Y406461D01*
X265028Y406578D01*
X265064Y406697D01*
X265097Y406816D01*
X265126Y406937D01*
X265151Y407059D01*
X265172Y407181D01*
X265190Y407304D01*
X265203Y407427D01*
X265213Y407551D01*
X265219Y407675D01*
X265221Y407799D01*
X265221Y409775D01*
X265219Y409899D01*
X265213Y410023D01*
X265203Y410147D01*
X265190Y410270D01*
X265172Y410393D01*
X265151Y410515D01*
X265126Y410637D01*
X265097Y410758D01*
X265064Y410877D01*
X265028Y410996D01*
X264987Y411113D01*
X264944Y411229D01*
X264896Y411344D01*
X264845Y411457D01*
X264790Y411569D01*
X264732Y411678D01*
X264671Y411786D01*
X264606Y411892D01*
X264538Y411996D01*
X264466Y412097D01*
X264392Y412197D01*
X264314Y412293D01*
X264234Y412388D01*
X264150Y412480D01*
X264064Y412569D01*
X263975Y412655D01*
X263883Y412739D01*
X263788Y412819D01*
X263692Y412897D01*
X263592Y412971D01*
X263491Y413043D01*
X263387Y413111D01*
X263281Y413176D01*
X263173Y413237D01*
X263064Y413295D01*
X262952Y413350D01*
X262839Y413401D01*
X262724Y413449D01*
X262608Y413492D01*
X262491Y413533D01*
X262372Y413569D01*
X262253Y413602D01*
X262132Y413631D01*
X262010Y413656D01*
X261888Y413677D01*
X261765Y413695D01*
X261642Y413708D01*
X261518Y413718D01*
X261394Y413724D01*
X261270Y413726D01*
X255343Y413726D01*
X255343Y421628D01*
X265221Y421628D01*
X343760Y269352D02*
X343760Y251572D01*
X343760Y261450D02*
X353638Y261450D01*
X353638Y269352D02*
X353638Y251572D01*
X361069Y260462D02*
X361073Y260812D01*
X361086Y261161D01*
X361107Y261510D01*
X361136Y261859D01*
X361173Y262207D01*
X361219Y262554D01*
X361273Y262899D01*
X361335Y263243D01*
X361406Y263586D01*
X361485Y263927D01*
X361571Y264266D01*
X361666Y264602D01*
X361769Y264937D01*
X361880Y265268D01*
X361998Y265598D01*
X362125Y265924D01*
X362259Y266247D01*
X362401Y266566D01*
X362551Y266883D01*
X362551Y266882D02*
X362591Y266995D01*
X362635Y267105D01*
X362683Y267215D01*
X362734Y267323D01*
X362789Y267428D01*
X362847Y267533D01*
X362909Y267635D01*
X362974Y267735D01*
X363042Y267833D01*
X363113Y267929D01*
X363188Y268022D01*
X363265Y268113D01*
X363345Y268201D01*
X363429Y268286D01*
X363514Y268369D01*
X363603Y268449D01*
X363694Y268526D01*
X363788Y268600D01*
X363884Y268671D01*
X363982Y268739D01*
X364082Y268803D01*
X364185Y268865D01*
X364289Y268922D01*
X364395Y268977D01*
X364503Y269028D01*
X364613Y269075D01*
X364724Y269119D01*
X364836Y269159D01*
X364950Y269195D01*
X365064Y269228D01*
X365180Y269257D01*
X365297Y269282D01*
X365414Y269303D01*
X365532Y269321D01*
X365651Y269334D01*
X365770Y269344D01*
X365889Y269350D01*
X366008Y269352D01*
X366127Y269350D01*
X366246Y269344D01*
X366365Y269334D01*
X366484Y269321D01*
X366602Y269303D01*
X366719Y269282D01*
X366836Y269257D01*
X366952Y269228D01*
X367066Y269195D01*
X367180Y269159D01*
X367292Y269119D01*
X367403Y269075D01*
X367513Y269028D01*
X367621Y268977D01*
X367727Y268922D01*
X367831Y268865D01*
X367934Y268803D01*
X368034Y268739D01*
X368132Y268671D01*
X368228Y268600D01*
X368322Y268526D01*
X368413Y268449D01*
X368502Y268369D01*
X368588Y268286D01*
X368671Y268201D01*
X368751Y268113D01*
X368828Y268022D01*
X368903Y267929D01*
X368974Y267833D01*
X369042Y267735D01*
X369107Y267635D01*
X369169Y267533D01*
X369227Y267428D01*
X369282Y267322D01*
X369333Y267215D01*
X369381Y267105D01*
X369425Y266995D01*
X369465Y266882D01*
X369465Y266883D02*
X369615Y266566D01*
X369757Y266247D01*
X369891Y265924D01*
X370018Y265598D01*
X370136Y265268D01*
X370247Y264937D01*
X370350Y264602D01*
X370445Y264266D01*
X370531Y263927D01*
X370610Y263586D01*
X370681Y263243D01*
X370743Y262899D01*
X370797Y262554D01*
X370843Y262207D01*
X370880Y261859D01*
X370909Y261510D01*
X370930Y261161D01*
X370943Y260812D01*
X370947Y260462D01*
X361069Y260462D02*
X361073Y260112D01*
X361086Y259763D01*
X361107Y259414D01*
X361136Y259065D01*
X361173Y258717D01*
X361219Y258370D01*
X361273Y258025D01*
X361335Y257681D01*
X361406Y257338D01*
X361485Y256997D01*
X361571Y256658D01*
X361666Y256322D01*
X361769Y255987D01*
X361880Y255656D01*
X361998Y255327D01*
X362125Y255000D01*
X362259Y254677D01*
X362401Y254358D01*
X362551Y254042D01*
X362591Y253929D01*
X362635Y253819D01*
X362683Y253709D01*
X362734Y253601D01*
X362789Y253495D01*
X362847Y253391D01*
X362909Y253289D01*
X362974Y253189D01*
X363042Y253091D01*
X363113Y252995D01*
X363188Y252902D01*
X363265Y252811D01*
X363345Y252723D01*
X363429Y252638D01*
X363514Y252555D01*
X363603Y252475D01*
X363694Y252398D01*
X363788Y252324D01*
X363884Y252253D01*
X363982Y252185D01*
X364082Y252121D01*
X364185Y252059D01*
X364289Y252001D01*
X364395Y251947D01*
X364503Y251896D01*
X364613Y251849D01*
X364724Y251805D01*
X364836Y251765D01*
X364950Y251729D01*
X365064Y251696D01*
X365180Y251667D01*
X365297Y251642D01*
X365414Y251621D01*
X365532Y251603D01*
X365651Y251590D01*
X365770Y251580D01*
X365889Y251574D01*
X366008Y251572D01*
X369465Y254042D02*
X369615Y254358D01*
X369757Y254677D01*
X369891Y255000D01*
X370018Y255327D01*
X370136Y255656D01*
X370247Y255987D01*
X370350Y256322D01*
X370445Y256658D01*
X370531Y256997D01*
X370610Y257338D01*
X370681Y257681D01*
X370743Y258025D01*
X370797Y258370D01*
X370843Y258717D01*
X370880Y259065D01*
X370909Y259414D01*
X370930Y259763D01*
X370943Y260112D01*
X370947Y260462D01*
X369465Y254042D02*
X369425Y253929D01*
X369381Y253819D01*
X369333Y253709D01*
X369282Y253602D01*
X369227Y253496D01*
X369169Y253391D01*
X369107Y253289D01*
X369042Y253189D01*
X368974Y253091D01*
X368903Y252995D01*
X368828Y252902D01*
X368751Y252811D01*
X368671Y252723D01*
X368588Y252638D01*
X368502Y252555D01*
X368413Y252475D01*
X368322Y252398D01*
X368228Y252324D01*
X368132Y252253D01*
X368034Y252185D01*
X367934Y252121D01*
X367831Y252059D01*
X367727Y252002D01*
X367621Y251947D01*
X367513Y251896D01*
X367403Y251849D01*
X367292Y251805D01*
X367180Y251765D01*
X367066Y251729D01*
X366952Y251696D01*
X366836Y251667D01*
X366719Y251642D01*
X366602Y251621D01*
X366484Y251603D01*
X366365Y251590D01*
X366246Y251580D01*
X366127Y251574D01*
X366008Y251572D01*
X362057Y255523D02*
X369959Y265401D01*
X378407Y269352D02*
X378407Y251572D01*
X378407Y269352D02*
X386309Y269352D01*
X386309Y261450D02*
X378407Y261450D01*
X392980Y269352D02*
X392980Y251572D01*
X392980Y269352D02*
X397919Y269352D01*
X398059Y269350D01*
X398198Y269344D01*
X398338Y269334D01*
X398477Y269320D01*
X398616Y269303D01*
X398754Y269281D01*
X398891Y269255D01*
X399028Y269226D01*
X399164Y269193D01*
X399298Y269156D01*
X399432Y269115D01*
X399564Y269070D01*
X399696Y269021D01*
X399825Y268969D01*
X399953Y268914D01*
X400080Y268854D01*
X400205Y268791D01*
X400328Y268725D01*
X400449Y268655D01*
X400568Y268582D01*
X400685Y268505D01*
X400799Y268425D01*
X400912Y268342D01*
X401022Y268256D01*
X401129Y268166D01*
X401234Y268074D01*
X401336Y267979D01*
X401436Y267881D01*
X401533Y267780D01*
X401627Y267676D01*
X401717Y267570D01*
X401805Y267461D01*
X401890Y267350D01*
X401971Y267236D01*
X402050Y267121D01*
X402125Y267003D01*
X402196Y266883D01*
X402264Y266760D01*
X402329Y266637D01*
X402390Y266511D01*
X402448Y266383D01*
X402502Y266255D01*
X402552Y266124D01*
X402599Y265992D01*
X402642Y265859D01*
X402681Y265725D01*
X402716Y265590D01*
X402747Y265454D01*
X402775Y265316D01*
X402798Y265179D01*
X402818Y265040D01*
X402834Y264901D01*
X402846Y264762D01*
X402854Y264623D01*
X402858Y264483D01*
X402858Y264343D01*
X402854Y264203D01*
X402846Y264064D01*
X402834Y263925D01*
X402818Y263786D01*
X402798Y263647D01*
X402775Y263510D01*
X402747Y263372D01*
X402716Y263236D01*
X402681Y263101D01*
X402642Y262967D01*
X402599Y262834D01*
X402552Y262702D01*
X402502Y262571D01*
X402448Y262443D01*
X402390Y262315D01*
X402329Y262189D01*
X402264Y262066D01*
X402196Y261944D01*
X402125Y261823D01*
X402050Y261705D01*
X401971Y261590D01*
X401890Y261476D01*
X401805Y261365D01*
X401717Y261256D01*
X401627Y261150D01*
X401533Y261046D01*
X401436Y260945D01*
X401336Y260847D01*
X401234Y260752D01*
X401129Y260660D01*
X401022Y260570D01*
X400912Y260484D01*
X400799Y260401D01*
X400685Y260321D01*
X400568Y260244D01*
X400449Y260171D01*
X400328Y260101D01*
X400205Y260035D01*
X400080Y259972D01*
X399953Y259912D01*
X399825Y259857D01*
X399696Y259805D01*
X399564Y259756D01*
X399432Y259711D01*
X399298Y259670D01*
X399164Y259633D01*
X399028Y259600D01*
X398891Y259571D01*
X398754Y259545D01*
X398616Y259523D01*
X398477Y259506D01*
X398338Y259492D01*
X398198Y259482D01*
X398059Y259476D01*
X397919Y259474D01*
X392980Y259474D01*
X398907Y259474D02*
X402858Y251572D01*
X409645Y267376D02*
X409645Y269352D01*
X419523Y269352D01*
X414584Y251572D01*
X426396Y265401D02*
X431335Y269352D01*
X431335Y251572D01*
X426396Y251572D02*
X436274Y251572D01*
D12*
X313784Y229286D03*
D13*
X313268Y229433D03*
D14*
X312679Y229580D03*
D15*
X312237Y229728D03*
D16*
X311722Y229875D03*
D17*
X311280Y230022D03*
D18*
X310690Y230170D03*
D19*
X310175Y230317D03*
D20*
X309733Y230464D03*
D21*
X309291Y230612D03*
D22*
X309217Y230759D03*
D23*
X309291Y230906D03*
D24*
X309364Y231054D03*
D25*
X309291Y231201D03*
D26*
X309364Y231348D03*
D27*
X309364Y231496D03*
D28*
X309438Y231643D03*
X309438Y231790D03*
D29*
X309438Y231938D03*
D30*
X309512Y232085D03*
D31*
X309512Y232232D03*
X309512Y232380D03*
D32*
X309585Y232527D03*
D33*
X309585Y232674D03*
D34*
X309659Y232821D03*
D35*
X309585Y232969D03*
D36*
X309659Y233116D03*
D37*
X309733Y233263D03*
D38*
X309733Y233411D03*
X309733Y233558D03*
D39*
X309806Y233705D03*
D40*
X309806Y233853D03*
D41*
X309880Y234000D03*
D42*
X309806Y234147D03*
D43*
X309880Y234295D03*
D44*
X309954Y234442D03*
D45*
X309954Y234589D03*
X309954Y234737D03*
D46*
X309954Y234884D03*
D47*
X310027Y235031D03*
X310027Y235179D03*
D48*
X310027Y235326D03*
D49*
X310101Y235473D03*
D50*
X310101Y235621D03*
X310101Y235768D03*
D51*
X310175Y235915D03*
D52*
X310175Y236063D03*
D53*
X310248Y236210D03*
D54*
X310175Y236357D03*
D55*
X310248Y236504D03*
D56*
X310322Y236652D03*
D57*
X330799Y236652D03*
D58*
X310322Y236799D03*
D59*
X330210Y236799D03*
D58*
X310322Y236946D03*
D60*
X329768Y236946D03*
D61*
X310322Y237094D03*
D62*
X329253Y237094D03*
D63*
X310396Y237241D03*
D64*
X328811Y237241D03*
D63*
X310396Y237388D03*
D65*
X328221Y237388D03*
D66*
X310322Y237536D03*
D67*
X327779Y237536D03*
D66*
X310322Y237683D03*
D68*
X327264Y237683D03*
D63*
X310248Y237830D03*
D69*
X326822Y237830D03*
D66*
X310175Y237978D03*
D21*
X326674Y237978D03*
D66*
X310175Y238125D03*
D23*
X326674Y238125D03*
D66*
X310027Y238272D03*
D24*
X326748Y238272D03*
D66*
X310027Y238420D03*
D25*
X326822Y238420D03*
D63*
X309954Y238567D03*
D26*
X326748Y238567D03*
D66*
X309880Y238714D03*
D70*
X326822Y238714D03*
D66*
X309880Y238862D03*
D28*
X326822Y238862D03*
D66*
X309733Y239009D03*
D71*
X326895Y239009D03*
D66*
X309733Y239156D03*
D71*
X326895Y239156D03*
D63*
X309659Y239304D03*
D30*
X326895Y239304D03*
D66*
X309585Y239451D03*
D72*
X326969Y239451D03*
D66*
X309585Y239598D03*
D32*
X326969Y239598D03*
D66*
X309438Y239746D03*
D32*
X326969Y239746D03*
D66*
X309438Y239893D03*
D73*
X327043Y239893D03*
D63*
X309364Y240040D03*
D34*
X327043Y240040D03*
D61*
X309438Y240187D03*
D35*
X327116Y240187D03*
D61*
X309438Y240335D03*
D36*
X327043Y240335D03*
D74*
X309438Y240482D03*
D75*
X327116Y240482D03*
D76*
X309512Y240629D03*
D77*
X327190Y240629D03*
D55*
X309512Y240777D03*
D78*
X327190Y240777D03*
D55*
X309512Y240924D03*
D78*
X327190Y240924D03*
D54*
X309585Y241071D03*
D79*
X327264Y241071D03*
D52*
X309585Y241219D03*
D41*
X327264Y241219D03*
D80*
X309659Y241366D03*
D41*
X327264Y241366D03*
D51*
X309585Y241513D03*
D43*
X327264Y241513D03*
D81*
X309659Y241661D03*
D44*
X327337Y241661D03*
D82*
X309733Y241808D03*
D83*
X327411Y241808D03*
D48*
X309733Y241955D03*
D84*
X327337Y241955D03*
D48*
X309733Y242103D03*
D85*
X327411Y242103D03*
D86*
X309806Y242250D03*
D47*
X327411Y242250D03*
D46*
X309806Y242397D03*
D86*
X327485Y242397D03*
D46*
X309806Y242545D03*
D86*
X327485Y242545D03*
D84*
X309806Y242692D03*
D49*
X327485Y242692D03*
D87*
X309880Y242839D03*
D82*
X327558Y242839D03*
D44*
X309954Y242987D03*
D51*
X327558Y242987D03*
D43*
X309880Y243134D03*
D51*
X327558Y243134D03*
D42*
X309954Y243281D03*
D80*
X327632Y243281D03*
D40*
X309954Y243429D03*
D53*
X327632Y243429D03*
D79*
X310027Y243576D03*
D54*
X327706Y243576D03*
D79*
X310027Y243723D03*
D55*
X327632Y243723D03*
D88*
X310027Y243870D03*
D89*
X327706Y243870D03*
D77*
X310101Y244018D03*
D76*
X327779Y244018D03*
D36*
X310101Y244165D03*
D90*
X327779Y244165D03*
D36*
X310101Y244312D03*
D90*
X327779Y244312D03*
D35*
X310175Y244460D03*
D63*
X327779Y244460D03*
D33*
X310175Y244607D03*
D66*
X327853Y244607D03*
D73*
X310248Y244754D03*
D63*
X327779Y244754D03*
D32*
X310175Y244902D03*
D66*
X327706Y244902D03*
D91*
X310248Y245049D03*
D66*
X327706Y245049D03*
D92*
X310322Y245196D03*
D63*
X327632Y245196D03*
D29*
X310322Y245344D03*
D66*
X327558Y245344D03*
D29*
X310322Y245491D03*
D66*
X327558Y245491D03*
D71*
X310396Y245638D03*
D66*
X327411Y245638D03*
D27*
X310396Y245786D03*
D66*
X327411Y245786D03*
D70*
X310469Y245933D03*
D63*
X327337Y245933D03*
D93*
X310396Y246080D03*
D66*
X327264Y246080D03*
D25*
X310469Y246228D03*
D66*
X327264Y246228D03*
D24*
X310543Y246375D03*
D66*
X327116Y246375D03*
D23*
X310469Y246522D03*
D66*
X327116Y246522D03*
D22*
X310543Y246670D03*
D63*
X327043Y246670D03*
D69*
X310469Y246817D03*
D66*
X326969Y246817D03*
D94*
X309954Y246964D03*
D66*
X326969Y246964D03*
D67*
X309364Y247112D03*
D66*
X326822Y247112D03*
D65*
X308922Y247259D03*
D66*
X326822Y247259D03*
D95*
X308407Y247406D03*
D61*
X326822Y247406D03*
D96*
X307965Y247553D03*
D90*
X326895Y247553D03*
D60*
X307376Y247701D03*
D90*
X326895Y247701D03*
D97*
X306860Y247848D03*
D98*
X326895Y247848D03*
D99*
X306418Y247995D03*
D56*
X326969Y247995D03*
D100*
X316215Y248143D03*
D55*
X326895Y248143D03*
D101*
X315699Y248290D03*
D54*
X326969Y248290D03*
D14*
X315184Y248437D03*
D53*
X327043Y248437D03*
D102*
X314668Y248585D03*
D80*
X327043Y248585D03*
D16*
X314226Y248732D03*
D80*
X327043Y248732D03*
D103*
X313710Y248879D03*
D81*
X327043Y248879D03*
D18*
X313195Y249027D03*
D104*
X327116Y249027D03*
D19*
X312679Y249174D03*
D49*
X327190Y249174D03*
D105*
X312163Y249321D03*
D48*
X327116Y249321D03*
D106*
X311722Y249469D03*
D86*
X327190Y249469D03*
D22*
X311722Y249616D03*
D47*
X327264Y249616D03*
D23*
X311795Y249763D03*
D85*
X327264Y249763D03*
D24*
X311869Y249911D03*
D85*
X327264Y249911D03*
D25*
X311795Y250058D03*
D87*
X327264Y250058D03*
D26*
X311869Y250205D03*
D44*
X327337Y250205D03*
D107*
X311869Y250353D03*
D43*
X327411Y250353D03*
D28*
X311943Y250500D03*
D42*
X327337Y250500D03*
D28*
X311943Y250647D03*
D41*
X327411Y250647D03*
D29*
X311942Y250795D03*
D79*
X327411Y250795D03*
D30*
X312016Y250942D03*
D39*
X327485Y250942D03*
D31*
X312016Y251089D03*
D39*
X327485Y251089D03*
D31*
X312016Y251236D03*
D108*
X327485Y251236D03*
D32*
X312090Y251384D03*
D75*
X327558Y251384D03*
D33*
X312090Y251531D03*
D35*
X327558Y251531D03*
D34*
X312163Y251678D03*
D35*
X327558Y251678D03*
X312090Y251826D03*
D34*
X327632Y251826D03*
D36*
X312163Y251973D03*
D73*
X327632Y251973D03*
D75*
X312237Y252120D03*
D73*
X327632Y252120D03*
D38*
X312237Y252268D03*
D91*
X327632Y252268D03*
D38*
X312237Y252415D03*
D72*
X327706Y252415D03*
D79*
X312237Y252562D03*
D30*
X327779Y252562D03*
D40*
X312311Y252710D03*
D29*
X327706Y252710D03*
D41*
X312384Y252857D03*
D71*
X327779Y252857D03*
D42*
X312311Y253004D03*
D27*
X327779Y253004D03*
D43*
X312384Y253152D03*
D109*
X327853Y253152D03*
D87*
X312384Y253299D03*
D109*
X327853Y253299D03*
D45*
X312458Y253446D03*
D25*
X327853Y253446D03*
D45*
X312458Y253594D03*
D24*
X327927Y253594D03*
D46*
X312458Y253741D03*
D23*
X328000Y253741D03*
D47*
X312532Y253888D03*
D22*
X327927Y253888D03*
D47*
X312532Y254036D03*
D106*
X327927Y254036D03*
D48*
X312532Y254183D03*
D110*
X327485Y254183D03*
D49*
X312605Y254330D03*
D111*
X326969Y254330D03*
D50*
X312605Y254478D03*
D18*
X326454Y254478D03*
D50*
X312605Y254625D03*
D112*
X325938Y254625D03*
D51*
X312679Y254772D03*
D113*
X325496Y254772D03*
D52*
X312679Y254919D03*
D114*
X324980Y254919D03*
D53*
X312753Y255067D03*
D14*
X324465Y255067D03*
D54*
X312679Y255214D03*
D115*
X323949Y255214D03*
D55*
X312753Y255361D03*
D12*
X323507Y255361D03*
D56*
X312826Y255509D03*
D58*
X312826Y255656D03*
X312826Y255803D03*
D61*
X312826Y255951D03*
D63*
X312900Y256098D03*
X312900Y256245D03*
D66*
X312826Y256393D03*
X312826Y256540D03*
X312679Y256687D03*
X312679Y256835D03*
D63*
X312605Y256982D03*
D66*
X312532Y257129D03*
X312532Y257277D03*
X312384Y257424D03*
X312384Y257571D03*
D63*
X312311Y257719D03*
D66*
X312237Y257866D03*
X312237Y258013D03*
D63*
X312163Y258161D03*
D66*
X312090Y258308D03*
X312090Y258455D03*
X311942Y258602D03*
X311942Y258750D03*
D63*
X311869Y258897D03*
D61*
X311942Y259044D03*
X311942Y259192D03*
D74*
X311942Y259339D03*
D76*
X312016Y259486D03*
D55*
X312016Y259634D03*
X312016Y259781D03*
D54*
X312090Y259928D03*
D52*
X312090Y260076D03*
D80*
X312163Y260223D03*
D51*
X312090Y260370D03*
D81*
X312163Y260518D03*
D82*
X312237Y260665D03*
D116*
X312163Y260812D03*
D48*
X312237Y260960D03*
D47*
X312237Y261107D03*
D46*
X312311Y261254D03*
X312311Y261402D03*
D84*
X312311Y261549D03*
D87*
X312384Y261696D03*
D43*
X312384Y261844D03*
X312384Y261991D03*
D42*
X312458Y262138D03*
D40*
X312458Y262285D03*
D79*
X312532Y262433D03*
X312532Y262580D03*
D88*
X312532Y262727D03*
D77*
X312605Y262875D03*
D36*
X312605Y263022D03*
X312605Y263169D03*
D35*
X312679Y263317D03*
D33*
X312679Y263464D03*
D73*
X312753Y263611D03*
D32*
X312679Y263759D03*
D91*
X312753Y263906D03*
D92*
X312826Y264053D03*
D29*
X312826Y264201D03*
X312826Y264348D03*
D28*
X312826Y264495D03*
D27*
X312900Y264643D03*
D70*
X312974Y264790D03*
D93*
X312900Y264937D03*
D25*
X312974Y265085D03*
D23*
X312974Y265232D03*
X312974Y265379D03*
D22*
X313047Y265527D03*
D117*
X312900Y265674D03*
D118*
X312384Y265821D03*
D67*
X311869Y265968D03*
D119*
X311353Y266116D03*
D95*
X310911Y266263D03*
D120*
X310396Y266410D03*
D60*
X309880Y266558D03*
D97*
X309364Y266705D03*
D121*
X308849Y266852D03*
D11*
X437618Y478997D02*
X437699Y479046D01*
X437778Y479098D01*
X437854Y479154D01*
X437928Y479212D01*
X438000Y479274D01*
X438069Y479338D01*
X438135Y479406D01*
X438199Y479476D01*
X438259Y479548D01*
X438317Y479623D01*
X438371Y479700D01*
X438422Y479780D01*
X438470Y479861D01*
X438515Y479945D01*
X438556Y480030D01*
X438593Y480117D01*
X438627Y480205D01*
X438657Y480295D01*
X438683Y480385D01*
X438706Y480477D01*
X438724Y480570D01*
X438739Y480663D01*
X438750Y480757D01*
X438758Y480851D01*
X438761Y480946D01*
X438760Y481040D01*
X438756Y481134D01*
X438747Y481229D01*
X438735Y481322D01*
X438719Y481415D01*
X438699Y481508D01*
X438675Y481599D01*
X438647Y481689D01*
X438616Y481779D01*
X438581Y481866D01*
X438542Y481953D01*
X438500Y482037D01*
X438455Y482120D01*
X438454Y482120D02*
X438400Y482210D01*
X438342Y482298D01*
X438282Y482385D01*
X438218Y482469D01*
X438151Y482550D01*
X438081Y482630D01*
X438009Y482706D01*
X437934Y482780D01*
X437856Y482852D01*
X437776Y482920D01*
X437693Y482986D01*
X437608Y483048D01*
X437521Y483108D01*
X437431Y483164D01*
X437340Y483217D01*
X437247Y483266D01*
X437152Y483313D01*
X437056Y483356D01*
X436958Y483395D01*
X436859Y483431D01*
X436758Y483463D01*
X436657Y483492D01*
X436554Y483517D01*
X436451Y483538D01*
X436347Y483555D01*
X436242Y483569D01*
X436137Y483579D01*
X436032Y483586D01*
X435926Y483588D01*
X435821Y483587D01*
X435715Y483581D01*
X435610Y483573D01*
X435505Y483560D01*
X435401Y483543D01*
X435298Y483523D01*
X435697Y478768D02*
X435788Y478743D01*
X435880Y478721D01*
X435973Y478704D01*
X436067Y478689D01*
X436161Y478679D01*
X436255Y478672D01*
X436350Y478668D01*
X436445Y478669D01*
X436539Y478673D01*
X436634Y478680D01*
X436728Y478691D01*
X436821Y478706D01*
X436914Y478725D01*
X437006Y478747D01*
X437097Y478772D01*
X437187Y478801D01*
X437276Y478834D01*
X437364Y478869D01*
X437450Y478909D01*
X437535Y478951D01*
X437617Y478997D01*
X435697Y478768D02*
X429139Y479967D01*
X431679Y475568D01*
X437669Y474334D02*
X437826Y474423D01*
X437985Y474507D01*
X438146Y474587D01*
X438309Y474664D01*
X438473Y474737D01*
X438640Y474806D01*
X438807Y474870D01*
X438977Y474931D01*
X439148Y474988D01*
X439320Y475040D01*
X439493Y475089D01*
X439667Y475133D01*
X439842Y475173D01*
X440019Y475209D01*
X440196Y475241D01*
X440374Y475269D01*
X440552Y475292D01*
X440731Y475311D01*
X440910Y475326D01*
X440911Y475326D02*
X440993Y475340D01*
X441076Y475351D01*
X441159Y475358D01*
X441242Y475361D01*
X441325Y475360D01*
X441408Y475356D01*
X441491Y475348D01*
X441574Y475337D01*
X441656Y475321D01*
X441737Y475303D01*
X441817Y475280D01*
X441896Y475254D01*
X441974Y475225D01*
X442050Y475192D01*
X442126Y475156D01*
X442199Y475117D01*
X442270Y475074D01*
X442340Y475028D01*
X442407Y474979D01*
X442473Y474928D01*
X442536Y474873D01*
X442596Y474816D01*
X442654Y474756D01*
X442709Y474693D01*
X442761Y474628D01*
X442811Y474561D01*
X442857Y474492D01*
X442900Y474421D01*
X442940Y474348D01*
X442977Y474273D01*
X443010Y474197D01*
X443040Y474119D01*
X443067Y474040D01*
X443090Y473960D01*
X443109Y473879D01*
X443125Y473798D01*
X443137Y473715D01*
X443146Y473632D01*
X443151Y473549D01*
X443152Y473466D01*
X443149Y473383D01*
X443143Y473300D01*
X443133Y473217D01*
X443120Y473135D01*
X443103Y473053D01*
X443082Y472973D01*
X443058Y472893D01*
X443030Y472814D01*
X442999Y472737D01*
X442964Y472661D01*
X442926Y472587D01*
X442885Y472515D01*
X442840Y472444D01*
X442793Y472376D01*
X442743Y472310D01*
X442689Y472246D01*
X442688Y472246D02*
X442586Y472098D01*
X442480Y471953D01*
X442370Y471810D01*
X442258Y471670D01*
X442142Y471533D01*
X442022Y471398D01*
X441900Y471266D01*
X441774Y471137D01*
X441646Y471012D01*
X441514Y470889D01*
X441380Y470769D01*
X441242Y470653D01*
X441102Y470540D01*
X440960Y470431D01*
X440815Y470324D01*
X440667Y470222D01*
X440517Y470123D01*
X440364Y470027D01*
X440210Y469936D01*
X437670Y474335D02*
X437515Y474243D01*
X437363Y474147D01*
X437213Y474048D01*
X437065Y473946D01*
X436920Y473840D01*
X436777Y473730D01*
X436637Y473617D01*
X436500Y473501D01*
X436365Y473381D01*
X436234Y473259D01*
X436105Y473133D01*
X435980Y473004D01*
X435857Y472872D01*
X435738Y472738D01*
X435622Y472600D01*
X435509Y472460D01*
X435400Y472317D01*
X435294Y472172D01*
X435192Y472024D01*
X435191Y472024D02*
X435137Y471960D01*
X435087Y471894D01*
X435040Y471826D01*
X434995Y471755D01*
X434954Y471683D01*
X434916Y471609D01*
X434881Y471533D01*
X434850Y471456D01*
X434822Y471377D01*
X434798Y471297D01*
X434777Y471217D01*
X434760Y471135D01*
X434747Y471053D01*
X434737Y470970D01*
X434731Y470887D01*
X434728Y470804D01*
X434729Y470721D01*
X434734Y470638D01*
X434743Y470555D01*
X434755Y470472D01*
X434771Y470391D01*
X434790Y470310D01*
X434813Y470230D01*
X434840Y470151D01*
X434870Y470073D01*
X434903Y469997D01*
X434940Y469922D01*
X434980Y469849D01*
X436969Y468944D02*
X437149Y468959D01*
X437327Y468978D01*
X437506Y469001D01*
X437684Y469029D01*
X437861Y469061D01*
X438037Y469097D01*
X438212Y469137D01*
X438387Y469181D01*
X438560Y469230D01*
X438732Y469282D01*
X438903Y469339D01*
X439072Y469400D01*
X439240Y469465D01*
X439406Y469533D01*
X439570Y469606D01*
X439733Y469683D01*
X439894Y469763D01*
X440053Y469847D01*
X440210Y469936D01*
X436969Y468944D02*
X436887Y468930D01*
X436804Y468919D01*
X436721Y468912D01*
X436638Y468909D01*
X436555Y468910D01*
X436472Y468914D01*
X436389Y468922D01*
X436306Y468933D01*
X436225Y468949D01*
X436143Y468967D01*
X436063Y468990D01*
X435984Y469016D01*
X435906Y469045D01*
X435830Y469078D01*
X435754Y469114D01*
X435681Y469153D01*
X435610Y469196D01*
X435540Y469242D01*
X435473Y469291D01*
X435407Y469342D01*
X435344Y469397D01*
X435284Y469454D01*
X435226Y469514D01*
X435171Y469577D01*
X435119Y469642D01*
X435069Y469709D01*
X435023Y469778D01*
X434980Y469849D01*
X435724Y472625D02*
X442156Y471645D01*
X447471Y466502D02*
X438028Y464570D01*
X441076Y459290D02*
X447471Y466502D01*
X440389Y465053D02*
X442675Y461093D01*
X445496Y451635D02*
X450775Y454683D01*
X453061Y450724D01*
X453098Y450656D01*
X453131Y450587D01*
X453161Y450515D01*
X453187Y450443D01*
X453210Y450369D01*
X453228Y450294D01*
X453243Y450218D01*
X453254Y450142D01*
X453262Y450065D01*
X453265Y449988D01*
X453264Y449911D01*
X453260Y449833D01*
X453251Y449757D01*
X453239Y449680D01*
X453223Y449605D01*
X453203Y449530D01*
X453179Y449457D01*
X453151Y449385D01*
X453120Y449314D01*
X453086Y449245D01*
X453048Y449178D01*
X453006Y449113D01*
X452962Y449050D01*
X452914Y448989D01*
X452863Y448931D01*
X452809Y448875D01*
X452753Y448823D01*
X452694Y448773D01*
X452633Y448726D01*
X452569Y448682D01*
X452503Y448642D01*
X448544Y446356D01*
X447020Y448996D02*
X452299Y452044D01*
X454670Y442857D02*
X455813Y440877D01*
X454671Y442857D02*
X454627Y442928D01*
X454581Y442997D01*
X454531Y443064D01*
X454478Y443129D01*
X454422Y443190D01*
X454363Y443250D01*
X454302Y443306D01*
X454238Y443359D01*
X454172Y443410D01*
X454103Y443457D01*
X454032Y443501D01*
X453959Y443541D01*
X453885Y443578D01*
X453808Y443612D01*
X453730Y443642D01*
X453651Y443668D01*
X453571Y443691D01*
X453490Y443709D01*
X453408Y443724D01*
X453325Y443735D01*
X453242Y443743D01*
X453159Y443746D01*
X453075Y443745D01*
X452992Y443741D01*
X452909Y443732D01*
X452827Y443720D01*
X452745Y443704D01*
X452664Y443684D01*
X452584Y443660D01*
X452506Y443632D01*
X452428Y443601D01*
X452352Y443566D01*
X452278Y443528D01*
X452206Y443487D01*
X452136Y443442D01*
X452068Y443393D01*
X452002Y443342D01*
X451939Y443287D01*
X451879Y443230D01*
X451821Y443170D01*
X451766Y443107D01*
X451714Y443042D01*
X451665Y442974D01*
X451620Y442905D01*
X451577Y442833D01*
X451539Y442759D01*
X451503Y442684D01*
X451472Y442606D01*
X451443Y442528D01*
X451419Y442448D01*
X451398Y442368D01*
X451382Y442286D01*
X451369Y442204D01*
X451360Y442121D01*
X451354Y442037D01*
X451353Y441954D01*
X451356Y441871D01*
X451362Y441788D01*
X451373Y441705D01*
X451387Y441623D01*
X451405Y441541D01*
X451427Y441461D01*
X451452Y441382D01*
X451482Y441304D01*
X451515Y441227D01*
X451551Y441152D01*
X451591Y441079D01*
X452734Y439099D01*
X456693Y441385D01*
X456759Y441425D01*
X456823Y441469D01*
X456884Y441516D01*
X456943Y441566D01*
X456999Y441618D01*
X457053Y441674D01*
X457104Y441732D01*
X457152Y441793D01*
X457196Y441856D01*
X457238Y441921D01*
X457276Y441988D01*
X457310Y442057D01*
X457341Y442128D01*
X457369Y442200D01*
X457393Y442273D01*
X457413Y442348D01*
X457429Y442423D01*
X457441Y442500D01*
X457450Y442576D01*
X457454Y442654D01*
X457455Y442731D01*
X457452Y442808D01*
X457444Y442885D01*
X457433Y442961D01*
X457418Y443037D01*
X457400Y443112D01*
X457377Y443186D01*
X457351Y443258D01*
X457321Y443330D01*
X457288Y443399D01*
X457251Y443467D01*
X456235Y445226D01*
X454691Y435709D02*
X462002Y435238D01*
X459970Y438757D02*
X456723Y432190D01*
X458323Y429418D02*
X458763Y429672D01*
X459017Y429232D01*
X458577Y428978D01*
X458323Y429418D01*
X229875Y437320D02*
X229385Y440536D01*
X237304Y435964D01*
X238574Y438163D02*
X236034Y433764D01*
X238406Y442953D02*
X238321Y443005D01*
X238237Y443060D01*
X238156Y443118D01*
X238078Y443179D01*
X238001Y443243D01*
X237928Y443311D01*
X237857Y443381D01*
X237788Y443453D01*
X237723Y443529D01*
X237661Y443607D01*
X237602Y443687D01*
X237546Y443770D01*
X237493Y443854D01*
X237444Y443941D01*
X237398Y444030D01*
X237356Y444120D01*
X237317Y444212D01*
X237282Y444305D01*
X237250Y444400D01*
X237223Y444496D01*
X237199Y444592D01*
X237179Y444690D01*
X237162Y444789D01*
X237150Y444888D01*
X237141Y444987D01*
X237137Y445087D01*
X237136Y445186D01*
X237139Y445286D01*
X237147Y445385D01*
X237158Y445485D01*
X237173Y445583D01*
X237192Y445681D01*
X237214Y445778D01*
X237241Y445874D01*
X237271Y445969D01*
X237305Y446063D01*
X237342Y446156D01*
X237383Y446246D01*
X237428Y446336D01*
X237476Y446423D01*
X237528Y446508D01*
X237583Y446592D01*
X237641Y446673D01*
X237702Y446751D01*
X237766Y446828D01*
X237834Y446901D01*
X237904Y446972D01*
X237976Y447041D01*
X238052Y447106D01*
X238130Y447168D01*
X238210Y447227D01*
X238293Y447283D01*
X238377Y447336D01*
X238464Y447385D01*
X238553Y447431D01*
X238643Y447473D01*
X238735Y447512D01*
X238828Y447547D01*
X238923Y447579D01*
X239019Y447606D01*
X239115Y447630D01*
X239213Y447650D01*
X239312Y447667D01*
X239410Y447679D01*
X239510Y447688D01*
X239610Y447692D01*
X239709Y447693D01*
X239809Y447690D01*
X239908Y447682D01*
X240008Y447671D01*
X240106Y447656D01*
X240204Y447637D01*
X240301Y447615D01*
X240397Y447588D01*
X240492Y447558D01*
X240586Y447524D01*
X240679Y447487D01*
X240769Y447446D01*
X240859Y447401D01*
X240946Y447353D01*
X241031Y447301D01*
X241115Y447246D01*
X241196Y447188D01*
X241274Y447127D01*
X241351Y447063D01*
X241424Y446995D01*
X241495Y446925D01*
X241564Y446853D01*
X241629Y446777D01*
X241691Y446699D01*
X241750Y446619D01*
X241806Y446536D01*
X241859Y446452D01*
X241908Y446365D01*
X241954Y446276D01*
X241996Y446186D01*
X242035Y446094D01*
X242070Y446001D01*
X242102Y445906D01*
X242129Y445810D01*
X242153Y445714D01*
X242173Y445616D01*
X242190Y445517D01*
X242202Y445419D01*
X242211Y445319D01*
X242215Y445219D01*
X242216Y445120D01*
X242213Y445020D01*
X242205Y444921D01*
X242194Y444821D01*
X242179Y444723D01*
X242160Y444625D01*
X242138Y444528D01*
X242111Y444432D01*
X242081Y444337D01*
X242047Y444243D01*
X242010Y444150D01*
X241969Y444060D01*
X241924Y443970D01*
X241876Y443883D01*
X241824Y443798D01*
X241769Y443714D01*
X241711Y443633D01*
X241650Y443555D01*
X241586Y443478D01*
X241518Y443405D01*
X241448Y443334D01*
X241376Y443265D01*
X241300Y443200D01*
X241222Y443138D01*
X241142Y443079D01*
X241059Y443023D01*
X240975Y442970D01*
X240888Y442921D01*
X240799Y442875D01*
X240709Y442833D01*
X240617Y442794D01*
X240524Y442759D01*
X240429Y442727D01*
X240333Y442700D01*
X240237Y442676D01*
X240139Y442656D01*
X240040Y442639D01*
X239941Y442627D01*
X239842Y442618D01*
X239742Y442614D01*
X239643Y442613D01*
X239543Y442616D01*
X239444Y442624D01*
X239344Y442635D01*
X239246Y442650D01*
X239148Y442669D01*
X239051Y442691D01*
X238955Y442718D01*
X238860Y442748D01*
X238766Y442782D01*
X238673Y442819D01*
X238582Y442860D01*
X238493Y442905D01*
X238406Y442953D01*
X234701Y445679D02*
X234625Y445725D01*
X234551Y445774D01*
X234480Y445827D01*
X234411Y445882D01*
X234344Y445941D01*
X234280Y446002D01*
X234219Y446066D01*
X234160Y446133D01*
X234105Y446202D01*
X234052Y446273D01*
X234003Y446347D01*
X233957Y446423D01*
X233915Y446501D01*
X233875Y446580D01*
X233840Y446661D01*
X233808Y446744D01*
X233779Y446828D01*
X233754Y446913D01*
X233733Y446999D01*
X233716Y447086D01*
X233702Y447174D01*
X233693Y447262D01*
X233687Y447350D01*
X233685Y447439D01*
X233687Y447528D01*
X233693Y447616D01*
X233702Y447704D01*
X233716Y447792D01*
X233733Y447879D01*
X233754Y447965D01*
X233779Y448050D01*
X233808Y448134D01*
X233840Y448217D01*
X233875Y448298D01*
X233915Y448377D01*
X233957Y448455D01*
X234003Y448531D01*
X234052Y448605D01*
X234105Y448676D01*
X234160Y448745D01*
X234219Y448812D01*
X234280Y448876D01*
X234344Y448937D01*
X234411Y448996D01*
X234480Y449051D01*
X234551Y449104D01*
X234625Y449153D01*
X234701Y449199D01*
X234779Y449241D01*
X234858Y449281D01*
X234939Y449316D01*
X235022Y449348D01*
X235106Y449377D01*
X235191Y449402D01*
X235277Y449423D01*
X235364Y449440D01*
X235452Y449454D01*
X235540Y449463D01*
X235628Y449469D01*
X235717Y449471D01*
X235806Y449469D01*
X235894Y449463D01*
X235982Y449454D01*
X236070Y449440D01*
X236157Y449423D01*
X236243Y449402D01*
X236328Y449377D01*
X236412Y449348D01*
X236495Y449316D01*
X236576Y449281D01*
X236655Y449241D01*
X236733Y449199D01*
X236809Y449153D01*
X236883Y449104D01*
X236954Y449051D01*
X237023Y448996D01*
X237090Y448937D01*
X237154Y448876D01*
X237215Y448812D01*
X237274Y448745D01*
X237329Y448676D01*
X237382Y448605D01*
X237431Y448531D01*
X237477Y448455D01*
X237519Y448377D01*
X237559Y448298D01*
X237594Y448217D01*
X237626Y448134D01*
X237655Y448050D01*
X237680Y447965D01*
X237701Y447879D01*
X237718Y447792D01*
X237732Y447704D01*
X237741Y447616D01*
X237747Y447528D01*
X237749Y447439D01*
X237747Y447350D01*
X237741Y447262D01*
X237732Y447174D01*
X237718Y447086D01*
X237701Y446999D01*
X237680Y446913D01*
X237655Y446828D01*
X237626Y446744D01*
X237594Y446661D01*
X237559Y446580D01*
X237519Y446501D01*
X237477Y446423D01*
X237431Y446347D01*
X237382Y446273D01*
X237329Y446202D01*
X237274Y446133D01*
X237215Y446066D01*
X237154Y446002D01*
X237090Y445941D01*
X237023Y445882D01*
X236954Y445827D01*
X236883Y445774D01*
X236809Y445725D01*
X236733Y445679D01*
X236655Y445637D01*
X236576Y445597D01*
X236495Y445562D01*
X236412Y445530D01*
X236328Y445501D01*
X236243Y445476D01*
X236157Y445455D01*
X236070Y445438D01*
X235982Y445424D01*
X235894Y445415D01*
X235806Y445409D01*
X235717Y445407D01*
X235628Y445409D01*
X235540Y445415D01*
X235452Y445424D01*
X235364Y445438D01*
X235277Y445455D01*
X235191Y445476D01*
X235106Y445501D01*
X235022Y445530D01*
X234939Y445562D01*
X234858Y445597D01*
X234779Y445637D01*
X234701Y445679D01*
X237005Y453734D02*
X246448Y451801D01*
X240053Y459013D01*
X247112Y465144D02*
X252392Y462096D01*
X247112Y465144D02*
X249398Y469103D01*
X249438Y469169D01*
X249482Y469233D01*
X249529Y469294D01*
X249579Y469353D01*
X249631Y469409D01*
X249687Y469463D01*
X249745Y469514D01*
X249806Y469562D01*
X249869Y469606D01*
X249934Y469648D01*
X250001Y469686D01*
X250070Y469720D01*
X250141Y469751D01*
X250213Y469779D01*
X250286Y469803D01*
X250361Y469823D01*
X250436Y469839D01*
X250513Y469851D01*
X250589Y469860D01*
X250667Y469864D01*
X250744Y469865D01*
X250821Y469862D01*
X250898Y469854D01*
X250974Y469843D01*
X251050Y469828D01*
X251125Y469810D01*
X251199Y469787D01*
X251271Y469761D01*
X251343Y469731D01*
X251412Y469698D01*
X251480Y469661D01*
X255440Y467375D01*
X253916Y464736D02*
X248636Y467784D01*
X255407Y474430D02*
X256550Y476410D01*
X255407Y474430D02*
X255367Y474357D01*
X255331Y474282D01*
X255298Y474205D01*
X255268Y474127D01*
X255243Y474048D01*
X255221Y473968D01*
X255203Y473886D01*
X255189Y473804D01*
X255178Y473721D01*
X255172Y473638D01*
X255169Y473555D01*
X255170Y473472D01*
X255176Y473388D01*
X255185Y473305D01*
X255198Y473223D01*
X255214Y473141D01*
X255235Y473061D01*
X255259Y472981D01*
X255288Y472903D01*
X255319Y472825D01*
X255355Y472750D01*
X255394Y472676D01*
X255436Y472604D01*
X255481Y472535D01*
X255530Y472467D01*
X255582Y472402D01*
X255637Y472339D01*
X255695Y472279D01*
X255755Y472222D01*
X255818Y472167D01*
X255884Y472116D01*
X255952Y472067D01*
X256022Y472022D01*
X256094Y471981D01*
X256168Y471943D01*
X256244Y471908D01*
X256322Y471877D01*
X256400Y471849D01*
X256480Y471825D01*
X256561Y471805D01*
X256643Y471789D01*
X256725Y471777D01*
X256808Y471768D01*
X256891Y471764D01*
X256975Y471763D01*
X257058Y471766D01*
X257141Y471774D01*
X257224Y471785D01*
X257306Y471800D01*
X257387Y471818D01*
X257467Y471841D01*
X257546Y471867D01*
X257624Y471897D01*
X257701Y471931D01*
X257775Y471968D01*
X257848Y472008D01*
X257919Y472052D01*
X257988Y472099D01*
X258054Y472150D01*
X258118Y472203D01*
X258179Y472259D01*
X258238Y472319D01*
X258294Y472380D01*
X258347Y472445D01*
X258397Y472512D01*
X258443Y472581D01*
X258487Y472652D01*
X258486Y472652D02*
X259629Y474632D01*
X255670Y476918D01*
X255602Y476955D01*
X255533Y476988D01*
X255461Y477018D01*
X255389Y477044D01*
X255315Y477067D01*
X255240Y477085D01*
X255164Y477100D01*
X255088Y477111D01*
X255011Y477119D01*
X254934Y477122D01*
X254857Y477121D01*
X254779Y477117D01*
X254703Y477108D01*
X254627Y477096D01*
X254551Y477080D01*
X254476Y477060D01*
X254403Y477036D01*
X254331Y477008D01*
X254260Y476977D01*
X254191Y476943D01*
X254124Y476905D01*
X254059Y476863D01*
X253996Y476819D01*
X253935Y476771D01*
X253877Y476720D01*
X253821Y476667D01*
X253769Y476610D01*
X253719Y476551D01*
X253672Y476490D01*
X253628Y476426D01*
X253588Y476360D01*
X252572Y474601D01*
X261586Y478022D02*
X258339Y484589D01*
X256307Y481070D02*
X263618Y481541D01*
X265218Y484313D02*
X264778Y484567D01*
X265032Y485007D01*
X265472Y484753D01*
X265218Y484313D01*
D122*
X279440Y247610D02*
X279440Y245110D01*
X279440Y242610D01*
X279440Y245110D02*
X284440Y247610D01*
X284440Y242610D02*
X279440Y245110D01*
X284440Y242610D02*
X284440Y247610D01*
X294440Y250110D02*
X294440Y240110D01*
X269440Y240110D01*
X269440Y250110D01*
X294440Y250110D01*
D123*
X280101Y253125D02*
X280101Y262523D01*
X282712Y262523D01*
X282812Y262521D01*
X282912Y262515D01*
X283011Y262506D01*
X283111Y262492D01*
X283209Y262475D01*
X283307Y262454D01*
X283404Y262430D01*
X283500Y262401D01*
X283595Y262369D01*
X283688Y262334D01*
X283780Y262295D01*
X283871Y262252D01*
X283959Y262206D01*
X284046Y262156D01*
X284131Y262104D01*
X284214Y262048D01*
X284295Y261989D01*
X284373Y261926D01*
X284449Y261861D01*
X284523Y261793D01*
X284593Y261723D01*
X284661Y261649D01*
X284726Y261573D01*
X284789Y261495D01*
X284848Y261414D01*
X284904Y261331D01*
X284956Y261246D01*
X285006Y261159D01*
X285052Y261071D01*
X285095Y260980D01*
X285134Y260888D01*
X285169Y260795D01*
X285201Y260700D01*
X285230Y260604D01*
X285254Y260507D01*
X285275Y260409D01*
X285292Y260311D01*
X285306Y260211D01*
X285315Y260112D01*
X285321Y260012D01*
X285323Y259912D01*
X285322Y259912D02*
X285322Y255736D01*
X285323Y255736D02*
X285321Y255636D01*
X285315Y255536D01*
X285306Y255437D01*
X285292Y255337D01*
X285275Y255239D01*
X285254Y255141D01*
X285230Y255044D01*
X285201Y254948D01*
X285169Y254853D01*
X285134Y254760D01*
X285095Y254668D01*
X285052Y254577D01*
X285006Y254489D01*
X284956Y254402D01*
X284904Y254317D01*
X284848Y254234D01*
X284789Y254153D01*
X284726Y254075D01*
X284661Y253999D01*
X284593Y253925D01*
X284523Y253855D01*
X284449Y253787D01*
X284373Y253722D01*
X284295Y253659D01*
X284214Y253600D01*
X284131Y253544D01*
X284046Y253492D01*
X283959Y253442D01*
X283871Y253396D01*
X283780Y253353D01*
X283688Y253314D01*
X283595Y253279D01*
X283500Y253247D01*
X283404Y253218D01*
X283307Y253194D01*
X283209Y253173D01*
X283111Y253156D01*
X283011Y253142D01*
X282912Y253133D01*
X282812Y253127D01*
X282712Y253125D01*
X280101Y253125D01*
X289550Y260435D02*
X292160Y262523D01*
X292160Y253125D01*
X289550Y253125D02*
X294771Y253125D01*
X450591Y324518D02*
X450591Y333916D01*
X454768Y333916D01*
X454768Y329739D02*
X450591Y329739D01*
X458630Y329739D02*
X461240Y329739D01*
X461240Y329740D02*
X461341Y329738D01*
X461442Y329732D01*
X461543Y329722D01*
X461643Y329709D01*
X461743Y329691D01*
X461842Y329670D01*
X461940Y329644D01*
X462037Y329615D01*
X462133Y329583D01*
X462227Y329546D01*
X462320Y329506D01*
X462412Y329462D01*
X462501Y329415D01*
X462589Y329364D01*
X462675Y329310D01*
X462758Y329253D01*
X462840Y329193D01*
X462918Y329129D01*
X462995Y329063D01*
X463068Y328993D01*
X463139Y328921D01*
X463207Y328846D01*
X463272Y328768D01*
X463334Y328688D01*
X463393Y328606D01*
X463449Y328521D01*
X463501Y328434D01*
X463550Y328346D01*
X463596Y328255D01*
X463637Y328163D01*
X463676Y328069D01*
X463710Y327974D01*
X463741Y327878D01*
X463768Y327780D01*
X463792Y327682D01*
X463811Y327582D01*
X463827Y327482D01*
X463839Y327382D01*
X463847Y327281D01*
X463851Y327180D01*
X463851Y327078D01*
X463847Y326977D01*
X463839Y326876D01*
X463827Y326776D01*
X463811Y326676D01*
X463792Y326576D01*
X463768Y326478D01*
X463741Y326380D01*
X463710Y326284D01*
X463676Y326189D01*
X463637Y326095D01*
X463596Y326003D01*
X463550Y325912D01*
X463501Y325824D01*
X463449Y325737D01*
X463393Y325652D01*
X463334Y325570D01*
X463272Y325490D01*
X463207Y325412D01*
X463139Y325337D01*
X463068Y325265D01*
X462995Y325195D01*
X462918Y325129D01*
X462840Y325065D01*
X462758Y325005D01*
X462675Y324948D01*
X462589Y324894D01*
X462501Y324843D01*
X462412Y324796D01*
X462320Y324752D01*
X462227Y324712D01*
X462133Y324675D01*
X462037Y324643D01*
X461940Y324614D01*
X461842Y324588D01*
X461743Y324567D01*
X461643Y324549D01*
X461543Y324536D01*
X461442Y324526D01*
X461341Y324520D01*
X461240Y324518D01*
X458630Y324518D01*
X458630Y333916D01*
X461240Y333916D01*
X461330Y333914D01*
X461419Y333908D01*
X461509Y333899D01*
X461598Y333885D01*
X461686Y333868D01*
X461773Y333847D01*
X461860Y333822D01*
X461945Y333793D01*
X462029Y333761D01*
X462111Y333726D01*
X462192Y333686D01*
X462271Y333644D01*
X462348Y333598D01*
X462423Y333548D01*
X462496Y333496D01*
X462567Y333440D01*
X462635Y333382D01*
X462700Y333320D01*
X462763Y333256D01*
X462823Y333189D01*
X462880Y333120D01*
X462934Y333048D01*
X462985Y332974D01*
X463033Y332898D01*
X463077Y332820D01*
X463118Y332740D01*
X463156Y332658D01*
X463190Y332575D01*
X463220Y332490D01*
X463247Y332404D01*
X463270Y332318D01*
X463289Y332230D01*
X463304Y332141D01*
X463316Y332052D01*
X463324Y331963D01*
X463328Y331873D01*
X463328Y331783D01*
X463324Y331693D01*
X463316Y331604D01*
X463304Y331515D01*
X463289Y331426D01*
X463270Y331338D01*
X463247Y331252D01*
X463220Y331166D01*
X463190Y331081D01*
X463156Y330998D01*
X463118Y330916D01*
X463077Y330836D01*
X463033Y330758D01*
X462985Y330682D01*
X462934Y330608D01*
X462880Y330536D01*
X462823Y330467D01*
X462763Y330400D01*
X462700Y330336D01*
X462635Y330274D01*
X462567Y330216D01*
X462496Y330160D01*
X462423Y330108D01*
X462348Y330058D01*
X462271Y330012D01*
X462192Y329970D01*
X462111Y329930D01*
X462029Y329895D01*
X461945Y329863D01*
X461860Y329834D01*
X461773Y329809D01*
X461686Y329788D01*
X461598Y329771D01*
X461509Y329757D01*
X461419Y329748D01*
X461330Y329742D01*
X461240Y329740D01*
X467338Y331828D02*
X469948Y333916D01*
X469948Y324518D01*
X467338Y324518D02*
X472559Y324518D01*
D10*
X334005Y350860D02*
X334005Y288660D01*
X266705Y288660D02*
X266705Y350860D01*
X334005Y350860D01*
D124*
X277455Y353860D03*
X323255Y353860D03*
D125*
X300355Y355860D03*
D123*
X293511Y343653D02*
X293511Y339477D01*
X293511Y343653D02*
X293513Y343754D01*
X293519Y343855D01*
X293529Y343956D01*
X293542Y344056D01*
X293560Y344156D01*
X293581Y344255D01*
X293607Y344353D01*
X293636Y344450D01*
X293668Y344546D01*
X293705Y344640D01*
X293745Y344733D01*
X293789Y344825D01*
X293836Y344914D01*
X293887Y345002D01*
X293941Y345088D01*
X293998Y345171D01*
X294058Y345253D01*
X294122Y345331D01*
X294188Y345408D01*
X294258Y345481D01*
X294330Y345552D01*
X294405Y345620D01*
X294483Y345685D01*
X294563Y345747D01*
X294645Y345806D01*
X294730Y345862D01*
X294817Y345914D01*
X294905Y345963D01*
X294996Y346009D01*
X295088Y346050D01*
X295182Y346089D01*
X295277Y346123D01*
X295373Y346154D01*
X295471Y346181D01*
X295569Y346205D01*
X295669Y346224D01*
X295769Y346240D01*
X295869Y346252D01*
X295970Y346260D01*
X296071Y346264D01*
X296173Y346264D01*
X296274Y346260D01*
X296375Y346252D01*
X296475Y346240D01*
X296575Y346224D01*
X296675Y346205D01*
X296773Y346181D01*
X296871Y346154D01*
X296967Y346123D01*
X297062Y346089D01*
X297156Y346050D01*
X297248Y346009D01*
X297339Y345963D01*
X297428Y345914D01*
X297514Y345862D01*
X297599Y345806D01*
X297681Y345747D01*
X297761Y345685D01*
X297839Y345620D01*
X297914Y345552D01*
X297986Y345481D01*
X298056Y345408D01*
X298122Y345331D01*
X298186Y345253D01*
X298246Y345171D01*
X298303Y345088D01*
X298357Y345002D01*
X298408Y344914D01*
X298455Y344825D01*
X298499Y344733D01*
X298539Y344640D01*
X298576Y344546D01*
X298608Y344450D01*
X298637Y344353D01*
X298663Y344255D01*
X298684Y344156D01*
X298702Y344056D01*
X298715Y343956D01*
X298725Y343855D01*
X298731Y343754D01*
X298733Y343653D01*
X298732Y343653D02*
X298732Y339477D01*
X298733Y339477D02*
X298731Y339376D01*
X298725Y339275D01*
X298715Y339174D01*
X298702Y339074D01*
X298684Y338974D01*
X298663Y338875D01*
X298637Y338777D01*
X298608Y338680D01*
X298576Y338584D01*
X298539Y338490D01*
X298499Y338397D01*
X298455Y338305D01*
X298408Y338216D01*
X298357Y338128D01*
X298303Y338042D01*
X298246Y337959D01*
X298186Y337877D01*
X298122Y337799D01*
X298056Y337722D01*
X297986Y337649D01*
X297914Y337578D01*
X297839Y337510D01*
X297761Y337445D01*
X297681Y337383D01*
X297599Y337324D01*
X297514Y337268D01*
X297427Y337216D01*
X297339Y337167D01*
X297248Y337121D01*
X297156Y337080D01*
X297062Y337041D01*
X296967Y337007D01*
X296871Y336976D01*
X296773Y336949D01*
X296675Y336925D01*
X296575Y336906D01*
X296475Y336890D01*
X296375Y336878D01*
X296274Y336870D01*
X296173Y336866D01*
X296071Y336866D01*
X295970Y336870D01*
X295869Y336878D01*
X295769Y336890D01*
X295669Y336906D01*
X295569Y336925D01*
X295471Y336949D01*
X295373Y336976D01*
X295277Y337007D01*
X295182Y337041D01*
X295088Y337080D01*
X294996Y337121D01*
X294905Y337167D01*
X294817Y337216D01*
X294730Y337268D01*
X294645Y337324D01*
X294563Y337383D01*
X294483Y337445D01*
X294405Y337510D01*
X294330Y337578D01*
X294258Y337649D01*
X294188Y337722D01*
X294122Y337799D01*
X294058Y337877D01*
X293998Y337959D01*
X293941Y338042D01*
X293887Y338128D01*
X293836Y338216D01*
X293789Y338305D01*
X293745Y338397D01*
X293705Y338490D01*
X293668Y338584D01*
X293636Y338680D01*
X293607Y338777D01*
X293581Y338875D01*
X293560Y338974D01*
X293542Y339074D01*
X293529Y339174D01*
X293519Y339275D01*
X293513Y339376D01*
X293511Y339477D01*
X297688Y338954D02*
X299776Y336866D01*
X307664Y343915D02*
X307662Y344010D01*
X307656Y344104D01*
X307647Y344198D01*
X307634Y344292D01*
X307617Y344385D01*
X307596Y344477D01*
X307571Y344569D01*
X307543Y344659D01*
X307511Y344748D01*
X307476Y344836D01*
X307437Y344922D01*
X307395Y345007D01*
X307349Y345090D01*
X307300Y345171D01*
X307248Y345250D01*
X307193Y345327D01*
X307134Y345401D01*
X307073Y345473D01*
X307009Y345543D01*
X306942Y345610D01*
X306872Y345674D01*
X306800Y345735D01*
X306726Y345794D01*
X306649Y345849D01*
X306570Y345901D01*
X306489Y345950D01*
X306406Y345996D01*
X306321Y346038D01*
X306235Y346077D01*
X306147Y346112D01*
X306058Y346144D01*
X305968Y346172D01*
X305876Y346197D01*
X305784Y346218D01*
X305691Y346235D01*
X305597Y346248D01*
X305503Y346257D01*
X305409Y346263D01*
X305314Y346265D01*
X305314Y346264D02*
X305206Y346262D01*
X305097Y346256D01*
X304989Y346246D01*
X304882Y346233D01*
X304775Y346215D01*
X304668Y346194D01*
X304563Y346169D01*
X304458Y346140D01*
X304355Y346108D01*
X304253Y346071D01*
X304152Y346031D01*
X304053Y345988D01*
X303955Y345941D01*
X303859Y345890D01*
X303765Y345836D01*
X303673Y345779D01*
X303583Y345718D01*
X303495Y345654D01*
X303410Y345588D01*
X303327Y345518D01*
X303247Y345445D01*
X303169Y345369D01*
X303094Y345291D01*
X303022Y345210D01*
X302953Y345126D01*
X302887Y345040D01*
X302824Y344952D01*
X302765Y344861D01*
X302708Y344769D01*
X302655Y344674D01*
X302606Y344578D01*
X302560Y344479D01*
X302517Y344380D01*
X302478Y344278D01*
X302443Y344176D01*
X306881Y342087D02*
X306950Y342156D01*
X307016Y342227D01*
X307080Y342300D01*
X307141Y342376D01*
X307199Y342455D01*
X307253Y342535D01*
X307305Y342618D01*
X307353Y342702D01*
X307399Y342788D01*
X307440Y342876D01*
X307479Y342966D01*
X307514Y343057D01*
X307545Y343149D01*
X307573Y343242D01*
X307597Y343336D01*
X307617Y343431D01*
X307634Y343527D01*
X307647Y343624D01*
X307656Y343721D01*
X307662Y343818D01*
X307664Y343915D01*
X306881Y342087D02*
X302443Y336866D01*
X307664Y336866D01*
X439039Y368317D02*
X439039Y370405D01*
X439039Y368317D02*
X439037Y368228D01*
X439031Y368140D01*
X439022Y368052D01*
X439009Y367964D01*
X438992Y367877D01*
X438972Y367791D01*
X438947Y367706D01*
X438920Y367621D01*
X438888Y367538D01*
X438854Y367457D01*
X438815Y367377D01*
X438774Y367299D01*
X438729Y367222D01*
X438681Y367148D01*
X438630Y367075D01*
X438576Y367005D01*
X438518Y366938D01*
X438458Y366872D01*
X438396Y366810D01*
X438330Y366750D01*
X438263Y366692D01*
X438193Y366638D01*
X438120Y366587D01*
X438046Y366539D01*
X437969Y366494D01*
X437891Y366453D01*
X437811Y366414D01*
X437730Y366380D01*
X437647Y366348D01*
X437562Y366321D01*
X437477Y366296D01*
X437391Y366276D01*
X437304Y366259D01*
X437216Y366246D01*
X437128Y366237D01*
X437040Y366231D01*
X436951Y366229D01*
X436951Y366228D02*
X431729Y366228D01*
X431638Y366230D01*
X431547Y366236D01*
X431456Y366246D01*
X431366Y366260D01*
X431277Y366278D01*
X431188Y366299D01*
X431101Y366325D01*
X431015Y366354D01*
X430930Y366387D01*
X430846Y366424D01*
X430764Y366464D01*
X430685Y366508D01*
X430607Y366555D01*
X430531Y366606D01*
X430457Y366660D01*
X430386Y366717D01*
X430318Y366777D01*
X430252Y366840D01*
X430189Y366906D01*
X430129Y366974D01*
X430072Y367045D01*
X430018Y367119D01*
X429967Y367195D01*
X429920Y367272D01*
X429876Y367352D01*
X429836Y367434D01*
X429799Y367518D01*
X429766Y367602D01*
X429737Y367689D01*
X429711Y367776D01*
X429690Y367865D01*
X429672Y367954D01*
X429658Y368044D01*
X429648Y368135D01*
X429642Y368226D01*
X429640Y368317D01*
X429641Y368317D02*
X429641Y370405D01*
X431729Y373874D02*
X429641Y376484D01*
X439039Y376484D01*
X439039Y373874D02*
X439039Y379095D01*
X431991Y388240D02*
X431896Y388238D01*
X431802Y388232D01*
X431708Y388223D01*
X431614Y388210D01*
X431521Y388193D01*
X431429Y388172D01*
X431337Y388147D01*
X431247Y388119D01*
X431158Y388087D01*
X431070Y388052D01*
X430984Y388013D01*
X430899Y387971D01*
X430816Y387925D01*
X430735Y387876D01*
X430656Y387824D01*
X430579Y387769D01*
X430505Y387710D01*
X430433Y387649D01*
X430363Y387585D01*
X430296Y387518D01*
X430232Y387448D01*
X430171Y387376D01*
X430112Y387302D01*
X430057Y387225D01*
X430005Y387146D01*
X429956Y387065D01*
X429910Y386982D01*
X429868Y386897D01*
X429829Y386811D01*
X429794Y386723D01*
X429762Y386634D01*
X429734Y386544D01*
X429709Y386452D01*
X429688Y386360D01*
X429671Y386267D01*
X429658Y386173D01*
X429649Y386079D01*
X429643Y385985D01*
X429641Y385890D01*
X429643Y385782D01*
X429649Y385673D01*
X429659Y385565D01*
X429672Y385458D01*
X429690Y385351D01*
X429711Y385244D01*
X429736Y385139D01*
X429765Y385034D01*
X429797Y384931D01*
X429834Y384829D01*
X429874Y384728D01*
X429917Y384629D01*
X429964Y384531D01*
X430015Y384435D01*
X430069Y384341D01*
X430126Y384249D01*
X430187Y384159D01*
X430251Y384071D01*
X430317Y383986D01*
X430387Y383903D01*
X430460Y383823D01*
X430536Y383745D01*
X430614Y383670D01*
X430695Y383598D01*
X430779Y383529D01*
X430865Y383463D01*
X430953Y383400D01*
X431044Y383341D01*
X431136Y383284D01*
X431231Y383231D01*
X431328Y383182D01*
X431426Y383136D01*
X431525Y383093D01*
X431627Y383054D01*
X431729Y383019D01*
X433819Y387456D02*
X433750Y387525D01*
X433679Y387591D01*
X433606Y387655D01*
X433530Y387716D01*
X433451Y387774D01*
X433371Y387828D01*
X433288Y387880D01*
X433204Y387928D01*
X433118Y387974D01*
X433030Y388015D01*
X432940Y388054D01*
X432849Y388089D01*
X432757Y388120D01*
X432664Y388148D01*
X432570Y388172D01*
X432475Y388192D01*
X432379Y388209D01*
X432282Y388222D01*
X432185Y388231D01*
X432088Y388237D01*
X431991Y388239D01*
X433818Y387456D02*
X439039Y383018D01*
X439039Y388239D01*
X406019Y349571D02*
X396621Y349571D01*
X396621Y352182D01*
X396623Y352283D01*
X396629Y352384D01*
X396639Y352485D01*
X396652Y352585D01*
X396670Y352685D01*
X396691Y352784D01*
X396717Y352882D01*
X396746Y352979D01*
X396778Y353075D01*
X396815Y353169D01*
X396855Y353262D01*
X396899Y353354D01*
X396946Y353443D01*
X396997Y353531D01*
X397051Y353617D01*
X397108Y353700D01*
X397168Y353782D01*
X397232Y353860D01*
X397298Y353937D01*
X397368Y354010D01*
X397440Y354081D01*
X397515Y354149D01*
X397593Y354214D01*
X397673Y354276D01*
X397755Y354335D01*
X397840Y354391D01*
X397927Y354443D01*
X398015Y354492D01*
X398106Y354538D01*
X398198Y354579D01*
X398292Y354618D01*
X398387Y354652D01*
X398483Y354683D01*
X398581Y354710D01*
X398679Y354734D01*
X398779Y354753D01*
X398879Y354769D01*
X398979Y354781D01*
X399080Y354789D01*
X399181Y354793D01*
X399283Y354793D01*
X399384Y354789D01*
X399485Y354781D01*
X399585Y354769D01*
X399685Y354753D01*
X399785Y354734D01*
X399883Y354710D01*
X399981Y354683D01*
X400077Y354652D01*
X400172Y354618D01*
X400266Y354579D01*
X400358Y354538D01*
X400449Y354492D01*
X400538Y354443D01*
X400624Y354391D01*
X400709Y354335D01*
X400791Y354276D01*
X400871Y354214D01*
X400949Y354149D01*
X401024Y354081D01*
X401096Y354010D01*
X401166Y353937D01*
X401232Y353860D01*
X401296Y353782D01*
X401356Y353700D01*
X401413Y353617D01*
X401467Y353531D01*
X401518Y353443D01*
X401565Y353354D01*
X401609Y353262D01*
X401649Y353169D01*
X401686Y353075D01*
X401718Y352979D01*
X401747Y352882D01*
X401773Y352784D01*
X401794Y352685D01*
X401812Y352585D01*
X401825Y352485D01*
X401835Y352384D01*
X401841Y352283D01*
X401843Y352182D01*
X401842Y352182D02*
X401842Y349571D01*
X401842Y352704D02*
X406019Y354792D01*
X397665Y358658D02*
X396621Y358658D01*
X396621Y363879D01*
X406019Y361268D01*
X347477Y343667D02*
X338079Y343667D01*
X338079Y346278D01*
X338081Y346379D01*
X338087Y346480D01*
X338097Y346581D01*
X338110Y346681D01*
X338128Y346781D01*
X338149Y346880D01*
X338175Y346978D01*
X338204Y347075D01*
X338236Y347171D01*
X338273Y347265D01*
X338313Y347358D01*
X338357Y347450D01*
X338404Y347539D01*
X338455Y347627D01*
X338509Y347713D01*
X338566Y347796D01*
X338626Y347878D01*
X338690Y347956D01*
X338756Y348033D01*
X338826Y348106D01*
X338898Y348177D01*
X338973Y348245D01*
X339051Y348310D01*
X339131Y348372D01*
X339213Y348431D01*
X339298Y348487D01*
X339385Y348539D01*
X339473Y348588D01*
X339564Y348634D01*
X339656Y348675D01*
X339750Y348714D01*
X339845Y348748D01*
X339941Y348779D01*
X340039Y348806D01*
X340137Y348830D01*
X340237Y348849D01*
X340337Y348865D01*
X340437Y348877D01*
X340538Y348885D01*
X340639Y348889D01*
X340741Y348889D01*
X340842Y348885D01*
X340943Y348877D01*
X341043Y348865D01*
X341143Y348849D01*
X341243Y348830D01*
X341341Y348806D01*
X341439Y348779D01*
X341535Y348748D01*
X341630Y348714D01*
X341724Y348675D01*
X341816Y348634D01*
X341907Y348588D01*
X341996Y348539D01*
X342082Y348487D01*
X342167Y348431D01*
X342249Y348372D01*
X342329Y348310D01*
X342407Y348245D01*
X342482Y348177D01*
X342554Y348106D01*
X342624Y348033D01*
X342690Y347956D01*
X342754Y347878D01*
X342814Y347796D01*
X342871Y347713D01*
X342925Y347627D01*
X342976Y347539D01*
X343023Y347450D01*
X343067Y347358D01*
X343107Y347265D01*
X343144Y347171D01*
X343176Y347075D01*
X343205Y346978D01*
X343231Y346880D01*
X343252Y346781D01*
X343270Y346681D01*
X343283Y346581D01*
X343293Y346480D01*
X343299Y346379D01*
X343301Y346278D01*
X343300Y346278D02*
X343300Y343667D01*
X343300Y346800D02*
X347477Y348888D01*
X344867Y352754D02*
X344766Y352756D01*
X344665Y352762D01*
X344564Y352772D01*
X344464Y352785D01*
X344364Y352803D01*
X344265Y352824D01*
X344167Y352850D01*
X344070Y352879D01*
X343974Y352911D01*
X343880Y352948D01*
X343787Y352988D01*
X343695Y353032D01*
X343606Y353079D01*
X343518Y353130D01*
X343432Y353184D01*
X343349Y353241D01*
X343267Y353301D01*
X343189Y353365D01*
X343112Y353431D01*
X343039Y353501D01*
X342968Y353573D01*
X342900Y353648D01*
X342835Y353726D01*
X342773Y353806D01*
X342714Y353888D01*
X342658Y353973D01*
X342606Y354060D01*
X342557Y354148D01*
X342511Y354239D01*
X342470Y354331D01*
X342431Y354425D01*
X342397Y354520D01*
X342366Y354616D01*
X342339Y354714D01*
X342315Y354812D01*
X342296Y354912D01*
X342280Y355012D01*
X342268Y355112D01*
X342260Y355213D01*
X342256Y355314D01*
X342256Y355416D01*
X342260Y355517D01*
X342268Y355618D01*
X342280Y355718D01*
X342296Y355818D01*
X342315Y355918D01*
X342339Y356016D01*
X342366Y356114D01*
X342397Y356210D01*
X342431Y356305D01*
X342470Y356399D01*
X342511Y356491D01*
X342557Y356582D01*
X342606Y356671D01*
X342658Y356757D01*
X342714Y356842D01*
X342773Y356924D01*
X342835Y357004D01*
X342900Y357082D01*
X342968Y357157D01*
X343039Y357229D01*
X343112Y357299D01*
X343189Y357365D01*
X343267Y357429D01*
X343349Y357489D01*
X343432Y357546D01*
X343518Y357600D01*
X343606Y357651D01*
X343695Y357698D01*
X343787Y357742D01*
X343880Y357782D01*
X343974Y357819D01*
X344070Y357851D01*
X344167Y357880D01*
X344265Y357906D01*
X344364Y357927D01*
X344464Y357945D01*
X344564Y357958D01*
X344665Y357968D01*
X344766Y357974D01*
X344867Y357976D01*
X344968Y357974D01*
X345069Y357968D01*
X345170Y357958D01*
X345270Y357945D01*
X345370Y357927D01*
X345469Y357906D01*
X345567Y357880D01*
X345664Y357851D01*
X345760Y357819D01*
X345854Y357782D01*
X345947Y357742D01*
X346039Y357698D01*
X346128Y357651D01*
X346216Y357600D01*
X346302Y357546D01*
X346385Y357489D01*
X346467Y357429D01*
X346545Y357365D01*
X346622Y357299D01*
X346695Y357229D01*
X346766Y357157D01*
X346834Y357082D01*
X346899Y357004D01*
X346961Y356924D01*
X347020Y356842D01*
X347076Y356757D01*
X347128Y356670D01*
X347177Y356582D01*
X347223Y356491D01*
X347264Y356399D01*
X347303Y356305D01*
X347337Y356210D01*
X347368Y356114D01*
X347395Y356016D01*
X347419Y355918D01*
X347438Y355818D01*
X347454Y355718D01*
X347466Y355618D01*
X347474Y355517D01*
X347478Y355416D01*
X347478Y355314D01*
X347474Y355213D01*
X347466Y355112D01*
X347454Y355012D01*
X347438Y354912D01*
X347419Y354812D01*
X347395Y354714D01*
X347368Y354616D01*
X347337Y354520D01*
X347303Y354425D01*
X347264Y354331D01*
X347223Y354239D01*
X347177Y354148D01*
X347128Y354060D01*
X347076Y353973D01*
X347020Y353888D01*
X346961Y353806D01*
X346899Y353726D01*
X346834Y353648D01*
X346766Y353573D01*
X346695Y353501D01*
X346622Y353431D01*
X346545Y353365D01*
X346467Y353301D01*
X346385Y353241D01*
X346302Y353184D01*
X346216Y353130D01*
X346128Y353079D01*
X346039Y353032D01*
X345947Y352988D01*
X345854Y352948D01*
X345760Y352911D01*
X345664Y352879D01*
X345567Y352850D01*
X345469Y352824D01*
X345370Y352803D01*
X345270Y352785D01*
X345170Y352772D01*
X345069Y352762D01*
X344968Y352756D01*
X344867Y352754D01*
X340168Y353277D02*
X340078Y353279D01*
X339989Y353285D01*
X339899Y353294D01*
X339810Y353308D01*
X339722Y353325D01*
X339635Y353346D01*
X339548Y353371D01*
X339463Y353400D01*
X339379Y353432D01*
X339297Y353467D01*
X339216Y353507D01*
X339137Y353549D01*
X339060Y353595D01*
X338985Y353645D01*
X338912Y353697D01*
X338841Y353753D01*
X338773Y353811D01*
X338708Y353873D01*
X338645Y353937D01*
X338585Y354004D01*
X338528Y354073D01*
X338474Y354145D01*
X338423Y354219D01*
X338375Y354295D01*
X338331Y354373D01*
X338290Y354453D01*
X338252Y354535D01*
X338218Y354618D01*
X338188Y354703D01*
X338161Y354789D01*
X338138Y354875D01*
X338119Y354963D01*
X338104Y355052D01*
X338092Y355141D01*
X338084Y355230D01*
X338080Y355320D01*
X338080Y355410D01*
X338084Y355500D01*
X338092Y355589D01*
X338104Y355678D01*
X338119Y355767D01*
X338138Y355855D01*
X338161Y355941D01*
X338188Y356027D01*
X338218Y356112D01*
X338252Y356195D01*
X338290Y356277D01*
X338331Y356357D01*
X338375Y356435D01*
X338423Y356511D01*
X338474Y356585D01*
X338528Y356657D01*
X338585Y356726D01*
X338645Y356793D01*
X338708Y356857D01*
X338773Y356919D01*
X338841Y356977D01*
X338912Y357033D01*
X338985Y357085D01*
X339060Y357135D01*
X339137Y357181D01*
X339216Y357223D01*
X339297Y357263D01*
X339379Y357298D01*
X339463Y357330D01*
X339548Y357359D01*
X339635Y357384D01*
X339722Y357405D01*
X339810Y357422D01*
X339899Y357436D01*
X339989Y357445D01*
X340078Y357451D01*
X340168Y357453D01*
X340258Y357451D01*
X340347Y357445D01*
X340437Y357436D01*
X340526Y357422D01*
X340614Y357405D01*
X340701Y357384D01*
X340788Y357359D01*
X340873Y357330D01*
X340957Y357298D01*
X341039Y357263D01*
X341120Y357223D01*
X341199Y357181D01*
X341276Y357135D01*
X341351Y357085D01*
X341424Y357033D01*
X341495Y356977D01*
X341563Y356919D01*
X341628Y356857D01*
X341691Y356793D01*
X341751Y356726D01*
X341808Y356657D01*
X341862Y356585D01*
X341913Y356511D01*
X341961Y356435D01*
X342005Y356357D01*
X342046Y356277D01*
X342084Y356195D01*
X342118Y356112D01*
X342148Y356027D01*
X342175Y355941D01*
X342198Y355855D01*
X342217Y355767D01*
X342232Y355678D01*
X342244Y355589D01*
X342252Y355500D01*
X342256Y355410D01*
X342256Y355320D01*
X342252Y355230D01*
X342244Y355141D01*
X342232Y355052D01*
X342217Y354963D01*
X342198Y354875D01*
X342175Y354789D01*
X342148Y354703D01*
X342118Y354618D01*
X342084Y354535D01*
X342046Y354453D01*
X342005Y354373D01*
X341961Y354295D01*
X341913Y354219D01*
X341862Y354145D01*
X341808Y354073D01*
X341751Y354004D01*
X341691Y353937D01*
X341628Y353873D01*
X341563Y353811D01*
X341495Y353753D01*
X341424Y353697D01*
X341351Y353645D01*
X341276Y353595D01*
X341199Y353549D01*
X341120Y353507D01*
X341039Y353467D01*
X340957Y353432D01*
X340873Y353400D01*
X340788Y353371D01*
X340701Y353346D01*
X340614Y353325D01*
X340526Y353308D01*
X340437Y353294D01*
X340347Y353285D01*
X340258Y353279D01*
X340168Y353277D01*
D122*
X361950Y372070D02*
X364450Y372070D01*
X361950Y372070D02*
X359450Y372070D01*
X361950Y372070D02*
X364450Y367070D01*
X359450Y367070D02*
X361950Y372070D01*
X359450Y367070D02*
X364450Y367070D01*
X366950Y357070D02*
X356950Y357070D01*
X356950Y382070D01*
X366950Y382070D01*
X366950Y357070D01*
D123*
X366409Y338324D02*
X357011Y338324D01*
X357011Y340935D01*
X357013Y341035D01*
X357019Y341135D01*
X357028Y341234D01*
X357042Y341334D01*
X357059Y341432D01*
X357080Y341530D01*
X357104Y341627D01*
X357133Y341723D01*
X357165Y341818D01*
X357200Y341911D01*
X357239Y342003D01*
X357282Y342094D01*
X357328Y342182D01*
X357378Y342269D01*
X357430Y342354D01*
X357486Y342437D01*
X357545Y342518D01*
X357608Y342596D01*
X357673Y342672D01*
X357741Y342746D01*
X357811Y342816D01*
X357885Y342884D01*
X357961Y342949D01*
X358039Y343012D01*
X358120Y343071D01*
X358203Y343127D01*
X358288Y343179D01*
X358375Y343229D01*
X358463Y343275D01*
X358554Y343318D01*
X358646Y343357D01*
X358739Y343392D01*
X358834Y343424D01*
X358930Y343453D01*
X359027Y343477D01*
X359125Y343498D01*
X359223Y343515D01*
X359323Y343529D01*
X359422Y343538D01*
X359522Y343544D01*
X359622Y343546D01*
X359622Y343545D02*
X363798Y343545D01*
X363798Y343546D02*
X363898Y343544D01*
X363998Y343538D01*
X364097Y343529D01*
X364197Y343515D01*
X364295Y343498D01*
X364393Y343477D01*
X364490Y343453D01*
X364586Y343424D01*
X364681Y343392D01*
X364774Y343357D01*
X364866Y343318D01*
X364957Y343275D01*
X365045Y343229D01*
X365132Y343179D01*
X365217Y343127D01*
X365300Y343071D01*
X365381Y343012D01*
X365459Y342949D01*
X365535Y342884D01*
X365609Y342816D01*
X365679Y342746D01*
X365747Y342672D01*
X365812Y342596D01*
X365875Y342518D01*
X365934Y342437D01*
X365990Y342354D01*
X366042Y342269D01*
X366092Y342182D01*
X366138Y342094D01*
X366181Y342003D01*
X366220Y341911D01*
X366255Y341818D01*
X366287Y341723D01*
X366316Y341627D01*
X366340Y341530D01*
X366361Y341432D01*
X366378Y341334D01*
X366392Y341234D01*
X366401Y341135D01*
X366407Y341035D01*
X366409Y340935D01*
X366409Y338324D01*
X357011Y350645D02*
X357013Y350740D01*
X357019Y350834D01*
X357028Y350928D01*
X357041Y351022D01*
X357058Y351115D01*
X357079Y351207D01*
X357104Y351299D01*
X357132Y351389D01*
X357164Y351478D01*
X357199Y351566D01*
X357238Y351652D01*
X357280Y351737D01*
X357326Y351820D01*
X357375Y351901D01*
X357427Y351980D01*
X357482Y352057D01*
X357541Y352131D01*
X357602Y352203D01*
X357666Y352273D01*
X357733Y352340D01*
X357803Y352404D01*
X357875Y352465D01*
X357949Y352524D01*
X358026Y352579D01*
X358105Y352631D01*
X358186Y352680D01*
X358269Y352726D01*
X358354Y352768D01*
X358440Y352807D01*
X358528Y352842D01*
X358617Y352874D01*
X358707Y352902D01*
X358799Y352927D01*
X358891Y352948D01*
X358984Y352965D01*
X359078Y352978D01*
X359172Y352987D01*
X359266Y352993D01*
X359361Y352995D01*
X357011Y350645D02*
X357013Y350537D01*
X357019Y350428D01*
X357029Y350320D01*
X357042Y350213D01*
X357060Y350106D01*
X357081Y349999D01*
X357106Y349894D01*
X357135Y349789D01*
X357167Y349686D01*
X357204Y349584D01*
X357244Y349483D01*
X357287Y349384D01*
X357334Y349286D01*
X357385Y349190D01*
X357439Y349096D01*
X357496Y349004D01*
X357557Y348914D01*
X357621Y348826D01*
X357687Y348741D01*
X357757Y348658D01*
X357830Y348578D01*
X357906Y348500D01*
X357984Y348425D01*
X358065Y348353D01*
X358149Y348284D01*
X358235Y348218D01*
X358323Y348155D01*
X358414Y348096D01*
X358506Y348039D01*
X358601Y347986D01*
X358698Y347937D01*
X358796Y347891D01*
X358895Y347848D01*
X358997Y347809D01*
X359099Y347774D01*
X361189Y352211D02*
X361120Y352280D01*
X361049Y352346D01*
X360976Y352410D01*
X360900Y352471D01*
X360821Y352529D01*
X360741Y352583D01*
X360658Y352635D01*
X360574Y352683D01*
X360488Y352729D01*
X360400Y352770D01*
X360310Y352809D01*
X360219Y352844D01*
X360127Y352875D01*
X360034Y352903D01*
X359940Y352927D01*
X359845Y352947D01*
X359749Y352964D01*
X359652Y352977D01*
X359555Y352986D01*
X359458Y352992D01*
X359361Y352994D01*
X361188Y352211D02*
X366409Y347773D01*
X366409Y352994D01*
D10*
X421894Y475298D02*
X421894Y495618D01*
X421894Y395288D02*
X271526Y395288D01*
X271526Y416243D01*
X271526Y495618D02*
X421894Y495618D01*
X421894Y410528D02*
X426974Y409258D01*
X421894Y410528D02*
X421894Y395288D01*
X426974Y409258D02*
X426974Y419100D01*
X421894Y416243D01*
X421894Y410528D01*
X421894Y416243D02*
X271526Y416243D01*
X271526Y475298D01*
X421894Y475298D01*
X421894Y416243D01*
X271526Y475298D02*
X271526Y495618D01*
X341630Y408940D02*
X341632Y409082D01*
X341638Y409225D01*
X341648Y409367D01*
X341662Y409509D01*
X341680Y409650D01*
X341702Y409791D01*
X341728Y409931D01*
X341757Y410070D01*
X341791Y410209D01*
X341829Y410346D01*
X341870Y410483D01*
X341915Y410618D01*
X341964Y410752D01*
X342017Y410884D01*
X342073Y411015D01*
X342133Y411144D01*
X342197Y411272D01*
X342264Y411397D01*
X342335Y411521D01*
X342409Y411643D01*
X342486Y411762D01*
X342567Y411880D01*
X342651Y411995D01*
X342738Y412107D01*
X342829Y412217D01*
X342922Y412325D01*
X343019Y412430D01*
X343118Y412532D01*
X343220Y412631D01*
X343325Y412728D01*
X343433Y412821D01*
X343543Y412912D01*
X343655Y412999D01*
X343770Y413083D01*
X343888Y413164D01*
X344007Y413241D01*
X344129Y413315D01*
X344253Y413386D01*
X344378Y413453D01*
X344506Y413517D01*
X344635Y413577D01*
X344766Y413633D01*
X344898Y413686D01*
X345032Y413735D01*
X345167Y413780D01*
X345304Y413821D01*
X345441Y413859D01*
X345580Y413893D01*
X345719Y413922D01*
X345859Y413948D01*
X346000Y413970D01*
X346141Y413988D01*
X346283Y414002D01*
X346425Y414012D01*
X346568Y414018D01*
X346710Y414020D01*
X346852Y414018D01*
X346995Y414012D01*
X347137Y414002D01*
X347279Y413988D01*
X347420Y413970D01*
X347561Y413948D01*
X347701Y413922D01*
X347840Y413893D01*
X347979Y413859D01*
X348116Y413821D01*
X348253Y413780D01*
X348388Y413735D01*
X348522Y413686D01*
X348654Y413633D01*
X348785Y413577D01*
X348914Y413517D01*
X349042Y413453D01*
X349167Y413386D01*
X349291Y413315D01*
X349413Y413241D01*
X349532Y413164D01*
X349650Y413083D01*
X349765Y412999D01*
X349877Y412912D01*
X349987Y412821D01*
X350095Y412728D01*
X350200Y412631D01*
X350302Y412532D01*
X350401Y412430D01*
X350498Y412325D01*
X350591Y412217D01*
X350682Y412107D01*
X350769Y411995D01*
X350853Y411880D01*
X350934Y411762D01*
X351011Y411643D01*
X351085Y411521D01*
X351156Y411397D01*
X351223Y411272D01*
X351287Y411144D01*
X351347Y411015D01*
X351403Y410884D01*
X351456Y410752D01*
X351505Y410618D01*
X351550Y410483D01*
X351591Y410346D01*
X351629Y410209D01*
X351663Y410070D01*
X351692Y409931D01*
X351718Y409791D01*
X351740Y409650D01*
X351758Y409509D01*
X351772Y409367D01*
X351782Y409225D01*
X351788Y409082D01*
X351790Y408940D01*
X351788Y408798D01*
X351782Y408655D01*
X351772Y408513D01*
X351758Y408371D01*
X351740Y408230D01*
X351718Y408089D01*
X351692Y407949D01*
X351663Y407810D01*
X351629Y407671D01*
X351591Y407534D01*
X351550Y407397D01*
X351505Y407262D01*
X351456Y407128D01*
X351403Y406996D01*
X351347Y406865D01*
X351287Y406736D01*
X351223Y406608D01*
X351156Y406483D01*
X351085Y406359D01*
X351011Y406237D01*
X350934Y406118D01*
X350853Y406000D01*
X350769Y405885D01*
X350682Y405773D01*
X350591Y405663D01*
X350498Y405555D01*
X350401Y405450D01*
X350302Y405348D01*
X350200Y405249D01*
X350095Y405152D01*
X349987Y405059D01*
X349877Y404968D01*
X349765Y404881D01*
X349650Y404797D01*
X349532Y404716D01*
X349413Y404639D01*
X349291Y404565D01*
X349167Y404494D01*
X349042Y404427D01*
X348914Y404363D01*
X348785Y404303D01*
X348654Y404247D01*
X348522Y404194D01*
X348388Y404145D01*
X348253Y404100D01*
X348116Y404059D01*
X347979Y404021D01*
X347840Y403987D01*
X347701Y403958D01*
X347561Y403932D01*
X347420Y403910D01*
X347279Y403892D01*
X347137Y403878D01*
X346995Y403868D01*
X346852Y403862D01*
X346710Y403860D01*
X346568Y403862D01*
X346425Y403868D01*
X346283Y403878D01*
X346141Y403892D01*
X346000Y403910D01*
X345859Y403932D01*
X345719Y403958D01*
X345580Y403987D01*
X345441Y404021D01*
X345304Y404059D01*
X345167Y404100D01*
X345032Y404145D01*
X344898Y404194D01*
X344766Y404247D01*
X344635Y404303D01*
X344506Y404363D01*
X344378Y404427D01*
X344253Y404494D01*
X344129Y404565D01*
X344007Y404639D01*
X343888Y404716D01*
X343770Y404797D01*
X343655Y404881D01*
X343543Y404968D01*
X343433Y405059D01*
X343325Y405152D01*
X343220Y405249D01*
X343118Y405348D01*
X343019Y405450D01*
X342922Y405555D01*
X342829Y405663D01*
X342738Y405773D01*
X342651Y405885D01*
X342567Y406000D01*
X342486Y406118D01*
X342409Y406237D01*
X342335Y406359D01*
X342264Y406483D01*
X342197Y406608D01*
X342133Y406736D01*
X342073Y406865D01*
X342017Y406996D01*
X341964Y407128D01*
X341915Y407262D01*
X341870Y407397D01*
X341829Y407534D01*
X341791Y407671D01*
X341757Y407810D01*
X341728Y407949D01*
X341702Y408089D01*
X341680Y408230D01*
X341662Y408371D01*
X341648Y408513D01*
X341638Y408655D01*
X341632Y408798D01*
X341630Y408940D01*
X391668Y408940D02*
X391670Y409082D01*
X391676Y409225D01*
X391686Y409367D01*
X391700Y409509D01*
X391718Y409650D01*
X391740Y409791D01*
X391766Y409931D01*
X391795Y410070D01*
X391829Y410209D01*
X391867Y410346D01*
X391908Y410483D01*
X391953Y410618D01*
X392002Y410752D01*
X392055Y410884D01*
X392111Y411015D01*
X392171Y411144D01*
X392235Y411272D01*
X392302Y411397D01*
X392373Y411521D01*
X392447Y411643D01*
X392524Y411762D01*
X392605Y411880D01*
X392689Y411995D01*
X392776Y412107D01*
X392867Y412217D01*
X392960Y412325D01*
X393057Y412430D01*
X393156Y412532D01*
X393258Y412631D01*
X393363Y412728D01*
X393471Y412821D01*
X393581Y412912D01*
X393693Y412999D01*
X393808Y413083D01*
X393926Y413164D01*
X394045Y413241D01*
X394167Y413315D01*
X394291Y413386D01*
X394416Y413453D01*
X394544Y413517D01*
X394673Y413577D01*
X394804Y413633D01*
X394936Y413686D01*
X395070Y413735D01*
X395205Y413780D01*
X395342Y413821D01*
X395479Y413859D01*
X395618Y413893D01*
X395757Y413922D01*
X395897Y413948D01*
X396038Y413970D01*
X396179Y413988D01*
X396321Y414002D01*
X396463Y414012D01*
X396606Y414018D01*
X396748Y414020D01*
X396890Y414018D01*
X397033Y414012D01*
X397175Y414002D01*
X397317Y413988D01*
X397458Y413970D01*
X397599Y413948D01*
X397739Y413922D01*
X397878Y413893D01*
X398017Y413859D01*
X398154Y413821D01*
X398291Y413780D01*
X398426Y413735D01*
X398560Y413686D01*
X398692Y413633D01*
X398823Y413577D01*
X398952Y413517D01*
X399080Y413453D01*
X399205Y413386D01*
X399329Y413315D01*
X399451Y413241D01*
X399570Y413164D01*
X399688Y413083D01*
X399803Y412999D01*
X399915Y412912D01*
X400025Y412821D01*
X400133Y412728D01*
X400238Y412631D01*
X400340Y412532D01*
X400439Y412430D01*
X400536Y412325D01*
X400629Y412217D01*
X400720Y412107D01*
X400807Y411995D01*
X400891Y411880D01*
X400972Y411762D01*
X401049Y411643D01*
X401123Y411521D01*
X401194Y411397D01*
X401261Y411272D01*
X401325Y411144D01*
X401385Y411015D01*
X401441Y410884D01*
X401494Y410752D01*
X401543Y410618D01*
X401588Y410483D01*
X401629Y410346D01*
X401667Y410209D01*
X401701Y410070D01*
X401730Y409931D01*
X401756Y409791D01*
X401778Y409650D01*
X401796Y409509D01*
X401810Y409367D01*
X401820Y409225D01*
X401826Y409082D01*
X401828Y408940D01*
X401826Y408798D01*
X401820Y408655D01*
X401810Y408513D01*
X401796Y408371D01*
X401778Y408230D01*
X401756Y408089D01*
X401730Y407949D01*
X401701Y407810D01*
X401667Y407671D01*
X401629Y407534D01*
X401588Y407397D01*
X401543Y407262D01*
X401494Y407128D01*
X401441Y406996D01*
X401385Y406865D01*
X401325Y406736D01*
X401261Y406608D01*
X401194Y406483D01*
X401123Y406359D01*
X401049Y406237D01*
X400972Y406118D01*
X400891Y406000D01*
X400807Y405885D01*
X400720Y405773D01*
X400629Y405663D01*
X400536Y405555D01*
X400439Y405450D01*
X400340Y405348D01*
X400238Y405249D01*
X400133Y405152D01*
X400025Y405059D01*
X399915Y404968D01*
X399803Y404881D01*
X399688Y404797D01*
X399570Y404716D01*
X399451Y404639D01*
X399329Y404565D01*
X399205Y404494D01*
X399080Y404427D01*
X398952Y404363D01*
X398823Y404303D01*
X398692Y404247D01*
X398560Y404194D01*
X398426Y404145D01*
X398291Y404100D01*
X398154Y404059D01*
X398017Y404021D01*
X397878Y403987D01*
X397739Y403958D01*
X397599Y403932D01*
X397458Y403910D01*
X397317Y403892D01*
X397175Y403878D01*
X397033Y403868D01*
X396890Y403862D01*
X396748Y403860D01*
X396606Y403862D01*
X396463Y403868D01*
X396321Y403878D01*
X396179Y403892D01*
X396038Y403910D01*
X395897Y403932D01*
X395757Y403958D01*
X395618Y403987D01*
X395479Y404021D01*
X395342Y404059D01*
X395205Y404100D01*
X395070Y404145D01*
X394936Y404194D01*
X394804Y404247D01*
X394673Y404303D01*
X394544Y404363D01*
X394416Y404427D01*
X394291Y404494D01*
X394167Y404565D01*
X394045Y404639D01*
X393926Y404716D01*
X393808Y404797D01*
X393693Y404881D01*
X393581Y404968D01*
X393471Y405059D01*
X393363Y405152D01*
X393258Y405249D01*
X393156Y405348D01*
X393057Y405450D01*
X392960Y405555D01*
X392867Y405663D01*
X392776Y405773D01*
X392689Y405885D01*
X392605Y406000D01*
X392524Y406118D01*
X392447Y406237D01*
X392373Y406359D01*
X392302Y406483D01*
X392235Y406608D01*
X392171Y406736D01*
X392111Y406865D01*
X392055Y406996D01*
X392002Y407128D01*
X391953Y407262D01*
X391908Y407397D01*
X391867Y407534D01*
X391829Y407671D01*
X391795Y407810D01*
X391766Y407949D01*
X391740Y408089D01*
X391718Y408230D01*
X391700Y408371D01*
X391686Y408513D01*
X391676Y408655D01*
X391670Y408798D01*
X391668Y408940D01*
X291592Y408940D02*
X291594Y409082D01*
X291600Y409225D01*
X291610Y409367D01*
X291624Y409509D01*
X291642Y409650D01*
X291664Y409791D01*
X291690Y409931D01*
X291719Y410070D01*
X291753Y410209D01*
X291791Y410346D01*
X291832Y410483D01*
X291877Y410618D01*
X291926Y410752D01*
X291979Y410884D01*
X292035Y411015D01*
X292095Y411144D01*
X292159Y411272D01*
X292226Y411397D01*
X292297Y411521D01*
X292371Y411643D01*
X292448Y411762D01*
X292529Y411880D01*
X292613Y411995D01*
X292700Y412107D01*
X292791Y412217D01*
X292884Y412325D01*
X292981Y412430D01*
X293080Y412532D01*
X293182Y412631D01*
X293287Y412728D01*
X293395Y412821D01*
X293505Y412912D01*
X293617Y412999D01*
X293732Y413083D01*
X293850Y413164D01*
X293969Y413241D01*
X294091Y413315D01*
X294215Y413386D01*
X294340Y413453D01*
X294468Y413517D01*
X294597Y413577D01*
X294728Y413633D01*
X294860Y413686D01*
X294994Y413735D01*
X295129Y413780D01*
X295266Y413821D01*
X295403Y413859D01*
X295542Y413893D01*
X295681Y413922D01*
X295821Y413948D01*
X295962Y413970D01*
X296103Y413988D01*
X296245Y414002D01*
X296387Y414012D01*
X296530Y414018D01*
X296672Y414020D01*
X296814Y414018D01*
X296957Y414012D01*
X297099Y414002D01*
X297241Y413988D01*
X297382Y413970D01*
X297523Y413948D01*
X297663Y413922D01*
X297802Y413893D01*
X297941Y413859D01*
X298078Y413821D01*
X298215Y413780D01*
X298350Y413735D01*
X298484Y413686D01*
X298616Y413633D01*
X298747Y413577D01*
X298876Y413517D01*
X299004Y413453D01*
X299129Y413386D01*
X299253Y413315D01*
X299375Y413241D01*
X299494Y413164D01*
X299612Y413083D01*
X299727Y412999D01*
X299839Y412912D01*
X299949Y412821D01*
X300057Y412728D01*
X300162Y412631D01*
X300264Y412532D01*
X300363Y412430D01*
X300460Y412325D01*
X300553Y412217D01*
X300644Y412107D01*
X300731Y411995D01*
X300815Y411880D01*
X300896Y411762D01*
X300973Y411643D01*
X301047Y411521D01*
X301118Y411397D01*
X301185Y411272D01*
X301249Y411144D01*
X301309Y411015D01*
X301365Y410884D01*
X301418Y410752D01*
X301467Y410618D01*
X301512Y410483D01*
X301553Y410346D01*
X301591Y410209D01*
X301625Y410070D01*
X301654Y409931D01*
X301680Y409791D01*
X301702Y409650D01*
X301720Y409509D01*
X301734Y409367D01*
X301744Y409225D01*
X301750Y409082D01*
X301752Y408940D01*
X301750Y408798D01*
X301744Y408655D01*
X301734Y408513D01*
X301720Y408371D01*
X301702Y408230D01*
X301680Y408089D01*
X301654Y407949D01*
X301625Y407810D01*
X301591Y407671D01*
X301553Y407534D01*
X301512Y407397D01*
X301467Y407262D01*
X301418Y407128D01*
X301365Y406996D01*
X301309Y406865D01*
X301249Y406736D01*
X301185Y406608D01*
X301118Y406483D01*
X301047Y406359D01*
X300973Y406237D01*
X300896Y406118D01*
X300815Y406000D01*
X300731Y405885D01*
X300644Y405773D01*
X300553Y405663D01*
X300460Y405555D01*
X300363Y405450D01*
X300264Y405348D01*
X300162Y405249D01*
X300057Y405152D01*
X299949Y405059D01*
X299839Y404968D01*
X299727Y404881D01*
X299612Y404797D01*
X299494Y404716D01*
X299375Y404639D01*
X299253Y404565D01*
X299129Y404494D01*
X299004Y404427D01*
X298876Y404363D01*
X298747Y404303D01*
X298616Y404247D01*
X298484Y404194D01*
X298350Y404145D01*
X298215Y404100D01*
X298078Y404059D01*
X297941Y404021D01*
X297802Y403987D01*
X297663Y403958D01*
X297523Y403932D01*
X297382Y403910D01*
X297241Y403892D01*
X297099Y403878D01*
X296957Y403868D01*
X296814Y403862D01*
X296672Y403860D01*
X296530Y403862D01*
X296387Y403868D01*
X296245Y403878D01*
X296103Y403892D01*
X295962Y403910D01*
X295821Y403932D01*
X295681Y403958D01*
X295542Y403987D01*
X295403Y404021D01*
X295266Y404059D01*
X295129Y404100D01*
X294994Y404145D01*
X294860Y404194D01*
X294728Y404247D01*
X294597Y404303D01*
X294468Y404363D01*
X294340Y404427D01*
X294215Y404494D01*
X294091Y404565D01*
X293969Y404639D01*
X293850Y404716D01*
X293732Y404797D01*
X293617Y404881D01*
X293505Y404968D01*
X293395Y405059D01*
X293287Y405152D01*
X293182Y405249D01*
X293080Y405348D01*
X292981Y405450D01*
X292884Y405555D01*
X292791Y405663D01*
X292700Y405773D01*
X292613Y405885D01*
X292529Y406000D01*
X292448Y406118D01*
X292371Y406237D01*
X292297Y406359D01*
X292226Y406483D01*
X292159Y406608D01*
X292095Y406736D01*
X292035Y406865D01*
X291979Y406996D01*
X291926Y407128D01*
X291877Y407262D01*
X291832Y407397D01*
X291791Y407534D01*
X291753Y407671D01*
X291719Y407810D01*
X291690Y407949D01*
X291664Y408089D01*
X291642Y408230D01*
X291624Y408371D01*
X291610Y408513D01*
X291600Y408655D01*
X291594Y408798D01*
X291592Y408940D01*
D122*
X408587Y411466D02*
X410986Y413385D01*
X410986Y404749D01*
X408587Y404749D02*
X413385Y404749D01*
X363538Y411226D02*
X363536Y411318D01*
X363530Y411409D01*
X363521Y411500D01*
X363507Y411591D01*
X363490Y411681D01*
X363468Y411770D01*
X363443Y411858D01*
X363415Y411945D01*
X363382Y412031D01*
X363346Y412115D01*
X363307Y412198D01*
X363264Y412279D01*
X363217Y412358D01*
X363168Y412435D01*
X363115Y412510D01*
X363059Y412582D01*
X363000Y412652D01*
X362938Y412720D01*
X362873Y412785D01*
X362805Y412847D01*
X362735Y412906D01*
X362663Y412962D01*
X362588Y413015D01*
X362511Y413064D01*
X362432Y413111D01*
X362351Y413154D01*
X362268Y413193D01*
X362184Y413229D01*
X362098Y413262D01*
X362011Y413290D01*
X361923Y413315D01*
X361834Y413337D01*
X361744Y413354D01*
X361653Y413368D01*
X361562Y413377D01*
X361471Y413383D01*
X361379Y413385D01*
X361276Y413383D01*
X361174Y413377D01*
X361072Y413368D01*
X360970Y413355D01*
X360869Y413338D01*
X360768Y413317D01*
X360669Y413293D01*
X360570Y413264D01*
X360473Y413233D01*
X360376Y413197D01*
X360281Y413159D01*
X360188Y413116D01*
X360096Y413070D01*
X360006Y413021D01*
X359918Y412969D01*
X359831Y412913D01*
X359747Y412854D01*
X359666Y412793D01*
X359586Y412728D01*
X359509Y412660D01*
X359434Y412589D01*
X359363Y412516D01*
X359294Y412440D01*
X359227Y412362D01*
X359164Y412281D01*
X359104Y412198D01*
X359047Y412113D01*
X358993Y412026D01*
X358942Y411936D01*
X358895Y411845D01*
X358851Y411753D01*
X358810Y411658D01*
X358773Y411563D01*
X358740Y411466D01*
X362817Y409547D02*
X362884Y409613D01*
X362948Y409682D01*
X363009Y409753D01*
X363067Y409827D01*
X363122Y409903D01*
X363174Y409981D01*
X363223Y410061D01*
X363269Y410143D01*
X363311Y410227D01*
X363350Y410313D01*
X363385Y410400D01*
X363416Y410488D01*
X363444Y410578D01*
X363469Y410668D01*
X363490Y410760D01*
X363507Y410852D01*
X363520Y410945D01*
X363529Y411038D01*
X363535Y411132D01*
X363537Y411226D01*
X362818Y409547D02*
X358740Y404749D01*
X363538Y404749D01*
X311926Y404749D02*
X309527Y404749D01*
X311926Y404749D02*
X312023Y404751D01*
X312119Y404757D01*
X312215Y404766D01*
X312311Y404780D01*
X312406Y404797D01*
X312500Y404819D01*
X312593Y404844D01*
X312686Y404872D01*
X312777Y404905D01*
X312866Y404941D01*
X312954Y404981D01*
X313041Y405024D01*
X313126Y405070D01*
X313208Y405120D01*
X313289Y405174D01*
X313367Y405230D01*
X313443Y405290D01*
X313517Y405352D01*
X313588Y405418D01*
X313656Y405486D01*
X313722Y405557D01*
X313784Y405631D01*
X313844Y405707D01*
X313900Y405785D01*
X313954Y405866D01*
X314004Y405949D01*
X314050Y406033D01*
X314093Y406120D01*
X314133Y406208D01*
X314169Y406297D01*
X314202Y406388D01*
X314230Y406481D01*
X314255Y406574D01*
X314277Y406668D01*
X314294Y406763D01*
X314308Y406859D01*
X314317Y406955D01*
X314323Y407051D01*
X314325Y407148D01*
X314323Y407245D01*
X314317Y407341D01*
X314308Y407437D01*
X314294Y407533D01*
X314277Y407628D01*
X314255Y407722D01*
X314230Y407815D01*
X314202Y407908D01*
X314169Y407999D01*
X314133Y408088D01*
X314093Y408176D01*
X314050Y408263D01*
X314004Y408348D01*
X313954Y408430D01*
X313900Y408511D01*
X313844Y408589D01*
X313784Y408665D01*
X313722Y408739D01*
X313656Y408810D01*
X313588Y408878D01*
X313517Y408944D01*
X313443Y409006D01*
X313367Y409066D01*
X313289Y409122D01*
X313208Y409176D01*
X313126Y409226D01*
X313041Y409272D01*
X312954Y409315D01*
X312866Y409355D01*
X312777Y409391D01*
X312686Y409424D01*
X312593Y409452D01*
X312500Y409477D01*
X312406Y409499D01*
X312311Y409516D01*
X312215Y409530D01*
X312119Y409539D01*
X312023Y409545D01*
X311926Y409547D01*
X312406Y413385D02*
X309527Y413385D01*
X312406Y413385D02*
X312492Y413383D01*
X312578Y413377D01*
X312664Y413368D01*
X312749Y413354D01*
X312833Y413337D01*
X312917Y413316D01*
X312999Y413291D01*
X313080Y413263D01*
X313160Y413231D01*
X313239Y413195D01*
X313315Y413156D01*
X313390Y413113D01*
X313463Y413068D01*
X313534Y413019D01*
X313602Y412966D01*
X313669Y412911D01*
X313732Y412853D01*
X313793Y412792D01*
X313851Y412729D01*
X313906Y412662D01*
X313959Y412594D01*
X314008Y412523D01*
X314053Y412450D01*
X314096Y412375D01*
X314135Y412299D01*
X314171Y412220D01*
X314203Y412140D01*
X314231Y412059D01*
X314256Y411977D01*
X314277Y411893D01*
X314294Y411809D01*
X314308Y411724D01*
X314317Y411638D01*
X314323Y411552D01*
X314325Y411466D01*
X314323Y411380D01*
X314317Y411294D01*
X314308Y411208D01*
X314294Y411123D01*
X314277Y411039D01*
X314256Y410955D01*
X314231Y410873D01*
X314203Y410792D01*
X314171Y410712D01*
X314135Y410633D01*
X314096Y410557D01*
X314053Y410482D01*
X314008Y410409D01*
X313959Y410338D01*
X313906Y410270D01*
X313851Y410203D01*
X313793Y410140D01*
X313732Y410079D01*
X313669Y410021D01*
X313602Y409966D01*
X313534Y409913D01*
X313463Y409864D01*
X313390Y409819D01*
X313315Y409776D01*
X313239Y409737D01*
X313160Y409701D01*
X313080Y409669D01*
X312999Y409641D01*
X312917Y409616D01*
X312833Y409595D01*
X312749Y409578D01*
X312664Y409564D01*
X312578Y409555D01*
X312492Y409549D01*
X312406Y409547D01*
X310487Y409547D01*
D126*
X371856Y445770D03*
X321564Y445770D03*
D123*
X297947Y370337D02*
X288549Y370337D01*
X288549Y372948D01*
X288551Y373049D01*
X288557Y373150D01*
X288567Y373251D01*
X288580Y373351D01*
X288598Y373451D01*
X288619Y373550D01*
X288645Y373648D01*
X288674Y373745D01*
X288706Y373841D01*
X288743Y373935D01*
X288783Y374028D01*
X288827Y374120D01*
X288874Y374209D01*
X288925Y374297D01*
X288979Y374383D01*
X289036Y374466D01*
X289096Y374548D01*
X289160Y374626D01*
X289226Y374703D01*
X289296Y374776D01*
X289368Y374847D01*
X289443Y374915D01*
X289521Y374980D01*
X289601Y375042D01*
X289683Y375101D01*
X289768Y375157D01*
X289855Y375209D01*
X289943Y375258D01*
X290034Y375304D01*
X290126Y375345D01*
X290220Y375384D01*
X290315Y375418D01*
X290411Y375449D01*
X290509Y375476D01*
X290607Y375500D01*
X290707Y375519D01*
X290807Y375535D01*
X290907Y375547D01*
X291008Y375555D01*
X291109Y375559D01*
X291211Y375559D01*
X291312Y375555D01*
X291413Y375547D01*
X291513Y375535D01*
X291613Y375519D01*
X291713Y375500D01*
X291811Y375476D01*
X291909Y375449D01*
X292005Y375418D01*
X292100Y375384D01*
X292194Y375345D01*
X292286Y375304D01*
X292377Y375258D01*
X292466Y375209D01*
X292552Y375157D01*
X292637Y375101D01*
X292719Y375042D01*
X292799Y374980D01*
X292877Y374915D01*
X292952Y374847D01*
X293024Y374776D01*
X293094Y374703D01*
X293160Y374626D01*
X293224Y374548D01*
X293284Y374466D01*
X293341Y374383D01*
X293395Y374297D01*
X293446Y374209D01*
X293493Y374120D01*
X293537Y374028D01*
X293577Y373935D01*
X293614Y373841D01*
X293646Y373745D01*
X293675Y373648D01*
X293701Y373550D01*
X293722Y373451D01*
X293740Y373351D01*
X293753Y373251D01*
X293763Y373150D01*
X293769Y373049D01*
X293771Y372948D01*
X293770Y372948D02*
X293770Y370337D01*
X293770Y373470D02*
X297947Y375558D01*
X292726Y379424D02*
X292726Y382557D01*
X292728Y382646D01*
X292734Y382734D01*
X292743Y382822D01*
X292756Y382910D01*
X292773Y382997D01*
X292793Y383083D01*
X292818Y383168D01*
X292845Y383253D01*
X292877Y383336D01*
X292911Y383417D01*
X292950Y383497D01*
X292991Y383575D01*
X293036Y383652D01*
X293084Y383726D01*
X293135Y383799D01*
X293189Y383869D01*
X293247Y383936D01*
X293307Y384002D01*
X293369Y384064D01*
X293435Y384124D01*
X293502Y384182D01*
X293572Y384236D01*
X293645Y384287D01*
X293719Y384335D01*
X293796Y384380D01*
X293874Y384421D01*
X293954Y384460D01*
X294035Y384494D01*
X294118Y384526D01*
X294203Y384553D01*
X294288Y384578D01*
X294374Y384598D01*
X294461Y384615D01*
X294549Y384628D01*
X294637Y384637D01*
X294725Y384643D01*
X294814Y384645D01*
X295337Y384645D01*
X295337Y384646D02*
X295438Y384644D01*
X295539Y384638D01*
X295640Y384628D01*
X295740Y384615D01*
X295840Y384597D01*
X295939Y384576D01*
X296037Y384550D01*
X296134Y384521D01*
X296230Y384489D01*
X296324Y384452D01*
X296417Y384412D01*
X296509Y384368D01*
X296598Y384321D01*
X296686Y384270D01*
X296772Y384216D01*
X296855Y384159D01*
X296937Y384099D01*
X297015Y384035D01*
X297092Y383969D01*
X297165Y383899D01*
X297236Y383827D01*
X297304Y383752D01*
X297369Y383674D01*
X297431Y383594D01*
X297490Y383512D01*
X297546Y383427D01*
X297598Y383340D01*
X297647Y383252D01*
X297693Y383161D01*
X297734Y383069D01*
X297773Y382975D01*
X297807Y382880D01*
X297838Y382784D01*
X297865Y382686D01*
X297889Y382588D01*
X297908Y382488D01*
X297924Y382388D01*
X297936Y382288D01*
X297944Y382187D01*
X297948Y382086D01*
X297948Y381984D01*
X297944Y381883D01*
X297936Y381782D01*
X297924Y381682D01*
X297908Y381582D01*
X297889Y381482D01*
X297865Y381384D01*
X297838Y381286D01*
X297807Y381190D01*
X297773Y381095D01*
X297734Y381001D01*
X297693Y380909D01*
X297647Y380818D01*
X297598Y380730D01*
X297546Y380643D01*
X297490Y380558D01*
X297431Y380476D01*
X297369Y380396D01*
X297304Y380318D01*
X297236Y380243D01*
X297165Y380171D01*
X297092Y380101D01*
X297015Y380035D01*
X296937Y379971D01*
X296855Y379911D01*
X296772Y379854D01*
X296686Y379800D01*
X296598Y379749D01*
X296509Y379702D01*
X296417Y379658D01*
X296324Y379618D01*
X296230Y379581D01*
X296134Y379549D01*
X296037Y379520D01*
X295939Y379494D01*
X295840Y379473D01*
X295740Y379455D01*
X295640Y379442D01*
X295539Y379432D01*
X295438Y379426D01*
X295337Y379424D01*
X292726Y379424D01*
X292597Y379426D01*
X292469Y379432D01*
X292341Y379442D01*
X292213Y379456D01*
X292085Y379473D01*
X291958Y379495D01*
X291832Y379521D01*
X291707Y379550D01*
X291583Y379583D01*
X291460Y379621D01*
X291338Y379661D01*
X291217Y379706D01*
X291098Y379754D01*
X290980Y379806D01*
X290864Y379862D01*
X290750Y379921D01*
X290638Y379984D01*
X290527Y380050D01*
X290419Y380119D01*
X290313Y380192D01*
X290209Y380268D01*
X290107Y380347D01*
X290008Y380429D01*
X289912Y380514D01*
X289818Y380602D01*
X289727Y380693D01*
X289639Y380787D01*
X289554Y380883D01*
X289472Y380982D01*
X289393Y381084D01*
X289317Y381188D01*
X289244Y381294D01*
X289175Y381402D01*
X289109Y381512D01*
X289046Y381625D01*
X288987Y381739D01*
X288931Y381855D01*
X288879Y381973D01*
X288831Y382092D01*
X288786Y382213D01*
X288746Y382335D01*
X288708Y382458D01*
X288675Y382582D01*
X288646Y382707D01*
X288620Y382833D01*
X288598Y382960D01*
X288581Y383088D01*
X288567Y383216D01*
X288557Y383344D01*
X288551Y383472D01*
X288549Y383601D01*
D10*
X463550Y384810D02*
X476250Y384810D01*
X482600Y378460D01*
X482600Y365760D01*
X476250Y359410D01*
X457200Y365760D02*
X457200Y378460D01*
X463550Y384810D01*
X457200Y365760D02*
X463550Y359410D01*
X476250Y359410D01*
D127*
X486537Y367157D02*
X486537Y383159D01*
X490982Y383159D01*
X491114Y383157D01*
X491245Y383151D01*
X491377Y383141D01*
X491508Y383128D01*
X491638Y383110D01*
X491768Y383089D01*
X491898Y383064D01*
X492026Y383035D01*
X492154Y383002D01*
X492280Y382965D01*
X492406Y382925D01*
X492530Y382881D01*
X492653Y382833D01*
X492774Y382782D01*
X492894Y382727D01*
X493012Y382669D01*
X493128Y382607D01*
X493242Y382541D01*
X493355Y382473D01*
X493465Y382401D01*
X493573Y382326D01*
X493679Y382247D01*
X493783Y382166D01*
X493884Y382081D01*
X493982Y381994D01*
X494078Y381903D01*
X494171Y381810D01*
X494262Y381714D01*
X494349Y381616D01*
X494434Y381515D01*
X494515Y381411D01*
X494594Y381305D01*
X494669Y381197D01*
X494741Y381087D01*
X494809Y380974D01*
X494875Y380860D01*
X494937Y380744D01*
X494995Y380626D01*
X495050Y380506D01*
X495101Y380385D01*
X495149Y380262D01*
X495193Y380138D01*
X495233Y380012D01*
X495270Y379886D01*
X495303Y379758D01*
X495332Y379630D01*
X495357Y379500D01*
X495378Y379370D01*
X495396Y379240D01*
X495409Y379109D01*
X495419Y378977D01*
X495425Y378846D01*
X495427Y378714D01*
X495425Y378582D01*
X495419Y378451D01*
X495409Y378319D01*
X495396Y378188D01*
X495378Y378058D01*
X495357Y377928D01*
X495332Y377798D01*
X495303Y377670D01*
X495270Y377542D01*
X495233Y377416D01*
X495193Y377290D01*
X495149Y377166D01*
X495101Y377043D01*
X495050Y376922D01*
X494995Y376802D01*
X494937Y376684D01*
X494875Y376568D01*
X494809Y376454D01*
X494741Y376341D01*
X494669Y376231D01*
X494594Y376123D01*
X494515Y376017D01*
X494434Y375913D01*
X494349Y375812D01*
X494262Y375714D01*
X494171Y375618D01*
X494078Y375525D01*
X493982Y375434D01*
X493884Y375347D01*
X493783Y375262D01*
X493679Y375181D01*
X493573Y375102D01*
X493465Y375027D01*
X493355Y374955D01*
X493242Y374887D01*
X493128Y374821D01*
X493012Y374759D01*
X492894Y374701D01*
X492774Y374646D01*
X492653Y374595D01*
X492530Y374547D01*
X492406Y374503D01*
X492280Y374463D01*
X492154Y374426D01*
X492026Y374393D01*
X491898Y374364D01*
X491768Y374339D01*
X491638Y374318D01*
X491508Y374300D01*
X491377Y374287D01*
X491245Y374277D01*
X491114Y374271D01*
X490982Y374269D01*
X486537Y374269D01*
X491871Y374269D02*
X495427Y367157D01*
D10*
X237490Y361950D02*
X237490Y374650D01*
X237490Y361950D02*
X231140Y355600D01*
X218440Y355600D01*
X212090Y361950D01*
X231140Y355600D02*
X237490Y349250D01*
X237490Y336550D01*
X231140Y330200D01*
X218440Y330200D01*
X212090Y336550D01*
X212090Y349250D01*
X218440Y355600D01*
X218440Y381000D02*
X231140Y381000D01*
X237490Y374650D01*
X218440Y381000D02*
X212090Y374650D01*
X212090Y361950D01*
X231140Y330200D02*
X237490Y323850D01*
X237490Y311150D01*
X231140Y304800D01*
X218440Y304800D01*
X212090Y311150D01*
X212090Y323850D01*
X218440Y330200D01*
M02*
