G04 EAGLE Gerber RS-274X export*
G75*
%MOMM*%
%FSLAX34Y34*%
%LPD*%
%INSilkscreen Bottom*%
%IPPOS*%
%AMOC8*
5,1,8,0,0,1.08239X$1,22.5*%
G01*
%ADD10C,0.101600*%
%ADD11C,0.152400*%
%ADD12C,0.127000*%
%ADD13C,0.076200*%
%ADD14C,0.254000*%
%ADD15C,0.203200*%

G36*
X336114Y317883D02*
X336114Y317883D01*
X336116Y317882D01*
X336159Y317902D01*
X336203Y317920D01*
X336203Y317922D01*
X336205Y317923D01*
X336238Y318008D01*
X336238Y320548D01*
X336237Y320550D01*
X336238Y320552D01*
X336218Y320595D01*
X336200Y320639D01*
X336198Y320639D01*
X336197Y320641D01*
X336112Y320674D01*
X332302Y320674D01*
X332300Y320673D01*
X332298Y320674D01*
X332255Y320654D01*
X332211Y320636D01*
X332211Y320634D01*
X332209Y320633D01*
X332176Y320548D01*
X332176Y318008D01*
X332177Y318006D01*
X332176Y318004D01*
X332196Y317961D01*
X332214Y317917D01*
X332216Y317917D01*
X332217Y317915D01*
X332302Y317882D01*
X336112Y317882D01*
X336114Y317883D01*
G37*
G36*
X305564Y272329D02*
X305564Y272329D01*
X305566Y272328D01*
X305609Y272348D01*
X305653Y272366D01*
X305653Y272368D01*
X305655Y272369D01*
X305688Y272454D01*
X305688Y276264D01*
X305687Y276266D01*
X305688Y276268D01*
X305668Y276311D01*
X305650Y276355D01*
X305648Y276355D01*
X305647Y276357D01*
X305562Y276390D01*
X303022Y276390D01*
X303020Y276389D01*
X303018Y276390D01*
X302975Y276370D01*
X302931Y276352D01*
X302931Y276350D01*
X302929Y276349D01*
X302896Y276264D01*
X302896Y272454D01*
X302897Y272452D01*
X302896Y272450D01*
X302916Y272407D01*
X302934Y272363D01*
X302936Y272363D01*
X302937Y272361D01*
X303022Y272328D01*
X305562Y272328D01*
X305564Y272329D01*
G37*
G36*
X390400Y257326D02*
X390400Y257326D01*
X390402Y257325D01*
X390445Y257345D01*
X390489Y257363D01*
X390489Y257365D01*
X390491Y257366D01*
X390524Y257451D01*
X390524Y261261D01*
X390523Y261263D01*
X390524Y261265D01*
X390504Y261308D01*
X390486Y261352D01*
X390484Y261352D01*
X390483Y261354D01*
X390398Y261387D01*
X387858Y261387D01*
X387856Y261386D01*
X387854Y261387D01*
X387811Y261367D01*
X387767Y261349D01*
X387767Y261347D01*
X387765Y261346D01*
X387732Y261261D01*
X387732Y257451D01*
X387733Y257449D01*
X387732Y257447D01*
X387752Y257404D01*
X387770Y257360D01*
X387772Y257360D01*
X387773Y257358D01*
X387858Y257325D01*
X390398Y257325D01*
X390400Y257326D01*
G37*
G36*
X341115Y233047D02*
X341115Y233047D01*
X341117Y233046D01*
X341160Y233066D01*
X341204Y233084D01*
X341204Y233086D01*
X341206Y233087D01*
X341239Y233172D01*
X341239Y235712D01*
X341238Y235714D01*
X341239Y235716D01*
X341219Y235759D01*
X341201Y235803D01*
X341199Y235803D01*
X341198Y235805D01*
X341113Y235838D01*
X337303Y235838D01*
X337301Y235837D01*
X337299Y235838D01*
X337256Y235818D01*
X337212Y235800D01*
X337212Y235798D01*
X337210Y235797D01*
X337177Y235712D01*
X337177Y233172D01*
X337178Y233170D01*
X337177Y233168D01*
X337197Y233125D01*
X337215Y233081D01*
X337217Y233081D01*
X337218Y233079D01*
X337303Y233046D01*
X341113Y233046D01*
X341115Y233047D01*
G37*
D10*
X490937Y335344D02*
X490937Y337291D01*
X484446Y337291D01*
X484446Y333397D01*
X484447Y333397D02*
X484449Y333298D01*
X484455Y333198D01*
X484464Y333099D01*
X484477Y333001D01*
X484494Y332903D01*
X484515Y332805D01*
X484540Y332709D01*
X484568Y332614D01*
X484600Y332520D01*
X484635Y332427D01*
X484674Y332335D01*
X484717Y332245D01*
X484762Y332157D01*
X484812Y332070D01*
X484864Y331986D01*
X484920Y331903D01*
X484978Y331823D01*
X485040Y331745D01*
X485105Y331670D01*
X485173Y331597D01*
X485243Y331527D01*
X485316Y331459D01*
X485391Y331394D01*
X485469Y331332D01*
X485549Y331274D01*
X485632Y331218D01*
X485716Y331166D01*
X485803Y331116D01*
X485891Y331071D01*
X485981Y331028D01*
X486073Y330989D01*
X486166Y330954D01*
X486260Y330922D01*
X486355Y330894D01*
X486451Y330869D01*
X486549Y330848D01*
X486647Y330831D01*
X486745Y330818D01*
X486844Y330809D01*
X486944Y330803D01*
X487043Y330801D01*
X487043Y330800D02*
X493534Y330800D01*
X493534Y330801D02*
X493633Y330803D01*
X493733Y330809D01*
X493832Y330818D01*
X493930Y330831D01*
X494028Y330848D01*
X494126Y330869D01*
X494222Y330894D01*
X494317Y330922D01*
X494411Y330954D01*
X494504Y330989D01*
X494596Y331028D01*
X494686Y331071D01*
X494774Y331116D01*
X494861Y331166D01*
X494945Y331218D01*
X495028Y331274D01*
X495108Y331332D01*
X495186Y331394D01*
X495261Y331459D01*
X495334Y331527D01*
X495404Y331597D01*
X495472Y331670D01*
X495537Y331745D01*
X495599Y331823D01*
X495657Y331903D01*
X495713Y331986D01*
X495765Y332070D01*
X495815Y332157D01*
X495860Y332245D01*
X495903Y332335D01*
X495942Y332427D01*
X495977Y332519D01*
X496009Y332614D01*
X496037Y332709D01*
X496062Y332805D01*
X496083Y332903D01*
X496100Y333001D01*
X496113Y333099D01*
X496122Y333198D01*
X496128Y333298D01*
X496130Y333397D01*
X496130Y337291D01*
X496130Y342992D02*
X484446Y342992D01*
X484446Y349483D02*
X496130Y342992D01*
X496130Y349483D02*
X484446Y349483D01*
X484446Y355184D02*
X496130Y355184D01*
X496130Y358430D01*
X496131Y358430D02*
X496129Y358543D01*
X496123Y358656D01*
X496113Y358769D01*
X496099Y358882D01*
X496082Y358994D01*
X496060Y359105D01*
X496035Y359215D01*
X496005Y359325D01*
X495972Y359433D01*
X495935Y359540D01*
X495895Y359646D01*
X495850Y359750D01*
X495802Y359853D01*
X495751Y359954D01*
X495696Y360053D01*
X495638Y360150D01*
X495576Y360245D01*
X495511Y360338D01*
X495443Y360428D01*
X495372Y360516D01*
X495297Y360602D01*
X495220Y360685D01*
X495140Y360765D01*
X495057Y360842D01*
X494971Y360917D01*
X494883Y360988D01*
X494793Y361056D01*
X494700Y361121D01*
X494605Y361183D01*
X494508Y361241D01*
X494409Y361296D01*
X494308Y361347D01*
X494205Y361395D01*
X494101Y361440D01*
X493995Y361480D01*
X493888Y361517D01*
X493780Y361550D01*
X493670Y361580D01*
X493560Y361605D01*
X493449Y361627D01*
X493337Y361644D01*
X493224Y361658D01*
X493111Y361668D01*
X492998Y361674D01*
X492885Y361676D01*
X492885Y361675D02*
X487692Y361675D01*
X487692Y361676D02*
X487579Y361674D01*
X487466Y361668D01*
X487353Y361658D01*
X487240Y361644D01*
X487128Y361627D01*
X487017Y361605D01*
X486907Y361580D01*
X486797Y361550D01*
X486689Y361517D01*
X486582Y361480D01*
X486476Y361440D01*
X486372Y361395D01*
X486269Y361347D01*
X486168Y361296D01*
X486069Y361241D01*
X485972Y361183D01*
X485877Y361121D01*
X485784Y361056D01*
X485694Y360988D01*
X485606Y360917D01*
X485520Y360842D01*
X485437Y360765D01*
X485357Y360685D01*
X485280Y360602D01*
X485205Y360516D01*
X485134Y360428D01*
X485066Y360338D01*
X485001Y360245D01*
X484939Y360150D01*
X484881Y360053D01*
X484826Y359954D01*
X484775Y359853D01*
X484727Y359750D01*
X484682Y359646D01*
X484642Y359540D01*
X484605Y359433D01*
X484572Y359325D01*
X484542Y359215D01*
X484517Y359105D01*
X484495Y358994D01*
X484478Y358882D01*
X484464Y358769D01*
X484454Y358656D01*
X484448Y358543D01*
X484446Y358430D01*
X484446Y355184D01*
X282455Y214525D02*
X280860Y215642D01*
X277137Y210325D01*
X280327Y208091D01*
X280328Y208091D02*
X280411Y208036D01*
X280495Y207984D01*
X280582Y207935D01*
X280670Y207889D01*
X280760Y207847D01*
X280852Y207808D01*
X280945Y207773D01*
X281039Y207741D01*
X281134Y207713D01*
X281231Y207689D01*
X281328Y207668D01*
X281426Y207652D01*
X281525Y207638D01*
X281624Y207629D01*
X281723Y207624D01*
X281823Y207622D01*
X281922Y207624D01*
X282021Y207630D01*
X282120Y207640D01*
X282219Y207653D01*
X282317Y207671D01*
X282414Y207692D01*
X282510Y207716D01*
X282606Y207745D01*
X282700Y207777D01*
X282793Y207812D01*
X282884Y207851D01*
X282974Y207894D01*
X283062Y207940D01*
X283148Y207989D01*
X283233Y208042D01*
X283315Y208098D01*
X283395Y208157D01*
X283473Y208219D01*
X283548Y208284D01*
X283621Y208351D01*
X283691Y208422D01*
X283759Y208495D01*
X283823Y208571D01*
X283885Y208649D01*
X283944Y208729D01*
X283943Y208729D02*
X287667Y214046D01*
X287722Y214129D01*
X287774Y214213D01*
X287823Y214300D01*
X287869Y214388D01*
X287911Y214478D01*
X287950Y214570D01*
X287985Y214663D01*
X288017Y214757D01*
X288045Y214852D01*
X288069Y214949D01*
X288090Y215046D01*
X288106Y215144D01*
X288120Y215243D01*
X288129Y215342D01*
X288134Y215441D01*
X288136Y215541D01*
X288134Y215640D01*
X288128Y215739D01*
X288118Y215838D01*
X288105Y215937D01*
X288087Y216035D01*
X288066Y216132D01*
X288042Y216228D01*
X288013Y216324D01*
X287981Y216418D01*
X287946Y216511D01*
X287907Y216602D01*
X287864Y216692D01*
X287818Y216780D01*
X287769Y216866D01*
X287716Y216951D01*
X287660Y217033D01*
X287601Y217113D01*
X287539Y217191D01*
X287474Y217266D01*
X287407Y217339D01*
X287336Y217409D01*
X287263Y217477D01*
X287187Y217541D01*
X287109Y217603D01*
X287029Y217662D01*
X283839Y219896D01*
X279169Y223166D02*
X272467Y213595D01*
X267150Y217318D02*
X279169Y223166D01*
X273852Y226889D02*
X267150Y217318D01*
X262480Y220588D02*
X269182Y230159D01*
X266523Y232020D01*
X266524Y232021D02*
X266430Y232084D01*
X266334Y232144D01*
X266236Y232201D01*
X266136Y232254D01*
X266034Y232304D01*
X265930Y232350D01*
X265825Y232392D01*
X265719Y232431D01*
X265611Y232466D01*
X265502Y232497D01*
X265392Y232525D01*
X265281Y232548D01*
X265170Y232568D01*
X265058Y232584D01*
X264945Y232596D01*
X264832Y232604D01*
X264719Y232608D01*
X264605Y232608D01*
X264492Y232604D01*
X264379Y232596D01*
X264266Y232584D01*
X264154Y232568D01*
X264043Y232548D01*
X263932Y232525D01*
X263822Y232497D01*
X263713Y232466D01*
X263605Y232431D01*
X263499Y232392D01*
X263394Y232350D01*
X263290Y232304D01*
X263188Y232254D01*
X263088Y232201D01*
X262990Y232144D01*
X262894Y232084D01*
X262800Y232021D01*
X262709Y231954D01*
X262619Y231885D01*
X262532Y231812D01*
X262448Y231736D01*
X262367Y231657D01*
X262288Y231576D01*
X262212Y231492D01*
X262139Y231405D01*
X262070Y231316D01*
X262003Y231224D01*
X262003Y231223D02*
X259024Y226970D01*
X258961Y226876D01*
X258901Y226780D01*
X258844Y226682D01*
X258791Y226582D01*
X258741Y226480D01*
X258695Y226376D01*
X258653Y226271D01*
X258614Y226165D01*
X258579Y226057D01*
X258548Y225948D01*
X258520Y225838D01*
X258497Y225727D01*
X258477Y225616D01*
X258461Y225504D01*
X258449Y225391D01*
X258441Y225278D01*
X258437Y225165D01*
X258437Y225051D01*
X258441Y224938D01*
X258449Y224825D01*
X258461Y224712D01*
X258477Y224600D01*
X258497Y224489D01*
X258520Y224378D01*
X258548Y224268D01*
X258579Y224159D01*
X258614Y224051D01*
X258653Y223945D01*
X258695Y223840D01*
X258741Y223736D01*
X258791Y223634D01*
X258844Y223534D01*
X258901Y223436D01*
X258961Y223340D01*
X259024Y223246D01*
X259091Y223154D01*
X259160Y223065D01*
X259233Y222978D01*
X259309Y222894D01*
X259388Y222813D01*
X259469Y222734D01*
X259553Y222658D01*
X259640Y222585D01*
X259730Y222516D01*
X259821Y222449D01*
X262480Y220588D01*
X425975Y225684D02*
X427570Y226801D01*
X425975Y225684D02*
X429698Y220367D01*
X432888Y222601D01*
X432888Y222600D02*
X432968Y222659D01*
X433046Y222721D01*
X433122Y222785D01*
X433195Y222853D01*
X433266Y222923D01*
X433333Y222996D01*
X433398Y223071D01*
X433460Y223149D01*
X433519Y223229D01*
X433575Y223311D01*
X433628Y223396D01*
X433677Y223482D01*
X433723Y223570D01*
X433766Y223660D01*
X433805Y223751D01*
X433840Y223844D01*
X433872Y223938D01*
X433901Y224034D01*
X433925Y224130D01*
X433946Y224227D01*
X433964Y224325D01*
X433977Y224424D01*
X433987Y224523D01*
X433993Y224622D01*
X433995Y224721D01*
X433993Y224821D01*
X433988Y224920D01*
X433978Y225019D01*
X433965Y225118D01*
X433949Y225216D01*
X433928Y225313D01*
X433904Y225410D01*
X433876Y225505D01*
X433844Y225599D01*
X433809Y225692D01*
X433770Y225784D01*
X433728Y225874D01*
X433682Y225962D01*
X433633Y226049D01*
X433581Y226133D01*
X433526Y226216D01*
X433526Y226217D02*
X429803Y231534D01*
X429744Y231614D01*
X429682Y231692D01*
X429618Y231768D01*
X429550Y231841D01*
X429480Y231912D01*
X429407Y231979D01*
X429332Y232044D01*
X429254Y232106D01*
X429174Y232165D01*
X429092Y232221D01*
X429007Y232274D01*
X428921Y232323D01*
X428833Y232369D01*
X428743Y232412D01*
X428652Y232451D01*
X428559Y232486D01*
X428465Y232518D01*
X428369Y232547D01*
X428273Y232571D01*
X428176Y232592D01*
X428078Y232610D01*
X427979Y232623D01*
X427880Y232633D01*
X427781Y232639D01*
X427682Y232641D01*
X427582Y232639D01*
X427483Y232634D01*
X427384Y232625D01*
X427285Y232611D01*
X427187Y232595D01*
X427090Y232574D01*
X426993Y232550D01*
X426898Y232522D01*
X426804Y232490D01*
X426711Y232455D01*
X426619Y232416D01*
X426529Y232374D01*
X426441Y232328D01*
X426354Y232279D01*
X426270Y232227D01*
X426187Y232172D01*
X422996Y229938D01*
X418326Y226668D02*
X425028Y217097D01*
X419711Y213374D02*
X418326Y226668D01*
X413009Y222945D02*
X419711Y213374D01*
X415041Y210104D02*
X408339Y219675D01*
X405681Y217813D01*
X405680Y217814D02*
X405589Y217747D01*
X405499Y217678D01*
X405412Y217605D01*
X405328Y217529D01*
X405247Y217450D01*
X405168Y217369D01*
X405092Y217285D01*
X405019Y217198D01*
X404950Y217109D01*
X404883Y217017D01*
X404820Y216923D01*
X404760Y216827D01*
X404703Y216729D01*
X404650Y216629D01*
X404600Y216527D01*
X404554Y216423D01*
X404512Y216318D01*
X404473Y216212D01*
X404438Y216104D01*
X404407Y215995D01*
X404379Y215885D01*
X404356Y215774D01*
X404336Y215663D01*
X404320Y215551D01*
X404308Y215438D01*
X404300Y215325D01*
X404296Y215212D01*
X404296Y215098D01*
X404300Y214985D01*
X404308Y214872D01*
X404320Y214759D01*
X404336Y214647D01*
X404356Y214536D01*
X404379Y214425D01*
X404407Y214315D01*
X404438Y214206D01*
X404473Y214098D01*
X404512Y213992D01*
X404554Y213887D01*
X404600Y213783D01*
X404650Y213681D01*
X404703Y213581D01*
X404760Y213483D01*
X404820Y213387D01*
X404883Y213293D01*
X404884Y213293D02*
X407862Y209039D01*
X407929Y208948D01*
X407998Y208858D01*
X408071Y208771D01*
X408147Y208687D01*
X408226Y208606D01*
X408307Y208527D01*
X408391Y208451D01*
X408478Y208378D01*
X408568Y208309D01*
X408659Y208242D01*
X408753Y208179D01*
X408849Y208119D01*
X408947Y208062D01*
X409047Y208009D01*
X409149Y207959D01*
X409253Y207913D01*
X409358Y207871D01*
X409464Y207832D01*
X409572Y207797D01*
X409681Y207766D01*
X409791Y207738D01*
X409902Y207715D01*
X410013Y207695D01*
X410125Y207679D01*
X410238Y207667D01*
X410351Y207659D01*
X410464Y207655D01*
X410578Y207655D01*
X410691Y207659D01*
X410804Y207667D01*
X410917Y207679D01*
X411029Y207695D01*
X411140Y207715D01*
X411251Y207738D01*
X411361Y207766D01*
X411470Y207797D01*
X411578Y207832D01*
X411684Y207871D01*
X411789Y207913D01*
X411893Y207959D01*
X411995Y208009D01*
X412095Y208062D01*
X412193Y208119D01*
X412289Y208179D01*
X412383Y208242D01*
X415041Y210104D01*
X205019Y309389D02*
X204045Y311075D01*
X198424Y307829D01*
X200371Y304457D01*
X200372Y304457D02*
X200423Y304372D01*
X200478Y304289D01*
X200535Y304208D01*
X200596Y304129D01*
X200660Y304053D01*
X200727Y303979D01*
X200796Y303908D01*
X200868Y303839D01*
X200943Y303773D01*
X201020Y303711D01*
X201099Y303651D01*
X201181Y303594D01*
X201265Y303541D01*
X201351Y303490D01*
X201438Y303443D01*
X201528Y303400D01*
X201619Y303360D01*
X201711Y303323D01*
X201805Y303290D01*
X201900Y303261D01*
X201996Y303235D01*
X202093Y303213D01*
X202191Y303195D01*
X202289Y303180D01*
X202388Y303169D01*
X202487Y303162D01*
X202587Y303159D01*
X202686Y303160D01*
X202786Y303164D01*
X202885Y303173D01*
X202984Y303185D01*
X203082Y303200D01*
X203179Y303220D01*
X203276Y303243D01*
X203372Y303270D01*
X203466Y303301D01*
X203560Y303335D01*
X203652Y303373D01*
X203742Y303414D01*
X203831Y303459D01*
X203918Y303507D01*
X203918Y303506D02*
X209539Y306752D01*
X209624Y306803D01*
X209707Y306858D01*
X209788Y306915D01*
X209867Y306976D01*
X209943Y307040D01*
X210017Y307107D01*
X210088Y307176D01*
X210157Y307248D01*
X210223Y307323D01*
X210285Y307400D01*
X210345Y307479D01*
X210402Y307561D01*
X210455Y307645D01*
X210506Y307731D01*
X210553Y307818D01*
X210596Y307908D01*
X210636Y307999D01*
X210673Y308091D01*
X210706Y308185D01*
X210735Y308280D01*
X210761Y308376D01*
X210783Y308473D01*
X210801Y308571D01*
X210816Y308669D01*
X210827Y308768D01*
X210834Y308867D01*
X210837Y308967D01*
X210836Y309066D01*
X210832Y309166D01*
X210823Y309265D01*
X210811Y309363D01*
X210796Y309462D01*
X210776Y309559D01*
X210753Y309656D01*
X210726Y309752D01*
X210695Y309846D01*
X210661Y309940D01*
X210623Y310032D01*
X210582Y310122D01*
X210537Y310211D01*
X210489Y310298D01*
X210490Y310299D02*
X208542Y313671D01*
X205692Y318609D02*
X195573Y312767D01*
X192328Y318388D02*
X205692Y318609D01*
X202446Y324230D02*
X192328Y318388D01*
X189477Y323325D02*
X199596Y329167D01*
X197973Y331978D01*
X197915Y332075D01*
X197853Y332170D01*
X197788Y332263D01*
X197720Y332353D01*
X197649Y332441D01*
X197574Y332527D01*
X197497Y332610D01*
X197417Y332690D01*
X197334Y332767D01*
X197248Y332842D01*
X197160Y332913D01*
X197070Y332981D01*
X196977Y333046D01*
X196882Y333108D01*
X196785Y333166D01*
X196686Y333221D01*
X196585Y333272D01*
X196482Y333320D01*
X196378Y333365D01*
X196272Y333405D01*
X196165Y333442D01*
X196057Y333475D01*
X195947Y333505D01*
X195837Y333530D01*
X195726Y333552D01*
X195614Y333569D01*
X195501Y333583D01*
X195388Y333593D01*
X195275Y333599D01*
X195162Y333601D01*
X195049Y333599D01*
X194936Y333593D01*
X194823Y333583D01*
X194710Y333569D01*
X194598Y333552D01*
X194487Y333530D01*
X194377Y333505D01*
X194267Y333475D01*
X194159Y333442D01*
X194052Y333405D01*
X193946Y333365D01*
X193842Y333320D01*
X193739Y333272D01*
X193638Y333221D01*
X193539Y333166D01*
X193540Y333166D02*
X189042Y330569D01*
X189042Y330570D02*
X188945Y330512D01*
X188850Y330450D01*
X188757Y330385D01*
X188667Y330317D01*
X188579Y330246D01*
X188493Y330171D01*
X188410Y330094D01*
X188330Y330014D01*
X188253Y329931D01*
X188178Y329845D01*
X188107Y329757D01*
X188039Y329667D01*
X187974Y329574D01*
X187912Y329479D01*
X187854Y329382D01*
X187799Y329283D01*
X187748Y329182D01*
X187700Y329079D01*
X187655Y328975D01*
X187615Y328869D01*
X187578Y328762D01*
X187545Y328654D01*
X187515Y328544D01*
X187490Y328434D01*
X187468Y328323D01*
X187451Y328211D01*
X187437Y328098D01*
X187427Y327985D01*
X187421Y327872D01*
X187419Y327759D01*
X187421Y327646D01*
X187427Y327533D01*
X187437Y327420D01*
X187451Y327307D01*
X187468Y327195D01*
X187490Y327084D01*
X187515Y326974D01*
X187545Y326864D01*
X187578Y326756D01*
X187615Y326649D01*
X187655Y326543D01*
X187700Y326439D01*
X187748Y326336D01*
X187799Y326235D01*
X187854Y326136D01*
X187855Y326136D02*
X189477Y323325D01*
D11*
X457414Y402575D02*
X457414Y420355D01*
X452475Y420355D01*
X452335Y420353D01*
X452196Y420347D01*
X452056Y420337D01*
X451917Y420323D01*
X451778Y420306D01*
X451640Y420284D01*
X451503Y420258D01*
X451366Y420229D01*
X451230Y420196D01*
X451096Y420159D01*
X450962Y420118D01*
X450830Y420073D01*
X450698Y420024D01*
X450569Y419972D01*
X450441Y419917D01*
X450314Y419857D01*
X450189Y419794D01*
X450066Y419728D01*
X449945Y419658D01*
X449826Y419585D01*
X449709Y419508D01*
X449595Y419428D01*
X449482Y419345D01*
X449372Y419259D01*
X449265Y419169D01*
X449160Y419077D01*
X449058Y418982D01*
X448958Y418884D01*
X448861Y418783D01*
X448767Y418679D01*
X448677Y418573D01*
X448589Y418464D01*
X448504Y418353D01*
X448423Y418239D01*
X448344Y418124D01*
X448269Y418006D01*
X448198Y417886D01*
X448130Y417763D01*
X448065Y417640D01*
X448004Y417514D01*
X447946Y417386D01*
X447892Y417258D01*
X447842Y417127D01*
X447795Y416995D01*
X447752Y416862D01*
X447713Y416728D01*
X447678Y416593D01*
X447647Y416457D01*
X447619Y416319D01*
X447596Y416182D01*
X447576Y416043D01*
X447560Y415904D01*
X447548Y415765D01*
X447540Y415626D01*
X447536Y415486D01*
X447536Y415346D01*
X447540Y415206D01*
X447548Y415067D01*
X447560Y414928D01*
X447576Y414789D01*
X447596Y414650D01*
X447619Y414513D01*
X447647Y414375D01*
X447678Y414239D01*
X447713Y414104D01*
X447752Y413970D01*
X447795Y413837D01*
X447842Y413705D01*
X447892Y413574D01*
X447946Y413446D01*
X448004Y413318D01*
X448065Y413192D01*
X448130Y413069D01*
X448198Y412947D01*
X448269Y412826D01*
X448344Y412708D01*
X448423Y412593D01*
X448504Y412479D01*
X448589Y412368D01*
X448677Y412259D01*
X448767Y412153D01*
X448861Y412049D01*
X448958Y411948D01*
X449058Y411850D01*
X449160Y411755D01*
X449265Y411663D01*
X449372Y411573D01*
X449482Y411487D01*
X449595Y411404D01*
X449709Y411324D01*
X449826Y411247D01*
X449945Y411174D01*
X450066Y411104D01*
X450189Y411038D01*
X450314Y410975D01*
X450441Y410915D01*
X450569Y410860D01*
X450698Y410808D01*
X450830Y410759D01*
X450962Y410714D01*
X451096Y410673D01*
X451230Y410636D01*
X451366Y410603D01*
X451503Y410574D01*
X451640Y410548D01*
X451778Y410526D01*
X451917Y410509D01*
X452056Y410495D01*
X452196Y410485D01*
X452335Y410479D01*
X452475Y410477D01*
X457414Y410477D01*
X441419Y416404D02*
X436480Y420355D01*
X436480Y402575D01*
X441419Y402575D02*
X431541Y402575D01*
X452418Y300699D02*
X467816Y291809D01*
X452418Y300699D02*
X449949Y296422D01*
X449881Y296299D01*
X449816Y296176D01*
X449755Y296050D01*
X449697Y295922D01*
X449643Y295794D01*
X449593Y295663D01*
X449546Y295531D01*
X449503Y295398D01*
X449464Y295264D01*
X449429Y295129D01*
X449398Y294993D01*
X449370Y294855D01*
X449347Y294718D01*
X449327Y294579D01*
X449311Y294440D01*
X449299Y294301D01*
X449291Y294162D01*
X449287Y294022D01*
X449287Y293882D01*
X449291Y293742D01*
X449299Y293603D01*
X449311Y293464D01*
X449327Y293325D01*
X449347Y293186D01*
X449370Y293049D01*
X449398Y292911D01*
X449429Y292775D01*
X449464Y292640D01*
X449503Y292506D01*
X449546Y292373D01*
X449593Y292241D01*
X449643Y292110D01*
X449697Y291982D01*
X449755Y291854D01*
X449816Y291728D01*
X449881Y291605D01*
X449949Y291482D01*
X450020Y291362D01*
X450095Y291244D01*
X450174Y291129D01*
X450255Y291015D01*
X450340Y290904D01*
X450428Y290795D01*
X450518Y290689D01*
X450612Y290585D01*
X450709Y290484D01*
X450809Y290386D01*
X450911Y290291D01*
X451016Y290199D01*
X451123Y290109D01*
X451233Y290023D01*
X451346Y289940D01*
X451460Y289860D01*
X451577Y289783D01*
X451696Y289710D01*
X451817Y289640D01*
X451940Y289574D01*
X452065Y289511D01*
X452192Y289451D01*
X452320Y289396D01*
X452450Y289344D01*
X452581Y289295D01*
X452713Y289250D01*
X452847Y289209D01*
X452981Y289172D01*
X453117Y289139D01*
X453254Y289110D01*
X453391Y289084D01*
X453529Y289062D01*
X453668Y289045D01*
X453807Y289031D01*
X453947Y289021D01*
X454086Y289015D01*
X454226Y289013D01*
X454366Y289015D01*
X454505Y289021D01*
X454645Y289031D01*
X454784Y289045D01*
X454923Y289062D01*
X455061Y289084D01*
X455198Y289110D01*
X455335Y289139D01*
X455471Y289172D01*
X455605Y289210D01*
X455739Y289250D01*
X455871Y289295D01*
X456003Y289344D01*
X456132Y289396D01*
X456260Y289451D01*
X456387Y289511D01*
X456512Y289574D01*
X456635Y289640D01*
X456756Y289710D01*
X456875Y289783D01*
X456992Y289860D01*
X457106Y289940D01*
X457219Y290023D01*
X457329Y290109D01*
X457436Y290199D01*
X457541Y290291D01*
X457643Y290386D01*
X457743Y290484D01*
X457840Y290585D01*
X457934Y290689D01*
X458024Y290795D01*
X458112Y290904D01*
X458197Y291015D01*
X458278Y291129D01*
X458357Y291244D01*
X458432Y291362D01*
X458503Y291483D01*
X460973Y295760D01*
X441705Y282142D02*
X441640Y282026D01*
X441580Y281910D01*
X441522Y281791D01*
X441469Y281671D01*
X441419Y281549D01*
X441372Y281426D01*
X441329Y281301D01*
X441290Y281175D01*
X441255Y281048D01*
X441223Y280920D01*
X441195Y280792D01*
X441172Y280662D01*
X441151Y280532D01*
X441135Y280401D01*
X441123Y280270D01*
X441114Y280139D01*
X441110Y280007D01*
X441109Y279875D01*
X441112Y279743D01*
X441120Y279612D01*
X441131Y279481D01*
X441146Y279350D01*
X441164Y279219D01*
X441187Y279090D01*
X441214Y278961D01*
X441244Y278832D01*
X441278Y278705D01*
X441316Y278579D01*
X441357Y278454D01*
X441403Y278330D01*
X441452Y278208D01*
X441504Y278087D01*
X441560Y277968D01*
X441620Y277850D01*
X441683Y277735D01*
X441749Y277621D01*
X441819Y277509D01*
X441892Y277400D01*
X441968Y277292D01*
X442048Y277187D01*
X442130Y277084D01*
X442216Y276984D01*
X442304Y276886D01*
X442395Y276791D01*
X442489Y276699D01*
X442586Y276610D01*
X442686Y276523D01*
X442788Y276440D01*
X442892Y276359D01*
X442998Y276282D01*
X443107Y276208D01*
X443218Y276137D01*
X443332Y276070D01*
X441704Y282143D02*
X441781Y282271D01*
X441861Y282398D01*
X441944Y282522D01*
X442030Y282644D01*
X442120Y282764D01*
X442212Y282882D01*
X442308Y282997D01*
X442407Y283109D01*
X442508Y283219D01*
X442613Y283326D01*
X442720Y283431D01*
X442830Y283532D01*
X442942Y283631D01*
X443057Y283726D01*
X443175Y283819D01*
X443295Y283908D01*
X443417Y283995D01*
X443541Y284078D01*
X443668Y284158D01*
X443797Y284234D01*
X443927Y284307D01*
X444060Y284377D01*
X444194Y284443D01*
X444330Y284505D01*
X444467Y284564D01*
X444606Y284620D01*
X444747Y284671D01*
X444888Y284719D01*
X445031Y284764D01*
X445175Y284804D01*
X445320Y284841D01*
X445466Y284874D01*
X445613Y284903D01*
X445760Y284928D01*
X445909Y284950D01*
X446057Y284967D01*
X446206Y284981D01*
X446355Y284990D01*
X446505Y284996D01*
X446655Y284998D01*
X446804Y284996D01*
X446954Y284990D01*
X447103Y284980D01*
X447252Y284966D01*
X447400Y284948D01*
X447549Y284927D01*
X447696Y284901D01*
X447843Y284872D01*
X447067Y275625D02*
X446938Y275589D01*
X446809Y275557D01*
X446679Y275528D01*
X446548Y275503D01*
X446416Y275482D01*
X446284Y275465D01*
X446151Y275451D01*
X446019Y275440D01*
X445885Y275434D01*
X445752Y275431D01*
X445619Y275432D01*
X445486Y275437D01*
X445353Y275445D01*
X445220Y275457D01*
X445087Y275473D01*
X444956Y275492D01*
X444824Y275516D01*
X444694Y275542D01*
X444564Y275573D01*
X444435Y275607D01*
X444307Y275645D01*
X444180Y275686D01*
X444055Y275730D01*
X443931Y275779D01*
X443808Y275830D01*
X443686Y275885D01*
X443566Y275944D01*
X443448Y276006D01*
X443332Y276071D01*
X447066Y275625D02*
X459819Y277957D01*
X454880Y269402D01*
X442707Y262147D02*
X437574Y265110D01*
X442707Y262147D02*
X444828Y256930D01*
X442707Y262147D02*
X448285Y262919D01*
X442707Y262147D02*
X438280Y258430D01*
X442707Y262147D02*
X443712Y267840D01*
X357866Y233490D02*
X357866Y215710D01*
X357866Y233490D02*
X352928Y233490D01*
X352788Y233488D01*
X352649Y233482D01*
X352509Y233472D01*
X352370Y233458D01*
X352231Y233441D01*
X352093Y233419D01*
X351956Y233393D01*
X351819Y233364D01*
X351683Y233331D01*
X351549Y233294D01*
X351415Y233253D01*
X351283Y233208D01*
X351151Y233159D01*
X351022Y233107D01*
X350894Y233052D01*
X350767Y232992D01*
X350642Y232929D01*
X350519Y232863D01*
X350398Y232793D01*
X350279Y232720D01*
X350162Y232643D01*
X350048Y232563D01*
X349935Y232480D01*
X349825Y232394D01*
X349718Y232304D01*
X349613Y232212D01*
X349511Y232117D01*
X349411Y232019D01*
X349314Y231918D01*
X349220Y231814D01*
X349130Y231708D01*
X349042Y231599D01*
X348957Y231488D01*
X348876Y231374D01*
X348797Y231259D01*
X348722Y231141D01*
X348651Y231021D01*
X348583Y230898D01*
X348518Y230775D01*
X348457Y230649D01*
X348399Y230521D01*
X348345Y230393D01*
X348295Y230262D01*
X348248Y230130D01*
X348205Y229997D01*
X348166Y229863D01*
X348131Y229728D01*
X348100Y229592D01*
X348072Y229454D01*
X348049Y229317D01*
X348029Y229178D01*
X348013Y229039D01*
X348001Y228900D01*
X347993Y228761D01*
X347989Y228621D01*
X347989Y228481D01*
X347993Y228341D01*
X348001Y228202D01*
X348013Y228063D01*
X348029Y227924D01*
X348049Y227785D01*
X348072Y227648D01*
X348100Y227510D01*
X348131Y227374D01*
X348166Y227239D01*
X348205Y227105D01*
X348248Y226972D01*
X348295Y226840D01*
X348345Y226709D01*
X348399Y226581D01*
X348457Y226453D01*
X348518Y226327D01*
X348583Y226204D01*
X348651Y226081D01*
X348722Y225961D01*
X348797Y225843D01*
X348876Y225728D01*
X348957Y225614D01*
X349042Y225503D01*
X349130Y225394D01*
X349220Y225288D01*
X349314Y225184D01*
X349411Y225083D01*
X349511Y224985D01*
X349613Y224890D01*
X349718Y224798D01*
X349825Y224708D01*
X349935Y224622D01*
X350048Y224539D01*
X350162Y224459D01*
X350279Y224382D01*
X350398Y224309D01*
X350519Y224239D01*
X350642Y224173D01*
X350767Y224110D01*
X350894Y224050D01*
X351022Y223995D01*
X351151Y223943D01*
X351283Y223894D01*
X351415Y223849D01*
X351549Y223808D01*
X351683Y223771D01*
X351819Y223738D01*
X351956Y223709D01*
X352093Y223683D01*
X352231Y223661D01*
X352370Y223644D01*
X352509Y223630D01*
X352649Y223620D01*
X352788Y223614D01*
X352928Y223612D01*
X357866Y223612D01*
X341871Y215710D02*
X336932Y215710D01*
X336792Y215712D01*
X336653Y215718D01*
X336513Y215728D01*
X336374Y215742D01*
X336235Y215759D01*
X336097Y215781D01*
X335960Y215807D01*
X335823Y215836D01*
X335687Y215869D01*
X335553Y215906D01*
X335419Y215947D01*
X335287Y215992D01*
X335155Y216041D01*
X335026Y216093D01*
X334898Y216148D01*
X334771Y216208D01*
X334646Y216271D01*
X334523Y216337D01*
X334402Y216407D01*
X334283Y216480D01*
X334166Y216557D01*
X334052Y216637D01*
X333939Y216720D01*
X333829Y216806D01*
X333722Y216896D01*
X333617Y216988D01*
X333515Y217083D01*
X333415Y217181D01*
X333318Y217282D01*
X333224Y217386D01*
X333134Y217492D01*
X333046Y217601D01*
X332961Y217712D01*
X332880Y217826D01*
X332801Y217941D01*
X332726Y218059D01*
X332655Y218179D01*
X332587Y218302D01*
X332522Y218425D01*
X332461Y218551D01*
X332403Y218679D01*
X332349Y218807D01*
X332299Y218938D01*
X332252Y219070D01*
X332209Y219203D01*
X332170Y219337D01*
X332135Y219472D01*
X332104Y219608D01*
X332076Y219746D01*
X332053Y219883D01*
X332033Y220022D01*
X332017Y220161D01*
X332005Y220300D01*
X331997Y220439D01*
X331993Y220579D01*
X331993Y220719D01*
X331997Y220859D01*
X332005Y220998D01*
X332017Y221137D01*
X332033Y221276D01*
X332053Y221415D01*
X332076Y221552D01*
X332104Y221690D01*
X332135Y221826D01*
X332170Y221961D01*
X332209Y222095D01*
X332252Y222228D01*
X332299Y222360D01*
X332349Y222491D01*
X332403Y222619D01*
X332461Y222747D01*
X332522Y222873D01*
X332587Y222996D01*
X332655Y223119D01*
X332726Y223239D01*
X332801Y223357D01*
X332880Y223472D01*
X332961Y223586D01*
X333046Y223697D01*
X333134Y223806D01*
X333224Y223912D01*
X333318Y224016D01*
X333415Y224117D01*
X333515Y224215D01*
X333617Y224310D01*
X333722Y224402D01*
X333829Y224492D01*
X333939Y224578D01*
X334052Y224661D01*
X334166Y224741D01*
X334283Y224818D01*
X334402Y224891D01*
X334523Y224961D01*
X334646Y225027D01*
X334771Y225090D01*
X334898Y225150D01*
X335026Y225205D01*
X335155Y225257D01*
X335287Y225306D01*
X335419Y225351D01*
X335553Y225392D01*
X335687Y225429D01*
X335823Y225462D01*
X335960Y225491D01*
X336097Y225517D01*
X336235Y225539D01*
X336374Y225556D01*
X336513Y225570D01*
X336653Y225580D01*
X336792Y225586D01*
X336932Y225588D01*
X335945Y233490D02*
X341871Y233490D01*
X335945Y233490D02*
X335821Y233488D01*
X335697Y233482D01*
X335573Y233472D01*
X335450Y233459D01*
X335327Y233441D01*
X335205Y233420D01*
X335083Y233395D01*
X334962Y233366D01*
X334843Y233333D01*
X334724Y233297D01*
X334607Y233256D01*
X334491Y233213D01*
X334376Y233165D01*
X334263Y233114D01*
X334151Y233059D01*
X334042Y233001D01*
X333934Y232940D01*
X333828Y232875D01*
X333724Y232807D01*
X333623Y232735D01*
X333523Y232661D01*
X333427Y232583D01*
X333332Y232503D01*
X333240Y232419D01*
X333151Y232333D01*
X333065Y232244D01*
X332981Y232152D01*
X332901Y232057D01*
X332823Y231961D01*
X332749Y231861D01*
X332677Y231760D01*
X332609Y231656D01*
X332544Y231550D01*
X332483Y231442D01*
X332425Y231333D01*
X332370Y231221D01*
X332319Y231108D01*
X332271Y230993D01*
X332228Y230877D01*
X332187Y230760D01*
X332151Y230641D01*
X332118Y230522D01*
X332089Y230401D01*
X332064Y230279D01*
X332043Y230157D01*
X332025Y230034D01*
X332012Y229911D01*
X332002Y229787D01*
X331996Y229663D01*
X331994Y229539D01*
X331996Y229415D01*
X332002Y229291D01*
X332012Y229167D01*
X332025Y229044D01*
X332043Y228921D01*
X332064Y228799D01*
X332089Y228677D01*
X332118Y228556D01*
X332151Y228437D01*
X332187Y228318D01*
X332228Y228201D01*
X332271Y228085D01*
X332319Y227970D01*
X332370Y227857D01*
X332425Y227745D01*
X332483Y227636D01*
X332544Y227528D01*
X332609Y227422D01*
X332677Y227318D01*
X332749Y227217D01*
X332823Y227117D01*
X332901Y227021D01*
X332981Y226926D01*
X333065Y226834D01*
X333151Y226745D01*
X333240Y226659D01*
X333332Y226575D01*
X333427Y226495D01*
X333523Y226417D01*
X333623Y226343D01*
X333724Y226271D01*
X333828Y226203D01*
X333934Y226138D01*
X334042Y226077D01*
X334151Y226019D01*
X334263Y225964D01*
X334376Y225913D01*
X334491Y225865D01*
X334607Y225822D01*
X334724Y225781D01*
X334843Y225745D01*
X334962Y225712D01*
X335083Y225683D01*
X335205Y225658D01*
X335327Y225637D01*
X335450Y225619D01*
X335573Y225606D01*
X335697Y225596D01*
X335821Y225590D01*
X335945Y225588D01*
X339896Y225588D01*
X250344Y286194D02*
X234946Y277304D01*
X250344Y286194D02*
X247875Y290471D01*
X247874Y290472D02*
X247803Y290592D01*
X247728Y290710D01*
X247649Y290825D01*
X247568Y290939D01*
X247483Y291050D01*
X247395Y291159D01*
X247305Y291265D01*
X247211Y291369D01*
X247114Y291470D01*
X247014Y291568D01*
X246912Y291663D01*
X246807Y291755D01*
X246700Y291845D01*
X246590Y291931D01*
X246477Y292014D01*
X246363Y292094D01*
X246246Y292171D01*
X246127Y292244D01*
X246006Y292314D01*
X245883Y292380D01*
X245758Y292443D01*
X245631Y292503D01*
X245503Y292558D01*
X245373Y292610D01*
X245242Y292659D01*
X245110Y292704D01*
X244976Y292745D01*
X244842Y292782D01*
X244706Y292815D01*
X244569Y292844D01*
X244432Y292870D01*
X244294Y292892D01*
X244155Y292909D01*
X244016Y292923D01*
X243876Y292933D01*
X243737Y292939D01*
X243597Y292941D01*
X243457Y292939D01*
X243318Y292933D01*
X243178Y292923D01*
X243039Y292909D01*
X242900Y292892D01*
X242762Y292870D01*
X242625Y292844D01*
X242488Y292815D01*
X242352Y292782D01*
X242218Y292744D01*
X242084Y292704D01*
X241952Y292659D01*
X241820Y292610D01*
X241691Y292558D01*
X241563Y292503D01*
X241436Y292443D01*
X241311Y292380D01*
X241188Y292314D01*
X241067Y292244D01*
X240948Y292171D01*
X240831Y292094D01*
X240717Y292014D01*
X240604Y291931D01*
X240494Y291845D01*
X240387Y291755D01*
X240282Y291663D01*
X240180Y291568D01*
X240080Y291470D01*
X239983Y291369D01*
X239889Y291265D01*
X239799Y291159D01*
X239711Y291050D01*
X239626Y290939D01*
X239545Y290825D01*
X239466Y290710D01*
X239391Y290592D01*
X239320Y290471D01*
X239252Y290349D01*
X239187Y290226D01*
X239126Y290100D01*
X239068Y289972D01*
X239014Y289844D01*
X238964Y289713D01*
X238917Y289581D01*
X238874Y289448D01*
X238835Y289314D01*
X238800Y289179D01*
X238769Y289043D01*
X238741Y288905D01*
X238718Y288768D01*
X238698Y288629D01*
X238682Y288490D01*
X238670Y288351D01*
X238662Y288212D01*
X238658Y288072D01*
X238658Y287932D01*
X238662Y287792D01*
X238670Y287653D01*
X238682Y287514D01*
X238698Y287375D01*
X238718Y287236D01*
X238741Y287098D01*
X238769Y286961D01*
X238800Y286825D01*
X238835Y286690D01*
X238874Y286556D01*
X238917Y286423D01*
X238964Y286291D01*
X239014Y286160D01*
X239068Y286032D01*
X239126Y285904D01*
X239187Y285778D01*
X239252Y285655D01*
X239320Y285532D01*
X241790Y281255D01*
X230370Y293131D02*
X240371Y303468D01*
X230370Y293131D02*
X225431Y301686D01*
X223491Y297144D02*
X230335Y301095D01*
X240034Y380757D02*
X240034Y398537D01*
X235095Y398537D01*
X234955Y398535D01*
X234816Y398529D01*
X234676Y398519D01*
X234537Y398505D01*
X234398Y398488D01*
X234260Y398466D01*
X234123Y398440D01*
X233986Y398411D01*
X233850Y398378D01*
X233716Y398341D01*
X233582Y398300D01*
X233450Y398255D01*
X233318Y398206D01*
X233189Y398154D01*
X233061Y398099D01*
X232934Y398039D01*
X232809Y397976D01*
X232686Y397910D01*
X232565Y397840D01*
X232446Y397767D01*
X232329Y397690D01*
X232215Y397610D01*
X232102Y397527D01*
X231992Y397441D01*
X231885Y397351D01*
X231780Y397259D01*
X231678Y397164D01*
X231578Y397066D01*
X231481Y396965D01*
X231387Y396861D01*
X231297Y396755D01*
X231209Y396646D01*
X231124Y396535D01*
X231043Y396421D01*
X230964Y396306D01*
X230889Y396188D01*
X230818Y396068D01*
X230750Y395945D01*
X230685Y395822D01*
X230624Y395696D01*
X230566Y395568D01*
X230512Y395440D01*
X230462Y395309D01*
X230415Y395177D01*
X230372Y395044D01*
X230333Y394910D01*
X230298Y394775D01*
X230267Y394639D01*
X230239Y394501D01*
X230216Y394364D01*
X230196Y394225D01*
X230180Y394086D01*
X230168Y393947D01*
X230160Y393808D01*
X230156Y393668D01*
X230156Y393528D01*
X230160Y393388D01*
X230168Y393249D01*
X230180Y393110D01*
X230196Y392971D01*
X230216Y392832D01*
X230239Y392695D01*
X230267Y392557D01*
X230298Y392421D01*
X230333Y392286D01*
X230372Y392152D01*
X230415Y392019D01*
X230462Y391887D01*
X230512Y391756D01*
X230566Y391628D01*
X230624Y391500D01*
X230685Y391374D01*
X230750Y391251D01*
X230818Y391129D01*
X230889Y391008D01*
X230964Y390890D01*
X231043Y390775D01*
X231124Y390661D01*
X231209Y390550D01*
X231297Y390441D01*
X231387Y390335D01*
X231481Y390231D01*
X231578Y390130D01*
X231678Y390032D01*
X231780Y389937D01*
X231885Y389845D01*
X231992Y389755D01*
X232102Y389669D01*
X232215Y389586D01*
X232329Y389506D01*
X232446Y389429D01*
X232565Y389356D01*
X232686Y389286D01*
X232809Y389220D01*
X232934Y389157D01*
X233061Y389097D01*
X233189Y389042D01*
X233318Y388990D01*
X233450Y388941D01*
X233582Y388896D01*
X233716Y388855D01*
X233850Y388818D01*
X233986Y388785D01*
X234123Y388756D01*
X234260Y388730D01*
X234398Y388708D01*
X234537Y388691D01*
X234676Y388677D01*
X234816Y388667D01*
X234955Y388661D01*
X235095Y388659D01*
X240034Y388659D01*
X224039Y380757D02*
X218113Y380757D01*
X217989Y380759D01*
X217865Y380765D01*
X217741Y380775D01*
X217618Y380788D01*
X217495Y380806D01*
X217373Y380827D01*
X217251Y380852D01*
X217130Y380881D01*
X217011Y380914D01*
X216892Y380950D01*
X216775Y380991D01*
X216659Y381034D01*
X216544Y381082D01*
X216431Y381133D01*
X216319Y381188D01*
X216210Y381246D01*
X216102Y381307D01*
X215996Y381372D01*
X215892Y381440D01*
X215791Y381512D01*
X215691Y381586D01*
X215595Y381664D01*
X215500Y381744D01*
X215408Y381828D01*
X215319Y381914D01*
X215233Y382003D01*
X215149Y382095D01*
X215069Y382190D01*
X214991Y382286D01*
X214917Y382386D01*
X214845Y382487D01*
X214777Y382591D01*
X214712Y382697D01*
X214651Y382805D01*
X214593Y382914D01*
X214538Y383026D01*
X214487Y383139D01*
X214439Y383254D01*
X214396Y383370D01*
X214355Y383487D01*
X214319Y383606D01*
X214286Y383725D01*
X214257Y383846D01*
X214232Y383968D01*
X214211Y384090D01*
X214193Y384213D01*
X214180Y384336D01*
X214170Y384460D01*
X214164Y384584D01*
X214162Y384708D01*
X214161Y384708D02*
X214161Y386683D01*
X214162Y386683D02*
X214164Y386807D01*
X214170Y386931D01*
X214180Y387055D01*
X214193Y387178D01*
X214211Y387301D01*
X214232Y387423D01*
X214257Y387545D01*
X214286Y387666D01*
X214319Y387785D01*
X214355Y387904D01*
X214396Y388021D01*
X214439Y388137D01*
X214487Y388252D01*
X214538Y388365D01*
X214593Y388477D01*
X214651Y388586D01*
X214712Y388694D01*
X214777Y388800D01*
X214845Y388904D01*
X214917Y389005D01*
X214991Y389105D01*
X215069Y389201D01*
X215149Y389296D01*
X215233Y389388D01*
X215319Y389477D01*
X215408Y389563D01*
X215500Y389647D01*
X215595Y389727D01*
X215691Y389805D01*
X215791Y389879D01*
X215892Y389951D01*
X215996Y390019D01*
X216102Y390084D01*
X216210Y390145D01*
X216319Y390203D01*
X216431Y390258D01*
X216544Y390309D01*
X216659Y390357D01*
X216775Y390400D01*
X216892Y390441D01*
X217011Y390477D01*
X217130Y390510D01*
X217251Y390539D01*
X217373Y390564D01*
X217495Y390585D01*
X217618Y390603D01*
X217741Y390616D01*
X217865Y390626D01*
X217989Y390632D01*
X218113Y390634D01*
X224039Y390634D01*
X224039Y398537D01*
X214161Y398537D01*
D12*
X259480Y493744D02*
X263267Y495224D01*
X259480Y493744D02*
X269379Y488029D01*
X267791Y485280D02*
X270966Y490779D01*
X262501Y482468D02*
X262403Y482522D01*
X262304Y482573D01*
X262202Y482620D01*
X262099Y482664D01*
X261994Y482704D01*
X261888Y482740D01*
X261781Y482772D01*
X261672Y482801D01*
X261563Y482826D01*
X261453Y482847D01*
X261342Y482864D01*
X261231Y482877D01*
X261119Y482886D01*
X261007Y482892D01*
X260895Y482893D01*
X260783Y482890D01*
X260671Y482884D01*
X260560Y482873D01*
X260449Y482859D01*
X260338Y482840D01*
X260228Y482818D01*
X260119Y482792D01*
X260011Y482762D01*
X259904Y482728D01*
X259799Y482691D01*
X259695Y482650D01*
X259592Y482605D01*
X259491Y482556D01*
X259392Y482504D01*
X259294Y482449D01*
X259199Y482390D01*
X259106Y482328D01*
X259015Y482262D01*
X258926Y482194D01*
X258840Y482122D01*
X258756Y482047D01*
X258676Y481970D01*
X258597Y481889D01*
X258522Y481806D01*
X258450Y481720D01*
X258381Y481632D01*
X258315Y481542D01*
X258252Y481449D01*
X258193Y481354D01*
X258137Y481257D01*
X258084Y481158D01*
X258035Y481057D01*
X257990Y480955D01*
X257948Y480851D01*
X257910Y480745D01*
X257875Y480639D01*
X257845Y480531D01*
X257818Y480422D01*
X257795Y480312D01*
X257776Y480202D01*
X257761Y480091D01*
X257750Y479979D01*
X257743Y479867D01*
X257739Y479755D01*
X257740Y479643D01*
X257744Y479531D01*
X257753Y479420D01*
X257766Y479308D01*
X257782Y479197D01*
X257802Y479087D01*
X257827Y478978D01*
X257855Y478869D01*
X257886Y478762D01*
X257922Y478656D01*
X257961Y478551D01*
X258004Y478447D01*
X258051Y478345D01*
X258101Y478245D01*
X258155Y478147D01*
X258212Y478050D01*
X258273Y477956D01*
X258337Y477864D01*
X258404Y477774D01*
X258474Y477687D01*
X258547Y477602D01*
X258623Y477520D01*
X258702Y477440D01*
X258784Y477364D01*
X258868Y477290D01*
X258955Y477219D01*
X259045Y477152D01*
X259136Y477087D01*
X259230Y477026D01*
X259326Y476968D01*
X259423Y476915D01*
X259522Y476864D01*
X259623Y476817D01*
X259725Y476774D01*
X259828Y476734D01*
X259933Y476698D01*
X260039Y476666D01*
X260146Y476637D01*
X260254Y476612D01*
X260363Y476591D01*
X260472Y476574D01*
X260582Y476560D01*
X260693Y476551D01*
X260803Y476545D01*
X260914Y476543D01*
X261025Y476545D01*
X261135Y476551D01*
X261246Y476560D01*
X261356Y476574D01*
X261465Y476591D01*
X261574Y476612D01*
X261682Y476637D01*
X261789Y476666D01*
X261895Y476698D01*
X262000Y476734D01*
X262103Y476774D01*
X262205Y476817D01*
X262306Y476864D01*
X262405Y476915D01*
X262502Y476968D01*
X262596Y477025D01*
X262689Y477086D01*
X262780Y477149D01*
X262869Y477216D01*
X262955Y477286D01*
X263038Y477359D01*
X263120Y477434D01*
X263198Y477512D01*
X263273Y477594D01*
X263346Y477677D01*
X263416Y477763D01*
X263483Y477852D01*
X263546Y477943D01*
X263607Y478036D01*
X263664Y478131D01*
X263717Y478227D01*
X263768Y478326D01*
X263815Y478427D01*
X263858Y478529D01*
X263898Y478632D01*
X263934Y478737D01*
X263966Y478843D01*
X263995Y478950D01*
X264020Y479058D01*
X264041Y479167D01*
X264058Y479276D01*
X264072Y479386D01*
X264081Y479497D01*
X264087Y479607D01*
X264089Y479718D01*
X264087Y479829D01*
X264081Y479939D01*
X264072Y480050D01*
X264058Y480160D01*
X264041Y480269D01*
X264020Y480378D01*
X263995Y480486D01*
X263966Y480593D01*
X263934Y480699D01*
X263898Y480804D01*
X263858Y480907D01*
X263815Y481009D01*
X263768Y481110D01*
X263717Y481209D01*
X263664Y481306D01*
X263607Y481401D01*
X263546Y481493D01*
X263483Y481584D01*
X263416Y481673D01*
X263346Y481759D01*
X263273Y481842D01*
X263198Y481924D01*
X263120Y482002D01*
X263038Y482077D01*
X262955Y482150D01*
X262869Y482220D01*
X262780Y482287D01*
X262689Y482350D01*
X262596Y482411D01*
X262501Y482468D01*
X257235Y484776D02*
X257148Y484824D01*
X257059Y484869D01*
X256968Y484910D01*
X256875Y484947D01*
X256781Y484981D01*
X256686Y485011D01*
X256590Y485038D01*
X256493Y485060D01*
X256395Y485079D01*
X256297Y485094D01*
X256197Y485105D01*
X256098Y485113D01*
X255998Y485116D01*
X255899Y485115D01*
X255799Y485111D01*
X255700Y485102D01*
X255601Y485090D01*
X255502Y485073D01*
X255404Y485053D01*
X255308Y485029D01*
X255212Y485002D01*
X255117Y484970D01*
X255024Y484935D01*
X254932Y484896D01*
X254842Y484854D01*
X254753Y484808D01*
X254666Y484759D01*
X254582Y484706D01*
X254499Y484650D01*
X254419Y484591D01*
X254341Y484529D01*
X254265Y484464D01*
X254193Y484395D01*
X254123Y484324D01*
X254055Y484251D01*
X253991Y484174D01*
X253930Y484096D01*
X253872Y484015D01*
X253817Y483931D01*
X253765Y483846D01*
X253717Y483759D01*
X253672Y483669D01*
X253631Y483579D01*
X253594Y483486D01*
X253560Y483392D01*
X253530Y483297D01*
X253503Y483201D01*
X253481Y483104D01*
X253462Y483006D01*
X253447Y482908D01*
X253436Y482808D01*
X253428Y482709D01*
X253425Y482609D01*
X253426Y482509D01*
X253430Y482410D01*
X253439Y482310D01*
X253451Y482212D01*
X253468Y482113D01*
X253488Y482015D01*
X253512Y481919D01*
X253539Y481823D01*
X253571Y481728D01*
X253606Y481635D01*
X253645Y481543D01*
X253687Y481453D01*
X253733Y481364D01*
X253782Y481277D01*
X253835Y481193D01*
X253891Y481110D01*
X253950Y481030D01*
X254012Y480952D01*
X254077Y480876D01*
X254146Y480804D01*
X254217Y480734D01*
X254290Y480666D01*
X254367Y480602D01*
X254445Y480541D01*
X254526Y480483D01*
X254610Y480428D01*
X254695Y480376D01*
X254782Y480328D01*
X254872Y480283D01*
X254962Y480242D01*
X255055Y480205D01*
X255149Y480171D01*
X255244Y480141D01*
X255340Y480114D01*
X255437Y480091D01*
X255535Y480073D01*
X255633Y480058D01*
X255733Y480047D01*
X255832Y480039D01*
X255932Y480036D01*
X256032Y480037D01*
X256131Y480041D01*
X256231Y480050D01*
X256329Y480062D01*
X256428Y480079D01*
X256526Y480099D01*
X256622Y480123D01*
X256718Y480150D01*
X256813Y480182D01*
X256906Y480217D01*
X256998Y480256D01*
X257088Y480298D01*
X257177Y480344D01*
X257264Y480393D01*
X257348Y480446D01*
X257431Y480502D01*
X257511Y480561D01*
X257589Y480623D01*
X257665Y480688D01*
X257737Y480757D01*
X257807Y480828D01*
X257875Y480901D01*
X257939Y480978D01*
X258000Y481056D01*
X258058Y481137D01*
X258113Y481221D01*
X258165Y481306D01*
X258213Y481393D01*
X258258Y481482D01*
X258299Y481573D01*
X258336Y481666D01*
X258370Y481760D01*
X258400Y481855D01*
X258427Y481951D01*
X258449Y482048D01*
X258468Y482146D01*
X258483Y482244D01*
X258494Y482344D01*
X258502Y482443D01*
X258505Y482543D01*
X258504Y482642D01*
X258500Y482742D01*
X258491Y482841D01*
X258479Y482940D01*
X258462Y483039D01*
X258442Y483137D01*
X258418Y483233D01*
X258391Y483329D01*
X258359Y483424D01*
X258324Y483517D01*
X258285Y483609D01*
X258243Y483699D01*
X258197Y483788D01*
X258148Y483875D01*
X258095Y483959D01*
X258039Y484042D01*
X257980Y484122D01*
X257918Y484200D01*
X257853Y484276D01*
X257784Y484348D01*
X257713Y484418D01*
X257640Y484486D01*
X257563Y484550D01*
X257485Y484611D01*
X257404Y484669D01*
X257320Y484724D01*
X257235Y484776D01*
X249955Y477247D02*
X257949Y468232D01*
X246145Y470647D01*
X243920Y459174D02*
X250519Y455364D01*
X243920Y459174D02*
X241063Y454224D01*
X241022Y454150D01*
X240984Y454073D01*
X240950Y453994D01*
X240920Y453915D01*
X240893Y453834D01*
X240869Y453751D01*
X240850Y453668D01*
X240834Y453584D01*
X240822Y453499D01*
X240813Y453414D01*
X240809Y453329D01*
X240808Y453244D01*
X240811Y453158D01*
X240818Y453073D01*
X240829Y452988D01*
X240844Y452904D01*
X240862Y452820D01*
X240884Y452738D01*
X240910Y452656D01*
X240940Y452576D01*
X240973Y452497D01*
X241009Y452420D01*
X241049Y452344D01*
X241092Y452271D01*
X241139Y452199D01*
X241189Y452129D01*
X241242Y452062D01*
X241297Y451997D01*
X241356Y451935D01*
X241417Y451876D01*
X241481Y451819D01*
X241548Y451765D01*
X241616Y451714D01*
X241687Y451667D01*
X241761Y451622D01*
X241760Y451622D02*
X246709Y448765D01*
X248614Y452064D02*
X242015Y455874D01*
X239051Y444390D02*
X237623Y441916D01*
X239052Y444390D02*
X239100Y444470D01*
X239151Y444547D01*
X239206Y444622D01*
X239264Y444695D01*
X239325Y444766D01*
X239388Y444834D01*
X239455Y444899D01*
X239524Y444961D01*
X239596Y445020D01*
X239670Y445077D01*
X239746Y445130D01*
X239825Y445180D01*
X239906Y445226D01*
X239988Y445269D01*
X240072Y445309D01*
X240158Y445345D01*
X240245Y445377D01*
X240334Y445406D01*
X240423Y445431D01*
X240514Y445452D01*
X240605Y445470D01*
X240698Y445483D01*
X240790Y445493D01*
X240883Y445499D01*
X240976Y445501D01*
X241069Y445499D01*
X241162Y445493D01*
X241254Y445483D01*
X241347Y445470D01*
X241438Y445452D01*
X241529Y445431D01*
X241618Y445406D01*
X241707Y445377D01*
X241794Y445345D01*
X241880Y445309D01*
X241964Y445269D01*
X242046Y445226D01*
X242127Y445180D01*
X242206Y445130D01*
X242282Y445077D01*
X242356Y445020D01*
X242428Y444961D01*
X242497Y444899D01*
X242564Y444834D01*
X242627Y444766D01*
X242688Y444695D01*
X242746Y444622D01*
X242801Y444547D01*
X242852Y444470D01*
X242900Y444390D01*
X242945Y444308D01*
X242987Y444225D01*
X243024Y444140D01*
X243059Y444054D01*
X243089Y443966D01*
X243116Y443877D01*
X243139Y443786D01*
X243159Y443695D01*
X243174Y443604D01*
X243186Y443511D01*
X243194Y443419D01*
X243198Y443326D01*
X243198Y443232D01*
X243194Y443139D01*
X243186Y443047D01*
X243174Y442954D01*
X243159Y442863D01*
X243139Y442772D01*
X243116Y442681D01*
X243089Y442592D01*
X243059Y442504D01*
X243024Y442418D01*
X242987Y442333D01*
X242945Y442250D01*
X242900Y442168D01*
X242901Y442168D02*
X241472Y439693D01*
X236523Y442551D01*
X236523Y442550D02*
X236449Y442595D01*
X236378Y442642D01*
X236310Y442693D01*
X236243Y442747D01*
X236179Y442804D01*
X236118Y442863D01*
X236059Y442925D01*
X236004Y442990D01*
X235951Y443057D01*
X235901Y443127D01*
X235854Y443199D01*
X235811Y443272D01*
X235771Y443348D01*
X235735Y443425D01*
X235702Y443504D01*
X235672Y443584D01*
X235646Y443666D01*
X235624Y443748D01*
X235606Y443832D01*
X235591Y443916D01*
X235580Y444001D01*
X235573Y444086D01*
X235570Y444172D01*
X235571Y444257D01*
X235575Y444342D01*
X235584Y444427D01*
X235596Y444512D01*
X235612Y444596D01*
X235631Y444679D01*
X235655Y444762D01*
X235682Y444843D01*
X235712Y444922D01*
X235746Y445001D01*
X235784Y445078D01*
X235825Y445152D01*
X235825Y445153D02*
X237095Y447353D01*
X239026Y435456D02*
X229887Y434867D01*
X232427Y439266D02*
X236486Y431057D01*
X461499Y441026D02*
X461590Y441077D01*
X461683Y441124D01*
X461778Y441168D01*
X461874Y441208D01*
X461972Y441245D01*
X462071Y441278D01*
X462171Y441307D01*
X462272Y441333D01*
X462374Y441355D01*
X462477Y441373D01*
X462580Y441388D01*
X462684Y441399D01*
X462788Y441406D01*
X462892Y441409D01*
X462997Y441408D01*
X463101Y441404D01*
X463205Y441395D01*
X463309Y441383D01*
X463412Y441368D01*
X463514Y441348D01*
X463616Y441325D01*
X463717Y441298D01*
X463817Y441267D01*
X463915Y441233D01*
X464012Y441195D01*
X464108Y441153D01*
X464202Y441109D01*
X464295Y441060D01*
X464386Y441009D01*
X464474Y440954D01*
X464561Y440896D01*
X464645Y440834D01*
X464728Y440770D01*
X464808Y440703D01*
X464885Y440633D01*
X464959Y440560D01*
X465031Y440484D01*
X465101Y440406D01*
X465167Y440326D01*
X465230Y440243D01*
X465290Y440157D01*
X465347Y440070D01*
X465401Y439980D01*
X465459Y439877D01*
X465513Y439772D01*
X465564Y439665D01*
X465611Y439556D01*
X465655Y439446D01*
X465695Y439335D01*
X465731Y439222D01*
X465764Y439109D01*
X465793Y438994D01*
X465819Y438878D01*
X465841Y438762D01*
X465859Y438645D01*
X465873Y438528D01*
X465883Y438410D01*
X465890Y438291D01*
X465893Y438173D01*
X465892Y438055D01*
X465887Y437936D01*
X465878Y437818D01*
X465866Y437701D01*
X465850Y437583D01*
X465830Y437467D01*
X465806Y437351D01*
X465779Y437236D01*
X465747Y437122D01*
X465713Y437008D01*
X465674Y436896D01*
X465632Y436786D01*
X465587Y436677D01*
X465537Y436569D01*
X465485Y436463D01*
X465429Y436358D01*
X465370Y436256D01*
X465307Y436155D01*
X465241Y436057D01*
X465173Y435961D01*
X465101Y435867D01*
X465026Y435775D01*
X464948Y435686D01*
X460050Y439090D02*
X460077Y439194D01*
X460108Y439298D01*
X460143Y439400D01*
X460181Y439501D01*
X460223Y439601D01*
X460268Y439699D01*
X460316Y439796D01*
X460368Y439890D01*
X460424Y439983D01*
X460482Y440074D01*
X460544Y440163D01*
X460608Y440249D01*
X460676Y440334D01*
X460747Y440415D01*
X460820Y440495D01*
X460896Y440571D01*
X460975Y440645D01*
X461057Y440716D01*
X461141Y440784D01*
X461227Y440849D01*
X461315Y440911D01*
X461406Y440970D01*
X461498Y441026D01*
X460050Y439090D02*
X457249Y431241D01*
X454074Y436740D01*
X456484Y443997D02*
X456678Y444112D01*
X456868Y444231D01*
X457056Y444355D01*
X457240Y444483D01*
X457422Y444616D01*
X457600Y444753D01*
X457775Y444894D01*
X457947Y445039D01*
X458115Y445189D01*
X458280Y445342D01*
X458440Y445499D01*
X458597Y445660D01*
X458750Y445825D01*
X458899Y445993D01*
X459044Y446165D01*
X459185Y446341D01*
X459322Y446519D01*
X459454Y446701D01*
X459582Y446886D01*
X459642Y446958D01*
X459699Y447032D01*
X459754Y447109D01*
X459805Y447188D01*
X459853Y447268D01*
X459898Y447351D01*
X459939Y447435D01*
X459978Y447521D01*
X460012Y447609D01*
X460043Y447697D01*
X460071Y447787D01*
X460094Y447878D01*
X460115Y447970D01*
X460131Y448062D01*
X460144Y448156D01*
X460153Y448249D01*
X460158Y448343D01*
X460160Y448437D01*
X460158Y448531D01*
X460152Y448625D01*
X460142Y448718D01*
X460129Y448811D01*
X460112Y448904D01*
X460091Y448995D01*
X460066Y449086D01*
X460038Y449176D01*
X460006Y449264D01*
X459971Y449351D01*
X459933Y449437D01*
X459891Y449521D01*
X459845Y449604D01*
X459845Y449603D02*
X459797Y449684D01*
X459745Y449762D01*
X459690Y449839D01*
X459632Y449913D01*
X459571Y449984D01*
X459508Y450054D01*
X459441Y450120D01*
X459372Y450184D01*
X459301Y450245D01*
X459227Y450303D01*
X459151Y450358D01*
X459073Y450410D01*
X458992Y450459D01*
X458910Y450505D01*
X458826Y450547D01*
X458741Y450586D01*
X458654Y450622D01*
X458565Y450654D01*
X458476Y450682D01*
X458385Y450707D01*
X458293Y450728D01*
X458201Y450745D01*
X458108Y450759D01*
X458015Y450769D01*
X457921Y450775D01*
X457827Y450778D01*
X457733Y450777D01*
X457639Y450772D01*
X457545Y450763D01*
X457452Y450750D01*
X457360Y450734D01*
X457360Y450735D02*
X457135Y450717D01*
X456912Y450693D01*
X456689Y450664D01*
X456467Y450629D01*
X456245Y450590D01*
X456025Y450545D01*
X455806Y450495D01*
X455588Y450439D01*
X455371Y450378D01*
X455156Y450313D01*
X454943Y450242D01*
X454731Y450166D01*
X454522Y450085D01*
X454314Y449999D01*
X454108Y449908D01*
X453905Y449812D01*
X453704Y449712D01*
X453505Y449606D01*
X453309Y449496D01*
X456484Y443997D02*
X456288Y443887D01*
X456089Y443782D01*
X455888Y443681D01*
X455685Y443585D01*
X455479Y443494D01*
X455271Y443408D01*
X455061Y443327D01*
X454850Y443251D01*
X454636Y443180D01*
X454421Y443115D01*
X454205Y443054D01*
X453987Y442999D01*
X453768Y442948D01*
X453547Y442903D01*
X453326Y442864D01*
X453104Y442829D01*
X452881Y442800D01*
X452657Y442776D01*
X452433Y442758D01*
X452341Y442742D01*
X452248Y442729D01*
X452154Y442720D01*
X452060Y442715D01*
X451966Y442714D01*
X451872Y442717D01*
X451778Y442723D01*
X451685Y442733D01*
X451592Y442747D01*
X451499Y442764D01*
X451408Y442785D01*
X451317Y442810D01*
X451227Y442838D01*
X451139Y442870D01*
X451052Y442906D01*
X450966Y442945D01*
X450882Y442987D01*
X450800Y443033D01*
X450720Y443082D01*
X450642Y443134D01*
X450565Y443189D01*
X450492Y443247D01*
X450420Y443308D01*
X450351Y443372D01*
X450285Y443439D01*
X450221Y443508D01*
X450160Y443580D01*
X450102Y443654D01*
X450047Y443730D01*
X449995Y443808D01*
X449947Y443889D01*
X450210Y446607D02*
X450338Y446792D01*
X450471Y446974D01*
X450607Y447153D01*
X450748Y447328D01*
X450893Y447500D01*
X451042Y447668D01*
X451195Y447833D01*
X451352Y447994D01*
X451513Y448151D01*
X451678Y448304D01*
X451846Y448454D01*
X452017Y448599D01*
X452192Y448740D01*
X452371Y448877D01*
X452552Y449010D01*
X452737Y449138D01*
X452925Y449262D01*
X453115Y449381D01*
X453309Y449496D01*
X450210Y446607D02*
X450150Y446535D01*
X450093Y446461D01*
X450038Y446384D01*
X449987Y446305D01*
X449939Y446225D01*
X449894Y446142D01*
X449853Y446058D01*
X449815Y445972D01*
X449780Y445884D01*
X449749Y445796D01*
X449721Y445706D01*
X449698Y445615D01*
X449677Y445523D01*
X449661Y445431D01*
X449648Y445337D01*
X449639Y445244D01*
X449634Y445150D01*
X449632Y445056D01*
X449634Y444962D01*
X449640Y444868D01*
X449650Y444775D01*
X449663Y444682D01*
X449680Y444589D01*
X449701Y444498D01*
X449726Y444407D01*
X449754Y444317D01*
X449786Y444229D01*
X449821Y444142D01*
X449859Y444056D01*
X449901Y443972D01*
X449947Y443890D01*
X453416Y442959D02*
X456376Y450534D01*
X454130Y459503D02*
X446137Y450488D01*
X442327Y457087D02*
X454130Y459503D01*
X445278Y457691D02*
X448135Y452742D01*
X436802Y466656D02*
X443401Y470466D01*
X440544Y475415D01*
X440499Y475489D01*
X440452Y475560D01*
X440401Y475628D01*
X440347Y475695D01*
X440290Y475759D01*
X440231Y475820D01*
X440169Y475879D01*
X440104Y475934D01*
X440037Y475987D01*
X439967Y476037D01*
X439895Y476084D01*
X439822Y476127D01*
X439746Y476167D01*
X439669Y476203D01*
X439590Y476236D01*
X439510Y476266D01*
X439428Y476292D01*
X439346Y476314D01*
X439262Y476332D01*
X439178Y476347D01*
X439093Y476358D01*
X439008Y476365D01*
X438922Y476368D01*
X438837Y476367D01*
X438752Y476363D01*
X438667Y476354D01*
X438582Y476342D01*
X438498Y476326D01*
X438415Y476307D01*
X438332Y476283D01*
X438251Y476256D01*
X438172Y476226D01*
X438093Y476192D01*
X438016Y476154D01*
X437942Y476113D01*
X432992Y473255D01*
X434897Y469956D02*
X441496Y473766D01*
X433033Y482074D02*
X431604Y484549D01*
X433033Y482074D02*
X433078Y481993D01*
X433119Y481910D01*
X433157Y481824D01*
X433192Y481738D01*
X433222Y481650D01*
X433249Y481561D01*
X433272Y481471D01*
X433292Y481380D01*
X433307Y481288D01*
X433319Y481195D01*
X433327Y481103D01*
X433331Y481010D01*
X433331Y480916D01*
X433327Y480823D01*
X433319Y480731D01*
X433307Y480638D01*
X433292Y480546D01*
X433272Y480455D01*
X433249Y480365D01*
X433222Y480276D01*
X433192Y480188D01*
X433157Y480102D01*
X433119Y480016D01*
X433078Y479933D01*
X433033Y479851D01*
X432985Y479772D01*
X432933Y479694D01*
X432879Y479619D01*
X432821Y479546D01*
X432760Y479476D01*
X432696Y479408D01*
X432630Y479342D01*
X432561Y479280D01*
X432489Y479221D01*
X432415Y479165D01*
X432338Y479111D01*
X432260Y479062D01*
X432179Y479015D01*
X432096Y478972D01*
X432012Y478932D01*
X431926Y478896D01*
X431839Y478864D01*
X431751Y478835D01*
X431661Y478810D01*
X431570Y478789D01*
X431479Y478771D01*
X431387Y478758D01*
X431294Y478748D01*
X431201Y478742D01*
X431108Y478740D01*
X431015Y478742D01*
X430922Y478748D01*
X430829Y478758D01*
X430737Y478771D01*
X430646Y478789D01*
X430555Y478810D01*
X430465Y478835D01*
X430377Y478864D01*
X430290Y478896D01*
X430204Y478932D01*
X430120Y478972D01*
X430037Y479015D01*
X429956Y479062D01*
X429878Y479111D01*
X429801Y479165D01*
X429727Y479221D01*
X429655Y479280D01*
X429586Y479343D01*
X429520Y479408D01*
X429456Y479476D01*
X429395Y479546D01*
X429337Y479619D01*
X429283Y479694D01*
X429231Y479772D01*
X429183Y479852D01*
X429184Y479852D02*
X427755Y482326D01*
X432704Y485184D01*
X432705Y485184D02*
X432779Y485225D01*
X432856Y485263D01*
X432935Y485297D01*
X433014Y485327D01*
X433095Y485354D01*
X433178Y485378D01*
X433261Y485397D01*
X433345Y485413D01*
X433430Y485425D01*
X433515Y485434D01*
X433600Y485438D01*
X433685Y485439D01*
X433771Y485436D01*
X433856Y485429D01*
X433941Y485418D01*
X434025Y485403D01*
X434109Y485385D01*
X434191Y485363D01*
X434273Y485337D01*
X434353Y485307D01*
X434432Y485274D01*
X434509Y485238D01*
X434585Y485198D01*
X434658Y485155D01*
X434730Y485108D01*
X434800Y485058D01*
X434867Y485005D01*
X434932Y484950D01*
X434994Y484891D01*
X435053Y484830D01*
X435110Y484766D01*
X435164Y484699D01*
X435215Y484631D01*
X435262Y484560D01*
X435307Y484486D01*
X435307Y484487D02*
X436577Y482287D01*
X425309Y486563D02*
X429368Y494773D01*
X431908Y490373D02*
X422769Y490963D01*
D10*
X413951Y493522D02*
X413951Y480314D01*
X413951Y493522D02*
X410282Y493522D01*
X410162Y493520D01*
X410042Y493514D01*
X409922Y493504D01*
X409803Y493491D01*
X409684Y493473D01*
X409566Y493452D01*
X409449Y493426D01*
X409332Y493397D01*
X409217Y493364D01*
X409103Y493327D01*
X408990Y493287D01*
X408878Y493243D01*
X408768Y493195D01*
X408659Y493144D01*
X408552Y493089D01*
X408448Y493030D01*
X408345Y492969D01*
X408244Y492904D01*
X408145Y492835D01*
X408048Y492764D01*
X407954Y492689D01*
X407863Y492612D01*
X407774Y492531D01*
X407688Y492447D01*
X407604Y492361D01*
X407523Y492272D01*
X407446Y492181D01*
X407371Y492087D01*
X407300Y491990D01*
X407231Y491891D01*
X407166Y491790D01*
X407105Y491688D01*
X407046Y491583D01*
X406991Y491476D01*
X406940Y491367D01*
X406892Y491257D01*
X406848Y491145D01*
X406808Y491032D01*
X406771Y490918D01*
X406738Y490803D01*
X406709Y490686D01*
X406683Y490569D01*
X406662Y490451D01*
X406644Y490332D01*
X406631Y490213D01*
X406621Y490093D01*
X406615Y489973D01*
X406613Y489853D01*
X406615Y489733D01*
X406621Y489613D01*
X406631Y489493D01*
X406644Y489374D01*
X406662Y489255D01*
X406683Y489137D01*
X406709Y489020D01*
X406738Y488903D01*
X406771Y488788D01*
X406808Y488674D01*
X406848Y488561D01*
X406892Y488449D01*
X406940Y488339D01*
X406991Y488230D01*
X407046Y488123D01*
X407105Y488019D01*
X407166Y487916D01*
X407231Y487815D01*
X407300Y487716D01*
X407371Y487619D01*
X407446Y487525D01*
X407523Y487434D01*
X407604Y487345D01*
X407688Y487259D01*
X407774Y487175D01*
X407863Y487094D01*
X407954Y487017D01*
X408048Y486942D01*
X408145Y486871D01*
X408244Y486802D01*
X408345Y486737D01*
X408448Y486676D01*
X408552Y486617D01*
X408659Y486562D01*
X408768Y486511D01*
X408878Y486463D01*
X408990Y486419D01*
X409103Y486379D01*
X409217Y486342D01*
X409332Y486309D01*
X409449Y486280D01*
X409566Y486254D01*
X409684Y486233D01*
X409803Y486215D01*
X409922Y486202D01*
X410042Y486192D01*
X410162Y486186D01*
X410282Y486184D01*
X413951Y486184D01*
X402250Y493522D02*
X399315Y480314D01*
X396380Y489119D01*
X393445Y480314D01*
X390510Y493522D01*
X385036Y493522D02*
X385036Y480314D01*
X385036Y493522D02*
X381367Y493522D01*
X381247Y493520D01*
X381127Y493514D01*
X381007Y493504D01*
X380888Y493491D01*
X380769Y493473D01*
X380651Y493452D01*
X380534Y493426D01*
X380417Y493397D01*
X380302Y493364D01*
X380188Y493327D01*
X380075Y493287D01*
X379963Y493243D01*
X379853Y493195D01*
X379744Y493144D01*
X379637Y493089D01*
X379533Y493030D01*
X379430Y492969D01*
X379329Y492904D01*
X379230Y492835D01*
X379133Y492764D01*
X379039Y492689D01*
X378948Y492612D01*
X378859Y492531D01*
X378773Y492447D01*
X378689Y492361D01*
X378608Y492272D01*
X378531Y492181D01*
X378456Y492087D01*
X378385Y491990D01*
X378316Y491891D01*
X378251Y491790D01*
X378190Y491688D01*
X378131Y491583D01*
X378076Y491476D01*
X378025Y491367D01*
X377977Y491257D01*
X377933Y491145D01*
X377893Y491032D01*
X377856Y490918D01*
X377823Y490803D01*
X377794Y490686D01*
X377768Y490569D01*
X377747Y490451D01*
X377729Y490332D01*
X377716Y490213D01*
X377706Y490093D01*
X377700Y489973D01*
X377698Y489853D01*
X377700Y489733D01*
X377706Y489613D01*
X377716Y489493D01*
X377729Y489374D01*
X377747Y489255D01*
X377768Y489137D01*
X377794Y489020D01*
X377823Y488903D01*
X377856Y488788D01*
X377893Y488674D01*
X377933Y488561D01*
X377977Y488449D01*
X378025Y488339D01*
X378076Y488230D01*
X378131Y488123D01*
X378190Y488019D01*
X378251Y487916D01*
X378316Y487815D01*
X378385Y487716D01*
X378456Y487619D01*
X378531Y487525D01*
X378608Y487434D01*
X378689Y487345D01*
X378773Y487259D01*
X378859Y487175D01*
X378948Y487094D01*
X379039Y487017D01*
X379133Y486942D01*
X379230Y486871D01*
X379329Y486802D01*
X379430Y486737D01*
X379533Y486676D01*
X379637Y486617D01*
X379744Y486562D01*
X379853Y486511D01*
X379963Y486463D01*
X380075Y486419D01*
X380188Y486379D01*
X380302Y486342D01*
X380417Y486309D01*
X380534Y486280D01*
X380651Y486254D01*
X380769Y486233D01*
X380888Y486215D01*
X381007Y486202D01*
X381127Y486192D01*
X381247Y486186D01*
X381367Y486184D01*
X385036Y486184D01*
X380633Y486184D02*
X377698Y480314D01*
X358949Y429232D02*
X356748Y429232D01*
X356748Y421894D01*
X361151Y421894D01*
X361258Y421896D01*
X361365Y421902D01*
X361472Y421912D01*
X361578Y421925D01*
X361684Y421943D01*
X361789Y421964D01*
X361893Y421989D01*
X361997Y422018D01*
X362099Y422051D01*
X362199Y422088D01*
X362299Y422128D01*
X362397Y422172D01*
X362493Y422219D01*
X362587Y422270D01*
X362680Y422324D01*
X362770Y422381D01*
X362859Y422442D01*
X362945Y422506D01*
X363028Y422573D01*
X363110Y422643D01*
X363188Y422716D01*
X363264Y422792D01*
X363337Y422870D01*
X363407Y422952D01*
X363474Y423035D01*
X363538Y423121D01*
X363599Y423210D01*
X363656Y423300D01*
X363710Y423393D01*
X363761Y423487D01*
X363809Y423583D01*
X363852Y423681D01*
X363892Y423781D01*
X363929Y423881D01*
X363962Y423983D01*
X363991Y424087D01*
X364016Y424191D01*
X364037Y424296D01*
X364055Y424402D01*
X364068Y424508D01*
X364078Y424615D01*
X364084Y424722D01*
X364086Y424829D01*
X364086Y432167D01*
X364084Y432274D01*
X364078Y432381D01*
X364068Y432488D01*
X364055Y432594D01*
X364037Y432700D01*
X364016Y432805D01*
X363991Y432909D01*
X363962Y433013D01*
X363929Y433115D01*
X363892Y433215D01*
X363852Y433315D01*
X363808Y433413D01*
X363761Y433509D01*
X363710Y433603D01*
X363656Y433696D01*
X363599Y433786D01*
X363538Y433875D01*
X363474Y433961D01*
X363407Y434044D01*
X363337Y434126D01*
X363264Y434204D01*
X363188Y434280D01*
X363110Y434353D01*
X363028Y434423D01*
X362945Y434490D01*
X362859Y434554D01*
X362770Y434615D01*
X362680Y434672D01*
X362587Y434726D01*
X362493Y434777D01*
X362397Y434824D01*
X362299Y434868D01*
X362200Y434908D01*
X362099Y434945D01*
X361997Y434978D01*
X361893Y435007D01*
X361789Y435032D01*
X361684Y435053D01*
X361578Y435071D01*
X361472Y435084D01*
X361365Y435094D01*
X361258Y435100D01*
X361151Y435102D01*
X356748Y435102D01*
X350431Y435102D02*
X350431Y421894D01*
X343093Y421894D02*
X350431Y435102D01*
X343093Y435102D02*
X343093Y421894D01*
X336776Y421894D02*
X336776Y435102D01*
X333107Y435102D01*
X332987Y435100D01*
X332867Y435094D01*
X332747Y435084D01*
X332628Y435071D01*
X332509Y435053D01*
X332391Y435032D01*
X332274Y435006D01*
X332157Y434977D01*
X332042Y434944D01*
X331928Y434907D01*
X331815Y434867D01*
X331703Y434823D01*
X331593Y434775D01*
X331484Y434724D01*
X331377Y434669D01*
X331273Y434610D01*
X331170Y434549D01*
X331069Y434484D01*
X330970Y434415D01*
X330873Y434344D01*
X330779Y434269D01*
X330688Y434192D01*
X330599Y434111D01*
X330513Y434027D01*
X330429Y433941D01*
X330348Y433852D01*
X330271Y433761D01*
X330196Y433667D01*
X330125Y433570D01*
X330056Y433471D01*
X329991Y433370D01*
X329930Y433268D01*
X329871Y433163D01*
X329816Y433056D01*
X329765Y432947D01*
X329717Y432837D01*
X329673Y432725D01*
X329633Y432612D01*
X329596Y432498D01*
X329563Y432383D01*
X329534Y432266D01*
X329508Y432149D01*
X329487Y432031D01*
X329469Y431912D01*
X329456Y431793D01*
X329446Y431673D01*
X329440Y431553D01*
X329438Y431433D01*
X329438Y425563D01*
X329440Y425443D01*
X329446Y425323D01*
X329456Y425203D01*
X329469Y425084D01*
X329487Y424965D01*
X329508Y424847D01*
X329534Y424730D01*
X329563Y424613D01*
X329596Y424498D01*
X329633Y424384D01*
X329673Y424271D01*
X329717Y424159D01*
X329765Y424049D01*
X329816Y423940D01*
X329871Y423833D01*
X329930Y423729D01*
X329991Y423626D01*
X330056Y423525D01*
X330125Y423426D01*
X330196Y423329D01*
X330271Y423235D01*
X330348Y423144D01*
X330429Y423055D01*
X330513Y422969D01*
X330599Y422885D01*
X330688Y422804D01*
X330779Y422727D01*
X330873Y422652D01*
X330970Y422581D01*
X331069Y422512D01*
X331170Y422447D01*
X331273Y422386D01*
X331377Y422327D01*
X331484Y422272D01*
X331593Y422221D01*
X331703Y422173D01*
X331815Y422129D01*
X331928Y422089D01*
X332042Y422052D01*
X332157Y422019D01*
X332274Y421990D01*
X332391Y421964D01*
X332509Y421943D01*
X332628Y421925D01*
X332747Y421912D01*
X332867Y421902D01*
X332987Y421896D01*
X333107Y421894D01*
X336776Y421894D01*
X318840Y481584D02*
X318840Y494792D01*
X318840Y481584D02*
X312969Y481584D01*
X308196Y485253D02*
X308196Y491123D01*
X308194Y491243D01*
X308188Y491363D01*
X308178Y491483D01*
X308165Y491602D01*
X308147Y491721D01*
X308126Y491839D01*
X308100Y491956D01*
X308071Y492073D01*
X308038Y492188D01*
X308001Y492302D01*
X307961Y492415D01*
X307917Y492527D01*
X307869Y492637D01*
X307818Y492746D01*
X307763Y492853D01*
X307704Y492958D01*
X307643Y493060D01*
X307578Y493161D01*
X307509Y493260D01*
X307438Y493357D01*
X307363Y493451D01*
X307286Y493542D01*
X307205Y493631D01*
X307121Y493717D01*
X307035Y493801D01*
X306946Y493882D01*
X306855Y493959D01*
X306761Y494034D01*
X306664Y494105D01*
X306565Y494174D01*
X306464Y494239D01*
X306362Y494300D01*
X306257Y494359D01*
X306150Y494414D01*
X306041Y494465D01*
X305931Y494513D01*
X305819Y494557D01*
X305706Y494597D01*
X305592Y494634D01*
X305477Y494667D01*
X305360Y494696D01*
X305243Y494722D01*
X305125Y494743D01*
X305006Y494761D01*
X304887Y494774D01*
X304767Y494784D01*
X304647Y494790D01*
X304527Y494792D01*
X304407Y494790D01*
X304287Y494784D01*
X304167Y494774D01*
X304048Y494761D01*
X303929Y494743D01*
X303811Y494722D01*
X303694Y494696D01*
X303577Y494667D01*
X303462Y494634D01*
X303348Y494597D01*
X303235Y494557D01*
X303123Y494513D01*
X303013Y494465D01*
X302904Y494414D01*
X302797Y494359D01*
X302693Y494300D01*
X302590Y494239D01*
X302489Y494174D01*
X302390Y494105D01*
X302293Y494034D01*
X302199Y493959D01*
X302108Y493882D01*
X302019Y493801D01*
X301933Y493717D01*
X301849Y493631D01*
X301768Y493542D01*
X301691Y493451D01*
X301616Y493357D01*
X301545Y493260D01*
X301476Y493161D01*
X301411Y493060D01*
X301350Y492958D01*
X301291Y492853D01*
X301236Y492746D01*
X301185Y492637D01*
X301137Y492527D01*
X301093Y492415D01*
X301053Y492302D01*
X301016Y492188D01*
X300983Y492073D01*
X300954Y491956D01*
X300928Y491839D01*
X300907Y491721D01*
X300889Y491602D01*
X300876Y491483D01*
X300866Y491363D01*
X300860Y491243D01*
X300858Y491123D01*
X300858Y485253D01*
X300860Y485133D01*
X300866Y485013D01*
X300876Y484893D01*
X300889Y484774D01*
X300907Y484655D01*
X300928Y484537D01*
X300954Y484420D01*
X300983Y484303D01*
X301016Y484188D01*
X301053Y484074D01*
X301093Y483961D01*
X301137Y483849D01*
X301185Y483739D01*
X301236Y483630D01*
X301291Y483523D01*
X301350Y483419D01*
X301411Y483316D01*
X301476Y483215D01*
X301545Y483116D01*
X301616Y483019D01*
X301691Y482925D01*
X301768Y482834D01*
X301849Y482745D01*
X301933Y482659D01*
X302019Y482575D01*
X302108Y482494D01*
X302199Y482417D01*
X302293Y482342D01*
X302390Y482271D01*
X302489Y482202D01*
X302590Y482137D01*
X302693Y482076D01*
X302797Y482017D01*
X302904Y481962D01*
X303013Y481911D01*
X303123Y481863D01*
X303235Y481819D01*
X303348Y481779D01*
X303462Y481742D01*
X303577Y481709D01*
X303694Y481680D01*
X303811Y481654D01*
X303929Y481633D01*
X304048Y481615D01*
X304167Y481602D01*
X304287Y481592D01*
X304407Y481586D01*
X304527Y481584D01*
X304647Y481586D01*
X304767Y481592D01*
X304887Y481602D01*
X305006Y481615D01*
X305125Y481633D01*
X305243Y481654D01*
X305360Y481680D01*
X305477Y481709D01*
X305592Y481742D01*
X305706Y481779D01*
X305819Y481819D01*
X305931Y481863D01*
X306041Y481911D01*
X306150Y481962D01*
X306257Y482017D01*
X306362Y482076D01*
X306464Y482137D01*
X306565Y482202D01*
X306664Y482271D01*
X306761Y482342D01*
X306855Y482417D01*
X306946Y482494D01*
X307035Y482575D01*
X307121Y482659D01*
X307205Y482745D01*
X307286Y482834D01*
X307363Y482925D01*
X307438Y483019D01*
X307509Y483116D01*
X307578Y483215D01*
X307643Y483316D01*
X307704Y483419D01*
X307763Y483523D01*
X307818Y483630D01*
X307869Y483739D01*
X307917Y483849D01*
X307961Y483961D01*
X308001Y484074D01*
X308038Y484188D01*
X308071Y484303D01*
X308100Y484420D01*
X308126Y484537D01*
X308147Y484655D01*
X308165Y484774D01*
X308178Y484893D01*
X308188Y485013D01*
X308194Y485133D01*
X308196Y485253D01*
X296128Y481584D02*
X291725Y494792D01*
X287323Y481584D01*
X288423Y484886D02*
X295027Y484886D01*
X282166Y481584D02*
X282166Y494792D01*
X278497Y494792D01*
X278377Y494790D01*
X278257Y494784D01*
X278137Y494774D01*
X278018Y494761D01*
X277899Y494743D01*
X277781Y494722D01*
X277664Y494696D01*
X277547Y494667D01*
X277432Y494634D01*
X277318Y494597D01*
X277205Y494557D01*
X277093Y494513D01*
X276983Y494465D01*
X276874Y494414D01*
X276767Y494359D01*
X276663Y494300D01*
X276560Y494239D01*
X276459Y494174D01*
X276360Y494105D01*
X276263Y494034D01*
X276169Y493959D01*
X276078Y493882D01*
X275989Y493801D01*
X275903Y493717D01*
X275819Y493631D01*
X275738Y493542D01*
X275661Y493451D01*
X275586Y493357D01*
X275515Y493260D01*
X275446Y493161D01*
X275381Y493060D01*
X275320Y492958D01*
X275261Y492853D01*
X275206Y492746D01*
X275155Y492637D01*
X275107Y492527D01*
X275063Y492415D01*
X275023Y492302D01*
X274986Y492188D01*
X274953Y492073D01*
X274924Y491956D01*
X274898Y491839D01*
X274877Y491721D01*
X274859Y491602D01*
X274846Y491483D01*
X274836Y491363D01*
X274830Y491243D01*
X274828Y491123D01*
X274828Y485253D01*
X274830Y485133D01*
X274836Y485013D01*
X274846Y484893D01*
X274859Y484774D01*
X274877Y484655D01*
X274898Y484537D01*
X274924Y484420D01*
X274953Y484303D01*
X274986Y484188D01*
X275023Y484074D01*
X275063Y483961D01*
X275107Y483849D01*
X275155Y483739D01*
X275206Y483630D01*
X275261Y483523D01*
X275320Y483419D01*
X275381Y483316D01*
X275446Y483215D01*
X275515Y483116D01*
X275586Y483019D01*
X275661Y482925D01*
X275738Y482834D01*
X275819Y482745D01*
X275903Y482659D01*
X275989Y482575D01*
X276078Y482494D01*
X276169Y482417D01*
X276263Y482342D01*
X276360Y482271D01*
X276459Y482202D01*
X276560Y482137D01*
X276663Y482076D01*
X276767Y482017D01*
X276874Y481962D01*
X276983Y481911D01*
X277093Y481863D01*
X277205Y481819D01*
X277318Y481779D01*
X277432Y481742D01*
X277547Y481709D01*
X277664Y481680D01*
X277781Y481654D01*
X277899Y481633D01*
X278018Y481615D01*
X278137Y481602D01*
X278257Y481592D01*
X278377Y481586D01*
X278497Y481584D01*
X282166Y481584D01*
X388094Y306070D02*
X388096Y306154D01*
X388102Y306238D01*
X388112Y306322D01*
X388125Y306405D01*
X388143Y306487D01*
X388165Y306569D01*
X388190Y306649D01*
X388219Y306728D01*
X388252Y306806D01*
X388288Y306882D01*
X388328Y306956D01*
X388371Y307028D01*
X388417Y307098D01*
X388467Y307166D01*
X388520Y307232D01*
X388576Y307295D01*
X388635Y307355D01*
X388697Y307412D01*
X388761Y307467D01*
X388828Y307518D01*
X388897Y307566D01*
X388968Y307611D01*
X389041Y307653D01*
X389116Y307691D01*
X389193Y307725D01*
X389271Y307756D01*
X389351Y307783D01*
X389432Y307807D01*
X389514Y307826D01*
X389597Y307842D01*
X389680Y307854D01*
X389764Y307862D01*
X389848Y307866D01*
X389932Y307866D01*
X390016Y307862D01*
X390100Y307854D01*
X390183Y307842D01*
X390266Y307826D01*
X390348Y307807D01*
X390429Y307783D01*
X390509Y307756D01*
X390587Y307725D01*
X390664Y307691D01*
X390739Y307653D01*
X390812Y307611D01*
X390883Y307566D01*
X390952Y307518D01*
X391019Y307467D01*
X391083Y307412D01*
X391145Y307355D01*
X391204Y307295D01*
X391260Y307232D01*
X391313Y307166D01*
X391363Y307098D01*
X391409Y307028D01*
X391452Y306956D01*
X391492Y306882D01*
X391528Y306806D01*
X391561Y306728D01*
X391590Y306649D01*
X391615Y306569D01*
X391637Y306487D01*
X391655Y306405D01*
X391668Y306322D01*
X391678Y306238D01*
X391684Y306154D01*
X391686Y306070D01*
X391684Y305986D01*
X391678Y305902D01*
X391668Y305818D01*
X391655Y305735D01*
X391637Y305653D01*
X391615Y305571D01*
X391590Y305491D01*
X391561Y305412D01*
X391528Y305334D01*
X391492Y305258D01*
X391452Y305184D01*
X391409Y305112D01*
X391363Y305042D01*
X391313Y304974D01*
X391260Y304908D01*
X391204Y304845D01*
X391145Y304785D01*
X391083Y304728D01*
X391019Y304673D01*
X390952Y304622D01*
X390883Y304574D01*
X390812Y304529D01*
X390739Y304487D01*
X390664Y304449D01*
X390587Y304415D01*
X390509Y304384D01*
X390429Y304357D01*
X390348Y304333D01*
X390266Y304314D01*
X390183Y304298D01*
X390100Y304286D01*
X390016Y304278D01*
X389932Y304274D01*
X389848Y304274D01*
X389764Y304278D01*
X389680Y304286D01*
X389597Y304298D01*
X389514Y304314D01*
X389432Y304333D01*
X389351Y304357D01*
X389271Y304384D01*
X389193Y304415D01*
X389116Y304449D01*
X389041Y304487D01*
X388968Y304529D01*
X388897Y304574D01*
X388828Y304622D01*
X388761Y304673D01*
X388697Y304728D01*
X388635Y304785D01*
X388576Y304845D01*
X388520Y304908D01*
X388467Y304974D01*
X388417Y305042D01*
X388371Y305112D01*
X388328Y305184D01*
X388288Y305258D01*
X388252Y305334D01*
X388219Y305412D01*
X388190Y305491D01*
X388165Y305571D01*
X388143Y305653D01*
X388125Y305735D01*
X388112Y305818D01*
X388102Y305902D01*
X388096Y305986D01*
X388094Y306070D01*
D13*
X432850Y375676D02*
X432850Y377764D01*
X432850Y375676D02*
X432852Y375587D01*
X432858Y375499D01*
X432867Y375411D01*
X432880Y375323D01*
X432897Y375236D01*
X432917Y375150D01*
X432942Y375065D01*
X432969Y374980D01*
X433001Y374897D01*
X433035Y374816D01*
X433074Y374736D01*
X433115Y374658D01*
X433160Y374581D01*
X433208Y374507D01*
X433259Y374434D01*
X433313Y374364D01*
X433371Y374297D01*
X433431Y374231D01*
X433493Y374169D01*
X433559Y374109D01*
X433626Y374051D01*
X433696Y373997D01*
X433769Y373946D01*
X433843Y373898D01*
X433920Y373853D01*
X433998Y373812D01*
X434078Y373773D01*
X434159Y373739D01*
X434242Y373707D01*
X434327Y373680D01*
X434412Y373655D01*
X434498Y373635D01*
X434585Y373618D01*
X434673Y373605D01*
X434761Y373596D01*
X434849Y373590D01*
X434938Y373588D01*
X440159Y373588D01*
X440250Y373590D01*
X440341Y373596D01*
X440432Y373606D01*
X440522Y373620D01*
X440611Y373637D01*
X440699Y373659D01*
X440787Y373685D01*
X440873Y373714D01*
X440958Y373747D01*
X441041Y373784D01*
X441123Y373824D01*
X441203Y373868D01*
X441281Y373915D01*
X441357Y373966D01*
X441430Y374019D01*
X441501Y374076D01*
X441570Y374137D01*
X441635Y374200D01*
X441698Y374265D01*
X441758Y374334D01*
X441816Y374405D01*
X441869Y374478D01*
X441920Y374554D01*
X441967Y374632D01*
X442011Y374712D01*
X442051Y374794D01*
X442088Y374877D01*
X442121Y374962D01*
X442150Y375048D01*
X442176Y375136D01*
X442198Y375224D01*
X442215Y375313D01*
X442229Y375403D01*
X442239Y375494D01*
X442245Y375585D01*
X442247Y375676D01*
X442248Y375676D02*
X442248Y377764D01*
X435460Y381233D02*
X435561Y381235D01*
X435662Y381241D01*
X435763Y381251D01*
X435863Y381264D01*
X435963Y381282D01*
X436062Y381303D01*
X436160Y381329D01*
X436257Y381358D01*
X436353Y381390D01*
X436447Y381427D01*
X436540Y381467D01*
X436632Y381511D01*
X436721Y381558D01*
X436809Y381609D01*
X436895Y381663D01*
X436978Y381720D01*
X437060Y381780D01*
X437138Y381844D01*
X437215Y381910D01*
X437288Y381980D01*
X437359Y382052D01*
X437427Y382127D01*
X437492Y382205D01*
X437554Y382285D01*
X437613Y382367D01*
X437669Y382452D01*
X437721Y382539D01*
X437770Y382627D01*
X437816Y382718D01*
X437857Y382810D01*
X437896Y382904D01*
X437930Y382999D01*
X437961Y383095D01*
X437988Y383193D01*
X438012Y383291D01*
X438031Y383391D01*
X438047Y383491D01*
X438059Y383591D01*
X438067Y383692D01*
X438071Y383793D01*
X438071Y383895D01*
X438067Y383996D01*
X438059Y384097D01*
X438047Y384197D01*
X438031Y384297D01*
X438012Y384397D01*
X437988Y384495D01*
X437961Y384593D01*
X437930Y384689D01*
X437896Y384784D01*
X437857Y384878D01*
X437816Y384970D01*
X437770Y385061D01*
X437721Y385149D01*
X437669Y385236D01*
X437613Y385321D01*
X437554Y385403D01*
X437492Y385483D01*
X437427Y385561D01*
X437359Y385636D01*
X437288Y385708D01*
X437215Y385778D01*
X437138Y385844D01*
X437060Y385908D01*
X436978Y385968D01*
X436895Y386025D01*
X436809Y386079D01*
X436721Y386130D01*
X436632Y386177D01*
X436540Y386221D01*
X436447Y386261D01*
X436353Y386298D01*
X436257Y386330D01*
X436160Y386359D01*
X436062Y386385D01*
X435963Y386406D01*
X435863Y386424D01*
X435763Y386437D01*
X435662Y386447D01*
X435561Y386453D01*
X435460Y386455D01*
X435359Y386453D01*
X435258Y386447D01*
X435157Y386437D01*
X435057Y386424D01*
X434957Y386406D01*
X434858Y386385D01*
X434760Y386359D01*
X434663Y386330D01*
X434567Y386298D01*
X434473Y386261D01*
X434380Y386221D01*
X434288Y386177D01*
X434199Y386130D01*
X434111Y386079D01*
X434025Y386025D01*
X433942Y385968D01*
X433860Y385908D01*
X433782Y385844D01*
X433705Y385778D01*
X433632Y385708D01*
X433561Y385636D01*
X433493Y385561D01*
X433428Y385483D01*
X433366Y385403D01*
X433307Y385321D01*
X433251Y385236D01*
X433199Y385150D01*
X433150Y385061D01*
X433104Y384970D01*
X433063Y384878D01*
X433024Y384784D01*
X432990Y384689D01*
X432959Y384593D01*
X432932Y384495D01*
X432908Y384397D01*
X432889Y384297D01*
X432873Y384197D01*
X432861Y384097D01*
X432853Y383996D01*
X432849Y383895D01*
X432849Y383793D01*
X432853Y383692D01*
X432861Y383591D01*
X432873Y383491D01*
X432889Y383391D01*
X432908Y383291D01*
X432932Y383193D01*
X432959Y383095D01*
X432990Y382999D01*
X433024Y382904D01*
X433063Y382810D01*
X433104Y382718D01*
X433150Y382627D01*
X433199Y382539D01*
X433251Y382452D01*
X433307Y382367D01*
X433366Y382285D01*
X433428Y382205D01*
X433493Y382127D01*
X433561Y382052D01*
X433632Y381980D01*
X433705Y381910D01*
X433782Y381844D01*
X433860Y381780D01*
X433942Y381720D01*
X434025Y381663D01*
X434111Y381609D01*
X434199Y381558D01*
X434288Y381511D01*
X434380Y381467D01*
X434473Y381427D01*
X434567Y381390D01*
X434663Y381358D01*
X434760Y381329D01*
X434858Y381303D01*
X434957Y381282D01*
X435057Y381264D01*
X435157Y381251D01*
X435258Y381241D01*
X435359Y381235D01*
X435460Y381233D01*
X440159Y381756D02*
X440249Y381758D01*
X440338Y381764D01*
X440428Y381773D01*
X440517Y381787D01*
X440605Y381804D01*
X440692Y381825D01*
X440779Y381850D01*
X440864Y381879D01*
X440948Y381911D01*
X441030Y381946D01*
X441111Y381986D01*
X441190Y382028D01*
X441267Y382074D01*
X441342Y382124D01*
X441415Y382176D01*
X441486Y382232D01*
X441554Y382290D01*
X441619Y382352D01*
X441682Y382416D01*
X441742Y382483D01*
X441799Y382552D01*
X441853Y382624D01*
X441904Y382698D01*
X441952Y382774D01*
X441996Y382852D01*
X442037Y382932D01*
X442075Y383014D01*
X442109Y383097D01*
X442139Y383182D01*
X442166Y383268D01*
X442189Y383354D01*
X442208Y383442D01*
X442223Y383531D01*
X442235Y383620D01*
X442243Y383709D01*
X442247Y383799D01*
X442247Y383889D01*
X442243Y383979D01*
X442235Y384068D01*
X442223Y384157D01*
X442208Y384246D01*
X442189Y384334D01*
X442166Y384420D01*
X442139Y384506D01*
X442109Y384591D01*
X442075Y384674D01*
X442037Y384756D01*
X441996Y384836D01*
X441952Y384914D01*
X441904Y384990D01*
X441853Y385064D01*
X441799Y385136D01*
X441742Y385205D01*
X441682Y385272D01*
X441619Y385336D01*
X441554Y385398D01*
X441486Y385456D01*
X441415Y385512D01*
X441342Y385564D01*
X441267Y385614D01*
X441190Y385660D01*
X441111Y385702D01*
X441030Y385742D01*
X440948Y385777D01*
X440864Y385809D01*
X440779Y385838D01*
X440692Y385863D01*
X440605Y385884D01*
X440517Y385901D01*
X440428Y385915D01*
X440338Y385924D01*
X440249Y385930D01*
X440159Y385932D01*
X440069Y385930D01*
X439980Y385924D01*
X439890Y385915D01*
X439801Y385901D01*
X439713Y385884D01*
X439626Y385863D01*
X439539Y385838D01*
X439454Y385809D01*
X439370Y385777D01*
X439288Y385742D01*
X439207Y385702D01*
X439128Y385660D01*
X439051Y385614D01*
X438976Y385564D01*
X438903Y385512D01*
X438832Y385456D01*
X438764Y385398D01*
X438699Y385336D01*
X438636Y385272D01*
X438576Y385205D01*
X438519Y385136D01*
X438465Y385064D01*
X438414Y384990D01*
X438366Y384914D01*
X438322Y384836D01*
X438281Y384756D01*
X438243Y384674D01*
X438209Y384591D01*
X438179Y384506D01*
X438152Y384420D01*
X438129Y384334D01*
X438110Y384246D01*
X438095Y384157D01*
X438083Y384068D01*
X438075Y383979D01*
X438071Y383889D01*
X438071Y383799D01*
X438075Y383709D01*
X438083Y383620D01*
X438095Y383531D01*
X438110Y383442D01*
X438129Y383354D01*
X438152Y383268D01*
X438179Y383182D01*
X438209Y383097D01*
X438243Y383014D01*
X438281Y382932D01*
X438322Y382852D01*
X438366Y382774D01*
X438414Y382698D01*
X438465Y382624D01*
X438519Y382552D01*
X438576Y382483D01*
X438636Y382416D01*
X438699Y382352D01*
X438764Y382290D01*
X438832Y382232D01*
X438903Y382176D01*
X438976Y382124D01*
X439051Y382074D01*
X439128Y382028D01*
X439207Y381986D01*
X439288Y381946D01*
X439370Y381911D01*
X439454Y381879D01*
X439539Y381850D01*
X439626Y381825D01*
X439713Y381804D01*
X439801Y381787D01*
X439890Y381773D01*
X439980Y381764D01*
X440069Y381758D01*
X440159Y381756D01*
D11*
X429273Y352895D02*
X409143Y352895D01*
D13*
X402570Y332849D02*
X402570Y330761D01*
X402572Y330672D01*
X402578Y330584D01*
X402587Y330496D01*
X402600Y330408D01*
X402617Y330321D01*
X402637Y330235D01*
X402662Y330150D01*
X402689Y330065D01*
X402721Y329982D01*
X402755Y329901D01*
X402794Y329821D01*
X402835Y329743D01*
X402880Y329666D01*
X402928Y329592D01*
X402979Y329519D01*
X403033Y329449D01*
X403091Y329382D01*
X403151Y329316D01*
X403213Y329254D01*
X403279Y329194D01*
X403346Y329136D01*
X403416Y329082D01*
X403489Y329031D01*
X403563Y328983D01*
X403640Y328938D01*
X403718Y328897D01*
X403798Y328858D01*
X403879Y328824D01*
X403962Y328792D01*
X404047Y328765D01*
X404132Y328740D01*
X404218Y328720D01*
X404305Y328703D01*
X404393Y328690D01*
X404481Y328681D01*
X404569Y328675D01*
X404658Y328673D01*
X404658Y328672D02*
X409880Y328672D01*
X409880Y328673D02*
X409971Y328675D01*
X410062Y328681D01*
X410153Y328691D01*
X410243Y328705D01*
X410332Y328722D01*
X410420Y328744D01*
X410508Y328770D01*
X410594Y328799D01*
X410679Y328832D01*
X410762Y328869D01*
X410844Y328909D01*
X410924Y328953D01*
X411002Y329000D01*
X411078Y329051D01*
X411151Y329104D01*
X411222Y329161D01*
X411291Y329222D01*
X411356Y329285D01*
X411419Y329350D01*
X411479Y329419D01*
X411537Y329490D01*
X411590Y329563D01*
X411641Y329639D01*
X411688Y329717D01*
X411732Y329797D01*
X411772Y329879D01*
X411809Y329962D01*
X411842Y330047D01*
X411871Y330133D01*
X411897Y330221D01*
X411919Y330309D01*
X411936Y330398D01*
X411950Y330488D01*
X411960Y330579D01*
X411966Y330670D01*
X411968Y330761D01*
X411968Y332849D01*
X411969Y339190D02*
X411967Y339285D01*
X411961Y339379D01*
X411952Y339473D01*
X411939Y339567D01*
X411922Y339660D01*
X411901Y339752D01*
X411876Y339844D01*
X411848Y339934D01*
X411816Y340023D01*
X411781Y340111D01*
X411742Y340197D01*
X411700Y340282D01*
X411654Y340365D01*
X411605Y340446D01*
X411553Y340525D01*
X411498Y340602D01*
X411439Y340676D01*
X411378Y340748D01*
X411314Y340818D01*
X411247Y340885D01*
X411177Y340949D01*
X411105Y341010D01*
X411031Y341069D01*
X410954Y341124D01*
X410875Y341176D01*
X410794Y341225D01*
X410711Y341271D01*
X410626Y341313D01*
X410540Y341352D01*
X410452Y341387D01*
X410363Y341419D01*
X410273Y341447D01*
X410181Y341472D01*
X410089Y341493D01*
X409996Y341510D01*
X409902Y341523D01*
X409808Y341532D01*
X409714Y341538D01*
X409619Y341540D01*
X411968Y339190D02*
X411966Y339082D01*
X411960Y338973D01*
X411950Y338865D01*
X411937Y338758D01*
X411919Y338651D01*
X411898Y338544D01*
X411873Y338439D01*
X411844Y338334D01*
X411812Y338231D01*
X411775Y338129D01*
X411735Y338028D01*
X411692Y337929D01*
X411645Y337831D01*
X411594Y337735D01*
X411540Y337641D01*
X411483Y337549D01*
X411422Y337459D01*
X411358Y337371D01*
X411292Y337286D01*
X411222Y337203D01*
X411149Y337123D01*
X411073Y337045D01*
X410995Y336970D01*
X410914Y336898D01*
X410830Y336829D01*
X410744Y336763D01*
X410656Y336700D01*
X410565Y336641D01*
X410473Y336584D01*
X410378Y336531D01*
X410282Y336482D01*
X410183Y336436D01*
X410084Y336393D01*
X409982Y336354D01*
X409880Y336319D01*
X407791Y340756D02*
X407860Y340825D01*
X407931Y340891D01*
X408004Y340955D01*
X408080Y341016D01*
X408159Y341074D01*
X408239Y341128D01*
X408322Y341180D01*
X408406Y341228D01*
X408492Y341274D01*
X408580Y341315D01*
X408670Y341354D01*
X408761Y341389D01*
X408853Y341420D01*
X408946Y341448D01*
X409040Y341472D01*
X409135Y341492D01*
X409231Y341509D01*
X409328Y341522D01*
X409425Y341531D01*
X409522Y341537D01*
X409619Y341539D01*
X407791Y340756D02*
X402570Y336318D01*
X402570Y341539D01*
X302456Y242899D02*
X293058Y242899D01*
X302456Y242899D02*
X302456Y245509D01*
X302454Y245610D01*
X302448Y245711D01*
X302438Y245812D01*
X302425Y245912D01*
X302407Y246012D01*
X302386Y246111D01*
X302360Y246209D01*
X302331Y246306D01*
X302299Y246402D01*
X302262Y246496D01*
X302222Y246589D01*
X302178Y246681D01*
X302131Y246770D01*
X302080Y246858D01*
X302026Y246944D01*
X301969Y247027D01*
X301909Y247109D01*
X301845Y247187D01*
X301779Y247264D01*
X301709Y247337D01*
X301637Y247408D01*
X301562Y247476D01*
X301484Y247541D01*
X301404Y247603D01*
X301322Y247662D01*
X301237Y247718D01*
X301151Y247770D01*
X301062Y247819D01*
X300971Y247865D01*
X300879Y247906D01*
X300785Y247945D01*
X300690Y247979D01*
X300594Y248010D01*
X300496Y248037D01*
X300398Y248061D01*
X300298Y248080D01*
X300198Y248096D01*
X300098Y248108D01*
X299997Y248116D01*
X299896Y248120D01*
X299794Y248120D01*
X299693Y248116D01*
X299592Y248108D01*
X299492Y248096D01*
X299392Y248080D01*
X299292Y248061D01*
X299194Y248037D01*
X299096Y248010D01*
X299000Y247979D01*
X298905Y247945D01*
X298811Y247906D01*
X298719Y247865D01*
X298628Y247819D01*
X298540Y247770D01*
X298453Y247718D01*
X298368Y247662D01*
X298286Y247603D01*
X298206Y247541D01*
X298128Y247476D01*
X298053Y247408D01*
X297981Y247337D01*
X297911Y247264D01*
X297845Y247187D01*
X297781Y247109D01*
X297721Y247027D01*
X297664Y246944D01*
X297610Y246858D01*
X297559Y246770D01*
X297512Y246681D01*
X297468Y246589D01*
X297428Y246496D01*
X297391Y246402D01*
X297359Y246306D01*
X297330Y246209D01*
X297304Y246111D01*
X297283Y246012D01*
X297265Y245912D01*
X297252Y245812D01*
X297242Y245711D01*
X297236Y245610D01*
X297234Y245509D01*
X297235Y245509D02*
X297235Y242899D01*
X297235Y246031D02*
X293058Y248120D01*
X300367Y251986D02*
X302456Y254596D01*
X293058Y254596D01*
X293058Y251986D02*
X293058Y257207D01*
D14*
X397510Y248920D02*
X397510Y284480D01*
X397510Y248920D02*
X417830Y248920D01*
X417830Y284480D01*
X397510Y284480D01*
D13*
X421157Y260947D02*
X430555Y267213D01*
X430555Y260947D02*
X421157Y267213D01*
X428467Y270613D02*
X430555Y273224D01*
X421157Y273224D01*
X421157Y275834D02*
X421157Y270613D01*
X210039Y374813D02*
X200641Y374813D01*
X210039Y374813D02*
X210039Y377423D01*
X210037Y377524D01*
X210031Y377625D01*
X210021Y377726D01*
X210008Y377826D01*
X209990Y377926D01*
X209969Y378025D01*
X209943Y378123D01*
X209914Y378220D01*
X209882Y378316D01*
X209845Y378410D01*
X209805Y378503D01*
X209761Y378595D01*
X209714Y378684D01*
X209663Y378772D01*
X209609Y378858D01*
X209552Y378941D01*
X209492Y379023D01*
X209428Y379101D01*
X209362Y379178D01*
X209292Y379251D01*
X209220Y379322D01*
X209145Y379390D01*
X209067Y379455D01*
X208987Y379517D01*
X208905Y379576D01*
X208820Y379632D01*
X208734Y379684D01*
X208645Y379733D01*
X208554Y379779D01*
X208462Y379820D01*
X208368Y379859D01*
X208273Y379893D01*
X208177Y379924D01*
X208079Y379951D01*
X207981Y379975D01*
X207881Y379994D01*
X207781Y380010D01*
X207681Y380022D01*
X207580Y380030D01*
X207479Y380034D01*
X207377Y380034D01*
X207276Y380030D01*
X207175Y380022D01*
X207075Y380010D01*
X206975Y379994D01*
X206875Y379975D01*
X206777Y379951D01*
X206679Y379924D01*
X206583Y379893D01*
X206488Y379859D01*
X206394Y379820D01*
X206302Y379779D01*
X206211Y379733D01*
X206123Y379684D01*
X206036Y379632D01*
X205951Y379576D01*
X205869Y379517D01*
X205789Y379455D01*
X205711Y379390D01*
X205636Y379322D01*
X205564Y379251D01*
X205494Y379178D01*
X205428Y379101D01*
X205364Y379023D01*
X205304Y378941D01*
X205247Y378858D01*
X205193Y378772D01*
X205142Y378684D01*
X205095Y378595D01*
X205051Y378503D01*
X205011Y378410D01*
X204974Y378316D01*
X204942Y378220D01*
X204913Y378123D01*
X204887Y378025D01*
X204866Y377926D01*
X204848Y377826D01*
X204835Y377726D01*
X204825Y377625D01*
X204819Y377524D01*
X204817Y377423D01*
X204817Y374813D01*
X204817Y377945D02*
X200641Y380034D01*
X200641Y383900D02*
X200641Y386510D01*
X200640Y386510D02*
X200642Y386611D01*
X200648Y386712D01*
X200658Y386813D01*
X200671Y386913D01*
X200689Y387013D01*
X200710Y387112D01*
X200736Y387210D01*
X200765Y387307D01*
X200797Y387403D01*
X200834Y387497D01*
X200874Y387590D01*
X200918Y387682D01*
X200965Y387771D01*
X201016Y387859D01*
X201070Y387945D01*
X201127Y388028D01*
X201187Y388110D01*
X201251Y388188D01*
X201317Y388265D01*
X201387Y388338D01*
X201459Y388409D01*
X201534Y388477D01*
X201612Y388542D01*
X201692Y388604D01*
X201774Y388663D01*
X201859Y388719D01*
X201946Y388771D01*
X202034Y388820D01*
X202125Y388866D01*
X202217Y388907D01*
X202311Y388946D01*
X202406Y388980D01*
X202502Y389011D01*
X202600Y389038D01*
X202698Y389062D01*
X202798Y389081D01*
X202898Y389097D01*
X202998Y389109D01*
X203099Y389117D01*
X203200Y389121D01*
X203302Y389121D01*
X203403Y389117D01*
X203504Y389109D01*
X203604Y389097D01*
X203704Y389081D01*
X203804Y389062D01*
X203902Y389038D01*
X204000Y389011D01*
X204096Y388980D01*
X204191Y388946D01*
X204285Y388907D01*
X204377Y388866D01*
X204468Y388820D01*
X204557Y388771D01*
X204643Y388719D01*
X204728Y388663D01*
X204810Y388604D01*
X204890Y388542D01*
X204968Y388477D01*
X205043Y388409D01*
X205115Y388338D01*
X205185Y388265D01*
X205251Y388188D01*
X205315Y388110D01*
X205375Y388028D01*
X205432Y387945D01*
X205486Y387859D01*
X205537Y387771D01*
X205584Y387682D01*
X205628Y387590D01*
X205668Y387497D01*
X205705Y387403D01*
X205737Y387307D01*
X205766Y387210D01*
X205792Y387112D01*
X205813Y387013D01*
X205831Y386913D01*
X205844Y386813D01*
X205854Y386712D01*
X205860Y386611D01*
X205862Y386510D01*
X210039Y387032D02*
X210039Y383900D01*
X210038Y387032D02*
X210036Y387122D01*
X210030Y387211D01*
X210021Y387301D01*
X210007Y387390D01*
X209990Y387478D01*
X209969Y387565D01*
X209944Y387652D01*
X209915Y387737D01*
X209883Y387821D01*
X209848Y387903D01*
X209808Y387984D01*
X209766Y388063D01*
X209720Y388140D01*
X209670Y388215D01*
X209618Y388288D01*
X209562Y388359D01*
X209504Y388427D01*
X209442Y388492D01*
X209378Y388555D01*
X209311Y388615D01*
X209242Y388672D01*
X209170Y388726D01*
X209096Y388777D01*
X209020Y388825D01*
X208942Y388869D01*
X208862Y388910D01*
X208780Y388948D01*
X208697Y388982D01*
X208612Y389012D01*
X208526Y389039D01*
X208440Y389062D01*
X208352Y389081D01*
X208263Y389096D01*
X208174Y389108D01*
X208085Y389116D01*
X207995Y389120D01*
X207905Y389120D01*
X207815Y389116D01*
X207726Y389108D01*
X207637Y389096D01*
X207548Y389081D01*
X207460Y389062D01*
X207374Y389039D01*
X207288Y389012D01*
X207203Y388982D01*
X207120Y388948D01*
X207038Y388910D01*
X206958Y388869D01*
X206880Y388825D01*
X206804Y388777D01*
X206730Y388726D01*
X206658Y388672D01*
X206589Y388615D01*
X206522Y388555D01*
X206458Y388492D01*
X206396Y388427D01*
X206338Y388359D01*
X206282Y388288D01*
X206230Y388215D01*
X206180Y388140D01*
X206134Y388063D01*
X206092Y387984D01*
X206052Y387903D01*
X206017Y387821D01*
X205985Y387737D01*
X205956Y387652D01*
X205931Y387565D01*
X205910Y387478D01*
X205893Y387390D01*
X205879Y387301D01*
X205870Y387211D01*
X205864Y387122D01*
X205862Y387032D01*
X205862Y384944D01*
D11*
X256743Y299555D02*
X276873Y299555D01*
D13*
X274595Y277626D02*
X274595Y275538D01*
X274596Y275538D02*
X274598Y275449D01*
X274604Y275361D01*
X274613Y275273D01*
X274626Y275185D01*
X274643Y275098D01*
X274663Y275012D01*
X274688Y274927D01*
X274715Y274842D01*
X274747Y274759D01*
X274781Y274678D01*
X274820Y274598D01*
X274861Y274520D01*
X274906Y274443D01*
X274954Y274369D01*
X275005Y274296D01*
X275059Y274226D01*
X275117Y274159D01*
X275177Y274093D01*
X275239Y274031D01*
X275305Y273971D01*
X275372Y273913D01*
X275442Y273859D01*
X275515Y273808D01*
X275589Y273760D01*
X275666Y273715D01*
X275744Y273674D01*
X275824Y273635D01*
X275905Y273601D01*
X275988Y273569D01*
X276073Y273542D01*
X276158Y273517D01*
X276244Y273497D01*
X276331Y273480D01*
X276419Y273467D01*
X276507Y273458D01*
X276595Y273452D01*
X276684Y273450D01*
X276684Y273449D02*
X281905Y273449D01*
X281905Y273450D02*
X281996Y273452D01*
X282087Y273458D01*
X282178Y273468D01*
X282268Y273482D01*
X282357Y273499D01*
X282445Y273521D01*
X282533Y273547D01*
X282619Y273576D01*
X282704Y273609D01*
X282787Y273646D01*
X282869Y273686D01*
X282949Y273730D01*
X283027Y273777D01*
X283103Y273828D01*
X283176Y273881D01*
X283247Y273938D01*
X283316Y273999D01*
X283381Y274062D01*
X283444Y274127D01*
X283504Y274196D01*
X283562Y274267D01*
X283615Y274340D01*
X283666Y274416D01*
X283713Y274494D01*
X283757Y274574D01*
X283797Y274656D01*
X283834Y274739D01*
X283867Y274824D01*
X283896Y274910D01*
X283922Y274998D01*
X283944Y275086D01*
X283961Y275175D01*
X283975Y275265D01*
X283985Y275356D01*
X283991Y275447D01*
X283993Y275538D01*
X283993Y277626D01*
X283993Y283183D02*
X276684Y281095D01*
X276684Y286316D01*
X278772Y284750D02*
X274595Y284750D01*
D11*
X383743Y352895D02*
X403873Y352895D01*
D13*
X374109Y332610D02*
X374109Y330522D01*
X374111Y330433D01*
X374117Y330345D01*
X374126Y330257D01*
X374139Y330169D01*
X374156Y330082D01*
X374176Y329996D01*
X374201Y329911D01*
X374228Y329826D01*
X374260Y329743D01*
X374294Y329662D01*
X374333Y329582D01*
X374374Y329504D01*
X374419Y329427D01*
X374467Y329353D01*
X374518Y329280D01*
X374572Y329210D01*
X374630Y329143D01*
X374690Y329077D01*
X374752Y329015D01*
X374818Y328955D01*
X374885Y328897D01*
X374955Y328843D01*
X375028Y328792D01*
X375102Y328744D01*
X375179Y328699D01*
X375257Y328658D01*
X375337Y328619D01*
X375418Y328585D01*
X375501Y328553D01*
X375586Y328526D01*
X375671Y328501D01*
X375757Y328481D01*
X375844Y328464D01*
X375932Y328451D01*
X376020Y328442D01*
X376108Y328436D01*
X376197Y328434D01*
X376197Y328433D02*
X381418Y328433D01*
X381418Y328434D02*
X381509Y328436D01*
X381600Y328442D01*
X381691Y328452D01*
X381781Y328466D01*
X381870Y328483D01*
X381958Y328505D01*
X382046Y328531D01*
X382132Y328560D01*
X382217Y328593D01*
X382300Y328630D01*
X382382Y328670D01*
X382462Y328714D01*
X382540Y328761D01*
X382616Y328812D01*
X382689Y328865D01*
X382760Y328922D01*
X382829Y328983D01*
X382894Y329046D01*
X382957Y329111D01*
X383017Y329180D01*
X383075Y329251D01*
X383128Y329324D01*
X383179Y329400D01*
X383226Y329478D01*
X383270Y329558D01*
X383310Y329640D01*
X383347Y329723D01*
X383380Y329808D01*
X383409Y329894D01*
X383435Y329982D01*
X383457Y330070D01*
X383474Y330159D01*
X383488Y330249D01*
X383498Y330340D01*
X383504Y330431D01*
X383506Y330522D01*
X383507Y330522D02*
X383507Y332610D01*
X383507Y336079D02*
X382463Y336079D01*
X383507Y336079D02*
X383507Y341300D01*
X374109Y338689D01*
X295493Y277380D02*
X295493Y275291D01*
X295494Y275291D02*
X295496Y275202D01*
X295502Y275114D01*
X295511Y275026D01*
X295524Y274938D01*
X295541Y274851D01*
X295561Y274765D01*
X295586Y274680D01*
X295613Y274595D01*
X295645Y274512D01*
X295679Y274431D01*
X295718Y274351D01*
X295759Y274273D01*
X295804Y274196D01*
X295852Y274122D01*
X295903Y274049D01*
X295957Y273979D01*
X296015Y273912D01*
X296075Y273846D01*
X296137Y273784D01*
X296203Y273724D01*
X296270Y273666D01*
X296340Y273612D01*
X296413Y273561D01*
X296487Y273513D01*
X296564Y273468D01*
X296642Y273427D01*
X296722Y273388D01*
X296803Y273354D01*
X296886Y273322D01*
X296971Y273295D01*
X297056Y273270D01*
X297142Y273250D01*
X297229Y273233D01*
X297317Y273220D01*
X297405Y273211D01*
X297493Y273205D01*
X297582Y273203D01*
X302803Y273203D01*
X302894Y273205D01*
X302985Y273211D01*
X303076Y273221D01*
X303166Y273235D01*
X303255Y273252D01*
X303343Y273274D01*
X303431Y273300D01*
X303517Y273329D01*
X303602Y273362D01*
X303685Y273399D01*
X303767Y273439D01*
X303847Y273483D01*
X303925Y273530D01*
X304001Y273581D01*
X304074Y273634D01*
X304145Y273691D01*
X304214Y273752D01*
X304279Y273815D01*
X304342Y273880D01*
X304402Y273949D01*
X304460Y274020D01*
X304513Y274093D01*
X304564Y274169D01*
X304611Y274247D01*
X304655Y274327D01*
X304695Y274409D01*
X304732Y274492D01*
X304765Y274577D01*
X304794Y274663D01*
X304820Y274751D01*
X304842Y274839D01*
X304859Y274928D01*
X304873Y275018D01*
X304883Y275109D01*
X304889Y275200D01*
X304891Y275291D01*
X304891Y277380D01*
X295493Y280848D02*
X295493Y283459D01*
X295495Y283560D01*
X295501Y283661D01*
X295511Y283762D01*
X295524Y283862D01*
X295542Y283962D01*
X295563Y284061D01*
X295589Y284159D01*
X295618Y284256D01*
X295650Y284352D01*
X295687Y284446D01*
X295727Y284539D01*
X295771Y284631D01*
X295818Y284720D01*
X295869Y284808D01*
X295923Y284894D01*
X295980Y284977D01*
X296040Y285059D01*
X296104Y285137D01*
X296170Y285214D01*
X296240Y285287D01*
X296312Y285358D01*
X296387Y285426D01*
X296465Y285491D01*
X296545Y285553D01*
X296627Y285612D01*
X296712Y285668D01*
X296799Y285720D01*
X296887Y285769D01*
X296978Y285815D01*
X297070Y285856D01*
X297164Y285895D01*
X297259Y285929D01*
X297355Y285960D01*
X297453Y285987D01*
X297551Y286011D01*
X297651Y286030D01*
X297751Y286046D01*
X297851Y286058D01*
X297952Y286066D01*
X298053Y286070D01*
X298155Y286070D01*
X298256Y286066D01*
X298357Y286058D01*
X298457Y286046D01*
X298557Y286030D01*
X298657Y286011D01*
X298755Y285987D01*
X298853Y285960D01*
X298949Y285929D01*
X299044Y285895D01*
X299138Y285856D01*
X299230Y285815D01*
X299321Y285769D01*
X299410Y285720D01*
X299496Y285668D01*
X299581Y285612D01*
X299663Y285553D01*
X299743Y285491D01*
X299821Y285426D01*
X299896Y285358D01*
X299968Y285287D01*
X300038Y285214D01*
X300104Y285137D01*
X300168Y285059D01*
X300228Y284977D01*
X300285Y284894D01*
X300339Y284808D01*
X300390Y284720D01*
X300437Y284631D01*
X300481Y284539D01*
X300521Y284446D01*
X300558Y284352D01*
X300590Y284256D01*
X300619Y284159D01*
X300645Y284061D01*
X300666Y283962D01*
X300684Y283862D01*
X300697Y283762D01*
X300707Y283661D01*
X300713Y283560D01*
X300715Y283459D01*
X304891Y283981D02*
X304891Y280848D01*
X304891Y283981D02*
X304889Y284071D01*
X304883Y284160D01*
X304874Y284250D01*
X304860Y284339D01*
X304843Y284427D01*
X304822Y284514D01*
X304797Y284601D01*
X304768Y284686D01*
X304736Y284770D01*
X304701Y284852D01*
X304661Y284933D01*
X304619Y285012D01*
X304573Y285089D01*
X304523Y285164D01*
X304471Y285237D01*
X304415Y285308D01*
X304357Y285376D01*
X304295Y285441D01*
X304231Y285504D01*
X304164Y285564D01*
X304095Y285621D01*
X304023Y285675D01*
X303949Y285726D01*
X303873Y285774D01*
X303795Y285818D01*
X303715Y285859D01*
X303633Y285897D01*
X303550Y285931D01*
X303465Y285961D01*
X303379Y285988D01*
X303293Y286011D01*
X303205Y286030D01*
X303116Y286045D01*
X303027Y286057D01*
X302938Y286065D01*
X302848Y286069D01*
X302758Y286069D01*
X302668Y286065D01*
X302579Y286057D01*
X302490Y286045D01*
X302401Y286030D01*
X302313Y286011D01*
X302227Y285988D01*
X302141Y285961D01*
X302056Y285931D01*
X301973Y285897D01*
X301891Y285859D01*
X301811Y285818D01*
X301733Y285774D01*
X301657Y285726D01*
X301583Y285675D01*
X301511Y285621D01*
X301442Y285564D01*
X301375Y285504D01*
X301311Y285441D01*
X301249Y285376D01*
X301191Y285308D01*
X301135Y285237D01*
X301083Y285164D01*
X301033Y285089D01*
X300987Y285012D01*
X300945Y284933D01*
X300905Y284852D01*
X300870Y284770D01*
X300838Y284686D01*
X300809Y284601D01*
X300784Y284514D01*
X300763Y284427D01*
X300746Y284339D01*
X300732Y284250D01*
X300723Y284160D01*
X300717Y284071D01*
X300715Y283981D01*
X300714Y283981D02*
X300714Y281893D01*
X423166Y295806D02*
X423166Y297895D01*
X423167Y295806D02*
X423169Y295717D01*
X423175Y295629D01*
X423184Y295541D01*
X423197Y295453D01*
X423214Y295366D01*
X423234Y295280D01*
X423259Y295195D01*
X423286Y295110D01*
X423318Y295027D01*
X423352Y294946D01*
X423391Y294866D01*
X423432Y294788D01*
X423477Y294711D01*
X423525Y294637D01*
X423576Y294564D01*
X423630Y294494D01*
X423688Y294427D01*
X423748Y294361D01*
X423810Y294299D01*
X423876Y294239D01*
X423943Y294181D01*
X424013Y294127D01*
X424086Y294076D01*
X424160Y294028D01*
X424237Y293983D01*
X424315Y293942D01*
X424395Y293903D01*
X424476Y293869D01*
X424559Y293837D01*
X424644Y293810D01*
X424729Y293785D01*
X424815Y293765D01*
X424902Y293748D01*
X424990Y293735D01*
X425078Y293726D01*
X425166Y293720D01*
X425255Y293718D01*
X430476Y293718D01*
X430567Y293720D01*
X430658Y293726D01*
X430749Y293736D01*
X430839Y293750D01*
X430928Y293767D01*
X431016Y293789D01*
X431104Y293815D01*
X431190Y293844D01*
X431275Y293877D01*
X431358Y293914D01*
X431440Y293954D01*
X431520Y293998D01*
X431598Y294045D01*
X431674Y294096D01*
X431747Y294149D01*
X431818Y294206D01*
X431887Y294267D01*
X431952Y294330D01*
X432015Y294395D01*
X432075Y294464D01*
X432133Y294535D01*
X432186Y294608D01*
X432237Y294684D01*
X432284Y294762D01*
X432328Y294842D01*
X432368Y294924D01*
X432405Y295007D01*
X432438Y295092D01*
X432467Y295178D01*
X432493Y295266D01*
X432515Y295354D01*
X432532Y295443D01*
X432546Y295533D01*
X432556Y295624D01*
X432562Y295715D01*
X432564Y295806D01*
X432564Y297895D01*
X423166Y301364D02*
X423166Y304496D01*
X423167Y304496D02*
X423169Y304585D01*
X423175Y304673D01*
X423184Y304761D01*
X423197Y304849D01*
X423214Y304936D01*
X423234Y305022D01*
X423259Y305107D01*
X423286Y305192D01*
X423318Y305275D01*
X423352Y305356D01*
X423391Y305436D01*
X423432Y305514D01*
X423477Y305591D01*
X423525Y305665D01*
X423576Y305738D01*
X423630Y305808D01*
X423688Y305875D01*
X423748Y305941D01*
X423810Y306003D01*
X423876Y306063D01*
X423943Y306121D01*
X424013Y306175D01*
X424086Y306226D01*
X424160Y306274D01*
X424237Y306319D01*
X424315Y306360D01*
X424395Y306399D01*
X424476Y306433D01*
X424559Y306465D01*
X424644Y306492D01*
X424729Y306517D01*
X424815Y306537D01*
X424902Y306554D01*
X424990Y306567D01*
X425078Y306576D01*
X425166Y306582D01*
X425255Y306584D01*
X425255Y306585D02*
X426299Y306585D01*
X426299Y306584D02*
X426388Y306582D01*
X426476Y306576D01*
X426564Y306567D01*
X426652Y306554D01*
X426739Y306537D01*
X426825Y306517D01*
X426910Y306492D01*
X426995Y306465D01*
X427078Y306433D01*
X427159Y306399D01*
X427239Y306360D01*
X427317Y306319D01*
X427394Y306274D01*
X427468Y306226D01*
X427541Y306175D01*
X427611Y306121D01*
X427678Y306063D01*
X427744Y306003D01*
X427806Y305941D01*
X427866Y305875D01*
X427924Y305808D01*
X427978Y305738D01*
X428029Y305665D01*
X428077Y305591D01*
X428122Y305514D01*
X428163Y305436D01*
X428202Y305356D01*
X428236Y305275D01*
X428268Y305192D01*
X428295Y305107D01*
X428320Y305022D01*
X428340Y304936D01*
X428357Y304849D01*
X428370Y304761D01*
X428379Y304673D01*
X428385Y304585D01*
X428387Y304496D01*
X428387Y301364D01*
X432564Y301364D01*
X432564Y306585D01*
X449960Y332007D02*
X449960Y341405D01*
X447350Y341405D01*
X447350Y341406D02*
X447249Y341404D01*
X447148Y341398D01*
X447047Y341388D01*
X446947Y341375D01*
X446847Y341357D01*
X446748Y341336D01*
X446650Y341310D01*
X446553Y341281D01*
X446457Y341249D01*
X446363Y341212D01*
X446270Y341172D01*
X446178Y341128D01*
X446089Y341081D01*
X446001Y341030D01*
X445915Y340976D01*
X445832Y340919D01*
X445750Y340859D01*
X445672Y340795D01*
X445595Y340729D01*
X445522Y340659D01*
X445451Y340587D01*
X445383Y340512D01*
X445318Y340434D01*
X445256Y340354D01*
X445197Y340272D01*
X445141Y340187D01*
X445089Y340101D01*
X445040Y340012D01*
X444994Y339921D01*
X444953Y339829D01*
X444914Y339735D01*
X444880Y339640D01*
X444849Y339544D01*
X444822Y339446D01*
X444798Y339348D01*
X444779Y339248D01*
X444763Y339148D01*
X444751Y339048D01*
X444743Y338947D01*
X444739Y338846D01*
X444739Y338744D01*
X444743Y338643D01*
X444751Y338542D01*
X444763Y338442D01*
X444779Y338342D01*
X444798Y338242D01*
X444822Y338144D01*
X444849Y338046D01*
X444880Y337950D01*
X444914Y337855D01*
X444953Y337761D01*
X444994Y337669D01*
X445040Y337578D01*
X445089Y337490D01*
X445141Y337403D01*
X445197Y337318D01*
X445256Y337236D01*
X445318Y337156D01*
X445383Y337078D01*
X445451Y337003D01*
X445522Y336931D01*
X445595Y336861D01*
X445672Y336795D01*
X445750Y336731D01*
X445832Y336671D01*
X445915Y336614D01*
X446001Y336560D01*
X446089Y336509D01*
X446178Y336462D01*
X446270Y336418D01*
X446363Y336378D01*
X446457Y336341D01*
X446553Y336309D01*
X446650Y336280D01*
X446748Y336254D01*
X446847Y336233D01*
X446947Y336215D01*
X447047Y336202D01*
X447148Y336192D01*
X447249Y336186D01*
X447350Y336184D01*
X449960Y336184D01*
X446827Y336184D02*
X444739Y332007D01*
X435652Y339056D02*
X435654Y339151D01*
X435660Y339245D01*
X435669Y339339D01*
X435682Y339433D01*
X435699Y339526D01*
X435720Y339618D01*
X435745Y339710D01*
X435773Y339800D01*
X435805Y339889D01*
X435840Y339977D01*
X435879Y340063D01*
X435921Y340148D01*
X435967Y340231D01*
X436016Y340312D01*
X436068Y340391D01*
X436123Y340468D01*
X436182Y340542D01*
X436243Y340614D01*
X436307Y340684D01*
X436374Y340751D01*
X436444Y340815D01*
X436516Y340876D01*
X436590Y340935D01*
X436667Y340990D01*
X436746Y341042D01*
X436827Y341091D01*
X436910Y341137D01*
X436995Y341179D01*
X437081Y341218D01*
X437169Y341253D01*
X437258Y341285D01*
X437348Y341313D01*
X437440Y341338D01*
X437532Y341359D01*
X437625Y341376D01*
X437719Y341389D01*
X437813Y341398D01*
X437907Y341404D01*
X438002Y341406D01*
X438002Y341405D02*
X438110Y341403D01*
X438219Y341397D01*
X438327Y341387D01*
X438434Y341374D01*
X438541Y341356D01*
X438648Y341335D01*
X438753Y341310D01*
X438858Y341281D01*
X438961Y341249D01*
X439063Y341212D01*
X439164Y341172D01*
X439263Y341129D01*
X439361Y341082D01*
X439457Y341031D01*
X439551Y340977D01*
X439643Y340920D01*
X439733Y340859D01*
X439821Y340795D01*
X439906Y340729D01*
X439989Y340659D01*
X440069Y340586D01*
X440147Y340510D01*
X440222Y340432D01*
X440294Y340351D01*
X440363Y340267D01*
X440429Y340181D01*
X440492Y340093D01*
X440551Y340002D01*
X440608Y339910D01*
X440661Y339815D01*
X440710Y339718D01*
X440756Y339620D01*
X440799Y339521D01*
X440838Y339419D01*
X440873Y339317D01*
X436435Y337228D02*
X436366Y337297D01*
X436300Y337368D01*
X436236Y337441D01*
X436175Y337517D01*
X436117Y337596D01*
X436063Y337676D01*
X436011Y337759D01*
X435963Y337843D01*
X435917Y337929D01*
X435876Y338017D01*
X435837Y338107D01*
X435802Y338198D01*
X435771Y338290D01*
X435743Y338383D01*
X435719Y338477D01*
X435699Y338572D01*
X435682Y338668D01*
X435669Y338765D01*
X435660Y338862D01*
X435654Y338959D01*
X435652Y339056D01*
X436435Y337229D02*
X440873Y332007D01*
X435652Y332007D01*
D11*
X322326Y353568D02*
X322326Y358140D01*
X343662Y358140D02*
X343662Y353568D01*
X340868Y354584D02*
X340824Y354684D01*
X340784Y354785D01*
X340748Y354888D01*
X340716Y354993D01*
X340687Y355098D01*
X340662Y355204D01*
X340640Y355311D01*
X340623Y355419D01*
X340609Y355527D01*
X340600Y355636D01*
X340594Y355745D01*
X340592Y355854D01*
X340594Y355963D01*
X340600Y356072D01*
X340609Y356181D01*
X340623Y356289D01*
X340640Y356397D01*
X340662Y356504D01*
X340687Y356610D01*
X340716Y356715D01*
X340748Y356820D01*
X340784Y356923D01*
X340824Y357024D01*
X340868Y357124D01*
D13*
X346654Y341087D02*
X350633Y341087D01*
X346654Y341087D02*
X343669Y343408D01*
X346654Y341087D02*
X343669Y338765D01*
X346654Y341087D02*
X347980Y344734D01*
X346654Y341087D02*
X347980Y337439D01*
X339979Y335153D02*
X339979Y328366D01*
X339977Y328265D01*
X339971Y328164D01*
X339961Y328063D01*
X339948Y327963D01*
X339930Y327863D01*
X339909Y327764D01*
X339883Y327666D01*
X339854Y327569D01*
X339822Y327473D01*
X339785Y327379D01*
X339745Y327286D01*
X339701Y327194D01*
X339654Y327105D01*
X339603Y327017D01*
X339549Y326931D01*
X339492Y326848D01*
X339432Y326766D01*
X339368Y326688D01*
X339302Y326611D01*
X339232Y326538D01*
X339160Y326467D01*
X339085Y326399D01*
X339007Y326334D01*
X338927Y326272D01*
X338845Y326213D01*
X338760Y326157D01*
X338673Y326105D01*
X338585Y326056D01*
X338494Y326010D01*
X338402Y325969D01*
X338308Y325930D01*
X338213Y325896D01*
X338117Y325865D01*
X338019Y325838D01*
X337921Y325814D01*
X337821Y325795D01*
X337721Y325779D01*
X337621Y325767D01*
X337520Y325759D01*
X337419Y325755D01*
X337317Y325755D01*
X337216Y325759D01*
X337115Y325767D01*
X337015Y325779D01*
X336915Y325795D01*
X336815Y325814D01*
X336717Y325838D01*
X336619Y325865D01*
X336523Y325896D01*
X336428Y325930D01*
X336334Y325969D01*
X336242Y326010D01*
X336151Y326056D01*
X336063Y326105D01*
X335976Y326157D01*
X335891Y326213D01*
X335809Y326272D01*
X335729Y326334D01*
X335651Y326399D01*
X335576Y326467D01*
X335504Y326538D01*
X335434Y326611D01*
X335368Y326688D01*
X335304Y326766D01*
X335244Y326848D01*
X335187Y326931D01*
X335133Y327017D01*
X335082Y327105D01*
X335035Y327194D01*
X334991Y327286D01*
X334951Y327379D01*
X334914Y327473D01*
X334882Y327569D01*
X334853Y327666D01*
X334827Y327764D01*
X334806Y327863D01*
X334788Y327963D01*
X334775Y328063D01*
X334765Y328164D01*
X334759Y328265D01*
X334757Y328366D01*
X334758Y328366D02*
X334758Y335153D01*
X327659Y335154D02*
X327564Y335152D01*
X327470Y335146D01*
X327376Y335137D01*
X327282Y335124D01*
X327189Y335107D01*
X327097Y335086D01*
X327005Y335061D01*
X326915Y335033D01*
X326826Y335001D01*
X326738Y334966D01*
X326652Y334927D01*
X326567Y334885D01*
X326484Y334839D01*
X326403Y334790D01*
X326324Y334738D01*
X326247Y334683D01*
X326173Y334624D01*
X326101Y334563D01*
X326031Y334499D01*
X325964Y334432D01*
X325900Y334362D01*
X325839Y334290D01*
X325780Y334216D01*
X325725Y334139D01*
X325673Y334060D01*
X325624Y333979D01*
X325578Y333896D01*
X325536Y333811D01*
X325497Y333725D01*
X325462Y333637D01*
X325430Y333548D01*
X325402Y333458D01*
X325377Y333366D01*
X325356Y333274D01*
X325339Y333181D01*
X325326Y333087D01*
X325317Y332993D01*
X325311Y332899D01*
X325309Y332804D01*
X327659Y335153D02*
X327767Y335151D01*
X327876Y335145D01*
X327984Y335135D01*
X328091Y335122D01*
X328198Y335104D01*
X328305Y335083D01*
X328410Y335058D01*
X328515Y335029D01*
X328618Y334997D01*
X328720Y334960D01*
X328821Y334920D01*
X328920Y334877D01*
X329018Y334830D01*
X329114Y334779D01*
X329208Y334725D01*
X329300Y334668D01*
X329390Y334607D01*
X329478Y334543D01*
X329563Y334477D01*
X329646Y334407D01*
X329726Y334334D01*
X329804Y334258D01*
X329879Y334180D01*
X329951Y334099D01*
X330020Y334015D01*
X330086Y333929D01*
X330149Y333841D01*
X330208Y333750D01*
X330265Y333658D01*
X330318Y333563D01*
X330367Y333466D01*
X330413Y333368D01*
X330456Y333269D01*
X330495Y333167D01*
X330530Y333065D01*
X326092Y330976D02*
X326023Y331045D01*
X325957Y331116D01*
X325893Y331189D01*
X325832Y331265D01*
X325774Y331344D01*
X325720Y331424D01*
X325668Y331507D01*
X325620Y331591D01*
X325574Y331677D01*
X325533Y331765D01*
X325494Y331855D01*
X325459Y331946D01*
X325428Y332038D01*
X325400Y332131D01*
X325376Y332225D01*
X325356Y332320D01*
X325339Y332416D01*
X325326Y332513D01*
X325317Y332610D01*
X325311Y332707D01*
X325309Y332804D01*
X326092Y330976D02*
X330530Y325755D01*
X325309Y325755D01*
X366141Y344734D02*
X366141Y346823D01*
X366141Y344734D02*
X366143Y344645D01*
X366149Y344557D01*
X366158Y344469D01*
X366171Y344381D01*
X366188Y344294D01*
X366208Y344208D01*
X366233Y344123D01*
X366260Y344038D01*
X366292Y343955D01*
X366326Y343874D01*
X366365Y343794D01*
X366406Y343716D01*
X366451Y343639D01*
X366499Y343565D01*
X366550Y343492D01*
X366604Y343422D01*
X366662Y343355D01*
X366722Y343289D01*
X366784Y343227D01*
X366850Y343167D01*
X366917Y343109D01*
X366987Y343055D01*
X367060Y343004D01*
X367134Y342956D01*
X367211Y342911D01*
X367289Y342870D01*
X367369Y342831D01*
X367450Y342797D01*
X367533Y342765D01*
X367618Y342738D01*
X367703Y342713D01*
X367789Y342693D01*
X367876Y342676D01*
X367964Y342663D01*
X368052Y342654D01*
X368140Y342648D01*
X368229Y342646D01*
X373451Y342646D01*
X373542Y342648D01*
X373633Y342654D01*
X373724Y342664D01*
X373814Y342678D01*
X373903Y342695D01*
X373991Y342717D01*
X374079Y342743D01*
X374165Y342772D01*
X374250Y342805D01*
X374333Y342842D01*
X374415Y342882D01*
X374495Y342926D01*
X374573Y342973D01*
X374649Y343024D01*
X374722Y343077D01*
X374793Y343134D01*
X374862Y343195D01*
X374927Y343258D01*
X374990Y343323D01*
X375050Y343392D01*
X375108Y343463D01*
X375161Y343536D01*
X375212Y343612D01*
X375259Y343690D01*
X375303Y343770D01*
X375343Y343852D01*
X375380Y343935D01*
X375413Y344020D01*
X375442Y344106D01*
X375468Y344194D01*
X375490Y344282D01*
X375507Y344371D01*
X375521Y344461D01*
X375531Y344552D01*
X375537Y344643D01*
X375539Y344734D01*
X375539Y346823D01*
X373451Y350292D02*
X375539Y352902D01*
X366141Y352902D01*
X366141Y350292D02*
X366141Y355513D01*
X373451Y359436D02*
X375539Y362046D01*
X366141Y362046D01*
X366141Y359436D02*
X366141Y364657D01*
X424683Y384043D02*
X424683Y393441D01*
X422072Y393441D01*
X421971Y393439D01*
X421870Y393433D01*
X421769Y393423D01*
X421669Y393410D01*
X421569Y393392D01*
X421470Y393371D01*
X421372Y393345D01*
X421275Y393316D01*
X421179Y393284D01*
X421085Y393247D01*
X420992Y393207D01*
X420900Y393163D01*
X420811Y393116D01*
X420723Y393065D01*
X420637Y393011D01*
X420554Y392954D01*
X420472Y392894D01*
X420394Y392830D01*
X420317Y392764D01*
X420244Y392694D01*
X420173Y392622D01*
X420105Y392547D01*
X420040Y392469D01*
X419978Y392389D01*
X419919Y392307D01*
X419863Y392222D01*
X419811Y392136D01*
X419762Y392047D01*
X419716Y391956D01*
X419675Y391864D01*
X419636Y391770D01*
X419602Y391675D01*
X419571Y391579D01*
X419544Y391481D01*
X419520Y391383D01*
X419501Y391283D01*
X419485Y391183D01*
X419473Y391083D01*
X419465Y390982D01*
X419461Y390881D01*
X419461Y390779D01*
X419465Y390678D01*
X419473Y390577D01*
X419485Y390477D01*
X419501Y390377D01*
X419520Y390277D01*
X419544Y390179D01*
X419571Y390081D01*
X419602Y389985D01*
X419636Y389890D01*
X419675Y389796D01*
X419716Y389704D01*
X419762Y389613D01*
X419811Y389525D01*
X419863Y389438D01*
X419919Y389353D01*
X419978Y389271D01*
X420040Y389191D01*
X420105Y389113D01*
X420173Y389038D01*
X420244Y388966D01*
X420317Y388896D01*
X420394Y388830D01*
X420472Y388766D01*
X420554Y388706D01*
X420637Y388649D01*
X420723Y388595D01*
X420811Y388544D01*
X420900Y388497D01*
X420992Y388453D01*
X421085Y388413D01*
X421179Y388376D01*
X421275Y388344D01*
X421372Y388315D01*
X421470Y388289D01*
X421569Y388268D01*
X421669Y388250D01*
X421769Y388237D01*
X421870Y388227D01*
X421971Y388221D01*
X422072Y388219D01*
X422072Y388220D02*
X424683Y388220D01*
X421550Y388220D02*
X419462Y384043D01*
X415596Y391352D02*
X412986Y393441D01*
X412986Y384043D01*
X415596Y384043D02*
X410375Y384043D01*
X406452Y388742D02*
X406450Y388927D01*
X406443Y389112D01*
X406432Y389296D01*
X406417Y389480D01*
X406397Y389664D01*
X406373Y389848D01*
X406344Y390030D01*
X406311Y390212D01*
X406274Y390393D01*
X406232Y390573D01*
X406186Y390753D01*
X406136Y390931D01*
X406082Y391107D01*
X406023Y391283D01*
X405961Y391457D01*
X405894Y391629D01*
X405823Y391800D01*
X405748Y391969D01*
X405669Y392136D01*
X405670Y392136D02*
X405640Y392216D01*
X405607Y392295D01*
X405570Y392372D01*
X405530Y392448D01*
X405487Y392522D01*
X405441Y392594D01*
X405391Y392663D01*
X405339Y392731D01*
X405283Y392796D01*
X405225Y392859D01*
X405163Y392918D01*
X405100Y392976D01*
X405033Y393030D01*
X404965Y393081D01*
X404894Y393129D01*
X404821Y393174D01*
X404747Y393216D01*
X404670Y393254D01*
X404592Y393289D01*
X404513Y393321D01*
X404432Y393349D01*
X404350Y393373D01*
X404266Y393394D01*
X404183Y393411D01*
X404098Y393424D01*
X404013Y393433D01*
X403928Y393439D01*
X403842Y393441D01*
X403756Y393439D01*
X403671Y393433D01*
X403586Y393424D01*
X403501Y393411D01*
X403418Y393394D01*
X403334Y393373D01*
X403252Y393349D01*
X403172Y393321D01*
X403092Y393289D01*
X403014Y393254D01*
X402937Y393216D01*
X402863Y393174D01*
X402790Y393129D01*
X402719Y393081D01*
X402651Y393030D01*
X402584Y392976D01*
X402521Y392918D01*
X402460Y392859D01*
X402401Y392796D01*
X402346Y392731D01*
X402293Y392663D01*
X402243Y392594D01*
X402197Y392522D01*
X402154Y392448D01*
X402114Y392372D01*
X402077Y392295D01*
X402044Y392216D01*
X402014Y392136D01*
X401935Y391969D01*
X401860Y391800D01*
X401789Y391629D01*
X401722Y391457D01*
X401660Y391283D01*
X401601Y391107D01*
X401547Y390931D01*
X401497Y390753D01*
X401451Y390573D01*
X401409Y390393D01*
X401372Y390212D01*
X401339Y390030D01*
X401310Y389848D01*
X401286Y389664D01*
X401266Y389480D01*
X401251Y389296D01*
X401240Y389112D01*
X401233Y388927D01*
X401231Y388742D01*
X406452Y388742D02*
X406450Y388557D01*
X406443Y388372D01*
X406432Y388188D01*
X406417Y388004D01*
X406397Y387820D01*
X406373Y387636D01*
X406344Y387454D01*
X406311Y387272D01*
X406274Y387091D01*
X406232Y386911D01*
X406186Y386731D01*
X406136Y386553D01*
X406082Y386377D01*
X406023Y386201D01*
X405961Y386027D01*
X405894Y385855D01*
X405823Y385684D01*
X405748Y385515D01*
X405669Y385348D01*
X405670Y385348D02*
X405640Y385268D01*
X405607Y385189D01*
X405570Y385112D01*
X405530Y385036D01*
X405487Y384962D01*
X405441Y384890D01*
X405391Y384821D01*
X405338Y384753D01*
X405283Y384688D01*
X405224Y384625D01*
X405163Y384566D01*
X405100Y384508D01*
X405033Y384454D01*
X404965Y384403D01*
X404894Y384355D01*
X404821Y384310D01*
X404747Y384268D01*
X404670Y384230D01*
X404592Y384195D01*
X404513Y384163D01*
X404432Y384135D01*
X404350Y384111D01*
X404266Y384090D01*
X404183Y384073D01*
X404098Y384060D01*
X404013Y384051D01*
X403928Y384045D01*
X403842Y384043D01*
X402014Y385348D02*
X401935Y385515D01*
X401860Y385684D01*
X401789Y385855D01*
X401722Y386027D01*
X401660Y386201D01*
X401601Y386377D01*
X401547Y386553D01*
X401497Y386731D01*
X401451Y386911D01*
X401409Y387091D01*
X401372Y387272D01*
X401339Y387454D01*
X401310Y387636D01*
X401286Y387820D01*
X401266Y388004D01*
X401251Y388188D01*
X401240Y388372D01*
X401233Y388557D01*
X401231Y388742D01*
X402014Y385348D02*
X402044Y385268D01*
X402077Y385189D01*
X402114Y385112D01*
X402154Y385036D01*
X402197Y384962D01*
X402243Y384890D01*
X402293Y384821D01*
X402346Y384753D01*
X402401Y384688D01*
X402460Y384625D01*
X402521Y384566D01*
X402584Y384508D01*
X402651Y384454D01*
X402719Y384403D01*
X402790Y384355D01*
X402863Y384310D01*
X402937Y384268D01*
X403014Y384230D01*
X403092Y384195D01*
X403172Y384163D01*
X403252Y384135D01*
X403334Y384111D01*
X403418Y384090D01*
X403501Y384073D01*
X403586Y384060D01*
X403671Y384051D01*
X403756Y384045D01*
X403842Y384043D01*
X405930Y386131D02*
X401753Y391352D01*
X419622Y367411D02*
X421711Y367411D01*
X421800Y367413D01*
X421888Y367419D01*
X421976Y367428D01*
X422064Y367441D01*
X422151Y367458D01*
X422237Y367478D01*
X422322Y367503D01*
X422407Y367530D01*
X422490Y367562D01*
X422571Y367596D01*
X422651Y367635D01*
X422729Y367676D01*
X422806Y367721D01*
X422880Y367769D01*
X422953Y367820D01*
X423023Y367874D01*
X423090Y367932D01*
X423156Y367992D01*
X423218Y368054D01*
X423278Y368120D01*
X423336Y368187D01*
X423390Y368257D01*
X423441Y368330D01*
X423489Y368404D01*
X423534Y368481D01*
X423575Y368559D01*
X423614Y368639D01*
X423648Y368720D01*
X423680Y368803D01*
X423707Y368888D01*
X423732Y368973D01*
X423752Y369059D01*
X423769Y369146D01*
X423782Y369234D01*
X423791Y369322D01*
X423797Y369410D01*
X423799Y369499D01*
X423799Y374721D01*
X423797Y374810D01*
X423791Y374898D01*
X423782Y374986D01*
X423769Y375074D01*
X423752Y375161D01*
X423732Y375247D01*
X423707Y375332D01*
X423680Y375417D01*
X423648Y375500D01*
X423614Y375581D01*
X423575Y375661D01*
X423534Y375739D01*
X423489Y375816D01*
X423441Y375890D01*
X423390Y375963D01*
X423336Y376033D01*
X423278Y376100D01*
X423218Y376166D01*
X423156Y376228D01*
X423090Y376288D01*
X423023Y376346D01*
X422953Y376400D01*
X422880Y376451D01*
X422806Y376499D01*
X422729Y376544D01*
X422651Y376585D01*
X422571Y376624D01*
X422490Y376658D01*
X422407Y376690D01*
X422322Y376717D01*
X422237Y376742D01*
X422151Y376762D01*
X422064Y376779D01*
X421976Y376792D01*
X421888Y376801D01*
X421800Y376807D01*
X421711Y376809D01*
X419622Y376809D01*
X416153Y374721D02*
X413543Y376809D01*
X413543Y367411D01*
X416153Y367411D02*
X410932Y367411D01*
X407009Y367411D02*
X404399Y367411D01*
X404298Y367413D01*
X404197Y367419D01*
X404096Y367429D01*
X403996Y367442D01*
X403896Y367460D01*
X403797Y367481D01*
X403699Y367507D01*
X403602Y367536D01*
X403506Y367568D01*
X403412Y367605D01*
X403319Y367645D01*
X403227Y367689D01*
X403138Y367736D01*
X403050Y367787D01*
X402964Y367841D01*
X402881Y367898D01*
X402799Y367958D01*
X402721Y368022D01*
X402644Y368088D01*
X402571Y368158D01*
X402500Y368230D01*
X402432Y368305D01*
X402367Y368383D01*
X402305Y368463D01*
X402246Y368545D01*
X402190Y368630D01*
X402138Y368717D01*
X402089Y368805D01*
X402043Y368896D01*
X402002Y368988D01*
X401963Y369082D01*
X401929Y369177D01*
X401898Y369273D01*
X401871Y369371D01*
X401847Y369469D01*
X401828Y369569D01*
X401812Y369669D01*
X401800Y369769D01*
X401792Y369870D01*
X401788Y369971D01*
X401788Y370073D01*
X401792Y370174D01*
X401800Y370275D01*
X401812Y370375D01*
X401828Y370475D01*
X401847Y370575D01*
X401871Y370673D01*
X401898Y370771D01*
X401929Y370867D01*
X401963Y370962D01*
X402002Y371056D01*
X402043Y371148D01*
X402089Y371239D01*
X402138Y371328D01*
X402190Y371414D01*
X402246Y371499D01*
X402305Y371581D01*
X402367Y371661D01*
X402432Y371739D01*
X402500Y371814D01*
X402571Y371886D01*
X402644Y371956D01*
X402721Y372022D01*
X402799Y372086D01*
X402881Y372146D01*
X402964Y372203D01*
X403050Y372257D01*
X403138Y372308D01*
X403227Y372355D01*
X403319Y372399D01*
X403412Y372439D01*
X403506Y372476D01*
X403602Y372508D01*
X403699Y372537D01*
X403797Y372563D01*
X403896Y372584D01*
X403996Y372602D01*
X404096Y372615D01*
X404197Y372625D01*
X404298Y372631D01*
X404399Y372633D01*
X403877Y376809D02*
X407009Y376809D01*
X403877Y376809D02*
X403787Y376807D01*
X403698Y376801D01*
X403608Y376792D01*
X403519Y376778D01*
X403431Y376761D01*
X403344Y376740D01*
X403257Y376715D01*
X403172Y376686D01*
X403088Y376654D01*
X403006Y376619D01*
X402925Y376579D01*
X402846Y376537D01*
X402769Y376491D01*
X402694Y376441D01*
X402621Y376389D01*
X402550Y376333D01*
X402482Y376275D01*
X402417Y376213D01*
X402354Y376149D01*
X402294Y376082D01*
X402237Y376013D01*
X402183Y375941D01*
X402132Y375867D01*
X402084Y375791D01*
X402040Y375713D01*
X401999Y375633D01*
X401961Y375551D01*
X401927Y375468D01*
X401897Y375383D01*
X401870Y375297D01*
X401847Y375211D01*
X401828Y375123D01*
X401813Y375034D01*
X401801Y374945D01*
X401793Y374856D01*
X401789Y374766D01*
X401789Y374676D01*
X401793Y374586D01*
X401801Y374497D01*
X401813Y374408D01*
X401828Y374319D01*
X401847Y374231D01*
X401870Y374145D01*
X401897Y374059D01*
X401927Y373974D01*
X401961Y373891D01*
X401999Y373809D01*
X402040Y373729D01*
X402084Y373651D01*
X402132Y373575D01*
X402183Y373501D01*
X402237Y373429D01*
X402294Y373360D01*
X402354Y373293D01*
X402417Y373229D01*
X402482Y373167D01*
X402550Y373109D01*
X402621Y373053D01*
X402694Y373001D01*
X402769Y372951D01*
X402846Y372905D01*
X402925Y372863D01*
X403006Y372823D01*
X403088Y372788D01*
X403172Y372756D01*
X403257Y372727D01*
X403344Y372702D01*
X403431Y372681D01*
X403519Y372664D01*
X403608Y372650D01*
X403698Y372641D01*
X403787Y372635D01*
X403877Y372633D01*
X403877Y372632D02*
X405965Y372632D01*
X316319Y414279D02*
X316319Y423677D01*
X313709Y423677D01*
X313709Y423678D02*
X313608Y423676D01*
X313507Y423670D01*
X313406Y423660D01*
X313306Y423647D01*
X313206Y423629D01*
X313107Y423608D01*
X313009Y423582D01*
X312912Y423553D01*
X312816Y423521D01*
X312722Y423484D01*
X312629Y423444D01*
X312537Y423400D01*
X312448Y423353D01*
X312360Y423302D01*
X312274Y423248D01*
X312191Y423191D01*
X312109Y423131D01*
X312031Y423067D01*
X311954Y423001D01*
X311881Y422931D01*
X311810Y422859D01*
X311742Y422784D01*
X311677Y422706D01*
X311615Y422626D01*
X311556Y422544D01*
X311500Y422459D01*
X311448Y422373D01*
X311399Y422284D01*
X311353Y422193D01*
X311312Y422101D01*
X311273Y422007D01*
X311239Y421912D01*
X311208Y421816D01*
X311181Y421718D01*
X311157Y421620D01*
X311138Y421520D01*
X311122Y421420D01*
X311110Y421320D01*
X311102Y421219D01*
X311098Y421118D01*
X311098Y421016D01*
X311102Y420915D01*
X311110Y420814D01*
X311122Y420714D01*
X311138Y420614D01*
X311157Y420514D01*
X311181Y420416D01*
X311208Y420318D01*
X311239Y420222D01*
X311273Y420127D01*
X311312Y420033D01*
X311353Y419941D01*
X311399Y419850D01*
X311448Y419762D01*
X311500Y419675D01*
X311556Y419590D01*
X311615Y419508D01*
X311677Y419428D01*
X311742Y419350D01*
X311810Y419275D01*
X311881Y419203D01*
X311954Y419133D01*
X312031Y419067D01*
X312109Y419003D01*
X312191Y418943D01*
X312274Y418886D01*
X312360Y418832D01*
X312448Y418781D01*
X312537Y418734D01*
X312629Y418690D01*
X312722Y418650D01*
X312816Y418613D01*
X312912Y418581D01*
X313009Y418552D01*
X313107Y418526D01*
X313206Y418505D01*
X313306Y418487D01*
X313406Y418474D01*
X313507Y418464D01*
X313608Y418458D01*
X313709Y418456D01*
X316319Y418456D01*
X313186Y418456D02*
X311098Y414279D01*
X307232Y421589D02*
X304622Y423677D01*
X304622Y414279D01*
X307232Y414279D02*
X302011Y414279D01*
X292867Y421328D02*
X292869Y421423D01*
X292875Y421517D01*
X292884Y421611D01*
X292897Y421705D01*
X292914Y421798D01*
X292935Y421890D01*
X292960Y421982D01*
X292988Y422072D01*
X293020Y422161D01*
X293055Y422249D01*
X293094Y422335D01*
X293136Y422420D01*
X293182Y422503D01*
X293231Y422584D01*
X293283Y422663D01*
X293338Y422740D01*
X293397Y422814D01*
X293458Y422886D01*
X293522Y422956D01*
X293589Y423023D01*
X293659Y423087D01*
X293731Y423148D01*
X293805Y423207D01*
X293882Y423262D01*
X293961Y423314D01*
X294042Y423363D01*
X294125Y423409D01*
X294210Y423451D01*
X294296Y423490D01*
X294384Y423525D01*
X294473Y423557D01*
X294563Y423585D01*
X294655Y423610D01*
X294747Y423631D01*
X294840Y423648D01*
X294934Y423661D01*
X295028Y423670D01*
X295122Y423676D01*
X295217Y423678D01*
X295217Y423677D02*
X295325Y423675D01*
X295434Y423669D01*
X295542Y423659D01*
X295649Y423646D01*
X295756Y423628D01*
X295863Y423607D01*
X295968Y423582D01*
X296073Y423553D01*
X296176Y423521D01*
X296278Y423484D01*
X296379Y423444D01*
X296478Y423401D01*
X296576Y423354D01*
X296672Y423303D01*
X296766Y423249D01*
X296858Y423192D01*
X296948Y423131D01*
X297036Y423067D01*
X297121Y423001D01*
X297204Y422931D01*
X297284Y422858D01*
X297362Y422782D01*
X297437Y422704D01*
X297509Y422623D01*
X297578Y422539D01*
X297644Y422453D01*
X297707Y422365D01*
X297766Y422274D01*
X297823Y422182D01*
X297876Y422087D01*
X297925Y421990D01*
X297971Y421892D01*
X298014Y421793D01*
X298053Y421691D01*
X298088Y421589D01*
X293650Y419500D02*
X293581Y419569D01*
X293515Y419640D01*
X293451Y419713D01*
X293390Y419789D01*
X293332Y419868D01*
X293278Y419948D01*
X293226Y420031D01*
X293178Y420115D01*
X293132Y420201D01*
X293091Y420289D01*
X293052Y420379D01*
X293017Y420470D01*
X292986Y420562D01*
X292958Y420655D01*
X292934Y420749D01*
X292914Y420844D01*
X292897Y420940D01*
X292884Y421037D01*
X292875Y421134D01*
X292869Y421231D01*
X292867Y421328D01*
X293650Y419500D02*
X298088Y414279D01*
X292867Y414279D01*
X288793Y328427D02*
X298191Y328427D01*
X298191Y331038D01*
X298189Y331139D01*
X298183Y331240D01*
X298173Y331341D01*
X298160Y331441D01*
X298142Y331541D01*
X298121Y331640D01*
X298095Y331738D01*
X298066Y331835D01*
X298034Y331931D01*
X297997Y332025D01*
X297957Y332118D01*
X297913Y332210D01*
X297866Y332299D01*
X297815Y332387D01*
X297761Y332473D01*
X297704Y332556D01*
X297644Y332638D01*
X297580Y332716D01*
X297514Y332793D01*
X297444Y332866D01*
X297372Y332937D01*
X297297Y333005D01*
X297219Y333070D01*
X297139Y333132D01*
X297057Y333191D01*
X296972Y333247D01*
X296886Y333299D01*
X296797Y333348D01*
X296706Y333394D01*
X296614Y333435D01*
X296520Y333474D01*
X296425Y333508D01*
X296329Y333539D01*
X296231Y333566D01*
X296133Y333590D01*
X296033Y333609D01*
X295933Y333625D01*
X295833Y333637D01*
X295732Y333645D01*
X295631Y333649D01*
X295529Y333649D01*
X295428Y333645D01*
X295327Y333637D01*
X295227Y333625D01*
X295127Y333609D01*
X295027Y333590D01*
X294929Y333566D01*
X294831Y333539D01*
X294735Y333508D01*
X294640Y333474D01*
X294546Y333435D01*
X294454Y333394D01*
X294363Y333348D01*
X294275Y333299D01*
X294188Y333247D01*
X294103Y333191D01*
X294021Y333132D01*
X293941Y333070D01*
X293863Y333005D01*
X293788Y332937D01*
X293716Y332866D01*
X293646Y332793D01*
X293580Y332716D01*
X293516Y332638D01*
X293456Y332556D01*
X293399Y332473D01*
X293345Y332387D01*
X293294Y332299D01*
X293247Y332210D01*
X293203Y332118D01*
X293163Y332025D01*
X293126Y331931D01*
X293094Y331835D01*
X293065Y331738D01*
X293039Y331640D01*
X293018Y331541D01*
X293000Y331441D01*
X292987Y331341D01*
X292977Y331240D01*
X292971Y331139D01*
X292969Y331038D01*
X292970Y331038D02*
X292970Y328427D01*
X292970Y331560D02*
X288793Y333648D01*
X288793Y337514D02*
X288793Y340647D01*
X288795Y340736D01*
X288801Y340824D01*
X288810Y340912D01*
X288823Y341000D01*
X288840Y341087D01*
X288860Y341173D01*
X288885Y341258D01*
X288912Y341343D01*
X288944Y341426D01*
X288978Y341507D01*
X289017Y341587D01*
X289058Y341665D01*
X289103Y341742D01*
X289151Y341816D01*
X289202Y341889D01*
X289256Y341959D01*
X289314Y342026D01*
X289374Y342092D01*
X289436Y342154D01*
X289502Y342214D01*
X289569Y342272D01*
X289639Y342326D01*
X289712Y342377D01*
X289786Y342425D01*
X289863Y342470D01*
X289941Y342511D01*
X290021Y342550D01*
X290102Y342584D01*
X290185Y342616D01*
X290270Y342643D01*
X290355Y342668D01*
X290441Y342688D01*
X290528Y342705D01*
X290616Y342718D01*
X290704Y342727D01*
X290792Y342733D01*
X290881Y342735D01*
X291926Y342735D01*
X292015Y342733D01*
X292103Y342727D01*
X292191Y342718D01*
X292279Y342705D01*
X292366Y342688D01*
X292452Y342668D01*
X292537Y342643D01*
X292622Y342616D01*
X292705Y342584D01*
X292786Y342550D01*
X292866Y342511D01*
X292944Y342470D01*
X293021Y342425D01*
X293095Y342377D01*
X293168Y342326D01*
X293238Y342272D01*
X293305Y342214D01*
X293371Y342154D01*
X293433Y342092D01*
X293493Y342026D01*
X293551Y341959D01*
X293605Y341889D01*
X293656Y341816D01*
X293704Y341742D01*
X293749Y341665D01*
X293790Y341587D01*
X293829Y341507D01*
X293863Y341426D01*
X293895Y341343D01*
X293922Y341258D01*
X293947Y341173D01*
X293967Y341087D01*
X293984Y341000D01*
X293997Y340912D01*
X294006Y340824D01*
X294012Y340736D01*
X294014Y340647D01*
X294014Y337514D01*
X298191Y337514D01*
X298191Y342735D01*
D11*
X272034Y420624D02*
X258826Y420624D01*
X258826Y392176D01*
X272034Y392176D01*
X272034Y420624D01*
D13*
X276473Y384221D02*
X280650Y384221D01*
X280650Y384220D02*
X280751Y384222D01*
X280852Y384228D01*
X280953Y384238D01*
X281053Y384251D01*
X281153Y384269D01*
X281252Y384290D01*
X281350Y384316D01*
X281447Y384345D01*
X281543Y384377D01*
X281637Y384414D01*
X281730Y384454D01*
X281822Y384498D01*
X281911Y384545D01*
X281999Y384596D01*
X282085Y384650D01*
X282168Y384707D01*
X282250Y384767D01*
X282328Y384831D01*
X282405Y384897D01*
X282478Y384967D01*
X282549Y385039D01*
X282617Y385114D01*
X282682Y385192D01*
X282744Y385272D01*
X282803Y385354D01*
X282859Y385439D01*
X282911Y385526D01*
X282960Y385614D01*
X283006Y385705D01*
X283047Y385797D01*
X283086Y385891D01*
X283120Y385986D01*
X283151Y386082D01*
X283178Y386180D01*
X283202Y386278D01*
X283221Y386378D01*
X283237Y386478D01*
X283249Y386578D01*
X283257Y386679D01*
X283261Y386780D01*
X283261Y386882D01*
X283257Y386983D01*
X283249Y387084D01*
X283237Y387184D01*
X283221Y387284D01*
X283202Y387384D01*
X283178Y387482D01*
X283151Y387580D01*
X283120Y387676D01*
X283086Y387771D01*
X283047Y387865D01*
X283006Y387957D01*
X282960Y388048D01*
X282911Y388136D01*
X282859Y388223D01*
X282803Y388308D01*
X282744Y388390D01*
X282682Y388470D01*
X282617Y388548D01*
X282549Y388623D01*
X282478Y388695D01*
X282405Y388765D01*
X282328Y388831D01*
X282250Y388895D01*
X282168Y388955D01*
X282085Y389012D01*
X281999Y389066D01*
X281911Y389117D01*
X281822Y389164D01*
X281730Y389208D01*
X281637Y389248D01*
X281543Y389285D01*
X281447Y389317D01*
X281350Y389346D01*
X281252Y389372D01*
X281153Y389393D01*
X281053Y389411D01*
X280953Y389424D01*
X280852Y389434D01*
X280751Y389440D01*
X280650Y389442D01*
X276473Y389442D01*
X276372Y389440D01*
X276271Y389434D01*
X276170Y389424D01*
X276070Y389411D01*
X275970Y389393D01*
X275871Y389372D01*
X275773Y389346D01*
X275676Y389317D01*
X275580Y389285D01*
X275486Y389248D01*
X275393Y389208D01*
X275301Y389164D01*
X275212Y389117D01*
X275124Y389066D01*
X275038Y389012D01*
X274955Y388955D01*
X274873Y388895D01*
X274795Y388831D01*
X274718Y388765D01*
X274645Y388695D01*
X274574Y388623D01*
X274506Y388548D01*
X274441Y388470D01*
X274379Y388390D01*
X274320Y388308D01*
X274264Y388223D01*
X274212Y388137D01*
X274163Y388048D01*
X274117Y387957D01*
X274076Y387865D01*
X274037Y387771D01*
X274003Y387676D01*
X273972Y387580D01*
X273945Y387482D01*
X273921Y387384D01*
X273902Y387284D01*
X273886Y387184D01*
X273874Y387084D01*
X273866Y386983D01*
X273862Y386882D01*
X273862Y386780D01*
X273866Y386679D01*
X273874Y386578D01*
X273886Y386478D01*
X273902Y386378D01*
X273921Y386278D01*
X273945Y386180D01*
X273972Y386082D01*
X274003Y385986D01*
X274037Y385891D01*
X274076Y385797D01*
X274117Y385705D01*
X274163Y385614D01*
X274212Y385526D01*
X274264Y385439D01*
X274320Y385354D01*
X274379Y385272D01*
X274441Y385192D01*
X274506Y385114D01*
X274574Y385039D01*
X274645Y384967D01*
X274718Y384897D01*
X274795Y384831D01*
X274873Y384767D01*
X274955Y384707D01*
X275038Y384650D01*
X275124Y384596D01*
X275212Y384545D01*
X275301Y384498D01*
X275393Y384454D01*
X275486Y384414D01*
X275580Y384377D01*
X275676Y384345D01*
X275773Y384316D01*
X275871Y384290D01*
X275970Y384269D01*
X276070Y384251D01*
X276170Y384238D01*
X276271Y384228D01*
X276372Y384222D01*
X276473Y384220D01*
X275951Y388398D02*
X273863Y390486D01*
X273863Y393153D02*
X273863Y395763D01*
X273862Y395763D02*
X273864Y395864D01*
X273870Y395965D01*
X273880Y396066D01*
X273893Y396166D01*
X273911Y396266D01*
X273932Y396365D01*
X273958Y396463D01*
X273987Y396560D01*
X274019Y396656D01*
X274056Y396750D01*
X274096Y396843D01*
X274140Y396935D01*
X274187Y397024D01*
X274238Y397112D01*
X274292Y397198D01*
X274349Y397281D01*
X274409Y397363D01*
X274473Y397441D01*
X274539Y397518D01*
X274609Y397591D01*
X274681Y397662D01*
X274756Y397730D01*
X274834Y397795D01*
X274914Y397857D01*
X274996Y397916D01*
X275081Y397972D01*
X275168Y398024D01*
X275256Y398073D01*
X275347Y398119D01*
X275439Y398160D01*
X275533Y398199D01*
X275628Y398233D01*
X275724Y398264D01*
X275822Y398291D01*
X275920Y398315D01*
X276020Y398334D01*
X276120Y398350D01*
X276220Y398362D01*
X276321Y398370D01*
X276422Y398374D01*
X276524Y398374D01*
X276625Y398370D01*
X276726Y398362D01*
X276826Y398350D01*
X276926Y398334D01*
X277026Y398315D01*
X277124Y398291D01*
X277222Y398264D01*
X277318Y398233D01*
X277413Y398199D01*
X277507Y398160D01*
X277599Y398119D01*
X277690Y398073D01*
X277779Y398024D01*
X277865Y397972D01*
X277950Y397916D01*
X278032Y397857D01*
X278112Y397795D01*
X278190Y397730D01*
X278265Y397662D01*
X278337Y397591D01*
X278407Y397518D01*
X278473Y397441D01*
X278537Y397363D01*
X278597Y397281D01*
X278654Y397198D01*
X278708Y397112D01*
X278759Y397024D01*
X278806Y396935D01*
X278850Y396843D01*
X278890Y396750D01*
X278927Y396656D01*
X278959Y396560D01*
X278988Y396463D01*
X279014Y396365D01*
X279035Y396266D01*
X279053Y396166D01*
X279066Y396066D01*
X279076Y395965D01*
X279082Y395864D01*
X279084Y395763D01*
X283261Y396285D02*
X283261Y393153D01*
X283260Y396285D02*
X283258Y396375D01*
X283252Y396464D01*
X283243Y396554D01*
X283229Y396643D01*
X283212Y396731D01*
X283191Y396818D01*
X283166Y396905D01*
X283137Y396990D01*
X283105Y397074D01*
X283070Y397156D01*
X283030Y397237D01*
X282988Y397316D01*
X282942Y397393D01*
X282892Y397468D01*
X282840Y397541D01*
X282784Y397612D01*
X282726Y397680D01*
X282664Y397745D01*
X282600Y397808D01*
X282533Y397868D01*
X282464Y397925D01*
X282392Y397979D01*
X282318Y398030D01*
X282242Y398078D01*
X282164Y398122D01*
X282084Y398163D01*
X282002Y398201D01*
X281919Y398235D01*
X281834Y398265D01*
X281748Y398292D01*
X281662Y398315D01*
X281574Y398334D01*
X281485Y398349D01*
X281396Y398361D01*
X281307Y398369D01*
X281217Y398373D01*
X281127Y398373D01*
X281037Y398369D01*
X280948Y398361D01*
X280859Y398349D01*
X280770Y398334D01*
X280682Y398315D01*
X280596Y398292D01*
X280510Y398265D01*
X280425Y398235D01*
X280342Y398201D01*
X280260Y398163D01*
X280180Y398122D01*
X280102Y398078D01*
X280026Y398030D01*
X279952Y397979D01*
X279880Y397925D01*
X279811Y397868D01*
X279744Y397808D01*
X279680Y397745D01*
X279618Y397680D01*
X279560Y397612D01*
X279504Y397541D01*
X279452Y397468D01*
X279402Y397393D01*
X279356Y397316D01*
X279314Y397237D01*
X279274Y397156D01*
X279239Y397074D01*
X279207Y396990D01*
X279178Y396905D01*
X279153Y396818D01*
X279132Y396731D01*
X279115Y396643D01*
X279101Y396554D01*
X279092Y396464D01*
X279086Y396375D01*
X279084Y396285D01*
X279084Y394197D01*
D11*
X338201Y415544D02*
X357759Y415544D01*
X357759Y413893D01*
X357759Y382016D02*
X338201Y382016D01*
X338201Y383667D01*
X338201Y413893D02*
X338201Y415544D01*
X357759Y383667D02*
X357759Y382016D01*
D13*
X325418Y391002D02*
X325418Y394981D01*
X325418Y391002D02*
X323097Y388017D01*
X325418Y391002D02*
X327740Y388017D01*
X325418Y391002D02*
X321771Y392328D01*
X325418Y391002D02*
X329066Y392328D01*
X345327Y388039D02*
X353949Y388039D01*
X345327Y388039D02*
X345213Y388041D01*
X345098Y388047D01*
X344984Y388057D01*
X344871Y388071D01*
X344757Y388088D01*
X344645Y388110D01*
X344533Y388135D01*
X344423Y388165D01*
X344313Y388198D01*
X344205Y388235D01*
X344098Y388275D01*
X343992Y388320D01*
X343888Y388367D01*
X343786Y388419D01*
X343686Y388474D01*
X343587Y388532D01*
X343491Y388594D01*
X343396Y388659D01*
X343305Y388727D01*
X343215Y388799D01*
X343128Y388873D01*
X343044Y388950D01*
X342962Y389031D01*
X342883Y389114D01*
X342807Y389199D01*
X342734Y389288D01*
X342665Y389378D01*
X342598Y389471D01*
X342535Y389567D01*
X342475Y389664D01*
X342418Y389764D01*
X342365Y389865D01*
X342315Y389968D01*
X342269Y390073D01*
X342226Y390179D01*
X342188Y390287D01*
X342153Y390396D01*
X342122Y390506D01*
X342094Y390617D01*
X342071Y390729D01*
X342051Y390842D01*
X342035Y390955D01*
X342023Y391069D01*
X342015Y391183D01*
X342011Y391298D01*
X342011Y391412D01*
X342015Y391527D01*
X342023Y391641D01*
X342035Y391755D01*
X342051Y391868D01*
X342071Y391981D01*
X342094Y392093D01*
X342122Y392204D01*
X342153Y392314D01*
X342188Y392423D01*
X342226Y392531D01*
X342269Y392637D01*
X342315Y392742D01*
X342365Y392845D01*
X342418Y392946D01*
X342475Y393046D01*
X342535Y393143D01*
X342598Y393239D01*
X342665Y393332D01*
X342734Y393422D01*
X342807Y393511D01*
X342883Y393596D01*
X342962Y393679D01*
X343044Y393760D01*
X343128Y393837D01*
X343215Y393911D01*
X343305Y393983D01*
X343396Y394051D01*
X343491Y394116D01*
X343587Y394178D01*
X343686Y394236D01*
X343786Y394291D01*
X343888Y394343D01*
X343992Y394390D01*
X344098Y394435D01*
X344205Y394475D01*
X344313Y394512D01*
X344423Y394545D01*
X344533Y394575D01*
X344645Y394600D01*
X344757Y394622D01*
X344871Y394639D01*
X344984Y394653D01*
X345098Y394663D01*
X345213Y394669D01*
X345327Y394671D01*
X353949Y394671D01*
X342011Y399850D02*
X342011Y403166D01*
X342013Y403280D01*
X342019Y403395D01*
X342029Y403509D01*
X342043Y403622D01*
X342060Y403736D01*
X342082Y403848D01*
X342107Y403960D01*
X342137Y404070D01*
X342170Y404180D01*
X342207Y404288D01*
X342247Y404395D01*
X342292Y404501D01*
X342339Y404605D01*
X342391Y404707D01*
X342446Y404807D01*
X342504Y404906D01*
X342566Y405002D01*
X342631Y405097D01*
X342699Y405188D01*
X342771Y405278D01*
X342845Y405365D01*
X342922Y405449D01*
X343003Y405531D01*
X343086Y405610D01*
X343171Y405686D01*
X343260Y405759D01*
X343350Y405828D01*
X343443Y405895D01*
X343539Y405958D01*
X343636Y406018D01*
X343736Y406075D01*
X343837Y406128D01*
X343940Y406178D01*
X344045Y406224D01*
X344151Y406267D01*
X344259Y406305D01*
X344368Y406340D01*
X344478Y406371D01*
X344589Y406399D01*
X344701Y406422D01*
X344814Y406442D01*
X344927Y406458D01*
X345041Y406470D01*
X345155Y406478D01*
X345270Y406482D01*
X345384Y406482D01*
X345499Y406478D01*
X345613Y406470D01*
X345727Y406458D01*
X345840Y406442D01*
X345953Y406422D01*
X346065Y406399D01*
X346176Y406371D01*
X346286Y406340D01*
X346395Y406305D01*
X346503Y406267D01*
X346609Y406224D01*
X346714Y406178D01*
X346817Y406128D01*
X346918Y406075D01*
X347018Y406018D01*
X347115Y405958D01*
X347211Y405895D01*
X347304Y405828D01*
X347394Y405759D01*
X347483Y405686D01*
X347568Y405610D01*
X347651Y405531D01*
X347732Y405449D01*
X347809Y405365D01*
X347883Y405278D01*
X347955Y405188D01*
X348023Y405097D01*
X348088Y405002D01*
X348150Y404906D01*
X348208Y404807D01*
X348263Y404707D01*
X348315Y404605D01*
X348362Y404501D01*
X348407Y404395D01*
X348447Y404288D01*
X348484Y404180D01*
X348517Y404070D01*
X348547Y403960D01*
X348572Y403848D01*
X348594Y403736D01*
X348611Y403622D01*
X348625Y403509D01*
X348635Y403395D01*
X348641Y403280D01*
X348643Y403166D01*
X353949Y403829D02*
X353949Y399850D01*
X353949Y403829D02*
X353947Y403931D01*
X353941Y404032D01*
X353931Y404133D01*
X353918Y404234D01*
X353900Y404334D01*
X353879Y404433D01*
X353854Y404532D01*
X353825Y404629D01*
X353793Y404726D01*
X353757Y404821D01*
X353717Y404914D01*
X353674Y405006D01*
X353627Y405096D01*
X353576Y405185D01*
X353523Y405271D01*
X353466Y405355D01*
X353406Y405437D01*
X353343Y405517D01*
X353277Y405594D01*
X353208Y405669D01*
X353136Y405741D01*
X353061Y405810D01*
X352984Y405876D01*
X352904Y405939D01*
X352822Y405999D01*
X352738Y406056D01*
X352652Y406109D01*
X352563Y406160D01*
X352473Y406207D01*
X352381Y406250D01*
X352288Y406290D01*
X352193Y406326D01*
X352096Y406358D01*
X351999Y406387D01*
X351900Y406412D01*
X351801Y406433D01*
X351701Y406451D01*
X351600Y406464D01*
X351499Y406474D01*
X351398Y406480D01*
X351296Y406482D01*
X351194Y406480D01*
X351093Y406474D01*
X350992Y406464D01*
X350891Y406451D01*
X350791Y406433D01*
X350692Y406412D01*
X350593Y406387D01*
X350496Y406358D01*
X350399Y406326D01*
X350304Y406290D01*
X350211Y406250D01*
X350119Y406207D01*
X350029Y406160D01*
X349940Y406109D01*
X349854Y406056D01*
X349770Y405999D01*
X349688Y405939D01*
X349608Y405876D01*
X349531Y405810D01*
X349456Y405741D01*
X349384Y405669D01*
X349315Y405594D01*
X349249Y405517D01*
X349186Y405437D01*
X349126Y405355D01*
X349069Y405271D01*
X349016Y405185D01*
X348965Y405096D01*
X348918Y405006D01*
X348875Y404914D01*
X348835Y404821D01*
X348799Y404726D01*
X348767Y404629D01*
X348738Y404532D01*
X348713Y404433D01*
X348692Y404334D01*
X348674Y404234D01*
X348661Y404133D01*
X348651Y404032D01*
X348645Y403931D01*
X348643Y403829D01*
X348643Y401176D01*
X302641Y328495D02*
X302641Y326407D01*
X302643Y326318D01*
X302649Y326230D01*
X302658Y326142D01*
X302671Y326054D01*
X302688Y325967D01*
X302708Y325881D01*
X302733Y325796D01*
X302760Y325711D01*
X302792Y325628D01*
X302826Y325547D01*
X302865Y325467D01*
X302906Y325389D01*
X302951Y325312D01*
X302999Y325238D01*
X303050Y325165D01*
X303104Y325095D01*
X303162Y325028D01*
X303222Y324962D01*
X303284Y324900D01*
X303350Y324840D01*
X303417Y324782D01*
X303487Y324728D01*
X303560Y324677D01*
X303634Y324629D01*
X303711Y324584D01*
X303789Y324543D01*
X303869Y324504D01*
X303950Y324470D01*
X304033Y324438D01*
X304118Y324411D01*
X304203Y324386D01*
X304289Y324366D01*
X304376Y324349D01*
X304464Y324336D01*
X304552Y324327D01*
X304640Y324321D01*
X304729Y324319D01*
X304729Y324318D02*
X309951Y324318D01*
X309951Y324319D02*
X310042Y324321D01*
X310133Y324327D01*
X310224Y324337D01*
X310314Y324351D01*
X310403Y324368D01*
X310491Y324390D01*
X310579Y324416D01*
X310665Y324445D01*
X310750Y324478D01*
X310833Y324515D01*
X310915Y324555D01*
X310995Y324599D01*
X311073Y324646D01*
X311149Y324697D01*
X311222Y324750D01*
X311293Y324807D01*
X311362Y324868D01*
X311427Y324931D01*
X311490Y324996D01*
X311550Y325065D01*
X311608Y325136D01*
X311661Y325209D01*
X311712Y325285D01*
X311759Y325363D01*
X311803Y325443D01*
X311843Y325525D01*
X311880Y325608D01*
X311913Y325693D01*
X311942Y325779D01*
X311968Y325867D01*
X311990Y325955D01*
X312007Y326044D01*
X312021Y326134D01*
X312031Y326225D01*
X312037Y326316D01*
X312039Y326407D01*
X312039Y328495D01*
X309951Y331964D02*
X312039Y334574D01*
X302641Y334574D01*
X302641Y331964D02*
X302641Y337185D01*
X307340Y341108D02*
X307525Y341110D01*
X307710Y341117D01*
X307894Y341128D01*
X308078Y341143D01*
X308262Y341163D01*
X308446Y341187D01*
X308628Y341216D01*
X308810Y341249D01*
X308991Y341286D01*
X309171Y341328D01*
X309351Y341374D01*
X309529Y341424D01*
X309705Y341478D01*
X309881Y341537D01*
X310055Y341599D01*
X310227Y341666D01*
X310398Y341737D01*
X310567Y341812D01*
X310734Y341891D01*
X310734Y341890D02*
X310814Y341920D01*
X310893Y341953D01*
X310970Y341990D01*
X311046Y342030D01*
X311120Y342073D01*
X311192Y342119D01*
X311261Y342169D01*
X311329Y342221D01*
X311394Y342277D01*
X311457Y342335D01*
X311516Y342397D01*
X311574Y342460D01*
X311628Y342527D01*
X311679Y342595D01*
X311727Y342666D01*
X311772Y342739D01*
X311814Y342813D01*
X311852Y342890D01*
X311887Y342968D01*
X311919Y343047D01*
X311947Y343128D01*
X311971Y343210D01*
X311992Y343294D01*
X312009Y343377D01*
X312022Y343462D01*
X312031Y343547D01*
X312037Y343632D01*
X312039Y343718D01*
X312037Y343804D01*
X312031Y343889D01*
X312022Y343974D01*
X312009Y344059D01*
X311992Y344142D01*
X311971Y344226D01*
X311947Y344308D01*
X311919Y344389D01*
X311887Y344468D01*
X311852Y344546D01*
X311814Y344623D01*
X311772Y344697D01*
X311727Y344770D01*
X311679Y344841D01*
X311628Y344909D01*
X311574Y344976D01*
X311516Y345039D01*
X311457Y345101D01*
X311394Y345159D01*
X311329Y345215D01*
X311261Y345267D01*
X311192Y345317D01*
X311120Y345363D01*
X311046Y345406D01*
X310970Y345446D01*
X310893Y345483D01*
X310814Y345516D01*
X310734Y345546D01*
X310567Y345625D01*
X310398Y345700D01*
X310227Y345771D01*
X310055Y345838D01*
X309881Y345900D01*
X309705Y345959D01*
X309529Y346013D01*
X309351Y346063D01*
X309171Y346109D01*
X308991Y346151D01*
X308810Y346188D01*
X308628Y346221D01*
X308446Y346250D01*
X308262Y346274D01*
X308078Y346294D01*
X307894Y346309D01*
X307710Y346320D01*
X307525Y346327D01*
X307340Y346329D01*
X307340Y341108D02*
X307155Y341110D01*
X306970Y341117D01*
X306786Y341128D01*
X306602Y341143D01*
X306418Y341163D01*
X306234Y341187D01*
X306052Y341216D01*
X305870Y341249D01*
X305689Y341286D01*
X305509Y341328D01*
X305329Y341374D01*
X305151Y341424D01*
X304975Y341478D01*
X304799Y341537D01*
X304625Y341599D01*
X304453Y341666D01*
X304282Y341737D01*
X304113Y341812D01*
X303946Y341891D01*
X303946Y341890D02*
X303866Y341920D01*
X303787Y341953D01*
X303710Y341990D01*
X303634Y342030D01*
X303560Y342073D01*
X303488Y342119D01*
X303419Y342169D01*
X303351Y342222D01*
X303286Y342277D01*
X303223Y342336D01*
X303164Y342397D01*
X303106Y342460D01*
X303052Y342527D01*
X303001Y342595D01*
X302953Y342666D01*
X302908Y342739D01*
X302866Y342813D01*
X302828Y342890D01*
X302793Y342968D01*
X302761Y343047D01*
X302733Y343128D01*
X302709Y343210D01*
X302688Y343294D01*
X302671Y343377D01*
X302658Y343462D01*
X302649Y343547D01*
X302643Y343632D01*
X302641Y343718D01*
X303946Y345546D02*
X304113Y345625D01*
X304282Y345700D01*
X304453Y345771D01*
X304625Y345838D01*
X304799Y345900D01*
X304975Y345959D01*
X305151Y346013D01*
X305329Y346063D01*
X305509Y346109D01*
X305689Y346151D01*
X305870Y346188D01*
X306052Y346221D01*
X306234Y346250D01*
X306418Y346274D01*
X306602Y346294D01*
X306786Y346309D01*
X306970Y346320D01*
X307155Y346327D01*
X307340Y346329D01*
X303946Y345546D02*
X303866Y345516D01*
X303787Y345483D01*
X303710Y345446D01*
X303634Y345406D01*
X303560Y345363D01*
X303488Y345317D01*
X303419Y345267D01*
X303351Y345215D01*
X303286Y345159D01*
X303223Y345101D01*
X303164Y345039D01*
X303106Y344976D01*
X303052Y344909D01*
X303001Y344841D01*
X302953Y344770D01*
X302908Y344697D01*
X302866Y344623D01*
X302828Y344546D01*
X302793Y344468D01*
X302761Y344389D01*
X302733Y344308D01*
X302709Y344226D01*
X302688Y344142D01*
X302671Y344059D01*
X302658Y343974D01*
X302649Y343889D01*
X302643Y343804D01*
X302641Y343718D01*
X304729Y341630D02*
X309951Y345807D01*
X308059Y391541D02*
X308059Y400939D01*
X305448Y400939D01*
X305347Y400937D01*
X305246Y400931D01*
X305145Y400921D01*
X305045Y400908D01*
X304945Y400890D01*
X304846Y400869D01*
X304748Y400843D01*
X304651Y400814D01*
X304555Y400782D01*
X304461Y400745D01*
X304368Y400705D01*
X304276Y400661D01*
X304187Y400614D01*
X304099Y400563D01*
X304013Y400509D01*
X303930Y400452D01*
X303848Y400392D01*
X303770Y400328D01*
X303693Y400262D01*
X303620Y400192D01*
X303549Y400120D01*
X303481Y400045D01*
X303416Y399967D01*
X303354Y399887D01*
X303295Y399805D01*
X303239Y399720D01*
X303187Y399634D01*
X303138Y399545D01*
X303092Y399454D01*
X303051Y399362D01*
X303012Y399268D01*
X302978Y399173D01*
X302947Y399077D01*
X302920Y398979D01*
X302896Y398881D01*
X302877Y398781D01*
X302861Y398681D01*
X302849Y398581D01*
X302841Y398480D01*
X302837Y398379D01*
X302837Y398277D01*
X302841Y398176D01*
X302849Y398075D01*
X302861Y397975D01*
X302877Y397875D01*
X302896Y397775D01*
X302920Y397677D01*
X302947Y397579D01*
X302978Y397483D01*
X303012Y397388D01*
X303051Y397294D01*
X303092Y397202D01*
X303138Y397111D01*
X303187Y397023D01*
X303239Y396936D01*
X303295Y396851D01*
X303354Y396769D01*
X303416Y396689D01*
X303481Y396611D01*
X303549Y396536D01*
X303620Y396464D01*
X303693Y396394D01*
X303770Y396328D01*
X303848Y396264D01*
X303930Y396204D01*
X304013Y396147D01*
X304099Y396093D01*
X304187Y396042D01*
X304276Y395995D01*
X304368Y395951D01*
X304461Y395911D01*
X304555Y395874D01*
X304651Y395842D01*
X304748Y395813D01*
X304846Y395787D01*
X304945Y395766D01*
X305045Y395748D01*
X305145Y395735D01*
X305246Y395725D01*
X305347Y395719D01*
X305448Y395717D01*
X305448Y395718D02*
X308059Y395718D01*
X304926Y395718D02*
X302838Y391541D01*
X298972Y393629D02*
X296884Y400939D01*
X298972Y393629D02*
X293751Y393629D01*
X295317Y395718D02*
X295317Y391541D01*
X256159Y328211D02*
X246761Y328211D01*
X256159Y328211D02*
X256159Y330822D01*
X256157Y330923D01*
X256151Y331024D01*
X256141Y331125D01*
X256128Y331225D01*
X256110Y331325D01*
X256089Y331424D01*
X256063Y331522D01*
X256034Y331619D01*
X256002Y331715D01*
X255965Y331809D01*
X255925Y331902D01*
X255881Y331994D01*
X255834Y332083D01*
X255783Y332171D01*
X255729Y332257D01*
X255672Y332340D01*
X255612Y332422D01*
X255548Y332500D01*
X255482Y332577D01*
X255412Y332650D01*
X255340Y332721D01*
X255265Y332789D01*
X255187Y332854D01*
X255107Y332916D01*
X255025Y332975D01*
X254940Y333031D01*
X254854Y333083D01*
X254765Y333132D01*
X254674Y333178D01*
X254582Y333219D01*
X254488Y333258D01*
X254393Y333292D01*
X254297Y333323D01*
X254199Y333350D01*
X254101Y333374D01*
X254001Y333393D01*
X253901Y333409D01*
X253801Y333421D01*
X253700Y333429D01*
X253599Y333433D01*
X253497Y333433D01*
X253396Y333429D01*
X253295Y333421D01*
X253195Y333409D01*
X253095Y333393D01*
X252995Y333374D01*
X252897Y333350D01*
X252799Y333323D01*
X252703Y333292D01*
X252608Y333258D01*
X252514Y333219D01*
X252422Y333178D01*
X252331Y333132D01*
X252243Y333083D01*
X252156Y333031D01*
X252071Y332975D01*
X251989Y332916D01*
X251909Y332854D01*
X251831Y332789D01*
X251756Y332721D01*
X251684Y332650D01*
X251614Y332577D01*
X251548Y332500D01*
X251484Y332422D01*
X251424Y332340D01*
X251367Y332257D01*
X251313Y332171D01*
X251262Y332083D01*
X251215Y331994D01*
X251171Y331902D01*
X251131Y331809D01*
X251094Y331715D01*
X251062Y331619D01*
X251033Y331522D01*
X251007Y331424D01*
X250986Y331325D01*
X250968Y331225D01*
X250955Y331125D01*
X250945Y331024D01*
X250939Y330923D01*
X250937Y330822D01*
X250938Y330822D02*
X250938Y328211D01*
X250938Y331344D02*
X246761Y333432D01*
X250938Y339386D02*
X250938Y342519D01*
X250938Y339386D02*
X250940Y339297D01*
X250946Y339209D01*
X250955Y339121D01*
X250968Y339033D01*
X250985Y338946D01*
X251005Y338860D01*
X251030Y338775D01*
X251057Y338690D01*
X251089Y338607D01*
X251123Y338526D01*
X251162Y338446D01*
X251203Y338368D01*
X251248Y338291D01*
X251296Y338217D01*
X251347Y338144D01*
X251401Y338074D01*
X251459Y338007D01*
X251519Y337941D01*
X251581Y337879D01*
X251647Y337819D01*
X251714Y337761D01*
X251784Y337707D01*
X251857Y337656D01*
X251931Y337608D01*
X252008Y337563D01*
X252086Y337522D01*
X252166Y337483D01*
X252247Y337449D01*
X252330Y337417D01*
X252415Y337390D01*
X252500Y337365D01*
X252586Y337345D01*
X252673Y337328D01*
X252761Y337315D01*
X252849Y337306D01*
X252937Y337300D01*
X253026Y337298D01*
X253548Y337298D01*
X253548Y337297D02*
X253649Y337299D01*
X253750Y337305D01*
X253851Y337315D01*
X253951Y337328D01*
X254051Y337346D01*
X254150Y337367D01*
X254248Y337393D01*
X254345Y337422D01*
X254441Y337454D01*
X254535Y337491D01*
X254628Y337531D01*
X254720Y337575D01*
X254809Y337622D01*
X254897Y337673D01*
X254983Y337727D01*
X255066Y337784D01*
X255148Y337844D01*
X255226Y337908D01*
X255303Y337974D01*
X255376Y338044D01*
X255447Y338116D01*
X255515Y338191D01*
X255580Y338269D01*
X255642Y338349D01*
X255701Y338431D01*
X255757Y338516D01*
X255809Y338603D01*
X255858Y338691D01*
X255904Y338782D01*
X255945Y338874D01*
X255984Y338968D01*
X256018Y339063D01*
X256049Y339159D01*
X256076Y339257D01*
X256100Y339355D01*
X256119Y339455D01*
X256135Y339555D01*
X256147Y339655D01*
X256155Y339756D01*
X256159Y339857D01*
X256159Y339959D01*
X256155Y340060D01*
X256147Y340161D01*
X256135Y340261D01*
X256119Y340361D01*
X256100Y340461D01*
X256076Y340559D01*
X256049Y340657D01*
X256018Y340753D01*
X255984Y340848D01*
X255945Y340942D01*
X255904Y341034D01*
X255858Y341125D01*
X255809Y341213D01*
X255757Y341300D01*
X255701Y341385D01*
X255642Y341467D01*
X255580Y341547D01*
X255515Y341625D01*
X255447Y341700D01*
X255376Y341772D01*
X255303Y341842D01*
X255226Y341908D01*
X255148Y341972D01*
X255066Y342032D01*
X254983Y342089D01*
X254897Y342143D01*
X254809Y342194D01*
X254720Y342241D01*
X254628Y342285D01*
X254535Y342325D01*
X254441Y342362D01*
X254345Y342394D01*
X254248Y342423D01*
X254150Y342449D01*
X254051Y342470D01*
X253951Y342488D01*
X253851Y342501D01*
X253750Y342511D01*
X253649Y342517D01*
X253548Y342519D01*
X250938Y342519D01*
X250812Y342517D01*
X250686Y342511D01*
X250560Y342502D01*
X250435Y342489D01*
X250310Y342471D01*
X250185Y342451D01*
X250061Y342426D01*
X249938Y342398D01*
X249816Y342366D01*
X249695Y342330D01*
X249575Y342291D01*
X249457Y342248D01*
X249340Y342201D01*
X249224Y342151D01*
X249109Y342097D01*
X248997Y342041D01*
X248886Y341980D01*
X248777Y341917D01*
X248670Y341850D01*
X248565Y341780D01*
X248462Y341706D01*
X248362Y341630D01*
X248264Y341551D01*
X248168Y341469D01*
X248075Y341383D01*
X247984Y341296D01*
X247897Y341205D01*
X247811Y341112D01*
X247729Y341016D01*
X247650Y340918D01*
X247574Y340818D01*
X247500Y340715D01*
X247430Y340610D01*
X247363Y340503D01*
X247300Y340394D01*
X247239Y340283D01*
X247183Y340171D01*
X247129Y340056D01*
X247079Y339940D01*
X247032Y339823D01*
X246989Y339705D01*
X246950Y339585D01*
X246914Y339464D01*
X246882Y339342D01*
X246854Y339219D01*
X246829Y339095D01*
X246809Y338970D01*
X246791Y338845D01*
X246778Y338720D01*
X246769Y338594D01*
X246763Y338468D01*
X246761Y338342D01*
X259461Y329765D02*
X259461Y327677D01*
X259463Y327588D01*
X259469Y327500D01*
X259478Y327412D01*
X259491Y327324D01*
X259508Y327237D01*
X259528Y327151D01*
X259553Y327066D01*
X259580Y326981D01*
X259612Y326898D01*
X259646Y326817D01*
X259685Y326737D01*
X259726Y326659D01*
X259771Y326582D01*
X259819Y326508D01*
X259870Y326435D01*
X259924Y326365D01*
X259982Y326298D01*
X260042Y326232D01*
X260104Y326170D01*
X260170Y326110D01*
X260237Y326052D01*
X260307Y325998D01*
X260380Y325947D01*
X260454Y325899D01*
X260531Y325854D01*
X260609Y325813D01*
X260689Y325774D01*
X260770Y325740D01*
X260853Y325708D01*
X260938Y325681D01*
X261023Y325656D01*
X261109Y325636D01*
X261196Y325619D01*
X261284Y325606D01*
X261372Y325597D01*
X261460Y325591D01*
X261549Y325589D01*
X261549Y325588D02*
X266771Y325588D01*
X266771Y325589D02*
X266862Y325591D01*
X266953Y325597D01*
X267044Y325607D01*
X267134Y325621D01*
X267223Y325638D01*
X267311Y325660D01*
X267399Y325686D01*
X267485Y325715D01*
X267570Y325748D01*
X267653Y325785D01*
X267735Y325825D01*
X267815Y325869D01*
X267893Y325916D01*
X267969Y325967D01*
X268042Y326020D01*
X268113Y326077D01*
X268182Y326138D01*
X268247Y326201D01*
X268310Y326266D01*
X268370Y326335D01*
X268428Y326406D01*
X268481Y326479D01*
X268532Y326555D01*
X268579Y326633D01*
X268623Y326713D01*
X268663Y326795D01*
X268700Y326878D01*
X268733Y326963D01*
X268762Y327049D01*
X268788Y327137D01*
X268810Y327225D01*
X268827Y327314D01*
X268841Y327404D01*
X268851Y327495D01*
X268857Y327586D01*
X268859Y327677D01*
X268859Y329765D01*
X266771Y333234D02*
X268859Y335844D01*
X259461Y335844D01*
X259461Y333234D02*
X259461Y338455D01*
X261549Y342378D02*
X268859Y344466D01*
X261549Y342378D02*
X261549Y347599D01*
X263638Y346033D02*
X259461Y346033D01*
X275971Y321607D02*
X285369Y321607D01*
X285369Y324218D01*
X285367Y324319D01*
X285361Y324420D01*
X285351Y324521D01*
X285338Y324621D01*
X285320Y324721D01*
X285299Y324820D01*
X285273Y324918D01*
X285244Y325015D01*
X285212Y325111D01*
X285175Y325205D01*
X285135Y325298D01*
X285091Y325390D01*
X285044Y325479D01*
X284993Y325567D01*
X284939Y325653D01*
X284882Y325736D01*
X284822Y325818D01*
X284758Y325896D01*
X284692Y325973D01*
X284622Y326046D01*
X284550Y326117D01*
X284475Y326185D01*
X284397Y326250D01*
X284317Y326312D01*
X284235Y326371D01*
X284150Y326427D01*
X284064Y326479D01*
X283975Y326528D01*
X283884Y326574D01*
X283792Y326615D01*
X283698Y326654D01*
X283603Y326688D01*
X283507Y326719D01*
X283409Y326746D01*
X283311Y326770D01*
X283211Y326789D01*
X283111Y326805D01*
X283011Y326817D01*
X282910Y326825D01*
X282809Y326829D01*
X282707Y326829D01*
X282606Y326825D01*
X282505Y326817D01*
X282405Y326805D01*
X282305Y326789D01*
X282205Y326770D01*
X282107Y326746D01*
X282009Y326719D01*
X281913Y326688D01*
X281818Y326654D01*
X281724Y326615D01*
X281632Y326574D01*
X281541Y326528D01*
X281453Y326479D01*
X281366Y326427D01*
X281281Y326371D01*
X281199Y326312D01*
X281119Y326250D01*
X281041Y326185D01*
X280966Y326117D01*
X280894Y326046D01*
X280824Y325973D01*
X280758Y325896D01*
X280694Y325818D01*
X280634Y325736D01*
X280577Y325653D01*
X280523Y325567D01*
X280472Y325479D01*
X280425Y325390D01*
X280381Y325298D01*
X280341Y325205D01*
X280304Y325111D01*
X280272Y325015D01*
X280243Y324918D01*
X280217Y324820D01*
X280196Y324721D01*
X280178Y324621D01*
X280165Y324521D01*
X280155Y324420D01*
X280149Y324319D01*
X280147Y324218D01*
X280148Y324218D02*
X280148Y321607D01*
X280148Y324740D02*
X275971Y326828D01*
X283281Y330694D02*
X285369Y333304D01*
X275971Y333304D01*
X275971Y330694D02*
X275971Y335915D01*
X283281Y339838D02*
X285369Y342448D01*
X275971Y342448D01*
X275971Y339838D02*
X275971Y345059D01*
D11*
X378814Y240030D02*
X383540Y240030D01*
X309880Y240030D02*
X309880Y244756D01*
X309880Y313690D02*
X314606Y313690D01*
X383540Y313690D02*
X383540Y308964D01*
X383540Y244756D02*
X383540Y240030D01*
X314606Y240030D02*
X309880Y240030D01*
X309880Y308964D02*
X309880Y313690D01*
X378814Y313690D02*
X383540Y313690D01*
D13*
X434721Y298269D02*
X434721Y296181D01*
X434723Y296092D01*
X434729Y296004D01*
X434738Y295916D01*
X434751Y295828D01*
X434768Y295741D01*
X434788Y295655D01*
X434813Y295570D01*
X434840Y295485D01*
X434872Y295402D01*
X434906Y295321D01*
X434945Y295241D01*
X434986Y295163D01*
X435031Y295086D01*
X435079Y295012D01*
X435130Y294939D01*
X435184Y294869D01*
X435242Y294802D01*
X435302Y294736D01*
X435364Y294674D01*
X435430Y294614D01*
X435497Y294556D01*
X435567Y294502D01*
X435640Y294451D01*
X435714Y294403D01*
X435791Y294358D01*
X435869Y294317D01*
X435949Y294278D01*
X436030Y294244D01*
X436113Y294212D01*
X436198Y294185D01*
X436283Y294160D01*
X436369Y294140D01*
X436456Y294123D01*
X436544Y294110D01*
X436632Y294101D01*
X436720Y294095D01*
X436809Y294093D01*
X436809Y294092D02*
X442031Y294092D01*
X442031Y294093D02*
X442122Y294095D01*
X442213Y294101D01*
X442304Y294111D01*
X442394Y294125D01*
X442483Y294142D01*
X442571Y294164D01*
X442659Y294190D01*
X442745Y294219D01*
X442830Y294252D01*
X442913Y294289D01*
X442995Y294329D01*
X443075Y294373D01*
X443153Y294420D01*
X443229Y294471D01*
X443302Y294524D01*
X443373Y294581D01*
X443442Y294642D01*
X443507Y294705D01*
X443570Y294770D01*
X443630Y294839D01*
X443688Y294910D01*
X443741Y294983D01*
X443792Y295059D01*
X443839Y295137D01*
X443883Y295217D01*
X443923Y295299D01*
X443960Y295382D01*
X443993Y295467D01*
X444022Y295553D01*
X444048Y295641D01*
X444070Y295729D01*
X444087Y295818D01*
X444101Y295908D01*
X444111Y295999D01*
X444117Y296090D01*
X444119Y296181D01*
X444119Y298269D01*
X442031Y301738D02*
X444119Y304348D01*
X434721Y304348D01*
X434721Y301738D02*
X434721Y306959D01*
D10*
X359920Y478540D02*
X333500Y478540D01*
X333500Y494280D02*
X359920Y494280D01*
X333500Y494280D02*
X333500Y478540D01*
X359920Y478540D02*
X359920Y494280D01*
D15*
X352210Y486510D02*
X342210Y491510D01*
X342210Y481510D01*
X352210Y486510D01*
X352210Y491510D01*
X352210Y486510D02*
X352210Y481510D01*
D13*
X356681Y475869D02*
X356681Y466471D01*
X356681Y475869D02*
X354070Y475869D01*
X353970Y475867D01*
X353870Y475861D01*
X353771Y475852D01*
X353671Y475838D01*
X353573Y475821D01*
X353475Y475800D01*
X353378Y475776D01*
X353282Y475747D01*
X353187Y475715D01*
X353094Y475680D01*
X353002Y475641D01*
X352911Y475598D01*
X352823Y475552D01*
X352736Y475502D01*
X352651Y475450D01*
X352568Y475394D01*
X352487Y475335D01*
X352409Y475272D01*
X352333Y475207D01*
X352259Y475139D01*
X352189Y475069D01*
X352121Y474995D01*
X352056Y474919D01*
X351993Y474841D01*
X351934Y474760D01*
X351878Y474677D01*
X351826Y474592D01*
X351776Y474505D01*
X351730Y474417D01*
X351687Y474326D01*
X351648Y474234D01*
X351613Y474141D01*
X351581Y474046D01*
X351552Y473950D01*
X351528Y473853D01*
X351507Y473755D01*
X351490Y473657D01*
X351476Y473557D01*
X351467Y473458D01*
X351461Y473358D01*
X351459Y473258D01*
X351460Y473258D02*
X351460Y469082D01*
X351459Y469082D02*
X351461Y468982D01*
X351467Y468882D01*
X351476Y468783D01*
X351490Y468683D01*
X351507Y468585D01*
X351528Y468487D01*
X351552Y468390D01*
X351581Y468294D01*
X351613Y468199D01*
X351648Y468106D01*
X351687Y468014D01*
X351730Y467923D01*
X351776Y467835D01*
X351826Y467748D01*
X351878Y467663D01*
X351934Y467580D01*
X351993Y467499D01*
X352056Y467421D01*
X352121Y467345D01*
X352189Y467271D01*
X352259Y467201D01*
X352333Y467133D01*
X352409Y467068D01*
X352487Y467005D01*
X352568Y466946D01*
X352651Y466890D01*
X352736Y466838D01*
X352823Y466788D01*
X352911Y466742D01*
X353002Y466699D01*
X353094Y466660D01*
X353187Y466625D01*
X353282Y466593D01*
X353378Y466564D01*
X353475Y466540D01*
X353573Y466519D01*
X353671Y466502D01*
X353771Y466488D01*
X353870Y466479D01*
X353970Y466473D01*
X354070Y466471D01*
X356681Y466471D01*
X347232Y468559D02*
X345144Y475869D01*
X347232Y468559D02*
X342011Y468559D01*
X343577Y470648D02*
X343577Y466471D01*
M02*
