G04 EAGLE Gerber RS-274X export*
G75*
%MOMM*%
%FSLAX34Y34*%
%LPD*%
%INSoldermask Bottom*%
%IPPOS*%
%AMOC8*
5,1,8,0,0,1.08239X$1,22.5*%
G01*
%ADD10R,1.101600X1.201600*%
%ADD11R,1.601600X1.401600*%
%ADD12R,1.201600X1.101600*%
%ADD13R,1.501597X0.501600*%
%ADD14R,0.457200X1.270000*%
%ADD15C,1.101600*%
%ADD16C,2.082800*%
%ADD17C,2.082800*%
%ADD18R,1.501600X1.101600*%
%ADD19R,1.104900X0.558800*%
%ADD20R,0.914400X0.355600*%
%ADD21R,0.355600X0.914400*%
%ADD22R,5.613400X5.613400*%
%ADD23R,0.952500X0.396875*%
%ADD24R,0.396875X1.031875*%
%ADD25R,1.031875X0.396875*%
%ADD26R,0.396875X0.952500*%
%ADD27P,1.759533X8X22.500000*%
%ADD28C,1.625600*%
%ADD29R,1.701600X0.901600*%

G36*
X426747Y396751D02*
X426747Y396751D01*
X426773Y396749D01*
X426947Y396771D01*
X427121Y396789D01*
X427146Y396797D01*
X427173Y396800D01*
X427338Y396856D01*
X427506Y396907D01*
X427529Y396920D01*
X427554Y396928D01*
X427706Y397015D01*
X427860Y397099D01*
X427880Y397116D01*
X427903Y397129D01*
X428156Y397344D01*
X429426Y398614D01*
X429443Y398634D01*
X429464Y398652D01*
X429571Y398790D01*
X429681Y398925D01*
X429694Y398949D01*
X429710Y398970D01*
X429788Y399127D01*
X429870Y399281D01*
X429878Y399306D01*
X429890Y399331D01*
X429935Y399500D01*
X429985Y399667D01*
X429987Y399693D01*
X429994Y399719D01*
X430021Y400050D01*
X430021Y422069D01*
X433236Y425284D01*
X433253Y425304D01*
X433274Y425322D01*
X433381Y425460D01*
X433491Y425595D01*
X433504Y425619D01*
X433520Y425640D01*
X433598Y425797D01*
X433680Y425951D01*
X433688Y425976D01*
X433700Y426001D01*
X433745Y426170D01*
X433795Y426337D01*
X433797Y426363D01*
X433804Y426389D01*
X433831Y426720D01*
X433831Y462280D01*
X433829Y462307D01*
X433831Y462333D01*
X433809Y462507D01*
X433791Y462681D01*
X433784Y462706D01*
X433780Y462733D01*
X433725Y462898D01*
X433673Y463066D01*
X433660Y463089D01*
X433652Y463114D01*
X433565Y463266D01*
X433481Y463420D01*
X433464Y463440D01*
X433451Y463463D01*
X433236Y463716D01*
X424346Y472606D01*
X424326Y472623D01*
X424308Y472644D01*
X424170Y472751D01*
X424035Y472861D01*
X424011Y472874D01*
X423990Y472890D01*
X423833Y472968D01*
X423679Y473050D01*
X423654Y473058D01*
X423630Y473070D01*
X423460Y473115D01*
X423293Y473165D01*
X423267Y473167D01*
X423241Y473174D01*
X422910Y473201D01*
X373380Y473201D01*
X372979Y473161D01*
X372594Y473043D01*
X372240Y472851D01*
X371931Y472594D01*
X371679Y472280D01*
X371493Y471923D01*
X371382Y471536D01*
X371349Y471134D01*
X371396Y470735D01*
X371459Y470541D01*
X371435Y470450D01*
X371385Y470283D01*
X371383Y470257D01*
X371376Y470231D01*
X371349Y469900D01*
X371349Y431800D01*
X371351Y431773D01*
X371349Y431747D01*
X371371Y431573D01*
X371389Y431399D01*
X371397Y431374D01*
X371400Y431347D01*
X371456Y431182D01*
X371507Y431014D01*
X371520Y430991D01*
X371528Y430966D01*
X371615Y430814D01*
X371699Y430660D01*
X371716Y430640D01*
X371729Y430617D01*
X371944Y430364D01*
X376429Y425879D01*
X376429Y400050D01*
X376431Y400023D01*
X376429Y399997D01*
X376451Y399823D01*
X376469Y399649D01*
X376477Y399624D01*
X376480Y399597D01*
X376536Y399432D01*
X376587Y399264D01*
X376600Y399241D01*
X376608Y399216D01*
X376695Y399064D01*
X376779Y398910D01*
X376796Y398890D01*
X376809Y398867D01*
X377024Y398614D01*
X378294Y397344D01*
X378314Y397327D01*
X378332Y397307D01*
X378470Y397199D01*
X378605Y397089D01*
X378629Y397076D01*
X378650Y397060D01*
X378807Y396982D01*
X378961Y396900D01*
X378986Y396892D01*
X379011Y396880D01*
X379180Y396835D01*
X379347Y396785D01*
X379373Y396783D01*
X379399Y396776D01*
X379730Y396749D01*
X426720Y396749D01*
X426747Y396751D01*
G37*
G36*
X322598Y424691D02*
X322598Y424691D01*
X322616Y424689D01*
X322798Y424710D01*
X322981Y424729D01*
X322998Y424734D01*
X323015Y424736D01*
X323190Y424793D01*
X323366Y424847D01*
X323381Y424855D01*
X323398Y424861D01*
X323558Y424951D01*
X323720Y425039D01*
X323733Y425050D01*
X323749Y425059D01*
X323888Y425179D01*
X324029Y425296D01*
X324040Y425310D01*
X324054Y425322D01*
X324166Y425467D01*
X324281Y425610D01*
X324289Y425626D01*
X324300Y425640D01*
X324382Y425805D01*
X324467Y425967D01*
X324472Y425984D01*
X324480Y426001D01*
X324527Y426179D01*
X324578Y426354D01*
X324580Y426372D01*
X324584Y426389D01*
X324611Y426720D01*
X324611Y469900D01*
X324609Y469918D01*
X324611Y469936D01*
X324590Y470118D01*
X324571Y470301D01*
X324566Y470318D01*
X324564Y470335D01*
X324507Y470510D01*
X324453Y470686D01*
X324445Y470701D01*
X324439Y470718D01*
X324349Y470878D01*
X324261Y471040D01*
X324250Y471053D01*
X324241Y471069D01*
X324121Y471208D01*
X324004Y471349D01*
X323990Y471360D01*
X323978Y471374D01*
X323833Y471486D01*
X323690Y471601D01*
X323674Y471609D01*
X323660Y471620D01*
X323495Y471702D01*
X323333Y471787D01*
X323316Y471792D01*
X323300Y471800D01*
X323121Y471847D01*
X322946Y471898D01*
X322928Y471900D01*
X322911Y471904D01*
X322580Y471931D01*
X267970Y471931D01*
X267952Y471929D01*
X267934Y471931D01*
X267752Y471910D01*
X267569Y471891D01*
X267552Y471886D01*
X267535Y471884D01*
X267360Y471827D01*
X267184Y471773D01*
X267169Y471765D01*
X267152Y471759D01*
X266992Y471669D01*
X266830Y471581D01*
X266817Y471570D01*
X266801Y471561D01*
X266662Y471441D01*
X266521Y471324D01*
X266510Y471310D01*
X266497Y471298D01*
X266384Y471153D01*
X266269Y471010D01*
X266261Y470994D01*
X266250Y470980D01*
X266168Y470815D01*
X266083Y470653D01*
X266078Y470636D01*
X266070Y470620D01*
X266023Y470441D01*
X265972Y470266D01*
X265970Y470248D01*
X265966Y470231D01*
X265939Y469900D01*
X265939Y426720D01*
X265941Y426702D01*
X265939Y426684D01*
X265960Y426502D01*
X265979Y426319D01*
X265984Y426302D01*
X265986Y426285D01*
X266043Y426110D01*
X266097Y425934D01*
X266105Y425919D01*
X266111Y425902D01*
X266201Y425742D01*
X266289Y425580D01*
X266300Y425567D01*
X266309Y425551D01*
X266429Y425412D01*
X266546Y425271D01*
X266560Y425260D01*
X266572Y425247D01*
X266717Y425134D01*
X266860Y425019D01*
X266876Y425011D01*
X266890Y425000D01*
X267055Y424918D01*
X267217Y424833D01*
X267234Y424828D01*
X267251Y424820D01*
X267429Y424773D01*
X267604Y424722D01*
X267622Y424720D01*
X267639Y424716D01*
X267970Y424689D01*
X322580Y424689D01*
X322598Y424691D01*
G37*
G36*
X363739Y196217D02*
X363739Y196217D01*
X363768Y196214D01*
X363835Y196236D01*
X363905Y196250D01*
X363929Y196267D01*
X363957Y196276D01*
X364010Y196323D01*
X364069Y196363D01*
X364085Y196387D01*
X364107Y196407D01*
X364138Y196471D01*
X364176Y196530D01*
X364181Y196559D01*
X364193Y196585D01*
X364202Y196685D01*
X364209Y196727D01*
X364206Y196737D01*
X364208Y196751D01*
X363976Y199549D01*
X363966Y199583D01*
X363962Y199631D01*
X363273Y202352D01*
X363258Y202384D01*
X363246Y202430D01*
X362118Y205002D01*
X362098Y205030D01*
X362079Y205074D01*
X360543Y207425D01*
X360519Y207449D01*
X360493Y207490D01*
X358591Y209555D01*
X358563Y209576D01*
X358530Y209611D01*
X356315Y211336D01*
X356284Y211351D01*
X356246Y211381D01*
X353776Y212717D01*
X353743Y212727D01*
X353701Y212750D01*
X352515Y213158D01*
X351061Y213657D01*
X351045Y213662D01*
X351011Y213667D01*
X350965Y213682D01*
X348196Y214144D01*
X348161Y214143D01*
X348114Y214151D01*
X345306Y214151D01*
X345272Y214144D01*
X345224Y214144D01*
X342455Y213682D01*
X342422Y213670D01*
X342375Y213662D01*
X339719Y212750D01*
X339689Y212733D01*
X339644Y212717D01*
X337174Y211381D01*
X337148Y211359D01*
X337105Y211336D01*
X334890Y209611D01*
X334867Y209585D01*
X334829Y209555D01*
X332927Y207490D01*
X332909Y207460D01*
X332877Y207425D01*
X331341Y205074D01*
X331328Y205042D01*
X331302Y205002D01*
X330174Y202430D01*
X330167Y202397D01*
X330164Y202390D01*
X330158Y202381D01*
X330157Y202375D01*
X330147Y202352D01*
X329458Y199631D01*
X329456Y199596D01*
X329444Y199549D01*
X329212Y196751D01*
X329216Y196722D01*
X329211Y196693D01*
X329228Y196624D01*
X329236Y196554D01*
X329250Y196528D01*
X329257Y196500D01*
X329299Y196443D01*
X329334Y196381D01*
X329358Y196363D01*
X329375Y196340D01*
X329436Y196304D01*
X329493Y196261D01*
X329521Y196253D01*
X329546Y196238D01*
X329644Y196222D01*
X329685Y196211D01*
X329696Y196213D01*
X329710Y196211D01*
X363710Y196211D01*
X363739Y196217D01*
G37*
G36*
X225317Y256520D02*
X225317Y256520D01*
X225388Y256517D01*
X225415Y256527D01*
X225444Y256529D01*
X225534Y256571D01*
X225574Y256586D01*
X225582Y256594D01*
X225595Y256600D01*
X227898Y258199D01*
X227922Y258225D01*
X227962Y258252D01*
X229971Y260209D01*
X229990Y260238D01*
X230025Y260271D01*
X231684Y262532D01*
X231699Y262563D01*
X231728Y262602D01*
X232992Y265105D01*
X233001Y265139D01*
X233023Y265182D01*
X233859Y267859D01*
X233862Y267893D01*
X233877Y267939D01*
X234260Y270718D01*
X234258Y270752D01*
X234264Y270800D01*
X234185Y273603D01*
X234177Y273637D01*
X234176Y273685D01*
X233637Y276437D01*
X233623Y276469D01*
X233614Y276517D01*
X232629Y279142D01*
X232614Y279167D01*
X232609Y279187D01*
X232601Y279198D01*
X232594Y279217D01*
X231190Y281645D01*
X231167Y281671D01*
X231143Y281713D01*
X229359Y283876D01*
X229332Y283898D01*
X229301Y283935D01*
X227185Y285776D01*
X227155Y285793D01*
X227119Y285825D01*
X224728Y287292D01*
X224696Y287303D01*
X224655Y287329D01*
X222056Y288382D01*
X222022Y288389D01*
X221977Y288407D01*
X219240Y289018D01*
X219205Y289019D01*
X219158Y289030D01*
X216358Y289182D01*
X216324Y289177D01*
X216276Y289180D01*
X213488Y288870D01*
X213455Y288859D01*
X213407Y288854D01*
X210709Y288089D01*
X210679Y288073D01*
X210632Y288060D01*
X208097Y286861D01*
X208073Y286844D01*
X208046Y286834D01*
X207994Y286785D01*
X207937Y286742D01*
X207923Y286717D01*
X207902Y286697D01*
X207873Y286632D01*
X207837Y286571D01*
X207834Y286542D01*
X207822Y286515D01*
X207821Y286444D01*
X207812Y286373D01*
X207820Y286345D01*
X207820Y286316D01*
X207854Y286223D01*
X207866Y286182D01*
X207873Y286173D01*
X207878Y286160D01*
X224878Y256760D01*
X224897Y256738D01*
X224910Y256712D01*
X224963Y256664D01*
X225010Y256611D01*
X225036Y256599D01*
X225058Y256579D01*
X225125Y256556D01*
X225189Y256526D01*
X225218Y256524D01*
X225246Y256515D01*
X225317Y256520D01*
G37*
G36*
X477096Y404243D02*
X477096Y404243D01*
X477144Y404240D01*
X479932Y404550D01*
X479965Y404561D01*
X480013Y404566D01*
X482711Y405331D01*
X482741Y405347D01*
X482788Y405360D01*
X485323Y406559D01*
X485347Y406576D01*
X485374Y406586D01*
X485426Y406635D01*
X485483Y406678D01*
X485497Y406703D01*
X485519Y406723D01*
X485547Y406788D01*
X485583Y406850D01*
X485586Y406878D01*
X485598Y406905D01*
X485599Y406976D01*
X485608Y407047D01*
X485600Y407075D01*
X485600Y407104D01*
X485566Y407197D01*
X485554Y407238D01*
X485547Y407247D01*
X485542Y407260D01*
X468542Y436660D01*
X468523Y436682D01*
X468510Y436708D01*
X468457Y436756D01*
X468410Y436809D01*
X468384Y436821D01*
X468362Y436841D01*
X468295Y436864D01*
X468231Y436894D01*
X468202Y436896D01*
X468174Y436905D01*
X468103Y436900D01*
X468032Y436903D01*
X468005Y436893D01*
X467976Y436891D01*
X467886Y436849D01*
X467846Y436834D01*
X467838Y436826D01*
X467825Y436820D01*
X465522Y435221D01*
X465498Y435196D01*
X465458Y435168D01*
X463449Y433211D01*
X463430Y433182D01*
X463395Y433149D01*
X461736Y430888D01*
X461721Y430857D01*
X461692Y430818D01*
X460428Y428315D01*
X460419Y428281D01*
X460397Y428238D01*
X459561Y425561D01*
X459558Y425527D01*
X459543Y425481D01*
X459160Y422702D01*
X459162Y422668D01*
X459156Y422620D01*
X459235Y419817D01*
X459243Y419783D01*
X459244Y419735D01*
X459783Y416983D01*
X459797Y416951D01*
X459806Y416903D01*
X460791Y414278D01*
X460809Y414248D01*
X460826Y414203D01*
X462230Y411775D01*
X462253Y411749D01*
X462277Y411708D01*
X464061Y409544D01*
X464088Y409522D01*
X464119Y409485D01*
X466235Y407644D01*
X466265Y407627D01*
X466301Y407596D01*
X468692Y406128D01*
X468724Y406117D01*
X468765Y406091D01*
X471364Y405038D01*
X471398Y405031D01*
X471443Y405013D01*
X474180Y404402D01*
X474215Y404401D01*
X474262Y404390D01*
X477062Y404238D01*
X477096Y404243D01*
G37*
G36*
X468136Y256521D02*
X468136Y256521D01*
X468207Y256520D01*
X468234Y256531D01*
X468263Y256535D01*
X468325Y256569D01*
X468390Y256597D01*
X468411Y256618D01*
X468436Y256632D01*
X468499Y256708D01*
X468529Y256739D01*
X468533Y256749D01*
X468542Y256760D01*
X485542Y286160D01*
X485551Y286188D01*
X485568Y286212D01*
X485583Y286281D01*
X485605Y286349D01*
X485603Y286378D01*
X485609Y286406D01*
X485596Y286476D01*
X485590Y286547D01*
X485577Y286573D01*
X485571Y286601D01*
X485531Y286660D01*
X485499Y286723D01*
X485476Y286742D01*
X485460Y286766D01*
X485378Y286823D01*
X485345Y286850D01*
X485335Y286853D01*
X485323Y286861D01*
X482788Y288060D01*
X482754Y288068D01*
X482711Y288089D01*
X480013Y288854D01*
X479978Y288856D01*
X479932Y288870D01*
X477144Y289180D01*
X477110Y289177D01*
X477062Y289182D01*
X474262Y289030D01*
X474228Y289021D01*
X474180Y289018D01*
X471443Y288407D01*
X471411Y288393D01*
X471364Y288382D01*
X468765Y287329D01*
X468736Y287310D01*
X468692Y287292D01*
X466301Y285825D01*
X466276Y285801D01*
X466235Y285776D01*
X464119Y283935D01*
X464098Y283908D01*
X464061Y283876D01*
X462277Y281713D01*
X462261Y281682D01*
X462230Y281645D01*
X460826Y279217D01*
X460815Y279184D01*
X460808Y279171D01*
X460798Y279157D01*
X460798Y279154D01*
X460791Y279142D01*
X459806Y276517D01*
X459800Y276482D01*
X459783Y276437D01*
X459244Y273685D01*
X459244Y273651D01*
X459235Y273603D01*
X459156Y270800D01*
X459162Y270766D01*
X459160Y270718D01*
X459543Y267939D01*
X459555Y267907D01*
X459561Y267859D01*
X460397Y265182D01*
X460414Y265151D01*
X460428Y265105D01*
X461692Y262602D01*
X461714Y262575D01*
X461736Y262532D01*
X463395Y260271D01*
X463421Y260248D01*
X463449Y260209D01*
X465458Y258252D01*
X465487Y258233D01*
X465522Y258199D01*
X467825Y256600D01*
X467852Y256588D01*
X467875Y256570D01*
X467943Y256549D01*
X468008Y256521D01*
X468037Y256521D01*
X468065Y256513D01*
X468136Y256521D01*
G37*
G36*
X219158Y404390D02*
X219158Y404390D01*
X219192Y404399D01*
X219240Y404402D01*
X221977Y405013D01*
X222009Y405027D01*
X222056Y405038D01*
X224655Y406091D01*
X224684Y406110D01*
X224728Y406128D01*
X227119Y407596D01*
X227144Y407619D01*
X227185Y407644D01*
X229301Y409485D01*
X229322Y409512D01*
X229359Y409544D01*
X231143Y411708D01*
X231159Y411738D01*
X231190Y411775D01*
X232594Y414203D01*
X232605Y414236D01*
X232629Y414278D01*
X233614Y416903D01*
X233620Y416938D01*
X233637Y416983D01*
X234176Y419735D01*
X234176Y419770D01*
X234185Y419817D01*
X234264Y422620D01*
X234259Y422654D01*
X234260Y422702D01*
X233877Y425481D01*
X233865Y425513D01*
X233859Y425561D01*
X233023Y428238D01*
X233006Y428269D01*
X232992Y428315D01*
X231728Y430818D01*
X231706Y430845D01*
X231684Y430888D01*
X230025Y433149D01*
X229999Y433172D01*
X229971Y433211D01*
X227962Y435168D01*
X227933Y435187D01*
X227898Y435221D01*
X225595Y436820D01*
X225568Y436832D01*
X225545Y436850D01*
X225477Y436871D01*
X225412Y436899D01*
X225383Y436899D01*
X225355Y436907D01*
X225284Y436899D01*
X225213Y436900D01*
X225186Y436889D01*
X225157Y436885D01*
X225095Y436851D01*
X225030Y436823D01*
X225009Y436802D01*
X224984Y436788D01*
X224921Y436712D01*
X224891Y436681D01*
X224887Y436671D01*
X224878Y436660D01*
X207878Y407260D01*
X207869Y407232D01*
X207852Y407208D01*
X207837Y407139D01*
X207815Y407071D01*
X207817Y407042D01*
X207811Y407014D01*
X207824Y406944D01*
X207830Y406873D01*
X207843Y406847D01*
X207849Y406819D01*
X207889Y406760D01*
X207921Y406697D01*
X207944Y406678D01*
X207960Y406654D01*
X208042Y406597D01*
X208075Y406570D01*
X208085Y406567D01*
X208097Y406559D01*
X210632Y405360D01*
X210666Y405352D01*
X210709Y405331D01*
X213407Y404566D01*
X213442Y404564D01*
X213488Y404550D01*
X216276Y404240D01*
X216310Y404243D01*
X216358Y404238D01*
X219158Y404390D01*
G37*
G36*
X510437Y329721D02*
X510437Y329721D01*
X510508Y329721D01*
X510535Y329732D01*
X510564Y329735D01*
X510626Y329770D01*
X510691Y329798D01*
X510712Y329818D01*
X510737Y329833D01*
X510800Y329910D01*
X510830Y329940D01*
X510834Y329950D01*
X510843Y329961D01*
X520343Y346461D01*
X520353Y346493D01*
X520362Y346506D01*
X520366Y346530D01*
X520367Y346534D01*
X520398Y346604D01*
X520398Y346628D01*
X520406Y346650D01*
X520400Y346726D01*
X520401Y346803D01*
X520391Y346827D01*
X520390Y346848D01*
X520369Y346887D01*
X520343Y346959D01*
X510843Y363459D01*
X510824Y363481D01*
X510811Y363507D01*
X510758Y363555D01*
X510711Y363608D01*
X510685Y363621D01*
X510664Y363640D01*
X510596Y363663D01*
X510532Y363694D01*
X510503Y363696D01*
X510476Y363705D01*
X510404Y363700D01*
X510333Y363703D01*
X510306Y363693D01*
X510277Y363691D01*
X510187Y363649D01*
X510147Y363634D01*
X510139Y363627D01*
X510126Y363621D01*
X507603Y361879D01*
X507579Y361855D01*
X507541Y361828D01*
X505329Y359704D01*
X505310Y359676D01*
X505276Y359644D01*
X503434Y357193D01*
X503420Y357162D01*
X503391Y357125D01*
X501966Y354410D01*
X501957Y354379D01*
X501941Y354354D01*
X501940Y354346D01*
X501935Y354336D01*
X500964Y351428D01*
X500960Y351394D01*
X500945Y351350D01*
X500453Y348323D01*
X500454Y348289D01*
X500446Y348243D01*
X500446Y345177D01*
X500447Y345173D01*
X500447Y345171D01*
X500453Y345144D01*
X500453Y345097D01*
X500945Y342070D01*
X500957Y342039D01*
X500964Y341992D01*
X501935Y339084D01*
X501952Y339055D01*
X501966Y339010D01*
X503391Y336295D01*
X503413Y336269D01*
X503434Y336227D01*
X505276Y333776D01*
X505301Y333753D01*
X505329Y333716D01*
X507541Y331592D01*
X507569Y331574D01*
X507603Y331541D01*
X510126Y329799D01*
X510153Y329788D01*
X510175Y329769D01*
X510244Y329749D01*
X510309Y329721D01*
X510338Y329721D01*
X510366Y329713D01*
X510437Y329721D01*
G37*
G36*
X183016Y329720D02*
X183016Y329720D01*
X183087Y329717D01*
X183114Y329727D01*
X183143Y329729D01*
X183233Y329771D01*
X183273Y329786D01*
X183281Y329793D01*
X183294Y329799D01*
X185817Y331541D01*
X185841Y331565D01*
X185879Y331592D01*
X188091Y333716D01*
X188110Y333744D01*
X188144Y333776D01*
X189986Y336227D01*
X190000Y336258D01*
X190029Y336295D01*
X191454Y339010D01*
X191463Y339043D01*
X191485Y339084D01*
X192456Y341992D01*
X192460Y342026D01*
X192475Y342070D01*
X192967Y345097D01*
X192966Y345131D01*
X192974Y345177D01*
X192974Y348243D01*
X192967Y348276D01*
X192967Y348323D01*
X192475Y351350D01*
X192463Y351381D01*
X192456Y351428D01*
X191485Y354336D01*
X191472Y354359D01*
X191466Y354384D01*
X191459Y354393D01*
X191454Y354410D01*
X190029Y357125D01*
X190007Y357151D01*
X189986Y357193D01*
X188144Y359644D01*
X188119Y359667D01*
X188091Y359704D01*
X185879Y361828D01*
X185851Y361846D01*
X185817Y361879D01*
X183294Y363621D01*
X183267Y363632D01*
X183245Y363651D01*
X183176Y363671D01*
X183111Y363699D01*
X183082Y363699D01*
X183054Y363707D01*
X182983Y363699D01*
X182912Y363700D01*
X182885Y363688D01*
X182856Y363685D01*
X182794Y363650D01*
X182729Y363622D01*
X182708Y363602D01*
X182683Y363587D01*
X182620Y363510D01*
X182590Y363480D01*
X182586Y363470D01*
X182577Y363459D01*
X173077Y346959D01*
X173053Y346886D01*
X173022Y346816D01*
X173022Y346792D01*
X173014Y346770D01*
X173021Y346694D01*
X173020Y346617D01*
X173029Y346593D01*
X173030Y346572D01*
X173051Y346533D01*
X173070Y346481D01*
X173071Y346475D01*
X173073Y346473D01*
X173077Y346461D01*
X182577Y329961D01*
X182596Y329939D01*
X182609Y329913D01*
X182662Y329865D01*
X182709Y329812D01*
X182735Y329799D01*
X182757Y329780D01*
X182824Y329757D01*
X182888Y329726D01*
X182917Y329725D01*
X182944Y329715D01*
X183016Y329720D01*
G37*
G36*
X433386Y196226D02*
X433386Y196226D01*
X433464Y196235D01*
X433483Y196246D01*
X433505Y196250D01*
X433569Y196294D01*
X433637Y196333D01*
X433653Y196352D01*
X433669Y196363D01*
X433693Y196401D01*
X433743Y196461D01*
X443243Y212961D01*
X443252Y212988D01*
X443268Y213012D01*
X443283Y213082D01*
X443306Y213150D01*
X443303Y213178D01*
X443309Y213206D01*
X443296Y213277D01*
X443290Y213348D01*
X443277Y213373D01*
X443271Y213401D01*
X443231Y213461D01*
X443198Y213524D01*
X443176Y213542D01*
X443160Y213566D01*
X443077Y213624D01*
X443045Y213651D01*
X443034Y213654D01*
X443024Y213661D01*
X440258Y214970D01*
X440225Y214978D01*
X440182Y214998D01*
X437242Y215846D01*
X437208Y215849D01*
X437164Y215862D01*
X434126Y216227D01*
X434092Y216224D01*
X434045Y216230D01*
X430988Y216103D01*
X430955Y216095D01*
X430908Y216094D01*
X427911Y215478D01*
X427880Y215465D01*
X427834Y215456D01*
X424974Y214367D01*
X424946Y214349D01*
X424902Y214333D01*
X422254Y212799D01*
X422228Y212777D01*
X422188Y212754D01*
X419820Y210816D01*
X419798Y210789D01*
X419762Y210760D01*
X417735Y208467D01*
X417719Y208438D01*
X417687Y208403D01*
X416055Y205815D01*
X416043Y205783D01*
X416018Y205744D01*
X414822Y202927D01*
X414815Y202894D01*
X414812Y202887D01*
X414808Y202881D01*
X414807Y202875D01*
X414796Y202851D01*
X414068Y199879D01*
X414066Y199845D01*
X414055Y199800D01*
X413812Y196750D01*
X413816Y196721D01*
X413811Y196693D01*
X413828Y196624D01*
X413836Y196552D01*
X413851Y196528D01*
X413857Y196500D01*
X413900Y196442D01*
X413936Y196380D01*
X413958Y196363D01*
X413975Y196340D01*
X414037Y196303D01*
X414094Y196260D01*
X414122Y196253D01*
X414146Y196238D01*
X414246Y196222D01*
X414287Y196211D01*
X414297Y196213D01*
X414310Y196211D01*
X433310Y196211D01*
X433386Y196226D01*
G37*
G36*
X279138Y196216D02*
X279138Y196216D01*
X279166Y196214D01*
X279234Y196236D01*
X279305Y196250D01*
X279328Y196266D01*
X279355Y196275D01*
X279410Y196322D01*
X279469Y196363D01*
X279484Y196387D01*
X279506Y196405D01*
X279537Y196470D01*
X279576Y196530D01*
X279581Y196558D01*
X279593Y196584D01*
X279602Y196685D01*
X279609Y196727D01*
X279607Y196737D01*
X279608Y196750D01*
X279365Y199800D01*
X279356Y199832D01*
X279352Y199879D01*
X278624Y202851D01*
X278609Y202882D01*
X278598Y202927D01*
X277402Y205744D01*
X277383Y205772D01*
X277365Y205815D01*
X275733Y208403D01*
X275709Y208427D01*
X275685Y208467D01*
X273658Y210760D01*
X273631Y210780D01*
X273600Y210816D01*
X271233Y212754D01*
X271202Y212770D01*
X271166Y212799D01*
X268518Y214333D01*
X268486Y214343D01*
X268446Y214367D01*
X265586Y215456D01*
X265553Y215461D01*
X265509Y215478D01*
X262512Y216094D01*
X262478Y216094D01*
X262432Y216103D01*
X259375Y216230D01*
X259341Y216225D01*
X259294Y216227D01*
X256256Y215862D01*
X256224Y215851D01*
X256178Y215846D01*
X253238Y214998D01*
X253208Y214982D01*
X253163Y214970D01*
X250397Y213661D01*
X250374Y213644D01*
X250347Y213634D01*
X250295Y213585D01*
X250237Y213542D01*
X250223Y213517D01*
X250202Y213498D01*
X250173Y213432D01*
X250137Y213370D01*
X250134Y213342D01*
X250122Y213316D01*
X250121Y213244D01*
X250112Y213173D01*
X250120Y213146D01*
X250120Y213117D01*
X250155Y213022D01*
X250166Y212982D01*
X250173Y212973D01*
X250177Y212961D01*
X259677Y196461D01*
X259729Y196403D01*
X259775Y196340D01*
X259794Y196329D01*
X259809Y196312D01*
X259879Y196278D01*
X259946Y196238D01*
X259971Y196234D01*
X259988Y196226D01*
X260033Y196224D01*
X260110Y196211D01*
X279110Y196211D01*
X279138Y196216D01*
G37*
D10*
X450850Y386960D03*
X450850Y369960D03*
D11*
X419100Y342240D03*
X419100Y323240D03*
D12*
X287020Y240420D03*
X287020Y257420D03*
D13*
X407670Y278700D03*
X407670Y266700D03*
X407670Y254700D03*
D12*
X205740Y366640D03*
X205740Y349640D03*
D11*
X266700Y288900D03*
X266700Y269900D03*
X393700Y342240D03*
X393700Y323240D03*
D10*
X289560Y287900D03*
X289560Y270900D03*
D12*
X399170Y307340D03*
X416170Y307340D03*
D10*
X451730Y323850D03*
X434730Y323850D03*
D14*
X339598Y345440D03*
X332994Y345440D03*
X326390Y345440D03*
X326390Y366268D03*
X332994Y366268D03*
X339598Y366268D03*
D10*
X358140Y359655D03*
X358140Y342655D03*
X393310Y387350D03*
X376310Y387350D03*
D12*
X394580Y370840D03*
X377580Y370840D03*
D15*
X511910Y346710D03*
X429310Y203610D03*
X264110Y203610D03*
X181510Y346710D03*
X470610Y418210D03*
X470610Y275210D03*
X346710Y203610D03*
X222810Y275210D03*
X222810Y418210D03*
D16*
X396748Y435864D02*
X396748Y455676D01*
D17*
X346710Y445770D03*
D16*
X296672Y455676D02*
X296672Y435864D01*
D10*
X296300Y406400D03*
X313300Y406400D03*
D12*
X293370Y352180D03*
X293370Y369180D03*
D18*
X276430Y406400D03*
X254430Y415900D03*
X254430Y396900D03*
D19*
X334454Y389280D03*
X334454Y398780D03*
X334454Y408280D03*
X361506Y408280D03*
X361506Y398780D03*
X361506Y389280D03*
D10*
X307340Y370450D03*
X307340Y353450D03*
X308220Y384810D03*
X291220Y384810D03*
D12*
X251460Y370450D03*
X251460Y353450D03*
D10*
X265430Y374260D03*
X265430Y357260D03*
D12*
X279400Y369180D03*
X279400Y352180D03*
D20*
X381254Y299366D03*
X381254Y294364D03*
X381254Y289363D03*
X381254Y284362D03*
X381254Y279361D03*
X381254Y274359D03*
X381254Y269358D03*
X381254Y264357D03*
X381254Y259356D03*
X381254Y254354D03*
D21*
X369216Y242316D03*
X364214Y242316D03*
X359213Y242316D03*
X354212Y242316D03*
X349211Y242316D03*
X344209Y242316D03*
X339208Y242316D03*
X334207Y242316D03*
X329206Y242316D03*
X324204Y242316D03*
D20*
X312166Y254354D03*
X312166Y259356D03*
X312166Y264357D03*
X312166Y269358D03*
X312166Y274359D03*
X312166Y279361D03*
X312166Y284362D03*
X312166Y289363D03*
X312166Y294364D03*
X312166Y299366D03*
D21*
X324204Y311404D03*
X329206Y311404D03*
X334207Y311404D03*
X339208Y311404D03*
X344209Y311404D03*
X349211Y311404D03*
X354212Y311404D03*
X359213Y311404D03*
X364214Y311404D03*
X369216Y311404D03*
D22*
X346710Y276860D03*
D23*
X311785Y304244D03*
D24*
X319326Y311388D03*
X374094Y311388D03*
D23*
X381635Y304244D03*
D25*
X381238Y249476D03*
D26*
X374094Y241935D03*
X319326Y241935D03*
D25*
X312182Y249476D03*
D12*
X397900Y293370D03*
X414900Y293370D03*
D27*
X469900Y372110D03*
D28*
X224790Y368300D03*
X224790Y342900D03*
X224790Y317500D03*
D29*
X329710Y486410D03*
X363710Y486410D03*
M02*
