M48
;GenerationSoftware,Autodesk,EAGLE,9.6.1*%
;CreationDate,2020-05-19T19:25:02Z*%
FMAT,2
ICI,OFF
METRIC,TZ,000.000
T2C0.350
T1C1.321
%
G90
M71
T1
X29667Y45212
X39675Y45212
X34671Y45212
T2
X42122Y23156
X28956Y23010
X48260Y36576
X25842Y33147
X24027Y24636
X20531Y39095
X24130Y31369
X39243Y23790
X39824Y35179
X46230Y39099
X45339Y33534
X44831Y38735
X46736Y31036
X45101Y29373
X37973Y20320
X22733Y33147
X21971Y33909
X32469Y33274
X35306Y38799
X34794Y23420
X22479Y36195
X43180Y46482
X39243Y42672
X40640Y42672
X39370Y41402
X40640Y41402
X41910Y41402
X41910Y42672
X41910Y43942
X41910Y45212
X41910Y46482
X43180Y45212
X43180Y43942
X43180Y42672
X43180Y41402
X38100Y42672
X38100Y41402
X38100Y43942
X38100Y45339
X38100Y46609
X38875Y24892
X43395Y35233
X26162Y38862
X26162Y40132
X26162Y41402
X26162Y42672
X26162Y43942
X26162Y45212
X26162Y46482
X27432Y42672
X27432Y43942
X27432Y45212
X27432Y46482
X28702Y42672
X29972Y38862
X47371Y33020
X29972Y41402
X29972Y42672
X27432Y41402
X28702Y41402
X27432Y40132
X28702Y40132
X28702Y38862
X27432Y38862
X29972Y40132
X31369Y45212
X31369Y43942
X31369Y42672
X31369Y41402
X31369Y40132
X31369Y38862
X23431Y37084
X43815Y22352
X31369Y46482
M30