G04 EAGLE Gerber RS-274X export*
G75*
%MOMM*%
%FSLAX34Y34*%
%LPD*%
%INBottom Copper*%
%IPPOS*%
%AMOC8*
5,1,8,0,0,1.08239X$1,22.5*%
G01*
%ADD10R,1.300000X1.500000*%
%ADD11C,0.124994*%
%ADD12R,5.699988X5.699988*%
%ADD13R,1.399997X0.400000*%
%ADD14R,1.500000X1.300000*%
%ADD15R,1.100000X1.000000*%
%ADD16R,1.000000X1.100000*%
%ADD17C,0.499997*%
%ADD18R,1.400000X1.000000*%
%ADD19R,0.355600X1.168400*%
%ADD20C,1.000000*%
%ADD21C,1.981200*%
%ADD22C,0.756400*%
%ADD23C,0.254000*%
%ADD24C,0.406400*%
%ADD25C,0.355600*%
%ADD26C,0.304800*%

G36*
X279138Y196216D02*
X279138Y196216D01*
X279166Y196214D01*
X279234Y196236D01*
X279305Y196250D01*
X279328Y196266D01*
X279355Y196275D01*
X279410Y196322D01*
X279469Y196363D01*
X279484Y196387D01*
X279506Y196405D01*
X279537Y196470D01*
X279576Y196530D01*
X279581Y196558D01*
X279593Y196584D01*
X279602Y196685D01*
X279609Y196727D01*
X279607Y196737D01*
X279608Y196750D01*
X279490Y198227D01*
X317323Y198227D01*
X317408Y198244D01*
X317493Y198256D01*
X317505Y198264D01*
X317519Y198266D01*
X317591Y198315D01*
X317665Y198360D01*
X317673Y198371D01*
X317685Y198379D01*
X317732Y198451D01*
X317783Y198522D01*
X317787Y198536D01*
X317794Y198547D01*
X317804Y198602D01*
X317828Y198696D01*
X317930Y200055D01*
X317921Y200125D01*
X317921Y200195D01*
X317909Y200226D01*
X317905Y200254D01*
X317880Y200298D01*
X317854Y200362D01*
X317851Y200367D01*
X317995Y201000D01*
X317996Y201034D01*
X318007Y201075D01*
X318055Y201722D01*
X318059Y201725D01*
X318103Y201781D01*
X318152Y201831D01*
X318165Y201861D01*
X318182Y201884D01*
X318196Y201933D01*
X318223Y201997D01*
X318750Y204307D01*
X318752Y204377D01*
X318762Y204447D01*
X318755Y204479D01*
X318755Y204507D01*
X318736Y204555D01*
X318721Y204622D01*
X318718Y204627D01*
X318955Y205231D01*
X318962Y205266D01*
X318978Y205304D01*
X319122Y205937D01*
X319127Y205939D01*
X319178Y205988D01*
X319235Y206030D01*
X319252Y206058D01*
X319272Y206078D01*
X319293Y206125D01*
X319329Y206184D01*
X320195Y208389D01*
X320207Y208459D01*
X320227Y208526D01*
X320225Y208559D01*
X320230Y208586D01*
X320218Y208637D01*
X320212Y208706D01*
X320211Y208711D01*
X320535Y209273D01*
X320547Y209306D01*
X320568Y209341D01*
X320805Y209945D01*
X320811Y209947D01*
X320868Y209988D01*
X320931Y210021D01*
X320952Y210046D01*
X320975Y210062D01*
X321002Y210106D01*
X321047Y210159D01*
X322232Y212210D01*
X322241Y212238D01*
X322244Y212243D01*
X322246Y212253D01*
X322254Y212277D01*
X322284Y212341D01*
X322287Y212374D01*
X322295Y212400D01*
X322292Y212452D01*
X322296Y212521D01*
X322296Y212526D01*
X322700Y213034D01*
X322716Y213065D01*
X322743Y213096D01*
X323067Y213658D01*
X323073Y213660D01*
X323136Y213691D01*
X323202Y213715D01*
X323227Y213736D01*
X323252Y213749D01*
X323286Y213788D01*
X323338Y213833D01*
X324815Y215686D01*
X324847Y215748D01*
X324887Y215807D01*
X324894Y215839D01*
X324907Y215864D01*
X324911Y215915D01*
X324925Y215983D01*
X324926Y215988D01*
X325401Y216430D01*
X325422Y216458D01*
X325453Y216485D01*
X325857Y216993D01*
X325863Y216993D01*
X325930Y217015D01*
X325999Y217028D01*
X326027Y217046D01*
X326054Y217055D01*
X326093Y217088D01*
X326151Y217126D01*
X327888Y218737D01*
X327929Y218794D01*
X327977Y218846D01*
X327989Y218877D01*
X328005Y218900D01*
X328017Y218950D01*
X328041Y219015D01*
X328042Y219020D01*
X328578Y219385D01*
X328603Y219410D01*
X328638Y219433D01*
X329113Y219874D01*
X329119Y219874D01*
X329188Y219885D01*
X329259Y219888D01*
X329289Y219902D01*
X329317Y219906D01*
X329360Y219933D01*
X329424Y219962D01*
X331381Y221296D01*
X331430Y221347D01*
X331485Y221391D01*
X331501Y221420D01*
X331521Y221440D01*
X331540Y221488D01*
X331574Y221548D01*
X331576Y221553D01*
X332161Y221835D01*
X332188Y221856D01*
X332226Y221873D01*
X332762Y222238D01*
X332768Y222237D01*
X332838Y222238D01*
X332909Y222230D01*
X332940Y222239D01*
X332968Y222239D01*
X333015Y222260D01*
X333082Y222278D01*
X335217Y223306D01*
X335273Y223349D01*
X335334Y223385D01*
X335354Y223410D01*
X335376Y223427D01*
X335402Y223472D01*
X335445Y223526D01*
X335448Y223531D01*
X336068Y223722D01*
X336098Y223739D01*
X336138Y223750D01*
X336723Y224032D01*
X336728Y224030D01*
X336798Y224020D01*
X336866Y224002D01*
X336899Y224006D01*
X336927Y224002D01*
X336977Y224016D01*
X337045Y224024D01*
X339309Y224722D01*
X339371Y224756D01*
X339437Y224782D01*
X339460Y224805D01*
X339485Y224818D01*
X339517Y224858D01*
X339568Y224906D01*
X339571Y224910D01*
X340212Y225007D01*
X340245Y225019D01*
X340286Y225024D01*
X340907Y225215D01*
X340911Y225212D01*
X340979Y225192D01*
X341044Y225165D01*
X341077Y225164D01*
X341104Y225156D01*
X341155Y225161D01*
X341224Y225159D01*
X343567Y225512D01*
X343633Y225537D01*
X343702Y225553D01*
X343729Y225571D01*
X343755Y225581D01*
X343793Y225616D01*
X343850Y225655D01*
X343854Y225659D01*
X344503Y225659D01*
X344537Y225666D01*
X344578Y225665D01*
X345220Y225762D01*
X345224Y225758D01*
X345288Y225729D01*
X345348Y225691D01*
X345380Y225685D01*
X345406Y225674D01*
X345457Y225672D01*
X345525Y225659D01*
X347895Y225659D01*
X347964Y225673D01*
X348034Y225679D01*
X348064Y225693D01*
X348091Y225699D01*
X348134Y225728D01*
X348196Y225758D01*
X348200Y225762D01*
X348842Y225665D01*
X348877Y225667D01*
X348917Y225659D01*
X349566Y225659D01*
X349570Y225655D01*
X349629Y225616D01*
X349683Y225570D01*
X349714Y225560D01*
X349737Y225544D01*
X349788Y225535D01*
X349853Y225512D01*
X352196Y225159D01*
X352267Y225163D01*
X352337Y225158D01*
X352368Y225168D01*
X352396Y225169D01*
X352443Y225192D01*
X352509Y225212D01*
X352513Y225215D01*
X353134Y225024D01*
X353168Y225020D01*
X353208Y225007D01*
X353849Y224910D01*
X353852Y224906D01*
X353905Y224858D01*
X353951Y224805D01*
X353980Y224790D01*
X354001Y224771D01*
X354050Y224754D01*
X354111Y224722D01*
X356375Y224024D01*
X356445Y224017D01*
X356514Y224002D01*
X356546Y224007D01*
X356574Y224004D01*
X356624Y224019D01*
X356692Y224030D01*
X356697Y224032D01*
X356739Y224012D01*
X356759Y224006D01*
X356777Y223995D01*
X356856Y223982D01*
X356933Y223962D01*
X356954Y223965D01*
X356974Y223962D01*
X357052Y223980D01*
X357131Y223992D01*
X357149Y224002D01*
X357170Y224007D01*
X357257Y224068D01*
X357303Y224096D01*
X357308Y224104D01*
X357318Y224110D01*
X359997Y226789D01*
X360001Y226796D01*
X360007Y226800D01*
X360056Y226879D01*
X360108Y226956D01*
X360109Y226964D01*
X360113Y226970D01*
X360145Y227148D01*
X360145Y242367D01*
X360165Y242478D01*
X360165Y244855D01*
X361425Y246115D01*
X364455Y246115D01*
X365081Y245489D01*
X365086Y245486D01*
X365089Y245482D01*
X365169Y245430D01*
X365248Y245378D01*
X365253Y245377D01*
X365258Y245374D01*
X365352Y245358D01*
X365445Y245340D01*
X365450Y245341D01*
X365456Y245340D01*
X365548Y245362D01*
X365641Y245382D01*
X365646Y245385D01*
X365651Y245386D01*
X365799Y245489D01*
X366425Y246115D01*
X369455Y246115D01*
X370081Y245489D01*
X370086Y245486D01*
X370089Y245482D01*
X370169Y245430D01*
X370248Y245378D01*
X370253Y245377D01*
X370258Y245374D01*
X370352Y245358D01*
X370445Y245340D01*
X370450Y245341D01*
X370456Y245340D01*
X370548Y245362D01*
X370641Y245382D01*
X370646Y245385D01*
X370651Y245386D01*
X370799Y245489D01*
X371425Y246115D01*
X374408Y246115D01*
X374413Y246116D01*
X374418Y246115D01*
X374511Y246136D01*
X374605Y246154D01*
X374609Y246157D01*
X374614Y246158D01*
X374692Y246214D01*
X374770Y246267D01*
X374773Y246271D01*
X374778Y246274D01*
X374828Y246356D01*
X374880Y246435D01*
X374881Y246440D01*
X374883Y246445D01*
X374915Y246622D01*
X374915Y249605D01*
X375541Y250231D01*
X375544Y250236D01*
X375548Y250239D01*
X375600Y250319D01*
X375652Y250398D01*
X375653Y250403D01*
X375656Y250408D01*
X375672Y250502D01*
X375690Y250595D01*
X375689Y250600D01*
X375690Y250606D01*
X375668Y250698D01*
X375648Y250791D01*
X375645Y250796D01*
X375644Y250801D01*
X375541Y250949D01*
X374915Y251575D01*
X374915Y254605D01*
X375541Y255231D01*
X375544Y255236D01*
X375548Y255239D01*
X375600Y255319D01*
X375652Y255398D01*
X375653Y255403D01*
X375656Y255408D01*
X375672Y255502D01*
X375690Y255595D01*
X375689Y255600D01*
X375690Y255606D01*
X375668Y255698D01*
X375648Y255791D01*
X375645Y255796D01*
X375644Y255801D01*
X375541Y255949D01*
X374915Y256575D01*
X374915Y259605D01*
X375541Y260231D01*
X375544Y260236D01*
X375548Y260239D01*
X375600Y260319D01*
X375652Y260398D01*
X375653Y260403D01*
X375656Y260408D01*
X375672Y260502D01*
X375690Y260595D01*
X375689Y260600D01*
X375690Y260606D01*
X375668Y260698D01*
X375648Y260791D01*
X375645Y260796D01*
X375644Y260801D01*
X375541Y260949D01*
X374915Y261575D01*
X374915Y264605D01*
X376175Y265865D01*
X378552Y265865D01*
X378560Y265866D01*
X378568Y265865D01*
X378653Y265885D01*
X387038Y265885D01*
X397329Y255593D01*
X397336Y255589D01*
X397340Y255583D01*
X397419Y255534D01*
X397496Y255482D01*
X397504Y255481D01*
X397510Y255477D01*
X397688Y255445D01*
X409112Y255445D01*
X410005Y254552D01*
X410005Y243288D01*
X409112Y242395D01*
X397136Y242395D01*
X397128Y242394D01*
X397121Y242395D01*
X397031Y242374D01*
X396940Y242356D01*
X396933Y242351D01*
X396925Y242349D01*
X396777Y242247D01*
X396541Y242010D01*
X396538Y242006D01*
X396534Y242003D01*
X396483Y241923D01*
X396430Y241843D01*
X396429Y241838D01*
X396426Y241834D01*
X396411Y241740D01*
X396393Y241647D01*
X396394Y241641D01*
X396393Y241636D01*
X396415Y241544D01*
X396434Y241451D01*
X396437Y241446D01*
X396438Y241441D01*
X396541Y241293D01*
X397737Y240098D01*
X397737Y237780D01*
X397738Y237772D01*
X397737Y237764D01*
X397758Y237674D01*
X397776Y237583D01*
X397781Y237577D01*
X397783Y237569D01*
X397885Y237421D01*
X398575Y236732D01*
X398575Y220468D01*
X397682Y219575D01*
X385848Y219575D01*
X385845Y219575D01*
X385843Y219575D01*
X385748Y219555D01*
X385651Y219536D01*
X385649Y219534D01*
X385647Y219534D01*
X385566Y219478D01*
X385486Y219423D01*
X385484Y219421D01*
X385482Y219419D01*
X385429Y219336D01*
X385376Y219255D01*
X385376Y219252D01*
X385374Y219250D01*
X385358Y219154D01*
X385341Y219058D01*
X385341Y219055D01*
X385341Y219053D01*
X385363Y218959D01*
X385384Y218862D01*
X385386Y218860D01*
X385386Y218857D01*
X385489Y218709D01*
X391522Y212677D01*
X391528Y212672D01*
X391533Y212666D01*
X391612Y212617D01*
X391689Y212566D01*
X391696Y212564D01*
X391703Y212560D01*
X391880Y212528D01*
X407317Y212528D01*
X407325Y212530D01*
X407333Y212528D01*
X407422Y212549D01*
X407514Y212568D01*
X407520Y212572D01*
X407528Y212574D01*
X407676Y212677D01*
X442827Y247828D01*
X442831Y247834D01*
X442837Y247839D01*
X442886Y247918D01*
X442938Y247995D01*
X442939Y248002D01*
X442943Y248009D01*
X442975Y248186D01*
X442975Y286908D01*
X444761Y288693D01*
X446294Y290226D01*
X446297Y290231D01*
X446301Y290234D01*
X446352Y290314D01*
X446405Y290393D01*
X446406Y290398D01*
X446409Y290403D01*
X446425Y290497D01*
X446443Y290590D01*
X446441Y290595D01*
X446442Y290600D01*
X446421Y290693D01*
X446401Y290786D01*
X446398Y290791D01*
X446397Y290796D01*
X446294Y290944D01*
X445707Y291531D01*
X445707Y295927D01*
X448816Y299036D01*
X453212Y299036D01*
X456320Y295927D01*
X456320Y293559D01*
X456339Y293466D01*
X456355Y293375D01*
X456359Y293369D01*
X456360Y293362D01*
X456413Y293284D01*
X456463Y293206D01*
X456469Y293202D01*
X456473Y293196D01*
X456551Y293145D01*
X456628Y293092D01*
X456635Y293091D01*
X456641Y293087D01*
X456732Y293071D01*
X456824Y293051D01*
X456831Y293053D01*
X456838Y293051D01*
X456929Y293072D01*
X457021Y293090D01*
X457027Y293094D01*
X457034Y293095D01*
X457072Y293123D01*
X457173Y293187D01*
X457771Y293743D01*
X457813Y293800D01*
X457860Y293852D01*
X457872Y293883D01*
X457888Y293905D01*
X457900Y293956D01*
X457925Y294020D01*
X457926Y294026D01*
X458462Y294391D01*
X458486Y294416D01*
X458521Y294439D01*
X458997Y294880D01*
X459002Y294880D01*
X459072Y294891D01*
X459142Y294894D01*
X459172Y294908D01*
X459200Y294912D01*
X459244Y294940D01*
X459307Y294968D01*
X461266Y296304D01*
X461315Y296355D01*
X461370Y296399D01*
X461386Y296428D01*
X461406Y296448D01*
X461425Y296496D01*
X461459Y296556D01*
X461460Y296561D01*
X462045Y296843D01*
X462073Y296864D01*
X462111Y296881D01*
X462647Y297247D01*
X462652Y297246D01*
X462723Y297246D01*
X462793Y297239D01*
X462824Y297248D01*
X462852Y297248D01*
X462900Y297269D01*
X462966Y297287D01*
X465103Y298317D01*
X465159Y298359D01*
X465220Y298395D01*
X465240Y298421D01*
X465262Y298438D01*
X465288Y298482D01*
X465331Y298537D01*
X465333Y298542D01*
X465954Y298733D01*
X465984Y298750D01*
X466024Y298761D01*
X466609Y299042D01*
X466614Y299041D01*
X466684Y299031D01*
X466752Y299013D01*
X466785Y299017D01*
X466812Y299013D01*
X466862Y299026D01*
X466931Y299035D01*
X469197Y299734D01*
X469259Y299768D01*
X469324Y299794D01*
X469348Y299817D01*
X469373Y299830D01*
X469405Y299871D01*
X469455Y299918D01*
X469458Y299923D01*
X470100Y300019D01*
X470133Y300031D01*
X470174Y300036D01*
X470794Y300228D01*
X470799Y300225D01*
X470821Y300219D01*
X470825Y300216D01*
X470838Y300214D01*
X470867Y300205D01*
X470931Y300177D01*
X470964Y300176D01*
X470991Y300168D01*
X471042Y300174D01*
X471112Y300172D01*
X473456Y300526D01*
X473523Y300551D01*
X473591Y300567D01*
X473618Y300585D01*
X473645Y300595D01*
X473683Y300630D01*
X473739Y300669D01*
X473743Y300673D01*
X474392Y300673D01*
X474426Y300680D01*
X474468Y300679D01*
X475109Y300776D01*
X475114Y300773D01*
X475178Y300743D01*
X475238Y300706D01*
X475270Y300700D01*
X475295Y300688D01*
X475347Y300686D01*
X475415Y300674D01*
X477786Y300675D01*
X477856Y300689D01*
X477926Y300694D01*
X477955Y300709D01*
X477983Y300714D01*
X478026Y300743D01*
X478088Y300774D01*
X478092Y300777D01*
X478734Y300681D01*
X478768Y300682D01*
X478809Y300675D01*
X479458Y300675D01*
X479462Y300671D01*
X479521Y300632D01*
X479575Y300586D01*
X479606Y300576D01*
X479629Y300560D01*
X479680Y300551D01*
X479745Y300528D01*
X482090Y300176D01*
X482161Y300179D01*
X482231Y300174D01*
X482262Y300184D01*
X482290Y300186D01*
X482337Y300208D01*
X482382Y300222D01*
X482388Y300224D01*
X482391Y300225D01*
X482403Y300229D01*
X482408Y300232D01*
X483028Y300040D01*
X483062Y300037D01*
X483102Y300024D01*
X483743Y299927D01*
X483747Y299923D01*
X483799Y299875D01*
X483845Y299822D01*
X483874Y299807D01*
X483895Y299788D01*
X483944Y299771D01*
X484005Y299739D01*
X486272Y299041D01*
X486342Y299034D01*
X486411Y299019D01*
X486443Y299024D01*
X486471Y299021D01*
X486520Y299036D01*
X486589Y299047D01*
X486594Y299049D01*
X487179Y298767D01*
X487212Y298759D01*
X487249Y298740D01*
X487869Y298549D01*
X487872Y298544D01*
X487916Y298489D01*
X487954Y298430D01*
X487981Y298410D01*
X487999Y298389D01*
X488044Y298365D01*
X488100Y298324D01*
X489338Y297728D01*
X489422Y297707D01*
X489505Y297681D01*
X489519Y297682D01*
X489532Y297679D01*
X489618Y297692D01*
X489704Y297700D01*
X489717Y297706D01*
X489731Y297708D01*
X489804Y297753D01*
X489881Y297794D01*
X489891Y297806D01*
X489902Y297813D01*
X489935Y297857D01*
X489997Y297932D01*
X508889Y330653D01*
X510126Y329799D01*
X510153Y329788D01*
X510175Y329769D01*
X510244Y329749D01*
X510309Y329721D01*
X510338Y329721D01*
X510366Y329713D01*
X510437Y329721D01*
X510508Y329721D01*
X510535Y329732D01*
X510564Y329735D01*
X510626Y329770D01*
X510691Y329798D01*
X510712Y329818D01*
X510737Y329833D01*
X510800Y329910D01*
X510830Y329940D01*
X510834Y329950D01*
X510843Y329961D01*
X520343Y346461D01*
X520353Y346493D01*
X520362Y346506D01*
X520366Y346530D01*
X520367Y346534D01*
X520398Y346604D01*
X520398Y346628D01*
X520406Y346650D01*
X520400Y346726D01*
X520401Y346803D01*
X520391Y346827D01*
X520390Y346848D01*
X520369Y346887D01*
X520343Y346959D01*
X510843Y363459D01*
X510824Y363481D01*
X510811Y363507D01*
X510758Y363555D01*
X510711Y363608D01*
X510685Y363621D01*
X510664Y363640D01*
X510596Y363663D01*
X510532Y363694D01*
X510503Y363696D01*
X510476Y363705D01*
X510404Y363700D01*
X510333Y363703D01*
X510306Y363693D01*
X510277Y363691D01*
X510187Y363649D01*
X510147Y363634D01*
X510139Y363627D01*
X510126Y363621D01*
X508889Y362767D01*
X489997Y395488D01*
X489940Y395553D01*
X489886Y395621D01*
X489874Y395628D01*
X489865Y395639D01*
X489787Y395676D01*
X489711Y395718D01*
X489697Y395720D01*
X489684Y395726D01*
X489598Y395730D01*
X489512Y395740D01*
X489497Y395736D01*
X489484Y395736D01*
X489432Y395718D01*
X489338Y395692D01*
X488100Y395096D01*
X488044Y395053D01*
X487983Y395018D01*
X487963Y394992D01*
X487940Y394975D01*
X487915Y394931D01*
X487872Y394876D01*
X487869Y394871D01*
X487249Y394680D01*
X487219Y394664D01*
X487179Y394653D01*
X486594Y394371D01*
X486589Y394373D01*
X486519Y394383D01*
X486450Y394401D01*
X486418Y394397D01*
X486390Y394401D01*
X486340Y394387D01*
X486272Y394379D01*
X484005Y393681D01*
X483943Y393647D01*
X483878Y393621D01*
X483854Y393598D01*
X483829Y393585D01*
X483797Y393545D01*
X483747Y393497D01*
X483743Y393493D01*
X483102Y393396D01*
X483069Y393385D01*
X483028Y393380D01*
X482408Y393188D01*
X482403Y393191D01*
X482335Y393211D01*
X482270Y393239D01*
X482238Y393240D01*
X482211Y393248D01*
X482159Y393242D01*
X482090Y393244D01*
X479745Y392892D01*
X479679Y392868D01*
X479610Y392851D01*
X479583Y392833D01*
X479557Y392823D01*
X479519Y392788D01*
X479462Y392749D01*
X479458Y392745D01*
X478809Y392745D01*
X478775Y392738D01*
X478734Y392739D01*
X478092Y392643D01*
X478088Y392646D01*
X478024Y392676D01*
X477964Y392713D01*
X477931Y392719D01*
X477906Y392731D01*
X477854Y392733D01*
X477786Y392745D01*
X475415Y392746D01*
X475346Y392732D01*
X475275Y392727D01*
X475246Y392712D01*
X475219Y392707D01*
X475176Y392678D01*
X475114Y392647D01*
X475109Y392644D01*
X474468Y392741D01*
X474433Y392739D01*
X474392Y392747D01*
X473912Y392747D01*
X473907Y392746D01*
X473902Y392747D01*
X473809Y392726D01*
X473716Y392707D01*
X473711Y392704D01*
X473706Y392703D01*
X473628Y392648D01*
X473550Y392595D01*
X473547Y392590D01*
X473543Y392587D01*
X473492Y392506D01*
X473440Y392427D01*
X473440Y392421D01*
X473437Y392417D01*
X473405Y392239D01*
X473405Y360867D01*
X454048Y341511D01*
X454047Y341508D01*
X454044Y341507D01*
X453992Y341426D01*
X453937Y341344D01*
X453937Y341341D01*
X453935Y341339D01*
X453918Y341243D01*
X453899Y341147D01*
X453900Y341144D01*
X453900Y341142D01*
X453921Y341045D01*
X453941Y340951D01*
X453943Y340949D01*
X453943Y340946D01*
X454000Y340866D01*
X454055Y340786D01*
X454058Y340785D01*
X454059Y340783D01*
X454142Y340731D01*
X454225Y340679D01*
X454227Y340678D01*
X454229Y340677D01*
X454407Y340645D01*
X455588Y340645D01*
X458697Y337536D01*
X458697Y335052D01*
X458697Y335050D01*
X458697Y335047D01*
X458717Y334952D01*
X458736Y334856D01*
X458738Y334853D01*
X458738Y334851D01*
X458794Y334770D01*
X458849Y334690D01*
X458851Y334688D01*
X458853Y334686D01*
X458936Y334633D01*
X459017Y334581D01*
X459020Y334580D01*
X459022Y334579D01*
X459118Y334562D01*
X459214Y334545D01*
X459217Y334546D01*
X459219Y334545D01*
X459313Y334567D01*
X459410Y334589D01*
X459412Y334590D01*
X459415Y334591D01*
X459563Y334693D01*
X479149Y354279D01*
X479153Y354286D01*
X479159Y354291D01*
X479208Y354369D01*
X479260Y354446D01*
X479261Y354454D01*
X479265Y354461D01*
X479297Y354638D01*
X479297Y361348D01*
X479296Y361356D01*
X479297Y361363D01*
X479276Y361453D01*
X479258Y361544D01*
X479253Y361551D01*
X479251Y361558D01*
X479149Y361706D01*
X477293Y363562D01*
X477293Y367958D01*
X480402Y371067D01*
X484798Y371067D01*
X487907Y367958D01*
X487907Y363562D01*
X486051Y361706D01*
X486047Y361700D01*
X486041Y361695D01*
X485992Y361617D01*
X485940Y361540D01*
X485939Y361532D01*
X485935Y361525D01*
X485903Y361348D01*
X485903Y351692D01*
X458178Y323967D01*
X413432Y323967D01*
X413427Y323966D01*
X413422Y323967D01*
X413329Y323946D01*
X413235Y323928D01*
X413231Y323925D01*
X413226Y323924D01*
X413148Y323868D01*
X413070Y323815D01*
X413067Y323811D01*
X413063Y323808D01*
X413012Y323726D01*
X412960Y323647D01*
X412960Y323642D01*
X412957Y323637D01*
X412925Y323460D01*
X412925Y317328D01*
X412032Y316435D01*
X401575Y316435D01*
X401568Y316434D01*
X401560Y316435D01*
X401470Y316414D01*
X401379Y316396D01*
X401372Y316391D01*
X401365Y316389D01*
X401217Y316287D01*
X385225Y300295D01*
X378663Y300295D01*
X378552Y300315D01*
X376175Y300315D01*
X374915Y301575D01*
X374915Y303952D01*
X374914Y303960D01*
X374915Y303968D01*
X374894Y304058D01*
X374876Y304149D01*
X374871Y304155D01*
X374870Y304163D01*
X374767Y304311D01*
X374161Y304917D01*
X374154Y304921D01*
X374150Y304928D01*
X374071Y304976D01*
X373994Y305028D01*
X373986Y305029D01*
X373980Y305033D01*
X373802Y305065D01*
X371425Y305065D01*
X370165Y306325D01*
X370165Y308702D01*
X370164Y308710D01*
X370165Y308718D01*
X370145Y308803D01*
X370145Y311367D01*
X370165Y311478D01*
X370165Y313856D01*
X371425Y315115D01*
X374455Y315115D01*
X374640Y314930D01*
X374645Y314927D01*
X374648Y314923D01*
X374728Y314872D01*
X374807Y314819D01*
X374812Y314818D01*
X374817Y314815D01*
X374910Y314799D01*
X375004Y314781D01*
X375009Y314782D01*
X375014Y314782D01*
X375107Y314803D01*
X375200Y314823D01*
X375204Y314826D01*
X375210Y314827D01*
X375358Y314930D01*
X381057Y320629D01*
X381061Y320636D01*
X381067Y320640D01*
X381116Y320719D01*
X381168Y320796D01*
X381169Y320804D01*
X381173Y320810D01*
X381205Y320988D01*
X381205Y329482D01*
X382131Y330407D01*
X382133Y330410D01*
X382135Y330411D01*
X382187Y330491D01*
X382242Y330574D01*
X382243Y330577D01*
X382244Y330579D01*
X382261Y330675D01*
X382280Y330771D01*
X382279Y330774D01*
X382280Y330776D01*
X382258Y330873D01*
X382238Y330967D01*
X382237Y330969D01*
X382236Y330972D01*
X382179Y331052D01*
X382124Y331132D01*
X382121Y331133D01*
X382120Y331135D01*
X382037Y331187D01*
X381955Y331239D01*
X381952Y331240D01*
X381950Y331241D01*
X381772Y331273D01*
X365916Y331273D01*
X365908Y331272D01*
X365900Y331273D01*
X365810Y331252D01*
X365719Y331234D01*
X365713Y331229D01*
X365705Y331227D01*
X365557Y331125D01*
X362233Y327801D01*
X362229Y327794D01*
X362223Y327790D01*
X362174Y327711D01*
X362122Y327634D01*
X362121Y327626D01*
X362117Y327620D01*
X362085Y327442D01*
X362085Y320362D01*
X357703Y315981D01*
X357702Y315979D01*
X357699Y315977D01*
X357647Y315896D01*
X357592Y315814D01*
X357592Y315811D01*
X357590Y315809D01*
X357573Y315713D01*
X357554Y315617D01*
X357555Y315614D01*
X357555Y315612D01*
X357576Y315515D01*
X357596Y315421D01*
X357598Y315419D01*
X357598Y315416D01*
X357655Y315336D01*
X357710Y315256D01*
X357713Y315255D01*
X357714Y315253D01*
X357797Y315201D01*
X357880Y315149D01*
X357882Y315148D01*
X357884Y315147D01*
X358062Y315115D01*
X359455Y315115D01*
X360081Y314489D01*
X360086Y314486D01*
X360089Y314482D01*
X360169Y314431D01*
X360248Y314378D01*
X360253Y314377D01*
X360258Y314374D01*
X360352Y314358D01*
X360445Y314340D01*
X360450Y314341D01*
X360455Y314341D01*
X360548Y314362D01*
X360641Y314382D01*
X360646Y314385D01*
X360651Y314386D01*
X360799Y314489D01*
X361425Y315115D01*
X364455Y315115D01*
X365715Y313856D01*
X365715Y306325D01*
X364455Y305065D01*
X361425Y305065D01*
X360799Y305691D01*
X360794Y305694D01*
X360791Y305698D01*
X360711Y305750D01*
X360632Y305802D01*
X360627Y305803D01*
X360622Y305806D01*
X360528Y305822D01*
X360435Y305840D01*
X360430Y305839D01*
X360424Y305840D01*
X360332Y305818D01*
X360239Y305798D01*
X360234Y305795D01*
X360229Y305794D01*
X360081Y305691D01*
X359455Y305065D01*
X356425Y305065D01*
X355799Y305691D01*
X355794Y305694D01*
X355791Y305698D01*
X355711Y305750D01*
X355632Y305802D01*
X355627Y305803D01*
X355622Y305806D01*
X355528Y305822D01*
X355435Y305840D01*
X355430Y305839D01*
X355424Y305840D01*
X355332Y305818D01*
X355239Y305798D01*
X355234Y305795D01*
X355229Y305794D01*
X355081Y305691D01*
X354455Y305065D01*
X351425Y305065D01*
X350799Y305691D01*
X350794Y305694D01*
X350791Y305698D01*
X350711Y305749D01*
X350632Y305802D01*
X350627Y305803D01*
X350622Y305806D01*
X350528Y305822D01*
X350435Y305840D01*
X350430Y305839D01*
X350425Y305840D01*
X350332Y305818D01*
X350239Y305798D01*
X350234Y305795D01*
X350229Y305794D01*
X350081Y305691D01*
X349455Y305065D01*
X346425Y305065D01*
X345799Y305691D01*
X345794Y305694D01*
X345791Y305698D01*
X345711Y305750D01*
X345632Y305802D01*
X345627Y305803D01*
X345622Y305806D01*
X345528Y305822D01*
X345435Y305840D01*
X345430Y305839D01*
X345424Y305840D01*
X345332Y305818D01*
X345239Y305798D01*
X345234Y305795D01*
X345229Y305794D01*
X345081Y305691D01*
X344455Y305065D01*
X341425Y305065D01*
X340799Y305691D01*
X340794Y305694D01*
X340791Y305698D01*
X340711Y305750D01*
X340632Y305802D01*
X340627Y305803D01*
X340622Y305806D01*
X340528Y305822D01*
X340435Y305840D01*
X340430Y305839D01*
X340424Y305840D01*
X340332Y305818D01*
X340239Y305798D01*
X340234Y305795D01*
X340229Y305794D01*
X340081Y305691D01*
X339455Y305065D01*
X336425Y305065D01*
X335799Y305691D01*
X335794Y305694D01*
X335791Y305698D01*
X335711Y305750D01*
X335632Y305802D01*
X335627Y305803D01*
X335622Y305806D01*
X335528Y305822D01*
X335435Y305840D01*
X335430Y305839D01*
X335424Y305840D01*
X335332Y305818D01*
X335239Y305798D01*
X335234Y305795D01*
X335229Y305794D01*
X335081Y305691D01*
X334455Y305065D01*
X331425Y305065D01*
X330799Y305691D01*
X330794Y305694D01*
X330791Y305698D01*
X330711Y305750D01*
X330632Y305802D01*
X330627Y305803D01*
X330622Y305806D01*
X330528Y305822D01*
X330435Y305840D01*
X330430Y305839D01*
X330424Y305840D01*
X330332Y305818D01*
X330239Y305798D01*
X330234Y305795D01*
X330229Y305794D01*
X330081Y305691D01*
X329455Y305065D01*
X326425Y305065D01*
X325165Y306325D01*
X325165Y308702D01*
X325164Y308710D01*
X325165Y308718D01*
X325145Y308803D01*
X325145Y317870D01*
X333058Y325783D01*
X342802Y325783D01*
X342810Y325784D01*
X342818Y325783D01*
X342908Y325804D01*
X342999Y325822D01*
X343005Y325827D01*
X343013Y325829D01*
X343161Y325931D01*
X345317Y328087D01*
X345321Y328094D01*
X345327Y328098D01*
X345376Y328177D01*
X345428Y328254D01*
X345429Y328262D01*
X345433Y328268D01*
X345465Y328446D01*
X345465Y336718D01*
X347251Y338503D01*
X354465Y345717D01*
X356250Y347503D01*
X366156Y347503D01*
X366158Y347503D01*
X366161Y347503D01*
X366256Y347523D01*
X366352Y347542D01*
X366355Y347544D01*
X366357Y347544D01*
X366438Y347600D01*
X366518Y347655D01*
X366520Y347657D01*
X366522Y347659D01*
X366575Y347742D01*
X366627Y347823D01*
X366628Y347826D01*
X366629Y347828D01*
X366646Y347924D01*
X366663Y348020D01*
X366662Y348023D01*
X366663Y348025D01*
X366641Y348120D01*
X366619Y348216D01*
X366618Y348218D01*
X366617Y348221D01*
X366515Y348369D01*
X364313Y350571D01*
X359917Y354966D01*
X359917Y355443D01*
X359916Y355448D01*
X359917Y355453D01*
X359896Y355546D01*
X359878Y355640D01*
X359875Y355644D01*
X359874Y355649D01*
X359818Y355727D01*
X359765Y355805D01*
X359761Y355808D01*
X359758Y355812D01*
X359676Y355863D01*
X359597Y355915D01*
X359592Y355915D01*
X359587Y355918D01*
X359410Y355950D01*
X357588Y355950D01*
X356695Y356843D01*
X356695Y369107D01*
X357588Y370000D01*
X368852Y370000D01*
X369745Y369107D01*
X369745Y366785D01*
X369746Y366780D01*
X369745Y366775D01*
X369766Y366682D01*
X369784Y366588D01*
X369787Y366584D01*
X369788Y366579D01*
X369844Y366501D01*
X369897Y366423D01*
X369901Y366420D01*
X369904Y366416D01*
X369986Y366365D01*
X370065Y366313D01*
X370070Y366313D01*
X370075Y366310D01*
X370252Y366278D01*
X375920Y366278D01*
X375925Y366279D01*
X375930Y366278D01*
X376023Y366299D01*
X376117Y366317D01*
X376121Y366320D01*
X376126Y366321D01*
X376204Y366377D01*
X376282Y366430D01*
X376285Y366434D01*
X376289Y366437D01*
X376340Y366519D01*
X376392Y366598D01*
X376392Y366603D01*
X376395Y366608D01*
X376427Y366785D01*
X376427Y370964D01*
X377320Y371857D01*
X382140Y371857D01*
X383033Y370964D01*
X383033Y358016D01*
X382140Y357123D01*
X377320Y357123D01*
X376427Y358016D01*
X376427Y359165D01*
X376426Y359170D01*
X376427Y359175D01*
X376406Y359268D01*
X376388Y359362D01*
X376385Y359366D01*
X376384Y359371D01*
X376328Y359449D01*
X376275Y359527D01*
X376271Y359530D01*
X376268Y359534D01*
X376186Y359585D01*
X376107Y359637D01*
X376102Y359637D01*
X376097Y359640D01*
X375920Y359672D01*
X370252Y359672D01*
X370247Y359671D01*
X370242Y359672D01*
X370149Y359651D01*
X370055Y359633D01*
X370051Y359630D01*
X370046Y359629D01*
X369968Y359573D01*
X369890Y359520D01*
X369887Y359516D01*
X369883Y359513D01*
X369832Y359431D01*
X369780Y359352D01*
X369780Y359347D01*
X369777Y359342D01*
X369745Y359165D01*
X369745Y356843D01*
X368922Y356020D01*
X368919Y356016D01*
X368914Y356013D01*
X368864Y355933D01*
X368811Y355853D01*
X368810Y355848D01*
X368807Y355844D01*
X368791Y355750D01*
X368773Y355657D01*
X368774Y355651D01*
X368773Y355646D01*
X368795Y355554D01*
X368815Y355460D01*
X368818Y355456D01*
X368819Y355451D01*
X368922Y355303D01*
X368984Y355241D01*
X368990Y355237D01*
X368995Y355231D01*
X369073Y355182D01*
X369151Y355130D01*
X369158Y355129D01*
X369165Y355125D01*
X369342Y355093D01*
X393832Y355093D01*
X393840Y355094D01*
X393847Y355093D01*
X393937Y355114D01*
X394028Y355132D01*
X394035Y355137D01*
X394042Y355139D01*
X394190Y355241D01*
X396046Y357097D01*
X400442Y357097D01*
X403551Y353988D01*
X403551Y349592D01*
X402327Y348369D01*
X402326Y348366D01*
X402324Y348365D01*
X402272Y348285D01*
X402217Y348202D01*
X402216Y348199D01*
X402215Y348197D01*
X402197Y348101D01*
X402179Y348005D01*
X402179Y348002D01*
X402179Y348000D01*
X402200Y347903D01*
X402221Y347809D01*
X402222Y347807D01*
X402223Y347804D01*
X402279Y347724D01*
X402335Y347644D01*
X402337Y347643D01*
X402339Y347641D01*
X402423Y347588D01*
X402504Y347537D01*
X402507Y347536D01*
X402509Y347535D01*
X402686Y347503D01*
X430040Y347503D01*
X430042Y347503D01*
X430045Y347503D01*
X430140Y347523D01*
X430236Y347542D01*
X430238Y347544D01*
X430241Y347544D01*
X430321Y347600D01*
X430402Y347655D01*
X430403Y347657D01*
X430405Y347659D01*
X430459Y347742D01*
X430511Y347823D01*
X430512Y347826D01*
X430513Y347828D01*
X430529Y347924D01*
X430547Y348020D01*
X430546Y348023D01*
X430547Y348025D01*
X430525Y348120D01*
X430503Y348216D01*
X430502Y348218D01*
X430501Y348221D01*
X430398Y348369D01*
X428639Y350128D01*
X428639Y354524D01*
X430494Y356380D01*
X430499Y356386D01*
X430505Y356391D01*
X430554Y356469D01*
X430605Y356547D01*
X430607Y356554D01*
X430611Y356561D01*
X430643Y356738D01*
X430643Y365078D01*
X430642Y365083D01*
X430643Y365088D01*
X430622Y365181D01*
X430603Y365275D01*
X430600Y365279D01*
X430599Y365284D01*
X430544Y365362D01*
X430491Y365440D01*
X430486Y365443D01*
X430483Y365447D01*
X430402Y365498D01*
X430323Y365550D01*
X430318Y365550D01*
X430313Y365553D01*
X430136Y365585D01*
X427818Y365585D01*
X426925Y366478D01*
X426925Y377742D01*
X427818Y378635D01*
X430140Y378635D01*
X430145Y378636D01*
X430150Y378635D01*
X430243Y378656D01*
X430337Y378674D01*
X430341Y378677D01*
X430346Y378678D01*
X430424Y378734D01*
X430502Y378787D01*
X430505Y378791D01*
X430509Y378794D01*
X430560Y378876D01*
X430612Y378955D01*
X430612Y378960D01*
X430615Y378965D01*
X430647Y379142D01*
X430647Y384898D01*
X430647Y384902D01*
X430647Y384905D01*
X430647Y384907D01*
X430647Y384908D01*
X430626Y385001D01*
X430608Y385095D01*
X430605Y385099D01*
X430604Y385104D01*
X430548Y385182D01*
X430495Y385260D01*
X430491Y385263D01*
X430488Y385267D01*
X430406Y385318D01*
X430327Y385370D01*
X430322Y385370D01*
X430317Y385373D01*
X430140Y385405D01*
X428318Y385405D01*
X427425Y386298D01*
X427425Y398562D01*
X428318Y399455D01*
X439582Y399455D01*
X440475Y398562D01*
X440475Y386298D01*
X439582Y385405D01*
X437760Y385405D01*
X437755Y385404D01*
X437750Y385405D01*
X437657Y385384D01*
X437563Y385366D01*
X437559Y385363D01*
X437554Y385362D01*
X437476Y385306D01*
X437398Y385253D01*
X437395Y385249D01*
X437391Y385246D01*
X437340Y385164D01*
X437288Y385085D01*
X437288Y385080D01*
X437285Y385075D01*
X437253Y384898D01*
X437253Y379142D01*
X437254Y379137D01*
X437253Y379132D01*
X437274Y379039D01*
X437292Y378945D01*
X437295Y378941D01*
X437296Y378936D01*
X437352Y378858D01*
X437405Y378780D01*
X437409Y378777D01*
X437412Y378773D01*
X437494Y378722D01*
X437573Y378670D01*
X437578Y378670D01*
X437583Y378667D01*
X437760Y378635D01*
X440082Y378635D01*
X440975Y377742D01*
X440975Y366478D01*
X440082Y365585D01*
X437756Y365585D01*
X437751Y365584D01*
X437745Y365585D01*
X437652Y365564D01*
X437559Y365546D01*
X437555Y365543D01*
X437550Y365542D01*
X437472Y365486D01*
X437393Y365433D01*
X437391Y365429D01*
X437386Y365426D01*
X437336Y365344D01*
X437284Y365265D01*
X437283Y365260D01*
X437280Y365255D01*
X437248Y365078D01*
X437248Y356738D01*
X437250Y356730D01*
X437249Y356723D01*
X437270Y356633D01*
X437288Y356542D01*
X437292Y356535D01*
X437294Y356528D01*
X437397Y356380D01*
X439252Y354524D01*
X439252Y350128D01*
X437493Y348369D01*
X437492Y348366D01*
X437490Y348365D01*
X437437Y348284D01*
X437382Y348202D01*
X437382Y348199D01*
X437380Y348197D01*
X437363Y348101D01*
X437345Y348005D01*
X437345Y348002D01*
X437345Y348000D01*
X437366Y347903D01*
X437386Y347809D01*
X437388Y347807D01*
X437388Y347804D01*
X437445Y347724D01*
X437501Y347644D01*
X437503Y347643D01*
X437504Y347641D01*
X437587Y347589D01*
X437670Y347537D01*
X437672Y347536D01*
X437675Y347535D01*
X437852Y347503D01*
X444940Y347503D01*
X444948Y347504D01*
X444956Y347503D01*
X445046Y347524D01*
X445137Y347542D01*
X445143Y347547D01*
X445151Y347549D01*
X445299Y347651D01*
X461732Y364084D01*
X461734Y364087D01*
X461736Y364088D01*
X461788Y364169D01*
X461843Y364251D01*
X461843Y364254D01*
X461845Y364256D01*
X461862Y364352D01*
X461881Y364448D01*
X461880Y364451D01*
X461881Y364453D01*
X461859Y364550D01*
X461839Y364644D01*
X461837Y364646D01*
X461837Y364649D01*
X461780Y364729D01*
X461725Y364809D01*
X461722Y364810D01*
X461721Y364813D01*
X461638Y364864D01*
X461555Y364916D01*
X461553Y364917D01*
X461551Y364918D01*
X461373Y364950D01*
X446858Y364950D01*
X444500Y367308D01*
X444500Y375642D01*
X444859Y376000D01*
X444863Y376007D01*
X444869Y376012D01*
X444918Y376090D01*
X444970Y376167D01*
X444971Y376175D01*
X444975Y376182D01*
X445007Y376359D01*
X445007Y382938D01*
X445006Y382946D01*
X445007Y382953D01*
X444986Y383043D01*
X444968Y383134D01*
X444963Y383141D01*
X444961Y383148D01*
X444859Y383296D01*
X443003Y385152D01*
X443003Y389548D01*
X446112Y392657D01*
X450508Y392657D01*
X453617Y389548D01*
X453617Y385152D01*
X451761Y383296D01*
X451757Y383290D01*
X451751Y383285D01*
X451702Y383207D01*
X451650Y383129D01*
X451649Y383122D01*
X451645Y383115D01*
X451613Y382938D01*
X451613Y378768D01*
X451614Y378760D01*
X451613Y378753D01*
X451634Y378663D01*
X451652Y378572D01*
X451657Y378565D01*
X451659Y378557D01*
X451761Y378409D01*
X452023Y378148D01*
X452029Y378144D01*
X452034Y378137D01*
X452112Y378089D01*
X452189Y378037D01*
X452197Y378036D01*
X452204Y378032D01*
X452381Y378000D01*
X461192Y378000D01*
X462445Y376747D01*
X462447Y376746D01*
X462448Y376743D01*
X462528Y376691D01*
X462612Y376636D01*
X462614Y376636D01*
X462616Y376634D01*
X462712Y376617D01*
X462808Y376599D01*
X462811Y376599D01*
X462814Y376599D01*
X462910Y376620D01*
X463005Y376640D01*
X463007Y376642D01*
X463009Y376642D01*
X463089Y376699D01*
X463169Y376754D01*
X463171Y376757D01*
X463173Y376758D01*
X463225Y376842D01*
X463277Y376924D01*
X463277Y376926D01*
X463279Y376928D01*
X463311Y377106D01*
X463311Y385175D01*
X463310Y385180D01*
X463310Y385185D01*
X463290Y385278D01*
X463271Y385371D01*
X463268Y385376D01*
X463267Y385381D01*
X463212Y385459D01*
X463158Y385537D01*
X463154Y385540D01*
X463151Y385544D01*
X463070Y385595D01*
X462990Y385646D01*
X462985Y385647D01*
X462981Y385650D01*
X462803Y385682D01*
X460097Y385682D01*
X456989Y388791D01*
X456989Y393187D01*
X460097Y396296D01*
X460824Y396296D01*
X460873Y396306D01*
X460923Y396305D01*
X460970Y396325D01*
X461021Y396335D01*
X461062Y396363D01*
X461108Y396383D01*
X461144Y396419D01*
X461186Y396448D01*
X461214Y396490D01*
X461249Y396526D01*
X461268Y396573D01*
X461296Y396616D01*
X461304Y396665D01*
X461323Y396712D01*
X461322Y396763D01*
X461331Y396813D01*
X461320Y396862D01*
X461319Y396912D01*
X461299Y396959D01*
X461288Y397009D01*
X461259Y397050D01*
X461238Y397096D01*
X461198Y397136D01*
X461172Y397172D01*
X461141Y397191D01*
X461110Y397222D01*
X459307Y398452D01*
X459242Y398480D01*
X459180Y398515D01*
X459148Y398519D01*
X459122Y398530D01*
X459071Y398530D01*
X459002Y398540D01*
X458997Y398540D01*
X458521Y398981D01*
X458492Y398999D01*
X458462Y399029D01*
X457926Y399394D01*
X457925Y399400D01*
X457898Y399465D01*
X457880Y399533D01*
X457860Y399559D01*
X457849Y399585D01*
X457813Y399622D01*
X457771Y399677D01*
X456034Y401291D01*
X455974Y401328D01*
X455918Y401371D01*
X455887Y401381D01*
X455863Y401395D01*
X455812Y401403D01*
X455745Y401423D01*
X455740Y401424D01*
X455336Y401931D01*
X455309Y401954D01*
X455284Y401987D01*
X454808Y402428D01*
X454808Y402434D01*
X454792Y402503D01*
X454784Y402573D01*
X454768Y402601D01*
X454761Y402629D01*
X454731Y402670D01*
X454698Y402731D01*
X453220Y404586D01*
X453166Y404631D01*
X453118Y404683D01*
X453088Y404697D01*
X453067Y404715D01*
X453018Y404730D01*
X452955Y404759D01*
X452950Y404761D01*
X452625Y405323D01*
X452602Y405349D01*
X452583Y405386D01*
X452178Y405893D01*
X452179Y405898D01*
X452173Y405969D01*
X452175Y406039D01*
X452164Y406070D01*
X452162Y406098D01*
X452138Y406144D01*
X452114Y406209D01*
X450929Y408263D01*
X450882Y408316D01*
X450842Y408374D01*
X450815Y408392D01*
X450797Y408413D01*
X450750Y408436D01*
X450693Y408474D01*
X450688Y408477D01*
X450451Y409081D01*
X450432Y409110D01*
X450418Y409149D01*
X450094Y409711D01*
X450095Y409716D01*
X450100Y409787D01*
X450112Y409856D01*
X450106Y409888D01*
X450108Y409916D01*
X450091Y409965D01*
X450077Y410033D01*
X449212Y412241D01*
X449174Y412300D01*
X449143Y412363D01*
X449118Y412386D01*
X449103Y412409D01*
X449061Y412438D01*
X449010Y412485D01*
X449005Y412488D01*
X448861Y413121D01*
X448846Y413152D01*
X448838Y413193D01*
X448601Y413797D01*
X448604Y413802D01*
X448619Y413871D01*
X448642Y413938D01*
X448640Y413971D01*
X448646Y413998D01*
X448637Y414049D01*
X448633Y414118D01*
X448106Y416430D01*
X448078Y416494D01*
X448056Y416562D01*
X448036Y416587D01*
X448024Y416613D01*
X447986Y416648D01*
X447943Y416702D01*
X447939Y416705D01*
X447890Y417352D01*
X447881Y417386D01*
X447879Y417427D01*
X447735Y418060D01*
X447738Y418065D01*
X447763Y418131D01*
X447796Y418193D01*
X447799Y418226D01*
X447809Y418252D01*
X447807Y418304D01*
X447814Y418372D01*
X447638Y420737D01*
X447619Y420805D01*
X447608Y420875D01*
X447591Y420903D01*
X447584Y420930D01*
X447552Y420970D01*
X447517Y421030D01*
X447513Y421034D01*
X447562Y421681D01*
X447557Y421716D01*
X447562Y421757D01*
X447513Y422404D01*
X447517Y422408D01*
X447552Y422470D01*
X447593Y422527D01*
X447602Y422559D01*
X447615Y422583D01*
X447621Y422635D01*
X447639Y422701D01*
X447816Y425066D01*
X447808Y425136D01*
X447807Y425207D01*
X447795Y425237D01*
X447792Y425265D01*
X447766Y425310D01*
X447740Y425374D01*
X447737Y425379D01*
X447882Y426011D01*
X447883Y426046D01*
X447893Y426086D01*
X447942Y426733D01*
X447946Y426737D01*
X447990Y426793D01*
X448039Y426843D01*
X448052Y426873D01*
X448069Y426895D01*
X448083Y426945D01*
X448110Y427008D01*
X448638Y429320D01*
X448640Y429391D01*
X448650Y429461D01*
X448643Y429492D01*
X448643Y429520D01*
X448625Y429569D01*
X448609Y429636D01*
X448607Y429641D01*
X448844Y430245D01*
X448850Y430279D01*
X448866Y430317D01*
X449011Y430950D01*
X449015Y430953D01*
X449067Y431001D01*
X449123Y431044D01*
X449140Y431071D01*
X449161Y431091D01*
X449182Y431138D01*
X449218Y431197D01*
X450085Y433404D01*
X450097Y433474D01*
X450118Y433541D01*
X450115Y433574D01*
X450120Y433601D01*
X450109Y433652D01*
X450103Y433721D01*
X450101Y433726D01*
X450426Y434288D01*
X450437Y434321D01*
X450459Y434356D01*
X450696Y434960D01*
X450701Y434962D01*
X450759Y435003D01*
X450821Y435036D01*
X450843Y435061D01*
X450866Y435077D01*
X450893Y435121D01*
X450938Y435173D01*
X452124Y437227D01*
X452147Y437294D01*
X452177Y437357D01*
X452179Y437390D01*
X452188Y437417D01*
X452184Y437468D01*
X452189Y437537D01*
X452188Y437543D01*
X452593Y438050D01*
X452609Y438081D01*
X452636Y438112D01*
X452960Y438674D01*
X452966Y438676D01*
X453010Y438698D01*
X453035Y438703D01*
X453055Y438716D01*
X453096Y438731D01*
X453120Y438752D01*
X453145Y438765D01*
X453173Y438796D01*
X453201Y438815D01*
X453212Y438832D01*
X453231Y438849D01*
X454710Y440703D01*
X454742Y440766D01*
X454782Y440824D01*
X454789Y440856D01*
X454802Y440881D01*
X454806Y440933D01*
X454821Y441000D01*
X454821Y441006D01*
X455297Y441447D01*
X455317Y441475D01*
X455348Y441502D01*
X455753Y442010D01*
X455758Y442010D01*
X455826Y442032D01*
X455895Y442045D01*
X455923Y442063D01*
X455949Y442072D01*
X455989Y442105D01*
X456047Y442142D01*
X457786Y443755D01*
X457827Y443812D01*
X457875Y443864D01*
X457886Y443895D01*
X457903Y443917D01*
X457914Y443968D01*
X457939Y444032D01*
X457940Y444038D01*
X458476Y444403D01*
X458501Y444428D01*
X458536Y444450D01*
X459011Y444892D01*
X459017Y444891D01*
X459087Y444903D01*
X459157Y444906D01*
X459187Y444919D01*
X459215Y444923D01*
X459259Y444951D01*
X459322Y444979D01*
X460442Y445742D01*
X460502Y445804D01*
X460566Y445863D01*
X460572Y445876D01*
X460582Y445886D01*
X460614Y445966D01*
X460650Y446045D01*
X460651Y446059D01*
X460656Y446072D01*
X460654Y446159D01*
X460657Y446245D01*
X460652Y446259D01*
X460651Y446272D01*
X460629Y446323D01*
X460596Y446415D01*
X432581Y494940D01*
X432532Y494995D01*
X432489Y495055D01*
X432466Y495070D01*
X432448Y495090D01*
X432382Y495122D01*
X432319Y495161D01*
X432290Y495166D01*
X432268Y495177D01*
X432214Y495180D01*
X432141Y495193D01*
X261279Y495193D01*
X261206Y495179D01*
X261132Y495172D01*
X261109Y495159D01*
X261082Y495154D01*
X261021Y495112D01*
X260956Y495077D01*
X260937Y495055D01*
X260916Y495041D01*
X260887Y494996D01*
X260839Y494940D01*
X232824Y446415D01*
X232797Y446333D01*
X232765Y446252D01*
X232765Y446238D01*
X232760Y446225D01*
X232767Y446138D01*
X232768Y446052D01*
X232774Y446039D01*
X232775Y446025D01*
X232814Y445948D01*
X232850Y445868D01*
X232860Y445858D01*
X232866Y445846D01*
X232909Y445811D01*
X232978Y445742D01*
X234098Y444979D01*
X234163Y444952D01*
X234225Y444917D01*
X234257Y444912D01*
X234283Y444901D01*
X234335Y444901D01*
X234403Y444891D01*
X234409Y444892D01*
X234884Y444450D01*
X234914Y444432D01*
X234944Y444403D01*
X235480Y444038D01*
X235481Y444032D01*
X235508Y443967D01*
X235526Y443899D01*
X235546Y443873D01*
X235556Y443847D01*
X235593Y443810D01*
X235634Y443755D01*
X237373Y442142D01*
X237433Y442106D01*
X237489Y442062D01*
X237520Y442052D01*
X237544Y442038D01*
X237595Y442030D01*
X237662Y442010D01*
X237667Y442010D01*
X238072Y441502D01*
X238098Y441480D01*
X238123Y441447D01*
X238599Y441006D01*
X238599Y441000D01*
X238616Y440932D01*
X238624Y440861D01*
X238640Y440833D01*
X238646Y440805D01*
X238677Y440764D01*
X238710Y440703D01*
X240189Y438849D01*
X240216Y438827D01*
X240234Y438801D01*
X240262Y438784D01*
X240291Y438753D01*
X240321Y438739D01*
X240342Y438721D01*
X240385Y438707D01*
X240404Y438695D01*
X240418Y438693D01*
X240454Y438676D01*
X240460Y438674D01*
X240784Y438112D01*
X240807Y438086D01*
X240827Y438050D01*
X241232Y437543D01*
X241231Y437537D01*
X241237Y437467D01*
X241235Y437396D01*
X241246Y437365D01*
X241248Y437337D01*
X241272Y437292D01*
X241296Y437227D01*
X242482Y435173D01*
X242529Y435120D01*
X242569Y435062D01*
X242596Y435044D01*
X242615Y435023D01*
X242661Y435001D01*
X242719Y434962D01*
X242724Y434960D01*
X242961Y434356D01*
X242980Y434327D01*
X242994Y434288D01*
X243319Y433726D01*
X243317Y433721D01*
X243313Y433650D01*
X243300Y433581D01*
X243306Y433549D01*
X243305Y433521D01*
X243322Y433472D01*
X243335Y433404D01*
X244202Y431197D01*
X244240Y431138D01*
X244271Y431074D01*
X244296Y431052D01*
X244311Y431028D01*
X244353Y430999D01*
X244405Y430953D01*
X244409Y430950D01*
X244554Y430317D01*
X244568Y430286D01*
X244576Y430245D01*
X244813Y429641D01*
X244811Y429636D01*
X244796Y429567D01*
X244773Y429500D01*
X244775Y429467D01*
X244769Y429440D01*
X244779Y429389D01*
X244782Y429320D01*
X245310Y427008D01*
X245339Y426944D01*
X245360Y426877D01*
X245381Y426851D01*
X245393Y426826D01*
X245430Y426791D01*
X245474Y426737D01*
X245478Y426733D01*
X245527Y426086D01*
X245536Y426053D01*
X245538Y426011D01*
X245683Y425379D01*
X245680Y425374D01*
X245655Y425308D01*
X245622Y425245D01*
X245619Y425213D01*
X245609Y425186D01*
X245611Y425135D01*
X245604Y425066D01*
X245781Y422701D01*
X245801Y422634D01*
X245811Y422564D01*
X245828Y422535D01*
X245836Y422508D01*
X245868Y422468D01*
X245903Y422408D01*
X245907Y422404D01*
X245858Y421757D01*
X245863Y421723D01*
X245858Y421681D01*
X245907Y421034D01*
X245903Y421030D01*
X245869Y420969D01*
X245827Y420912D01*
X245819Y420880D01*
X245805Y420855D01*
X245799Y420804D01*
X245782Y420737D01*
X245606Y418372D01*
X245614Y418302D01*
X245615Y418232D01*
X245627Y418201D01*
X245631Y418173D01*
X245656Y418129D01*
X245682Y418065D01*
X245685Y418060D01*
X245541Y417427D01*
X245540Y417393D01*
X245530Y417352D01*
X245481Y416705D01*
X245477Y416702D01*
X245434Y416646D01*
X245384Y416596D01*
X245371Y416566D01*
X245354Y416543D01*
X245341Y416493D01*
X245314Y416430D01*
X244787Y414118D01*
X244785Y414047D01*
X244775Y413977D01*
X244782Y413946D01*
X244782Y413918D01*
X244800Y413869D01*
X244816Y413802D01*
X244819Y413797D01*
X244582Y413193D01*
X244576Y413159D01*
X244559Y413121D01*
X244415Y412488D01*
X244410Y412485D01*
X244359Y412436D01*
X244303Y412394D01*
X244286Y412366D01*
X244265Y412347D01*
X244245Y412300D01*
X244208Y412241D01*
X243343Y410033D01*
X243330Y409963D01*
X243310Y409896D01*
X243313Y409863D01*
X243308Y409836D01*
X243319Y409785D01*
X243325Y409716D01*
X243326Y409711D01*
X243002Y409149D01*
X242991Y409116D01*
X242969Y409081D01*
X242732Y408477D01*
X242727Y408474D01*
X242669Y408434D01*
X242607Y408401D01*
X242586Y408376D01*
X242563Y408359D01*
X242536Y408316D01*
X242491Y408263D01*
X241306Y406209D01*
X241283Y406142D01*
X241253Y406078D01*
X241251Y406046D01*
X241242Y406019D01*
X241246Y405968D01*
X241241Y405898D01*
X241242Y405893D01*
X240837Y405386D01*
X240821Y405355D01*
X240795Y405323D01*
X240470Y404761D01*
X240465Y404759D01*
X240402Y404728D01*
X240335Y404704D01*
X240311Y404683D01*
X240286Y404670D01*
X240252Y404631D01*
X240200Y404586D01*
X238722Y402731D01*
X238690Y402668D01*
X238650Y402610D01*
X238643Y402578D01*
X238630Y402553D01*
X238627Y402501D01*
X238612Y402434D01*
X238612Y402428D01*
X238136Y401987D01*
X238116Y401959D01*
X238084Y401931D01*
X237680Y401424D01*
X237675Y401423D01*
X237607Y401401D01*
X237538Y401388D01*
X237510Y401370D01*
X237484Y401362D01*
X237445Y401328D01*
X237386Y401291D01*
X235649Y399677D01*
X235607Y399620D01*
X235560Y399568D01*
X235548Y399537D01*
X235532Y399515D01*
X235520Y399464D01*
X235495Y399400D01*
X235494Y399394D01*
X234958Y399029D01*
X234934Y399004D01*
X234899Y398981D01*
X234423Y398540D01*
X234418Y398540D01*
X234348Y398529D01*
X234278Y398526D01*
X234248Y398512D01*
X234220Y398508D01*
X234176Y398480D01*
X234113Y398452D01*
X232154Y397116D01*
X232105Y397065D01*
X232050Y397021D01*
X232034Y396992D01*
X232014Y396972D01*
X231995Y396924D01*
X231961Y396864D01*
X231960Y396859D01*
X231375Y396577D01*
X231347Y396556D01*
X231309Y396539D01*
X230773Y396173D01*
X230768Y396174D01*
X230697Y396174D01*
X230627Y396181D01*
X230596Y396172D01*
X230568Y396172D01*
X230520Y396151D01*
X230454Y396133D01*
X228317Y395103D01*
X228261Y395061D01*
X228200Y395025D01*
X228180Y394999D01*
X228158Y394982D01*
X228132Y394938D01*
X228089Y394883D01*
X228086Y394878D01*
X227466Y394687D01*
X227436Y394670D01*
X227396Y394659D01*
X226811Y394378D01*
X226806Y394379D01*
X226736Y394389D01*
X226668Y394407D01*
X226635Y394403D01*
X226608Y394407D01*
X226558Y394394D01*
X226489Y394385D01*
X224223Y393686D01*
X224161Y393652D01*
X224096Y393626D01*
X224072Y393603D01*
X224047Y393590D01*
X224015Y393549D01*
X223965Y393502D01*
X223962Y393497D01*
X223320Y393401D01*
X223287Y393389D01*
X223246Y393384D01*
X222484Y393148D01*
X222455Y393133D01*
X222423Y393125D01*
X222356Y393079D01*
X222308Y393052D01*
X222294Y393036D01*
X222275Y393022D01*
X204873Y375621D01*
X204869Y375614D01*
X204863Y375610D01*
X204814Y375531D01*
X204762Y375454D01*
X204761Y375446D01*
X204757Y375440D01*
X204725Y375262D01*
X204725Y326488D01*
X204726Y326480D01*
X204725Y326472D01*
X204746Y326382D01*
X204764Y326291D01*
X204769Y326285D01*
X204771Y326277D01*
X204873Y326129D01*
X215639Y315363D01*
X215646Y315359D01*
X215650Y315353D01*
X215729Y315304D01*
X215806Y315252D01*
X215814Y315251D01*
X215820Y315247D01*
X215998Y315215D01*
X218509Y315215D01*
X218511Y315215D01*
X218514Y315215D01*
X218609Y315235D01*
X218705Y315254D01*
X218708Y315256D01*
X218710Y315256D01*
X218791Y315312D01*
X218871Y315367D01*
X218873Y315369D01*
X218875Y315371D01*
X218928Y315454D01*
X218980Y315535D01*
X218981Y315538D01*
X218982Y315540D01*
X218999Y315636D01*
X219016Y315732D01*
X219015Y315735D01*
X219016Y315737D01*
X218994Y315831D01*
X218972Y315928D01*
X218971Y315930D01*
X218970Y315933D01*
X218868Y316081D01*
X216535Y318413D01*
X216535Y326747D01*
X218893Y329105D01*
X221516Y329105D01*
X221521Y329106D01*
X221526Y329105D01*
X221619Y329126D01*
X221713Y329144D01*
X221717Y329147D01*
X221722Y329148D01*
X221800Y329204D01*
X221878Y329257D01*
X221881Y329261D01*
X221885Y329264D01*
X221936Y329346D01*
X221988Y329425D01*
X221988Y329430D01*
X221991Y329435D01*
X222023Y329612D01*
X222023Y333276D01*
X222022Y333281D01*
X222023Y333286D01*
X222002Y333379D01*
X221984Y333473D01*
X221981Y333477D01*
X221980Y333482D01*
X221924Y333560D01*
X221871Y333638D01*
X221867Y333641D01*
X221864Y333645D01*
X221782Y333696D01*
X221703Y333748D01*
X221698Y333748D01*
X221693Y333751D01*
X221516Y333783D01*
X217512Y333783D01*
X214403Y336892D01*
X214403Y341288D01*
X216387Y343272D01*
X216391Y343278D01*
X216398Y343283D01*
X216446Y343361D01*
X216498Y343439D01*
X216499Y343446D01*
X216503Y343453D01*
X216535Y343630D01*
X216535Y352147D01*
X218893Y354505D01*
X231692Y354505D01*
X231694Y354505D01*
X231697Y354505D01*
X231792Y354525D01*
X231888Y354544D01*
X231890Y354546D01*
X231893Y354546D01*
X231974Y354602D01*
X232054Y354657D01*
X232056Y354659D01*
X232058Y354661D01*
X232111Y354744D01*
X232163Y354825D01*
X232164Y354828D01*
X232165Y354830D01*
X232182Y354926D01*
X232199Y355022D01*
X232198Y355025D01*
X232199Y355027D01*
X232177Y355119D01*
X232155Y355218D01*
X232154Y355220D01*
X232153Y355223D01*
X232050Y355371D01*
X229242Y358179D01*
X229237Y358182D01*
X229234Y358187D01*
X229154Y358238D01*
X229075Y358290D01*
X229070Y358291D01*
X229065Y358294D01*
X228971Y358310D01*
X228878Y358328D01*
X228873Y358327D01*
X228867Y358328D01*
X228775Y358306D01*
X228682Y358286D01*
X228677Y358283D01*
X228672Y358282D01*
X228524Y358179D01*
X226988Y356643D01*
X222592Y356643D01*
X219483Y359752D01*
X219483Y364148D01*
X222592Y367257D01*
X226988Y367257D01*
X228590Y365655D01*
X228596Y365651D01*
X228601Y365645D01*
X228679Y365596D01*
X228757Y365544D01*
X228764Y365543D01*
X228771Y365539D01*
X228948Y365507D01*
X231974Y365507D01*
X240668Y356813D01*
X240674Y356809D01*
X240679Y356803D01*
X240758Y356754D01*
X240835Y356702D01*
X240842Y356701D01*
X240849Y356697D01*
X241026Y356665D01*
X257052Y356665D01*
X257945Y355772D01*
X257945Y353450D01*
X257946Y353445D01*
X257945Y353440D01*
X257966Y353347D01*
X257984Y353253D01*
X257987Y353249D01*
X257988Y353244D01*
X258044Y353166D01*
X258097Y353088D01*
X258101Y353085D01*
X258104Y353081D01*
X258186Y353030D01*
X258265Y352978D01*
X258270Y352978D01*
X258275Y352975D01*
X258452Y352943D01*
X261708Y352943D01*
X261713Y352944D01*
X261718Y352943D01*
X261811Y352964D01*
X261905Y352982D01*
X261909Y352985D01*
X261914Y352986D01*
X261992Y353042D01*
X262070Y353095D01*
X262073Y353099D01*
X262077Y353102D01*
X262128Y353184D01*
X262180Y353263D01*
X262180Y353268D01*
X262183Y353273D01*
X262215Y353450D01*
X262215Y355272D01*
X263108Y356165D01*
X275372Y356165D01*
X276265Y355272D01*
X276265Y353450D01*
X276266Y353445D01*
X276265Y353440D01*
X276286Y353347D01*
X276304Y353253D01*
X276307Y353249D01*
X276308Y353244D01*
X276364Y353166D01*
X276417Y353088D01*
X276421Y353085D01*
X276424Y353081D01*
X276506Y353030D01*
X276585Y352978D01*
X276590Y352978D01*
X276595Y352975D01*
X276772Y352943D01*
X277148Y352943D01*
X277153Y352944D01*
X277158Y352943D01*
X277251Y352964D01*
X277345Y352982D01*
X277349Y352985D01*
X277354Y352986D01*
X277432Y353042D01*
X277510Y353095D01*
X277513Y353099D01*
X277517Y353102D01*
X277568Y353184D01*
X277620Y353263D01*
X277620Y353268D01*
X277623Y353273D01*
X277655Y353450D01*
X277655Y354272D01*
X278548Y355165D01*
X293812Y355165D01*
X294705Y354272D01*
X294705Y343008D01*
X294447Y342751D01*
X294445Y342748D01*
X294443Y342747D01*
X294391Y342666D01*
X294336Y342584D01*
X294335Y342581D01*
X294334Y342579D01*
X294317Y342483D01*
X294298Y342387D01*
X294299Y342384D01*
X294298Y342382D01*
X294320Y342285D01*
X294340Y342191D01*
X294341Y342189D01*
X294342Y342186D01*
X294399Y342106D01*
X294454Y342026D01*
X294457Y342025D01*
X294458Y342023D01*
X294541Y341971D01*
X294623Y341919D01*
X294626Y341918D01*
X294628Y341917D01*
X294806Y341885D01*
X295798Y341885D01*
X320735Y316948D01*
X320735Y308813D01*
X320715Y308702D01*
X320715Y306325D01*
X319455Y305065D01*
X316472Y305065D01*
X316467Y305064D01*
X316462Y305065D01*
X316369Y305044D01*
X316275Y305026D01*
X316271Y305023D01*
X316266Y305022D01*
X316188Y304966D01*
X316110Y304913D01*
X316107Y304909D01*
X316102Y304906D01*
X316052Y304824D01*
X316000Y304745D01*
X315999Y304740D01*
X315997Y304735D01*
X315965Y304558D01*
X315965Y301575D01*
X314705Y300315D01*
X312328Y300315D01*
X312320Y300314D01*
X312312Y300315D01*
X312227Y300295D01*
X309663Y300295D01*
X309552Y300315D01*
X307174Y300315D01*
X305915Y301575D01*
X305915Y304605D01*
X306605Y305295D01*
X306608Y305300D01*
X306612Y305303D01*
X306663Y305383D01*
X306716Y305462D01*
X306717Y305467D01*
X306720Y305472D01*
X306736Y305566D01*
X306754Y305659D01*
X306752Y305664D01*
X306753Y305669D01*
X306732Y305762D01*
X306712Y305855D01*
X306709Y305859D01*
X306708Y305865D01*
X306605Y306013D01*
X300141Y312477D01*
X300134Y312481D01*
X300130Y312487D01*
X300051Y312536D01*
X299974Y312588D01*
X299966Y312589D01*
X299960Y312593D01*
X299782Y312625D01*
X291548Y312625D01*
X290655Y313518D01*
X290655Y321294D01*
X290654Y321302D01*
X290655Y321309D01*
X290634Y321399D01*
X290616Y321490D01*
X290611Y321497D01*
X290609Y321505D01*
X290507Y321653D01*
X289881Y322279D01*
X289874Y322283D01*
X289869Y322289D01*
X289791Y322338D01*
X289714Y322390D01*
X289706Y322391D01*
X289699Y322395D01*
X289522Y322427D01*
X286392Y322427D01*
X286387Y322426D01*
X286382Y322427D01*
X286289Y322406D01*
X286195Y322388D01*
X286191Y322385D01*
X286186Y322384D01*
X286108Y322328D01*
X286030Y322275D01*
X286027Y322271D01*
X286023Y322268D01*
X285972Y322186D01*
X285920Y322107D01*
X285920Y322102D01*
X285917Y322097D01*
X285885Y321920D01*
X285885Y318598D01*
X284992Y317705D01*
X268728Y317705D01*
X267835Y318598D01*
X267835Y321920D01*
X267834Y321925D01*
X267835Y321930D01*
X267814Y322023D01*
X267796Y322117D01*
X267793Y322121D01*
X267792Y322126D01*
X267736Y322204D01*
X267683Y322282D01*
X267679Y322285D01*
X267676Y322289D01*
X267594Y322340D01*
X267515Y322392D01*
X267510Y322392D01*
X267505Y322395D01*
X267328Y322427D01*
X262796Y322427D01*
X259208Y326015D01*
X259202Y326019D01*
X259197Y326025D01*
X259119Y326074D01*
X259041Y326126D01*
X259034Y326127D01*
X259027Y326131D01*
X258850Y326163D01*
X256226Y326163D01*
X253117Y329272D01*
X253117Y333668D01*
X254878Y335429D01*
X254880Y335432D01*
X254882Y335433D01*
X254934Y335514D01*
X254989Y335596D01*
X254990Y335599D01*
X254991Y335601D01*
X255009Y335697D01*
X255027Y335793D01*
X255026Y335796D01*
X255027Y335798D01*
X255005Y335895D01*
X254985Y335989D01*
X254984Y335991D01*
X254983Y335994D01*
X254927Y336074D01*
X254871Y336154D01*
X254869Y336155D01*
X254867Y336157D01*
X254784Y336209D01*
X254702Y336261D01*
X254699Y336262D01*
X254697Y336263D01*
X254520Y336295D01*
X233792Y336295D01*
X228781Y341307D01*
X228774Y341311D01*
X228770Y341318D01*
X228691Y341366D01*
X228614Y341418D01*
X228606Y341419D01*
X228600Y341423D01*
X228422Y341455D01*
X226956Y341455D01*
X226948Y341454D01*
X226941Y341455D01*
X226851Y341434D01*
X226760Y341416D01*
X226753Y341411D01*
X226746Y341409D01*
X226598Y341307D01*
X225165Y339875D01*
X225161Y339868D01*
X225155Y339863D01*
X225106Y339785D01*
X225054Y339708D01*
X225053Y339700D01*
X225049Y339693D01*
X225017Y339516D01*
X225017Y337284D01*
X225018Y337279D01*
X225017Y337274D01*
X225038Y337181D01*
X225056Y337087D01*
X225059Y337083D01*
X225060Y337078D01*
X225116Y337000D01*
X225169Y336922D01*
X225173Y336919D01*
X225176Y336915D01*
X225258Y336864D01*
X225337Y336812D01*
X225342Y336812D01*
X225347Y336809D01*
X225524Y336777D01*
X229528Y336777D01*
X232637Y333668D01*
X232637Y329612D01*
X232638Y329607D01*
X232637Y329602D01*
X232658Y329509D01*
X232676Y329415D01*
X232679Y329411D01*
X232680Y329406D01*
X232736Y329328D01*
X232789Y329250D01*
X232793Y329247D01*
X232796Y329242D01*
X232878Y329192D01*
X232957Y329140D01*
X232962Y329139D01*
X232967Y329137D01*
X233144Y329105D01*
X233227Y329105D01*
X235585Y326747D01*
X235585Y324838D01*
X235586Y324833D01*
X235585Y324828D01*
X235606Y324735D01*
X235624Y324641D01*
X235627Y324637D01*
X235628Y324632D01*
X235684Y324554D01*
X235737Y324476D01*
X235741Y324473D01*
X235744Y324469D01*
X235826Y324418D01*
X235905Y324366D01*
X235910Y324366D01*
X235915Y324363D01*
X236092Y324331D01*
X243911Y324331D01*
X272308Y295934D01*
X272314Y295930D01*
X272319Y295924D01*
X272398Y295875D01*
X272475Y295823D01*
X272483Y295822D01*
X272489Y295818D01*
X272667Y295786D01*
X306885Y295786D01*
X306893Y295787D01*
X306901Y295786D01*
X306991Y295807D01*
X307082Y295825D01*
X307088Y295830D01*
X307096Y295832D01*
X307144Y295865D01*
X309552Y295865D01*
X309560Y295866D01*
X309568Y295865D01*
X309653Y295885D01*
X312217Y295885D01*
X312328Y295865D01*
X314705Y295865D01*
X315965Y294605D01*
X315965Y291575D01*
X315339Y290949D01*
X315336Y290944D01*
X315332Y290941D01*
X315280Y290861D01*
X315228Y290782D01*
X315227Y290777D01*
X315224Y290772D01*
X315208Y290678D01*
X315190Y290585D01*
X315191Y290580D01*
X315190Y290574D01*
X315212Y290482D01*
X315232Y290389D01*
X315235Y290384D01*
X315236Y290379D01*
X315339Y290231D01*
X315965Y289605D01*
X315965Y286575D01*
X315339Y285949D01*
X315336Y285944D01*
X315332Y285941D01*
X315280Y285861D01*
X315228Y285782D01*
X315227Y285777D01*
X315224Y285772D01*
X315208Y285678D01*
X315190Y285585D01*
X315191Y285580D01*
X315190Y285574D01*
X315212Y285482D01*
X315232Y285389D01*
X315235Y285384D01*
X315236Y285379D01*
X315339Y285231D01*
X315965Y284605D01*
X315965Y281575D01*
X315339Y280949D01*
X315336Y280944D01*
X315332Y280941D01*
X315280Y280861D01*
X315228Y280782D01*
X315227Y280777D01*
X315224Y280772D01*
X315208Y280678D01*
X315190Y280585D01*
X315191Y280580D01*
X315190Y280574D01*
X315212Y280482D01*
X315232Y280389D01*
X315235Y280384D01*
X315236Y280379D01*
X315339Y280231D01*
X315965Y279605D01*
X315965Y276575D01*
X315339Y275949D01*
X315336Y275944D01*
X315332Y275941D01*
X315280Y275861D01*
X315228Y275782D01*
X315227Y275777D01*
X315224Y275772D01*
X315208Y275678D01*
X315190Y275585D01*
X315191Y275580D01*
X315190Y275574D01*
X315212Y275481D01*
X315232Y275389D01*
X315235Y275384D01*
X315236Y275379D01*
X315339Y275231D01*
X315965Y274605D01*
X315965Y271575D01*
X315339Y270949D01*
X315336Y270944D01*
X315332Y270941D01*
X315280Y270861D01*
X315228Y270782D01*
X315227Y270777D01*
X315224Y270772D01*
X315208Y270678D01*
X315190Y270585D01*
X315191Y270580D01*
X315190Y270574D01*
X315212Y270482D01*
X315232Y270389D01*
X315235Y270384D01*
X315236Y270379D01*
X315339Y270231D01*
X315965Y269605D01*
X315965Y266575D01*
X315339Y265949D01*
X315336Y265944D01*
X315332Y265941D01*
X315280Y265861D01*
X315228Y265782D01*
X315227Y265777D01*
X315224Y265772D01*
X315208Y265678D01*
X315190Y265585D01*
X315191Y265580D01*
X315190Y265574D01*
X315212Y265482D01*
X315232Y265389D01*
X315235Y265384D01*
X315236Y265379D01*
X315339Y265231D01*
X315965Y264605D01*
X315965Y261575D01*
X314705Y260315D01*
X307174Y260315D01*
X305915Y261575D01*
X305915Y264605D01*
X306541Y265231D01*
X306544Y265236D01*
X306548Y265239D01*
X306599Y265319D01*
X306652Y265398D01*
X306653Y265403D01*
X306656Y265408D01*
X306672Y265502D01*
X306690Y265595D01*
X306689Y265600D01*
X306689Y265605D01*
X306668Y265698D01*
X306648Y265791D01*
X306645Y265796D01*
X306644Y265801D01*
X306541Y265949D01*
X305915Y266575D01*
X305915Y269788D01*
X305914Y269793D01*
X305915Y269798D01*
X305894Y269891D01*
X305876Y269985D01*
X305873Y269989D01*
X305872Y269994D01*
X305816Y270072D01*
X305763Y270150D01*
X305759Y270153D01*
X305756Y270157D01*
X305674Y270208D01*
X305595Y270260D01*
X305590Y270260D01*
X305585Y270263D01*
X305408Y270295D01*
X262962Y270295D01*
X228861Y304397D01*
X228854Y304401D01*
X228850Y304407D01*
X228771Y304456D01*
X228694Y304508D01*
X228686Y304509D01*
X228680Y304513D01*
X228502Y304545D01*
X209662Y304545D01*
X194055Y320152D01*
X194055Y377370D01*
X194042Y377437D01*
X194037Y377506D01*
X194022Y377535D01*
X194016Y377566D01*
X193977Y377623D01*
X193946Y377685D01*
X193921Y377706D01*
X193903Y377732D01*
X193845Y377770D01*
X193793Y377814D01*
X193762Y377824D01*
X193735Y377841D01*
X193667Y377854D01*
X193601Y377874D01*
X193569Y377871D01*
X193538Y377877D01*
X193470Y377862D01*
X193402Y377856D01*
X193374Y377840D01*
X193342Y377833D01*
X193286Y377794D01*
X193225Y377761D01*
X193203Y377735D01*
X193179Y377717D01*
X193152Y377674D01*
X193109Y377623D01*
X184531Y362767D01*
X183294Y363621D01*
X183267Y363632D01*
X183245Y363651D01*
X183176Y363671D01*
X183111Y363699D01*
X183082Y363699D01*
X183054Y363707D01*
X182983Y363699D01*
X182912Y363700D01*
X182885Y363688D01*
X182856Y363685D01*
X182794Y363650D01*
X182729Y363622D01*
X182708Y363602D01*
X182683Y363587D01*
X182620Y363510D01*
X182590Y363480D01*
X182586Y363470D01*
X182577Y363459D01*
X173077Y346959D01*
X173053Y346886D01*
X173022Y346816D01*
X173022Y346792D01*
X173014Y346770D01*
X173021Y346694D01*
X173020Y346617D01*
X173029Y346593D01*
X173030Y346572D01*
X173051Y346533D01*
X173070Y346481D01*
X173071Y346475D01*
X173073Y346473D01*
X173077Y346461D01*
X182577Y329961D01*
X182596Y329939D01*
X182609Y329913D01*
X182662Y329865D01*
X182709Y329812D01*
X182735Y329799D01*
X182757Y329780D01*
X182824Y329757D01*
X182888Y329726D01*
X182917Y329725D01*
X182944Y329715D01*
X183016Y329720D01*
X183087Y329717D01*
X183114Y329727D01*
X183143Y329729D01*
X183233Y329771D01*
X183273Y329786D01*
X183281Y329793D01*
X183294Y329799D01*
X184531Y330653D01*
X203423Y297932D01*
X203480Y297867D01*
X203534Y297799D01*
X203546Y297792D01*
X203555Y297781D01*
X203633Y297744D01*
X203709Y297702D01*
X203723Y297700D01*
X203736Y297694D01*
X203822Y297690D01*
X203908Y297680D01*
X203923Y297684D01*
X203936Y297684D01*
X203988Y297702D01*
X204082Y297728D01*
X205320Y298324D01*
X205376Y298367D01*
X205437Y298402D01*
X205457Y298428D01*
X205480Y298445D01*
X205506Y298490D01*
X205548Y298544D01*
X205551Y298549D01*
X206171Y298740D01*
X206201Y298756D01*
X206241Y298767D01*
X206826Y299049D01*
X206831Y299047D01*
X206901Y299037D01*
X206970Y299019D01*
X207002Y299023D01*
X207030Y299019D01*
X207080Y299033D01*
X207148Y299041D01*
X209415Y299739D01*
X209477Y299773D01*
X209542Y299799D01*
X209566Y299822D01*
X209591Y299835D01*
X209623Y299875D01*
X209673Y299923D01*
X209677Y299927D01*
X210318Y300024D01*
X210351Y300035D01*
X210392Y300040D01*
X211012Y300232D01*
X211017Y300229D01*
X211041Y300222D01*
X211051Y300216D01*
X211077Y300211D01*
X211085Y300209D01*
X211150Y300181D01*
X211182Y300180D01*
X211209Y300172D01*
X211261Y300178D01*
X211330Y300176D01*
X213675Y300528D01*
X213741Y300552D01*
X213810Y300569D01*
X213837Y300587D01*
X213863Y300597D01*
X213901Y300632D01*
X213958Y300671D01*
X213962Y300675D01*
X214611Y300675D01*
X214645Y300682D01*
X214686Y300681D01*
X215328Y300777D01*
X215332Y300774D01*
X215396Y300744D01*
X215456Y300707D01*
X215489Y300701D01*
X215514Y300689D01*
X215566Y300687D01*
X215634Y300675D01*
X218005Y300674D01*
X218074Y300688D01*
X218145Y300693D01*
X218174Y300708D01*
X218201Y300713D01*
X218244Y300742D01*
X218306Y300773D01*
X218311Y300776D01*
X218952Y300679D01*
X218987Y300681D01*
X219028Y300673D01*
X219677Y300673D01*
X219681Y300669D01*
X219739Y300630D01*
X219793Y300585D01*
X219824Y300574D01*
X219848Y300558D01*
X219898Y300549D01*
X219964Y300526D01*
X222308Y300172D01*
X222379Y300176D01*
X222449Y300171D01*
X222481Y300181D01*
X222509Y300182D01*
X222555Y300204D01*
X222621Y300225D01*
X222626Y300228D01*
X223246Y300036D01*
X223280Y300033D01*
X223320Y300019D01*
X223962Y299923D01*
X223965Y299918D01*
X224017Y299871D01*
X224063Y299817D01*
X224093Y299802D01*
X224113Y299783D01*
X224162Y299766D01*
X224223Y299734D01*
X226489Y299035D01*
X226559Y299028D01*
X226628Y299012D01*
X226661Y299017D01*
X226689Y299015D01*
X226738Y299030D01*
X226806Y299041D01*
X226811Y299042D01*
X227396Y298761D01*
X227430Y298752D01*
X227466Y298733D01*
X228087Y298542D01*
X228089Y298537D01*
X228134Y298482D01*
X228172Y298422D01*
X228198Y298403D01*
X228216Y298381D01*
X228261Y298357D01*
X228317Y298317D01*
X230454Y297287D01*
X230522Y297270D01*
X230588Y297244D01*
X230621Y297244D01*
X230648Y297237D01*
X230699Y297245D01*
X230768Y297246D01*
X230773Y297247D01*
X231309Y296881D01*
X231341Y296867D01*
X231375Y296843D01*
X231960Y296561D01*
X231961Y296556D01*
X231997Y296495D01*
X232026Y296431D01*
X232049Y296408D01*
X232064Y296384D01*
X232105Y296353D01*
X232154Y296304D01*
X234113Y294968D01*
X234178Y294940D01*
X234240Y294905D01*
X234272Y294901D01*
X234298Y294890D01*
X234349Y294890D01*
X234418Y294880D01*
X234423Y294880D01*
X234899Y294439D01*
X234928Y294421D01*
X234958Y294391D01*
X235494Y294026D01*
X235495Y294020D01*
X235522Y293955D01*
X235540Y293887D01*
X235560Y293861D01*
X235571Y293835D01*
X235607Y293798D01*
X235649Y293743D01*
X237386Y292129D01*
X237446Y292092D01*
X237502Y292049D01*
X237533Y292039D01*
X237557Y292025D01*
X237608Y292017D01*
X237675Y291997D01*
X237680Y291996D01*
X238084Y291489D01*
X238111Y291466D01*
X238136Y291433D01*
X238612Y290992D01*
X238612Y290986D01*
X238628Y290917D01*
X238636Y290847D01*
X238652Y290819D01*
X238659Y290791D01*
X238689Y290750D01*
X238722Y290689D01*
X240200Y288834D01*
X240254Y288789D01*
X240302Y288737D01*
X240332Y288723D01*
X240353Y288705D01*
X240402Y288690D01*
X240465Y288661D01*
X240470Y288659D01*
X240795Y288097D01*
X240818Y288071D01*
X240837Y288034D01*
X241242Y287527D01*
X241241Y287522D01*
X241243Y287497D01*
X241242Y287492D01*
X241245Y287483D01*
X241247Y287451D01*
X241245Y287381D01*
X241256Y287350D01*
X241258Y287322D01*
X241282Y287276D01*
X241306Y287211D01*
X242491Y285157D01*
X242538Y285104D01*
X242578Y285046D01*
X242605Y285028D01*
X242623Y285007D01*
X242670Y284984D01*
X242727Y284946D01*
X242732Y284943D01*
X242969Y284339D01*
X242988Y284310D01*
X243002Y284271D01*
X243326Y283709D01*
X243325Y283704D01*
X243320Y283633D01*
X243308Y283564D01*
X243314Y283532D01*
X243312Y283504D01*
X243329Y283455D01*
X243343Y283387D01*
X244208Y281179D01*
X244246Y281120D01*
X244277Y281057D01*
X244302Y281034D01*
X244317Y281011D01*
X244359Y280982D01*
X244410Y280935D01*
X244415Y280932D01*
X244559Y280299D01*
X244574Y280268D01*
X244582Y280227D01*
X244819Y279623D01*
X244816Y279618D01*
X244801Y279549D01*
X244778Y279482D01*
X244780Y279449D01*
X244774Y279422D01*
X244781Y279382D01*
X244780Y279376D01*
X244784Y279361D01*
X244787Y279302D01*
X245314Y276990D01*
X245343Y276926D01*
X245364Y276858D01*
X245384Y276833D01*
X245396Y276807D01*
X245434Y276772D01*
X245477Y276718D01*
X245481Y276715D01*
X245530Y276068D01*
X245539Y276034D01*
X245541Y275993D01*
X245685Y275360D01*
X245682Y275355D01*
X245657Y275289D01*
X245624Y275227D01*
X245621Y275194D01*
X245611Y275168D01*
X245613Y275116D01*
X245606Y275048D01*
X245782Y272683D01*
X245801Y272615D01*
X245812Y272545D01*
X245829Y272517D01*
X245836Y272490D01*
X245868Y272449D01*
X245903Y272390D01*
X245907Y272386D01*
X245858Y271739D01*
X245863Y271704D01*
X245858Y271663D01*
X245907Y271016D01*
X245903Y271012D01*
X245868Y270950D01*
X245827Y270893D01*
X245818Y270861D01*
X245805Y270837D01*
X245799Y270785D01*
X245781Y270719D01*
X245604Y268354D01*
X245612Y268284D01*
X245613Y268213D01*
X245625Y268183D01*
X245628Y268155D01*
X245654Y268110D01*
X245680Y268046D01*
X245683Y268041D01*
X245538Y267409D01*
X245537Y267374D01*
X245527Y267334D01*
X245478Y266687D01*
X245474Y266683D01*
X245430Y266627D01*
X245381Y266577D01*
X245368Y266547D01*
X245351Y266525D01*
X245337Y266475D01*
X245310Y266412D01*
X244782Y264100D01*
X244780Y264029D01*
X244770Y263959D01*
X244777Y263928D01*
X244777Y263900D01*
X244795Y263851D01*
X244811Y263784D01*
X244813Y263779D01*
X244576Y263175D01*
X244570Y263141D01*
X244554Y263103D01*
X244409Y262470D01*
X244405Y262467D01*
X244353Y262419D01*
X244297Y262376D01*
X244280Y262349D01*
X244259Y262329D01*
X244238Y262282D01*
X244202Y262223D01*
X243335Y260016D01*
X243323Y259946D01*
X243302Y259879D01*
X243305Y259846D01*
X243300Y259819D01*
X243311Y259768D01*
X243317Y259699D01*
X243319Y259694D01*
X242994Y259132D01*
X242983Y259099D01*
X242961Y259064D01*
X242659Y258294D01*
X242658Y258293D01*
X242657Y258291D01*
X242641Y258195D01*
X242624Y258097D01*
X242624Y258095D01*
X242624Y258093D01*
X242646Y257999D01*
X242668Y257901D01*
X242669Y257900D01*
X242669Y257898D01*
X242772Y257750D01*
X274908Y225615D01*
X274914Y225610D01*
X274919Y225604D01*
X274997Y225555D01*
X275075Y225504D01*
X275082Y225502D01*
X275089Y225498D01*
X275266Y225466D01*
X285460Y225466D01*
X285463Y225467D01*
X285466Y225466D01*
X285561Y225486D01*
X285657Y225506D01*
X285659Y225507D01*
X285662Y225508D01*
X285742Y225564D01*
X285823Y225618D01*
X285824Y225621D01*
X285826Y225622D01*
X285880Y225706D01*
X285932Y225786D01*
X285932Y225789D01*
X285934Y225791D01*
X285950Y225886D01*
X285968Y225984D01*
X285967Y225986D01*
X285967Y225989D01*
X285945Y226083D01*
X285924Y226179D01*
X285922Y226181D01*
X285922Y226184D01*
X285819Y226332D01*
X284253Y227898D01*
X284253Y232294D01*
X285855Y233896D01*
X285859Y233902D01*
X285865Y233907D01*
X285914Y233985D01*
X285966Y234063D01*
X285967Y234070D01*
X285971Y234077D01*
X286003Y234254D01*
X286003Y235968D01*
X286002Y235973D01*
X286003Y235978D01*
X285982Y236071D01*
X285964Y236165D01*
X285961Y236169D01*
X285960Y236174D01*
X285904Y236252D01*
X285851Y236330D01*
X285847Y236333D01*
X285844Y236337D01*
X285762Y236388D01*
X285683Y236440D01*
X285678Y236440D01*
X285673Y236443D01*
X285496Y236475D01*
X269998Y236475D01*
X269105Y237368D01*
X269105Y251632D01*
X269998Y252525D01*
X286262Y252525D01*
X287155Y251632D01*
X287155Y245754D01*
X287156Y245749D01*
X287155Y245744D01*
X287176Y245651D01*
X287194Y245557D01*
X287197Y245553D01*
X287198Y245548D01*
X287254Y245470D01*
X287307Y245392D01*
X287311Y245389D01*
X287314Y245385D01*
X287396Y245334D01*
X287475Y245282D01*
X287480Y245282D01*
X287485Y245279D01*
X287662Y245247D01*
X291418Y245247D01*
X291423Y245248D01*
X291428Y245247D01*
X291521Y245268D01*
X291615Y245286D01*
X291619Y245289D01*
X291624Y245290D01*
X291702Y245346D01*
X291780Y245399D01*
X291783Y245403D01*
X291787Y245406D01*
X291838Y245488D01*
X291890Y245567D01*
X291890Y245572D01*
X291893Y245577D01*
X291925Y245754D01*
X291925Y251632D01*
X292818Y252525D01*
X304082Y252525D01*
X305049Y251557D01*
X305051Y251556D01*
X305053Y251553D01*
X305133Y251501D01*
X305216Y251446D01*
X305219Y251446D01*
X305221Y251444D01*
X305317Y251427D01*
X305413Y251408D01*
X305416Y251409D01*
X305418Y251409D01*
X305515Y251430D01*
X305609Y251450D01*
X305611Y251452D01*
X305614Y251452D01*
X305694Y251509D01*
X305774Y251564D01*
X305775Y251567D01*
X305777Y251568D01*
X305830Y251652D01*
X305881Y251734D01*
X305882Y251736D01*
X305883Y251738D01*
X305915Y251916D01*
X305915Y254605D01*
X307174Y255865D01*
X314705Y255865D01*
X315965Y254605D01*
X315965Y251575D01*
X315339Y250949D01*
X315336Y250944D01*
X315332Y250941D01*
X315280Y250861D01*
X315228Y250782D01*
X315227Y250777D01*
X315224Y250772D01*
X315208Y250678D01*
X315190Y250585D01*
X315191Y250580D01*
X315190Y250574D01*
X315212Y250482D01*
X315232Y250389D01*
X315235Y250384D01*
X315236Y250379D01*
X315339Y250231D01*
X315965Y249605D01*
X315965Y246622D01*
X315966Y246617D01*
X315965Y246612D01*
X315986Y246519D01*
X316004Y246425D01*
X316007Y246421D01*
X316008Y246416D01*
X316064Y246338D01*
X316117Y246260D01*
X316121Y246257D01*
X316124Y246252D01*
X316206Y246202D01*
X316285Y246150D01*
X316290Y246149D01*
X316295Y246147D01*
X316472Y246115D01*
X319455Y246115D01*
X320715Y244855D01*
X320715Y242478D01*
X320716Y242470D01*
X320715Y242462D01*
X320735Y242377D01*
X320735Y239813D01*
X320715Y239702D01*
X320715Y237324D01*
X319455Y236065D01*
X316425Y236065D01*
X315165Y237324D01*
X315165Y237788D01*
X315164Y237793D01*
X315165Y237798D01*
X315144Y237891D01*
X315126Y237984D01*
X315123Y237989D01*
X315122Y237994D01*
X315066Y238072D01*
X315013Y238150D01*
X315009Y238153D01*
X315006Y238157D01*
X314924Y238208D01*
X314845Y238259D01*
X314840Y238260D01*
X314835Y238263D01*
X314658Y238295D01*
X301702Y238295D01*
X301671Y238327D01*
X301664Y238331D01*
X301660Y238337D01*
X301581Y238386D01*
X301504Y238438D01*
X301496Y238439D01*
X301490Y238443D01*
X301312Y238475D01*
X300475Y238475D01*
X300468Y238474D01*
X300460Y238475D01*
X300370Y238454D01*
X300279Y238436D01*
X300272Y238431D01*
X300265Y238429D01*
X300117Y238327D01*
X299923Y238133D01*
X293624Y238133D01*
X293619Y238132D01*
X293614Y238133D01*
X293521Y238112D01*
X293427Y238094D01*
X293423Y238091D01*
X293418Y238090D01*
X293340Y238034D01*
X293262Y237981D01*
X293259Y237977D01*
X293255Y237974D01*
X293204Y237892D01*
X293152Y237813D01*
X293152Y237808D01*
X293149Y237803D01*
X293117Y237626D01*
X293117Y234254D01*
X293118Y234246D01*
X293117Y234239D01*
X293138Y234149D01*
X293156Y234058D01*
X293161Y234051D01*
X293163Y234044D01*
X293265Y233896D01*
X294867Y232294D01*
X294867Y227898D01*
X293301Y226332D01*
X293299Y226330D01*
X293297Y226328D01*
X293245Y226248D01*
X293190Y226165D01*
X293189Y226162D01*
X293188Y226160D01*
X293171Y226064D01*
X293152Y225968D01*
X293153Y225966D01*
X293152Y225963D01*
X293174Y225867D01*
X293194Y225772D01*
X293195Y225770D01*
X293196Y225767D01*
X293253Y225688D01*
X293308Y225607D01*
X293310Y225606D01*
X293312Y225604D01*
X293396Y225552D01*
X293477Y225500D01*
X293480Y225500D01*
X293482Y225498D01*
X293660Y225466D01*
X314504Y225466D01*
X314511Y225468D01*
X314519Y225466D01*
X314609Y225487D01*
X314700Y225506D01*
X314707Y225510D01*
X314714Y225512D01*
X314862Y225615D01*
X324997Y235749D01*
X325001Y235756D01*
X325007Y235760D01*
X325056Y235839D01*
X325108Y235916D01*
X325109Y235924D01*
X325113Y235930D01*
X325145Y236108D01*
X325145Y242367D01*
X325165Y242478D01*
X325165Y244855D01*
X326425Y246115D01*
X329455Y246115D01*
X330081Y245489D01*
X330086Y245486D01*
X330089Y245482D01*
X330169Y245430D01*
X330248Y245378D01*
X330253Y245377D01*
X330258Y245374D01*
X330352Y245358D01*
X330445Y245340D01*
X330450Y245341D01*
X330456Y245340D01*
X330548Y245362D01*
X330641Y245382D01*
X330646Y245385D01*
X330651Y245386D01*
X330799Y245489D01*
X331425Y246115D01*
X334455Y246115D01*
X335081Y245489D01*
X335086Y245486D01*
X335089Y245482D01*
X335169Y245430D01*
X335248Y245378D01*
X335253Y245377D01*
X335258Y245374D01*
X335352Y245358D01*
X335445Y245340D01*
X335450Y245341D01*
X335456Y245340D01*
X335548Y245362D01*
X335641Y245382D01*
X335646Y245385D01*
X335651Y245386D01*
X335799Y245489D01*
X336425Y246115D01*
X339455Y246115D01*
X340081Y245489D01*
X340086Y245486D01*
X340089Y245482D01*
X340169Y245430D01*
X340248Y245378D01*
X340253Y245377D01*
X340258Y245374D01*
X340352Y245358D01*
X340445Y245340D01*
X340450Y245341D01*
X340456Y245340D01*
X340548Y245362D01*
X340641Y245382D01*
X340646Y245385D01*
X340651Y245386D01*
X340799Y245489D01*
X341425Y246115D01*
X344455Y246115D01*
X345081Y245489D01*
X345086Y245486D01*
X345089Y245482D01*
X345169Y245430D01*
X345248Y245378D01*
X345253Y245377D01*
X345258Y245374D01*
X345352Y245358D01*
X345445Y245340D01*
X345450Y245341D01*
X345456Y245340D01*
X345548Y245362D01*
X345641Y245382D01*
X345646Y245385D01*
X345651Y245386D01*
X345799Y245489D01*
X346425Y246115D01*
X349455Y246115D01*
X350081Y245489D01*
X350086Y245486D01*
X350089Y245482D01*
X350169Y245430D01*
X350248Y245378D01*
X350253Y245377D01*
X350258Y245374D01*
X350352Y245358D01*
X350445Y245340D01*
X350450Y245341D01*
X350456Y245340D01*
X350548Y245362D01*
X350641Y245382D01*
X350646Y245385D01*
X350651Y245386D01*
X350799Y245489D01*
X351425Y246115D01*
X354455Y246115D01*
X355715Y244855D01*
X355715Y237324D01*
X354455Y236065D01*
X353754Y236065D01*
X353749Y236064D01*
X353744Y236065D01*
X353651Y236044D01*
X353557Y236026D01*
X353553Y236023D01*
X353548Y236022D01*
X353470Y235966D01*
X353392Y235913D01*
X353389Y235909D01*
X353385Y235906D01*
X353334Y235824D01*
X353282Y235745D01*
X353282Y235740D01*
X353279Y235735D01*
X353247Y235558D01*
X353247Y232004D01*
X350138Y228896D01*
X345742Y228896D01*
X342633Y232004D01*
X342633Y235558D01*
X342632Y235563D01*
X342633Y235568D01*
X342612Y235661D01*
X342594Y235754D01*
X342591Y235759D01*
X342590Y235764D01*
X342534Y235842D01*
X342481Y235920D01*
X342477Y235923D01*
X342474Y235927D01*
X342392Y235978D01*
X342313Y236029D01*
X342308Y236030D01*
X342303Y236033D01*
X342126Y236065D01*
X341425Y236065D01*
X340799Y236691D01*
X340794Y236694D01*
X340791Y236698D01*
X340711Y236749D01*
X340632Y236802D01*
X340627Y236803D01*
X340622Y236806D01*
X340528Y236822D01*
X340435Y236840D01*
X340430Y236839D01*
X340425Y236839D01*
X340332Y236818D01*
X340239Y236798D01*
X340234Y236795D01*
X340229Y236794D01*
X340081Y236691D01*
X339455Y236065D01*
X336242Y236065D01*
X336237Y236064D01*
X336232Y236065D01*
X336139Y236044D01*
X336045Y236026D01*
X336041Y236023D01*
X336036Y236022D01*
X335958Y235966D01*
X335880Y235913D01*
X335877Y235909D01*
X335873Y235906D01*
X335822Y235824D01*
X335770Y235745D01*
X335770Y235740D01*
X335767Y235735D01*
X335735Y235558D01*
X335735Y231042D01*
X318858Y214165D01*
X268895Y214165D01*
X242160Y240900D01*
X242154Y240904D01*
X242149Y240911D01*
X242071Y240959D01*
X241994Y241011D01*
X241986Y241012D01*
X241979Y241016D01*
X241802Y241048D01*
X238067Y241048D01*
X236523Y242592D01*
X236494Y242612D01*
X236471Y242638D01*
X236412Y242667D01*
X236356Y242703D01*
X236322Y242710D01*
X236291Y242725D01*
X236225Y242728D01*
X236160Y242741D01*
X236126Y242734D01*
X236091Y242736D01*
X236028Y242713D01*
X235963Y242699D01*
X235935Y242679D01*
X235902Y242668D01*
X235853Y242623D01*
X235799Y242585D01*
X235780Y242556D01*
X235755Y242532D01*
X235727Y242472D01*
X235691Y242416D01*
X235686Y242382D01*
X235671Y242350D01*
X235669Y242283D01*
X235658Y242218D01*
X235666Y242184D01*
X235664Y242150D01*
X235691Y242076D01*
X235703Y242023D01*
X235717Y242003D01*
X235725Y241980D01*
X251715Y214285D01*
X250397Y213661D01*
X250374Y213644D01*
X250347Y213634D01*
X250295Y213585D01*
X250237Y213542D01*
X250223Y213517D01*
X250202Y213498D01*
X250173Y213432D01*
X250137Y213370D01*
X250134Y213342D01*
X250122Y213316D01*
X250121Y213244D01*
X250112Y213173D01*
X250120Y213146D01*
X250120Y213117D01*
X250155Y213022D01*
X250166Y212982D01*
X250173Y212973D01*
X250177Y212961D01*
X259677Y196461D01*
X259729Y196403D01*
X259775Y196340D01*
X259794Y196329D01*
X259809Y196312D01*
X259879Y196278D01*
X259946Y196238D01*
X259971Y196234D01*
X259988Y196226D01*
X260033Y196224D01*
X260110Y196211D01*
X279110Y196211D01*
X279138Y196216D01*
G37*
%LPC*%
G36*
X322492Y327433D02*
X322492Y327433D01*
X320636Y329289D01*
X320630Y329293D01*
X320625Y329299D01*
X320547Y329348D01*
X320469Y329400D01*
X320462Y329401D01*
X320455Y329405D01*
X320278Y329437D01*
X319512Y329437D01*
X304877Y344072D01*
X304877Y351108D01*
X304876Y351113D01*
X304877Y351118D01*
X304857Y351210D01*
X304838Y351305D01*
X304835Y351309D01*
X304834Y351314D01*
X304778Y351392D01*
X304725Y351470D01*
X304721Y351473D01*
X304718Y351477D01*
X304636Y351528D01*
X304557Y351580D01*
X304552Y351580D01*
X304547Y351583D01*
X304370Y351615D01*
X300548Y351615D01*
X299655Y352508D01*
X299655Y363830D01*
X299654Y363835D01*
X299655Y363840D01*
X299634Y363933D01*
X299616Y364027D01*
X299613Y364031D01*
X299612Y364036D01*
X299556Y364114D01*
X299503Y364192D01*
X299499Y364195D01*
X299496Y364199D01*
X299414Y364250D01*
X299335Y364302D01*
X299330Y364302D01*
X299325Y364305D01*
X299148Y364337D01*
X295212Y364337D01*
X295207Y364336D01*
X295202Y364337D01*
X295109Y364316D01*
X295015Y364298D01*
X295011Y364295D01*
X295006Y364294D01*
X294928Y364238D01*
X294850Y364185D01*
X294847Y364181D01*
X294843Y364178D01*
X294792Y364096D01*
X294740Y364017D01*
X294740Y364012D01*
X294737Y364007D01*
X294705Y363830D01*
X294705Y362008D01*
X293812Y361115D01*
X278548Y361115D01*
X277655Y362008D01*
X277655Y362830D01*
X277654Y362835D01*
X277655Y362840D01*
X277634Y362933D01*
X277616Y363027D01*
X277613Y363031D01*
X277612Y363036D01*
X277556Y363114D01*
X277503Y363192D01*
X277499Y363195D01*
X277496Y363199D01*
X277414Y363250D01*
X277335Y363302D01*
X277330Y363302D01*
X277325Y363305D01*
X277148Y363337D01*
X276772Y363337D01*
X276767Y363336D01*
X276762Y363337D01*
X276669Y363316D01*
X276575Y363298D01*
X276571Y363295D01*
X276566Y363294D01*
X276488Y363238D01*
X276410Y363185D01*
X276407Y363181D01*
X276403Y363178D01*
X276352Y363096D01*
X276300Y363017D01*
X276300Y363012D01*
X276297Y363007D01*
X276265Y362830D01*
X276265Y361008D01*
X275372Y360115D01*
X263108Y360115D01*
X262215Y361008D01*
X262215Y363830D01*
X262214Y363835D01*
X262215Y363840D01*
X262194Y363933D01*
X262176Y364027D01*
X262173Y364031D01*
X262172Y364036D01*
X262116Y364114D01*
X262063Y364192D01*
X262059Y364195D01*
X262056Y364199D01*
X261974Y364250D01*
X261895Y364302D01*
X261890Y364302D01*
X261885Y364305D01*
X261708Y364337D01*
X258452Y364337D01*
X258447Y364336D01*
X258442Y364337D01*
X258349Y364316D01*
X258255Y364298D01*
X258251Y364295D01*
X258246Y364294D01*
X258168Y364238D01*
X258090Y364185D01*
X258087Y364181D01*
X258083Y364178D01*
X258032Y364096D01*
X257980Y364017D01*
X257980Y364012D01*
X257977Y364007D01*
X257945Y363830D01*
X257945Y360508D01*
X257052Y359615D01*
X240788Y359615D01*
X239895Y360508D01*
X239895Y374772D01*
X240788Y375665D01*
X257052Y375665D01*
X257945Y374772D01*
X257945Y371450D01*
X257946Y371445D01*
X257945Y371440D01*
X257966Y371347D01*
X257984Y371253D01*
X257987Y371249D01*
X257988Y371244D01*
X258044Y371166D01*
X258097Y371088D01*
X258101Y371085D01*
X258104Y371081D01*
X258186Y371030D01*
X258265Y370978D01*
X258270Y370978D01*
X258275Y370975D01*
X258452Y370943D01*
X261708Y370943D01*
X261713Y370944D01*
X261718Y370943D01*
X261811Y370964D01*
X261905Y370982D01*
X261909Y370985D01*
X261914Y370986D01*
X261992Y371042D01*
X262070Y371095D01*
X262073Y371099D01*
X262077Y371102D01*
X262128Y371184D01*
X262180Y371263D01*
X262180Y371268D01*
X262183Y371273D01*
X262215Y371450D01*
X262215Y372272D01*
X263108Y373165D01*
X275372Y373165D01*
X276265Y372272D01*
X276265Y370450D01*
X276266Y370445D01*
X276265Y370440D01*
X276286Y370347D01*
X276304Y370253D01*
X276307Y370249D01*
X276308Y370244D01*
X276364Y370166D01*
X276417Y370088D01*
X276421Y370085D01*
X276424Y370081D01*
X276506Y370030D01*
X276585Y369978D01*
X276590Y369978D01*
X276595Y369975D01*
X276772Y369943D01*
X277148Y369943D01*
X277153Y369944D01*
X277158Y369943D01*
X277251Y369964D01*
X277345Y369982D01*
X277349Y369985D01*
X277354Y369986D01*
X277432Y370042D01*
X277510Y370095D01*
X277513Y370099D01*
X277517Y370102D01*
X277568Y370184D01*
X277620Y370263D01*
X277620Y370268D01*
X277623Y370273D01*
X277655Y370450D01*
X277655Y373272D01*
X278548Y374165D01*
X293812Y374165D01*
X294705Y373272D01*
X294705Y371450D01*
X294706Y371445D01*
X294705Y371440D01*
X294726Y371347D01*
X294744Y371253D01*
X294747Y371249D01*
X294748Y371244D01*
X294804Y371166D01*
X294857Y371088D01*
X294861Y371085D01*
X294864Y371081D01*
X294946Y371030D01*
X295025Y370978D01*
X295030Y370978D01*
X295035Y370975D01*
X295212Y370943D01*
X329552Y370943D01*
X329559Y370944D01*
X329567Y370943D01*
X329657Y370964D01*
X329748Y370982D01*
X329755Y370987D01*
X329762Y370989D01*
X329910Y371091D01*
X330658Y371839D01*
X330660Y371842D01*
X330662Y371843D01*
X330714Y371924D01*
X330769Y372006D01*
X330770Y372009D01*
X330771Y372011D01*
X330789Y372107D01*
X330807Y372203D01*
X330806Y372206D01*
X330807Y372208D01*
X330785Y372305D01*
X330765Y372399D01*
X330764Y372401D01*
X330763Y372404D01*
X330707Y372484D01*
X330651Y372564D01*
X330649Y372565D01*
X330647Y372567D01*
X330564Y372619D01*
X330482Y372671D01*
X330479Y372672D01*
X330477Y372673D01*
X330300Y372705D01*
X319878Y372705D01*
X318985Y373598D01*
X318985Y377564D01*
X318984Y377572D01*
X318985Y377579D01*
X318964Y377669D01*
X318946Y377760D01*
X318941Y377767D01*
X318939Y377775D01*
X318837Y377923D01*
X317687Y379073D01*
X317680Y379077D01*
X317675Y379083D01*
X317597Y379132D01*
X317520Y379184D01*
X317512Y379185D01*
X317505Y379189D01*
X317328Y379221D01*
X255428Y379221D01*
X253374Y380072D01*
X251802Y381644D01*
X250951Y383698D01*
X250951Y472282D01*
X251802Y474336D01*
X257184Y479718D01*
X257358Y479790D01*
X257359Y479790D01*
X258583Y480297D01*
X259238Y480569D01*
X318612Y480569D01*
X320666Y479718D01*
X322238Y478146D01*
X323089Y476092D01*
X323089Y427402D01*
X323090Y427397D01*
X323089Y427392D01*
X323110Y427299D01*
X323128Y427205D01*
X323131Y427201D01*
X323132Y427196D01*
X323188Y427118D01*
X323241Y427040D01*
X323245Y427037D01*
X323248Y427033D01*
X323330Y426982D01*
X323409Y426930D01*
X323414Y426930D01*
X323419Y426927D01*
X323596Y426895D01*
X325510Y426895D01*
X325515Y426896D01*
X325520Y426895D01*
X325613Y426916D01*
X325707Y426934D01*
X325711Y426937D01*
X325716Y426938D01*
X325794Y426994D01*
X325872Y427047D01*
X325875Y427051D01*
X325879Y427054D01*
X325930Y427136D01*
X325982Y427215D01*
X325982Y427220D01*
X325985Y427225D01*
X326017Y427402D01*
X326017Y446258D01*
X335131Y455371D01*
X335135Y455378D01*
X335141Y455383D01*
X335190Y455461D01*
X335242Y455538D01*
X335243Y455546D01*
X335247Y455553D01*
X335279Y455730D01*
X335279Y464300D01*
X337019Y468501D01*
X340235Y471717D01*
X341357Y472181D01*
X342582Y472689D01*
X343806Y473196D01*
X344436Y473457D01*
X348984Y473457D01*
X353185Y471717D01*
X356401Y468501D01*
X358141Y464300D01*
X358141Y439940D01*
X356401Y435739D01*
X353185Y432523D01*
X351992Y432029D01*
X350768Y431522D01*
X350767Y431522D01*
X349543Y431015D01*
X348984Y430783D01*
X344436Y430783D01*
X340235Y432523D01*
X337019Y435739D01*
X335279Y439940D01*
X335279Y444954D01*
X335279Y444956D01*
X335279Y444959D01*
X335260Y445052D01*
X335240Y445150D01*
X335238Y445153D01*
X335238Y445155D01*
X335182Y445236D01*
X335127Y445316D01*
X335125Y445318D01*
X335123Y445320D01*
X335040Y445373D01*
X334959Y445425D01*
X334956Y445426D01*
X334954Y445427D01*
X334858Y445444D01*
X334762Y445461D01*
X334759Y445460D01*
X334757Y445461D01*
X334662Y445439D01*
X334566Y445417D01*
X334564Y445416D01*
X334561Y445415D01*
X334413Y445313D01*
X332771Y443671D01*
X332767Y443664D01*
X332761Y443659D01*
X332712Y443581D01*
X332660Y443504D01*
X332659Y443496D01*
X332655Y443489D01*
X332623Y443312D01*
X332623Y427402D01*
X332624Y427397D01*
X332623Y427392D01*
X332644Y427299D01*
X332662Y427205D01*
X332665Y427201D01*
X332666Y427196D01*
X332722Y427118D01*
X332775Y427040D01*
X332779Y427037D01*
X332782Y427033D01*
X332864Y426982D01*
X332943Y426930D01*
X332948Y426930D01*
X332953Y426927D01*
X333130Y426895D01*
X335452Y426895D01*
X336345Y426002D01*
X336345Y414738D01*
X335452Y413845D01*
X333130Y413845D01*
X333125Y413844D01*
X333120Y413845D01*
X333027Y413824D01*
X332933Y413806D01*
X332929Y413803D01*
X332924Y413802D01*
X332846Y413746D01*
X332768Y413693D01*
X332765Y413689D01*
X332761Y413686D01*
X332710Y413604D01*
X332658Y413525D01*
X332658Y413520D01*
X332655Y413515D01*
X332623Y413338D01*
X332623Y407582D01*
X332624Y407577D01*
X332623Y407572D01*
X332644Y407479D01*
X332662Y407385D01*
X332665Y407381D01*
X332666Y407376D01*
X332722Y407298D01*
X332775Y407220D01*
X332779Y407217D01*
X332782Y407213D01*
X332864Y407162D01*
X332943Y407110D01*
X332948Y407110D01*
X332953Y407107D01*
X333130Y407075D01*
X334952Y407075D01*
X335845Y406182D01*
X335845Y393918D01*
X335132Y393206D01*
X335129Y393201D01*
X335125Y393198D01*
X335074Y393118D01*
X335021Y393039D01*
X335020Y393034D01*
X335017Y393029D01*
X335001Y392936D01*
X334984Y392842D01*
X334985Y392837D01*
X334984Y392832D01*
X335005Y392739D01*
X335025Y392646D01*
X335028Y392642D01*
X335029Y392636D01*
X335132Y392488D01*
X337115Y390506D01*
X337115Y387770D01*
X336966Y387621D01*
X336964Y387618D01*
X336962Y387617D01*
X336909Y387535D01*
X336855Y387454D01*
X336854Y387451D01*
X336853Y387449D01*
X336835Y387352D01*
X336817Y387257D01*
X336818Y387254D01*
X336817Y387252D01*
X336839Y387155D01*
X336859Y387061D01*
X336860Y387059D01*
X336861Y387056D01*
X336918Y386975D01*
X336973Y386896D01*
X336975Y386895D01*
X336977Y386893D01*
X337061Y386840D01*
X337142Y386789D01*
X337145Y386788D01*
X337147Y386787D01*
X337324Y386755D01*
X347246Y386755D01*
X347251Y386756D01*
X347256Y386755D01*
X347349Y386776D01*
X347443Y386794D01*
X347447Y386797D01*
X347452Y386798D01*
X347530Y386854D01*
X347608Y386907D01*
X347611Y386911D01*
X347615Y386914D01*
X347666Y386996D01*
X347718Y387075D01*
X347718Y387080D01*
X347721Y387085D01*
X347753Y387262D01*
X347753Y390183D01*
X350862Y393292D01*
X353486Y393292D01*
X353494Y393293D01*
X353501Y393292D01*
X353591Y393313D01*
X353682Y393331D01*
X353689Y393336D01*
X353697Y393338D01*
X353845Y393440D01*
X356772Y396368D01*
X378558Y396368D01*
X380641Y394284D01*
X382165Y392760D01*
X382168Y392759D01*
X382169Y392757D01*
X382250Y392704D01*
X382332Y392649D01*
X382335Y392649D01*
X382337Y392648D01*
X382433Y392630D01*
X382529Y392612D01*
X382532Y392612D01*
X382534Y392612D01*
X382631Y392633D01*
X382725Y392653D01*
X382727Y392655D01*
X382730Y392656D01*
X382810Y392712D01*
X382890Y392768D01*
X382891Y392770D01*
X382893Y392772D01*
X382945Y392855D01*
X382997Y392937D01*
X382998Y392940D01*
X382999Y392942D01*
X383031Y393119D01*
X383031Y400304D01*
X383030Y400309D01*
X383031Y400314D01*
X383010Y400407D01*
X382992Y400501D01*
X382989Y400505D01*
X382988Y400510D01*
X382933Y400587D01*
X382879Y400666D01*
X382875Y400669D01*
X382872Y400673D01*
X382790Y400724D01*
X382711Y400776D01*
X382706Y400776D01*
X382701Y400779D01*
X382524Y400811D01*
X376078Y400811D01*
X374024Y401662D01*
X372452Y403234D01*
X371601Y405288D01*
X371601Y416560D01*
X371600Y416565D01*
X371601Y416570D01*
X371580Y416663D01*
X371562Y416757D01*
X371559Y416761D01*
X371558Y416766D01*
X371502Y416844D01*
X371449Y416922D01*
X371445Y416925D01*
X371442Y416929D01*
X371360Y416980D01*
X371281Y417032D01*
X371276Y417032D01*
X371271Y417035D01*
X371094Y417067D01*
X353852Y417067D01*
X353847Y417066D01*
X353842Y417067D01*
X353749Y417046D01*
X353655Y417028D01*
X353651Y417025D01*
X353646Y417024D01*
X353568Y416968D01*
X353490Y416915D01*
X353487Y416911D01*
X353483Y416908D01*
X353432Y416826D01*
X353380Y416747D01*
X353380Y416742D01*
X353377Y416737D01*
X353345Y416560D01*
X353345Y414738D01*
X352452Y413845D01*
X340188Y413845D01*
X339295Y414738D01*
X339295Y426002D01*
X340188Y426895D01*
X352452Y426895D01*
X353345Y426002D01*
X353345Y424180D01*
X353346Y424175D01*
X353345Y424170D01*
X353366Y424077D01*
X353384Y423983D01*
X353387Y423979D01*
X353388Y423974D01*
X353444Y423896D01*
X353497Y423818D01*
X353501Y423815D01*
X353504Y423811D01*
X353586Y423760D01*
X353665Y423708D01*
X353670Y423708D01*
X353675Y423705D01*
X353852Y423673D01*
X371094Y423673D01*
X371099Y423674D01*
X371104Y423673D01*
X371197Y423694D01*
X371291Y423712D01*
X371295Y423715D01*
X371300Y423716D01*
X371378Y423772D01*
X371456Y423825D01*
X371459Y423829D01*
X371463Y423832D01*
X371514Y423914D01*
X371566Y423993D01*
X371566Y423998D01*
X371569Y424003D01*
X371601Y424180D01*
X371601Y476092D01*
X372452Y478146D01*
X374024Y479718D01*
X374198Y479790D01*
X374199Y479790D01*
X375423Y480297D01*
X376078Y480569D01*
X430372Y480569D01*
X432426Y479718D01*
X441618Y470526D01*
X442469Y468472D01*
X442469Y405288D01*
X441618Y403234D01*
X440046Y401662D01*
X439882Y401594D01*
X438658Y401087D01*
X437992Y400811D01*
X390144Y400811D01*
X390139Y400810D01*
X390134Y400811D01*
X390041Y400790D01*
X389947Y400772D01*
X389943Y400769D01*
X389938Y400768D01*
X389860Y400712D01*
X389782Y400659D01*
X389779Y400655D01*
X389775Y400652D01*
X389724Y400570D01*
X389672Y400491D01*
X389672Y400486D01*
X389669Y400481D01*
X389637Y400304D01*
X389637Y393754D01*
X389637Y393752D01*
X389637Y393749D01*
X389657Y393654D01*
X389676Y393558D01*
X389678Y393555D01*
X389678Y393553D01*
X389734Y393472D01*
X389789Y393392D01*
X389791Y393390D01*
X389793Y393388D01*
X389876Y393335D01*
X389957Y393283D01*
X389960Y393282D01*
X389962Y393281D01*
X390058Y393264D01*
X390154Y393247D01*
X390157Y393248D01*
X390159Y393247D01*
X390253Y393269D01*
X390350Y393291D01*
X390352Y393292D01*
X390355Y393293D01*
X390503Y393395D01*
X394110Y397003D01*
X409918Y397003D01*
X409923Y397004D01*
X409928Y397003D01*
X410021Y397024D01*
X410115Y397042D01*
X410119Y397045D01*
X410124Y397046D01*
X410202Y397102D01*
X410280Y397155D01*
X410283Y397159D01*
X410287Y397162D01*
X410338Y397244D01*
X410390Y397323D01*
X410390Y397328D01*
X410393Y397333D01*
X410425Y397510D01*
X410425Y398562D01*
X411318Y399455D01*
X422582Y399455D01*
X423475Y398562D01*
X423475Y386298D01*
X422582Y385405D01*
X411318Y385405D01*
X410425Y386298D01*
X410425Y389890D01*
X410424Y389895D01*
X410425Y389900D01*
X410404Y389993D01*
X410386Y390087D01*
X410383Y390091D01*
X410382Y390096D01*
X410326Y390174D01*
X410273Y390252D01*
X410269Y390255D01*
X410266Y390259D01*
X410184Y390310D01*
X410105Y390362D01*
X410100Y390362D01*
X410095Y390365D01*
X409918Y390397D01*
X397056Y390397D01*
X397048Y390396D01*
X397041Y390397D01*
X396951Y390376D01*
X396860Y390358D01*
X396853Y390353D01*
X396846Y390351D01*
X396698Y390249D01*
X396389Y389941D01*
X396385Y389934D01*
X396379Y389929D01*
X396330Y389851D01*
X396278Y389774D01*
X396277Y389766D01*
X396273Y389759D01*
X396241Y389582D01*
X396241Y378844D01*
X395348Y377951D01*
X390528Y377951D01*
X389995Y378485D01*
X389990Y378488D01*
X389987Y378492D01*
X389907Y378543D01*
X389828Y378596D01*
X389823Y378597D01*
X389818Y378600D01*
X389724Y378616D01*
X389631Y378634D01*
X389626Y378632D01*
X389620Y378633D01*
X389528Y378612D01*
X389435Y378592D01*
X389430Y378589D01*
X389425Y378588D01*
X389277Y378485D01*
X388744Y377951D01*
X383924Y377951D01*
X383391Y378485D01*
X383386Y378488D01*
X383383Y378492D01*
X383303Y378543D01*
X383224Y378596D01*
X383219Y378597D01*
X383214Y378600D01*
X383120Y378616D01*
X383027Y378634D01*
X383022Y378632D01*
X383016Y378633D01*
X382924Y378612D01*
X382831Y378592D01*
X382826Y378589D01*
X382821Y378588D01*
X382673Y378485D01*
X382140Y377951D01*
X377320Y377951D01*
X376427Y378844D01*
X376427Y388947D01*
X376426Y388955D01*
X376427Y388962D01*
X376406Y389052D01*
X376388Y389143D01*
X376383Y389150D01*
X376381Y389158D01*
X376279Y389306D01*
X375970Y389614D01*
X375964Y389618D01*
X375959Y389624D01*
X375881Y389673D01*
X375804Y389725D01*
X375796Y389726D01*
X375789Y389730D01*
X375612Y389762D01*
X359718Y389762D01*
X359710Y389761D01*
X359703Y389762D01*
X359613Y389741D01*
X359522Y389723D01*
X359515Y389718D01*
X359507Y389716D01*
X359359Y389614D01*
X358515Y388770D01*
X358511Y388763D01*
X358505Y388758D01*
X358456Y388680D01*
X358404Y388603D01*
X358403Y388595D01*
X358399Y388588D01*
X358367Y388411D01*
X358367Y385787D01*
X355258Y382678D01*
X350862Y382678D01*
X349901Y383640D01*
X349898Y383641D01*
X349897Y383643D01*
X349817Y383695D01*
X349734Y383750D01*
X349731Y383751D01*
X349729Y383752D01*
X349633Y383770D01*
X349537Y383788D01*
X349534Y383788D01*
X349532Y383788D01*
X349435Y383767D01*
X349341Y383746D01*
X349339Y383745D01*
X349336Y383744D01*
X349256Y383688D01*
X349176Y383632D01*
X349175Y383630D01*
X349173Y383628D01*
X349120Y383544D01*
X349069Y383463D01*
X349068Y383460D01*
X349067Y383458D01*
X349035Y383281D01*
X349035Y373598D01*
X348142Y372705D01*
X342702Y372705D01*
X342697Y372704D01*
X342692Y372705D01*
X342599Y372684D01*
X342505Y372666D01*
X342501Y372663D01*
X342496Y372662D01*
X342418Y372606D01*
X342340Y372553D01*
X342337Y372549D01*
X342333Y372546D01*
X342282Y372464D01*
X342230Y372385D01*
X342230Y372380D01*
X342227Y372375D01*
X342195Y372198D01*
X342195Y366850D01*
X330182Y354837D01*
X317212Y354837D01*
X317207Y354836D01*
X317202Y354837D01*
X317109Y354816D01*
X317015Y354798D01*
X317011Y354795D01*
X317006Y354794D01*
X316928Y354738D01*
X316850Y354685D01*
X316847Y354681D01*
X316843Y354678D01*
X316792Y354596D01*
X316740Y354517D01*
X316740Y354512D01*
X316737Y354507D01*
X316705Y354330D01*
X316705Y352508D01*
X315812Y351615D01*
X311990Y351615D01*
X311985Y351614D01*
X311980Y351615D01*
X311887Y351594D01*
X311793Y351576D01*
X311789Y351573D01*
X311784Y351572D01*
X311706Y351516D01*
X311628Y351463D01*
X311625Y351459D01*
X311621Y351456D01*
X311570Y351374D01*
X311518Y351295D01*
X311518Y351290D01*
X311515Y351285D01*
X311483Y351108D01*
X311483Y347018D01*
X311484Y347010D01*
X311483Y347003D01*
X311504Y346913D01*
X311522Y346822D01*
X311527Y346815D01*
X311529Y346807D01*
X311631Y346659D01*
X321009Y337281D01*
X321014Y337279D01*
X321017Y337274D01*
X321097Y337223D01*
X321176Y337171D01*
X321181Y337170D01*
X321186Y337167D01*
X321280Y337151D01*
X321373Y337133D01*
X321378Y337134D01*
X321383Y337133D01*
X321476Y337155D01*
X321569Y337175D01*
X321574Y337178D01*
X321579Y337179D01*
X321727Y337281D01*
X322492Y338047D01*
X326888Y338047D01*
X329997Y334938D01*
X329997Y330542D01*
X326888Y327433D01*
X322492Y327433D01*
G37*
%LPD*%
G36*
X317526Y383290D02*
X317526Y383290D01*
X317552Y383288D01*
X317699Y383310D01*
X317846Y383327D01*
X317871Y383335D01*
X317897Y383339D01*
X318035Y383394D01*
X318174Y383444D01*
X318196Y383458D01*
X318221Y383468D01*
X318342Y383553D01*
X318467Y383633D01*
X318485Y383652D01*
X318507Y383667D01*
X318606Y383777D01*
X318709Y383884D01*
X318723Y383906D01*
X318740Y383926D01*
X318812Y384056D01*
X318888Y384183D01*
X318896Y384208D01*
X318909Y384231D01*
X318949Y384374D01*
X318994Y384515D01*
X318996Y384541D01*
X319004Y384566D01*
X319023Y384810D01*
X319023Y474980D01*
X319020Y475006D01*
X319022Y475032D01*
X319000Y475179D01*
X318983Y475326D01*
X318975Y475351D01*
X318971Y475377D01*
X318916Y475515D01*
X318866Y475654D01*
X318852Y475676D01*
X318842Y475701D01*
X318757Y475822D01*
X318677Y475947D01*
X318658Y475965D01*
X318643Y475987D01*
X318533Y476086D01*
X318426Y476189D01*
X318404Y476203D01*
X318384Y476220D01*
X318254Y476292D01*
X318127Y476368D01*
X318102Y476376D01*
X318079Y476389D01*
X317936Y476429D01*
X317795Y476474D01*
X317769Y476476D01*
X317744Y476484D01*
X317500Y476503D01*
X260350Y476503D01*
X260224Y476489D01*
X260098Y476482D01*
X260052Y476469D01*
X260004Y476463D01*
X259885Y476421D01*
X259763Y476386D01*
X259721Y476362D01*
X259676Y476346D01*
X259569Y476277D01*
X259459Y476216D01*
X259413Y476176D01*
X259383Y476157D01*
X259349Y476122D01*
X259273Y476057D01*
X255463Y472247D01*
X255384Y472148D01*
X255300Y472054D01*
X255276Y472012D01*
X255246Y471974D01*
X255192Y471860D01*
X255131Y471749D01*
X255118Y471703D01*
X255097Y471659D01*
X255071Y471536D01*
X255036Y471414D01*
X255032Y471353D01*
X255024Y471318D01*
X255025Y471270D01*
X255017Y471170D01*
X255017Y384810D01*
X255020Y384784D01*
X255018Y384758D01*
X255040Y384611D01*
X255057Y384464D01*
X255065Y384439D01*
X255069Y384413D01*
X255124Y384275D01*
X255174Y384136D01*
X255188Y384114D01*
X255198Y384089D01*
X255283Y383968D01*
X255363Y383843D01*
X255382Y383825D01*
X255397Y383803D01*
X255507Y383704D01*
X255614Y383601D01*
X255636Y383587D01*
X255656Y383570D01*
X255786Y383498D01*
X255913Y383422D01*
X255938Y383414D01*
X255961Y383401D01*
X256104Y383361D01*
X256245Y383316D01*
X256271Y383314D01*
X256296Y383306D01*
X256540Y383287D01*
X317500Y383287D01*
X317526Y383290D01*
G37*
G36*
X436906Y404880D02*
X436906Y404880D01*
X436932Y404878D01*
X437079Y404900D01*
X437226Y404917D01*
X437251Y404925D01*
X437277Y404929D01*
X437415Y404984D01*
X437554Y405034D01*
X437576Y405048D01*
X437601Y405058D01*
X437722Y405143D01*
X437847Y405223D01*
X437865Y405242D01*
X437887Y405257D01*
X437986Y405367D01*
X438089Y405474D01*
X438103Y405496D01*
X438120Y405516D01*
X438192Y405646D01*
X438268Y405773D01*
X438276Y405798D01*
X438289Y405821D01*
X438329Y405964D01*
X438374Y406105D01*
X438376Y406131D01*
X438384Y406156D01*
X438403Y406400D01*
X438403Y467360D01*
X438402Y467374D01*
X438402Y467382D01*
X438395Y467430D01*
X438389Y467486D01*
X438382Y467612D01*
X438369Y467658D01*
X438363Y467706D01*
X438321Y467825D01*
X438286Y467947D01*
X438262Y467989D01*
X438246Y468034D01*
X438177Y468141D01*
X438116Y468251D01*
X438076Y468297D01*
X438057Y468327D01*
X438022Y468361D01*
X437957Y468437D01*
X430337Y476057D01*
X430238Y476136D01*
X430144Y476220D01*
X430102Y476244D01*
X430064Y476274D01*
X429950Y476328D01*
X429839Y476389D01*
X429793Y476402D01*
X429749Y476423D01*
X429626Y476449D01*
X429504Y476484D01*
X429443Y476489D01*
X429408Y476496D01*
X429360Y476495D01*
X429260Y476503D01*
X377190Y476503D01*
X377164Y476500D01*
X377138Y476502D01*
X376991Y476480D01*
X376844Y476463D01*
X376819Y476455D01*
X376793Y476451D01*
X376655Y476396D01*
X376516Y476346D01*
X376494Y476332D01*
X376469Y476322D01*
X376348Y476237D01*
X376223Y476157D01*
X376205Y476138D01*
X376183Y476123D01*
X376084Y476013D01*
X375981Y475906D01*
X375967Y475884D01*
X375950Y475864D01*
X375878Y475734D01*
X375802Y475607D01*
X375794Y475582D01*
X375781Y475559D01*
X375741Y475416D01*
X375696Y475275D01*
X375694Y475249D01*
X375686Y475224D01*
X375667Y474980D01*
X375667Y406400D01*
X375670Y406374D01*
X375668Y406348D01*
X375690Y406201D01*
X375707Y406054D01*
X375715Y406029D01*
X375719Y406003D01*
X375774Y405865D01*
X375824Y405726D01*
X375838Y405704D01*
X375848Y405679D01*
X375933Y405558D01*
X376013Y405433D01*
X376032Y405415D01*
X376047Y405393D01*
X376157Y405294D01*
X376264Y405191D01*
X376286Y405177D01*
X376306Y405160D01*
X376436Y405088D01*
X376563Y405012D01*
X376588Y405004D01*
X376611Y404991D01*
X376754Y404951D01*
X376895Y404906D01*
X376921Y404904D01*
X376946Y404896D01*
X377190Y404877D01*
X436880Y404877D01*
X436906Y404880D01*
G37*
%LPC*%
G36*
X397872Y258825D02*
X397872Y258825D01*
X386551Y270147D01*
X386544Y270151D01*
X386540Y270157D01*
X386461Y270206D01*
X386384Y270258D01*
X386376Y270259D01*
X386370Y270263D01*
X386192Y270295D01*
X378663Y270295D01*
X378552Y270315D01*
X376175Y270315D01*
X374915Y271575D01*
X374915Y274605D01*
X375541Y275231D01*
X375544Y275236D01*
X375548Y275239D01*
X375599Y275318D01*
X375652Y275398D01*
X375653Y275403D01*
X375656Y275408D01*
X375672Y275502D01*
X375690Y275595D01*
X375689Y275600D01*
X375690Y275606D01*
X375668Y275698D01*
X375648Y275791D01*
X375645Y275796D01*
X375644Y275801D01*
X375541Y275949D01*
X374915Y276575D01*
X374915Y279605D01*
X375541Y280231D01*
X375544Y280236D01*
X375548Y280239D01*
X375600Y280319D01*
X375652Y280398D01*
X375653Y280403D01*
X375656Y280408D01*
X375672Y280502D01*
X375690Y280595D01*
X375689Y280600D01*
X375690Y280606D01*
X375668Y280698D01*
X375648Y280791D01*
X375645Y280796D01*
X375644Y280801D01*
X375541Y280949D01*
X374915Y281575D01*
X374915Y284605D01*
X375541Y285231D01*
X375544Y285236D01*
X375548Y285239D01*
X375600Y285319D01*
X375652Y285398D01*
X375653Y285403D01*
X375656Y285408D01*
X375672Y285502D01*
X375690Y285595D01*
X375689Y285600D01*
X375690Y285606D01*
X375668Y285698D01*
X375648Y285791D01*
X375645Y285796D01*
X375644Y285801D01*
X375541Y285949D01*
X374915Y286575D01*
X374915Y289605D01*
X375541Y290231D01*
X375544Y290236D01*
X375548Y290239D01*
X375600Y290319D01*
X375652Y290398D01*
X375653Y290403D01*
X375656Y290408D01*
X375672Y290502D01*
X375690Y290595D01*
X375689Y290600D01*
X375690Y290606D01*
X375668Y290698D01*
X375648Y290791D01*
X375645Y290796D01*
X375644Y290801D01*
X375541Y290949D01*
X374915Y291575D01*
X374915Y294605D01*
X376175Y295865D01*
X383706Y295865D01*
X384965Y294605D01*
X384965Y291575D01*
X384339Y290949D01*
X384336Y290944D01*
X384332Y290941D01*
X384281Y290861D01*
X384228Y290782D01*
X384227Y290777D01*
X384224Y290772D01*
X384208Y290678D01*
X384190Y290585D01*
X384191Y290580D01*
X384191Y290575D01*
X384212Y290482D01*
X384232Y290389D01*
X384235Y290384D01*
X384236Y290379D01*
X384339Y290231D01*
X384965Y289605D01*
X384965Y286392D01*
X384966Y286387D01*
X384965Y286382D01*
X384986Y286289D01*
X385004Y286195D01*
X385007Y286191D01*
X385008Y286186D01*
X385064Y286108D01*
X385117Y286030D01*
X385121Y286027D01*
X385124Y286023D01*
X385206Y285972D01*
X385285Y285920D01*
X385290Y285920D01*
X385295Y285917D01*
X385472Y285885D01*
X390691Y285885D01*
X390699Y285886D01*
X390706Y285885D01*
X390796Y285906D01*
X390887Y285924D01*
X390894Y285929D01*
X390902Y285931D01*
X391050Y286033D01*
X397727Y292710D01*
X397731Y292717D01*
X397738Y292722D01*
X397786Y292800D01*
X397838Y292877D01*
X397839Y292885D01*
X397843Y292892D01*
X397875Y293069D01*
X397875Y295302D01*
X398768Y296195D01*
X414032Y296195D01*
X414925Y295302D01*
X414925Y290038D01*
X414032Y289145D01*
X402276Y289145D01*
X402269Y289144D01*
X402261Y289145D01*
X402171Y289124D01*
X402080Y289106D01*
X402073Y289101D01*
X402066Y289099D01*
X401918Y288997D01*
X395002Y282081D01*
X393950Y281029D01*
X393947Y281024D01*
X393942Y281021D01*
X393892Y280941D01*
X393839Y280862D01*
X393838Y280857D01*
X393835Y280852D01*
X393819Y280758D01*
X393801Y280665D01*
X393802Y280660D01*
X393801Y280655D01*
X393823Y280562D01*
X393843Y280469D01*
X393846Y280464D01*
X393847Y280459D01*
X393950Y280311D01*
X401918Y272343D01*
X401924Y272339D01*
X401929Y272333D01*
X402007Y272284D01*
X402085Y272232D01*
X402092Y272231D01*
X402099Y272227D01*
X402276Y272195D01*
X414032Y272195D01*
X414925Y271302D01*
X414925Y266432D01*
X414925Y266429D01*
X414925Y266426D01*
X414945Y266332D01*
X414964Y266235D01*
X414966Y266233D01*
X414966Y266230D01*
X415022Y266150D01*
X415077Y266069D01*
X415079Y266068D01*
X415081Y266066D01*
X415164Y266012D01*
X415245Y265960D01*
X415248Y265960D01*
X415250Y265958D01*
X415346Y265942D01*
X415442Y265924D01*
X415445Y265925D01*
X415447Y265925D01*
X415541Y265947D01*
X415638Y265968D01*
X415640Y265970D01*
X415643Y265970D01*
X415791Y266073D01*
X433175Y283457D01*
X433179Y283464D01*
X433185Y283468D01*
X433234Y283547D01*
X433286Y283624D01*
X433287Y283632D01*
X433291Y283638D01*
X433323Y283816D01*
X433323Y300116D01*
X444987Y311779D01*
X444991Y311786D01*
X444998Y311790D01*
X445046Y311869D01*
X445098Y311946D01*
X445099Y311954D01*
X445103Y311960D01*
X445135Y312138D01*
X445135Y320397D01*
X447493Y322755D01*
X461827Y322755D01*
X464185Y320397D01*
X464185Y318414D01*
X464186Y318407D01*
X464185Y318399D01*
X464206Y318309D01*
X464224Y318218D01*
X464229Y318211D01*
X464231Y318204D01*
X464333Y318056D01*
X464939Y317450D01*
X464940Y317449D01*
X466576Y315813D01*
X466582Y315809D01*
X466587Y315803D01*
X466665Y315754D01*
X466743Y315702D01*
X466750Y315701D01*
X466757Y315697D01*
X466934Y315665D01*
X469558Y315665D01*
X472667Y312556D01*
X472667Y308160D01*
X469558Y305051D01*
X465162Y305051D01*
X462053Y308160D01*
X462053Y309198D01*
X462052Y309203D01*
X462053Y309208D01*
X462032Y309301D01*
X462014Y309395D01*
X462011Y309399D01*
X462010Y309404D01*
X461954Y309482D01*
X461901Y309560D01*
X461897Y309563D01*
X461894Y309568D01*
X461812Y309618D01*
X461733Y309670D01*
X461728Y309671D01*
X461723Y309673D01*
X461546Y309705D01*
X451028Y309705D01*
X451020Y309704D01*
X451012Y309705D01*
X450922Y309684D01*
X450831Y309666D01*
X450825Y309661D01*
X450817Y309659D01*
X450669Y309557D01*
X439061Y297949D01*
X439057Y297942D01*
X439051Y297938D01*
X439002Y297859D01*
X438950Y297782D01*
X438949Y297774D01*
X438945Y297768D01*
X438913Y297590D01*
X438913Y281290D01*
X416448Y258825D01*
X397872Y258825D01*
G37*
%LPD*%
G36*
X478651Y394277D02*
X478651Y394277D01*
X478694Y394276D01*
X482687Y394877D01*
X482717Y394888D01*
X482760Y394893D01*
X486619Y396082D01*
X486647Y396097D01*
X486688Y396109D01*
X490326Y397860D01*
X490348Y397877D01*
X490374Y397886D01*
X490427Y397936D01*
X490485Y397980D01*
X490498Y398004D01*
X490518Y398023D01*
X490548Y398089D01*
X490584Y398153D01*
X490587Y398180D01*
X490598Y398205D01*
X490599Y398278D01*
X490608Y398350D01*
X490600Y398376D01*
X490600Y398404D01*
X490564Y398502D01*
X490552Y398541D01*
X490546Y398549D01*
X490542Y398560D01*
X463542Y445360D01*
X463524Y445380D01*
X463513Y445405D01*
X463459Y445454D01*
X463411Y445509D01*
X463386Y445520D01*
X463366Y445539D01*
X463297Y445563D01*
X463231Y445594D01*
X463204Y445596D01*
X463179Y445605D01*
X463106Y445600D01*
X463033Y445603D01*
X463007Y445594D01*
X462980Y445592D01*
X462884Y445548D01*
X462846Y445534D01*
X462839Y445527D01*
X462829Y445523D01*
X459492Y443249D01*
X459470Y443226D01*
X459434Y443203D01*
X456473Y440457D01*
X456454Y440431D01*
X456422Y440403D01*
X453904Y437247D01*
X453889Y437218D01*
X453862Y437185D01*
X451842Y433689D01*
X451832Y433659D01*
X451809Y433622D01*
X450333Y429864D01*
X450328Y429832D01*
X450311Y429792D01*
X449411Y425856D01*
X449411Y425824D01*
X449400Y425782D01*
X449097Y421756D01*
X449100Y421733D01*
X449097Y421713D01*
X449099Y421703D01*
X449097Y421682D01*
X449398Y417655D01*
X449406Y417624D01*
X449409Y417581D01*
X450306Y413645D01*
X450319Y413616D01*
X450328Y413573D01*
X451802Y409814D01*
X451819Y409787D01*
X451834Y409747D01*
X453852Y406250D01*
X453873Y406226D01*
X453894Y406188D01*
X456410Y403030D01*
X456435Y403010D01*
X456461Y402976D01*
X459420Y400228D01*
X459447Y400212D01*
X459478Y400182D01*
X462814Y397906D01*
X462843Y397894D01*
X462878Y397869D01*
X466516Y396116D01*
X466546Y396108D01*
X466585Y396089D01*
X470443Y394897D01*
X470475Y394894D01*
X470516Y394881D01*
X474508Y394278D01*
X474540Y394279D01*
X474582Y394272D01*
X478620Y394271D01*
X478651Y394277D01*
G37*
G36*
X218838Y394272D02*
X218838Y394272D01*
X218869Y394278D01*
X218912Y394278D01*
X222904Y394881D01*
X222934Y394892D01*
X222977Y394897D01*
X226835Y396089D01*
X226863Y396104D01*
X226905Y396116D01*
X230542Y397869D01*
X230567Y397888D01*
X230606Y397906D01*
X233942Y400182D01*
X233964Y400205D01*
X234000Y400228D01*
X236959Y402976D01*
X236978Y403001D01*
X237010Y403030D01*
X239526Y406188D01*
X239541Y406216D01*
X239568Y406250D01*
X241586Y409747D01*
X241596Y409777D01*
X241618Y409814D01*
X243092Y413573D01*
X243098Y413605D01*
X243114Y413645D01*
X244011Y417581D01*
X244012Y417613D01*
X244022Y417655D01*
X244323Y421682D01*
X244319Y421713D01*
X244320Y421729D01*
X244323Y421746D01*
X244322Y421750D01*
X244323Y421756D01*
X244020Y425782D01*
X244011Y425813D01*
X244009Y425856D01*
X243109Y429792D01*
X243096Y429821D01*
X243087Y429864D01*
X241611Y433622D01*
X241593Y433649D01*
X241578Y433689D01*
X239558Y437185D01*
X239537Y437209D01*
X239516Y437247D01*
X236998Y440403D01*
X236973Y440423D01*
X236947Y440457D01*
X233986Y443203D01*
X233959Y443219D01*
X233928Y443249D01*
X230591Y445523D01*
X230566Y445533D01*
X230545Y445550D01*
X230475Y445571D01*
X230408Y445600D01*
X230380Y445600D01*
X230354Y445607D01*
X230282Y445599D01*
X230209Y445599D01*
X230184Y445588D01*
X230157Y445585D01*
X230093Y445549D01*
X230026Y445521D01*
X230007Y445501D01*
X229984Y445488D01*
X229917Y445407D01*
X229888Y445377D01*
X229885Y445368D01*
X229878Y445360D01*
X202878Y398560D01*
X202869Y398534D01*
X202853Y398511D01*
X202838Y398440D01*
X202814Y398371D01*
X202817Y398344D01*
X202811Y398317D01*
X202824Y398246D01*
X202830Y398173D01*
X202843Y398148D01*
X202848Y398122D01*
X202888Y398061D01*
X202922Y397996D01*
X202943Y397979D01*
X202958Y397956D01*
X203044Y397895D01*
X203075Y397870D01*
X203084Y397867D01*
X203094Y397860D01*
X206732Y396109D01*
X206763Y396102D01*
X206801Y396082D01*
X210660Y394893D01*
X210692Y394890D01*
X210733Y394877D01*
X214726Y394276D01*
X214757Y394278D01*
X214800Y394271D01*
X218838Y394272D01*
G37*
G36*
X463138Y247821D02*
X463138Y247821D01*
X463211Y247821D01*
X463236Y247832D01*
X463263Y247835D01*
X463327Y247871D01*
X463394Y247899D01*
X463413Y247919D01*
X463436Y247932D01*
X463504Y248013D01*
X463532Y248043D01*
X463535Y248052D01*
X463542Y248061D01*
X490542Y294861D01*
X490551Y294886D01*
X490567Y294909D01*
X490582Y294980D01*
X490606Y295049D01*
X490603Y295076D01*
X490609Y295103D01*
X490596Y295174D01*
X490590Y295247D01*
X490577Y295272D01*
X490572Y295298D01*
X490532Y295359D01*
X490498Y295424D01*
X490477Y295441D01*
X490462Y295464D01*
X490376Y295525D01*
X490345Y295550D01*
X490336Y295553D01*
X490326Y295560D01*
X486688Y297311D01*
X486657Y297318D01*
X486619Y297338D01*
X482760Y298527D01*
X482728Y298530D01*
X482687Y298543D01*
X478694Y299144D01*
X478663Y299142D01*
X478620Y299149D01*
X474582Y299148D01*
X474551Y299142D01*
X474508Y299142D01*
X470516Y298539D01*
X470486Y298528D01*
X470443Y298523D01*
X466585Y297331D01*
X466557Y297316D01*
X466516Y297304D01*
X462878Y295551D01*
X462853Y295532D01*
X462814Y295514D01*
X459478Y293238D01*
X459456Y293215D01*
X459420Y293192D01*
X456461Y290444D01*
X456442Y290419D01*
X456410Y290390D01*
X453894Y287232D01*
X453879Y287204D01*
X453852Y287170D01*
X451834Y283673D01*
X451824Y283643D01*
X451802Y283606D01*
X450328Y279847D01*
X450322Y279815D01*
X450306Y279775D01*
X449409Y275839D01*
X449408Y275807D01*
X449398Y275765D01*
X449097Y271739D01*
X449101Y271707D01*
X449097Y271664D01*
X449400Y267638D01*
X449409Y267607D01*
X449411Y267564D01*
X450311Y263628D01*
X450324Y263599D01*
X450333Y263556D01*
X451809Y259798D01*
X451827Y259771D01*
X451842Y259731D01*
X453862Y256235D01*
X453883Y256211D01*
X453904Y256173D01*
X456422Y253017D01*
X456447Y252997D01*
X456473Y252963D01*
X459434Y250217D01*
X459461Y250201D01*
X459492Y250171D01*
X462829Y247897D01*
X462854Y247887D01*
X462875Y247870D01*
X462945Y247849D01*
X463012Y247820D01*
X463040Y247821D01*
X463066Y247813D01*
X463138Y247821D01*
G37*
G36*
X230314Y247820D02*
X230314Y247820D01*
X230387Y247817D01*
X230413Y247826D01*
X230440Y247828D01*
X230536Y247872D01*
X230574Y247886D01*
X230581Y247893D01*
X230591Y247897D01*
X233928Y250171D01*
X233950Y250194D01*
X233986Y250217D01*
X236947Y252963D01*
X236966Y252989D01*
X236998Y253017D01*
X239516Y256173D01*
X239531Y256202D01*
X239558Y256235D01*
X241578Y259731D01*
X241588Y259761D01*
X241611Y259798D01*
X243087Y263556D01*
X243092Y263588D01*
X243109Y263628D01*
X244009Y267564D01*
X244009Y267596D01*
X244020Y267638D01*
X244323Y271664D01*
X244319Y271695D01*
X244323Y271739D01*
X244022Y275765D01*
X244014Y275796D01*
X244011Y275839D01*
X243114Y279775D01*
X243101Y279804D01*
X243092Y279847D01*
X241618Y283606D01*
X241601Y283633D01*
X241586Y283673D01*
X239568Y287170D01*
X239547Y287194D01*
X239526Y287232D01*
X237010Y290390D01*
X236985Y290410D01*
X236959Y290444D01*
X234000Y293192D01*
X233973Y293208D01*
X233942Y293238D01*
X230606Y295514D01*
X230577Y295526D01*
X230542Y295551D01*
X226905Y297304D01*
X226874Y297312D01*
X226835Y297331D01*
X222977Y298523D01*
X222945Y298526D01*
X222904Y298539D01*
X218912Y299142D01*
X218880Y299141D01*
X218838Y299148D01*
X214800Y299149D01*
X214769Y299143D01*
X214726Y299144D01*
X210733Y298543D01*
X210703Y298532D01*
X210660Y298527D01*
X206801Y297338D01*
X206773Y297323D01*
X206732Y297311D01*
X203094Y295560D01*
X203072Y295543D01*
X203046Y295534D01*
X202993Y295484D01*
X202935Y295440D01*
X202922Y295416D01*
X202902Y295397D01*
X202872Y295331D01*
X202836Y295267D01*
X202833Y295240D01*
X202822Y295215D01*
X202821Y295142D01*
X202812Y295070D01*
X202820Y295044D01*
X202820Y295016D01*
X202856Y294918D01*
X202868Y294879D01*
X202874Y294871D01*
X202878Y294861D01*
X229878Y248061D01*
X229896Y248040D01*
X229907Y248015D01*
X229961Y247966D01*
X230009Y247912D01*
X230034Y247900D01*
X230054Y247881D01*
X230123Y247857D01*
X230189Y247826D01*
X230216Y247825D01*
X230241Y247815D01*
X230314Y247820D01*
G37*
G36*
X373737Y196216D02*
X373737Y196216D01*
X373764Y196214D01*
X373833Y196236D01*
X373905Y196250D01*
X373927Y196266D01*
X373953Y196274D01*
X374009Y196322D01*
X374069Y196363D01*
X374083Y196386D01*
X374104Y196404D01*
X374137Y196469D01*
X374176Y196530D01*
X374180Y196557D01*
X374192Y196582D01*
X374202Y196686D01*
X374209Y196727D01*
X374207Y196736D01*
X374208Y196747D01*
X373906Y200771D01*
X373898Y200802D01*
X373895Y200845D01*
X372997Y204779D01*
X372984Y204808D01*
X372975Y204851D01*
X371501Y208607D01*
X371484Y208634D01*
X371469Y208675D01*
X369451Y212169D01*
X369430Y212193D01*
X369409Y212231D01*
X366893Y215386D01*
X366868Y215406D01*
X366842Y215441D01*
X363884Y218185D01*
X363857Y218202D01*
X363825Y218232D01*
X360491Y220505D01*
X360462Y220518D01*
X360427Y220543D01*
X356791Y222293D01*
X356760Y222301D01*
X356721Y222321D01*
X352865Y223510D01*
X352834Y223513D01*
X352792Y223527D01*
X348802Y224128D01*
X348770Y224127D01*
X348728Y224134D01*
X344692Y224134D01*
X344661Y224127D01*
X344618Y224128D01*
X340628Y223527D01*
X340598Y223516D01*
X340555Y223510D01*
X336699Y222321D01*
X336671Y222305D01*
X336629Y222293D01*
X332993Y220543D01*
X332968Y220523D01*
X332929Y220505D01*
X329595Y218232D01*
X329572Y218209D01*
X329536Y218185D01*
X326578Y215441D01*
X326560Y215415D01*
X326527Y215386D01*
X324011Y212231D01*
X323997Y212203D01*
X323969Y212169D01*
X321951Y208675D01*
X321941Y208644D01*
X321919Y208607D01*
X320445Y204851D01*
X320439Y204819D01*
X320423Y204779D01*
X319525Y200845D01*
X319524Y200813D01*
X319514Y200771D01*
X319212Y196747D01*
X319216Y196720D01*
X319211Y196693D01*
X319228Y196623D01*
X319237Y196550D01*
X319251Y196526D01*
X319257Y196500D01*
X319300Y196441D01*
X319337Y196378D01*
X319359Y196362D01*
X319375Y196340D01*
X319438Y196303D01*
X319496Y196259D01*
X319523Y196252D01*
X319546Y196238D01*
X319650Y196221D01*
X319689Y196211D01*
X319699Y196213D01*
X319710Y196211D01*
X373710Y196211D01*
X373737Y196216D01*
G37*
G36*
X433386Y196226D02*
X433386Y196226D01*
X433464Y196235D01*
X433483Y196246D01*
X433505Y196250D01*
X433569Y196294D01*
X433637Y196333D01*
X433653Y196352D01*
X433669Y196363D01*
X433693Y196401D01*
X433743Y196461D01*
X443243Y212961D01*
X443252Y212988D01*
X443268Y213012D01*
X443283Y213082D01*
X443306Y213150D01*
X443303Y213178D01*
X443309Y213206D01*
X443296Y213277D01*
X443290Y213348D01*
X443277Y213373D01*
X443271Y213401D01*
X443231Y213461D01*
X443198Y213524D01*
X443176Y213542D01*
X443160Y213566D01*
X443077Y213624D01*
X443045Y213651D01*
X443034Y213654D01*
X443024Y213661D01*
X441705Y214285D01*
X460596Y247005D01*
X460623Y247087D01*
X460655Y247168D01*
X460655Y247182D01*
X460660Y247195D01*
X460653Y247282D01*
X460652Y247368D01*
X460646Y247381D01*
X460645Y247395D01*
X460606Y247472D01*
X460570Y247552D01*
X460560Y247562D01*
X460554Y247574D01*
X460511Y247610D01*
X460442Y247678D01*
X459322Y248441D01*
X459257Y248468D01*
X459195Y248503D01*
X459163Y248508D01*
X459137Y248519D01*
X459085Y248519D01*
X459017Y248529D01*
X459011Y248529D01*
X458536Y248970D01*
X458506Y248988D01*
X458476Y249017D01*
X458396Y249072D01*
X458342Y249095D01*
X458292Y249126D01*
X458250Y249133D01*
X458211Y249150D01*
X458152Y249150D01*
X458095Y249160D01*
X458053Y249150D01*
X458010Y249150D01*
X457956Y249128D01*
X457899Y249114D01*
X457861Y249088D01*
X457826Y249073D01*
X457795Y249042D01*
X457751Y249011D01*
X410980Y202240D01*
X387850Y202240D01*
X386065Y204025D01*
X385903Y204187D01*
X385900Y204189D01*
X385899Y204191D01*
X385818Y204244D01*
X385736Y204298D01*
X385733Y204299D01*
X385731Y204300D01*
X385634Y204318D01*
X385539Y204336D01*
X385536Y204336D01*
X385534Y204336D01*
X385436Y204314D01*
X385343Y204294D01*
X385341Y204293D01*
X385338Y204292D01*
X385257Y204235D01*
X385178Y204180D01*
X385177Y204178D01*
X385175Y204176D01*
X385123Y204094D01*
X385071Y204011D01*
X385070Y204008D01*
X385069Y204006D01*
X385037Y203829D01*
X385037Y201002D01*
X383127Y199093D01*
X383126Y199090D01*
X383124Y199089D01*
X383071Y199008D01*
X383017Y198926D01*
X383016Y198923D01*
X383015Y198921D01*
X382997Y198825D01*
X382979Y198729D01*
X382979Y198726D01*
X382979Y198724D01*
X383000Y198627D01*
X383021Y198533D01*
X383022Y198531D01*
X383023Y198528D01*
X383079Y198448D01*
X383135Y198368D01*
X383137Y198367D01*
X383139Y198365D01*
X383221Y198313D01*
X383304Y198261D01*
X383307Y198260D01*
X383309Y198259D01*
X383486Y198227D01*
X413930Y198227D01*
X413812Y196750D01*
X413816Y196721D01*
X413811Y196693D01*
X413828Y196624D01*
X413836Y196552D01*
X413851Y196528D01*
X413857Y196500D01*
X413900Y196442D01*
X413936Y196380D01*
X413958Y196363D01*
X413975Y196340D01*
X414037Y196303D01*
X414094Y196260D01*
X414122Y196253D01*
X414146Y196238D01*
X414246Y196222D01*
X414287Y196211D01*
X414297Y196213D01*
X414310Y196211D01*
X433310Y196211D01*
X433386Y196226D01*
G37*
D10*
X390550Y228600D03*
X409550Y228600D03*
D11*
X377065Y302465D02*
X377065Y303715D01*
X382815Y303715D01*
X382815Y302465D01*
X377065Y302465D01*
X377065Y303652D02*
X382815Y303652D01*
X377065Y298715D02*
X377065Y297465D01*
X377065Y298715D02*
X382815Y298715D01*
X382815Y297465D01*
X377065Y297465D01*
X377065Y298652D02*
X382815Y298652D01*
X377065Y293715D02*
X377065Y292465D01*
X377065Y293715D02*
X382815Y293715D01*
X382815Y292465D01*
X377065Y292465D01*
X377065Y293652D02*
X382815Y293652D01*
X377065Y288715D02*
X377065Y287465D01*
X377065Y288715D02*
X382815Y288715D01*
X382815Y287465D01*
X377065Y287465D01*
X377065Y288652D02*
X382815Y288652D01*
X377065Y283715D02*
X377065Y282465D01*
X377065Y283715D02*
X382815Y283715D01*
X382815Y282465D01*
X377065Y282465D01*
X377065Y283652D02*
X382815Y283652D01*
X377065Y278715D02*
X377065Y277465D01*
X377065Y278715D02*
X382815Y278715D01*
X382815Y277465D01*
X377065Y277465D01*
X377065Y278652D02*
X382815Y278652D01*
X377065Y273715D02*
X377065Y272465D01*
X377065Y273715D02*
X382815Y273715D01*
X382815Y272465D01*
X377065Y272465D01*
X377065Y273652D02*
X382815Y273652D01*
X377065Y268715D02*
X377065Y267465D01*
X377065Y268715D02*
X382815Y268715D01*
X382815Y267465D01*
X377065Y267465D01*
X377065Y268652D02*
X382815Y268652D01*
X377065Y263715D02*
X377065Y262465D01*
X377065Y263715D02*
X382815Y263715D01*
X382815Y262465D01*
X377065Y262465D01*
X377065Y263652D02*
X382815Y263652D01*
X377065Y258715D02*
X377065Y257465D01*
X377065Y258715D02*
X382815Y258715D01*
X382815Y257465D01*
X377065Y257465D01*
X377065Y258652D02*
X382815Y258652D01*
X377065Y253715D02*
X377065Y252465D01*
X377065Y253715D02*
X382815Y253715D01*
X382815Y252465D01*
X377065Y252465D01*
X377065Y253652D02*
X382815Y253652D01*
X377065Y248715D02*
X377065Y247465D01*
X377065Y248715D02*
X382815Y248715D01*
X382815Y247465D01*
X377065Y247465D01*
X377065Y248652D02*
X382815Y248652D01*
X373565Y243965D02*
X372315Y243965D01*
X373565Y243965D02*
X373565Y238215D01*
X372315Y238215D01*
X372315Y243965D01*
X372315Y239402D02*
X373565Y239402D01*
X373565Y240589D02*
X372315Y240589D01*
X372315Y241776D02*
X373565Y241776D01*
X373565Y242963D02*
X372315Y242963D01*
X368565Y243965D02*
X367315Y243965D01*
X368565Y243965D02*
X368565Y238215D01*
X367315Y238215D01*
X367315Y243965D01*
X367315Y239402D02*
X368565Y239402D01*
X368565Y240589D02*
X367315Y240589D01*
X367315Y241776D02*
X368565Y241776D01*
X368565Y242963D02*
X367315Y242963D01*
X363565Y243965D02*
X362315Y243965D01*
X363565Y243965D02*
X363565Y238215D01*
X362315Y238215D01*
X362315Y243965D01*
X362315Y239402D02*
X363565Y239402D01*
X363565Y240589D02*
X362315Y240589D01*
X362315Y241776D02*
X363565Y241776D01*
X363565Y242963D02*
X362315Y242963D01*
X358565Y243965D02*
X357315Y243965D01*
X358565Y243965D02*
X358565Y238215D01*
X357315Y238215D01*
X357315Y243965D01*
X357315Y239402D02*
X358565Y239402D01*
X358565Y240589D02*
X357315Y240589D01*
X357315Y241776D02*
X358565Y241776D01*
X358565Y242963D02*
X357315Y242963D01*
X353565Y243965D02*
X352315Y243965D01*
X353565Y243965D02*
X353565Y238215D01*
X352315Y238215D01*
X352315Y243965D01*
X352315Y239402D02*
X353565Y239402D01*
X353565Y240589D02*
X352315Y240589D01*
X352315Y241776D02*
X353565Y241776D01*
X353565Y242963D02*
X352315Y242963D01*
X348565Y243965D02*
X347315Y243965D01*
X348565Y243965D02*
X348565Y238215D01*
X347315Y238215D01*
X347315Y243965D01*
X347315Y239402D02*
X348565Y239402D01*
X348565Y240589D02*
X347315Y240589D01*
X347315Y241776D02*
X348565Y241776D01*
X348565Y242963D02*
X347315Y242963D01*
X343565Y243965D02*
X342315Y243965D01*
X343565Y243965D02*
X343565Y238215D01*
X342315Y238215D01*
X342315Y243965D01*
X342315Y239402D02*
X343565Y239402D01*
X343565Y240589D02*
X342315Y240589D01*
X342315Y241776D02*
X343565Y241776D01*
X343565Y242963D02*
X342315Y242963D01*
X338565Y243965D02*
X337315Y243965D01*
X338565Y243965D02*
X338565Y238215D01*
X337315Y238215D01*
X337315Y243965D01*
X337315Y239402D02*
X338565Y239402D01*
X338565Y240589D02*
X337315Y240589D01*
X337315Y241776D02*
X338565Y241776D01*
X338565Y242963D02*
X337315Y242963D01*
X333565Y243965D02*
X332315Y243965D01*
X333565Y243965D02*
X333565Y238215D01*
X332315Y238215D01*
X332315Y243965D01*
X332315Y239402D02*
X333565Y239402D01*
X333565Y240589D02*
X332315Y240589D01*
X332315Y241776D02*
X333565Y241776D01*
X333565Y242963D02*
X332315Y242963D01*
X328565Y243965D02*
X327315Y243965D01*
X328565Y243965D02*
X328565Y238215D01*
X327315Y238215D01*
X327315Y243965D01*
X327315Y239402D02*
X328565Y239402D01*
X328565Y240589D02*
X327315Y240589D01*
X327315Y241776D02*
X328565Y241776D01*
X328565Y242963D02*
X327315Y242963D01*
X323565Y243965D02*
X322315Y243965D01*
X323565Y243965D02*
X323565Y238215D01*
X322315Y238215D01*
X322315Y243965D01*
X322315Y239402D02*
X323565Y239402D01*
X323565Y240589D02*
X322315Y240589D01*
X322315Y241776D02*
X323565Y241776D01*
X323565Y242963D02*
X322315Y242963D01*
X318565Y243965D02*
X317315Y243965D01*
X318565Y243965D02*
X318565Y238215D01*
X317315Y238215D01*
X317315Y243965D01*
X317315Y239402D02*
X318565Y239402D01*
X318565Y240589D02*
X317315Y240589D01*
X317315Y241776D02*
X318565Y241776D01*
X318565Y242963D02*
X317315Y242963D01*
X313815Y247465D02*
X313815Y248715D01*
X313815Y247465D02*
X308065Y247465D01*
X308065Y248715D01*
X313815Y248715D01*
X313815Y248652D02*
X308065Y248652D01*
X313815Y252465D02*
X313815Y253715D01*
X313815Y252465D02*
X308065Y252465D01*
X308065Y253715D01*
X313815Y253715D01*
X313815Y253652D02*
X308065Y253652D01*
X313815Y257465D02*
X313815Y258715D01*
X313815Y257465D02*
X308065Y257465D01*
X308065Y258715D01*
X313815Y258715D01*
X313815Y258652D02*
X308065Y258652D01*
X313815Y262465D02*
X313815Y263715D01*
X313815Y262465D02*
X308065Y262465D01*
X308065Y263715D01*
X313815Y263715D01*
X313815Y263652D02*
X308065Y263652D01*
X313815Y267465D02*
X313815Y268715D01*
X313815Y267465D02*
X308065Y267465D01*
X308065Y268715D01*
X313815Y268715D01*
X313815Y268652D02*
X308065Y268652D01*
X313815Y272465D02*
X313815Y273715D01*
X313815Y272465D02*
X308065Y272465D01*
X308065Y273715D01*
X313815Y273715D01*
X313815Y273652D02*
X308065Y273652D01*
X313815Y277465D02*
X313815Y278715D01*
X313815Y277465D02*
X308065Y277465D01*
X308065Y278715D01*
X313815Y278715D01*
X313815Y278652D02*
X308065Y278652D01*
X313815Y282465D02*
X313815Y283715D01*
X313815Y282465D02*
X308065Y282465D01*
X308065Y283715D01*
X313815Y283715D01*
X313815Y283652D02*
X308065Y283652D01*
X313815Y287465D02*
X313815Y288715D01*
X313815Y287465D02*
X308065Y287465D01*
X308065Y288715D01*
X313815Y288715D01*
X313815Y288652D02*
X308065Y288652D01*
X313815Y292465D02*
X313815Y293715D01*
X313815Y292465D02*
X308065Y292465D01*
X308065Y293715D01*
X313815Y293715D01*
X313815Y293652D02*
X308065Y293652D01*
X313815Y297465D02*
X313815Y298715D01*
X313815Y297465D02*
X308065Y297465D01*
X308065Y298715D01*
X313815Y298715D01*
X313815Y298652D02*
X308065Y298652D01*
X313815Y302465D02*
X313815Y303715D01*
X313815Y302465D02*
X308065Y302465D01*
X308065Y303715D01*
X313815Y303715D01*
X313815Y303652D02*
X308065Y303652D01*
X317315Y307215D02*
X318565Y307215D01*
X317315Y307215D02*
X317315Y312965D01*
X318565Y312965D01*
X318565Y307215D01*
X318565Y308402D02*
X317315Y308402D01*
X317315Y309589D02*
X318565Y309589D01*
X318565Y310776D02*
X317315Y310776D01*
X317315Y311963D02*
X318565Y311963D01*
X322315Y307215D02*
X323565Y307215D01*
X322315Y307215D02*
X322315Y312965D01*
X323565Y312965D01*
X323565Y307215D01*
X323565Y308402D02*
X322315Y308402D01*
X322315Y309589D02*
X323565Y309589D01*
X323565Y310776D02*
X322315Y310776D01*
X322315Y311963D02*
X323565Y311963D01*
X327315Y307215D02*
X328565Y307215D01*
X327315Y307215D02*
X327315Y312965D01*
X328565Y312965D01*
X328565Y307215D01*
X328565Y308402D02*
X327315Y308402D01*
X327315Y309589D02*
X328565Y309589D01*
X328565Y310776D02*
X327315Y310776D01*
X327315Y311963D02*
X328565Y311963D01*
X332315Y307215D02*
X333565Y307215D01*
X332315Y307215D02*
X332315Y312965D01*
X333565Y312965D01*
X333565Y307215D01*
X333565Y308402D02*
X332315Y308402D01*
X332315Y309589D02*
X333565Y309589D01*
X333565Y310776D02*
X332315Y310776D01*
X332315Y311963D02*
X333565Y311963D01*
X337315Y307215D02*
X338565Y307215D01*
X337315Y307215D02*
X337315Y312965D01*
X338565Y312965D01*
X338565Y307215D01*
X338565Y308402D02*
X337315Y308402D01*
X337315Y309589D02*
X338565Y309589D01*
X338565Y310776D02*
X337315Y310776D01*
X337315Y311963D02*
X338565Y311963D01*
X342315Y307215D02*
X343565Y307215D01*
X342315Y307215D02*
X342315Y312965D01*
X343565Y312965D01*
X343565Y307215D01*
X343565Y308402D02*
X342315Y308402D01*
X342315Y309589D02*
X343565Y309589D01*
X343565Y310776D02*
X342315Y310776D01*
X342315Y311963D02*
X343565Y311963D01*
X347315Y307215D02*
X348565Y307215D01*
X347315Y307215D02*
X347315Y312965D01*
X348565Y312965D01*
X348565Y307215D01*
X348565Y308402D02*
X347315Y308402D01*
X347315Y309589D02*
X348565Y309589D01*
X348565Y310776D02*
X347315Y310776D01*
X347315Y311963D02*
X348565Y311963D01*
X352315Y307215D02*
X353565Y307215D01*
X352315Y307215D02*
X352315Y312965D01*
X353565Y312965D01*
X353565Y307215D01*
X353565Y308402D02*
X352315Y308402D01*
X352315Y309589D02*
X353565Y309589D01*
X353565Y310776D02*
X352315Y310776D01*
X352315Y311963D02*
X353565Y311963D01*
X357315Y307215D02*
X358565Y307215D01*
X357315Y307215D02*
X357315Y312965D01*
X358565Y312965D01*
X358565Y307215D01*
X358565Y308402D02*
X357315Y308402D01*
X357315Y309589D02*
X358565Y309589D01*
X358565Y310776D02*
X357315Y310776D01*
X357315Y311963D02*
X358565Y311963D01*
X362315Y307215D02*
X363565Y307215D01*
X362315Y307215D02*
X362315Y312965D01*
X363565Y312965D01*
X363565Y307215D01*
X363565Y308402D02*
X362315Y308402D01*
X362315Y309589D02*
X363565Y309589D01*
X363565Y310776D02*
X362315Y310776D01*
X362315Y311963D02*
X363565Y311963D01*
X367315Y307215D02*
X368565Y307215D01*
X367315Y307215D02*
X367315Y312965D01*
X368565Y312965D01*
X368565Y307215D01*
X368565Y308402D02*
X367315Y308402D01*
X367315Y309589D02*
X368565Y309589D01*
X368565Y310776D02*
X367315Y310776D01*
X367315Y311963D02*
X368565Y311963D01*
X372315Y307215D02*
X373565Y307215D01*
X372315Y307215D02*
X372315Y312965D01*
X373565Y312965D01*
X373565Y307215D01*
X373565Y308402D02*
X372315Y308402D01*
X372315Y309589D02*
X373565Y309589D01*
X373565Y310776D02*
X372315Y310776D01*
X372315Y311963D02*
X373565Y311963D01*
D12*
X345440Y275590D03*
D13*
X406400Y292670D03*
X406400Y280670D03*
X406400Y268670D03*
D14*
X276860Y325730D03*
X276860Y306730D03*
X278130Y244500D03*
X278130Y263500D03*
D15*
X402980Y248920D03*
X419980Y248920D03*
D16*
X297180Y319650D03*
X297180Y302650D03*
X298450Y245500D03*
X298450Y262500D03*
X406400Y323460D03*
X406400Y306460D03*
D15*
X388230Y323850D03*
X371230Y323850D03*
D16*
X346320Y400050D03*
X329320Y400050D03*
D17*
X231560Y350480D02*
X220560Y350480D01*
X231560Y350480D02*
X231560Y345480D01*
X220560Y345480D01*
X220560Y350480D01*
X220560Y350230D02*
X231560Y350230D01*
X231560Y320080D02*
X220560Y320080D01*
X220560Y325080D01*
X231560Y325080D01*
X231560Y320080D01*
X231560Y324830D02*
X220560Y324830D01*
X448525Y373975D02*
X459525Y373975D01*
X459525Y368975D01*
X448525Y368975D01*
X448525Y373975D01*
X448525Y373725D02*
X459525Y373725D01*
X460160Y313730D02*
X449160Y313730D01*
X449160Y318730D01*
X460160Y318730D01*
X460160Y313730D01*
X460160Y318480D02*
X449160Y318480D01*
D18*
X308180Y358140D03*
X286180Y367640D03*
X286180Y348640D03*
D14*
X248920Y348640D03*
X248920Y367640D03*
D19*
X392938Y364490D03*
X386334Y364490D03*
X379730Y364490D03*
X379730Y385318D03*
X386334Y385318D03*
X392938Y385318D03*
D15*
X346320Y420370D03*
X329320Y420370D03*
D16*
X363220Y362975D03*
X363220Y379975D03*
X433950Y392430D03*
X416950Y392430D03*
D15*
X433950Y372110D03*
X416950Y372110D03*
D20*
X511910Y346710D03*
X429310Y203610D03*
X264110Y203610D03*
X181510Y346710D03*
X470610Y418210D03*
X470610Y275210D03*
X346710Y203610D03*
X222810Y275210D03*
X222810Y418210D03*
D21*
X396748Y442214D02*
X396748Y462026D01*
X346710Y462026D02*
X346710Y442214D01*
X296672Y442214D02*
X296672Y462026D01*
D15*
X269240Y366640D03*
X269240Y349640D03*
D16*
X325510Y379730D03*
X342510Y379730D03*
D22*
X473710Y330200D03*
X234315Y370840D03*
X438150Y223520D03*
X421216Y231564D03*
D23*
X302860Y241090D02*
X298450Y245500D01*
X302860Y241090D02*
X317940Y241090D01*
D24*
X298450Y241690D02*
X289560Y241690D01*
X280940Y241690D01*
D23*
X278130Y244500D01*
X372940Y310090D02*
X379940Y303090D01*
X374470Y310090D02*
X372940Y310090D01*
X374470Y310090D02*
X388230Y323850D01*
X404345Y323367D02*
X384068Y303090D01*
X379940Y303090D01*
X404345Y323367D02*
X406400Y323460D01*
D24*
X298450Y245500D02*
X298450Y241690D01*
X289560Y241690D02*
X289560Y230096D01*
D22*
X289560Y230096D03*
D25*
X297180Y319650D02*
X291100Y325730D01*
X276860Y325730D01*
D23*
X310940Y305630D02*
X310940Y303090D01*
X310940Y305630D02*
X296920Y319650D01*
X297180Y319650D01*
D22*
X482600Y365760D03*
D25*
X276860Y325730D02*
X264164Y325730D01*
X258424Y331470D01*
D22*
X258424Y331470D03*
D25*
X482600Y353060D02*
X482600Y365760D01*
X410210Y327270D02*
X406400Y323460D01*
X410210Y327270D02*
X456810Y327270D01*
X482600Y353060D01*
D23*
X239363Y247650D02*
X238760Y247650D01*
X270053Y216960D02*
X317700Y216960D01*
X270053Y216960D02*
X239363Y247650D01*
X332940Y241090D02*
X332940Y232200D01*
X317700Y216960D01*
X240160Y246250D02*
X238760Y247650D01*
X240160Y246250D02*
X240265Y246355D01*
D22*
X240265Y246355D03*
D23*
X264120Y273090D02*
X310940Y273090D01*
X210820Y307340D02*
X196850Y321310D01*
X229870Y307340D02*
X264120Y273090D01*
X229870Y307340D02*
X210820Y307340D01*
X205309Y389678D02*
X205309Y390948D01*
X205309Y389678D02*
X196850Y381219D01*
D22*
X205309Y390948D03*
D23*
X196850Y381219D02*
X196850Y321310D01*
X327940Y241090D02*
X327940Y234740D01*
X315871Y222671D01*
X273899Y222671D01*
X239395Y257175D01*
X239395Y258625D01*
X222810Y275210D01*
X266740Y278090D02*
X310940Y278090D01*
X266740Y278090D02*
X232410Y312420D01*
X214630Y312420D01*
X201930Y325120D01*
X201930Y376630D02*
X221895Y396595D01*
X201930Y376630D02*
X201930Y325120D01*
D26*
X221895Y396595D02*
X221895Y417295D01*
X222810Y418210D01*
D22*
X241300Y313690D03*
D23*
X241300Y311639D01*
X269845Y283094D01*
X310936Y283094D02*
X310940Y283090D01*
X310936Y283094D02*
X269845Y283094D01*
D22*
X392430Y237900D03*
X398244Y351790D03*
D25*
X392430Y237900D02*
X392430Y230480D01*
X390550Y228600D01*
X392430Y237900D02*
X392430Y242570D01*
X398780Y248920D02*
X400050Y248920D01*
X402980Y248920D01*
X398780Y248920D02*
X392430Y242570D01*
D23*
X400050Y248920D02*
X385880Y263090D01*
X379940Y263090D01*
D25*
X367764Y351790D02*
X363220Y356334D01*
X363220Y362975D01*
X367764Y351790D02*
X398244Y351790D01*
X379730Y364490D02*
X378215Y362975D01*
X363220Y362975D01*
D23*
X357408Y344708D02*
X348260Y335560D01*
X462295Y390989D02*
X466105Y387179D01*
X466105Y364505D01*
D22*
X462295Y390989D03*
D23*
X466105Y364505D02*
X446308Y344708D01*
X357408Y344708D01*
X344170Y322988D02*
X334216Y322988D01*
X344170Y322988D02*
X348260Y327078D01*
X327940Y316713D02*
X327940Y310090D01*
X327940Y316713D02*
X334216Y322988D01*
X348260Y327078D02*
X348260Y335560D01*
X353260Y332940D02*
X359694Y339374D01*
X447959Y339374D01*
X470610Y362025D01*
X346864Y317654D02*
X335899Y317654D01*
X332940Y314695D02*
X332940Y310090D01*
X332940Y314695D02*
X335899Y317654D01*
X346864Y317654D02*
X353260Y324050D01*
X353260Y332940D01*
X470610Y362025D02*
X470610Y418210D01*
X401639Y292670D02*
X392059Y283090D01*
X401639Y292670D02*
X406400Y292670D01*
X392059Y283090D02*
X379940Y283090D01*
X392219Y278090D02*
X401639Y268670D01*
X406400Y268670D01*
X392219Y278090D02*
X379940Y278090D01*
X359290Y321520D02*
X359290Y328810D01*
X352940Y315170D02*
X352940Y310090D01*
X352940Y315170D02*
X359290Y321520D01*
X359290Y328810D02*
X364548Y334068D01*
X452120Y334068D02*
X453390Y335338D01*
X452120Y334068D02*
X364548Y334068D01*
D22*
X453390Y335338D03*
D25*
X448310Y377190D02*
X448310Y387350D01*
X448310Y377190D02*
X454025Y371475D01*
D22*
X448310Y387350D03*
X467360Y310358D03*
D23*
X399030Y261620D02*
X387560Y273090D01*
X379940Y273090D01*
X399030Y261620D02*
X415290Y261620D01*
D25*
X467360Y310358D02*
X461488Y316230D01*
X454660Y316230D01*
D23*
X436118Y282448D02*
X415290Y261620D01*
X436118Y282448D02*
X436118Y298958D01*
X453390Y316230D02*
X454660Y316230D01*
X453390Y316230D02*
X436118Y298958D01*
X408685Y209734D02*
X390513Y209734D01*
X379940Y220306D01*
X379940Y248090D01*
D22*
X451014Y293729D03*
D23*
X451014Y290994D01*
X445770Y285750D01*
X445770Y246819D01*
X408685Y209734D01*
D22*
X379730Y203200D03*
D23*
X367940Y219384D02*
X367940Y241090D01*
X367940Y219384D02*
X379544Y207780D01*
X379544Y203386D01*
X379730Y203200D01*
X372940Y221103D02*
X372940Y241090D01*
X372940Y221103D02*
X389008Y205035D01*
X409822Y205035D01*
X470610Y265823D01*
X470610Y275210D01*
X362940Y241090D02*
X362940Y225780D01*
X346710Y209550D01*
X346710Y203610D01*
X310841Y292991D02*
X310940Y293090D01*
X310841Y292991D02*
X271299Y292991D01*
X242754Y321536D01*
X227104Y321536D02*
X226060Y322580D01*
X227104Y321536D02*
X242754Y321536D01*
D22*
X227330Y331470D03*
D25*
X226060Y330200D01*
X226060Y322580D01*
D23*
X234950Y339090D02*
X226060Y347980D01*
X234950Y339090D02*
X294640Y339090D01*
X317940Y315790D02*
X317940Y310090D01*
X317940Y315790D02*
X294640Y339090D01*
D25*
X226060Y345440D02*
X226060Y347980D01*
X226060Y345440D02*
X219710Y339090D01*
D22*
X219710Y339090D03*
D25*
X320880Y332740D02*
X324690Y332740D01*
X320880Y332740D02*
X308180Y345440D01*
X308180Y358140D01*
D22*
X324690Y332740D03*
D25*
X338892Y376112D02*
X342510Y379730D01*
X338892Y376112D02*
X338892Y368218D01*
X328814Y358140D01*
X308180Y358140D01*
D22*
X353060Y387985D03*
D25*
X379730Y390525D02*
X379730Y385318D01*
X379730Y390525D02*
X377190Y393065D01*
X358140Y393065D01*
X353060Y387985D01*
D23*
X347940Y241090D02*
X347940Y234202D01*
D22*
X347940Y234202D03*
X224790Y361950D03*
D24*
X230501Y361950D01*
X243757Y348694D01*
X248866Y348694D01*
X248920Y348640D01*
D25*
X249920Y349640D01*
X269240Y349640D01*
X285180Y349640D01*
X286180Y348640D01*
D22*
X431800Y464820D03*
X392430Y426720D03*
X406400Y426720D03*
X393700Y414020D03*
X406400Y414020D03*
X419100Y414020D03*
X419100Y426720D03*
X419100Y439420D03*
X419100Y452120D03*
X419100Y464820D03*
X431800Y452120D03*
X431800Y439420D03*
X431800Y426720D03*
X431800Y414020D03*
D25*
X393700Y414020D02*
X386334Y406654D01*
X386334Y385318D01*
X386080Y420370D02*
X392430Y426720D01*
X386080Y420370D02*
X346320Y420370D01*
D22*
X381000Y426720D03*
X381000Y414020D03*
X381000Y439420D03*
X381000Y453390D03*
X381000Y466090D03*
D25*
X415680Y393700D02*
X416950Y392430D01*
X415680Y393700D02*
X395478Y393700D01*
X392938Y391160D02*
X392938Y385318D01*
X392938Y391160D02*
X395478Y393700D01*
X433950Y392430D02*
X433950Y372110D01*
D23*
X384530Y258090D02*
X379940Y258090D01*
X388746Y253874D02*
X388746Y248920D01*
D22*
X388746Y248920D03*
D23*
X388746Y253874D02*
X384530Y258090D01*
D22*
X433946Y352326D03*
D25*
X433946Y372106D02*
X433950Y372110D01*
X433946Y372106D02*
X433946Y352326D01*
D22*
X261620Y388620D03*
X261620Y401320D03*
X261620Y414020D03*
X261620Y426720D03*
X261620Y439420D03*
X261620Y452120D03*
X261620Y464820D03*
X274320Y426720D03*
X274320Y439420D03*
X274320Y452120D03*
X274320Y464820D03*
X287020Y426720D03*
X299720Y388620D03*
X299720Y401320D03*
X299720Y414020D03*
X299720Y426720D03*
X274320Y414020D03*
X287020Y414020D03*
D25*
X299720Y388620D02*
X302260Y386080D01*
D22*
X274320Y401320D03*
X287020Y401320D03*
X287020Y388620D03*
X274320Y388620D03*
X313690Y464820D03*
X313690Y452120D03*
X313690Y439420D03*
X313690Y426720D03*
X313690Y414020D03*
X313690Y401320D03*
X313690Y388620D03*
D25*
X313690Y387740D01*
X321700Y379730D02*
X325510Y379730D01*
X321700Y379730D02*
X313690Y387740D01*
X329320Y400050D02*
X329320Y420370D01*
X329320Y444890D01*
X336550Y452120D02*
X346710Y452120D01*
X336550Y452120D02*
X329320Y444890D01*
D23*
X333812Y389138D02*
X333812Y370322D01*
D25*
X329320Y393630D02*
X329320Y400050D01*
X329320Y393630D02*
X333812Y389138D01*
X268240Y367640D02*
X248920Y367640D01*
X268240Y367640D02*
X269240Y366640D01*
X285180Y366640D02*
X286180Y367640D01*
X285180Y366640D02*
X269240Y366640D01*
X331130Y367640D02*
X333812Y370322D01*
X331130Y367640D02*
X286180Y367640D01*
M02*
