G04 EAGLE Gerber RS-274X export*
G75*
%MOMM*%
%FSLAX34Y34*%
%LPD*%
%INTop Copper*%
%IPPOS*%
%AMOC8*
5,1,8,0,0,1.08239X$1,22.5*%
G01*
%ADD10R,1.100000X1.000000*%
%ADD11R,0.800000X0.800000*%
%ADD12C,0.499997*%
%ADD13C,0.200000*%
%ADD14R,1.600000X3.000000*%
%ADD15R,6.200000X5.800000*%
%ADD16R,3.200000X1.800000*%
%ADD17C,1.000000*%
%ADD18C,1.981200*%
%ADD19C,0.756400*%
%ADD20C,0.355600*%
%ADD21C,0.304800*%
%ADD22C,0.254000*%
%ADD23C,0.406400*%

G36*
X279138Y196216D02*
X279138Y196216D01*
X279166Y196214D01*
X279234Y196236D01*
X279305Y196250D01*
X279328Y196266D01*
X279355Y196275D01*
X279410Y196322D01*
X279469Y196363D01*
X279484Y196387D01*
X279506Y196405D01*
X279537Y196470D01*
X279576Y196530D01*
X279581Y196558D01*
X279593Y196584D01*
X279602Y196685D01*
X279609Y196727D01*
X279607Y196737D01*
X279608Y196750D01*
X279490Y198227D01*
X317323Y198227D01*
X317408Y198244D01*
X317493Y198256D01*
X317505Y198264D01*
X317519Y198266D01*
X317591Y198315D01*
X317665Y198360D01*
X317673Y198371D01*
X317685Y198379D01*
X317732Y198451D01*
X317783Y198522D01*
X317787Y198536D01*
X317794Y198547D01*
X317804Y198602D01*
X317828Y198696D01*
X317930Y200055D01*
X317921Y200125D01*
X317921Y200195D01*
X317909Y200226D01*
X317905Y200254D01*
X317880Y200298D01*
X317854Y200362D01*
X317851Y200367D01*
X317995Y201000D01*
X317996Y201034D01*
X318007Y201075D01*
X318055Y201722D01*
X318059Y201725D01*
X318103Y201781D01*
X318152Y201831D01*
X318165Y201861D01*
X318182Y201883D01*
X318196Y201933D01*
X318223Y201997D01*
X318750Y204307D01*
X318752Y204377D01*
X318762Y204447D01*
X318755Y204479D01*
X318755Y204507D01*
X318737Y204555D01*
X318721Y204622D01*
X318718Y204627D01*
X318955Y205231D01*
X318962Y205266D01*
X318978Y205304D01*
X319122Y205937D01*
X319127Y205939D01*
X319178Y205988D01*
X319235Y206030D01*
X319252Y206058D01*
X319272Y206078D01*
X319293Y206125D01*
X319329Y206184D01*
X320195Y208389D01*
X320207Y208459D01*
X320227Y208526D01*
X320225Y208559D01*
X320230Y208586D01*
X320218Y208637D01*
X320212Y208706D01*
X320211Y208711D01*
X320535Y209273D01*
X320547Y209306D01*
X320568Y209341D01*
X320805Y209945D01*
X320811Y209947D01*
X320868Y209988D01*
X320931Y210021D01*
X320952Y210046D01*
X320975Y210062D01*
X321002Y210106D01*
X321047Y210159D01*
X322232Y212210D01*
X322241Y212238D01*
X322244Y212243D01*
X322246Y212253D01*
X322254Y212277D01*
X322284Y212341D01*
X322287Y212374D01*
X322295Y212400D01*
X322292Y212452D01*
X322296Y212521D01*
X322296Y212526D01*
X322700Y213034D01*
X322716Y213065D01*
X322743Y213096D01*
X323067Y213658D01*
X323073Y213660D01*
X323136Y213691D01*
X323202Y213715D01*
X323227Y213736D01*
X323252Y213749D01*
X323286Y213788D01*
X323338Y213833D01*
X324815Y215686D01*
X324847Y215748D01*
X324887Y215807D01*
X324894Y215839D01*
X324907Y215864D01*
X324911Y215915D01*
X324925Y215983D01*
X324926Y215988D01*
X325401Y216430D01*
X325422Y216458D01*
X325453Y216485D01*
X325857Y216993D01*
X325863Y216993D01*
X325930Y217015D01*
X325999Y217028D01*
X326027Y217046D01*
X326054Y217055D01*
X326093Y217088D01*
X326151Y217126D01*
X327888Y218737D01*
X327929Y218794D01*
X327977Y218846D01*
X327989Y218877D01*
X328005Y218900D01*
X328017Y218950D01*
X328041Y219015D01*
X328042Y219020D01*
X328578Y219385D01*
X328603Y219410D01*
X328638Y219433D01*
X329113Y219874D01*
X329119Y219874D01*
X329188Y219885D01*
X329259Y219888D01*
X329289Y219902D01*
X329317Y219906D01*
X329360Y219933D01*
X329424Y219962D01*
X331381Y221296D01*
X331430Y221347D01*
X331485Y221391D01*
X331502Y221420D01*
X331521Y221440D01*
X331540Y221488D01*
X331574Y221548D01*
X331576Y221553D01*
X332161Y221835D01*
X332188Y221856D01*
X332226Y221873D01*
X332762Y222238D01*
X332768Y222237D01*
X332838Y222238D01*
X332909Y222230D01*
X332940Y222239D01*
X332968Y222239D01*
X333015Y222260D01*
X333082Y222278D01*
X335217Y223306D01*
X335273Y223349D01*
X335334Y223385D01*
X335354Y223410D01*
X335376Y223427D01*
X335402Y223472D01*
X335445Y223526D01*
X335448Y223531D01*
X336068Y223722D01*
X336098Y223739D01*
X336138Y223750D01*
X336723Y224032D01*
X336728Y224030D01*
X336798Y224020D01*
X336866Y224002D01*
X336899Y224006D01*
X336927Y224002D01*
X336977Y224016D01*
X337045Y224024D01*
X339309Y224722D01*
X339371Y224756D01*
X339437Y224782D01*
X339460Y224805D01*
X339485Y224818D01*
X339517Y224858D01*
X339568Y224906D01*
X339571Y224910D01*
X340212Y225007D01*
X340245Y225019D01*
X340286Y225024D01*
X340907Y225215D01*
X340911Y225212D01*
X340979Y225192D01*
X341044Y225165D01*
X341077Y225164D01*
X341104Y225156D01*
X341155Y225161D01*
X341224Y225159D01*
X343567Y225512D01*
X343633Y225537D01*
X343702Y225553D01*
X343729Y225571D01*
X343755Y225581D01*
X343793Y225616D01*
X343850Y225655D01*
X343854Y225659D01*
X344503Y225659D01*
X344537Y225666D01*
X344578Y225665D01*
X345220Y225762D01*
X345224Y225758D01*
X345288Y225729D01*
X345348Y225691D01*
X345380Y225685D01*
X345406Y225674D01*
X345457Y225672D01*
X345525Y225659D01*
X347895Y225659D01*
X347964Y225673D01*
X348034Y225679D01*
X348064Y225693D01*
X348091Y225699D01*
X348134Y225728D01*
X348196Y225758D01*
X348200Y225762D01*
X348842Y225665D01*
X348877Y225667D01*
X348917Y225659D01*
X349566Y225659D01*
X349570Y225655D01*
X349629Y225616D01*
X349683Y225570D01*
X349714Y225560D01*
X349737Y225544D01*
X349788Y225535D01*
X349853Y225512D01*
X352196Y225159D01*
X352267Y225163D01*
X352337Y225158D01*
X352368Y225168D01*
X352396Y225169D01*
X352443Y225192D01*
X352509Y225212D01*
X352513Y225215D01*
X353134Y225024D01*
X353168Y225020D01*
X353208Y225007D01*
X353849Y224910D01*
X353852Y224906D01*
X353905Y224858D01*
X353951Y224805D01*
X353980Y224790D01*
X354001Y224771D01*
X354050Y224754D01*
X354111Y224722D01*
X356375Y224024D01*
X356445Y224017D01*
X356514Y224002D01*
X356546Y224007D01*
X356574Y224004D01*
X356624Y224019D01*
X356692Y224030D01*
X356697Y224032D01*
X357282Y223750D01*
X357315Y223742D01*
X357352Y223722D01*
X357972Y223531D01*
X357975Y223526D01*
X358020Y223472D01*
X358058Y223412D01*
X358084Y223393D01*
X358102Y223371D01*
X358147Y223347D01*
X358203Y223306D01*
X360338Y222278D01*
X360406Y222261D01*
X360472Y222235D01*
X360505Y222236D01*
X360532Y222229D01*
X360583Y222236D01*
X360652Y222237D01*
X360658Y222238D01*
X361194Y221873D01*
X361226Y221859D01*
X361259Y221835D01*
X361844Y221553D01*
X361846Y221548D01*
X361882Y221487D01*
X361910Y221423D01*
X361934Y221400D01*
X361948Y221375D01*
X361990Y221345D01*
X362039Y221296D01*
X363996Y219962D01*
X364061Y219934D01*
X364123Y219899D01*
X364155Y219895D01*
X364181Y219884D01*
X364232Y219884D01*
X364301Y219874D01*
X364307Y219874D01*
X364782Y219433D01*
X364812Y219415D01*
X364842Y219385D01*
X365378Y219020D01*
X365379Y219015D01*
X365405Y218949D01*
X365424Y218881D01*
X365444Y218855D01*
X365454Y218829D01*
X365491Y218792D01*
X365532Y218737D01*
X367269Y217126D01*
X367329Y217089D01*
X367384Y217045D01*
X367416Y217036D01*
X367440Y217021D01*
X367491Y217013D01*
X367557Y216993D01*
X367563Y216993D01*
X367967Y216485D01*
X367994Y216463D01*
X368019Y216430D01*
X368494Y215988D01*
X368495Y215983D01*
X368511Y215914D01*
X368519Y215844D01*
X368535Y215815D01*
X368541Y215788D01*
X368572Y215747D01*
X368605Y215686D01*
X370082Y213833D01*
X370136Y213788D01*
X370184Y213737D01*
X370214Y213723D01*
X370235Y213705D01*
X370285Y213689D01*
X370347Y213660D01*
X370353Y213658D01*
X370677Y213096D01*
X370700Y213070D01*
X370720Y213034D01*
X371124Y212526D01*
X371124Y212521D01*
X371130Y212450D01*
X371128Y212380D01*
X371139Y212349D01*
X371141Y212321D01*
X371165Y212275D01*
X371188Y212210D01*
X372373Y210159D01*
X372420Y210106D01*
X372460Y210048D01*
X372487Y210029D01*
X372506Y210008D01*
X372552Y209986D01*
X372609Y209947D01*
X372615Y209945D01*
X372852Y209341D01*
X372870Y209312D01*
X372885Y209273D01*
X373209Y208711D01*
X373208Y208706D01*
X373203Y208635D01*
X373190Y208566D01*
X373197Y208534D01*
X373195Y208506D01*
X373212Y208457D01*
X373225Y208389D01*
X373839Y206825D01*
X373845Y206815D01*
X373848Y206804D01*
X373900Y206731D01*
X373948Y206656D01*
X373957Y206650D01*
X373964Y206641D01*
X374040Y206593D01*
X374113Y206543D01*
X374124Y206541D01*
X374134Y206535D01*
X374297Y206505D01*
X374310Y206503D01*
X374311Y206503D01*
X375318Y206503D01*
X375326Y206504D01*
X375333Y206503D01*
X375423Y206524D01*
X375514Y206542D01*
X375521Y206547D01*
X375528Y206549D01*
X375676Y206651D01*
X377532Y208507D01*
X381928Y208507D01*
X385037Y205398D01*
X385037Y201002D01*
X383127Y199093D01*
X383126Y199090D01*
X383124Y199089D01*
X383071Y199008D01*
X383017Y198926D01*
X383016Y198923D01*
X383015Y198921D01*
X382997Y198825D01*
X382979Y198729D01*
X382979Y198726D01*
X382979Y198724D01*
X383000Y198627D01*
X383021Y198533D01*
X383022Y198531D01*
X383023Y198528D01*
X383079Y198448D01*
X383135Y198368D01*
X383137Y198367D01*
X383139Y198365D01*
X383221Y198313D01*
X383304Y198261D01*
X383307Y198260D01*
X383309Y198259D01*
X383486Y198227D01*
X413930Y198227D01*
X413812Y196750D01*
X413816Y196721D01*
X413811Y196693D01*
X413828Y196624D01*
X413836Y196552D01*
X413851Y196528D01*
X413857Y196500D01*
X413900Y196442D01*
X413936Y196380D01*
X413958Y196363D01*
X413975Y196340D01*
X414037Y196303D01*
X414094Y196260D01*
X414122Y196253D01*
X414146Y196238D01*
X414246Y196222D01*
X414287Y196211D01*
X414297Y196213D01*
X414310Y196211D01*
X433310Y196211D01*
X433386Y196226D01*
X433464Y196235D01*
X433483Y196246D01*
X433505Y196250D01*
X433569Y196294D01*
X433637Y196333D01*
X433653Y196352D01*
X433669Y196363D01*
X433693Y196401D01*
X433743Y196461D01*
X443243Y212961D01*
X443252Y212988D01*
X443268Y213012D01*
X443283Y213082D01*
X443306Y213150D01*
X443303Y213178D01*
X443309Y213206D01*
X443296Y213277D01*
X443290Y213348D01*
X443277Y213373D01*
X443271Y213401D01*
X443231Y213461D01*
X443198Y213524D01*
X443176Y213542D01*
X443160Y213566D01*
X443077Y213624D01*
X443045Y213651D01*
X443034Y213654D01*
X443024Y213661D01*
X441705Y214285D01*
X460596Y247005D01*
X460623Y247087D01*
X460655Y247168D01*
X460655Y247182D01*
X460660Y247195D01*
X460653Y247282D01*
X460652Y247368D01*
X460646Y247381D01*
X460645Y247395D01*
X460606Y247472D01*
X460570Y247552D01*
X460560Y247562D01*
X460554Y247574D01*
X460511Y247609D01*
X460442Y247678D01*
X459322Y248441D01*
X459257Y248468D01*
X459195Y248503D01*
X459163Y248508D01*
X459137Y248519D01*
X459085Y248519D01*
X459017Y248529D01*
X459011Y248528D01*
X458536Y248970D01*
X458506Y248988D01*
X458476Y249017D01*
X457940Y249382D01*
X457939Y249388D01*
X457912Y249453D01*
X457894Y249521D01*
X457874Y249547D01*
X457864Y249573D01*
X457827Y249610D01*
X457786Y249665D01*
X456047Y251278D01*
X455987Y251314D01*
X455931Y251358D01*
X455900Y251368D01*
X455876Y251382D01*
X455825Y251390D01*
X455758Y251410D01*
X455753Y251410D01*
X455348Y251918D01*
X455322Y251940D01*
X455297Y251973D01*
X454821Y252414D01*
X454821Y252420D01*
X454804Y252488D01*
X454796Y252559D01*
X454780Y252587D01*
X454774Y252615D01*
X454743Y252656D01*
X454710Y252717D01*
X453231Y254571D01*
X453177Y254616D01*
X453129Y254667D01*
X453099Y254681D01*
X453078Y254699D01*
X453028Y254715D01*
X452966Y254744D01*
X452960Y254746D01*
X452636Y255308D01*
X452613Y255334D01*
X452593Y255370D01*
X452188Y255877D01*
X452189Y255883D01*
X452183Y255953D01*
X452185Y256024D01*
X452174Y256055D01*
X452172Y256083D01*
X452148Y256128D01*
X452124Y256193D01*
X450938Y258247D01*
X450891Y258300D01*
X450851Y258358D01*
X450824Y258376D01*
X450805Y258397D01*
X450759Y258419D01*
X450701Y258458D01*
X450696Y258460D01*
X450459Y259064D01*
X450440Y259093D01*
X450426Y259132D01*
X450101Y259694D01*
X450103Y259699D01*
X450107Y259770D01*
X450120Y259839D01*
X450114Y259871D01*
X450115Y259899D01*
X450098Y259948D01*
X450085Y260016D01*
X449218Y262223D01*
X449180Y262282D01*
X449149Y262346D01*
X449124Y262368D01*
X449109Y262392D01*
X449067Y262421D01*
X449015Y262467D01*
X449011Y262470D01*
X448866Y263103D01*
X448852Y263134D01*
X448844Y263175D01*
X448607Y263779D01*
X448609Y263784D01*
X448624Y263853D01*
X448647Y263920D01*
X448645Y263953D01*
X448651Y263980D01*
X448641Y264031D01*
X448638Y264100D01*
X448110Y266412D01*
X448081Y266476D01*
X448060Y266543D01*
X448039Y266569D01*
X448027Y266594D01*
X447990Y266629D01*
X447946Y266683D01*
X447942Y266687D01*
X447893Y267334D01*
X447884Y267367D01*
X447882Y267409D01*
X447737Y268041D01*
X447740Y268046D01*
X447765Y268112D01*
X447798Y268175D01*
X447801Y268207D01*
X447811Y268234D01*
X447809Y268285D01*
X447816Y268354D01*
X447639Y270719D01*
X447619Y270786D01*
X447609Y270856D01*
X447592Y270885D01*
X447584Y270912D01*
X447552Y270952D01*
X447517Y271012D01*
X447424Y271119D01*
X447411Y271129D01*
X447409Y271133D01*
X447405Y271135D01*
X447395Y271150D01*
X447329Y271194D01*
X447266Y271242D01*
X447245Y271248D01*
X447227Y271260D01*
X447149Y271274D01*
X447073Y271294D01*
X447051Y271291D01*
X447030Y271295D01*
X446952Y271278D01*
X446874Y271267D01*
X446855Y271256D01*
X446834Y271252D01*
X446769Y271206D01*
X446701Y271166D01*
X446688Y271148D01*
X446671Y271136D01*
X446629Y271068D01*
X446581Y271005D01*
X446576Y270984D01*
X446565Y270965D01*
X446546Y270863D01*
X446533Y270810D01*
X446535Y270800D01*
X446533Y270788D01*
X446533Y245012D01*
X438136Y236616D01*
X424894Y236616D01*
X424891Y236615D01*
X424889Y236616D01*
X424793Y236595D01*
X424697Y236576D01*
X424695Y236574D01*
X424693Y236574D01*
X424612Y236518D01*
X424532Y236463D01*
X424530Y236461D01*
X424528Y236460D01*
X424475Y236376D01*
X424422Y236295D01*
X424422Y236293D01*
X424420Y236290D01*
X424404Y236194D01*
X424387Y236098D01*
X424387Y236095D01*
X424387Y236093D01*
X424409Y235998D01*
X424430Y235902D01*
X424432Y235900D01*
X424432Y235898D01*
X424535Y235750D01*
X425269Y235016D01*
X425276Y235011D01*
X425280Y235005D01*
X425359Y234956D01*
X425436Y234905D01*
X425444Y234903D01*
X425451Y234899D01*
X425628Y234867D01*
X431474Y234867D01*
X437365Y228975D01*
X437372Y228971D01*
X437377Y228965D01*
X437455Y228916D01*
X437532Y228864D01*
X437540Y228863D01*
X437547Y228859D01*
X437724Y228827D01*
X440348Y228827D01*
X443457Y225718D01*
X443457Y221322D01*
X440348Y218213D01*
X435952Y218213D01*
X432843Y221322D01*
X432843Y223946D01*
X432842Y223954D01*
X432843Y223961D01*
X432822Y224051D01*
X432804Y224142D01*
X432799Y224149D01*
X432797Y224157D01*
X432695Y224305D01*
X428886Y228113D01*
X428880Y228117D01*
X428875Y228124D01*
X428796Y228173D01*
X428719Y228224D01*
X428712Y228225D01*
X428705Y228230D01*
X428528Y228262D01*
X425628Y228262D01*
X425620Y228260D01*
X425612Y228261D01*
X425523Y228240D01*
X425431Y228222D01*
X425425Y228218D01*
X425417Y228216D01*
X425269Y228113D01*
X423414Y226258D01*
X419018Y226258D01*
X415909Y229366D01*
X415909Y233762D01*
X417896Y235750D01*
X417898Y235752D01*
X417900Y235753D01*
X417952Y235834D01*
X418007Y235917D01*
X418008Y235919D01*
X418009Y235921D01*
X418026Y236017D01*
X418045Y236113D01*
X418044Y236116D01*
X418045Y236119D01*
X418023Y236215D01*
X418003Y236310D01*
X418002Y236312D01*
X418001Y236314D01*
X417945Y236394D01*
X417889Y236474D01*
X417887Y236476D01*
X417885Y236478D01*
X417802Y236529D01*
X417720Y236582D01*
X417717Y236582D01*
X417715Y236584D01*
X417538Y236616D01*
X398244Y236616D01*
X398239Y236615D01*
X398234Y236615D01*
X398141Y236595D01*
X398047Y236576D01*
X398043Y236573D01*
X398038Y236572D01*
X397960Y236517D01*
X397882Y236463D01*
X397879Y236459D01*
X397875Y236456D01*
X397824Y236375D01*
X397772Y236295D01*
X397772Y236290D01*
X397769Y236286D01*
X397737Y236108D01*
X397737Y235701D01*
X395881Y233846D01*
X395877Y233839D01*
X395871Y233835D01*
X395822Y233756D01*
X395770Y233679D01*
X395769Y233671D01*
X395765Y233665D01*
X395733Y233487D01*
X395733Y231432D01*
X395734Y231427D01*
X395733Y231422D01*
X395754Y231329D01*
X395772Y231235D01*
X395775Y231231D01*
X395776Y231226D01*
X395832Y231148D01*
X395885Y231070D01*
X395889Y231067D01*
X395892Y231063D01*
X395974Y231012D01*
X396053Y230960D01*
X396058Y230960D01*
X396063Y230957D01*
X396240Y230925D01*
X398562Y230925D01*
X399455Y230032D01*
X399455Y218768D01*
X398562Y217875D01*
X386298Y217875D01*
X385405Y218768D01*
X385405Y230032D01*
X386298Y230925D01*
X388620Y230925D01*
X388625Y230926D01*
X388630Y230925D01*
X388723Y230946D01*
X388817Y230964D01*
X388821Y230967D01*
X388826Y230968D01*
X388904Y231024D01*
X388982Y231077D01*
X388985Y231081D01*
X388989Y231084D01*
X389040Y231166D01*
X389092Y231245D01*
X389092Y231250D01*
X389095Y231255D01*
X389127Y231432D01*
X389127Y233487D01*
X389126Y233495D01*
X389127Y233503D01*
X389106Y233593D01*
X389088Y233684D01*
X389083Y233690D01*
X389081Y233698D01*
X388979Y233846D01*
X387123Y235701D01*
X387123Y240098D01*
X388221Y241195D01*
X388222Y241198D01*
X388225Y241199D01*
X388277Y241279D01*
X388332Y241362D01*
X388332Y241365D01*
X388334Y241367D01*
X388351Y241463D01*
X388370Y241559D01*
X388369Y241562D01*
X388369Y241564D01*
X388348Y241661D01*
X388328Y241755D01*
X388326Y241757D01*
X388326Y241760D01*
X388269Y241840D01*
X388214Y241920D01*
X388211Y241921D01*
X388210Y241923D01*
X388126Y241976D01*
X388044Y242027D01*
X388042Y242028D01*
X388040Y242029D01*
X387862Y242061D01*
X346423Y242061D01*
X346421Y242061D01*
X346418Y242061D01*
X346323Y242041D01*
X346227Y242022D01*
X346225Y242020D01*
X346222Y242020D01*
X346141Y241964D01*
X346061Y241909D01*
X346060Y241907D01*
X346057Y241905D01*
X346004Y241822D01*
X345952Y241741D01*
X345951Y241738D01*
X345950Y241736D01*
X345934Y241640D01*
X345916Y241544D01*
X345917Y241541D01*
X345916Y241539D01*
X345938Y241444D01*
X345960Y241348D01*
X345961Y241346D01*
X345962Y241343D01*
X346065Y241195D01*
X347602Y239658D01*
X347609Y239653D01*
X347614Y239647D01*
X347692Y239598D01*
X347769Y239547D01*
X347777Y239545D01*
X347784Y239541D01*
X347961Y239509D01*
X350138Y239509D01*
X353247Y236400D01*
X353247Y232004D01*
X350138Y228896D01*
X345742Y228896D01*
X342633Y232004D01*
X342633Y234061D01*
X342632Y234066D01*
X342633Y234071D01*
X342612Y234164D01*
X342594Y234258D01*
X342591Y234262D01*
X342590Y234267D01*
X342534Y234345D01*
X342481Y234423D01*
X342477Y234426D01*
X342474Y234430D01*
X342392Y234481D01*
X342313Y234533D01*
X342308Y234533D01*
X342303Y234536D01*
X342126Y234568D01*
X329547Y234568D01*
X329542Y234567D01*
X329537Y234568D01*
X329444Y234547D01*
X329350Y234529D01*
X329346Y234526D01*
X329341Y234525D01*
X329263Y234469D01*
X329185Y234416D01*
X329182Y234412D01*
X329178Y234409D01*
X329127Y234327D01*
X329075Y234248D01*
X329075Y234243D01*
X329072Y234238D01*
X329044Y234083D01*
X327561Y232600D01*
X317881Y232600D01*
X317873Y232599D01*
X317866Y232600D01*
X317776Y232579D01*
X317685Y232561D01*
X317678Y232556D01*
X317670Y232554D01*
X317522Y232452D01*
X311973Y226903D01*
X311969Y226896D01*
X311963Y226891D01*
X311914Y226813D01*
X311862Y226736D01*
X311861Y226728D01*
X311857Y226721D01*
X311825Y226544D01*
X311825Y218768D01*
X310932Y217875D01*
X298668Y217875D01*
X297775Y218768D01*
X297775Y230032D01*
X298668Y230925D01*
X306444Y230925D01*
X306452Y230926D01*
X306459Y230925D01*
X306549Y230946D01*
X306640Y230964D01*
X306647Y230969D01*
X306655Y230971D01*
X306803Y231073D01*
X315842Y240112D01*
X315846Y240119D01*
X315852Y240124D01*
X315901Y240202D01*
X315953Y240279D01*
X315954Y240287D01*
X315958Y240294D01*
X315990Y240471D01*
X315990Y241554D01*
X315989Y241559D01*
X315990Y241564D01*
X315969Y241657D01*
X315951Y241751D01*
X315948Y241755D01*
X315947Y241760D01*
X315891Y241838D01*
X315838Y241916D01*
X315834Y241919D01*
X315831Y241923D01*
X315749Y241974D01*
X315670Y242026D01*
X315665Y242026D01*
X315660Y242029D01*
X315483Y242061D01*
X305547Y242061D01*
X305542Y242060D01*
X305537Y242061D01*
X305444Y242040D01*
X305350Y242022D01*
X305346Y242019D01*
X305341Y242018D01*
X305263Y241962D01*
X305185Y241909D01*
X305182Y241905D01*
X305178Y241902D01*
X305127Y241820D01*
X305075Y241741D01*
X305075Y241736D01*
X305072Y241731D01*
X305040Y241554D01*
X305040Y234079D01*
X303561Y232600D01*
X293469Y232600D01*
X292285Y233785D01*
X292278Y233789D01*
X292274Y233795D01*
X292195Y233844D01*
X292118Y233896D01*
X292110Y233897D01*
X292103Y233901D01*
X291926Y233933D01*
X285750Y233933D01*
X285745Y233932D01*
X285740Y233933D01*
X285647Y233912D01*
X285553Y233894D01*
X285549Y233891D01*
X285544Y233890D01*
X285466Y233834D01*
X285388Y233781D01*
X285385Y233777D01*
X285381Y233774D01*
X285330Y233692D01*
X285278Y233613D01*
X285278Y233608D01*
X285275Y233603D01*
X285243Y233426D01*
X285243Y224196D01*
X285244Y224188D01*
X285243Y224180D01*
X285264Y224091D01*
X285282Y223999D01*
X285287Y223993D01*
X285289Y223985D01*
X285391Y223837D01*
X296909Y212319D01*
X296912Y212318D01*
X296913Y212315D01*
X296994Y212263D01*
X297076Y212208D01*
X297079Y212208D01*
X297081Y212206D01*
X297177Y212189D01*
X297273Y212171D01*
X297276Y212171D01*
X297278Y212171D01*
X297375Y212192D01*
X297469Y212212D01*
X297471Y212214D01*
X297474Y212214D01*
X297554Y212271D01*
X297634Y212326D01*
X297635Y212329D01*
X297637Y212330D01*
X297689Y212413D01*
X297741Y212496D01*
X297742Y212498D01*
X297743Y212500D01*
X297775Y212678D01*
X297775Y213032D01*
X298668Y213925D01*
X310932Y213925D01*
X311825Y213032D01*
X311825Y201768D01*
X310932Y200875D01*
X298668Y200875D01*
X297775Y201768D01*
X297775Y203590D01*
X297774Y203595D01*
X297775Y203600D01*
X297754Y203693D01*
X297736Y203787D01*
X297733Y203791D01*
X297732Y203796D01*
X297676Y203874D01*
X297623Y203952D01*
X297619Y203955D01*
X297616Y203959D01*
X297534Y204010D01*
X297455Y204062D01*
X297450Y204062D01*
X297445Y204065D01*
X297268Y204097D01*
X295790Y204097D01*
X278637Y221250D01*
X278637Y233426D01*
X278636Y233431D01*
X278637Y233436D01*
X278617Y233528D01*
X278598Y233623D01*
X278595Y233627D01*
X278594Y233632D01*
X278538Y233710D01*
X278485Y233788D01*
X278481Y233791D01*
X278478Y233795D01*
X278396Y233846D01*
X278317Y233898D01*
X278312Y233898D01*
X278307Y233901D01*
X278130Y233933D01*
X257607Y233933D01*
X247903Y243637D01*
X247903Y287659D01*
X247902Y287667D01*
X247903Y287675D01*
X247882Y287764D01*
X247864Y287856D01*
X247859Y287862D01*
X247857Y287870D01*
X247755Y288018D01*
X232138Y303635D01*
X232131Y303639D01*
X232127Y303645D01*
X232048Y303694D01*
X231971Y303746D01*
X231963Y303747D01*
X231956Y303751D01*
X231779Y303783D01*
X216967Y303783D01*
X205993Y314757D01*
X205993Y354533D01*
X218237Y366777D01*
X221902Y366777D01*
X221910Y366778D01*
X221917Y366777D01*
X222007Y366798D01*
X222098Y366816D01*
X222105Y366821D01*
X222112Y366823D01*
X222260Y366925D01*
X222592Y367257D01*
X226988Y367257D01*
X230097Y364148D01*
X230097Y359752D01*
X226988Y356643D01*
X222592Y356643D01*
X220736Y358499D01*
X220732Y358502D01*
X220729Y358506D01*
X220648Y358557D01*
X220569Y358610D01*
X220564Y358611D01*
X220560Y358614D01*
X220466Y358630D01*
X220372Y358647D01*
X220367Y358646D01*
X220362Y358647D01*
X220270Y358626D01*
X220176Y358606D01*
X220172Y358603D01*
X220167Y358602D01*
X220019Y358499D01*
X213255Y351735D01*
X213251Y351729D01*
X213245Y351724D01*
X213196Y351646D01*
X213144Y351568D01*
X213143Y351561D01*
X213139Y351554D01*
X213107Y351377D01*
X213107Y317913D01*
X213108Y317906D01*
X213107Y317898D01*
X213128Y317808D01*
X213146Y317717D01*
X213151Y317710D01*
X213153Y317703D01*
X213255Y317555D01*
X219765Y311045D01*
X219771Y311041D01*
X219776Y311035D01*
X219854Y310986D01*
X219932Y310934D01*
X219939Y310933D01*
X219946Y310929D01*
X220123Y310897D01*
X234936Y310897D01*
X251355Y294477D01*
X251358Y294476D01*
X251359Y294473D01*
X251440Y294421D01*
X251522Y294366D01*
X251525Y294366D01*
X251527Y294364D01*
X251623Y294347D01*
X251719Y294329D01*
X251722Y294329D01*
X251724Y294329D01*
X251821Y294350D01*
X251915Y294370D01*
X251917Y294372D01*
X251920Y294372D01*
X252000Y294429D01*
X252080Y294484D01*
X252081Y294487D01*
X252083Y294488D01*
X252135Y294571D01*
X252187Y294654D01*
X252188Y294656D01*
X252189Y294658D01*
X252221Y294836D01*
X252221Y317208D01*
X252220Y317213D01*
X252221Y317218D01*
X252200Y317311D01*
X252182Y317405D01*
X252179Y317409D01*
X252178Y317414D01*
X252122Y317492D01*
X252069Y317570D01*
X252065Y317573D01*
X252062Y317577D01*
X251980Y317628D01*
X251901Y317680D01*
X251896Y317680D01*
X251891Y317683D01*
X251714Y317715D01*
X250206Y317715D01*
X250198Y317714D01*
X250191Y317715D01*
X250101Y317694D01*
X250010Y317676D01*
X250003Y317671D01*
X249995Y317669D01*
X249847Y317567D01*
X249007Y316726D01*
X249001Y316717D01*
X248991Y316710D01*
X248098Y315734D01*
X248049Y315723D01*
X248045Y315720D01*
X248042Y315720D01*
X248015Y315699D01*
X247901Y315620D01*
X246755Y314475D01*
X246751Y314468D01*
X246745Y314463D01*
X246696Y314385D01*
X246644Y314308D01*
X246643Y314300D01*
X246639Y314293D01*
X246607Y314116D01*
X246607Y311492D01*
X243498Y308383D01*
X239102Y308383D01*
X235993Y311492D01*
X235993Y315888D01*
X239207Y319102D01*
X239208Y319103D01*
X239210Y319104D01*
X239213Y319109D01*
X239217Y319113D01*
X239266Y319191D01*
X239318Y319269D01*
X239318Y319272D01*
X239319Y319273D01*
X239320Y319277D01*
X239323Y319283D01*
X239355Y319460D01*
X239355Y329872D01*
X240248Y330765D01*
X251714Y330765D01*
X251719Y330766D01*
X251724Y330765D01*
X251817Y330786D01*
X251911Y330804D01*
X251915Y330807D01*
X251920Y330808D01*
X251998Y330864D01*
X252076Y330917D01*
X252079Y330921D01*
X252083Y330924D01*
X252134Y331006D01*
X252186Y331085D01*
X252186Y331090D01*
X252189Y331095D01*
X252221Y331272D01*
X252221Y334208D01*
X252220Y334213D01*
X252221Y334218D01*
X252200Y334311D01*
X252182Y334405D01*
X252179Y334409D01*
X252178Y334414D01*
X252122Y334492D01*
X252069Y334570D01*
X252065Y334573D01*
X252062Y334577D01*
X251980Y334628D01*
X251901Y334680D01*
X251896Y334680D01*
X251891Y334683D01*
X251714Y334715D01*
X240248Y334715D01*
X239355Y335608D01*
X239355Y346872D01*
X240248Y347765D01*
X242570Y347765D01*
X242575Y347766D01*
X242580Y347765D01*
X242673Y347786D01*
X242767Y347804D01*
X242771Y347807D01*
X242776Y347808D01*
X242854Y347864D01*
X242932Y347917D01*
X242935Y347921D01*
X242939Y347924D01*
X242990Y348006D01*
X243042Y348085D01*
X243042Y348090D01*
X243045Y348095D01*
X243077Y348272D01*
X243077Y349688D01*
X243076Y349693D01*
X243077Y349698D01*
X243056Y349791D01*
X243038Y349885D01*
X243035Y349889D01*
X243034Y349894D01*
X242978Y349972D01*
X242925Y350050D01*
X242921Y350053D01*
X242918Y350057D01*
X242836Y350108D01*
X242757Y350160D01*
X242752Y350160D01*
X242747Y350163D01*
X242570Y350195D01*
X241748Y350195D01*
X240855Y351088D01*
X240855Y360352D01*
X241748Y361245D01*
X251012Y361245D01*
X251355Y360901D01*
X251358Y360899D01*
X251359Y360897D01*
X251440Y360845D01*
X251522Y360790D01*
X251525Y360789D01*
X251527Y360788D01*
X251623Y360771D01*
X251719Y360752D01*
X251722Y360753D01*
X251724Y360752D01*
X251821Y360774D01*
X251915Y360794D01*
X251917Y360795D01*
X251920Y360796D01*
X252000Y360853D01*
X252080Y360908D01*
X252081Y360911D01*
X252083Y360912D01*
X252135Y360995D01*
X252187Y361077D01*
X252188Y361080D01*
X252189Y361082D01*
X252221Y361260D01*
X252221Y365180D01*
X252221Y365183D01*
X252221Y365186D01*
X252201Y365281D01*
X252182Y365377D01*
X252180Y365379D01*
X252180Y365382D01*
X252124Y365461D01*
X252069Y365543D01*
X252067Y365544D01*
X252065Y365546D01*
X251982Y365599D01*
X251901Y365652D01*
X251898Y365652D01*
X251896Y365654D01*
X251800Y365670D01*
X251704Y365688D01*
X251701Y365687D01*
X251699Y365687D01*
X251604Y365665D01*
X251508Y365644D01*
X251506Y365642D01*
X251503Y365642D01*
X251355Y365539D01*
X251012Y365195D01*
X241748Y365195D01*
X240855Y366088D01*
X240855Y367030D01*
X240854Y367035D01*
X240855Y367040D01*
X240834Y367133D01*
X240816Y367227D01*
X240813Y367231D01*
X240812Y367236D01*
X240756Y367314D01*
X240703Y367392D01*
X240699Y367395D01*
X240696Y367399D01*
X240614Y367450D01*
X240535Y367502D01*
X240530Y367502D01*
X240525Y367505D01*
X240348Y367537D01*
X238727Y367537D01*
X238719Y367536D01*
X238712Y367537D01*
X238622Y367516D01*
X238531Y367498D01*
X238524Y367493D01*
X238517Y367491D01*
X238369Y367389D01*
X236513Y365533D01*
X232117Y365533D01*
X229008Y368642D01*
X229008Y373038D01*
X232117Y376147D01*
X236513Y376147D01*
X238369Y374291D01*
X238375Y374287D01*
X238380Y374281D01*
X238458Y374232D01*
X238536Y374180D01*
X238543Y374179D01*
X238550Y374175D01*
X238727Y374143D01*
X240348Y374143D01*
X240353Y374144D01*
X240358Y374143D01*
X240451Y374164D01*
X240545Y374182D01*
X240549Y374185D01*
X240554Y374186D01*
X240632Y374242D01*
X240710Y374295D01*
X240713Y374299D01*
X240717Y374302D01*
X240768Y374384D01*
X240820Y374463D01*
X240820Y374468D01*
X240823Y374473D01*
X240855Y374650D01*
X240855Y375352D01*
X241748Y376245D01*
X251012Y376245D01*
X251355Y375901D01*
X251358Y375899D01*
X251359Y375897D01*
X251440Y375845D01*
X251522Y375790D01*
X251525Y375789D01*
X251527Y375788D01*
X251623Y375771D01*
X251719Y375752D01*
X251722Y375753D01*
X251724Y375752D01*
X251821Y375774D01*
X251915Y375794D01*
X251917Y375795D01*
X251920Y375796D01*
X252000Y375853D01*
X252080Y375908D01*
X252081Y375911D01*
X252083Y375912D01*
X252135Y375995D01*
X252187Y376077D01*
X252188Y376080D01*
X252189Y376082D01*
X252221Y376260D01*
X252221Y468472D01*
X253072Y470526D01*
X258454Y475908D01*
X259254Y476239D01*
X260479Y476747D01*
X260508Y476759D01*
X324327Y476759D01*
X326381Y475908D01*
X327953Y474336D01*
X328804Y472282D01*
X328804Y379662D01*
X328805Y379657D01*
X328804Y379652D01*
X328825Y379559D01*
X328843Y379465D01*
X328846Y379461D01*
X328847Y379456D01*
X328903Y379378D01*
X328956Y379300D01*
X328960Y379297D01*
X328963Y379293D01*
X329045Y379242D01*
X329124Y379190D01*
X329129Y379190D01*
X329134Y379187D01*
X329311Y379155D01*
X335657Y379155D01*
X336550Y378262D01*
X336550Y372990D01*
X336551Y372985D01*
X336550Y372980D01*
X336571Y372887D01*
X336589Y372793D01*
X336592Y372789D01*
X336593Y372784D01*
X336649Y372706D01*
X336702Y372628D01*
X336706Y372625D01*
X336709Y372621D01*
X336791Y372570D01*
X336870Y372518D01*
X336875Y372518D01*
X336880Y372515D01*
X337057Y372483D01*
X345528Y372483D01*
X345533Y372484D01*
X345538Y372483D01*
X345631Y372504D01*
X345725Y372522D01*
X345729Y372525D01*
X345734Y372526D01*
X345812Y372582D01*
X345890Y372635D01*
X345893Y372639D01*
X345897Y372642D01*
X345948Y372724D01*
X346000Y372803D01*
X346000Y372808D01*
X346003Y372813D01*
X346035Y372990D01*
X346035Y374812D01*
X346928Y375705D01*
X358648Y375705D01*
X358653Y375706D01*
X358658Y375705D01*
X358751Y375726D01*
X358845Y375744D01*
X358849Y375747D01*
X358854Y375748D01*
X358932Y375804D01*
X359010Y375857D01*
X359013Y375861D01*
X359017Y375864D01*
X359068Y375946D01*
X359120Y376025D01*
X359120Y376030D01*
X359123Y376035D01*
X359155Y376212D01*
X359155Y379549D01*
X359154Y379557D01*
X359155Y379564D01*
X359134Y379654D01*
X359116Y379745D01*
X359111Y379752D01*
X359109Y379760D01*
X359007Y379908D01*
X356106Y382809D01*
X356101Y382811D01*
X356098Y382816D01*
X356018Y382867D01*
X355939Y382919D01*
X355934Y382920D01*
X355929Y382923D01*
X355836Y382939D01*
X355742Y382957D01*
X355737Y382956D01*
X355732Y382957D01*
X355639Y382935D01*
X355546Y382915D01*
X355541Y382912D01*
X355536Y382911D01*
X355388Y382808D01*
X355258Y382678D01*
X350862Y382678D01*
X347753Y385787D01*
X347753Y390183D01*
X350862Y393292D01*
X355258Y393292D01*
X358367Y390183D01*
X358367Y390099D01*
X358368Y390091D01*
X358367Y390084D01*
X358388Y389994D01*
X358406Y389903D01*
X358411Y389896D01*
X358413Y389888D01*
X358515Y389740D01*
X359051Y389204D01*
X363115Y385140D01*
X363118Y385139D01*
X363119Y385137D01*
X363200Y385084D01*
X363282Y385029D01*
X363285Y385029D01*
X363287Y385028D01*
X363383Y385010D01*
X363479Y384992D01*
X363482Y384992D01*
X363484Y384992D01*
X363581Y385013D01*
X363675Y385033D01*
X363677Y385035D01*
X363680Y385036D01*
X363760Y385092D01*
X363840Y385148D01*
X363841Y385150D01*
X363843Y385152D01*
X363895Y385234D01*
X363947Y385317D01*
X363948Y385320D01*
X363949Y385322D01*
X363981Y385499D01*
X363981Y423618D01*
X363980Y423626D01*
X363981Y423633D01*
X363960Y423723D01*
X363942Y423814D01*
X363937Y423821D01*
X363935Y423829D01*
X363833Y423977D01*
X354594Y433215D01*
X354590Y433218D01*
X354587Y433222D01*
X354506Y433274D01*
X354427Y433326D01*
X354422Y433327D01*
X354417Y433330D01*
X354324Y433346D01*
X354230Y433364D01*
X354225Y433363D01*
X354220Y433364D01*
X354127Y433342D01*
X354034Y433322D01*
X354030Y433319D01*
X354025Y433318D01*
X353877Y433215D01*
X353185Y432523D01*
X351992Y432029D01*
X350768Y431522D01*
X350767Y431522D01*
X349543Y431015D01*
X348984Y430783D01*
X344436Y430783D01*
X340235Y432523D01*
X337019Y435739D01*
X335279Y439940D01*
X335279Y464300D01*
X337019Y468501D01*
X340235Y471717D01*
X341357Y472181D01*
X342582Y472689D01*
X343806Y473196D01*
X344436Y473457D01*
X348984Y473457D01*
X353185Y471717D01*
X356401Y468501D01*
X358141Y464300D01*
X358141Y439940D01*
X357998Y439596D01*
X357997Y439589D01*
X357993Y439584D01*
X357977Y439491D01*
X357959Y439399D01*
X357961Y439392D01*
X357960Y439386D01*
X357981Y439295D01*
X358000Y439203D01*
X358004Y439197D01*
X358005Y439191D01*
X358108Y439043D01*
X363115Y434035D01*
X363118Y434034D01*
X363119Y434032D01*
X363200Y433979D01*
X363282Y433924D01*
X363285Y433924D01*
X363287Y433923D01*
X363383Y433905D01*
X363479Y433887D01*
X363482Y433887D01*
X363484Y433887D01*
X363581Y433908D01*
X363675Y433928D01*
X363677Y433930D01*
X363680Y433931D01*
X363760Y433987D01*
X363840Y434043D01*
X363841Y434045D01*
X363843Y434047D01*
X363895Y434129D01*
X363947Y434212D01*
X363948Y434215D01*
X363949Y434217D01*
X363981Y434394D01*
X363981Y472282D01*
X364832Y474336D01*
X366404Y475908D01*
X367204Y476239D01*
X368429Y476747D01*
X368458Y476759D01*
X431642Y476759D01*
X433696Y475908D01*
X435339Y474264D01*
X440348Y469256D01*
X441199Y467202D01*
X441199Y368458D01*
X440348Y366404D01*
X438792Y364849D01*
X438791Y364846D01*
X438789Y364845D01*
X438736Y364764D01*
X438681Y364682D01*
X438681Y364679D01*
X438679Y364677D01*
X438662Y364581D01*
X438644Y364485D01*
X438644Y364482D01*
X438644Y364480D01*
X438665Y364383D01*
X438685Y364289D01*
X438687Y364287D01*
X438687Y364284D01*
X438744Y364204D01*
X438800Y364124D01*
X438802Y364123D01*
X438803Y364121D01*
X438887Y364068D01*
X438969Y364017D01*
X438971Y364016D01*
X438974Y364015D01*
X439151Y363983D01*
X439518Y363983D01*
X441601Y361899D01*
X444449Y359051D01*
X444450Y359051D01*
X446533Y356968D01*
X446533Y323019D01*
X446533Y323017D01*
X446533Y323014D01*
X446553Y322920D01*
X446572Y322823D01*
X446574Y322820D01*
X446574Y322818D01*
X446630Y322738D01*
X446685Y322657D01*
X446687Y322655D01*
X446689Y322653D01*
X446772Y322600D01*
X446853Y322548D01*
X446856Y322547D01*
X446858Y322546D01*
X446954Y322529D01*
X447050Y322512D01*
X447053Y322513D01*
X447055Y322512D01*
X447149Y322534D01*
X447246Y322556D01*
X447248Y322557D01*
X447251Y322558D01*
X447399Y322660D01*
X447493Y322755D01*
X461827Y322755D01*
X464185Y320397D01*
X464185Y318414D01*
X464186Y318407D01*
X464185Y318399D01*
X464206Y318309D01*
X464224Y318218D01*
X464229Y318211D01*
X464231Y318204D01*
X464333Y318056D01*
X464939Y317450D01*
X464940Y317449D01*
X466209Y316180D01*
X466212Y316178D01*
X466213Y316176D01*
X466294Y316123D01*
X466376Y316069D01*
X466379Y316068D01*
X466381Y316067D01*
X466477Y316049D01*
X466573Y316031D01*
X466576Y316032D01*
X466578Y316031D01*
X466675Y316053D01*
X466769Y316073D01*
X466771Y316074D01*
X466774Y316075D01*
X466854Y316132D01*
X466934Y316187D01*
X466935Y316189D01*
X466937Y316191D01*
X466989Y316274D01*
X467041Y316356D01*
X467042Y316359D01*
X467043Y316361D01*
X467075Y316538D01*
X467075Y326942D01*
X467986Y327853D01*
X467999Y327856D01*
X468093Y327874D01*
X468097Y327877D01*
X468102Y327878D01*
X468180Y327934D01*
X468258Y327987D01*
X468261Y327991D01*
X468265Y327994D01*
X468316Y328076D01*
X468368Y328155D01*
X468368Y328160D01*
X468371Y328165D01*
X468403Y328342D01*
X468403Y331178D01*
X468402Y331183D01*
X468403Y331188D01*
X468382Y331281D01*
X468364Y331375D01*
X468361Y331379D01*
X468360Y331384D01*
X468304Y331462D01*
X468251Y331540D01*
X468247Y331543D01*
X468244Y331547D01*
X468162Y331598D01*
X468083Y331650D01*
X468078Y331650D01*
X468073Y331653D01*
X467896Y331685D01*
X467578Y331685D01*
X466685Y332578D01*
X466685Y341468D01*
X466685Y341470D01*
X466685Y341473D01*
X466665Y341568D01*
X466646Y341664D01*
X466644Y341667D01*
X466644Y341669D01*
X466588Y341750D01*
X466533Y341830D01*
X466531Y341832D01*
X466529Y341834D01*
X466446Y341887D01*
X466365Y341939D01*
X466362Y341940D01*
X466360Y341941D01*
X466264Y341958D01*
X466168Y341975D01*
X466165Y341974D01*
X466163Y341975D01*
X466069Y341953D01*
X465972Y341931D01*
X465970Y341930D01*
X465967Y341929D01*
X465819Y341827D01*
X458845Y334853D01*
X458841Y334846D01*
X458835Y334841D01*
X458786Y334763D01*
X458734Y334686D01*
X458733Y334678D01*
X458729Y334671D01*
X458697Y334494D01*
X458697Y333140D01*
X455588Y330031D01*
X451192Y330031D01*
X448083Y333140D01*
X448083Y337536D01*
X449939Y339392D01*
X449940Y339393D01*
X449942Y339394D01*
X449945Y339399D01*
X449949Y339403D01*
X449998Y339481D01*
X450050Y339559D01*
X450050Y339562D01*
X450051Y339563D01*
X450052Y339567D01*
X450055Y339573D01*
X450087Y339750D01*
X450087Y364443D01*
X450086Y364448D01*
X450087Y364453D01*
X450066Y364546D01*
X450048Y364640D01*
X450045Y364644D01*
X450044Y364649D01*
X449988Y364727D01*
X449935Y364805D01*
X449931Y364808D01*
X449928Y364813D01*
X449846Y364863D01*
X449767Y364915D01*
X449762Y364916D01*
X449757Y364918D01*
X449580Y364950D01*
X446858Y364950D01*
X444500Y367308D01*
X444500Y375642D01*
X444859Y376000D01*
X444863Y376007D01*
X444869Y376012D01*
X444918Y376090D01*
X444970Y376167D01*
X444971Y376175D01*
X444975Y376182D01*
X445007Y376359D01*
X445007Y382938D01*
X445006Y382946D01*
X445007Y382953D01*
X444986Y383043D01*
X444968Y383134D01*
X444963Y383141D01*
X444961Y383148D01*
X444859Y383296D01*
X443003Y385152D01*
X443003Y389548D01*
X446112Y392657D01*
X450508Y392657D01*
X453617Y389548D01*
X453617Y385152D01*
X451761Y383296D01*
X451757Y383290D01*
X451751Y383285D01*
X451702Y383207D01*
X451650Y383129D01*
X451649Y383122D01*
X451645Y383115D01*
X451613Y382938D01*
X451613Y378768D01*
X451614Y378760D01*
X451613Y378753D01*
X451634Y378663D01*
X451652Y378572D01*
X451657Y378565D01*
X451659Y378557D01*
X451761Y378409D01*
X452023Y378148D01*
X452029Y378144D01*
X452034Y378137D01*
X452112Y378089D01*
X452189Y378037D01*
X452197Y378036D01*
X452204Y378032D01*
X452381Y378000D01*
X461192Y378000D01*
X463550Y375642D01*
X463550Y367308D01*
X461192Y364950D01*
X457200Y364950D01*
X457195Y364949D01*
X457190Y364950D01*
X457097Y364929D01*
X457003Y364911D01*
X456999Y364908D01*
X456994Y364907D01*
X456916Y364851D01*
X456838Y364798D01*
X456835Y364794D01*
X456831Y364791D01*
X456780Y364709D01*
X456728Y364630D01*
X456728Y364625D01*
X456725Y364620D01*
X456693Y364443D01*
X456693Y343266D01*
X456693Y343264D01*
X456693Y343261D01*
X456713Y343166D01*
X456732Y343070D01*
X456734Y343067D01*
X456734Y343065D01*
X456790Y342984D01*
X456845Y342904D01*
X456847Y342902D01*
X456849Y342900D01*
X456932Y342847D01*
X457013Y342795D01*
X457016Y342794D01*
X457018Y342793D01*
X457114Y342776D01*
X457210Y342759D01*
X457213Y342760D01*
X457215Y342759D01*
X457309Y342781D01*
X457406Y342803D01*
X457408Y342804D01*
X457411Y342805D01*
X457559Y342907D01*
X466537Y351885D01*
X466541Y351892D01*
X466547Y351897D01*
X466596Y351975D01*
X466648Y352052D01*
X466649Y352060D01*
X466653Y352067D01*
X466685Y352244D01*
X466685Y360842D01*
X467578Y361735D01*
X479842Y361735D01*
X480735Y360842D01*
X480735Y349578D01*
X479842Y348685D01*
X472888Y348685D01*
X472880Y348684D01*
X472873Y348685D01*
X472783Y348664D01*
X472692Y348646D01*
X472685Y348641D01*
X472677Y348639D01*
X472529Y348537D01*
X469593Y345601D01*
X469592Y345598D01*
X469590Y345597D01*
X469537Y345516D01*
X469482Y345434D01*
X469482Y345431D01*
X469481Y345429D01*
X469463Y345333D01*
X469445Y345237D01*
X469445Y345234D01*
X469445Y345232D01*
X469466Y345135D01*
X469486Y345041D01*
X469488Y345039D01*
X469489Y345036D01*
X469545Y344956D01*
X469601Y344876D01*
X469603Y344875D01*
X469605Y344873D01*
X469687Y344821D01*
X469770Y344769D01*
X469773Y344768D01*
X469775Y344767D01*
X469952Y344735D01*
X479842Y344735D01*
X480735Y343842D01*
X480735Y332578D01*
X479842Y331685D01*
X479524Y331685D01*
X479519Y331684D01*
X479514Y331685D01*
X479421Y331664D01*
X479327Y331646D01*
X479323Y331643D01*
X479318Y331642D01*
X479240Y331586D01*
X479162Y331533D01*
X479159Y331529D01*
X479155Y331526D01*
X479104Y331444D01*
X479052Y331365D01*
X479052Y331360D01*
X479049Y331355D01*
X479017Y331178D01*
X479017Y328342D01*
X479018Y328337D01*
X479017Y328332D01*
X479038Y328239D01*
X479056Y328145D01*
X479059Y328141D01*
X479060Y328136D01*
X479116Y328058D01*
X479169Y327980D01*
X479173Y327977D01*
X479176Y327973D01*
X479258Y327922D01*
X479337Y327870D01*
X479342Y327870D01*
X479347Y327867D01*
X479524Y327835D01*
X480232Y327835D01*
X481125Y326942D01*
X481125Y317230D01*
X481125Y317228D01*
X481125Y317225D01*
X481145Y317129D01*
X481164Y317034D01*
X481166Y317031D01*
X481166Y317029D01*
X481222Y316948D01*
X481277Y316868D01*
X481279Y316866D01*
X481281Y316864D01*
X481364Y316811D01*
X481445Y316759D01*
X481448Y316758D01*
X481450Y316757D01*
X481546Y316740D01*
X481642Y316723D01*
X481645Y316724D01*
X481647Y316723D01*
X481742Y316745D01*
X481838Y316767D01*
X481840Y316768D01*
X481843Y316769D01*
X481991Y316871D01*
X483927Y318807D01*
X483931Y318814D01*
X483937Y318819D01*
X483986Y318897D01*
X484038Y318974D01*
X484039Y318982D01*
X484043Y318989D01*
X484075Y319166D01*
X484075Y326942D01*
X484968Y327835D01*
X497232Y327835D01*
X498125Y326942D01*
X498125Y315678D01*
X497232Y314785D01*
X489456Y314785D01*
X489448Y314784D01*
X489441Y314785D01*
X489351Y314764D01*
X489260Y314746D01*
X489253Y314741D01*
X489245Y314739D01*
X489097Y314637D01*
X481516Y307055D01*
X471772Y307055D01*
X471764Y307054D01*
X471757Y307055D01*
X471667Y307034D01*
X471576Y307016D01*
X471569Y307011D01*
X471562Y307009D01*
X471414Y306907D01*
X469558Y305051D01*
X465162Y305051D01*
X462053Y308160D01*
X462053Y309198D01*
X462052Y309203D01*
X462053Y309208D01*
X462032Y309301D01*
X462014Y309395D01*
X462011Y309399D01*
X462010Y309404D01*
X461954Y309482D01*
X461901Y309560D01*
X461897Y309563D01*
X461894Y309568D01*
X461812Y309618D01*
X461733Y309670D01*
X461728Y309671D01*
X461723Y309673D01*
X461546Y309705D01*
X447493Y309705D01*
X447399Y309800D01*
X447396Y309801D01*
X447395Y309803D01*
X447313Y309857D01*
X447232Y309910D01*
X447229Y309911D01*
X447227Y309912D01*
X447130Y309930D01*
X447035Y309948D01*
X447032Y309948D01*
X447030Y309948D01*
X446933Y309926D01*
X446839Y309907D01*
X446837Y309905D01*
X446834Y309904D01*
X446754Y309848D01*
X446674Y309792D01*
X446673Y309790D01*
X446671Y309788D01*
X446619Y309705D01*
X446567Y309623D01*
X446566Y309620D01*
X446565Y309618D01*
X446533Y309441D01*
X446533Y297977D01*
X446533Y297975D01*
X446533Y297972D01*
X446553Y297877D01*
X446572Y297781D01*
X446574Y297779D01*
X446574Y297776D01*
X446631Y297695D01*
X446685Y297615D01*
X446687Y297614D01*
X446689Y297611D01*
X446772Y297558D01*
X446853Y297506D01*
X446856Y297505D01*
X446858Y297504D01*
X446954Y297488D01*
X447050Y297470D01*
X447053Y297471D01*
X447055Y297470D01*
X447150Y297492D01*
X447246Y297514D01*
X447248Y297515D01*
X447251Y297516D01*
X447399Y297619D01*
X448816Y299036D01*
X453212Y299036D01*
X455067Y297180D01*
X455074Y297176D01*
X455078Y297169D01*
X455157Y297120D01*
X455234Y297069D01*
X455242Y297068D01*
X455249Y297064D01*
X455426Y297032D01*
X456192Y297032D01*
X458275Y294948D01*
X458312Y294911D01*
X458392Y294858D01*
X458471Y294803D01*
X458475Y294803D01*
X458479Y294800D01*
X458573Y294782D01*
X458668Y294763D01*
X458672Y294763D01*
X458676Y294763D01*
X458769Y294782D01*
X458864Y294801D01*
X458868Y294803D01*
X458872Y294804D01*
X458903Y294826D01*
X458988Y294880D01*
X459002Y294880D01*
X459072Y294891D01*
X459142Y294894D01*
X459172Y294908D01*
X459200Y294912D01*
X459244Y294940D01*
X459307Y294968D01*
X461266Y296304D01*
X461315Y296355D01*
X461370Y296399D01*
X461386Y296428D01*
X461406Y296448D01*
X461425Y296496D01*
X461459Y296556D01*
X461460Y296561D01*
X462045Y296843D01*
X462073Y296864D01*
X462111Y296881D01*
X462647Y297247D01*
X462652Y297246D01*
X462723Y297246D01*
X462793Y297239D01*
X462824Y297248D01*
X462852Y297248D01*
X462900Y297269D01*
X462966Y297287D01*
X465103Y298317D01*
X465159Y298359D01*
X465220Y298395D01*
X465240Y298421D01*
X465262Y298438D01*
X465288Y298482D01*
X465331Y298537D01*
X465333Y298542D01*
X465954Y298733D01*
X465984Y298750D01*
X466024Y298761D01*
X466609Y299042D01*
X466614Y299041D01*
X466684Y299031D01*
X466752Y299013D01*
X466785Y299017D01*
X466812Y299013D01*
X466862Y299026D01*
X466931Y299035D01*
X469197Y299734D01*
X469259Y299768D01*
X469324Y299794D01*
X469348Y299817D01*
X469373Y299830D01*
X469405Y299871D01*
X469455Y299918D01*
X469458Y299923D01*
X470100Y300019D01*
X470133Y300031D01*
X470174Y300036D01*
X470794Y300228D01*
X470799Y300225D01*
X470821Y300219D01*
X470825Y300216D01*
X470838Y300214D01*
X470867Y300205D01*
X470931Y300177D01*
X470964Y300176D01*
X470991Y300168D01*
X471042Y300174D01*
X471112Y300172D01*
X473456Y300526D01*
X473523Y300551D01*
X473591Y300567D01*
X473618Y300585D01*
X473645Y300595D01*
X473683Y300630D01*
X473739Y300669D01*
X473743Y300673D01*
X474392Y300673D01*
X474426Y300680D01*
X474468Y300679D01*
X475109Y300776D01*
X475114Y300773D01*
X475178Y300743D01*
X475238Y300706D01*
X475270Y300700D01*
X475295Y300688D01*
X475347Y300686D01*
X475415Y300674D01*
X477786Y300675D01*
X477856Y300689D01*
X477926Y300694D01*
X477955Y300709D01*
X477983Y300714D01*
X478026Y300743D01*
X478088Y300774D01*
X478092Y300777D01*
X478734Y300681D01*
X478768Y300682D01*
X478809Y300675D01*
X479458Y300675D01*
X479462Y300671D01*
X479521Y300632D01*
X479575Y300586D01*
X479606Y300576D01*
X479629Y300560D01*
X479680Y300551D01*
X479745Y300528D01*
X482090Y300176D01*
X482161Y300179D01*
X482231Y300174D01*
X482262Y300184D01*
X482290Y300186D01*
X482337Y300208D01*
X482382Y300222D01*
X482388Y300224D01*
X482391Y300225D01*
X482403Y300229D01*
X482408Y300232D01*
X483028Y300040D01*
X483062Y300037D01*
X483102Y300024D01*
X483743Y299927D01*
X483747Y299923D01*
X483799Y299875D01*
X483845Y299822D01*
X483874Y299807D01*
X483895Y299788D01*
X483944Y299771D01*
X484005Y299739D01*
X486272Y299041D01*
X486342Y299034D01*
X486411Y299019D01*
X486443Y299024D01*
X486471Y299021D01*
X486520Y299036D01*
X486589Y299047D01*
X486594Y299049D01*
X487179Y298767D01*
X487212Y298759D01*
X487249Y298740D01*
X487869Y298549D01*
X487872Y298544D01*
X487916Y298489D01*
X487954Y298430D01*
X487981Y298410D01*
X487999Y298389D01*
X488044Y298365D01*
X488100Y298324D01*
X489338Y297728D01*
X489422Y297707D01*
X489505Y297681D01*
X489519Y297682D01*
X489532Y297679D01*
X489618Y297692D01*
X489704Y297700D01*
X489717Y297706D01*
X489731Y297708D01*
X489804Y297753D01*
X489881Y297794D01*
X489891Y297806D01*
X489902Y297813D01*
X489935Y297857D01*
X489997Y297932D01*
X508889Y330653D01*
X510126Y329799D01*
X510153Y329788D01*
X510175Y329769D01*
X510244Y329749D01*
X510309Y329721D01*
X510338Y329721D01*
X510366Y329713D01*
X510437Y329721D01*
X510508Y329721D01*
X510535Y329732D01*
X510564Y329735D01*
X510626Y329770D01*
X510691Y329798D01*
X510712Y329818D01*
X510737Y329833D01*
X510800Y329910D01*
X510830Y329940D01*
X510834Y329950D01*
X510843Y329961D01*
X520343Y346461D01*
X520353Y346493D01*
X520362Y346506D01*
X520366Y346530D01*
X520367Y346534D01*
X520398Y346604D01*
X520398Y346628D01*
X520406Y346650D01*
X520400Y346726D01*
X520401Y346803D01*
X520391Y346827D01*
X520390Y346848D01*
X520369Y346887D01*
X520343Y346959D01*
X510843Y363459D01*
X510824Y363481D01*
X510811Y363507D01*
X510758Y363555D01*
X510711Y363608D01*
X510685Y363621D01*
X510664Y363640D01*
X510596Y363663D01*
X510532Y363694D01*
X510503Y363696D01*
X510476Y363705D01*
X510404Y363700D01*
X510333Y363703D01*
X510306Y363693D01*
X510277Y363691D01*
X510187Y363649D01*
X510147Y363634D01*
X510139Y363627D01*
X510126Y363621D01*
X508889Y362767D01*
X489997Y395488D01*
X489940Y395553D01*
X489886Y395621D01*
X489874Y395628D01*
X489865Y395639D01*
X489787Y395676D01*
X489711Y395718D01*
X489697Y395720D01*
X489684Y395726D01*
X489598Y395730D01*
X489512Y395740D01*
X489497Y395736D01*
X489484Y395736D01*
X489432Y395718D01*
X489338Y395692D01*
X488100Y395096D01*
X488044Y395053D01*
X487983Y395018D01*
X487963Y394992D01*
X487940Y394975D01*
X487914Y394930D01*
X487872Y394876D01*
X487869Y394871D01*
X487249Y394680D01*
X487219Y394664D01*
X487179Y394653D01*
X486594Y394371D01*
X486589Y394373D01*
X486519Y394383D01*
X486450Y394401D01*
X486418Y394397D01*
X486390Y394401D01*
X486340Y394387D01*
X486272Y394379D01*
X484005Y393681D01*
X483943Y393647D01*
X483878Y393621D01*
X483854Y393598D01*
X483829Y393585D01*
X483797Y393545D01*
X483747Y393497D01*
X483743Y393493D01*
X483102Y393396D01*
X483069Y393385D01*
X483028Y393380D01*
X482408Y393188D01*
X482403Y393191D01*
X482335Y393211D01*
X482270Y393239D01*
X482238Y393240D01*
X482211Y393248D01*
X482159Y393242D01*
X482090Y393244D01*
X479745Y392892D01*
X479679Y392868D01*
X479610Y392851D01*
X479583Y392833D01*
X479557Y392823D01*
X479519Y392788D01*
X479462Y392749D01*
X479458Y392745D01*
X478809Y392745D01*
X478775Y392738D01*
X478734Y392739D01*
X478092Y392643D01*
X478088Y392646D01*
X478024Y392676D01*
X477964Y392713D01*
X477931Y392719D01*
X477906Y392731D01*
X477854Y392733D01*
X477786Y392745D01*
X475415Y392746D01*
X475346Y392732D01*
X475275Y392727D01*
X475246Y392712D01*
X475219Y392707D01*
X475176Y392678D01*
X475114Y392647D01*
X475109Y392644D01*
X474468Y392741D01*
X474433Y392739D01*
X474392Y392747D01*
X473743Y392747D01*
X473739Y392751D01*
X473681Y392790D01*
X473627Y392835D01*
X473596Y392846D01*
X473572Y392862D01*
X473522Y392871D01*
X473456Y392894D01*
X471112Y393248D01*
X471041Y393244D01*
X470971Y393249D01*
X470939Y393239D01*
X470911Y393238D01*
X470865Y393216D01*
X470799Y393195D01*
X470794Y393192D01*
X470174Y393384D01*
X470140Y393387D01*
X470100Y393401D01*
X469726Y393457D01*
X469680Y393455D01*
X469635Y393463D01*
X469581Y393450D01*
X469526Y393447D01*
X469484Y393427D01*
X469439Y393417D01*
X469388Y393382D01*
X469345Y393361D01*
X469323Y393336D01*
X469291Y393314D01*
X467751Y391773D01*
X467746Y391767D01*
X467740Y391762D01*
X467691Y391684D01*
X467640Y391606D01*
X467638Y391599D01*
X467634Y391592D01*
X467602Y391415D01*
X467602Y388791D01*
X464493Y385682D01*
X460097Y385682D01*
X456989Y388791D01*
X456989Y393187D01*
X460097Y396296D01*
X460824Y396296D01*
X460873Y396306D01*
X460923Y396305D01*
X460970Y396325D01*
X461021Y396335D01*
X461062Y396363D01*
X461108Y396383D01*
X461144Y396419D01*
X461186Y396448D01*
X461214Y396490D01*
X461249Y396526D01*
X461268Y396573D01*
X461296Y396616D01*
X461304Y396665D01*
X461323Y396712D01*
X461322Y396763D01*
X461331Y396813D01*
X461320Y396862D01*
X461319Y396912D01*
X461299Y396959D01*
X461288Y397009D01*
X461259Y397050D01*
X461238Y397096D01*
X461198Y397136D01*
X461172Y397172D01*
X461141Y397191D01*
X461110Y397222D01*
X459307Y398452D01*
X459242Y398480D01*
X459180Y398515D01*
X459148Y398519D01*
X459122Y398530D01*
X459071Y398530D01*
X459002Y398540D01*
X458997Y398540D01*
X458521Y398981D01*
X458492Y398999D01*
X458462Y399029D01*
X457926Y399394D01*
X457925Y399400D01*
X457898Y399465D01*
X457880Y399533D01*
X457860Y399560D01*
X457849Y399585D01*
X457813Y399622D01*
X457771Y399677D01*
X456034Y401291D01*
X455973Y401328D01*
X455918Y401371D01*
X455887Y401381D01*
X455863Y401395D01*
X455812Y401403D01*
X455745Y401423D01*
X455740Y401424D01*
X455336Y401931D01*
X455309Y401954D01*
X455284Y401987D01*
X454808Y402428D01*
X454808Y402434D01*
X454792Y402503D01*
X454784Y402573D01*
X454768Y402601D01*
X454761Y402629D01*
X454731Y402670D01*
X454698Y402731D01*
X453220Y404586D01*
X453166Y404631D01*
X453118Y404683D01*
X453088Y404697D01*
X453067Y404715D01*
X453017Y404730D01*
X452955Y404759D01*
X452950Y404761D01*
X452625Y405323D01*
X452602Y405349D01*
X452583Y405386D01*
X452178Y405893D01*
X452179Y405898D01*
X452173Y405969D01*
X452175Y406039D01*
X452164Y406070D01*
X452162Y406098D01*
X452138Y406144D01*
X452114Y406209D01*
X450929Y408263D01*
X450882Y408316D01*
X450842Y408374D01*
X450815Y408392D01*
X450797Y408413D01*
X450750Y408436D01*
X450693Y408474D01*
X450688Y408477D01*
X450451Y409081D01*
X450432Y409110D01*
X450418Y409149D01*
X450094Y409711D01*
X450095Y409716D01*
X450100Y409787D01*
X450112Y409856D01*
X450106Y409888D01*
X450108Y409916D01*
X450091Y409965D01*
X450077Y410033D01*
X449212Y412241D01*
X449174Y412300D01*
X449143Y412363D01*
X449118Y412386D01*
X449103Y412409D01*
X449061Y412438D01*
X449010Y412485D01*
X449005Y412488D01*
X448861Y413121D01*
X448846Y413152D01*
X448838Y413193D01*
X448601Y413797D01*
X448604Y413802D01*
X448619Y413871D01*
X448642Y413938D01*
X448640Y413971D01*
X448646Y413998D01*
X448637Y414049D01*
X448633Y414118D01*
X448106Y416430D01*
X448077Y416494D01*
X448056Y416562D01*
X448036Y416587D01*
X448024Y416613D01*
X447986Y416648D01*
X447943Y416702D01*
X447939Y416705D01*
X447890Y417352D01*
X447881Y417386D01*
X447879Y417427D01*
X447735Y418060D01*
X447738Y418065D01*
X447763Y418131D01*
X447796Y418193D01*
X447799Y418226D01*
X447809Y418252D01*
X447807Y418304D01*
X447814Y418372D01*
X447638Y420737D01*
X447619Y420805D01*
X447608Y420875D01*
X447591Y420903D01*
X447584Y420930D01*
X447552Y420971D01*
X447517Y421030D01*
X447513Y421034D01*
X447562Y421681D01*
X447557Y421716D01*
X447562Y421757D01*
X447513Y422404D01*
X447517Y422408D01*
X447552Y422470D01*
X447593Y422527D01*
X447602Y422559D01*
X447615Y422583D01*
X447621Y422635D01*
X447639Y422701D01*
X447816Y425066D01*
X447808Y425136D01*
X447807Y425207D01*
X447795Y425237D01*
X447792Y425265D01*
X447766Y425310D01*
X447740Y425374D01*
X447737Y425379D01*
X447882Y426011D01*
X447883Y426046D01*
X447893Y426086D01*
X447942Y426733D01*
X447946Y426737D01*
X447990Y426793D01*
X448039Y426843D01*
X448052Y426873D01*
X448069Y426895D01*
X448083Y426945D01*
X448110Y427008D01*
X448638Y429320D01*
X448640Y429391D01*
X448650Y429461D01*
X448643Y429492D01*
X448643Y429520D01*
X448625Y429569D01*
X448609Y429636D01*
X448607Y429641D01*
X448844Y430245D01*
X448850Y430279D01*
X448866Y430317D01*
X449011Y430950D01*
X449015Y430953D01*
X449067Y431001D01*
X449123Y431044D01*
X449140Y431071D01*
X449161Y431091D01*
X449182Y431138D01*
X449218Y431197D01*
X450085Y433404D01*
X450097Y433474D01*
X450118Y433541D01*
X450115Y433574D01*
X450120Y433601D01*
X450109Y433652D01*
X450103Y433721D01*
X450101Y433726D01*
X450426Y434288D01*
X450437Y434321D01*
X450459Y434356D01*
X450696Y434960D01*
X450701Y434962D01*
X450759Y435003D01*
X450821Y435036D01*
X450843Y435061D01*
X450866Y435077D01*
X450893Y435121D01*
X450938Y435173D01*
X452124Y437227D01*
X452147Y437294D01*
X452177Y437357D01*
X452179Y437390D01*
X452188Y437417D01*
X452184Y437468D01*
X452189Y437537D01*
X452188Y437543D01*
X452593Y438050D01*
X452609Y438081D01*
X452636Y438112D01*
X452960Y438674D01*
X452966Y438676D01*
X453010Y438698D01*
X453035Y438703D01*
X453055Y438716D01*
X453096Y438731D01*
X453120Y438752D01*
X453145Y438765D01*
X453173Y438796D01*
X453201Y438815D01*
X453212Y438832D01*
X453231Y438849D01*
X454710Y440703D01*
X454742Y440766D01*
X454782Y440824D01*
X454789Y440856D01*
X454802Y440881D01*
X454806Y440933D01*
X454821Y441000D01*
X454821Y441006D01*
X455297Y441447D01*
X455317Y441475D01*
X455348Y441502D01*
X455753Y442010D01*
X455758Y442010D01*
X455826Y442032D01*
X455895Y442045D01*
X455923Y442063D01*
X455949Y442072D01*
X455988Y442105D01*
X456047Y442142D01*
X457786Y443755D01*
X457827Y443812D01*
X457875Y443864D01*
X457886Y443895D01*
X457903Y443917D01*
X457914Y443968D01*
X457939Y444032D01*
X457940Y444038D01*
X458476Y444403D01*
X458501Y444428D01*
X458536Y444450D01*
X459011Y444891D01*
X459017Y444891D01*
X459087Y444903D01*
X459157Y444906D01*
X459187Y444919D01*
X459215Y444923D01*
X459259Y444951D01*
X459322Y444979D01*
X460442Y445742D01*
X460502Y445804D01*
X460566Y445863D01*
X460572Y445876D01*
X460582Y445886D01*
X460614Y445966D01*
X460650Y446045D01*
X460651Y446059D01*
X460656Y446072D01*
X460654Y446158D01*
X460657Y446245D01*
X460652Y446259D01*
X460651Y446272D01*
X460629Y446323D01*
X460596Y446415D01*
X432581Y494940D01*
X432532Y494995D01*
X432489Y495055D01*
X432466Y495070D01*
X432448Y495090D01*
X432382Y495122D01*
X432319Y495161D01*
X432290Y495166D01*
X432268Y495177D01*
X432214Y495180D01*
X432141Y495193D01*
X261279Y495193D01*
X261206Y495179D01*
X261132Y495172D01*
X261109Y495159D01*
X261082Y495154D01*
X261021Y495112D01*
X260956Y495077D01*
X260937Y495055D01*
X260916Y495041D01*
X260887Y494996D01*
X260839Y494940D01*
X232824Y446415D01*
X232797Y446333D01*
X232765Y446252D01*
X232765Y446238D01*
X232760Y446225D01*
X232767Y446138D01*
X232768Y446052D01*
X232774Y446039D01*
X232775Y446025D01*
X232814Y445948D01*
X232850Y445868D01*
X232860Y445858D01*
X232866Y445846D01*
X232909Y445810D01*
X232978Y445742D01*
X234098Y444979D01*
X234163Y444952D01*
X234225Y444917D01*
X234257Y444912D01*
X234283Y444901D01*
X234335Y444901D01*
X234403Y444891D01*
X234409Y444891D01*
X234884Y444450D01*
X234914Y444432D01*
X234944Y444403D01*
X235480Y444038D01*
X235481Y444032D01*
X235508Y443967D01*
X235526Y443899D01*
X235546Y443873D01*
X235556Y443847D01*
X235593Y443810D01*
X235634Y443755D01*
X237373Y442142D01*
X237434Y442106D01*
X237489Y442062D01*
X237520Y442052D01*
X237544Y442038D01*
X237595Y442030D01*
X237662Y442010D01*
X237667Y442010D01*
X238072Y441502D01*
X238098Y441480D01*
X238123Y441447D01*
X238599Y441006D01*
X238599Y441000D01*
X238616Y440932D01*
X238624Y440861D01*
X238640Y440833D01*
X238646Y440805D01*
X238677Y440764D01*
X238710Y440703D01*
X240189Y438849D01*
X240216Y438827D01*
X240234Y438801D01*
X240262Y438784D01*
X240291Y438753D01*
X240321Y438739D01*
X240342Y438721D01*
X240385Y438707D01*
X240404Y438695D01*
X240418Y438693D01*
X240454Y438676D01*
X240460Y438674D01*
X240784Y438112D01*
X240807Y438086D01*
X240827Y438050D01*
X241232Y437543D01*
X241231Y437537D01*
X241237Y437467D01*
X241235Y437396D01*
X241246Y437365D01*
X241248Y437337D01*
X241272Y437292D01*
X241296Y437227D01*
X242482Y435173D01*
X242529Y435120D01*
X242569Y435062D01*
X242596Y435044D01*
X242615Y435023D01*
X242661Y435001D01*
X242719Y434962D01*
X242724Y434960D01*
X242961Y434356D01*
X242980Y434327D01*
X242994Y434288D01*
X243319Y433726D01*
X243317Y433721D01*
X243313Y433650D01*
X243300Y433581D01*
X243306Y433549D01*
X243305Y433521D01*
X243322Y433472D01*
X243335Y433404D01*
X244202Y431197D01*
X244240Y431138D01*
X244271Y431074D01*
X244296Y431052D01*
X244311Y431028D01*
X244353Y430999D01*
X244405Y430953D01*
X244409Y430950D01*
X244554Y430317D01*
X244568Y430286D01*
X244576Y430245D01*
X244813Y429641D01*
X244811Y429636D01*
X244796Y429567D01*
X244773Y429500D01*
X244775Y429467D01*
X244769Y429440D01*
X244779Y429389D01*
X244782Y429320D01*
X245310Y427008D01*
X245339Y426944D01*
X245360Y426877D01*
X245381Y426851D01*
X245393Y426826D01*
X245430Y426791D01*
X245474Y426737D01*
X245478Y426733D01*
X245527Y426086D01*
X245536Y426053D01*
X245538Y426011D01*
X245683Y425379D01*
X245680Y425374D01*
X245655Y425308D01*
X245622Y425245D01*
X245619Y425213D01*
X245609Y425186D01*
X245611Y425135D01*
X245604Y425066D01*
X245781Y422701D01*
X245801Y422634D01*
X245811Y422564D01*
X245828Y422535D01*
X245836Y422508D01*
X245868Y422468D01*
X245903Y422408D01*
X245907Y422404D01*
X245858Y421757D01*
X245863Y421723D01*
X245858Y421681D01*
X245907Y421034D01*
X245903Y421030D01*
X245869Y420969D01*
X245827Y420912D01*
X245819Y420880D01*
X245805Y420855D01*
X245799Y420804D01*
X245782Y420737D01*
X245606Y418372D01*
X245614Y418302D01*
X245615Y418232D01*
X245627Y418201D01*
X245631Y418173D01*
X245656Y418129D01*
X245682Y418065D01*
X245685Y418060D01*
X245541Y417427D01*
X245540Y417393D01*
X245530Y417352D01*
X245481Y416705D01*
X245477Y416702D01*
X245434Y416646D01*
X245384Y416596D01*
X245371Y416566D01*
X245354Y416543D01*
X245341Y416493D01*
X245314Y416430D01*
X244787Y414118D01*
X244785Y414047D01*
X244775Y413977D01*
X244782Y413946D01*
X244782Y413918D01*
X244800Y413869D01*
X244816Y413802D01*
X244819Y413797D01*
X244582Y413193D01*
X244576Y413159D01*
X244559Y413121D01*
X244415Y412488D01*
X244410Y412485D01*
X244359Y412436D01*
X244303Y412394D01*
X244286Y412366D01*
X244265Y412347D01*
X244245Y412300D01*
X244208Y412241D01*
X243343Y410033D01*
X243330Y409963D01*
X243310Y409896D01*
X243313Y409863D01*
X243308Y409836D01*
X243319Y409785D01*
X243325Y409716D01*
X243326Y409711D01*
X243002Y409149D01*
X242991Y409116D01*
X242969Y409081D01*
X242732Y408477D01*
X242727Y408474D01*
X242669Y408434D01*
X242607Y408401D01*
X242586Y408376D01*
X242563Y408359D01*
X242536Y408316D01*
X242491Y408263D01*
X241306Y406209D01*
X241283Y406142D01*
X241253Y406078D01*
X241251Y406046D01*
X241242Y406019D01*
X241246Y405968D01*
X241241Y405898D01*
X241242Y405893D01*
X240837Y405386D01*
X240821Y405355D01*
X240795Y405323D01*
X240470Y404761D01*
X240465Y404759D01*
X240402Y404728D01*
X240335Y404704D01*
X240311Y404683D01*
X240286Y404670D01*
X240252Y404631D01*
X240200Y404586D01*
X238722Y402731D01*
X238690Y402668D01*
X238650Y402610D01*
X238643Y402578D01*
X238630Y402553D01*
X238626Y402501D01*
X238612Y402434D01*
X238612Y402428D01*
X238136Y401987D01*
X238116Y401959D01*
X238084Y401931D01*
X237680Y401424D01*
X237675Y401423D01*
X237607Y401402D01*
X237538Y401388D01*
X237510Y401370D01*
X237484Y401362D01*
X237445Y401328D01*
X237386Y401291D01*
X235649Y399677D01*
X235607Y399620D01*
X235560Y399568D01*
X235548Y399537D01*
X235532Y399515D01*
X235520Y399464D01*
X235495Y399400D01*
X235494Y399394D01*
X234958Y399029D01*
X234934Y399004D01*
X234899Y398981D01*
X234423Y398540D01*
X234418Y398540D01*
X234348Y398529D01*
X234278Y398526D01*
X234248Y398512D01*
X234220Y398508D01*
X234176Y398480D01*
X234113Y398452D01*
X232154Y397116D01*
X232105Y397065D01*
X232050Y397021D01*
X232034Y396992D01*
X232014Y396972D01*
X231995Y396924D01*
X231961Y396864D01*
X231960Y396859D01*
X231375Y396577D01*
X231347Y396556D01*
X231309Y396539D01*
X230773Y396173D01*
X230768Y396174D01*
X230697Y396174D01*
X230627Y396181D01*
X230596Y396172D01*
X230568Y396172D01*
X230520Y396151D01*
X230454Y396133D01*
X228317Y395103D01*
X228261Y395061D01*
X228200Y395025D01*
X228180Y394999D01*
X228158Y394982D01*
X228132Y394938D01*
X228089Y394883D01*
X228087Y394878D01*
X227466Y394687D01*
X227436Y394670D01*
X227396Y394659D01*
X226811Y394378D01*
X226806Y394379D01*
X226736Y394389D01*
X226668Y394407D01*
X226635Y394403D01*
X226608Y394407D01*
X226558Y394394D01*
X226489Y394385D01*
X224223Y393686D01*
X224161Y393652D01*
X224096Y393626D01*
X224072Y393603D01*
X224047Y393590D01*
X224015Y393549D01*
X223965Y393502D01*
X223962Y393497D01*
X223320Y393401D01*
X223287Y393389D01*
X223246Y393384D01*
X222626Y393192D01*
X222621Y393195D01*
X222553Y393215D01*
X222489Y393243D01*
X222456Y393244D01*
X222429Y393252D01*
X222378Y393246D01*
X222308Y393248D01*
X219964Y392894D01*
X219897Y392869D01*
X219829Y392853D01*
X219802Y392835D01*
X219775Y392825D01*
X219737Y392790D01*
X219681Y392751D01*
X219677Y392747D01*
X219028Y392747D01*
X218994Y392740D01*
X218952Y392741D01*
X218311Y392644D01*
X218306Y392647D01*
X218242Y392677D01*
X218182Y392714D01*
X218150Y392720D01*
X218125Y392732D01*
X218073Y392734D01*
X218005Y392746D01*
X215634Y392745D01*
X215564Y392731D01*
X215494Y392726D01*
X215465Y392711D01*
X215437Y392706D01*
X215394Y392677D01*
X215332Y392646D01*
X215328Y392643D01*
X214686Y392739D01*
X214652Y392738D01*
X214611Y392745D01*
X213962Y392745D01*
X213958Y392749D01*
X213899Y392788D01*
X213845Y392834D01*
X213814Y392844D01*
X213791Y392860D01*
X213740Y392869D01*
X213675Y392892D01*
X212405Y393083D01*
X212359Y393080D01*
X212314Y393088D01*
X212260Y393075D01*
X212205Y393073D01*
X212164Y393053D01*
X212119Y393042D01*
X212068Y393007D01*
X212024Y392986D01*
X212003Y392962D01*
X211971Y392940D01*
X210764Y391733D01*
X210760Y391726D01*
X210754Y391722D01*
X210705Y391643D01*
X210653Y391566D01*
X210652Y391558D01*
X210648Y391552D01*
X210616Y391374D01*
X210616Y388750D01*
X207507Y385642D01*
X203111Y385642D01*
X200172Y388581D01*
X200112Y388620D01*
X200058Y388666D01*
X200030Y388675D01*
X200005Y388692D01*
X199935Y388705D01*
X199867Y388726D01*
X199837Y388724D01*
X199808Y388729D01*
X199738Y388714D01*
X199667Y388708D01*
X199641Y388694D01*
X199612Y388688D01*
X199553Y388647D01*
X199490Y388613D01*
X199470Y388589D01*
X199447Y388573D01*
X199419Y388529D01*
X199374Y388476D01*
X184531Y362767D01*
X183294Y363621D01*
X183267Y363632D01*
X183245Y363651D01*
X183176Y363671D01*
X183111Y363699D01*
X183082Y363699D01*
X183054Y363707D01*
X182983Y363699D01*
X182912Y363700D01*
X182885Y363688D01*
X182856Y363685D01*
X182794Y363650D01*
X182729Y363622D01*
X182708Y363602D01*
X182683Y363587D01*
X182620Y363510D01*
X182590Y363480D01*
X182586Y363470D01*
X182577Y363459D01*
X173077Y346959D01*
X173053Y346886D01*
X173022Y346816D01*
X173022Y346792D01*
X173014Y346770D01*
X173021Y346694D01*
X173020Y346617D01*
X173029Y346593D01*
X173030Y346572D01*
X173051Y346533D01*
X173070Y346481D01*
X173071Y346475D01*
X173073Y346473D01*
X173077Y346461D01*
X182577Y329961D01*
X182596Y329939D01*
X182609Y329913D01*
X182662Y329865D01*
X182709Y329812D01*
X182735Y329799D01*
X182757Y329780D01*
X182824Y329757D01*
X182888Y329726D01*
X182917Y329725D01*
X182944Y329715D01*
X183016Y329720D01*
X183087Y329717D01*
X183114Y329727D01*
X183143Y329729D01*
X183233Y329771D01*
X183273Y329786D01*
X183281Y329793D01*
X183294Y329799D01*
X184531Y330653D01*
X203423Y297932D01*
X203480Y297867D01*
X203534Y297799D01*
X203546Y297792D01*
X203555Y297781D01*
X203633Y297744D01*
X203709Y297702D01*
X203723Y297700D01*
X203736Y297694D01*
X203822Y297690D01*
X203908Y297680D01*
X203923Y297684D01*
X203936Y297684D01*
X203988Y297702D01*
X204082Y297728D01*
X205320Y298324D01*
X205376Y298367D01*
X205437Y298402D01*
X205457Y298428D01*
X205480Y298445D01*
X205505Y298489D01*
X205548Y298544D01*
X205551Y298549D01*
X206171Y298740D01*
X206201Y298756D01*
X206241Y298767D01*
X206826Y299049D01*
X206831Y299047D01*
X206901Y299037D01*
X206970Y299019D01*
X207002Y299023D01*
X207030Y299019D01*
X207080Y299033D01*
X207148Y299041D01*
X209415Y299739D01*
X209477Y299773D01*
X209542Y299799D01*
X209566Y299822D01*
X209591Y299835D01*
X209623Y299875D01*
X209673Y299923D01*
X209677Y299927D01*
X210318Y300024D01*
X210351Y300035D01*
X210392Y300040D01*
X211012Y300232D01*
X211017Y300229D01*
X211041Y300222D01*
X211051Y300216D01*
X211077Y300211D01*
X211085Y300209D01*
X211150Y300181D01*
X211182Y300180D01*
X211209Y300172D01*
X211261Y300178D01*
X211330Y300176D01*
X213675Y300528D01*
X213741Y300552D01*
X213810Y300569D01*
X213837Y300587D01*
X213863Y300597D01*
X213901Y300632D01*
X213958Y300671D01*
X213962Y300675D01*
X214611Y300675D01*
X214645Y300682D01*
X214686Y300681D01*
X215328Y300777D01*
X215332Y300774D01*
X215396Y300744D01*
X215456Y300707D01*
X215489Y300701D01*
X215514Y300689D01*
X215566Y300687D01*
X215634Y300675D01*
X218005Y300674D01*
X218074Y300688D01*
X218145Y300693D01*
X218174Y300708D01*
X218201Y300713D01*
X218244Y300742D01*
X218306Y300773D01*
X218311Y300776D01*
X218952Y300679D01*
X218987Y300681D01*
X219028Y300673D01*
X219677Y300673D01*
X219681Y300669D01*
X219739Y300630D01*
X219793Y300585D01*
X219824Y300574D01*
X219848Y300558D01*
X219898Y300549D01*
X219964Y300526D01*
X222308Y300172D01*
X222379Y300176D01*
X222449Y300171D01*
X222481Y300181D01*
X222509Y300182D01*
X222555Y300204D01*
X222621Y300225D01*
X222626Y300228D01*
X223246Y300036D01*
X223280Y300033D01*
X223320Y300019D01*
X223962Y299923D01*
X223965Y299918D01*
X224017Y299871D01*
X224063Y299817D01*
X224093Y299802D01*
X224113Y299783D01*
X224162Y299766D01*
X224223Y299734D01*
X226489Y299035D01*
X226559Y299028D01*
X226628Y299012D01*
X226661Y299017D01*
X226689Y299015D01*
X226738Y299030D01*
X226806Y299041D01*
X226811Y299042D01*
X227396Y298761D01*
X227430Y298752D01*
X227466Y298733D01*
X228086Y298542D01*
X228089Y298537D01*
X228134Y298482D01*
X228172Y298422D01*
X228198Y298403D01*
X228216Y298381D01*
X228261Y298357D01*
X228317Y298317D01*
X230454Y297287D01*
X230522Y297270D01*
X230588Y297244D01*
X230621Y297244D01*
X230648Y297237D01*
X230699Y297245D01*
X230768Y297246D01*
X230773Y297247D01*
X231309Y296881D01*
X231341Y296867D01*
X231375Y296843D01*
X231960Y296561D01*
X231961Y296556D01*
X231997Y296495D01*
X232026Y296431D01*
X232049Y296408D01*
X232064Y296384D01*
X232105Y296353D01*
X232154Y296304D01*
X234113Y294968D01*
X234178Y294940D01*
X234240Y294905D01*
X234272Y294901D01*
X234298Y294890D01*
X234349Y294890D01*
X234418Y294880D01*
X234423Y294880D01*
X234899Y294439D01*
X234928Y294421D01*
X234958Y294391D01*
X235494Y294026D01*
X235495Y294020D01*
X235522Y293955D01*
X235540Y293887D01*
X235560Y293860D01*
X235571Y293835D01*
X235607Y293798D01*
X235649Y293743D01*
X237386Y292129D01*
X237447Y292092D01*
X237502Y292049D01*
X237533Y292039D01*
X237557Y292025D01*
X237608Y292017D01*
X237675Y291997D01*
X237680Y291996D01*
X238084Y291489D01*
X238111Y291466D01*
X238136Y291433D01*
X238612Y290992D01*
X238612Y290986D01*
X238628Y290917D01*
X238636Y290847D01*
X238652Y290819D01*
X238659Y290791D01*
X238689Y290750D01*
X238722Y290689D01*
X240200Y288834D01*
X240254Y288789D01*
X240302Y288737D01*
X240332Y288723D01*
X240353Y288705D01*
X240403Y288690D01*
X240465Y288661D01*
X240470Y288659D01*
X240795Y288097D01*
X240818Y288071D01*
X240837Y288034D01*
X241242Y287527D01*
X241241Y287522D01*
X241243Y287497D01*
X241242Y287492D01*
X241245Y287483D01*
X241247Y287451D01*
X241245Y287381D01*
X241256Y287350D01*
X241258Y287322D01*
X241282Y287276D01*
X241306Y287211D01*
X242491Y285157D01*
X242538Y285104D01*
X242578Y285046D01*
X242605Y285028D01*
X242623Y285007D01*
X242670Y284984D01*
X242727Y284946D01*
X242732Y284943D01*
X242969Y284339D01*
X242988Y284310D01*
X243002Y284271D01*
X243326Y283709D01*
X243325Y283704D01*
X243320Y283633D01*
X243308Y283564D01*
X243314Y283532D01*
X243312Y283504D01*
X243329Y283455D01*
X243343Y283387D01*
X244208Y281179D01*
X244246Y281120D01*
X244277Y281057D01*
X244302Y281034D01*
X244317Y281011D01*
X244359Y280982D01*
X244410Y280935D01*
X244415Y280932D01*
X244559Y280299D01*
X244574Y280268D01*
X244582Y280227D01*
X244819Y279623D01*
X244816Y279618D01*
X244801Y279549D01*
X244778Y279482D01*
X244780Y279449D01*
X244774Y279422D01*
X244781Y279382D01*
X244780Y279376D01*
X244784Y279361D01*
X244787Y279302D01*
X245314Y276990D01*
X245342Y276926D01*
X245364Y276858D01*
X245384Y276833D01*
X245396Y276807D01*
X245434Y276772D01*
X245477Y276718D01*
X245481Y276715D01*
X245530Y276068D01*
X245539Y276034D01*
X245541Y275993D01*
X245685Y275360D01*
X245682Y275355D01*
X245657Y275289D01*
X245624Y275227D01*
X245621Y275194D01*
X245611Y275168D01*
X245613Y275116D01*
X245606Y275048D01*
X245782Y272683D01*
X245801Y272615D01*
X245812Y272545D01*
X245829Y272517D01*
X245836Y272490D01*
X245868Y272450D01*
X245903Y272390D01*
X245907Y272386D01*
X245858Y271739D01*
X245863Y271704D01*
X245858Y271663D01*
X245907Y271016D01*
X245903Y271012D01*
X245868Y270950D01*
X245827Y270893D01*
X245818Y270861D01*
X245805Y270837D01*
X245799Y270785D01*
X245781Y270719D01*
X245604Y268354D01*
X245612Y268284D01*
X245613Y268213D01*
X245625Y268183D01*
X245628Y268155D01*
X245654Y268110D01*
X245680Y268046D01*
X245683Y268041D01*
X245538Y267409D01*
X245537Y267374D01*
X245527Y267334D01*
X245478Y266687D01*
X245474Y266683D01*
X245430Y266627D01*
X245381Y266577D01*
X245368Y266547D01*
X245351Y266525D01*
X245337Y266475D01*
X245310Y266412D01*
X244782Y264100D01*
X244780Y264029D01*
X244770Y263959D01*
X244777Y263928D01*
X244777Y263900D01*
X244795Y263851D01*
X244811Y263784D01*
X244813Y263779D01*
X244576Y263175D01*
X244570Y263141D01*
X244554Y263103D01*
X244409Y262470D01*
X244405Y262467D01*
X244353Y262419D01*
X244297Y262376D01*
X244280Y262349D01*
X244259Y262329D01*
X244238Y262282D01*
X244202Y262223D01*
X243335Y260016D01*
X243323Y259946D01*
X243302Y259879D01*
X243305Y259846D01*
X243300Y259819D01*
X243311Y259768D01*
X243317Y259699D01*
X243333Y259641D01*
X243332Y259637D01*
X243334Y259597D01*
X243328Y259558D01*
X243342Y259499D01*
X243346Y259438D01*
X243364Y259402D01*
X243373Y259363D01*
X243413Y259305D01*
X243437Y259259D01*
X243458Y259241D01*
X243476Y259215D01*
X243568Y259123D01*
X243568Y250767D01*
X243570Y250760D01*
X243568Y250752D01*
X243589Y250662D01*
X243608Y250571D01*
X243612Y250564D01*
X243614Y250557D01*
X243717Y250409D01*
X245572Y248553D01*
X245572Y244157D01*
X242464Y241048D01*
X238067Y241048D01*
X236523Y242592D01*
X236494Y242612D01*
X236472Y242638D01*
X236412Y242667D01*
X236356Y242703D01*
X236322Y242710D01*
X236291Y242725D01*
X236225Y242728D01*
X236160Y242741D01*
X236126Y242734D01*
X236091Y242735D01*
X236028Y242713D01*
X235964Y242699D01*
X235935Y242679D01*
X235902Y242668D01*
X235853Y242623D01*
X235799Y242585D01*
X235780Y242556D01*
X235755Y242532D01*
X235727Y242472D01*
X235691Y242416D01*
X235686Y242382D01*
X235671Y242350D01*
X235669Y242283D01*
X235658Y242218D01*
X235666Y242184D01*
X235665Y242150D01*
X235691Y242076D01*
X235703Y242023D01*
X235717Y242003D01*
X235725Y241980D01*
X251715Y214285D01*
X250397Y213661D01*
X250374Y213644D01*
X250347Y213634D01*
X250295Y213585D01*
X250237Y213542D01*
X250223Y213517D01*
X250202Y213498D01*
X250173Y213432D01*
X250137Y213370D01*
X250134Y213342D01*
X250122Y213316D01*
X250121Y213244D01*
X250112Y213173D01*
X250120Y213146D01*
X250120Y213117D01*
X250155Y213022D01*
X250166Y212982D01*
X250173Y212973D01*
X250177Y212961D01*
X259677Y196461D01*
X259729Y196403D01*
X259775Y196340D01*
X259794Y196329D01*
X259809Y196312D01*
X259879Y196278D01*
X259946Y196238D01*
X259971Y196234D01*
X259988Y196226D01*
X260033Y196224D01*
X260110Y196211D01*
X279110Y196211D01*
X279138Y196216D01*
G37*
G36*
X293055Y246127D02*
X293055Y246127D01*
X293057Y246127D01*
X293230Y246147D01*
X293399Y246167D01*
X293401Y246167D01*
X293403Y246168D01*
X293471Y246190D01*
X303580Y246190D01*
X303730Y246147D01*
X303732Y246147D01*
X303734Y246146D01*
X303977Y246127D01*
X317053Y246127D01*
X317055Y246127D01*
X317057Y246127D01*
X317230Y246147D01*
X317399Y246167D01*
X317401Y246167D01*
X317403Y246168D01*
X317471Y246190D01*
X327580Y246190D01*
X327730Y246147D01*
X327732Y246147D01*
X327734Y246146D01*
X327977Y246127D01*
X379376Y246127D01*
X379402Y246130D01*
X379428Y246128D01*
X379575Y246150D01*
X379722Y246167D01*
X379747Y246175D01*
X379773Y246179D01*
X379911Y246234D01*
X380050Y246284D01*
X380072Y246298D01*
X380097Y246308D01*
X380218Y246393D01*
X380343Y246473D01*
X380361Y246492D01*
X380383Y246507D01*
X380482Y246617D01*
X380585Y246724D01*
X380599Y246746D01*
X380616Y246766D01*
X380688Y246896D01*
X380764Y247023D01*
X380772Y247048D01*
X380785Y247071D01*
X380825Y247214D01*
X380870Y247355D01*
X380873Y247381D01*
X380880Y247406D01*
X380899Y247650D01*
X380899Y250481D01*
X382094Y253365D01*
X384301Y255572D01*
X387185Y256767D01*
X390307Y256767D01*
X393191Y255572D01*
X395398Y253365D01*
X395528Y253051D01*
X395565Y252985D01*
X395593Y252914D01*
X395650Y252833D01*
X395697Y252747D01*
X395749Y252690D01*
X395792Y252627D01*
X395865Y252562D01*
X395931Y252489D01*
X395994Y252445D01*
X396051Y252394D01*
X396137Y252346D01*
X396218Y252290D01*
X396289Y252262D01*
X396356Y252225D01*
X396451Y252199D01*
X396542Y252163D01*
X396618Y252151D01*
X396692Y252131D01*
X396840Y252119D01*
X396887Y252112D01*
X396906Y252113D01*
X396935Y252111D01*
X427803Y252111D01*
X427929Y252126D01*
X428055Y252132D01*
X428101Y252145D01*
X428149Y252151D01*
X428268Y252194D01*
X428390Y252229D01*
X428432Y252252D01*
X428477Y252268D01*
X428584Y252337D01*
X428694Y252399D01*
X428740Y252438D01*
X428770Y252457D01*
X428804Y252492D01*
X428880Y252557D01*
X431444Y255121D01*
X431523Y255220D01*
X431607Y255314D01*
X431631Y255356D01*
X431661Y255394D01*
X431715Y255508D01*
X431776Y255619D01*
X431789Y255666D01*
X431810Y255709D01*
X431836Y255833D01*
X431871Y255954D01*
X431875Y256015D01*
X431883Y256050D01*
X431882Y256098D01*
X431890Y256198D01*
X431890Y343535D01*
X431887Y343561D01*
X431889Y343587D01*
X431867Y343734D01*
X431850Y343881D01*
X431841Y343906D01*
X431838Y343932D01*
X431783Y344070D01*
X431733Y344209D01*
X431719Y344231D01*
X431709Y344256D01*
X431624Y344377D01*
X431544Y344502D01*
X431525Y344520D01*
X431510Y344542D01*
X431400Y344641D01*
X431293Y344744D01*
X431271Y344758D01*
X431251Y344775D01*
X431121Y344847D01*
X430994Y344923D01*
X430969Y344931D01*
X430946Y344944D01*
X430803Y344984D01*
X430662Y345029D01*
X430636Y345031D01*
X430611Y345039D01*
X430367Y345058D01*
X402800Y345058D01*
X402798Y345058D01*
X402796Y345058D01*
X402625Y345038D01*
X402453Y345018D01*
X402451Y345018D01*
X402449Y345017D01*
X402217Y344942D01*
X399805Y343943D01*
X396683Y343943D01*
X395791Y344313D01*
X395718Y344334D01*
X395647Y344364D01*
X395551Y344381D01*
X395456Y344408D01*
X395380Y344412D01*
X395304Y344426D01*
X395206Y344421D01*
X395108Y344425D01*
X395033Y344412D01*
X394956Y344408D01*
X394862Y344381D01*
X394765Y344363D01*
X394695Y344332D01*
X394621Y344311D01*
X394535Y344263D01*
X394445Y344224D01*
X394384Y344178D01*
X394317Y344141D01*
X394203Y344044D01*
X394166Y344016D01*
X394153Y344002D01*
X394131Y343983D01*
X393264Y343115D01*
X378896Y343115D01*
X377787Y344224D01*
X377767Y344241D01*
X377750Y344261D01*
X377630Y344349D01*
X377514Y344441D01*
X377490Y344452D01*
X377469Y344468D01*
X377333Y344527D01*
X377199Y344590D01*
X377173Y344596D01*
X377149Y344606D01*
X377003Y344632D01*
X376858Y344663D01*
X376832Y344663D01*
X376806Y344668D01*
X376658Y344660D01*
X376510Y344657D01*
X376484Y344651D01*
X376458Y344650D01*
X376316Y344609D01*
X376172Y344572D01*
X376149Y344560D01*
X376123Y344553D01*
X375994Y344481D01*
X375862Y344413D01*
X375842Y344396D01*
X375819Y344383D01*
X375633Y344224D01*
X375254Y343845D01*
X363886Y343845D01*
X363507Y344224D01*
X363487Y344241D01*
X363470Y344261D01*
X363351Y344349D01*
X363234Y344441D01*
X363210Y344452D01*
X363189Y344468D01*
X363053Y344527D01*
X362919Y344590D01*
X362893Y344596D01*
X362869Y344606D01*
X362723Y344632D01*
X362578Y344663D01*
X362552Y344663D01*
X362526Y344668D01*
X362378Y344660D01*
X362230Y344657D01*
X362204Y344651D01*
X362178Y344650D01*
X362036Y344609D01*
X361892Y344572D01*
X361869Y344560D01*
X361843Y344553D01*
X361714Y344481D01*
X361582Y344413D01*
X361562Y344396D01*
X361539Y344383D01*
X361353Y344224D01*
X360244Y343115D01*
X352889Y343115D01*
X352763Y343101D01*
X352637Y343094D01*
X352591Y343081D01*
X352543Y343075D01*
X352424Y343033D01*
X352302Y342998D01*
X352260Y342974D01*
X352215Y342958D01*
X352109Y342889D01*
X351998Y342828D01*
X351952Y342788D01*
X351922Y342769D01*
X351888Y342734D01*
X351812Y342669D01*
X338787Y329645D01*
X338787Y329644D01*
X336930Y327787D01*
X334782Y326897D01*
X330575Y326897D01*
X330450Y326883D01*
X330323Y326876D01*
X330277Y326863D01*
X330229Y326857D01*
X330110Y326815D01*
X329989Y326780D01*
X329946Y326756D01*
X329901Y326740D01*
X329795Y326671D01*
X329684Y326610D01*
X329638Y326570D01*
X329608Y326551D01*
X329575Y326516D01*
X329572Y326514D01*
X329570Y326513D01*
X329567Y326510D01*
X329498Y326451D01*
X329135Y326088D01*
X326251Y324893D01*
X323129Y324893D01*
X320245Y326088D01*
X318038Y328295D01*
X316843Y331179D01*
X316843Y334301D01*
X318038Y337185D01*
X320245Y339392D01*
X323245Y340635D01*
X323289Y340659D01*
X323336Y340676D01*
X323441Y340744D01*
X323550Y340804D01*
X323587Y340838D01*
X323629Y340865D01*
X323716Y340955D01*
X323808Y341038D01*
X323836Y341080D01*
X323871Y341116D01*
X323935Y341223D01*
X324006Y341325D01*
X324025Y341372D01*
X324050Y341415D01*
X324088Y341533D01*
X324134Y341649D01*
X324141Y341699D01*
X324157Y341747D01*
X324166Y341871D01*
X324185Y341994D01*
X324180Y342044D01*
X324184Y342094D01*
X324166Y342217D01*
X324156Y342341D01*
X324140Y342389D01*
X324133Y342439D01*
X324087Y342554D01*
X324049Y342673D01*
X324023Y342716D01*
X324004Y342763D01*
X323933Y342865D01*
X323869Y342971D01*
X323834Y343008D01*
X323805Y343049D01*
X323713Y343132D01*
X323626Y343221D01*
X323584Y343249D01*
X323546Y343282D01*
X323437Y343342D01*
X323333Y343410D01*
X323285Y343427D01*
X323241Y343451D01*
X323122Y343485D01*
X323004Y343526D01*
X322954Y343532D01*
X322906Y343546D01*
X322662Y343565D01*
X317341Y343565D01*
X316295Y344612D01*
X316195Y344691D01*
X316102Y344775D01*
X316059Y344799D01*
X316021Y344829D01*
X315907Y344883D01*
X315797Y344944D01*
X315750Y344957D01*
X315706Y344978D01*
X315583Y345004D01*
X315461Y345039D01*
X315400Y345044D01*
X315366Y345051D01*
X315318Y345050D01*
X315217Y345058D01*
X293113Y345058D01*
X292987Y345044D01*
X292861Y345037D01*
X292814Y345024D01*
X292766Y345018D01*
X292647Y344976D01*
X292526Y344941D01*
X292484Y344917D01*
X292438Y344901D01*
X292332Y344832D01*
X292222Y344771D01*
X292175Y344731D01*
X292145Y344712D01*
X292112Y344677D01*
X292035Y344612D01*
X290989Y343565D01*
X271621Y343565D01*
X270575Y344612D01*
X270475Y344691D01*
X270382Y344775D01*
X270339Y344799D01*
X270301Y344829D01*
X270187Y344883D01*
X270077Y344944D01*
X270030Y344957D01*
X269986Y344978D01*
X269863Y345004D01*
X269741Y345039D01*
X269680Y345044D01*
X269646Y345051D01*
X269598Y345050D01*
X269497Y345058D01*
X257810Y345058D01*
X257784Y345055D01*
X257758Y345057D01*
X257611Y345035D01*
X257464Y345018D01*
X257439Y345010D01*
X257413Y345006D01*
X257275Y344951D01*
X257136Y344901D01*
X257114Y344887D01*
X257089Y344877D01*
X256968Y344792D01*
X256843Y344712D01*
X256825Y344693D01*
X256803Y344678D01*
X256704Y344568D01*
X256601Y344461D01*
X256587Y344439D01*
X256570Y344419D01*
X256498Y344289D01*
X256422Y344162D01*
X256414Y344137D01*
X256401Y344114D01*
X256361Y343971D01*
X256316Y343830D01*
X256314Y343804D01*
X256306Y343779D01*
X256287Y343535D01*
X256287Y340840D01*
X256290Y340814D01*
X256288Y340788D01*
X256310Y340641D01*
X256327Y340494D01*
X256335Y340469D01*
X256339Y340443D01*
X256394Y340305D01*
X256444Y340166D01*
X256458Y340144D01*
X256468Y340119D01*
X256553Y339998D01*
X256633Y339873D01*
X256652Y339855D01*
X256667Y339833D01*
X256777Y339734D01*
X256884Y339631D01*
X256906Y339617D01*
X256926Y339600D01*
X257056Y339528D01*
X257183Y339452D01*
X257208Y339444D01*
X257231Y339431D01*
X257374Y339391D01*
X257515Y339346D01*
X257541Y339344D01*
X257566Y339336D01*
X257810Y339317D01*
X259985Y339317D01*
X262869Y338122D01*
X265076Y335915D01*
X266271Y333031D01*
X266271Y329909D01*
X265076Y327025D01*
X262869Y324818D01*
X259985Y323623D01*
X257810Y323623D01*
X257784Y323620D01*
X257758Y323622D01*
X257611Y323600D01*
X257464Y323583D01*
X257439Y323575D01*
X257413Y323571D01*
X257275Y323516D01*
X257136Y323466D01*
X257114Y323452D01*
X257089Y323442D01*
X256968Y323357D01*
X256843Y323277D01*
X256825Y323258D01*
X256803Y323243D01*
X256704Y323133D01*
X256601Y323026D01*
X256587Y323004D01*
X256570Y322984D01*
X256498Y322854D01*
X256422Y322727D01*
X256414Y322702D01*
X256401Y322679D01*
X256361Y322536D01*
X256316Y322395D01*
X256314Y322369D01*
X256306Y322344D01*
X256287Y322100D01*
X256287Y293769D01*
X256301Y293643D01*
X256308Y293517D01*
X256321Y293471D01*
X256327Y293423D01*
X256369Y293304D01*
X256404Y293182D01*
X256428Y293140D01*
X256444Y293094D01*
X256513Y292988D01*
X256574Y292878D01*
X256614Y292832D01*
X257557Y290555D01*
X257557Y248266D01*
X257571Y248141D01*
X257578Y248014D01*
X257591Y247968D01*
X257597Y247920D01*
X257639Y247801D01*
X257674Y247680D01*
X257698Y247637D01*
X257714Y247592D01*
X257783Y247486D01*
X257844Y247375D01*
X257884Y247329D01*
X257903Y247299D01*
X257938Y247266D01*
X258003Y247189D01*
X258619Y246573D01*
X258718Y246494D01*
X258812Y246410D01*
X258854Y246386D01*
X258892Y246356D01*
X259007Y246302D01*
X259117Y246241D01*
X259164Y246228D01*
X259207Y246207D01*
X259331Y246181D01*
X259453Y246146D01*
X259513Y246142D01*
X259548Y246134D01*
X259596Y246135D01*
X259696Y246127D01*
X293053Y246127D01*
X293055Y246127D01*
G37*
G36*
X313463Y347730D02*
X313463Y347730D01*
X313489Y347728D01*
X313636Y347750D01*
X313783Y347767D01*
X313808Y347775D01*
X313834Y347779D01*
X313972Y347834D01*
X314111Y347884D01*
X314133Y347898D01*
X314158Y347908D01*
X314279Y347993D01*
X314404Y348073D01*
X314422Y348092D01*
X314444Y348107D01*
X314543Y348217D01*
X314646Y348324D01*
X314660Y348346D01*
X314677Y348366D01*
X314749Y348496D01*
X314825Y348623D01*
X314833Y348648D01*
X314846Y348671D01*
X314886Y348814D01*
X314931Y348955D01*
X314933Y348981D01*
X314941Y349006D01*
X314960Y349250D01*
X314960Y379314D01*
X317341Y381695D01*
X323215Y381695D01*
X323241Y381698D01*
X323267Y381696D01*
X323414Y381718D01*
X323561Y381735D01*
X323586Y381743D01*
X323612Y381747D01*
X323750Y381802D01*
X323889Y381852D01*
X323911Y381866D01*
X323936Y381876D01*
X324057Y381961D01*
X324182Y382041D01*
X324200Y382060D01*
X324222Y382075D01*
X324321Y382185D01*
X324424Y382292D01*
X324438Y382314D01*
X324455Y382334D01*
X324527Y382464D01*
X324603Y382591D01*
X324611Y382616D01*
X324624Y382639D01*
X324664Y382782D01*
X324709Y382923D01*
X324711Y382949D01*
X324719Y382974D01*
X324738Y383218D01*
X324738Y471170D01*
X324735Y471196D01*
X324737Y471222D01*
X324715Y471369D01*
X324698Y471516D01*
X324690Y471541D01*
X324686Y471567D01*
X324631Y471705D01*
X324581Y471844D01*
X324567Y471866D01*
X324557Y471891D01*
X324472Y472012D01*
X324392Y472137D01*
X324373Y472155D01*
X324358Y472177D01*
X324248Y472276D01*
X324141Y472379D01*
X324119Y472393D01*
X324099Y472410D01*
X323969Y472482D01*
X323842Y472558D01*
X323817Y472566D01*
X323794Y472579D01*
X323651Y472619D01*
X323510Y472664D01*
X323484Y472666D01*
X323459Y472674D01*
X323215Y472693D01*
X261620Y472693D01*
X261494Y472679D01*
X261368Y472672D01*
X261322Y472659D01*
X261274Y472653D01*
X261155Y472611D01*
X261033Y472576D01*
X260991Y472552D01*
X260946Y472536D01*
X260839Y472467D01*
X260729Y472406D01*
X260683Y472366D01*
X260653Y472347D01*
X260619Y472312D01*
X260543Y472247D01*
X256733Y468437D01*
X256654Y468338D01*
X256570Y468244D01*
X256546Y468202D01*
X256516Y468164D01*
X256462Y468050D01*
X256401Y467939D01*
X256388Y467893D01*
X256367Y467849D01*
X256341Y467726D01*
X256306Y467604D01*
X256302Y467543D01*
X256294Y467508D01*
X256295Y467460D01*
X256287Y467360D01*
X256287Y349250D01*
X256290Y349224D01*
X256288Y349198D01*
X256310Y349051D01*
X256327Y348904D01*
X256335Y348879D01*
X256339Y348853D01*
X256394Y348715D01*
X256444Y348576D01*
X256458Y348554D01*
X256468Y348529D01*
X256553Y348408D01*
X256633Y348283D01*
X256652Y348265D01*
X256667Y348243D01*
X256777Y348144D01*
X256884Y348041D01*
X256906Y348027D01*
X256926Y348010D01*
X257056Y347938D01*
X257183Y347862D01*
X257208Y347854D01*
X257231Y347841D01*
X257374Y347801D01*
X257515Y347756D01*
X257541Y347754D01*
X257566Y347746D01*
X257810Y347727D01*
X313437Y347727D01*
X313463Y347730D01*
G37*
G36*
X435636Y368050D02*
X435636Y368050D01*
X435662Y368048D01*
X435809Y368070D01*
X435956Y368087D01*
X435981Y368095D01*
X436007Y368099D01*
X436145Y368154D01*
X436284Y368204D01*
X436306Y368218D01*
X436331Y368228D01*
X436452Y368313D01*
X436577Y368393D01*
X436595Y368412D01*
X436617Y368427D01*
X436716Y368537D01*
X436819Y368644D01*
X436833Y368666D01*
X436850Y368686D01*
X436922Y368816D01*
X436998Y368943D01*
X437006Y368968D01*
X437019Y368991D01*
X437059Y369134D01*
X437104Y369275D01*
X437106Y369301D01*
X437114Y369326D01*
X437133Y369570D01*
X437133Y466090D01*
X437119Y466216D01*
X437112Y466342D01*
X437099Y466388D01*
X437093Y466436D01*
X437051Y466555D01*
X437016Y466677D01*
X436992Y466719D01*
X436976Y466764D01*
X436907Y466871D01*
X436846Y466981D01*
X436806Y467027D01*
X436787Y467057D01*
X436752Y467091D01*
X436687Y467167D01*
X431607Y472247D01*
X431508Y472326D01*
X431414Y472410D01*
X431372Y472434D01*
X431334Y472464D01*
X431220Y472518D01*
X431109Y472579D01*
X431063Y472592D01*
X431019Y472613D01*
X430896Y472639D01*
X430774Y472674D01*
X430713Y472679D01*
X430678Y472686D01*
X430630Y472685D01*
X430530Y472693D01*
X369570Y472693D01*
X369544Y472690D01*
X369518Y472692D01*
X369371Y472670D01*
X369224Y472653D01*
X369199Y472645D01*
X369173Y472641D01*
X369035Y472586D01*
X368896Y472536D01*
X368874Y472522D01*
X368849Y472512D01*
X368728Y472427D01*
X368603Y472347D01*
X368585Y472328D01*
X368563Y472313D01*
X368464Y472203D01*
X368361Y472096D01*
X368347Y472074D01*
X368330Y472054D01*
X368258Y471924D01*
X368182Y471797D01*
X368174Y471772D01*
X368161Y471749D01*
X368121Y471606D01*
X368076Y471465D01*
X368074Y471439D01*
X368066Y471414D01*
X368047Y471170D01*
X368047Y433327D01*
X368061Y433201D01*
X368068Y433075D01*
X368081Y433029D01*
X368087Y432981D01*
X368129Y432862D01*
X368164Y432740D01*
X368188Y432698D01*
X368204Y432653D01*
X368273Y432547D01*
X368334Y432436D01*
X368374Y432390D01*
X368393Y432360D01*
X368428Y432326D01*
X368493Y432250D01*
X374523Y426220D01*
X375413Y424072D01*
X375413Y375447D01*
X375427Y375321D01*
X375434Y375195D01*
X375447Y375148D01*
X375453Y375100D01*
X375495Y374981D01*
X375530Y374860D01*
X375554Y374818D01*
X375570Y374772D01*
X375639Y374666D01*
X375700Y374556D01*
X375740Y374510D01*
X375759Y374480D01*
X375794Y374446D01*
X375859Y374370D01*
X377635Y372594D01*
X377635Y369570D01*
X377638Y369544D01*
X377636Y369518D01*
X377658Y369371D01*
X377675Y369224D01*
X377683Y369199D01*
X377687Y369173D01*
X377742Y369035D01*
X377792Y368896D01*
X377806Y368874D01*
X377816Y368849D01*
X377901Y368728D01*
X377981Y368603D01*
X378000Y368585D01*
X378015Y368563D01*
X378125Y368464D01*
X378232Y368361D01*
X378254Y368347D01*
X378274Y368330D01*
X378404Y368258D01*
X378531Y368182D01*
X378556Y368174D01*
X378579Y368161D01*
X378722Y368121D01*
X378863Y368076D01*
X378889Y368074D01*
X378914Y368066D01*
X379158Y368047D01*
X435610Y368047D01*
X435636Y368050D01*
G37*
G36*
X478651Y394277D02*
X478651Y394277D01*
X478694Y394276D01*
X482687Y394877D01*
X482717Y394888D01*
X482760Y394893D01*
X486619Y396082D01*
X486647Y396097D01*
X486688Y396109D01*
X490326Y397860D01*
X490348Y397877D01*
X490374Y397886D01*
X490427Y397936D01*
X490485Y397980D01*
X490498Y398004D01*
X490518Y398023D01*
X490548Y398089D01*
X490584Y398153D01*
X490587Y398180D01*
X490598Y398205D01*
X490599Y398278D01*
X490608Y398350D01*
X490600Y398376D01*
X490600Y398404D01*
X490564Y398502D01*
X490552Y398541D01*
X490546Y398549D01*
X490542Y398560D01*
X463542Y445360D01*
X463524Y445380D01*
X463513Y445405D01*
X463459Y445454D01*
X463411Y445509D01*
X463386Y445520D01*
X463366Y445539D01*
X463297Y445563D01*
X463231Y445594D01*
X463204Y445596D01*
X463179Y445605D01*
X463106Y445600D01*
X463033Y445603D01*
X463007Y445594D01*
X462980Y445592D01*
X462884Y445548D01*
X462846Y445534D01*
X462839Y445527D01*
X462829Y445523D01*
X459492Y443249D01*
X459470Y443226D01*
X459434Y443203D01*
X456473Y440457D01*
X456454Y440431D01*
X456422Y440403D01*
X453904Y437247D01*
X453889Y437218D01*
X453862Y437185D01*
X451842Y433689D01*
X451832Y433659D01*
X451809Y433622D01*
X450333Y429864D01*
X450328Y429832D01*
X450311Y429792D01*
X449411Y425856D01*
X449411Y425824D01*
X449400Y425782D01*
X449097Y421756D01*
X449100Y421733D01*
X449097Y421713D01*
X449099Y421703D01*
X449097Y421682D01*
X449398Y417655D01*
X449406Y417624D01*
X449409Y417581D01*
X450306Y413645D01*
X450319Y413616D01*
X450328Y413573D01*
X451802Y409814D01*
X451819Y409787D01*
X451834Y409747D01*
X453852Y406250D01*
X453873Y406226D01*
X453894Y406188D01*
X456410Y403030D01*
X456435Y403010D01*
X456461Y402976D01*
X459420Y400228D01*
X459447Y400212D01*
X459478Y400182D01*
X462814Y397906D01*
X462843Y397894D01*
X462878Y397869D01*
X466516Y396116D01*
X466546Y396108D01*
X466585Y396089D01*
X470443Y394897D01*
X470475Y394894D01*
X470516Y394881D01*
X474508Y394278D01*
X474540Y394279D01*
X474582Y394272D01*
X478620Y394271D01*
X478651Y394277D01*
G37*
G36*
X218838Y394272D02*
X218838Y394272D01*
X218869Y394278D01*
X218912Y394278D01*
X222904Y394881D01*
X222934Y394892D01*
X222977Y394897D01*
X226835Y396089D01*
X226863Y396104D01*
X226905Y396116D01*
X230542Y397869D01*
X230567Y397888D01*
X230606Y397906D01*
X233942Y400182D01*
X233964Y400205D01*
X234000Y400228D01*
X236959Y402976D01*
X236978Y403001D01*
X237010Y403030D01*
X239526Y406188D01*
X239541Y406216D01*
X239568Y406250D01*
X241586Y409747D01*
X241596Y409777D01*
X241618Y409814D01*
X243092Y413573D01*
X243098Y413605D01*
X243114Y413645D01*
X244011Y417581D01*
X244012Y417613D01*
X244022Y417655D01*
X244323Y421682D01*
X244319Y421713D01*
X244320Y421729D01*
X244323Y421746D01*
X244322Y421750D01*
X244323Y421756D01*
X244020Y425782D01*
X244011Y425813D01*
X244009Y425856D01*
X243109Y429792D01*
X243096Y429821D01*
X243087Y429864D01*
X241611Y433622D01*
X241593Y433649D01*
X241578Y433689D01*
X239558Y437185D01*
X239537Y437209D01*
X239516Y437247D01*
X236998Y440403D01*
X236973Y440423D01*
X236947Y440457D01*
X233986Y443203D01*
X233959Y443219D01*
X233928Y443249D01*
X230591Y445523D01*
X230566Y445533D01*
X230545Y445550D01*
X230475Y445571D01*
X230408Y445600D01*
X230380Y445600D01*
X230354Y445607D01*
X230282Y445599D01*
X230209Y445599D01*
X230184Y445588D01*
X230157Y445585D01*
X230093Y445549D01*
X230026Y445521D01*
X230007Y445501D01*
X229984Y445488D01*
X229917Y445407D01*
X229888Y445377D01*
X229885Y445368D01*
X229878Y445360D01*
X202878Y398560D01*
X202869Y398534D01*
X202853Y398511D01*
X202838Y398440D01*
X202814Y398371D01*
X202817Y398344D01*
X202811Y398317D01*
X202824Y398246D01*
X202830Y398173D01*
X202843Y398148D01*
X202848Y398122D01*
X202888Y398061D01*
X202922Y397996D01*
X202943Y397979D01*
X202958Y397956D01*
X203044Y397895D01*
X203075Y397870D01*
X203084Y397867D01*
X203094Y397860D01*
X206732Y396109D01*
X206763Y396102D01*
X206801Y396082D01*
X210660Y394893D01*
X210692Y394890D01*
X210733Y394877D01*
X214726Y394276D01*
X214757Y394278D01*
X214800Y394271D01*
X218838Y394272D01*
G37*
G36*
X463138Y247821D02*
X463138Y247821D01*
X463211Y247821D01*
X463236Y247832D01*
X463263Y247835D01*
X463327Y247871D01*
X463394Y247899D01*
X463413Y247919D01*
X463436Y247932D01*
X463504Y248013D01*
X463532Y248043D01*
X463535Y248052D01*
X463542Y248061D01*
X490542Y294861D01*
X490551Y294886D01*
X490567Y294909D01*
X490582Y294980D01*
X490606Y295049D01*
X490603Y295076D01*
X490609Y295103D01*
X490596Y295174D01*
X490590Y295247D01*
X490577Y295272D01*
X490572Y295298D01*
X490532Y295359D01*
X490498Y295424D01*
X490477Y295441D01*
X490462Y295464D01*
X490376Y295525D01*
X490345Y295550D01*
X490336Y295553D01*
X490326Y295560D01*
X486688Y297311D01*
X486657Y297318D01*
X486619Y297338D01*
X482760Y298527D01*
X482728Y298530D01*
X482687Y298543D01*
X478694Y299144D01*
X478663Y299142D01*
X478620Y299149D01*
X474582Y299148D01*
X474551Y299142D01*
X474508Y299142D01*
X470516Y298539D01*
X470486Y298528D01*
X470443Y298523D01*
X466585Y297331D01*
X466557Y297316D01*
X466516Y297304D01*
X462878Y295551D01*
X462853Y295532D01*
X462814Y295514D01*
X459478Y293238D01*
X459456Y293215D01*
X459420Y293192D01*
X456461Y290444D01*
X456442Y290419D01*
X456410Y290390D01*
X453894Y287232D01*
X453879Y287204D01*
X453852Y287170D01*
X451834Y283673D01*
X451824Y283643D01*
X451802Y283606D01*
X450328Y279847D01*
X450322Y279815D01*
X450306Y279775D01*
X449409Y275839D01*
X449408Y275807D01*
X449398Y275765D01*
X449097Y271739D01*
X449101Y271707D01*
X449097Y271664D01*
X449400Y267638D01*
X449409Y267607D01*
X449411Y267564D01*
X450311Y263628D01*
X450324Y263599D01*
X450333Y263556D01*
X451809Y259798D01*
X451827Y259771D01*
X451842Y259731D01*
X453862Y256235D01*
X453883Y256211D01*
X453904Y256173D01*
X456422Y253017D01*
X456447Y252997D01*
X456473Y252963D01*
X459434Y250217D01*
X459461Y250201D01*
X459492Y250171D01*
X462829Y247897D01*
X462854Y247887D01*
X462875Y247870D01*
X462945Y247849D01*
X463012Y247820D01*
X463040Y247821D01*
X463066Y247813D01*
X463138Y247821D01*
G37*
G36*
X230314Y247820D02*
X230314Y247820D01*
X230387Y247817D01*
X230413Y247826D01*
X230440Y247828D01*
X230536Y247872D01*
X230574Y247886D01*
X230581Y247893D01*
X230591Y247897D01*
X233928Y250171D01*
X233950Y250194D01*
X233986Y250217D01*
X236947Y252963D01*
X236966Y252989D01*
X236998Y253017D01*
X239516Y256173D01*
X239531Y256202D01*
X239558Y256235D01*
X241578Y259731D01*
X241588Y259761D01*
X241611Y259798D01*
X243087Y263556D01*
X243092Y263588D01*
X243109Y263628D01*
X244009Y267564D01*
X244009Y267596D01*
X244020Y267638D01*
X244323Y271664D01*
X244319Y271695D01*
X244323Y271739D01*
X244022Y275765D01*
X244014Y275796D01*
X244011Y275839D01*
X243114Y279775D01*
X243101Y279804D01*
X243092Y279847D01*
X241618Y283606D01*
X241601Y283633D01*
X241586Y283673D01*
X239568Y287170D01*
X239547Y287194D01*
X239526Y287232D01*
X237010Y290390D01*
X236985Y290410D01*
X236959Y290444D01*
X234000Y293192D01*
X233973Y293208D01*
X233942Y293238D01*
X230606Y295514D01*
X230577Y295526D01*
X230542Y295551D01*
X226905Y297304D01*
X226874Y297312D01*
X226835Y297331D01*
X222977Y298523D01*
X222945Y298526D01*
X222904Y298539D01*
X218912Y299142D01*
X218880Y299141D01*
X218838Y299148D01*
X214800Y299149D01*
X214769Y299143D01*
X214726Y299144D01*
X210733Y298543D01*
X210703Y298532D01*
X210660Y298527D01*
X206801Y297338D01*
X206773Y297323D01*
X206732Y297311D01*
X203094Y295560D01*
X203072Y295543D01*
X203046Y295534D01*
X202993Y295484D01*
X202935Y295440D01*
X202922Y295416D01*
X202902Y295397D01*
X202872Y295331D01*
X202836Y295267D01*
X202833Y295240D01*
X202822Y295215D01*
X202821Y295142D01*
X202812Y295070D01*
X202820Y295044D01*
X202820Y295016D01*
X202856Y294918D01*
X202868Y294879D01*
X202874Y294871D01*
X202878Y294861D01*
X229878Y248061D01*
X229896Y248040D01*
X229907Y248015D01*
X229961Y247966D01*
X230009Y247912D01*
X230034Y247900D01*
X230054Y247881D01*
X230123Y247857D01*
X230189Y247826D01*
X230216Y247825D01*
X230241Y247815D01*
X230314Y247820D01*
G37*
G36*
X373737Y196216D02*
X373737Y196216D01*
X373764Y196214D01*
X373833Y196236D01*
X373905Y196250D01*
X373927Y196266D01*
X373953Y196274D01*
X374009Y196322D01*
X374069Y196363D01*
X374083Y196386D01*
X374104Y196404D01*
X374137Y196469D01*
X374176Y196530D01*
X374180Y196557D01*
X374192Y196582D01*
X374202Y196686D01*
X374209Y196727D01*
X374207Y196736D01*
X374208Y196747D01*
X373906Y200771D01*
X373898Y200802D01*
X373895Y200845D01*
X372997Y204779D01*
X372984Y204808D01*
X372975Y204851D01*
X371501Y208607D01*
X371484Y208634D01*
X371469Y208675D01*
X369451Y212169D01*
X369430Y212193D01*
X369409Y212231D01*
X366893Y215386D01*
X366868Y215406D01*
X366842Y215441D01*
X363884Y218185D01*
X363857Y218202D01*
X363825Y218232D01*
X360491Y220505D01*
X360462Y220518D01*
X360427Y220543D01*
X356791Y222293D01*
X356760Y222301D01*
X356721Y222321D01*
X352865Y223510D01*
X352834Y223513D01*
X352792Y223527D01*
X348802Y224128D01*
X348770Y224127D01*
X348728Y224134D01*
X344692Y224134D01*
X344661Y224127D01*
X344618Y224128D01*
X340628Y223527D01*
X340598Y223516D01*
X340555Y223510D01*
X336699Y222321D01*
X336671Y222305D01*
X336629Y222293D01*
X332993Y220543D01*
X332968Y220523D01*
X332929Y220505D01*
X329595Y218232D01*
X329572Y218209D01*
X329536Y218185D01*
X326578Y215441D01*
X326560Y215415D01*
X326527Y215386D01*
X324011Y212231D01*
X323997Y212203D01*
X323969Y212169D01*
X321951Y208675D01*
X321941Y208644D01*
X321919Y208607D01*
X320445Y204851D01*
X320439Y204819D01*
X320423Y204779D01*
X319525Y200845D01*
X319524Y200813D01*
X319514Y200771D01*
X319212Y196747D01*
X319216Y196720D01*
X319211Y196693D01*
X319228Y196623D01*
X319237Y196550D01*
X319251Y196526D01*
X319257Y196500D01*
X319300Y196441D01*
X319337Y196378D01*
X319359Y196362D01*
X319375Y196340D01*
X319438Y196303D01*
X319496Y196259D01*
X319523Y196252D01*
X319546Y196238D01*
X319650Y196221D01*
X319689Y196211D01*
X319699Y196213D01*
X319710Y196211D01*
X373710Y196211D01*
X373737Y196216D01*
G37*
%LPC*%
G36*
X218893Y316055D02*
X218893Y316055D01*
X216535Y318413D01*
X216535Y326747D01*
X218893Y329105D01*
X221516Y329105D01*
X221521Y329106D01*
X221526Y329105D01*
X221619Y329126D01*
X221713Y329144D01*
X221717Y329147D01*
X221722Y329148D01*
X221800Y329204D01*
X221878Y329257D01*
X221881Y329261D01*
X221885Y329264D01*
X221936Y329346D01*
X221988Y329425D01*
X221988Y329430D01*
X221991Y329435D01*
X222023Y329612D01*
X222023Y333276D01*
X222022Y333281D01*
X222023Y333286D01*
X222002Y333379D01*
X221984Y333473D01*
X221981Y333477D01*
X221980Y333482D01*
X221924Y333560D01*
X221871Y333638D01*
X221867Y333641D01*
X221864Y333645D01*
X221782Y333696D01*
X221703Y333748D01*
X221698Y333748D01*
X221693Y333751D01*
X221516Y333783D01*
X217512Y333783D01*
X214403Y336892D01*
X214403Y341288D01*
X216387Y343272D01*
X216391Y343278D01*
X216398Y343283D01*
X216446Y343361D01*
X216498Y343439D01*
X216499Y343446D01*
X216503Y343453D01*
X216535Y343630D01*
X216535Y352147D01*
X218893Y354505D01*
X233227Y354505D01*
X235585Y352147D01*
X235585Y343813D01*
X233227Y341455D01*
X226956Y341455D01*
X226948Y341454D01*
X226941Y341455D01*
X226851Y341434D01*
X226760Y341416D01*
X226753Y341411D01*
X226745Y341409D01*
X226597Y341307D01*
X225165Y339875D01*
X225161Y339868D01*
X225155Y339863D01*
X225106Y339785D01*
X225054Y339708D01*
X225053Y339700D01*
X225049Y339693D01*
X225017Y339516D01*
X225017Y337284D01*
X225018Y337279D01*
X225017Y337274D01*
X225038Y337181D01*
X225056Y337087D01*
X225059Y337083D01*
X225060Y337078D01*
X225116Y337000D01*
X225169Y336922D01*
X225173Y336919D01*
X225176Y336915D01*
X225258Y336864D01*
X225337Y336812D01*
X225342Y336812D01*
X225347Y336809D01*
X225524Y336777D01*
X229528Y336777D01*
X232637Y333668D01*
X232637Y329612D01*
X232638Y329607D01*
X232637Y329602D01*
X232658Y329509D01*
X232676Y329415D01*
X232679Y329411D01*
X232680Y329406D01*
X232736Y329328D01*
X232789Y329250D01*
X232793Y329247D01*
X232796Y329242D01*
X232878Y329192D01*
X232957Y329140D01*
X232962Y329139D01*
X232967Y329137D01*
X233144Y329105D01*
X233227Y329105D01*
X235585Y326747D01*
X235585Y318413D01*
X233227Y316055D01*
X218893Y316055D01*
G37*
%LPD*%
D10*
X491100Y321310D03*
X474100Y321310D03*
D11*
X246380Y355720D03*
X246380Y370720D03*
D10*
X392430Y224400D03*
X392430Y207400D03*
X246380Y341240D03*
X246380Y324240D03*
X473710Y338210D03*
X473710Y355210D03*
D12*
X231560Y345480D02*
X220560Y345480D01*
X220560Y350480D01*
X231560Y350480D01*
X231560Y345480D01*
X231560Y350230D02*
X220560Y350230D01*
X220560Y325080D02*
X231560Y325080D01*
X231560Y320080D01*
X220560Y320080D01*
X220560Y325080D01*
X220560Y324830D02*
X231560Y324830D01*
X448525Y368975D02*
X459525Y368975D01*
X448525Y368975D02*
X448525Y373975D01*
X459525Y373975D01*
X459525Y368975D01*
X459525Y373725D02*
X448525Y373725D01*
X449160Y318730D02*
X460160Y318730D01*
X460160Y313730D01*
X449160Y313730D01*
X449160Y318730D01*
X449160Y318480D02*
X460160Y318480D01*
D13*
X302515Y235125D02*
X294515Y235125D01*
X294515Y241125D01*
X302515Y241125D01*
X302515Y235125D01*
X302515Y237025D02*
X294515Y237025D01*
X294515Y238925D02*
X302515Y238925D01*
X302515Y240825D02*
X294515Y240825D01*
X318515Y235125D02*
X326515Y235125D01*
X318515Y235125D02*
X318515Y241125D01*
X326515Y241125D01*
X326515Y235125D01*
X326515Y237025D02*
X318515Y237025D01*
X318515Y238925D02*
X326515Y238925D01*
X326515Y240825D02*
X318515Y240825D01*
D14*
X327025Y362630D03*
X281305Y362630D03*
D15*
X304165Y290830D03*
D16*
X416560Y321190D03*
X416560Y377190D03*
D17*
X511910Y346710D03*
X429310Y203610D03*
X264110Y203610D03*
X181510Y346710D03*
X470610Y418210D03*
X470610Y275210D03*
X346710Y203610D03*
X222810Y275210D03*
X222810Y418210D03*
D10*
X386080Y352180D03*
X386080Y369180D03*
D11*
X369570Y351910D03*
X369570Y366910D03*
D18*
X396748Y442214D02*
X396748Y462026D01*
X346710Y462026D02*
X346710Y442214D01*
X296672Y442214D02*
X296672Y462026D01*
D10*
X304800Y207400D03*
X304800Y224400D03*
X353060Y369180D03*
X353060Y352180D03*
D19*
X473710Y330200D03*
D20*
X246380Y370720D02*
X246260Y370840D01*
X234315Y370840D01*
D19*
X234315Y370840D03*
X438150Y223520D03*
D20*
X430106Y231564D01*
X421216Y231564D01*
D19*
X421216Y231564D03*
D20*
X473710Y330200D02*
X473710Y338210D01*
X473710Y321700D02*
X474100Y321310D01*
X473710Y321700D02*
X473710Y330200D01*
D19*
X289560Y230096D03*
X482600Y365760D03*
X258424Y331470D03*
D20*
X257352Y332542D01*
X251460Y332542D01*
D19*
X240265Y246355D03*
D20*
X240265Y257755D01*
X222810Y275210D01*
D21*
X222354Y411480D02*
X222354Y419587D01*
D19*
X205309Y390948D03*
D20*
X222354Y407993D01*
X222354Y411480D01*
D22*
X222810Y418210D02*
X222810Y419131D01*
X222354Y419587D01*
D20*
X246380Y324240D02*
X246612Y319002D01*
X241300Y313690D01*
D19*
X241300Y313690D03*
D20*
X246380Y341240D02*
X246380Y355720D01*
D19*
X392430Y237900D03*
D20*
X394449Y239918D02*
X436768Y239918D01*
X394449Y239918D02*
X392430Y237900D01*
X436768Y239918D02*
X443230Y246380D01*
X443230Y355600D01*
D19*
X398244Y351790D03*
D20*
X392430Y237900D02*
X392430Y224400D01*
X398244Y351790D02*
X421640Y351790D01*
X438150Y360680D02*
X443230Y355600D01*
X438150Y360680D02*
X430530Y360680D01*
X421640Y351790D01*
D19*
X462295Y390989D03*
D20*
X467453Y396147D01*
D22*
X467453Y415053D01*
X470610Y418210D01*
D20*
X454660Y335338D02*
X453390Y335338D01*
X473710Y354388D02*
X473710Y355210D01*
X473710Y354388D02*
X454660Y335338D01*
X453390Y370840D02*
X454025Y371475D01*
X453390Y370840D02*
X453390Y335338D01*
D19*
X453390Y335338D03*
X448310Y387350D03*
D20*
X448310Y377190D01*
X454025Y371475D01*
D19*
X467360Y310358D03*
D20*
X461488Y316230D01*
X454660Y316230D01*
X480148Y310358D02*
X491100Y321310D01*
X480148Y310358D02*
X467360Y310358D01*
D19*
X451014Y293729D03*
D20*
X461271Y287281D02*
X470610Y277943D01*
X461271Y287281D02*
X454824Y293729D01*
X451014Y293729D01*
D22*
X470610Y277943D02*
X470610Y275210D01*
D19*
X379730Y203200D03*
D20*
X347120Y203200D01*
X346710Y203610D01*
X226060Y330200D02*
X227330Y331470D01*
X226060Y330200D02*
X226060Y322580D01*
D19*
X227330Y331470D03*
X219710Y339090D03*
D20*
X226060Y345440D01*
X226060Y347980D01*
X324690Y332740D02*
X333620Y332740D01*
D19*
X324690Y332740D03*
D20*
X333620Y332740D02*
X353060Y352180D01*
D19*
X353060Y387985D03*
D20*
X355600Y387985D02*
X361950Y381635D01*
X355600Y387985D02*
X353060Y387985D01*
D22*
X361950Y381635D02*
X361950Y339090D01*
D19*
X347940Y234202D03*
D23*
X347940Y234290D01*
X344105Y238125D01*
X322515Y238125D01*
D20*
X318525Y238125D01*
X304800Y224400D01*
D23*
X297880Y237490D02*
X298515Y238125D01*
X297880Y237490D02*
X281940Y237490D01*
X259080Y237490D01*
X251460Y245110D01*
X233463Y307340D02*
X218440Y307340D01*
X209550Y316230D01*
X209550Y353060D02*
X219710Y363220D01*
X223520Y363220D01*
X224790Y361950D01*
D19*
X224790Y361950D03*
D23*
X251460Y289343D02*
X251460Y245110D01*
X251460Y289343D02*
X233463Y307340D01*
X209550Y316230D02*
X209550Y353060D01*
D20*
X281940Y222618D02*
X297158Y207400D01*
X281940Y222618D02*
X281940Y237490D01*
X297158Y207400D02*
X304800Y207400D01*
D19*
X431800Y464820D03*
X392430Y426720D03*
X406400Y426720D03*
X393700Y414020D03*
X406400Y414020D03*
X419100Y414020D03*
X419100Y426720D03*
X419100Y439420D03*
X419100Y452120D03*
X419100Y464820D03*
X431800Y452120D03*
X431800Y439420D03*
X431800Y426720D03*
X431800Y414020D03*
D20*
X392430Y426720D02*
X389890Y424180D01*
D19*
X381000Y426720D03*
X381000Y414020D03*
X381000Y439420D03*
X381000Y453390D03*
X381000Y466090D03*
X388746Y248920D03*
D20*
X391160Y248920D01*
X393812Y246268D01*
X430854Y246268D02*
X437733Y253147D01*
X437733Y348539D01*
X430854Y246268D02*
X393812Y246268D01*
X437733Y348539D02*
X433946Y352326D01*
D19*
X433946Y352326D03*
X261620Y388620D03*
X261620Y401320D03*
X261620Y414020D03*
X261620Y426720D03*
X261620Y439420D03*
X261620Y452120D03*
X261620Y464820D03*
X274320Y426720D03*
X274320Y439420D03*
X274320Y452120D03*
X274320Y464820D03*
X287020Y426720D03*
X299720Y388620D03*
X299720Y401320D03*
X299720Y414020D03*
X299720Y426720D03*
X274320Y414020D03*
X287020Y414020D03*
X274320Y401320D03*
X287020Y401320D03*
X287020Y388620D03*
X274320Y388620D03*
X313690Y464820D03*
X313690Y452120D03*
X313690Y439420D03*
X313690Y426720D03*
X313690Y414020D03*
X313690Y401320D03*
X313690Y388620D03*
D20*
X369570Y422910D02*
X346710Y445770D01*
X346710Y452120D01*
X369570Y422910D02*
X369570Y366910D01*
X369981Y352134D02*
X386002Y352235D01*
X369981Y352134D02*
X369570Y351910D01*
X386002Y352235D02*
X386080Y352180D01*
X333575Y369180D02*
X327025Y362630D01*
X333575Y369180D02*
X353060Y369180D01*
M02*
