G04 EAGLE Gerber RS-274X export*
G75*
%MOMM*%
%FSLAX34Y34*%
%LPD*%
%INSilkscreen Top*%
%IPPOS*%
%AMOC8*
5,1,8,0,0,1.08239X$1,22.5*%
G01*
%ADD10C,0.101600*%
%ADD11C,0.152400*%
%ADD12R,0.014731X0.014731*%
%ADD13R,0.147319X0.014731*%
%ADD14R,0.265175X0.014731*%
%ADD15R,0.383031X0.014731*%
%ADD16R,0.515619X0.014731*%
%ADD17R,0.633475X0.014731*%
%ADD18R,0.751331X0.014731*%
%ADD19R,0.883919X0.014731*%
%ADD20R,1.001775X0.014731*%
%ADD21R,1.119631X0.014731*%
%ADD22R,1.134363X0.014731*%
%ADD23R,1.149094X0.014731*%
%ADD24R,1.163825X0.014731*%
%ADD25R,1.178556X0.014731*%
%ADD26R,1.193288X0.014731*%
%ADD27R,1.222756X0.014731*%
%ADD28R,1.237488X0.014731*%
%ADD29R,1.266950X0.014731*%
%ADD30R,1.281681X0.014731*%
%ADD31R,1.311144X0.014731*%
%ADD32R,1.325881X0.014731*%
%ADD33R,1.355344X0.014731*%
%ADD34R,1.370075X0.014731*%
%ADD35R,1.384806X0.014731*%
%ADD36R,1.399538X0.014731*%
%ADD37R,1.414275X0.014731*%
%ADD38R,1.443738X0.014731*%
%ADD39R,1.458469X0.014731*%
%ADD40R,1.487931X0.014731*%
%ADD41R,1.502663X0.014731*%
%ADD42R,1.517394X0.014731*%
%ADD43R,1.532125X0.014731*%
%ADD44R,1.546856X0.014731*%
%ADD45R,1.576319X0.014731*%
%ADD46R,1.605788X0.014731*%
%ADD47R,1.620519X0.014731*%
%ADD48R,1.649981X0.014731*%
%ADD49R,1.664713X0.014731*%
%ADD50R,1.694175X0.014731*%
%ADD51R,1.708913X0.014731*%
%ADD52R,1.738375X0.014731*%
%ADD53R,1.753106X0.014731*%
%ADD54R,1.767838X0.014731*%
%ADD55R,1.782569X0.014731*%
%ADD56R,1.797306X0.014731*%
%ADD57R,0.117856X0.014731*%
%ADD58R,1.826769X0.014731*%
%ADD59R,0.235713X0.014731*%
%ADD60R,0.353569X0.014731*%
%ADD61R,1.856231X0.014731*%
%ADD62R,0.486156X0.014731*%
%ADD63R,1.870963X0.014731*%
%ADD64R,0.604013X0.014731*%
%ADD65R,0.721869X0.014731*%
%ADD66R,1.885694X0.014731*%
%ADD67R,0.839719X0.014731*%
%ADD68R,0.972306X0.014731*%
%ADD69R,1.090169X0.014731*%
%ADD70R,1.208025X0.014731*%
%ADD71R,1.252219X0.014731*%
%ADD72R,1.296412X0.014731*%
%ADD73R,1.340612X0.014731*%
%ADD74R,1.826763X0.014731*%
%ADD75R,1.414269X0.014731*%
%ADD76R,1.812031X0.014731*%
%ADD77R,1.429000X0.014731*%
%ADD78R,1.458462X0.014731*%
%ADD79R,1.473200X0.014731*%
%ADD80R,1.723644X0.014731*%
%ADD81R,1.694181X0.014731*%
%ADD82R,1.679450X0.014731*%
%ADD83R,1.561594X0.014731*%
%ADD84R,1.576325X0.014731*%
%ADD85R,1.591056X0.014731*%
%ADD86R,1.635250X0.014731*%
%ADD87R,1.561588X0.014731*%
%ADD88R,1.443731X0.014731*%
%ADD89R,1.797300X0.014731*%
%ADD90R,1.841500X0.014731*%
%ADD91R,1.311150X0.014731*%
%ADD92R,1.296419X0.014731*%
%ADD93R,1.193294X0.014731*%
%ADD94R,0.957575X0.014731*%
%ADD95R,0.589281X0.014731*%
%ADD96R,0.471425X0.014731*%
%ADD97R,0.220975X0.014731*%
%ADD98R,1.812038X0.014731*%
%ADD99R,0.103119X0.014731*%
%ADD100R,0.029463X0.014731*%
%ADD101R,0.162050X0.014731*%
%ADD102R,0.397763X0.014731*%
%ADD103R,0.648206X0.014731*%
%ADD104R,1.679444X0.014731*%
%ADD105R,1.016506X0.014731*%
%ADD106R,1.104900X0.014731*%
%ADD107R,1.222750X0.014731*%
%ADD108R,1.429006X0.014731*%
%ADD109R,1.208019X0.014731*%
%ADD110R,0.987044X0.014731*%
%ADD111R,0.854456X0.014731*%
%ADD112R,0.618744X0.014731*%
%ADD113R,0.500888X0.014731*%
%ADD114R,0.368300X0.014731*%
%ADD115R,0.132587X0.014731*%
%ADD116R,1.664719X0.014731*%
%ADD117R,1.075438X0.014731*%
%ADD118R,0.942844X0.014731*%
%ADD119R,0.707131X0.014731*%
%ADD120R,0.456694X0.014731*%
%ADD121R,0.088388X0.014731*%
%ADD122C,0.076200*%
%ADD123C,0.127000*%
%ADD124R,1.140000X0.600000*%
%ADD125R,0.880000X1.000000*%
%ADD126R,0.762000X3.810000*%


D10*
X497242Y331524D02*
X497242Y334770D01*
X497240Y334883D01*
X497234Y334996D01*
X497224Y335109D01*
X497210Y335222D01*
X497193Y335334D01*
X497171Y335445D01*
X497146Y335555D01*
X497116Y335665D01*
X497083Y335773D01*
X497046Y335880D01*
X497006Y335986D01*
X496961Y336090D01*
X496913Y336193D01*
X496862Y336294D01*
X496807Y336393D01*
X496749Y336490D01*
X496687Y336585D01*
X496622Y336678D01*
X496554Y336768D01*
X496483Y336856D01*
X496408Y336942D01*
X496331Y337025D01*
X496251Y337105D01*
X496168Y337182D01*
X496082Y337257D01*
X495994Y337328D01*
X495904Y337396D01*
X495811Y337461D01*
X495716Y337523D01*
X495619Y337581D01*
X495520Y337636D01*
X495419Y337687D01*
X495316Y337735D01*
X495212Y337780D01*
X495106Y337820D01*
X494999Y337857D01*
X494891Y337890D01*
X494781Y337920D01*
X494671Y337945D01*
X494560Y337967D01*
X494448Y337984D01*
X494335Y337998D01*
X494222Y338008D01*
X494109Y338014D01*
X493996Y338016D01*
X493883Y338014D01*
X493770Y338008D01*
X493657Y337998D01*
X493544Y337984D01*
X493432Y337967D01*
X493321Y337945D01*
X493211Y337920D01*
X493101Y337890D01*
X492993Y337857D01*
X492886Y337820D01*
X492780Y337780D01*
X492676Y337735D01*
X492573Y337687D01*
X492472Y337636D01*
X492373Y337581D01*
X492276Y337523D01*
X492181Y337461D01*
X492088Y337396D01*
X491998Y337328D01*
X491910Y337257D01*
X491824Y337182D01*
X491741Y337105D01*
X491661Y337025D01*
X491584Y336942D01*
X491509Y336856D01*
X491438Y336768D01*
X491370Y336678D01*
X491305Y336585D01*
X491243Y336490D01*
X491185Y336393D01*
X491130Y336294D01*
X491079Y336193D01*
X491031Y336090D01*
X490986Y335986D01*
X490946Y335880D01*
X490909Y335773D01*
X490876Y335665D01*
X490846Y335555D01*
X490821Y335445D01*
X490799Y335334D01*
X490782Y335222D01*
X490768Y335109D01*
X490758Y334996D01*
X490752Y334883D01*
X490750Y334770D01*
X485558Y335419D02*
X485558Y331524D01*
X485558Y335419D02*
X485560Y335520D01*
X485566Y335620D01*
X485576Y335720D01*
X485589Y335820D01*
X485607Y335919D01*
X485628Y336018D01*
X485653Y336115D01*
X485682Y336212D01*
X485715Y336307D01*
X485751Y336401D01*
X485791Y336493D01*
X485834Y336584D01*
X485881Y336673D01*
X485931Y336760D01*
X485985Y336846D01*
X486042Y336929D01*
X486102Y337009D01*
X486165Y337088D01*
X486232Y337164D01*
X486301Y337237D01*
X486373Y337307D01*
X486447Y337375D01*
X486524Y337440D01*
X486604Y337501D01*
X486686Y337560D01*
X486770Y337615D01*
X486856Y337667D01*
X486944Y337716D01*
X487034Y337761D01*
X487126Y337803D01*
X487219Y337841D01*
X487314Y337875D01*
X487409Y337906D01*
X487506Y337933D01*
X487604Y337956D01*
X487703Y337976D01*
X487803Y337991D01*
X487903Y338003D01*
X488003Y338011D01*
X488104Y338015D01*
X488204Y338015D01*
X488305Y338011D01*
X488405Y338003D01*
X488505Y337991D01*
X488605Y337976D01*
X488704Y337956D01*
X488802Y337933D01*
X488899Y337906D01*
X488994Y337875D01*
X489089Y337841D01*
X489182Y337803D01*
X489274Y337761D01*
X489364Y337716D01*
X489452Y337667D01*
X489538Y337615D01*
X489622Y337560D01*
X489704Y337501D01*
X489784Y337440D01*
X489861Y337375D01*
X489935Y337307D01*
X490007Y337237D01*
X490076Y337164D01*
X490143Y337088D01*
X490206Y337009D01*
X490266Y336929D01*
X490323Y336846D01*
X490377Y336760D01*
X490427Y336673D01*
X490474Y336584D01*
X490517Y336493D01*
X490557Y336401D01*
X490593Y336307D01*
X490626Y336212D01*
X490655Y336115D01*
X490680Y336018D01*
X490701Y335919D01*
X490719Y335820D01*
X490732Y335720D01*
X490742Y335620D01*
X490748Y335520D01*
X490750Y335419D01*
X490751Y335419D02*
X490751Y332823D01*
X485558Y342305D02*
X497242Y346200D01*
X485558Y350095D01*
X497242Y354384D02*
X497242Y357630D01*
X497240Y357743D01*
X497234Y357856D01*
X497224Y357969D01*
X497210Y358082D01*
X497193Y358194D01*
X497171Y358305D01*
X497146Y358415D01*
X497116Y358525D01*
X497083Y358633D01*
X497046Y358740D01*
X497006Y358846D01*
X496961Y358950D01*
X496913Y359053D01*
X496862Y359154D01*
X496807Y359253D01*
X496749Y359350D01*
X496687Y359445D01*
X496622Y359538D01*
X496554Y359628D01*
X496483Y359716D01*
X496408Y359802D01*
X496331Y359885D01*
X496251Y359965D01*
X496168Y360042D01*
X496082Y360117D01*
X495994Y360188D01*
X495904Y360256D01*
X495811Y360321D01*
X495716Y360383D01*
X495619Y360441D01*
X495520Y360496D01*
X495419Y360547D01*
X495316Y360595D01*
X495212Y360640D01*
X495106Y360680D01*
X494999Y360717D01*
X494891Y360750D01*
X494781Y360780D01*
X494671Y360805D01*
X494560Y360827D01*
X494448Y360844D01*
X494335Y360858D01*
X494222Y360868D01*
X494109Y360874D01*
X493996Y360876D01*
X493883Y360874D01*
X493770Y360868D01*
X493657Y360858D01*
X493544Y360844D01*
X493432Y360827D01*
X493321Y360805D01*
X493211Y360780D01*
X493101Y360750D01*
X492993Y360717D01*
X492886Y360680D01*
X492780Y360640D01*
X492676Y360595D01*
X492573Y360547D01*
X492472Y360496D01*
X492373Y360441D01*
X492276Y360383D01*
X492181Y360321D01*
X492088Y360256D01*
X491998Y360188D01*
X491910Y360117D01*
X491824Y360042D01*
X491741Y359965D01*
X491661Y359885D01*
X491584Y359802D01*
X491509Y359716D01*
X491438Y359628D01*
X491370Y359538D01*
X491305Y359445D01*
X491243Y359350D01*
X491185Y359253D01*
X491130Y359154D01*
X491079Y359053D01*
X491031Y358950D01*
X490986Y358846D01*
X490946Y358740D01*
X490909Y358633D01*
X490876Y358525D01*
X490846Y358415D01*
X490821Y358305D01*
X490799Y358194D01*
X490782Y358082D01*
X490768Y357969D01*
X490758Y357856D01*
X490752Y357743D01*
X490750Y357630D01*
X485558Y358279D02*
X485558Y354384D01*
X485558Y358279D02*
X485560Y358380D01*
X485566Y358480D01*
X485576Y358580D01*
X485589Y358680D01*
X485607Y358779D01*
X485628Y358878D01*
X485653Y358975D01*
X485682Y359072D01*
X485715Y359167D01*
X485751Y359261D01*
X485791Y359353D01*
X485834Y359444D01*
X485881Y359533D01*
X485931Y359620D01*
X485985Y359706D01*
X486042Y359789D01*
X486102Y359869D01*
X486165Y359948D01*
X486232Y360024D01*
X486301Y360097D01*
X486373Y360167D01*
X486447Y360235D01*
X486524Y360300D01*
X486604Y360361D01*
X486686Y360420D01*
X486770Y360475D01*
X486856Y360527D01*
X486944Y360576D01*
X487034Y360621D01*
X487126Y360663D01*
X487219Y360701D01*
X487314Y360735D01*
X487409Y360766D01*
X487506Y360793D01*
X487604Y360816D01*
X487703Y360836D01*
X487803Y360851D01*
X487903Y360863D01*
X488003Y360871D01*
X488104Y360875D01*
X488204Y360875D01*
X488305Y360871D01*
X488405Y360863D01*
X488505Y360851D01*
X488605Y360836D01*
X488704Y360816D01*
X488802Y360793D01*
X488899Y360766D01*
X488994Y360735D01*
X489089Y360701D01*
X489182Y360663D01*
X489274Y360621D01*
X489364Y360576D01*
X489452Y360527D01*
X489538Y360475D01*
X489622Y360420D01*
X489704Y360361D01*
X489784Y360300D01*
X489861Y360235D01*
X489935Y360167D01*
X490007Y360097D01*
X490076Y360024D01*
X490143Y359948D01*
X490206Y359869D01*
X490266Y359789D01*
X490323Y359706D01*
X490377Y359620D01*
X490427Y359533D01*
X490474Y359444D01*
X490517Y359353D01*
X490557Y359261D01*
X490593Y359167D01*
X490626Y359072D01*
X490655Y358975D01*
X490680Y358878D01*
X490701Y358779D01*
X490719Y358680D01*
X490732Y358580D01*
X490742Y358480D01*
X490748Y358380D01*
X490750Y358279D01*
X490751Y358279D02*
X490751Y355683D01*
X412788Y209159D02*
X410129Y207297D01*
X412788Y209158D02*
X412879Y209225D01*
X412969Y209294D01*
X413056Y209367D01*
X413140Y209443D01*
X413221Y209522D01*
X413300Y209603D01*
X413376Y209687D01*
X413449Y209774D01*
X413518Y209864D01*
X413585Y209955D01*
X413648Y210049D01*
X413708Y210145D01*
X413765Y210243D01*
X413818Y210343D01*
X413868Y210445D01*
X413914Y210549D01*
X413956Y210654D01*
X413995Y210760D01*
X414030Y210868D01*
X414061Y210977D01*
X414089Y211087D01*
X414112Y211198D01*
X414132Y211309D01*
X414148Y211421D01*
X414160Y211534D01*
X414168Y211647D01*
X414172Y211760D01*
X414172Y211874D01*
X414168Y211987D01*
X414160Y212100D01*
X414148Y212213D01*
X414132Y212325D01*
X414112Y212436D01*
X414089Y212547D01*
X414061Y212657D01*
X414030Y212766D01*
X413995Y212874D01*
X413956Y212980D01*
X413914Y213085D01*
X413868Y213189D01*
X413818Y213291D01*
X413765Y213391D01*
X413708Y213489D01*
X413648Y213585D01*
X413585Y213679D01*
X413518Y213770D01*
X413449Y213860D01*
X413376Y213947D01*
X413300Y214031D01*
X413221Y214112D01*
X413140Y214191D01*
X413056Y214267D01*
X412969Y214340D01*
X412880Y214409D01*
X412788Y214476D01*
X412694Y214539D01*
X412598Y214599D01*
X412500Y214656D01*
X412400Y214709D01*
X412298Y214759D01*
X412194Y214805D01*
X412089Y214847D01*
X411983Y214886D01*
X411875Y214921D01*
X411766Y214952D01*
X411656Y214980D01*
X411545Y215003D01*
X411434Y215023D01*
X411322Y215039D01*
X411209Y215051D01*
X411096Y215059D01*
X410983Y215063D01*
X410869Y215063D01*
X410756Y215059D01*
X410643Y215051D01*
X410530Y215039D01*
X410418Y215023D01*
X410307Y215003D01*
X410196Y214980D01*
X410086Y214952D01*
X409977Y214921D01*
X409869Y214886D01*
X409763Y214847D01*
X409658Y214805D01*
X409554Y214759D01*
X409452Y214709D01*
X409352Y214656D01*
X409254Y214599D01*
X409158Y214539D01*
X409064Y214476D01*
X406618Y219102D02*
X403428Y216868D01*
X406618Y219102D02*
X406702Y219158D01*
X406787Y219211D01*
X406875Y219260D01*
X406964Y219306D01*
X407056Y219349D01*
X407149Y219388D01*
X407243Y219423D01*
X407338Y219455D01*
X407435Y219483D01*
X407533Y219507D01*
X407631Y219527D01*
X407731Y219544D01*
X407831Y219556D01*
X407931Y219565D01*
X408032Y219570D01*
X408132Y219571D01*
X408233Y219568D01*
X408333Y219561D01*
X408433Y219550D01*
X408533Y219536D01*
X408632Y219517D01*
X408730Y219495D01*
X408827Y219469D01*
X408924Y219439D01*
X409019Y219406D01*
X409112Y219369D01*
X409204Y219328D01*
X409295Y219283D01*
X409383Y219236D01*
X409470Y219184D01*
X409554Y219130D01*
X409637Y219072D01*
X409717Y219011D01*
X409795Y218947D01*
X409870Y218880D01*
X409943Y218811D01*
X410012Y218738D01*
X410079Y218663D01*
X410143Y218585D01*
X410204Y218505D01*
X410262Y218422D01*
X410316Y218338D01*
X410368Y218251D01*
X410415Y218163D01*
X410460Y218072D01*
X410501Y217980D01*
X410538Y217886D01*
X410571Y217792D01*
X410601Y217695D01*
X410627Y217598D01*
X410649Y217500D01*
X410668Y217401D01*
X410682Y217301D01*
X410693Y217201D01*
X410700Y217101D01*
X410703Y217000D01*
X410702Y216900D01*
X410697Y216799D01*
X410688Y216699D01*
X410676Y216599D01*
X410659Y216499D01*
X410639Y216401D01*
X410615Y216303D01*
X410587Y216206D01*
X410555Y216111D01*
X410520Y216017D01*
X410481Y215924D01*
X410438Y215832D01*
X410392Y215743D01*
X410343Y215655D01*
X410290Y215570D01*
X410234Y215486D01*
X410174Y215405D01*
X410112Y215326D01*
X410046Y215249D01*
X409978Y215175D01*
X409907Y215104D01*
X409833Y215036D01*
X409756Y214970D01*
X409677Y214908D01*
X409596Y214848D01*
X407470Y213359D01*
X412259Y223052D02*
X422151Y215714D01*
X418639Y227519D01*
X428855Y220409D02*
X431514Y222270D01*
X431605Y222337D01*
X431695Y222406D01*
X431782Y222479D01*
X431866Y222555D01*
X431947Y222634D01*
X432026Y222715D01*
X432102Y222799D01*
X432175Y222886D01*
X432244Y222976D01*
X432311Y223067D01*
X432374Y223161D01*
X432434Y223257D01*
X432491Y223355D01*
X432544Y223455D01*
X432594Y223557D01*
X432640Y223661D01*
X432682Y223766D01*
X432721Y223872D01*
X432756Y223980D01*
X432787Y224089D01*
X432815Y224199D01*
X432838Y224310D01*
X432858Y224421D01*
X432874Y224533D01*
X432886Y224646D01*
X432894Y224759D01*
X432898Y224872D01*
X432898Y224986D01*
X432894Y225099D01*
X432886Y225212D01*
X432874Y225325D01*
X432858Y225437D01*
X432838Y225548D01*
X432815Y225659D01*
X432787Y225769D01*
X432756Y225878D01*
X432721Y225986D01*
X432682Y226092D01*
X432640Y226197D01*
X432594Y226301D01*
X432544Y226403D01*
X432491Y226503D01*
X432434Y226601D01*
X432374Y226697D01*
X432311Y226791D01*
X432244Y226882D01*
X432175Y226972D01*
X432102Y227059D01*
X432026Y227143D01*
X431947Y227224D01*
X431866Y227303D01*
X431782Y227379D01*
X431695Y227452D01*
X431606Y227521D01*
X431514Y227588D01*
X431420Y227651D01*
X431324Y227711D01*
X431226Y227768D01*
X431126Y227821D01*
X431024Y227871D01*
X430920Y227917D01*
X430815Y227959D01*
X430709Y227998D01*
X430601Y228033D01*
X430492Y228064D01*
X430382Y228092D01*
X430271Y228115D01*
X430160Y228135D01*
X430048Y228151D01*
X429935Y228163D01*
X429822Y228171D01*
X429709Y228175D01*
X429595Y228175D01*
X429482Y228171D01*
X429369Y228163D01*
X429256Y228151D01*
X429144Y228135D01*
X429033Y228115D01*
X428922Y228092D01*
X428812Y228064D01*
X428703Y228033D01*
X428595Y227998D01*
X428489Y227959D01*
X428384Y227917D01*
X428280Y227871D01*
X428178Y227821D01*
X428078Y227768D01*
X427980Y227711D01*
X427884Y227651D01*
X427790Y227588D01*
X425344Y232214D02*
X422153Y229980D01*
X425344Y232214D02*
X425428Y232270D01*
X425513Y232323D01*
X425601Y232372D01*
X425690Y232418D01*
X425782Y232461D01*
X425875Y232500D01*
X425969Y232535D01*
X426064Y232567D01*
X426161Y232595D01*
X426259Y232619D01*
X426357Y232639D01*
X426457Y232656D01*
X426557Y232668D01*
X426657Y232677D01*
X426758Y232682D01*
X426858Y232683D01*
X426959Y232680D01*
X427059Y232673D01*
X427159Y232662D01*
X427259Y232648D01*
X427358Y232629D01*
X427456Y232607D01*
X427553Y232581D01*
X427650Y232551D01*
X427745Y232518D01*
X427838Y232481D01*
X427930Y232440D01*
X428021Y232395D01*
X428109Y232348D01*
X428196Y232296D01*
X428280Y232242D01*
X428363Y232184D01*
X428443Y232123D01*
X428521Y232059D01*
X428596Y231992D01*
X428669Y231923D01*
X428738Y231850D01*
X428805Y231775D01*
X428869Y231697D01*
X428930Y231617D01*
X428988Y231534D01*
X429042Y231450D01*
X429094Y231363D01*
X429141Y231275D01*
X429186Y231184D01*
X429227Y231092D01*
X429264Y230998D01*
X429297Y230904D01*
X429327Y230807D01*
X429353Y230710D01*
X429375Y230612D01*
X429394Y230513D01*
X429408Y230413D01*
X429419Y230313D01*
X429426Y230213D01*
X429429Y230112D01*
X429428Y230012D01*
X429423Y229911D01*
X429414Y229811D01*
X429402Y229711D01*
X429385Y229611D01*
X429365Y229513D01*
X429341Y229415D01*
X429313Y229318D01*
X429281Y229223D01*
X429246Y229129D01*
X429207Y229036D01*
X429164Y228944D01*
X429118Y228855D01*
X429069Y228767D01*
X429016Y228682D01*
X428960Y228598D01*
X428900Y228517D01*
X428838Y228438D01*
X428772Y228361D01*
X428704Y228287D01*
X428633Y228216D01*
X428559Y228148D01*
X428482Y228082D01*
X428403Y228020D01*
X428322Y227960D01*
X426195Y226471D01*
X260886Y222270D02*
X258228Y224132D01*
X260886Y222270D02*
X260980Y222207D01*
X261076Y222147D01*
X261174Y222090D01*
X261274Y222037D01*
X261376Y221987D01*
X261480Y221941D01*
X261585Y221899D01*
X261691Y221860D01*
X261799Y221825D01*
X261908Y221794D01*
X262018Y221766D01*
X262129Y221743D01*
X262240Y221723D01*
X262352Y221707D01*
X262465Y221695D01*
X262578Y221687D01*
X262691Y221683D01*
X262805Y221683D01*
X262918Y221687D01*
X263031Y221695D01*
X263144Y221707D01*
X263256Y221723D01*
X263367Y221743D01*
X263478Y221766D01*
X263588Y221794D01*
X263697Y221825D01*
X263805Y221860D01*
X263911Y221899D01*
X264016Y221941D01*
X264120Y221987D01*
X264222Y222037D01*
X264322Y222090D01*
X264420Y222147D01*
X264516Y222207D01*
X264610Y222270D01*
X264701Y222337D01*
X264791Y222406D01*
X264878Y222479D01*
X264962Y222555D01*
X265043Y222634D01*
X265122Y222715D01*
X265198Y222799D01*
X265271Y222886D01*
X265340Y222976D01*
X265407Y223067D01*
X265470Y223161D01*
X265530Y223257D01*
X265587Y223355D01*
X265640Y223455D01*
X265690Y223557D01*
X265736Y223661D01*
X265778Y223766D01*
X265817Y223872D01*
X265852Y223980D01*
X265883Y224089D01*
X265911Y224199D01*
X265934Y224310D01*
X265954Y224421D01*
X265970Y224533D01*
X265982Y224646D01*
X265990Y224759D01*
X265994Y224872D01*
X265994Y224986D01*
X265990Y225099D01*
X265982Y225212D01*
X265970Y225325D01*
X265954Y225437D01*
X265934Y225548D01*
X265911Y225659D01*
X265883Y225769D01*
X265852Y225878D01*
X265817Y225986D01*
X265778Y226092D01*
X265736Y226197D01*
X265690Y226301D01*
X265640Y226403D01*
X265587Y226503D01*
X265530Y226601D01*
X265470Y226697D01*
X265407Y226791D01*
X265340Y226882D01*
X265271Y226972D01*
X265198Y227059D01*
X265122Y227143D01*
X265043Y227224D01*
X264962Y227303D01*
X264878Y227379D01*
X264791Y227452D01*
X264702Y227521D01*
X264610Y227588D01*
X268120Y231469D02*
X264929Y233703D01*
X268119Y231469D02*
X268200Y231409D01*
X268279Y231347D01*
X268356Y231281D01*
X268430Y231213D01*
X268501Y231142D01*
X268569Y231068D01*
X268635Y230991D01*
X268697Y230912D01*
X268757Y230831D01*
X268813Y230747D01*
X268866Y230662D01*
X268915Y230574D01*
X268961Y230485D01*
X269004Y230393D01*
X269043Y230300D01*
X269078Y230206D01*
X269110Y230111D01*
X269138Y230014D01*
X269162Y229916D01*
X269182Y229818D01*
X269199Y229718D01*
X269211Y229618D01*
X269220Y229518D01*
X269225Y229418D01*
X269226Y229317D01*
X269223Y229216D01*
X269216Y229116D01*
X269205Y229016D01*
X269191Y228916D01*
X269172Y228817D01*
X269150Y228719D01*
X269124Y228622D01*
X269094Y228525D01*
X269061Y228431D01*
X269024Y228337D01*
X268983Y228245D01*
X268938Y228154D01*
X268891Y228066D01*
X268839Y227979D01*
X268785Y227895D01*
X268727Y227812D01*
X268666Y227732D01*
X268602Y227654D01*
X268535Y227579D01*
X268466Y227506D01*
X268393Y227437D01*
X268318Y227370D01*
X268240Y227306D01*
X268160Y227245D01*
X268077Y227187D01*
X267993Y227133D01*
X267906Y227081D01*
X267818Y227034D01*
X267727Y226989D01*
X267635Y226948D01*
X267541Y226911D01*
X267447Y226878D01*
X267350Y226848D01*
X267253Y226822D01*
X267155Y226800D01*
X267056Y226781D01*
X266956Y226767D01*
X266856Y226756D01*
X266756Y226749D01*
X266655Y226746D01*
X266554Y226747D01*
X266454Y226752D01*
X266354Y226761D01*
X266254Y226773D01*
X266154Y226790D01*
X266056Y226810D01*
X265958Y226834D01*
X265861Y226862D01*
X265766Y226894D01*
X265672Y226929D01*
X265579Y226968D01*
X265487Y227011D01*
X265398Y227057D01*
X265310Y227106D01*
X265225Y227159D01*
X265141Y227215D01*
X263014Y228705D01*
X273760Y227519D02*
X270249Y215714D01*
X280141Y223052D01*
X276953Y211020D02*
X279612Y209158D01*
X279706Y209095D01*
X279802Y209035D01*
X279900Y208978D01*
X280000Y208925D01*
X280102Y208875D01*
X280206Y208829D01*
X280311Y208787D01*
X280417Y208748D01*
X280525Y208713D01*
X280634Y208682D01*
X280744Y208654D01*
X280855Y208631D01*
X280966Y208611D01*
X281078Y208595D01*
X281191Y208583D01*
X281304Y208575D01*
X281417Y208571D01*
X281531Y208571D01*
X281644Y208575D01*
X281757Y208583D01*
X281870Y208595D01*
X281982Y208611D01*
X282093Y208631D01*
X282204Y208654D01*
X282314Y208682D01*
X282423Y208713D01*
X282531Y208748D01*
X282637Y208787D01*
X282742Y208829D01*
X282846Y208875D01*
X282948Y208925D01*
X283048Y208978D01*
X283146Y209035D01*
X283242Y209095D01*
X283336Y209158D01*
X283427Y209225D01*
X283517Y209294D01*
X283604Y209367D01*
X283688Y209443D01*
X283769Y209522D01*
X283848Y209603D01*
X283924Y209687D01*
X283997Y209774D01*
X284066Y209864D01*
X284133Y209955D01*
X284196Y210049D01*
X284256Y210145D01*
X284313Y210243D01*
X284366Y210343D01*
X284416Y210445D01*
X284462Y210549D01*
X284504Y210654D01*
X284543Y210760D01*
X284578Y210868D01*
X284609Y210977D01*
X284637Y211087D01*
X284660Y211198D01*
X284680Y211309D01*
X284696Y211421D01*
X284708Y211534D01*
X284716Y211647D01*
X284720Y211760D01*
X284720Y211874D01*
X284716Y211987D01*
X284708Y212100D01*
X284696Y212213D01*
X284680Y212325D01*
X284660Y212436D01*
X284637Y212547D01*
X284609Y212657D01*
X284578Y212766D01*
X284543Y212874D01*
X284504Y212980D01*
X284462Y213085D01*
X284416Y213189D01*
X284366Y213291D01*
X284313Y213391D01*
X284256Y213489D01*
X284196Y213585D01*
X284133Y213679D01*
X284066Y213770D01*
X283997Y213860D01*
X283924Y213947D01*
X283848Y214031D01*
X283769Y214112D01*
X283688Y214191D01*
X283604Y214267D01*
X283517Y214340D01*
X283428Y214409D01*
X283336Y214476D01*
X286845Y218357D02*
X283655Y220591D01*
X286845Y218357D02*
X286926Y218297D01*
X287005Y218235D01*
X287082Y218169D01*
X287156Y218101D01*
X287227Y218030D01*
X287295Y217956D01*
X287361Y217879D01*
X287423Y217800D01*
X287483Y217719D01*
X287539Y217635D01*
X287592Y217550D01*
X287641Y217462D01*
X287687Y217373D01*
X287730Y217281D01*
X287769Y217188D01*
X287804Y217094D01*
X287836Y216999D01*
X287864Y216902D01*
X287888Y216804D01*
X287908Y216706D01*
X287925Y216606D01*
X287937Y216506D01*
X287946Y216406D01*
X287951Y216306D01*
X287952Y216205D01*
X287949Y216104D01*
X287942Y216004D01*
X287931Y215904D01*
X287917Y215804D01*
X287898Y215705D01*
X287876Y215607D01*
X287850Y215510D01*
X287820Y215413D01*
X287787Y215319D01*
X287750Y215225D01*
X287709Y215133D01*
X287664Y215042D01*
X287617Y214954D01*
X287565Y214867D01*
X287511Y214783D01*
X287453Y214700D01*
X287392Y214620D01*
X287328Y214542D01*
X287261Y214467D01*
X287192Y214394D01*
X287119Y214325D01*
X287044Y214258D01*
X286966Y214194D01*
X286886Y214133D01*
X286803Y214075D01*
X286719Y214021D01*
X286632Y213969D01*
X286544Y213922D01*
X286453Y213877D01*
X286361Y213836D01*
X286267Y213799D01*
X286173Y213766D01*
X286076Y213736D01*
X285979Y213710D01*
X285881Y213688D01*
X285782Y213669D01*
X285682Y213655D01*
X285582Y213644D01*
X285482Y213637D01*
X285381Y213634D01*
X285280Y213635D01*
X285180Y213640D01*
X285080Y213649D01*
X284980Y213661D01*
X284880Y213678D01*
X284782Y213698D01*
X284684Y213722D01*
X284587Y213750D01*
X284492Y213782D01*
X284398Y213817D01*
X284305Y213856D01*
X284213Y213899D01*
X284124Y213945D01*
X284036Y213994D01*
X283951Y214047D01*
X283867Y214103D01*
X281740Y215593D01*
X206842Y331524D02*
X206842Y334770D01*
X206840Y334883D01*
X206834Y334996D01*
X206824Y335109D01*
X206810Y335222D01*
X206793Y335334D01*
X206771Y335445D01*
X206746Y335555D01*
X206716Y335665D01*
X206683Y335773D01*
X206646Y335880D01*
X206606Y335986D01*
X206561Y336090D01*
X206513Y336193D01*
X206462Y336294D01*
X206407Y336393D01*
X206349Y336490D01*
X206287Y336585D01*
X206222Y336678D01*
X206154Y336768D01*
X206083Y336856D01*
X206008Y336942D01*
X205931Y337025D01*
X205851Y337105D01*
X205768Y337182D01*
X205682Y337257D01*
X205594Y337328D01*
X205504Y337396D01*
X205411Y337461D01*
X205316Y337523D01*
X205219Y337581D01*
X205120Y337636D01*
X205019Y337687D01*
X204916Y337735D01*
X204812Y337780D01*
X204706Y337820D01*
X204599Y337857D01*
X204491Y337890D01*
X204381Y337920D01*
X204271Y337945D01*
X204160Y337967D01*
X204048Y337984D01*
X203935Y337998D01*
X203822Y338008D01*
X203709Y338014D01*
X203596Y338016D01*
X203483Y338014D01*
X203370Y338008D01*
X203257Y337998D01*
X203144Y337984D01*
X203032Y337967D01*
X202921Y337945D01*
X202811Y337920D01*
X202701Y337890D01*
X202593Y337857D01*
X202486Y337820D01*
X202380Y337780D01*
X202276Y337735D01*
X202173Y337687D01*
X202072Y337636D01*
X201973Y337581D01*
X201876Y337523D01*
X201781Y337461D01*
X201688Y337396D01*
X201598Y337328D01*
X201510Y337257D01*
X201424Y337182D01*
X201341Y337105D01*
X201261Y337025D01*
X201184Y336942D01*
X201109Y336856D01*
X201038Y336768D01*
X200970Y336678D01*
X200905Y336585D01*
X200843Y336490D01*
X200785Y336393D01*
X200730Y336294D01*
X200679Y336193D01*
X200631Y336090D01*
X200586Y335986D01*
X200546Y335880D01*
X200509Y335773D01*
X200476Y335665D01*
X200446Y335555D01*
X200421Y335445D01*
X200399Y335334D01*
X200382Y335222D01*
X200368Y335109D01*
X200358Y334996D01*
X200352Y334883D01*
X200350Y334770D01*
X195158Y335419D02*
X195158Y331524D01*
X195158Y335419D02*
X195160Y335520D01*
X195166Y335620D01*
X195176Y335720D01*
X195189Y335820D01*
X195207Y335919D01*
X195228Y336018D01*
X195253Y336115D01*
X195282Y336212D01*
X195315Y336307D01*
X195351Y336401D01*
X195391Y336493D01*
X195434Y336584D01*
X195481Y336673D01*
X195531Y336760D01*
X195585Y336846D01*
X195642Y336929D01*
X195702Y337009D01*
X195765Y337088D01*
X195832Y337164D01*
X195901Y337237D01*
X195973Y337307D01*
X196047Y337375D01*
X196124Y337440D01*
X196204Y337501D01*
X196286Y337560D01*
X196370Y337615D01*
X196456Y337667D01*
X196544Y337716D01*
X196634Y337761D01*
X196726Y337803D01*
X196819Y337841D01*
X196914Y337875D01*
X197009Y337906D01*
X197106Y337933D01*
X197204Y337956D01*
X197303Y337976D01*
X197403Y337991D01*
X197503Y338003D01*
X197603Y338011D01*
X197704Y338015D01*
X197804Y338015D01*
X197905Y338011D01*
X198005Y338003D01*
X198105Y337991D01*
X198205Y337976D01*
X198304Y337956D01*
X198402Y337933D01*
X198499Y337906D01*
X198594Y337875D01*
X198689Y337841D01*
X198782Y337803D01*
X198874Y337761D01*
X198964Y337716D01*
X199052Y337667D01*
X199138Y337615D01*
X199222Y337560D01*
X199304Y337501D01*
X199384Y337440D01*
X199461Y337375D01*
X199535Y337307D01*
X199607Y337237D01*
X199676Y337164D01*
X199743Y337088D01*
X199806Y337009D01*
X199866Y336929D01*
X199923Y336846D01*
X199977Y336760D01*
X200027Y336673D01*
X200074Y336584D01*
X200117Y336493D01*
X200157Y336401D01*
X200193Y336307D01*
X200226Y336212D01*
X200255Y336115D01*
X200280Y336018D01*
X200301Y335919D01*
X200319Y335820D01*
X200332Y335720D01*
X200342Y335620D01*
X200348Y335520D01*
X200350Y335419D01*
X200351Y335419D02*
X200351Y332823D01*
X195158Y342305D02*
X206842Y346200D01*
X195158Y350095D01*
X206842Y354384D02*
X206842Y357630D01*
X206840Y357743D01*
X206834Y357856D01*
X206824Y357969D01*
X206810Y358082D01*
X206793Y358194D01*
X206771Y358305D01*
X206746Y358415D01*
X206716Y358525D01*
X206683Y358633D01*
X206646Y358740D01*
X206606Y358846D01*
X206561Y358950D01*
X206513Y359053D01*
X206462Y359154D01*
X206407Y359253D01*
X206349Y359350D01*
X206287Y359445D01*
X206222Y359538D01*
X206154Y359628D01*
X206083Y359716D01*
X206008Y359802D01*
X205931Y359885D01*
X205851Y359965D01*
X205768Y360042D01*
X205682Y360117D01*
X205594Y360188D01*
X205504Y360256D01*
X205411Y360321D01*
X205316Y360383D01*
X205219Y360441D01*
X205120Y360496D01*
X205019Y360547D01*
X204916Y360595D01*
X204812Y360640D01*
X204706Y360680D01*
X204599Y360717D01*
X204491Y360750D01*
X204381Y360780D01*
X204271Y360805D01*
X204160Y360827D01*
X204048Y360844D01*
X203935Y360858D01*
X203822Y360868D01*
X203709Y360874D01*
X203596Y360876D01*
X203483Y360874D01*
X203370Y360868D01*
X203257Y360858D01*
X203144Y360844D01*
X203032Y360827D01*
X202921Y360805D01*
X202811Y360780D01*
X202701Y360750D01*
X202593Y360717D01*
X202486Y360680D01*
X202380Y360640D01*
X202276Y360595D01*
X202173Y360547D01*
X202072Y360496D01*
X201973Y360441D01*
X201876Y360383D01*
X201781Y360321D01*
X201688Y360256D01*
X201598Y360188D01*
X201510Y360117D01*
X201424Y360042D01*
X201341Y359965D01*
X201261Y359885D01*
X201184Y359802D01*
X201109Y359716D01*
X201038Y359628D01*
X200970Y359538D01*
X200905Y359445D01*
X200843Y359350D01*
X200785Y359253D01*
X200730Y359154D01*
X200679Y359053D01*
X200631Y358950D01*
X200586Y358846D01*
X200546Y358740D01*
X200509Y358633D01*
X200476Y358525D01*
X200446Y358415D01*
X200421Y358305D01*
X200399Y358194D01*
X200382Y358082D01*
X200368Y357969D01*
X200358Y357856D01*
X200352Y357743D01*
X200350Y357630D01*
X195158Y358279D02*
X195158Y354384D01*
X195158Y358279D02*
X195160Y358380D01*
X195166Y358480D01*
X195176Y358580D01*
X195189Y358680D01*
X195207Y358779D01*
X195228Y358878D01*
X195253Y358975D01*
X195282Y359072D01*
X195315Y359167D01*
X195351Y359261D01*
X195391Y359353D01*
X195434Y359444D01*
X195481Y359533D01*
X195531Y359620D01*
X195585Y359706D01*
X195642Y359789D01*
X195702Y359869D01*
X195765Y359948D01*
X195832Y360024D01*
X195901Y360097D01*
X195973Y360167D01*
X196047Y360235D01*
X196124Y360300D01*
X196204Y360361D01*
X196286Y360420D01*
X196370Y360475D01*
X196456Y360527D01*
X196544Y360576D01*
X196634Y360621D01*
X196726Y360663D01*
X196819Y360701D01*
X196914Y360735D01*
X197009Y360766D01*
X197106Y360793D01*
X197204Y360816D01*
X197303Y360836D01*
X197403Y360851D01*
X197503Y360863D01*
X197603Y360871D01*
X197704Y360875D01*
X197804Y360875D01*
X197905Y360871D01*
X198005Y360863D01*
X198105Y360851D01*
X198205Y360836D01*
X198304Y360816D01*
X198402Y360793D01*
X198499Y360766D01*
X198594Y360735D01*
X198689Y360701D01*
X198782Y360663D01*
X198874Y360621D01*
X198964Y360576D01*
X199052Y360527D01*
X199138Y360475D01*
X199222Y360420D01*
X199304Y360361D01*
X199384Y360300D01*
X199461Y360235D01*
X199535Y360167D01*
X199607Y360097D01*
X199676Y360024D01*
X199743Y359948D01*
X199806Y359869D01*
X199866Y359789D01*
X199923Y359706D01*
X199977Y359620D01*
X200027Y359533D01*
X200074Y359444D01*
X200117Y359353D01*
X200157Y359261D01*
X200193Y359167D01*
X200226Y359072D01*
X200255Y358975D01*
X200280Y358878D01*
X200301Y358779D01*
X200319Y358680D01*
X200332Y358580D01*
X200342Y358480D01*
X200348Y358380D01*
X200350Y358279D01*
X200351Y358279D02*
X200351Y355683D01*
D11*
X434551Y409907D02*
X434551Y427687D01*
X439490Y427687D01*
X439630Y427685D01*
X439769Y427679D01*
X439909Y427669D01*
X440048Y427655D01*
X440187Y427638D01*
X440325Y427616D01*
X440462Y427590D01*
X440599Y427561D01*
X440735Y427528D01*
X440869Y427491D01*
X441003Y427450D01*
X441135Y427405D01*
X441267Y427356D01*
X441396Y427304D01*
X441524Y427249D01*
X441651Y427189D01*
X441776Y427126D01*
X441899Y427060D01*
X442020Y426990D01*
X442139Y426917D01*
X442256Y426840D01*
X442370Y426760D01*
X442483Y426677D01*
X442593Y426591D01*
X442700Y426501D01*
X442805Y426409D01*
X442907Y426314D01*
X443007Y426216D01*
X443104Y426115D01*
X443198Y426011D01*
X443288Y425905D01*
X443376Y425796D01*
X443461Y425685D01*
X443542Y425571D01*
X443621Y425456D01*
X443696Y425338D01*
X443767Y425218D01*
X443835Y425095D01*
X443900Y424972D01*
X443961Y424846D01*
X444019Y424718D01*
X444073Y424590D01*
X444123Y424459D01*
X444170Y424327D01*
X444213Y424194D01*
X444252Y424060D01*
X444287Y423925D01*
X444318Y423789D01*
X444346Y423651D01*
X444369Y423514D01*
X444389Y423375D01*
X444405Y423236D01*
X444417Y423097D01*
X444425Y422958D01*
X444429Y422818D01*
X444429Y422678D01*
X444425Y422538D01*
X444417Y422399D01*
X444405Y422260D01*
X444389Y422121D01*
X444369Y421982D01*
X444346Y421845D01*
X444318Y421707D01*
X444287Y421571D01*
X444252Y421436D01*
X444213Y421302D01*
X444170Y421169D01*
X444123Y421037D01*
X444073Y420906D01*
X444019Y420778D01*
X443961Y420650D01*
X443900Y420524D01*
X443835Y420401D01*
X443767Y420279D01*
X443696Y420158D01*
X443621Y420040D01*
X443542Y419925D01*
X443461Y419811D01*
X443376Y419700D01*
X443288Y419591D01*
X443198Y419485D01*
X443104Y419381D01*
X443007Y419280D01*
X442907Y419182D01*
X442805Y419087D01*
X442700Y418995D01*
X442593Y418905D01*
X442483Y418819D01*
X442370Y418736D01*
X442256Y418656D01*
X442139Y418579D01*
X442020Y418506D01*
X441899Y418436D01*
X441776Y418370D01*
X441651Y418307D01*
X441524Y418247D01*
X441396Y418192D01*
X441267Y418140D01*
X441135Y418091D01*
X441003Y418046D01*
X440869Y418005D01*
X440735Y417968D01*
X440599Y417935D01*
X440462Y417906D01*
X440325Y417880D01*
X440187Y417858D01*
X440048Y417841D01*
X439909Y417827D01*
X439769Y417817D01*
X439630Y417811D01*
X439490Y417809D01*
X434551Y417809D01*
X450546Y423736D02*
X455485Y427687D01*
X455485Y409907D01*
X450546Y409907D02*
X460424Y409907D01*
X416696Y266550D02*
X416696Y248770D01*
X416696Y266550D02*
X421635Y266550D01*
X421775Y266548D01*
X421914Y266542D01*
X422054Y266532D01*
X422193Y266518D01*
X422332Y266501D01*
X422470Y266479D01*
X422607Y266453D01*
X422744Y266424D01*
X422880Y266391D01*
X423014Y266354D01*
X423148Y266313D01*
X423280Y266268D01*
X423412Y266219D01*
X423541Y266167D01*
X423669Y266112D01*
X423796Y266052D01*
X423921Y265989D01*
X424044Y265923D01*
X424165Y265853D01*
X424284Y265780D01*
X424401Y265703D01*
X424515Y265623D01*
X424628Y265540D01*
X424738Y265454D01*
X424845Y265364D01*
X424950Y265272D01*
X425052Y265177D01*
X425152Y265079D01*
X425249Y264978D01*
X425343Y264874D01*
X425433Y264768D01*
X425521Y264659D01*
X425606Y264548D01*
X425687Y264434D01*
X425766Y264319D01*
X425841Y264201D01*
X425912Y264081D01*
X425980Y263958D01*
X426045Y263835D01*
X426106Y263709D01*
X426164Y263581D01*
X426218Y263453D01*
X426268Y263322D01*
X426315Y263190D01*
X426358Y263057D01*
X426397Y262923D01*
X426432Y262788D01*
X426463Y262652D01*
X426491Y262514D01*
X426514Y262377D01*
X426534Y262238D01*
X426550Y262099D01*
X426562Y261960D01*
X426570Y261821D01*
X426574Y261681D01*
X426574Y261541D01*
X426570Y261401D01*
X426562Y261262D01*
X426550Y261123D01*
X426534Y260984D01*
X426514Y260845D01*
X426491Y260708D01*
X426463Y260570D01*
X426432Y260434D01*
X426397Y260299D01*
X426358Y260165D01*
X426315Y260032D01*
X426268Y259900D01*
X426218Y259769D01*
X426164Y259641D01*
X426106Y259513D01*
X426045Y259387D01*
X425980Y259264D01*
X425912Y259142D01*
X425841Y259021D01*
X425766Y258903D01*
X425687Y258788D01*
X425606Y258674D01*
X425521Y258563D01*
X425433Y258454D01*
X425343Y258348D01*
X425249Y258244D01*
X425152Y258143D01*
X425052Y258045D01*
X424950Y257950D01*
X424845Y257858D01*
X424738Y257768D01*
X424628Y257682D01*
X424515Y257599D01*
X424401Y257519D01*
X424284Y257442D01*
X424165Y257369D01*
X424044Y257299D01*
X423921Y257233D01*
X423796Y257170D01*
X423669Y257110D01*
X423541Y257055D01*
X423412Y257003D01*
X423280Y256954D01*
X423148Y256909D01*
X423014Y256868D01*
X422880Y256831D01*
X422744Y256798D01*
X422607Y256769D01*
X422470Y256743D01*
X422332Y256721D01*
X422193Y256704D01*
X422054Y256690D01*
X421914Y256680D01*
X421775Y256674D01*
X421635Y256672D01*
X416696Y256672D01*
X438124Y266550D02*
X438256Y266548D01*
X438387Y266542D01*
X438519Y266532D01*
X438650Y266519D01*
X438780Y266501D01*
X438910Y266480D01*
X439040Y266455D01*
X439168Y266426D01*
X439296Y266393D01*
X439422Y266356D01*
X439548Y266316D01*
X439672Y266272D01*
X439795Y266224D01*
X439916Y266173D01*
X440036Y266118D01*
X440154Y266060D01*
X440270Y265998D01*
X440384Y265932D01*
X440497Y265864D01*
X440607Y265792D01*
X440715Y265717D01*
X440821Y265638D01*
X440925Y265557D01*
X441026Y265472D01*
X441124Y265385D01*
X441220Y265294D01*
X441313Y265201D01*
X441404Y265105D01*
X441491Y265007D01*
X441576Y264906D01*
X441657Y264802D01*
X441736Y264696D01*
X441811Y264588D01*
X441883Y264478D01*
X441951Y264365D01*
X442017Y264251D01*
X442079Y264135D01*
X442137Y264017D01*
X442192Y263897D01*
X442243Y263776D01*
X442291Y263653D01*
X442335Y263529D01*
X442375Y263403D01*
X442412Y263277D01*
X442445Y263149D01*
X442474Y263021D01*
X442499Y262891D01*
X442520Y262761D01*
X442538Y262631D01*
X442551Y262500D01*
X442561Y262368D01*
X442567Y262237D01*
X442569Y262105D01*
X438124Y266551D02*
X437974Y266549D01*
X437825Y266543D01*
X437676Y266533D01*
X437527Y266520D01*
X437378Y266502D01*
X437230Y266481D01*
X437082Y266455D01*
X436936Y266426D01*
X436790Y266393D01*
X436645Y266356D01*
X436501Y266315D01*
X436358Y266271D01*
X436216Y266223D01*
X436076Y266171D01*
X435937Y266116D01*
X435799Y266057D01*
X435664Y265994D01*
X435529Y265928D01*
X435397Y265858D01*
X435267Y265785D01*
X435138Y265708D01*
X435011Y265628D01*
X434887Y265545D01*
X434765Y265459D01*
X434645Y265369D01*
X434528Y265276D01*
X434413Y265181D01*
X434300Y265082D01*
X434190Y264980D01*
X434083Y264876D01*
X433979Y264769D01*
X433877Y264659D01*
X433779Y264546D01*
X433683Y264431D01*
X433591Y264313D01*
X433501Y264193D01*
X433415Y264071D01*
X433332Y263947D01*
X433252Y263820D01*
X433176Y263692D01*
X433103Y263561D01*
X433033Y263428D01*
X432967Y263294D01*
X432905Y263158D01*
X432846Y263021D01*
X432790Y262882D01*
X432739Y262741D01*
X432691Y262600D01*
X441087Y258648D02*
X441183Y258741D01*
X441275Y258837D01*
X441365Y258936D01*
X441452Y259037D01*
X441537Y259140D01*
X441618Y259245D01*
X441696Y259353D01*
X441771Y259463D01*
X441844Y259575D01*
X441913Y259689D01*
X441979Y259805D01*
X442041Y259923D01*
X442100Y260042D01*
X442156Y260163D01*
X442209Y260286D01*
X442258Y260410D01*
X442303Y260535D01*
X442346Y260662D01*
X442384Y260789D01*
X442419Y260918D01*
X442450Y261047D01*
X442478Y261178D01*
X442502Y261309D01*
X442523Y261441D01*
X442539Y261573D01*
X442552Y261706D01*
X442562Y261839D01*
X442567Y261972D01*
X442569Y262105D01*
X441088Y258648D02*
X432691Y248770D01*
X442569Y248770D01*
X454939Y255685D02*
X454939Y261611D01*
X454939Y255685D02*
X458396Y251240D01*
X454939Y255685D02*
X451482Y251240D01*
X454939Y255685D02*
X460372Y257660D01*
X454939Y255685D02*
X449506Y257660D01*
X333264Y233490D02*
X333264Y215710D01*
X333264Y233490D02*
X338203Y233490D01*
X338343Y233488D01*
X338482Y233482D01*
X338622Y233472D01*
X338761Y233458D01*
X338900Y233441D01*
X339038Y233419D01*
X339175Y233393D01*
X339312Y233364D01*
X339448Y233331D01*
X339582Y233294D01*
X339716Y233253D01*
X339848Y233208D01*
X339980Y233159D01*
X340109Y233107D01*
X340237Y233052D01*
X340364Y232992D01*
X340489Y232929D01*
X340612Y232863D01*
X340733Y232793D01*
X340852Y232720D01*
X340969Y232643D01*
X341083Y232563D01*
X341196Y232480D01*
X341306Y232394D01*
X341413Y232304D01*
X341518Y232212D01*
X341620Y232117D01*
X341720Y232019D01*
X341817Y231918D01*
X341911Y231814D01*
X342001Y231708D01*
X342089Y231599D01*
X342174Y231488D01*
X342255Y231374D01*
X342334Y231259D01*
X342409Y231141D01*
X342480Y231021D01*
X342548Y230898D01*
X342613Y230775D01*
X342674Y230649D01*
X342732Y230521D01*
X342786Y230393D01*
X342836Y230262D01*
X342883Y230130D01*
X342926Y229997D01*
X342965Y229863D01*
X343000Y229728D01*
X343031Y229592D01*
X343059Y229454D01*
X343082Y229317D01*
X343102Y229178D01*
X343118Y229039D01*
X343130Y228900D01*
X343138Y228761D01*
X343142Y228621D01*
X343142Y228481D01*
X343138Y228341D01*
X343130Y228202D01*
X343118Y228063D01*
X343102Y227924D01*
X343082Y227785D01*
X343059Y227648D01*
X343031Y227510D01*
X343000Y227374D01*
X342965Y227239D01*
X342926Y227105D01*
X342883Y226972D01*
X342836Y226840D01*
X342786Y226709D01*
X342732Y226581D01*
X342674Y226453D01*
X342613Y226327D01*
X342548Y226204D01*
X342480Y226082D01*
X342409Y225961D01*
X342334Y225843D01*
X342255Y225728D01*
X342174Y225614D01*
X342089Y225503D01*
X342001Y225394D01*
X341911Y225288D01*
X341817Y225184D01*
X341720Y225083D01*
X341620Y224985D01*
X341518Y224890D01*
X341413Y224798D01*
X341306Y224708D01*
X341196Y224622D01*
X341083Y224539D01*
X340969Y224459D01*
X340852Y224382D01*
X340733Y224309D01*
X340612Y224239D01*
X340489Y224173D01*
X340364Y224110D01*
X340237Y224050D01*
X340109Y223995D01*
X339980Y223943D01*
X339848Y223894D01*
X339716Y223849D01*
X339582Y223808D01*
X339448Y223771D01*
X339312Y223738D01*
X339175Y223709D01*
X339038Y223683D01*
X338900Y223661D01*
X338761Y223644D01*
X338622Y223630D01*
X338482Y223620D01*
X338343Y223614D01*
X338203Y223612D01*
X333264Y223612D01*
X349259Y215710D02*
X354198Y215710D01*
X354338Y215712D01*
X354477Y215718D01*
X354617Y215728D01*
X354756Y215742D01*
X354895Y215759D01*
X355033Y215781D01*
X355170Y215807D01*
X355307Y215836D01*
X355443Y215869D01*
X355577Y215906D01*
X355711Y215947D01*
X355843Y215992D01*
X355975Y216041D01*
X356104Y216093D01*
X356232Y216148D01*
X356359Y216208D01*
X356484Y216271D01*
X356607Y216337D01*
X356728Y216407D01*
X356847Y216480D01*
X356964Y216557D01*
X357078Y216637D01*
X357191Y216720D01*
X357301Y216806D01*
X357408Y216896D01*
X357513Y216988D01*
X357615Y217083D01*
X357715Y217181D01*
X357812Y217282D01*
X357906Y217386D01*
X357996Y217492D01*
X358084Y217601D01*
X358169Y217712D01*
X358250Y217826D01*
X358329Y217941D01*
X358404Y218059D01*
X358475Y218180D01*
X358543Y218302D01*
X358608Y218425D01*
X358669Y218551D01*
X358727Y218679D01*
X358781Y218807D01*
X358831Y218938D01*
X358878Y219070D01*
X358921Y219203D01*
X358960Y219337D01*
X358995Y219472D01*
X359026Y219608D01*
X359054Y219746D01*
X359077Y219883D01*
X359097Y220022D01*
X359113Y220161D01*
X359125Y220300D01*
X359133Y220439D01*
X359137Y220579D01*
X359137Y220719D01*
X359133Y220859D01*
X359125Y220998D01*
X359113Y221137D01*
X359097Y221276D01*
X359077Y221415D01*
X359054Y221552D01*
X359026Y221690D01*
X358995Y221826D01*
X358960Y221961D01*
X358921Y222095D01*
X358878Y222228D01*
X358831Y222360D01*
X358781Y222491D01*
X358727Y222619D01*
X358669Y222747D01*
X358608Y222873D01*
X358543Y222996D01*
X358475Y223119D01*
X358404Y223239D01*
X358329Y223357D01*
X358250Y223472D01*
X358169Y223586D01*
X358084Y223697D01*
X357996Y223806D01*
X357906Y223912D01*
X357812Y224016D01*
X357715Y224117D01*
X357615Y224215D01*
X357513Y224310D01*
X357408Y224402D01*
X357301Y224492D01*
X357191Y224578D01*
X357078Y224661D01*
X356964Y224741D01*
X356847Y224818D01*
X356728Y224891D01*
X356607Y224961D01*
X356484Y225027D01*
X356359Y225090D01*
X356232Y225150D01*
X356104Y225205D01*
X355975Y225257D01*
X355843Y225306D01*
X355711Y225351D01*
X355577Y225392D01*
X355443Y225429D01*
X355307Y225462D01*
X355170Y225491D01*
X355033Y225517D01*
X354895Y225539D01*
X354756Y225556D01*
X354617Y225570D01*
X354477Y225580D01*
X354338Y225586D01*
X354198Y225588D01*
X355185Y233490D02*
X349259Y233490D01*
X355185Y233490D02*
X355309Y233488D01*
X355433Y233482D01*
X355557Y233472D01*
X355680Y233459D01*
X355803Y233441D01*
X355925Y233420D01*
X356047Y233395D01*
X356168Y233366D01*
X356287Y233333D01*
X356406Y233297D01*
X356523Y233256D01*
X356639Y233213D01*
X356754Y233165D01*
X356867Y233114D01*
X356979Y233059D01*
X357088Y233001D01*
X357196Y232940D01*
X357302Y232875D01*
X357406Y232807D01*
X357507Y232735D01*
X357607Y232661D01*
X357703Y232583D01*
X357798Y232503D01*
X357890Y232419D01*
X357979Y232333D01*
X358065Y232244D01*
X358149Y232152D01*
X358229Y232057D01*
X358307Y231961D01*
X358381Y231861D01*
X358453Y231760D01*
X358521Y231656D01*
X358586Y231550D01*
X358647Y231442D01*
X358705Y231333D01*
X358760Y231221D01*
X358811Y231108D01*
X358859Y230993D01*
X358902Y230877D01*
X358943Y230760D01*
X358979Y230641D01*
X359012Y230522D01*
X359041Y230401D01*
X359066Y230279D01*
X359087Y230157D01*
X359105Y230034D01*
X359118Y229911D01*
X359128Y229787D01*
X359134Y229663D01*
X359136Y229539D01*
X359134Y229415D01*
X359128Y229291D01*
X359118Y229167D01*
X359105Y229044D01*
X359087Y228921D01*
X359066Y228799D01*
X359041Y228677D01*
X359012Y228556D01*
X358979Y228437D01*
X358943Y228318D01*
X358902Y228201D01*
X358859Y228085D01*
X358811Y227970D01*
X358760Y227857D01*
X358705Y227745D01*
X358647Y227636D01*
X358586Y227528D01*
X358521Y227422D01*
X358453Y227318D01*
X358381Y227217D01*
X358307Y227117D01*
X358229Y227021D01*
X358149Y226926D01*
X358065Y226834D01*
X357979Y226745D01*
X357890Y226659D01*
X357798Y226575D01*
X357703Y226495D01*
X357607Y226417D01*
X357507Y226343D01*
X357406Y226271D01*
X357302Y226203D01*
X357196Y226138D01*
X357088Y226077D01*
X356979Y226019D01*
X356867Y225964D01*
X356754Y225913D01*
X356639Y225865D01*
X356523Y225822D01*
X356406Y225781D01*
X356287Y225745D01*
X356168Y225712D01*
X356047Y225683D01*
X355925Y225658D01*
X355803Y225637D01*
X355680Y225619D01*
X355557Y225606D01*
X355433Y225596D01*
X355309Y225590D01*
X355185Y225588D01*
X351234Y225588D01*
X242707Y248219D02*
X242707Y265999D01*
X247646Y265999D01*
X247786Y265997D01*
X247925Y265991D01*
X248065Y265981D01*
X248204Y265967D01*
X248343Y265950D01*
X248481Y265928D01*
X248618Y265902D01*
X248755Y265873D01*
X248891Y265840D01*
X249025Y265803D01*
X249159Y265762D01*
X249291Y265717D01*
X249423Y265668D01*
X249552Y265616D01*
X249680Y265561D01*
X249807Y265501D01*
X249932Y265438D01*
X250055Y265372D01*
X250176Y265302D01*
X250295Y265229D01*
X250412Y265152D01*
X250526Y265072D01*
X250639Y264989D01*
X250749Y264903D01*
X250856Y264813D01*
X250961Y264721D01*
X251063Y264626D01*
X251163Y264528D01*
X251260Y264427D01*
X251354Y264323D01*
X251444Y264217D01*
X251532Y264108D01*
X251617Y263997D01*
X251698Y263883D01*
X251777Y263768D01*
X251852Y263650D01*
X251923Y263530D01*
X251991Y263407D01*
X252056Y263284D01*
X252117Y263158D01*
X252175Y263030D01*
X252229Y262902D01*
X252279Y262771D01*
X252326Y262639D01*
X252369Y262506D01*
X252408Y262372D01*
X252443Y262237D01*
X252474Y262101D01*
X252502Y261963D01*
X252525Y261826D01*
X252545Y261687D01*
X252561Y261548D01*
X252573Y261409D01*
X252581Y261270D01*
X252585Y261130D01*
X252585Y260990D01*
X252581Y260850D01*
X252573Y260711D01*
X252561Y260572D01*
X252545Y260433D01*
X252525Y260294D01*
X252502Y260157D01*
X252474Y260019D01*
X252443Y259883D01*
X252408Y259748D01*
X252369Y259614D01*
X252326Y259481D01*
X252279Y259349D01*
X252229Y259218D01*
X252175Y259090D01*
X252117Y258962D01*
X252056Y258836D01*
X251991Y258713D01*
X251923Y258591D01*
X251852Y258470D01*
X251777Y258352D01*
X251698Y258237D01*
X251617Y258123D01*
X251532Y258012D01*
X251444Y257903D01*
X251354Y257797D01*
X251260Y257693D01*
X251163Y257592D01*
X251063Y257494D01*
X250961Y257399D01*
X250856Y257307D01*
X250749Y257217D01*
X250639Y257131D01*
X250526Y257048D01*
X250412Y256968D01*
X250295Y256891D01*
X250176Y256818D01*
X250055Y256748D01*
X249932Y256682D01*
X249807Y256619D01*
X249680Y256559D01*
X249552Y256504D01*
X249423Y256452D01*
X249291Y256403D01*
X249159Y256358D01*
X249025Y256317D01*
X248891Y256280D01*
X248755Y256247D01*
X248618Y256218D01*
X248481Y256192D01*
X248343Y256170D01*
X248204Y256153D01*
X248065Y256139D01*
X247925Y256129D01*
X247786Y256123D01*
X247646Y256121D01*
X242707Y256121D01*
X258702Y252170D02*
X262653Y265999D01*
X258702Y252170D02*
X268580Y252170D01*
X265617Y256121D02*
X265617Y248219D01*
X238078Y410198D02*
X238078Y427978D01*
X243017Y427978D01*
X243157Y427976D01*
X243296Y427970D01*
X243436Y427960D01*
X243575Y427946D01*
X243714Y427929D01*
X243852Y427907D01*
X243989Y427881D01*
X244126Y427852D01*
X244262Y427819D01*
X244396Y427782D01*
X244530Y427741D01*
X244662Y427696D01*
X244794Y427647D01*
X244923Y427595D01*
X245051Y427540D01*
X245178Y427480D01*
X245303Y427417D01*
X245426Y427351D01*
X245547Y427281D01*
X245666Y427208D01*
X245783Y427131D01*
X245897Y427051D01*
X246010Y426968D01*
X246120Y426882D01*
X246227Y426792D01*
X246332Y426700D01*
X246434Y426605D01*
X246534Y426507D01*
X246631Y426406D01*
X246725Y426302D01*
X246815Y426196D01*
X246903Y426087D01*
X246988Y425976D01*
X247069Y425862D01*
X247148Y425747D01*
X247223Y425629D01*
X247294Y425509D01*
X247362Y425386D01*
X247427Y425263D01*
X247488Y425137D01*
X247546Y425009D01*
X247600Y424881D01*
X247650Y424750D01*
X247697Y424618D01*
X247740Y424485D01*
X247779Y424351D01*
X247814Y424216D01*
X247845Y424080D01*
X247873Y423942D01*
X247896Y423805D01*
X247916Y423666D01*
X247932Y423527D01*
X247944Y423388D01*
X247952Y423249D01*
X247956Y423109D01*
X247956Y422969D01*
X247952Y422829D01*
X247944Y422690D01*
X247932Y422551D01*
X247916Y422412D01*
X247896Y422273D01*
X247873Y422136D01*
X247845Y421998D01*
X247814Y421862D01*
X247779Y421727D01*
X247740Y421593D01*
X247697Y421460D01*
X247650Y421328D01*
X247600Y421197D01*
X247546Y421069D01*
X247488Y420941D01*
X247427Y420815D01*
X247362Y420692D01*
X247294Y420570D01*
X247223Y420449D01*
X247148Y420331D01*
X247069Y420216D01*
X246988Y420102D01*
X246903Y419991D01*
X246815Y419882D01*
X246725Y419776D01*
X246631Y419672D01*
X246534Y419571D01*
X246434Y419473D01*
X246332Y419378D01*
X246227Y419286D01*
X246120Y419196D01*
X246010Y419110D01*
X245897Y419027D01*
X245783Y418947D01*
X245666Y418870D01*
X245547Y418797D01*
X245426Y418727D01*
X245303Y418661D01*
X245178Y418598D01*
X245051Y418538D01*
X244923Y418483D01*
X244794Y418431D01*
X244662Y418382D01*
X244530Y418337D01*
X244396Y418296D01*
X244262Y418259D01*
X244126Y418226D01*
X243989Y418197D01*
X243852Y418171D01*
X243714Y418149D01*
X243575Y418132D01*
X243436Y418118D01*
X243296Y418108D01*
X243157Y418102D01*
X243017Y418100D01*
X238078Y418100D01*
X254073Y410198D02*
X260000Y410198D01*
X260124Y410200D01*
X260248Y410206D01*
X260372Y410216D01*
X260495Y410229D01*
X260618Y410247D01*
X260740Y410268D01*
X260862Y410293D01*
X260983Y410322D01*
X261102Y410355D01*
X261221Y410391D01*
X261338Y410432D01*
X261454Y410475D01*
X261569Y410523D01*
X261682Y410574D01*
X261794Y410629D01*
X261903Y410687D01*
X262011Y410748D01*
X262117Y410813D01*
X262221Y410881D01*
X262322Y410953D01*
X262422Y411027D01*
X262518Y411105D01*
X262613Y411185D01*
X262705Y411269D01*
X262794Y411355D01*
X262880Y411444D01*
X262964Y411536D01*
X263044Y411631D01*
X263122Y411727D01*
X263196Y411827D01*
X263268Y411928D01*
X263336Y412032D01*
X263401Y412138D01*
X263462Y412246D01*
X263520Y412355D01*
X263575Y412467D01*
X263626Y412580D01*
X263674Y412695D01*
X263717Y412811D01*
X263758Y412928D01*
X263794Y413047D01*
X263827Y413166D01*
X263856Y413287D01*
X263881Y413409D01*
X263902Y413531D01*
X263920Y413654D01*
X263933Y413777D01*
X263943Y413901D01*
X263949Y414025D01*
X263951Y414149D01*
X263951Y416125D01*
X263949Y416249D01*
X263943Y416373D01*
X263933Y416497D01*
X263920Y416620D01*
X263902Y416743D01*
X263881Y416865D01*
X263856Y416987D01*
X263827Y417108D01*
X263794Y417227D01*
X263758Y417346D01*
X263717Y417463D01*
X263674Y417579D01*
X263626Y417694D01*
X263575Y417807D01*
X263520Y417919D01*
X263462Y418028D01*
X263401Y418136D01*
X263336Y418242D01*
X263268Y418346D01*
X263196Y418447D01*
X263122Y418547D01*
X263044Y418643D01*
X262964Y418738D01*
X262880Y418830D01*
X262794Y418919D01*
X262705Y419005D01*
X262613Y419089D01*
X262518Y419169D01*
X262422Y419247D01*
X262322Y419321D01*
X262221Y419393D01*
X262117Y419461D01*
X262011Y419526D01*
X261903Y419587D01*
X261794Y419645D01*
X261682Y419700D01*
X261569Y419751D01*
X261454Y419799D01*
X261338Y419842D01*
X261221Y419883D01*
X261102Y419919D01*
X260983Y419952D01*
X260862Y419981D01*
X260740Y420006D01*
X260618Y420027D01*
X260495Y420045D01*
X260372Y420058D01*
X260248Y420068D01*
X260124Y420074D01*
X260000Y420076D01*
X254073Y420076D01*
X254073Y427978D01*
X263951Y427978D01*
D12*
X362044Y248336D03*
D13*
X361528Y248483D03*
D14*
X360939Y248630D03*
D15*
X360497Y248778D03*
D16*
X359982Y248925D03*
D17*
X359540Y249072D03*
D18*
X358950Y249220D03*
D19*
X358435Y249367D03*
D20*
X357993Y249514D03*
D21*
X357551Y249662D03*
D22*
X357477Y249809D03*
D23*
X357551Y249956D03*
D24*
X357624Y250104D03*
D25*
X357551Y250251D03*
D26*
X357624Y250398D03*
D27*
X357624Y250546D03*
D28*
X357698Y250693D03*
X357698Y250840D03*
D29*
X357698Y250988D03*
D30*
X357772Y251135D03*
D31*
X357772Y251282D03*
X357772Y251430D03*
D32*
X357845Y251577D03*
D33*
X357845Y251724D03*
D34*
X357919Y251871D03*
D35*
X357845Y252019D03*
D36*
X357919Y252166D03*
D37*
X357993Y252313D03*
D38*
X357993Y252461D03*
X357993Y252608D03*
D39*
X358066Y252755D03*
D40*
X358066Y252903D03*
D41*
X358140Y253050D03*
D42*
X358066Y253197D03*
D43*
X358140Y253345D03*
D44*
X358214Y253492D03*
D45*
X358214Y253639D03*
X358214Y253787D03*
D46*
X358214Y253934D03*
D47*
X358287Y254081D03*
X358287Y254229D03*
D48*
X358287Y254376D03*
D49*
X358361Y254523D03*
D50*
X358361Y254671D03*
X358361Y254818D03*
D51*
X358435Y254965D03*
D52*
X358435Y255113D03*
D53*
X358508Y255260D03*
D54*
X358435Y255407D03*
D55*
X358508Y255554D03*
D56*
X358582Y255702D03*
D57*
X379059Y255702D03*
D58*
X358582Y255849D03*
D59*
X378470Y255849D03*
D58*
X358582Y255996D03*
D60*
X378028Y255996D03*
D61*
X358582Y256144D03*
D62*
X377513Y256144D03*
D63*
X358656Y256291D03*
D64*
X377071Y256291D03*
D63*
X358656Y256438D03*
D65*
X376481Y256438D03*
D66*
X358582Y256586D03*
D67*
X376039Y256586D03*
D66*
X358582Y256733D03*
D68*
X375524Y256733D03*
D63*
X358508Y256880D03*
D69*
X375082Y256880D03*
D66*
X358435Y257028D03*
D21*
X374934Y257028D03*
D66*
X358435Y257175D03*
D23*
X374934Y257175D03*
D66*
X358287Y257322D03*
D24*
X375008Y257322D03*
D66*
X358287Y257470D03*
D25*
X375082Y257470D03*
D63*
X358214Y257617D03*
D26*
X375008Y257617D03*
D66*
X358140Y257764D03*
D70*
X375082Y257764D03*
D66*
X358140Y257912D03*
D28*
X375082Y257912D03*
D66*
X357993Y258059D03*
D71*
X375155Y258059D03*
D66*
X357993Y258206D03*
D71*
X375155Y258206D03*
D63*
X357919Y258354D03*
D30*
X375155Y258354D03*
D66*
X357845Y258501D03*
D72*
X375229Y258501D03*
D66*
X357845Y258648D03*
D32*
X375229Y258648D03*
D66*
X357698Y258796D03*
D32*
X375229Y258796D03*
D66*
X357698Y258943D03*
D73*
X375303Y258943D03*
D63*
X357624Y259090D03*
D34*
X375303Y259090D03*
D61*
X357698Y259237D03*
D35*
X375376Y259237D03*
D61*
X357698Y259385D03*
D36*
X375303Y259385D03*
D74*
X357698Y259532D03*
D75*
X375376Y259532D03*
D76*
X357772Y259679D03*
D77*
X375450Y259679D03*
D55*
X357772Y259827D03*
D78*
X375450Y259827D03*
D55*
X357772Y259974D03*
D78*
X375450Y259974D03*
D54*
X357845Y260121D03*
D79*
X375524Y260121D03*
D52*
X357845Y260269D03*
D41*
X375524Y260269D03*
D80*
X357919Y260416D03*
D41*
X375524Y260416D03*
D51*
X357845Y260563D03*
D43*
X375524Y260563D03*
D81*
X357919Y260711D03*
D44*
X375597Y260711D03*
D82*
X357993Y260858D03*
D83*
X375671Y260858D03*
D48*
X357993Y261005D03*
D84*
X375597Y261005D03*
D48*
X357993Y261153D03*
D85*
X375671Y261153D03*
D86*
X358066Y261300D03*
D47*
X375671Y261300D03*
D46*
X358066Y261447D03*
D86*
X375745Y261447D03*
D46*
X358066Y261595D03*
D86*
X375745Y261595D03*
D84*
X358066Y261742D03*
D49*
X375745Y261742D03*
D87*
X358140Y261889D03*
D82*
X375818Y261889D03*
D44*
X358214Y262037D03*
D51*
X375818Y262037D03*
D43*
X358140Y262184D03*
D51*
X375818Y262184D03*
D42*
X358214Y262331D03*
D80*
X375892Y262331D03*
D40*
X358214Y262479D03*
D53*
X375892Y262479D03*
D79*
X358287Y262626D03*
D54*
X375966Y262626D03*
D79*
X358287Y262773D03*
D55*
X375892Y262773D03*
D88*
X358287Y262920D03*
D89*
X375966Y262920D03*
D77*
X358361Y263068D03*
D76*
X376039Y263068D03*
D36*
X358361Y263215D03*
D90*
X376039Y263215D03*
D36*
X358361Y263362D03*
D90*
X376039Y263362D03*
D35*
X358435Y263510D03*
D63*
X376039Y263510D03*
D33*
X358435Y263657D03*
D66*
X376113Y263657D03*
D73*
X358508Y263804D03*
D63*
X376039Y263804D03*
D32*
X358435Y263952D03*
D66*
X375966Y263952D03*
D91*
X358508Y264099D03*
D66*
X375966Y264099D03*
D92*
X358582Y264246D03*
D63*
X375892Y264246D03*
D29*
X358582Y264394D03*
D66*
X375818Y264394D03*
D29*
X358582Y264541D03*
D66*
X375818Y264541D03*
D71*
X358656Y264688D03*
D66*
X375671Y264688D03*
D27*
X358656Y264836D03*
D66*
X375671Y264836D03*
D70*
X358729Y264983D03*
D63*
X375597Y264983D03*
D93*
X358656Y265130D03*
D66*
X375524Y265130D03*
D25*
X358729Y265278D03*
D66*
X375524Y265278D03*
D24*
X358803Y265425D03*
D66*
X375376Y265425D03*
D23*
X358729Y265572D03*
D66*
X375376Y265572D03*
D22*
X358803Y265720D03*
D63*
X375303Y265720D03*
D69*
X358729Y265867D03*
D66*
X375229Y265867D03*
D94*
X358214Y266014D03*
D66*
X375229Y266014D03*
D67*
X357624Y266162D03*
D66*
X375082Y266162D03*
D65*
X357182Y266309D03*
D66*
X375082Y266309D03*
D95*
X356667Y266456D03*
D61*
X375082Y266456D03*
D96*
X356225Y266603D03*
D90*
X375155Y266603D03*
D60*
X355636Y266751D03*
D90*
X375155Y266751D03*
D97*
X355120Y266898D03*
D98*
X375155Y266898D03*
D99*
X354678Y267045D03*
D56*
X375229Y267045D03*
D100*
X364475Y267193D03*
D55*
X375155Y267193D03*
D101*
X363959Y267340D03*
D54*
X375229Y267340D03*
D14*
X363444Y267487D03*
D53*
X375303Y267487D03*
D102*
X362928Y267635D03*
D80*
X375303Y267635D03*
D16*
X362486Y267782D03*
D80*
X375303Y267782D03*
D103*
X361970Y267929D03*
D81*
X375303Y267929D03*
D18*
X361455Y268077D03*
D104*
X375376Y268077D03*
D19*
X360939Y268224D03*
D49*
X375450Y268224D03*
D105*
X360423Y268371D03*
D48*
X375376Y268371D03*
D106*
X359982Y268519D03*
D86*
X375450Y268519D03*
D22*
X359982Y268666D03*
D47*
X375524Y268666D03*
D23*
X360055Y268813D03*
D85*
X375524Y268813D03*
D24*
X360129Y268961D03*
D85*
X375524Y268961D03*
D25*
X360055Y269108D03*
D87*
X375524Y269108D03*
D26*
X360129Y269255D03*
D44*
X375597Y269255D03*
D107*
X360129Y269403D03*
D43*
X375671Y269403D03*
D28*
X360203Y269550D03*
D42*
X375597Y269550D03*
D28*
X360203Y269697D03*
D41*
X375671Y269697D03*
D29*
X360202Y269845D03*
D79*
X375671Y269845D03*
D30*
X360276Y269992D03*
D39*
X375745Y269992D03*
D31*
X360276Y270139D03*
D39*
X375745Y270139D03*
D31*
X360276Y270286D03*
D108*
X375745Y270286D03*
D32*
X360350Y270434D03*
D75*
X375818Y270434D03*
D33*
X360350Y270581D03*
D35*
X375818Y270581D03*
D34*
X360423Y270728D03*
D35*
X375818Y270728D03*
X360350Y270876D03*
D34*
X375892Y270876D03*
D36*
X360423Y271023D03*
D73*
X375892Y271023D03*
D75*
X360497Y271170D03*
D73*
X375892Y271170D03*
D38*
X360497Y271318D03*
D91*
X375892Y271318D03*
D38*
X360497Y271465D03*
D72*
X375966Y271465D03*
D79*
X360497Y271612D03*
D30*
X376039Y271612D03*
D40*
X360571Y271760D03*
D29*
X375966Y271760D03*
D41*
X360644Y271907D03*
D71*
X376039Y271907D03*
D42*
X360571Y272054D03*
D27*
X376039Y272054D03*
D43*
X360644Y272202D03*
D109*
X376113Y272202D03*
D87*
X360644Y272349D03*
D109*
X376113Y272349D03*
D45*
X360718Y272496D03*
D25*
X376113Y272496D03*
D45*
X360718Y272644D03*
D24*
X376187Y272644D03*
D46*
X360718Y272791D03*
D23*
X376260Y272791D03*
D47*
X360792Y272938D03*
D22*
X376187Y272938D03*
D47*
X360792Y273086D03*
D106*
X376187Y273086D03*
D48*
X360792Y273233D03*
D110*
X375745Y273233D03*
D49*
X360865Y273380D03*
D111*
X375229Y273380D03*
D50*
X360865Y273528D03*
D18*
X374714Y273528D03*
D50*
X360865Y273675D03*
D112*
X374198Y273675D03*
D51*
X360939Y273822D03*
D113*
X373756Y273822D03*
D52*
X360939Y273969D03*
D114*
X373240Y273969D03*
D53*
X361013Y274117D03*
D14*
X372725Y274117D03*
D54*
X360939Y274264D03*
D115*
X372209Y274264D03*
D55*
X361013Y274411D03*
D12*
X371767Y274411D03*
D56*
X361086Y274559D03*
D58*
X361086Y274706D03*
X361086Y274853D03*
D61*
X361086Y275001D03*
D63*
X361160Y275148D03*
X361160Y275295D03*
D66*
X361086Y275443D03*
X361086Y275590D03*
X360939Y275737D03*
X360939Y275885D03*
D63*
X360865Y276032D03*
D66*
X360792Y276179D03*
X360792Y276327D03*
X360644Y276474D03*
X360644Y276621D03*
D63*
X360571Y276769D03*
D66*
X360497Y276916D03*
X360497Y277063D03*
D63*
X360423Y277211D03*
D66*
X360350Y277358D03*
X360350Y277505D03*
X360202Y277652D03*
X360202Y277800D03*
D63*
X360129Y277947D03*
D61*
X360202Y278094D03*
X360202Y278242D03*
D74*
X360202Y278389D03*
D76*
X360276Y278536D03*
D55*
X360276Y278684D03*
X360276Y278831D03*
D54*
X360350Y278978D03*
D52*
X360350Y279126D03*
D80*
X360423Y279273D03*
D51*
X360350Y279420D03*
D81*
X360423Y279568D03*
D82*
X360497Y279715D03*
D116*
X360423Y279862D03*
D48*
X360497Y280010D03*
D47*
X360497Y280157D03*
D46*
X360571Y280304D03*
X360571Y280452D03*
D84*
X360571Y280599D03*
D87*
X360644Y280746D03*
D43*
X360644Y280894D03*
X360644Y281041D03*
D42*
X360718Y281188D03*
D40*
X360718Y281335D03*
D79*
X360792Y281483D03*
X360792Y281630D03*
D88*
X360792Y281777D03*
D77*
X360865Y281925D03*
D36*
X360865Y282072D03*
X360865Y282219D03*
D35*
X360939Y282367D03*
D33*
X360939Y282514D03*
D73*
X361013Y282661D03*
D32*
X360939Y282809D03*
D91*
X361013Y282956D03*
D92*
X361086Y283103D03*
D29*
X361086Y283251D03*
X361086Y283398D03*
D28*
X361086Y283545D03*
D27*
X361160Y283693D03*
D70*
X361234Y283840D03*
D93*
X361160Y283987D03*
D25*
X361234Y284135D03*
D23*
X361234Y284282D03*
X361234Y284429D03*
D22*
X361307Y284577D03*
D117*
X361160Y284724D03*
D118*
X360644Y284871D03*
D67*
X360129Y285018D03*
D119*
X359613Y285166D03*
D95*
X359171Y285313D03*
D120*
X358656Y285460D03*
D60*
X358140Y285608D03*
D97*
X357624Y285755D03*
D121*
X357109Y285902D03*
D10*
X437618Y478997D02*
X437699Y479046D01*
X437778Y479098D01*
X437854Y479154D01*
X437928Y479212D01*
X438000Y479274D01*
X438069Y479338D01*
X438135Y479406D01*
X438199Y479476D01*
X438259Y479548D01*
X438317Y479623D01*
X438371Y479700D01*
X438422Y479780D01*
X438470Y479861D01*
X438515Y479945D01*
X438556Y480030D01*
X438593Y480117D01*
X438627Y480205D01*
X438657Y480295D01*
X438683Y480385D01*
X438706Y480477D01*
X438724Y480570D01*
X438739Y480663D01*
X438750Y480757D01*
X438758Y480851D01*
X438761Y480946D01*
X438760Y481040D01*
X438756Y481134D01*
X438747Y481229D01*
X438735Y481322D01*
X438719Y481415D01*
X438699Y481508D01*
X438675Y481599D01*
X438647Y481689D01*
X438616Y481779D01*
X438581Y481866D01*
X438542Y481953D01*
X438500Y482037D01*
X438455Y482120D01*
X438454Y482120D02*
X438400Y482210D01*
X438342Y482298D01*
X438282Y482385D01*
X438218Y482469D01*
X438151Y482550D01*
X438081Y482630D01*
X438009Y482706D01*
X437934Y482780D01*
X437856Y482852D01*
X437776Y482920D01*
X437693Y482986D01*
X437608Y483048D01*
X437521Y483108D01*
X437431Y483164D01*
X437340Y483217D01*
X437247Y483266D01*
X437152Y483313D01*
X437056Y483356D01*
X436958Y483395D01*
X436859Y483431D01*
X436758Y483463D01*
X436657Y483492D01*
X436554Y483517D01*
X436451Y483538D01*
X436347Y483555D01*
X436242Y483569D01*
X436137Y483579D01*
X436032Y483586D01*
X435926Y483588D01*
X435821Y483587D01*
X435715Y483581D01*
X435610Y483573D01*
X435505Y483560D01*
X435401Y483543D01*
X435298Y483523D01*
X435697Y478768D02*
X435788Y478743D01*
X435880Y478721D01*
X435973Y478704D01*
X436067Y478689D01*
X436161Y478679D01*
X436255Y478672D01*
X436350Y478668D01*
X436445Y478669D01*
X436539Y478673D01*
X436634Y478680D01*
X436728Y478691D01*
X436821Y478706D01*
X436914Y478725D01*
X437006Y478747D01*
X437097Y478772D01*
X437187Y478801D01*
X437276Y478834D01*
X437364Y478869D01*
X437450Y478909D01*
X437535Y478951D01*
X437617Y478997D01*
X435697Y478768D02*
X429139Y479967D01*
X431679Y475568D01*
X437669Y474334D02*
X437826Y474423D01*
X437985Y474507D01*
X438146Y474587D01*
X438309Y474664D01*
X438473Y474737D01*
X438640Y474806D01*
X438807Y474870D01*
X438977Y474931D01*
X439148Y474988D01*
X439320Y475040D01*
X439493Y475089D01*
X439667Y475133D01*
X439842Y475173D01*
X440019Y475209D01*
X440196Y475241D01*
X440374Y475269D01*
X440552Y475292D01*
X440731Y475311D01*
X440910Y475326D01*
X440911Y475326D02*
X440993Y475340D01*
X441076Y475351D01*
X441159Y475358D01*
X441242Y475361D01*
X441325Y475360D01*
X441408Y475356D01*
X441491Y475348D01*
X441574Y475337D01*
X441656Y475321D01*
X441737Y475303D01*
X441817Y475280D01*
X441896Y475254D01*
X441974Y475225D01*
X442050Y475192D01*
X442126Y475156D01*
X442199Y475117D01*
X442270Y475074D01*
X442340Y475028D01*
X442407Y474979D01*
X442473Y474928D01*
X442536Y474873D01*
X442596Y474816D01*
X442654Y474756D01*
X442709Y474693D01*
X442761Y474628D01*
X442811Y474561D01*
X442857Y474492D01*
X442900Y474421D01*
X442940Y474348D01*
X442977Y474273D01*
X443010Y474197D01*
X443040Y474119D01*
X443067Y474040D01*
X443090Y473960D01*
X443109Y473879D01*
X443125Y473798D01*
X443137Y473715D01*
X443146Y473632D01*
X443151Y473549D01*
X443152Y473466D01*
X443149Y473383D01*
X443143Y473300D01*
X443133Y473217D01*
X443120Y473135D01*
X443103Y473053D01*
X443082Y472973D01*
X443058Y472893D01*
X443030Y472814D01*
X442999Y472737D01*
X442964Y472661D01*
X442926Y472587D01*
X442885Y472515D01*
X442840Y472444D01*
X442793Y472376D01*
X442743Y472310D01*
X442689Y472246D01*
X442688Y472246D02*
X442586Y472098D01*
X442480Y471953D01*
X442370Y471810D01*
X442258Y471670D01*
X442142Y471533D01*
X442022Y471398D01*
X441900Y471266D01*
X441774Y471137D01*
X441646Y471012D01*
X441514Y470889D01*
X441380Y470769D01*
X441242Y470653D01*
X441102Y470540D01*
X440960Y470431D01*
X440815Y470324D01*
X440667Y470222D01*
X440517Y470123D01*
X440364Y470027D01*
X440210Y469936D01*
X437670Y474335D02*
X437515Y474243D01*
X437363Y474147D01*
X437213Y474048D01*
X437065Y473946D01*
X436920Y473840D01*
X436777Y473730D01*
X436637Y473617D01*
X436500Y473501D01*
X436365Y473381D01*
X436234Y473259D01*
X436105Y473133D01*
X435980Y473004D01*
X435857Y472872D01*
X435738Y472738D01*
X435622Y472600D01*
X435509Y472460D01*
X435400Y472317D01*
X435294Y472172D01*
X435192Y472024D01*
X435191Y472024D02*
X435137Y471960D01*
X435087Y471894D01*
X435040Y471826D01*
X434995Y471755D01*
X434954Y471683D01*
X434916Y471609D01*
X434881Y471533D01*
X434850Y471456D01*
X434822Y471377D01*
X434798Y471297D01*
X434777Y471217D01*
X434760Y471135D01*
X434747Y471053D01*
X434737Y470970D01*
X434731Y470887D01*
X434728Y470804D01*
X434729Y470721D01*
X434734Y470638D01*
X434743Y470555D01*
X434755Y470472D01*
X434771Y470391D01*
X434790Y470310D01*
X434813Y470230D01*
X434840Y470151D01*
X434870Y470073D01*
X434903Y469997D01*
X434940Y469922D01*
X434980Y469849D01*
X436969Y468944D02*
X437149Y468959D01*
X437327Y468978D01*
X437506Y469001D01*
X437684Y469029D01*
X437861Y469061D01*
X438037Y469097D01*
X438212Y469137D01*
X438387Y469181D01*
X438560Y469230D01*
X438732Y469282D01*
X438903Y469339D01*
X439072Y469400D01*
X439240Y469465D01*
X439406Y469533D01*
X439570Y469606D01*
X439733Y469683D01*
X439894Y469763D01*
X440053Y469847D01*
X440210Y469936D01*
X436969Y468944D02*
X436887Y468930D01*
X436804Y468919D01*
X436721Y468912D01*
X436638Y468909D01*
X436555Y468910D01*
X436472Y468914D01*
X436389Y468922D01*
X436306Y468933D01*
X436225Y468949D01*
X436143Y468967D01*
X436063Y468990D01*
X435984Y469016D01*
X435906Y469045D01*
X435830Y469078D01*
X435754Y469114D01*
X435681Y469153D01*
X435610Y469196D01*
X435540Y469242D01*
X435473Y469291D01*
X435407Y469342D01*
X435344Y469397D01*
X435284Y469454D01*
X435226Y469514D01*
X435171Y469577D01*
X435119Y469642D01*
X435069Y469709D01*
X435023Y469778D01*
X434980Y469849D01*
X435724Y472625D02*
X442156Y471645D01*
X447471Y466502D02*
X438028Y464570D01*
X441076Y459290D02*
X447471Y466502D01*
X440389Y465053D02*
X442675Y461093D01*
X445496Y451635D02*
X450775Y454683D01*
X453061Y450724D01*
X453098Y450656D01*
X453131Y450587D01*
X453161Y450515D01*
X453187Y450443D01*
X453210Y450369D01*
X453228Y450294D01*
X453243Y450218D01*
X453254Y450142D01*
X453262Y450065D01*
X453265Y449988D01*
X453264Y449911D01*
X453260Y449833D01*
X453251Y449757D01*
X453239Y449680D01*
X453223Y449605D01*
X453203Y449530D01*
X453179Y449457D01*
X453151Y449385D01*
X453120Y449314D01*
X453086Y449245D01*
X453048Y449178D01*
X453006Y449113D01*
X452962Y449050D01*
X452914Y448989D01*
X452863Y448931D01*
X452809Y448875D01*
X452753Y448823D01*
X452694Y448773D01*
X452633Y448726D01*
X452569Y448682D01*
X452503Y448642D01*
X448544Y446356D01*
X447020Y448996D02*
X452299Y452044D01*
X454670Y442857D02*
X455813Y440877D01*
X454671Y442857D02*
X454627Y442928D01*
X454581Y442997D01*
X454531Y443064D01*
X454478Y443129D01*
X454422Y443190D01*
X454363Y443250D01*
X454302Y443306D01*
X454238Y443359D01*
X454172Y443410D01*
X454103Y443457D01*
X454032Y443501D01*
X453959Y443541D01*
X453885Y443578D01*
X453808Y443612D01*
X453730Y443642D01*
X453651Y443668D01*
X453571Y443691D01*
X453490Y443709D01*
X453408Y443724D01*
X453325Y443735D01*
X453242Y443743D01*
X453159Y443746D01*
X453075Y443745D01*
X452992Y443741D01*
X452909Y443732D01*
X452827Y443720D01*
X452745Y443704D01*
X452664Y443684D01*
X452584Y443660D01*
X452506Y443632D01*
X452428Y443601D01*
X452352Y443566D01*
X452278Y443528D01*
X452206Y443487D01*
X452136Y443442D01*
X452068Y443393D01*
X452002Y443342D01*
X451939Y443287D01*
X451879Y443230D01*
X451821Y443170D01*
X451766Y443107D01*
X451714Y443042D01*
X451665Y442974D01*
X451620Y442905D01*
X451577Y442833D01*
X451539Y442759D01*
X451503Y442684D01*
X451472Y442606D01*
X451443Y442528D01*
X451419Y442448D01*
X451398Y442368D01*
X451382Y442286D01*
X451369Y442204D01*
X451360Y442121D01*
X451354Y442037D01*
X451353Y441954D01*
X451356Y441871D01*
X451362Y441788D01*
X451373Y441705D01*
X451387Y441623D01*
X451405Y441541D01*
X451427Y441461D01*
X451452Y441382D01*
X451482Y441304D01*
X451515Y441227D01*
X451551Y441152D01*
X451591Y441079D01*
X452734Y439099D01*
X456693Y441385D01*
X456759Y441425D01*
X456823Y441469D01*
X456884Y441516D01*
X456943Y441566D01*
X456999Y441618D01*
X457053Y441674D01*
X457104Y441732D01*
X457152Y441793D01*
X457196Y441856D01*
X457238Y441921D01*
X457276Y441988D01*
X457310Y442057D01*
X457341Y442128D01*
X457369Y442200D01*
X457393Y442273D01*
X457413Y442348D01*
X457429Y442423D01*
X457441Y442500D01*
X457450Y442576D01*
X457454Y442654D01*
X457455Y442731D01*
X457452Y442808D01*
X457444Y442885D01*
X457433Y442961D01*
X457418Y443037D01*
X457400Y443112D01*
X457377Y443186D01*
X457351Y443258D01*
X457321Y443330D01*
X457288Y443399D01*
X457251Y443467D01*
X456235Y445226D01*
X454691Y435709D02*
X462002Y435238D01*
X459970Y438757D02*
X456723Y432190D01*
X458323Y429418D02*
X458763Y429672D01*
X459017Y429232D01*
X458577Y428978D01*
X458323Y429418D01*
X231145Y436050D02*
X230655Y439266D01*
X238574Y434694D01*
X239844Y436893D02*
X237304Y432494D01*
X235354Y447405D02*
X235403Y447486D01*
X235455Y447565D01*
X235511Y447641D01*
X235569Y447715D01*
X235631Y447787D01*
X235695Y447856D01*
X235763Y447922D01*
X235833Y447986D01*
X235905Y448046D01*
X235980Y448104D01*
X236057Y448158D01*
X236137Y448209D01*
X236218Y448257D01*
X236302Y448302D01*
X236387Y448343D01*
X236474Y448380D01*
X236562Y448414D01*
X236652Y448444D01*
X236742Y448470D01*
X236834Y448493D01*
X236927Y448511D01*
X237020Y448526D01*
X237114Y448537D01*
X237208Y448545D01*
X237303Y448548D01*
X237397Y448547D01*
X237491Y448543D01*
X237585Y448534D01*
X237679Y448522D01*
X237772Y448506D01*
X237865Y448486D01*
X237956Y448462D01*
X238046Y448434D01*
X238136Y448403D01*
X238223Y448368D01*
X238310Y448329D01*
X238394Y448287D01*
X238477Y448242D01*
X235354Y447404D02*
X235303Y447312D01*
X235256Y447218D01*
X235211Y447122D01*
X235170Y447025D01*
X235133Y446926D01*
X235099Y446826D01*
X235069Y446725D01*
X235043Y446623D01*
X235020Y446520D01*
X235001Y446416D01*
X234985Y446312D01*
X234974Y446207D01*
X234966Y446102D01*
X234962Y445996D01*
X234961Y445891D01*
X234965Y445785D01*
X234972Y445680D01*
X234983Y445575D01*
X234998Y445471D01*
X235017Y445367D01*
X235039Y445264D01*
X235065Y445161D01*
X235095Y445060D01*
X235128Y444960D01*
X235165Y444861D01*
X235205Y444764D01*
X235249Y444668D01*
X235296Y444573D01*
X235347Y444481D01*
X235401Y444390D01*
X235458Y444301D01*
X235518Y444215D01*
X235582Y444130D01*
X235648Y444048D01*
X235717Y443969D01*
X239635Y446692D02*
X239611Y446784D01*
X239584Y446874D01*
X239553Y446964D01*
X239518Y447052D01*
X239480Y447139D01*
X239439Y447224D01*
X239395Y447308D01*
X239347Y447390D01*
X239297Y447470D01*
X239243Y447547D01*
X239186Y447623D01*
X239126Y447697D01*
X239064Y447768D01*
X238999Y447837D01*
X238931Y447903D01*
X238861Y447966D01*
X238789Y448027D01*
X238714Y448085D01*
X238637Y448140D01*
X238558Y448192D01*
X238477Y448241D01*
X239636Y446692D02*
X241876Y440413D01*
X244416Y444812D01*
X247718Y450531D02*
X238275Y452464D01*
X241323Y457743D02*
X247718Y450531D01*
X253662Y460826D02*
X248382Y463874D01*
X250668Y467833D01*
X250708Y467899D01*
X250752Y467963D01*
X250799Y468024D01*
X250849Y468083D01*
X250901Y468139D01*
X250957Y468193D01*
X251015Y468244D01*
X251076Y468292D01*
X251139Y468336D01*
X251204Y468378D01*
X251271Y468416D01*
X251340Y468450D01*
X251411Y468481D01*
X251483Y468509D01*
X251556Y468533D01*
X251631Y468553D01*
X251706Y468569D01*
X251783Y468581D01*
X251859Y468590D01*
X251937Y468594D01*
X252014Y468595D01*
X252091Y468592D01*
X252168Y468584D01*
X252244Y468573D01*
X252320Y468558D01*
X252395Y468540D01*
X252469Y468517D01*
X252541Y468491D01*
X252613Y468461D01*
X252682Y468428D01*
X252750Y468391D01*
X256710Y466105D01*
X255186Y463466D02*
X249906Y466514D01*
X256677Y473160D02*
X257820Y475140D01*
X256677Y473160D02*
X256637Y473087D01*
X256601Y473012D01*
X256568Y472935D01*
X256538Y472857D01*
X256513Y472778D01*
X256491Y472698D01*
X256473Y472616D01*
X256459Y472534D01*
X256448Y472451D01*
X256442Y472368D01*
X256439Y472285D01*
X256440Y472202D01*
X256446Y472118D01*
X256455Y472035D01*
X256468Y471953D01*
X256484Y471871D01*
X256505Y471791D01*
X256529Y471711D01*
X256558Y471633D01*
X256589Y471555D01*
X256625Y471480D01*
X256664Y471406D01*
X256706Y471334D01*
X256751Y471265D01*
X256800Y471197D01*
X256852Y471132D01*
X256907Y471069D01*
X256965Y471009D01*
X257025Y470952D01*
X257088Y470897D01*
X257154Y470846D01*
X257222Y470797D01*
X257292Y470752D01*
X257364Y470711D01*
X257438Y470673D01*
X257514Y470638D01*
X257592Y470607D01*
X257670Y470579D01*
X257750Y470555D01*
X257831Y470535D01*
X257913Y470519D01*
X257995Y470507D01*
X258078Y470498D01*
X258161Y470494D01*
X258245Y470493D01*
X258328Y470496D01*
X258411Y470504D01*
X258494Y470515D01*
X258576Y470530D01*
X258657Y470548D01*
X258737Y470571D01*
X258816Y470597D01*
X258894Y470627D01*
X258971Y470661D01*
X259045Y470698D01*
X259118Y470738D01*
X259189Y470782D01*
X259258Y470829D01*
X259324Y470880D01*
X259388Y470933D01*
X259449Y470989D01*
X259508Y471049D01*
X259564Y471110D01*
X259617Y471175D01*
X259667Y471242D01*
X259713Y471311D01*
X259757Y471382D01*
X259756Y471382D02*
X260899Y473362D01*
X256940Y475648D01*
X256872Y475685D01*
X256803Y475718D01*
X256731Y475748D01*
X256659Y475774D01*
X256585Y475797D01*
X256510Y475815D01*
X256434Y475830D01*
X256358Y475841D01*
X256281Y475849D01*
X256204Y475852D01*
X256127Y475851D01*
X256049Y475847D01*
X255973Y475838D01*
X255897Y475826D01*
X255821Y475810D01*
X255746Y475790D01*
X255673Y475766D01*
X255601Y475738D01*
X255530Y475707D01*
X255461Y475673D01*
X255394Y475635D01*
X255329Y475593D01*
X255266Y475549D01*
X255205Y475501D01*
X255147Y475450D01*
X255091Y475397D01*
X255039Y475340D01*
X254989Y475281D01*
X254942Y475220D01*
X254898Y475156D01*
X254858Y475090D01*
X253842Y473331D01*
X262856Y476752D02*
X259609Y483319D01*
X257577Y479800D02*
X264888Y480271D01*
X266488Y483043D02*
X266048Y483297D01*
X266302Y483737D01*
X266742Y483483D01*
X266488Y483043D01*
X382778Y404876D02*
X382778Y391668D01*
X382778Y404876D02*
X386447Y404876D01*
X386567Y404874D01*
X386687Y404868D01*
X386807Y404858D01*
X386926Y404845D01*
X387045Y404827D01*
X387163Y404806D01*
X387280Y404780D01*
X387397Y404751D01*
X387512Y404718D01*
X387626Y404681D01*
X387739Y404641D01*
X387851Y404597D01*
X387961Y404549D01*
X388070Y404498D01*
X388177Y404443D01*
X388281Y404384D01*
X388384Y404323D01*
X388485Y404258D01*
X388584Y404189D01*
X388681Y404118D01*
X388775Y404043D01*
X388866Y403966D01*
X388955Y403885D01*
X389041Y403801D01*
X389125Y403715D01*
X389206Y403626D01*
X389283Y403535D01*
X389358Y403441D01*
X389429Y403344D01*
X389498Y403245D01*
X389563Y403144D01*
X389624Y403042D01*
X389683Y402937D01*
X389738Y402830D01*
X389789Y402721D01*
X389837Y402611D01*
X389881Y402499D01*
X389921Y402386D01*
X389958Y402272D01*
X389991Y402157D01*
X390020Y402040D01*
X390046Y401923D01*
X390067Y401805D01*
X390085Y401686D01*
X390098Y401567D01*
X390108Y401447D01*
X390114Y401327D01*
X390116Y401207D01*
X390114Y401087D01*
X390108Y400967D01*
X390098Y400847D01*
X390085Y400728D01*
X390067Y400609D01*
X390046Y400491D01*
X390020Y400374D01*
X389991Y400257D01*
X389958Y400142D01*
X389921Y400028D01*
X389881Y399915D01*
X389837Y399803D01*
X389789Y399693D01*
X389738Y399584D01*
X389683Y399477D01*
X389624Y399373D01*
X389563Y399270D01*
X389498Y399169D01*
X389429Y399070D01*
X389358Y398973D01*
X389283Y398879D01*
X389206Y398788D01*
X389125Y398699D01*
X389041Y398613D01*
X388955Y398529D01*
X388866Y398448D01*
X388775Y398371D01*
X388681Y398296D01*
X388584Y398225D01*
X388485Y398156D01*
X388384Y398091D01*
X388282Y398030D01*
X388177Y397971D01*
X388070Y397916D01*
X387961Y397865D01*
X387851Y397817D01*
X387739Y397773D01*
X387626Y397733D01*
X387512Y397696D01*
X387397Y397663D01*
X387280Y397634D01*
X387163Y397608D01*
X387045Y397587D01*
X386926Y397569D01*
X386807Y397556D01*
X386687Y397546D01*
X386567Y397540D01*
X386447Y397538D01*
X382778Y397538D01*
X394479Y404876D02*
X397414Y391668D01*
X400349Y400473D01*
X403284Y391668D01*
X406219Y404876D01*
X411694Y404876D02*
X411694Y391668D01*
X411694Y404876D02*
X415362Y404876D01*
X415482Y404874D01*
X415602Y404868D01*
X415722Y404858D01*
X415841Y404845D01*
X415960Y404827D01*
X416078Y404806D01*
X416195Y404780D01*
X416312Y404751D01*
X416427Y404718D01*
X416541Y404681D01*
X416654Y404641D01*
X416766Y404597D01*
X416876Y404549D01*
X416985Y404498D01*
X417092Y404443D01*
X417196Y404384D01*
X417299Y404323D01*
X417400Y404258D01*
X417499Y404189D01*
X417596Y404118D01*
X417690Y404043D01*
X417781Y403966D01*
X417870Y403885D01*
X417956Y403801D01*
X418040Y403715D01*
X418121Y403626D01*
X418198Y403535D01*
X418273Y403441D01*
X418344Y403344D01*
X418413Y403245D01*
X418478Y403144D01*
X418539Y403042D01*
X418598Y402937D01*
X418653Y402830D01*
X418704Y402721D01*
X418752Y402611D01*
X418796Y402499D01*
X418836Y402386D01*
X418873Y402272D01*
X418906Y402157D01*
X418935Y402040D01*
X418961Y401923D01*
X418982Y401805D01*
X419000Y401686D01*
X419013Y401567D01*
X419023Y401447D01*
X419029Y401327D01*
X419031Y401207D01*
X419029Y401087D01*
X419023Y400967D01*
X419013Y400847D01*
X419000Y400728D01*
X418982Y400609D01*
X418961Y400491D01*
X418935Y400374D01*
X418906Y400257D01*
X418873Y400142D01*
X418836Y400028D01*
X418796Y399915D01*
X418752Y399803D01*
X418704Y399693D01*
X418653Y399584D01*
X418598Y399477D01*
X418539Y399373D01*
X418478Y399270D01*
X418413Y399169D01*
X418344Y399070D01*
X418273Y398973D01*
X418198Y398879D01*
X418121Y398788D01*
X418040Y398699D01*
X417956Y398613D01*
X417870Y398529D01*
X417781Y398448D01*
X417690Y398371D01*
X417596Y398296D01*
X417499Y398225D01*
X417400Y398156D01*
X417299Y398091D01*
X417197Y398030D01*
X417092Y397971D01*
X416985Y397916D01*
X416876Y397865D01*
X416766Y397817D01*
X416654Y397773D01*
X416541Y397733D01*
X416427Y397696D01*
X416312Y397663D01*
X416195Y397634D01*
X416078Y397608D01*
X415960Y397587D01*
X415841Y397569D01*
X415722Y397556D01*
X415602Y397546D01*
X415482Y397540D01*
X415362Y397538D01*
X411694Y397538D01*
X416096Y397538D02*
X419031Y391668D01*
X336776Y399006D02*
X334574Y399006D01*
X336776Y399006D02*
X336776Y391668D01*
X332373Y391668D01*
X332266Y391670D01*
X332159Y391676D01*
X332052Y391686D01*
X331946Y391699D01*
X331840Y391717D01*
X331735Y391738D01*
X331631Y391763D01*
X331527Y391792D01*
X331425Y391825D01*
X331325Y391862D01*
X331225Y391902D01*
X331127Y391946D01*
X331031Y391993D01*
X330937Y392044D01*
X330844Y392098D01*
X330754Y392155D01*
X330665Y392216D01*
X330579Y392280D01*
X330496Y392347D01*
X330414Y392417D01*
X330336Y392490D01*
X330260Y392566D01*
X330187Y392644D01*
X330117Y392726D01*
X330050Y392809D01*
X329986Y392895D01*
X329925Y392984D01*
X329868Y393074D01*
X329814Y393167D01*
X329763Y393261D01*
X329716Y393357D01*
X329672Y393455D01*
X329632Y393555D01*
X329595Y393655D01*
X329562Y393757D01*
X329533Y393861D01*
X329508Y393965D01*
X329487Y394070D01*
X329469Y394176D01*
X329456Y394282D01*
X329446Y394389D01*
X329440Y394496D01*
X329438Y394603D01*
X329438Y401941D01*
X329440Y402048D01*
X329446Y402155D01*
X329456Y402262D01*
X329469Y402368D01*
X329487Y402474D01*
X329508Y402579D01*
X329533Y402683D01*
X329562Y402787D01*
X329595Y402889D01*
X329632Y402989D01*
X329672Y403089D01*
X329716Y403187D01*
X329763Y403283D01*
X329814Y403377D01*
X329868Y403470D01*
X329925Y403560D01*
X329986Y403649D01*
X330050Y403735D01*
X330117Y403818D01*
X330187Y403900D01*
X330260Y403978D01*
X330336Y404054D01*
X330414Y404127D01*
X330496Y404197D01*
X330579Y404264D01*
X330665Y404328D01*
X330754Y404389D01*
X330844Y404446D01*
X330937Y404500D01*
X331031Y404551D01*
X331127Y404598D01*
X331225Y404642D01*
X331325Y404682D01*
X331425Y404719D01*
X331527Y404752D01*
X331631Y404781D01*
X331735Y404806D01*
X331840Y404827D01*
X331946Y404845D01*
X332052Y404858D01*
X332159Y404868D01*
X332266Y404874D01*
X332373Y404876D01*
X336776Y404876D01*
X343093Y404876D02*
X343093Y391668D01*
X350431Y391668D02*
X343093Y404876D01*
X350431Y404876D02*
X350431Y391668D01*
X356748Y391668D02*
X356748Y404876D01*
X360417Y404876D01*
X360537Y404874D01*
X360657Y404868D01*
X360777Y404858D01*
X360896Y404845D01*
X361015Y404827D01*
X361133Y404806D01*
X361250Y404780D01*
X361367Y404751D01*
X361482Y404718D01*
X361596Y404681D01*
X361709Y404641D01*
X361821Y404597D01*
X361931Y404549D01*
X362040Y404498D01*
X362147Y404443D01*
X362252Y404384D01*
X362354Y404323D01*
X362455Y404258D01*
X362554Y404189D01*
X362651Y404118D01*
X362745Y404043D01*
X362836Y403966D01*
X362925Y403885D01*
X363011Y403801D01*
X363095Y403715D01*
X363176Y403626D01*
X363253Y403535D01*
X363328Y403441D01*
X363399Y403344D01*
X363468Y403245D01*
X363533Y403144D01*
X363594Y403042D01*
X363653Y402937D01*
X363708Y402830D01*
X363759Y402721D01*
X363807Y402611D01*
X363851Y402499D01*
X363891Y402386D01*
X363928Y402272D01*
X363961Y402157D01*
X363990Y402040D01*
X364016Y401923D01*
X364037Y401805D01*
X364055Y401686D01*
X364068Y401567D01*
X364078Y401447D01*
X364084Y401327D01*
X364086Y401207D01*
X364086Y395337D01*
X364084Y395217D01*
X364078Y395097D01*
X364068Y394977D01*
X364055Y394858D01*
X364037Y394739D01*
X364016Y394621D01*
X363990Y394504D01*
X363961Y394387D01*
X363928Y394272D01*
X363891Y394158D01*
X363851Y394045D01*
X363807Y393933D01*
X363759Y393823D01*
X363708Y393714D01*
X363653Y393607D01*
X363594Y393503D01*
X363533Y393400D01*
X363468Y393299D01*
X363399Y393200D01*
X363328Y393103D01*
X363253Y393009D01*
X363176Y392918D01*
X363095Y392829D01*
X363011Y392743D01*
X362925Y392659D01*
X362836Y392578D01*
X362745Y392501D01*
X362651Y392426D01*
X362554Y392355D01*
X362455Y392286D01*
X362354Y392221D01*
X362252Y392160D01*
X362147Y392101D01*
X362040Y392046D01*
X361931Y391995D01*
X361821Y391947D01*
X361709Y391903D01*
X361596Y391863D01*
X361482Y391826D01*
X361367Y391793D01*
X361250Y391764D01*
X361133Y391738D01*
X361015Y391717D01*
X360896Y391699D01*
X360777Y391686D01*
X360657Y391676D01*
X360537Y391670D01*
X360417Y391668D01*
X356748Y391668D01*
X271018Y391668D02*
X271018Y404876D01*
X271018Y391668D02*
X276888Y391668D01*
X281662Y395337D02*
X281662Y401207D01*
X281664Y401327D01*
X281670Y401447D01*
X281680Y401567D01*
X281693Y401686D01*
X281711Y401805D01*
X281732Y401923D01*
X281758Y402040D01*
X281787Y402157D01*
X281820Y402272D01*
X281857Y402386D01*
X281897Y402499D01*
X281941Y402611D01*
X281989Y402721D01*
X282040Y402830D01*
X282095Y402937D01*
X282154Y403042D01*
X282215Y403144D01*
X282280Y403245D01*
X282349Y403344D01*
X282420Y403441D01*
X282495Y403535D01*
X282572Y403626D01*
X282653Y403715D01*
X282737Y403801D01*
X282823Y403885D01*
X282912Y403966D01*
X283003Y404043D01*
X283097Y404118D01*
X283194Y404189D01*
X283293Y404258D01*
X283394Y404323D01*
X283497Y404384D01*
X283601Y404443D01*
X283708Y404498D01*
X283817Y404549D01*
X283927Y404597D01*
X284039Y404641D01*
X284152Y404681D01*
X284266Y404718D01*
X284381Y404751D01*
X284498Y404780D01*
X284615Y404806D01*
X284733Y404827D01*
X284852Y404845D01*
X284971Y404858D01*
X285091Y404868D01*
X285211Y404874D01*
X285331Y404876D01*
X285451Y404874D01*
X285571Y404868D01*
X285691Y404858D01*
X285810Y404845D01*
X285929Y404827D01*
X286047Y404806D01*
X286164Y404780D01*
X286281Y404751D01*
X286396Y404718D01*
X286510Y404681D01*
X286623Y404641D01*
X286735Y404597D01*
X286845Y404549D01*
X286954Y404498D01*
X287061Y404443D01*
X287166Y404384D01*
X287268Y404323D01*
X287369Y404258D01*
X287468Y404189D01*
X287565Y404118D01*
X287659Y404043D01*
X287750Y403966D01*
X287839Y403885D01*
X287925Y403801D01*
X288009Y403715D01*
X288090Y403626D01*
X288167Y403535D01*
X288242Y403441D01*
X288313Y403344D01*
X288382Y403245D01*
X288447Y403144D01*
X288508Y403042D01*
X288567Y402937D01*
X288622Y402830D01*
X288673Y402721D01*
X288721Y402611D01*
X288765Y402499D01*
X288805Y402386D01*
X288842Y402272D01*
X288875Y402157D01*
X288904Y402040D01*
X288930Y401923D01*
X288951Y401805D01*
X288969Y401686D01*
X288982Y401567D01*
X288992Y401447D01*
X288998Y401327D01*
X289000Y401207D01*
X289000Y395337D01*
X288998Y395217D01*
X288992Y395097D01*
X288982Y394977D01*
X288969Y394858D01*
X288951Y394739D01*
X288930Y394621D01*
X288904Y394504D01*
X288875Y394387D01*
X288842Y394272D01*
X288805Y394158D01*
X288765Y394045D01*
X288721Y393933D01*
X288673Y393823D01*
X288622Y393714D01*
X288567Y393607D01*
X288508Y393503D01*
X288447Y393400D01*
X288382Y393299D01*
X288313Y393200D01*
X288242Y393103D01*
X288167Y393009D01*
X288090Y392918D01*
X288009Y392829D01*
X287925Y392743D01*
X287839Y392659D01*
X287750Y392578D01*
X287659Y392501D01*
X287565Y392426D01*
X287468Y392355D01*
X287369Y392286D01*
X287268Y392221D01*
X287166Y392160D01*
X287061Y392101D01*
X286954Y392046D01*
X286845Y391995D01*
X286735Y391947D01*
X286623Y391903D01*
X286510Y391863D01*
X286396Y391826D01*
X286281Y391793D01*
X286164Y391764D01*
X286047Y391738D01*
X285929Y391717D01*
X285810Y391699D01*
X285691Y391686D01*
X285571Y391676D01*
X285451Y391670D01*
X285331Y391668D01*
X285211Y391670D01*
X285091Y391676D01*
X284971Y391686D01*
X284852Y391699D01*
X284733Y391717D01*
X284615Y391738D01*
X284498Y391764D01*
X284381Y391793D01*
X284266Y391826D01*
X284152Y391863D01*
X284039Y391903D01*
X283927Y391947D01*
X283817Y391995D01*
X283708Y392046D01*
X283601Y392101D01*
X283497Y392160D01*
X283394Y392221D01*
X283293Y392286D01*
X283194Y392355D01*
X283097Y392426D01*
X283003Y392501D01*
X282912Y392578D01*
X282823Y392659D01*
X282737Y392743D01*
X282653Y392829D01*
X282572Y392918D01*
X282495Y393009D01*
X282420Y393103D01*
X282349Y393200D01*
X282280Y393299D01*
X282215Y393400D01*
X282154Y393503D01*
X282095Y393607D01*
X282040Y393714D01*
X281989Y393823D01*
X281941Y393933D01*
X281897Y394045D01*
X281857Y394158D01*
X281820Y394272D01*
X281787Y394387D01*
X281758Y394504D01*
X281732Y394621D01*
X281711Y394739D01*
X281693Y394858D01*
X281680Y394977D01*
X281670Y395097D01*
X281664Y395217D01*
X281662Y395337D01*
X293730Y391668D02*
X298133Y404876D01*
X302535Y391668D01*
X301435Y394970D02*
X294831Y394970D01*
X307692Y391668D02*
X307692Y404876D01*
X311361Y404876D01*
X311481Y404874D01*
X311601Y404868D01*
X311721Y404858D01*
X311840Y404845D01*
X311959Y404827D01*
X312077Y404806D01*
X312194Y404780D01*
X312311Y404751D01*
X312426Y404718D01*
X312540Y404681D01*
X312653Y404641D01*
X312765Y404597D01*
X312875Y404549D01*
X312984Y404498D01*
X313091Y404443D01*
X313196Y404384D01*
X313298Y404323D01*
X313399Y404258D01*
X313498Y404189D01*
X313595Y404118D01*
X313689Y404043D01*
X313780Y403966D01*
X313869Y403885D01*
X313955Y403801D01*
X314039Y403715D01*
X314120Y403626D01*
X314197Y403535D01*
X314272Y403441D01*
X314343Y403344D01*
X314412Y403245D01*
X314477Y403144D01*
X314538Y403042D01*
X314597Y402937D01*
X314652Y402830D01*
X314703Y402721D01*
X314751Y402611D01*
X314795Y402499D01*
X314835Y402386D01*
X314872Y402272D01*
X314905Y402157D01*
X314934Y402040D01*
X314960Y401923D01*
X314981Y401805D01*
X314999Y401686D01*
X315012Y401567D01*
X315022Y401447D01*
X315028Y401327D01*
X315030Y401207D01*
X315030Y395337D01*
X315028Y395217D01*
X315022Y395097D01*
X315012Y394977D01*
X314999Y394858D01*
X314981Y394739D01*
X314960Y394621D01*
X314934Y394504D01*
X314905Y394387D01*
X314872Y394272D01*
X314835Y394158D01*
X314795Y394045D01*
X314751Y393933D01*
X314703Y393823D01*
X314652Y393714D01*
X314597Y393607D01*
X314538Y393503D01*
X314477Y393400D01*
X314412Y393299D01*
X314343Y393200D01*
X314272Y393103D01*
X314197Y393009D01*
X314120Y392918D01*
X314039Y392829D01*
X313955Y392743D01*
X313869Y392659D01*
X313780Y392578D01*
X313689Y392501D01*
X313595Y392426D01*
X313498Y392355D01*
X313399Y392286D01*
X313298Y392221D01*
X313196Y392160D01*
X313091Y392101D01*
X312984Y392046D01*
X312875Y391995D01*
X312765Y391947D01*
X312653Y391903D01*
X312540Y391863D01*
X312426Y391826D01*
X312311Y391793D01*
X312194Y391764D01*
X312077Y391738D01*
X311959Y391717D01*
X311840Y391699D01*
X311721Y391686D01*
X311601Y391676D01*
X311481Y391670D01*
X311361Y391668D01*
X307692Y391668D01*
D122*
X470926Y303310D02*
X473014Y303310D01*
X470926Y303310D02*
X470837Y303312D01*
X470749Y303318D01*
X470661Y303327D01*
X470573Y303340D01*
X470486Y303357D01*
X470400Y303377D01*
X470315Y303402D01*
X470230Y303429D01*
X470147Y303461D01*
X470066Y303495D01*
X469986Y303534D01*
X469908Y303575D01*
X469831Y303620D01*
X469757Y303668D01*
X469684Y303719D01*
X469614Y303773D01*
X469547Y303831D01*
X469481Y303891D01*
X469419Y303953D01*
X469359Y304019D01*
X469301Y304086D01*
X469247Y304156D01*
X469196Y304229D01*
X469148Y304303D01*
X469103Y304380D01*
X469062Y304458D01*
X469023Y304538D01*
X468989Y304619D01*
X468957Y304702D01*
X468930Y304787D01*
X468905Y304872D01*
X468885Y304958D01*
X468868Y305045D01*
X468855Y305133D01*
X468846Y305221D01*
X468840Y305309D01*
X468838Y305398D01*
X468838Y310619D01*
X468840Y310710D01*
X468846Y310801D01*
X468856Y310892D01*
X468870Y310982D01*
X468887Y311071D01*
X468909Y311159D01*
X468935Y311247D01*
X468964Y311333D01*
X468997Y311418D01*
X469034Y311501D01*
X469074Y311583D01*
X469118Y311663D01*
X469165Y311741D01*
X469216Y311817D01*
X469269Y311890D01*
X469326Y311961D01*
X469387Y312030D01*
X469450Y312095D01*
X469515Y312158D01*
X469584Y312218D01*
X469655Y312276D01*
X469728Y312329D01*
X469804Y312380D01*
X469882Y312427D01*
X469962Y312471D01*
X470044Y312511D01*
X470127Y312548D01*
X470212Y312581D01*
X470298Y312610D01*
X470386Y312636D01*
X470474Y312658D01*
X470563Y312675D01*
X470653Y312689D01*
X470744Y312699D01*
X470835Y312705D01*
X470926Y312707D01*
X470926Y312708D02*
X473014Y312708D01*
X476483Y305920D02*
X476485Y306021D01*
X476491Y306122D01*
X476501Y306223D01*
X476514Y306323D01*
X476532Y306423D01*
X476553Y306522D01*
X476579Y306620D01*
X476608Y306717D01*
X476640Y306813D01*
X476677Y306907D01*
X476717Y307000D01*
X476761Y307092D01*
X476808Y307181D01*
X476859Y307269D01*
X476913Y307355D01*
X476970Y307438D01*
X477030Y307520D01*
X477094Y307598D01*
X477160Y307675D01*
X477230Y307748D01*
X477302Y307819D01*
X477377Y307887D01*
X477455Y307952D01*
X477535Y308014D01*
X477617Y308073D01*
X477702Y308129D01*
X477789Y308181D01*
X477877Y308230D01*
X477968Y308276D01*
X478060Y308317D01*
X478154Y308356D01*
X478249Y308390D01*
X478345Y308421D01*
X478443Y308448D01*
X478541Y308472D01*
X478641Y308491D01*
X478741Y308507D01*
X478841Y308519D01*
X478942Y308527D01*
X479043Y308531D01*
X479145Y308531D01*
X479246Y308527D01*
X479347Y308519D01*
X479447Y308507D01*
X479547Y308491D01*
X479647Y308472D01*
X479745Y308448D01*
X479843Y308421D01*
X479939Y308390D01*
X480034Y308356D01*
X480128Y308317D01*
X480220Y308276D01*
X480311Y308230D01*
X480400Y308181D01*
X480486Y308129D01*
X480571Y308073D01*
X480653Y308014D01*
X480733Y307952D01*
X480811Y307887D01*
X480886Y307819D01*
X480958Y307748D01*
X481028Y307675D01*
X481094Y307598D01*
X481158Y307520D01*
X481218Y307438D01*
X481275Y307355D01*
X481329Y307269D01*
X481380Y307181D01*
X481427Y307092D01*
X481471Y307000D01*
X481511Y306907D01*
X481548Y306813D01*
X481580Y306717D01*
X481609Y306620D01*
X481635Y306522D01*
X481656Y306423D01*
X481674Y306323D01*
X481687Y306223D01*
X481697Y306122D01*
X481703Y306021D01*
X481705Y305920D01*
X481703Y305819D01*
X481697Y305718D01*
X481687Y305617D01*
X481674Y305517D01*
X481656Y305417D01*
X481635Y305318D01*
X481609Y305220D01*
X481580Y305123D01*
X481548Y305027D01*
X481511Y304933D01*
X481471Y304840D01*
X481427Y304748D01*
X481380Y304659D01*
X481329Y304571D01*
X481275Y304485D01*
X481218Y304402D01*
X481158Y304320D01*
X481094Y304242D01*
X481028Y304165D01*
X480958Y304092D01*
X480886Y304021D01*
X480811Y303953D01*
X480733Y303888D01*
X480653Y303826D01*
X480571Y303767D01*
X480486Y303711D01*
X480399Y303659D01*
X480311Y303610D01*
X480220Y303564D01*
X480128Y303523D01*
X480034Y303484D01*
X479939Y303450D01*
X479843Y303419D01*
X479745Y303392D01*
X479647Y303368D01*
X479547Y303349D01*
X479447Y303333D01*
X479347Y303321D01*
X479246Y303313D01*
X479145Y303309D01*
X479043Y303309D01*
X478942Y303313D01*
X478841Y303321D01*
X478741Y303333D01*
X478641Y303349D01*
X478541Y303368D01*
X478443Y303392D01*
X478345Y303419D01*
X478249Y303450D01*
X478154Y303484D01*
X478060Y303523D01*
X477968Y303564D01*
X477877Y303610D01*
X477789Y303659D01*
X477702Y303711D01*
X477617Y303767D01*
X477535Y303826D01*
X477455Y303888D01*
X477377Y303953D01*
X477302Y304021D01*
X477230Y304092D01*
X477160Y304165D01*
X477094Y304242D01*
X477030Y304320D01*
X476970Y304402D01*
X476913Y304485D01*
X476859Y304571D01*
X476808Y304659D01*
X476761Y304748D01*
X476717Y304840D01*
X476677Y304933D01*
X476640Y305027D01*
X476608Y305123D01*
X476579Y305220D01*
X476553Y305318D01*
X476532Y305417D01*
X476514Y305517D01*
X476501Y305617D01*
X476491Y305718D01*
X476485Y305819D01*
X476483Y305920D01*
X477006Y310619D02*
X477008Y310709D01*
X477014Y310798D01*
X477023Y310888D01*
X477037Y310977D01*
X477054Y311065D01*
X477075Y311152D01*
X477100Y311239D01*
X477129Y311324D01*
X477161Y311408D01*
X477196Y311490D01*
X477236Y311571D01*
X477278Y311650D01*
X477324Y311727D01*
X477374Y311802D01*
X477426Y311875D01*
X477482Y311946D01*
X477540Y312014D01*
X477602Y312079D01*
X477666Y312142D01*
X477733Y312202D01*
X477802Y312259D01*
X477874Y312313D01*
X477948Y312364D01*
X478024Y312412D01*
X478102Y312456D01*
X478182Y312497D01*
X478264Y312535D01*
X478347Y312569D01*
X478432Y312599D01*
X478518Y312626D01*
X478604Y312649D01*
X478692Y312668D01*
X478781Y312683D01*
X478870Y312695D01*
X478959Y312703D01*
X479049Y312707D01*
X479139Y312707D01*
X479229Y312703D01*
X479318Y312695D01*
X479407Y312683D01*
X479496Y312668D01*
X479584Y312649D01*
X479670Y312626D01*
X479756Y312599D01*
X479841Y312569D01*
X479924Y312535D01*
X480006Y312497D01*
X480086Y312456D01*
X480164Y312412D01*
X480240Y312364D01*
X480314Y312313D01*
X480386Y312259D01*
X480455Y312202D01*
X480522Y312142D01*
X480586Y312079D01*
X480648Y312014D01*
X480706Y311946D01*
X480762Y311875D01*
X480814Y311802D01*
X480864Y311727D01*
X480910Y311650D01*
X480952Y311571D01*
X480992Y311490D01*
X481027Y311408D01*
X481059Y311324D01*
X481088Y311239D01*
X481113Y311152D01*
X481134Y311065D01*
X481151Y310977D01*
X481165Y310888D01*
X481174Y310798D01*
X481180Y310709D01*
X481182Y310619D01*
X481180Y310529D01*
X481174Y310440D01*
X481165Y310350D01*
X481151Y310261D01*
X481134Y310173D01*
X481113Y310086D01*
X481088Y309999D01*
X481059Y309914D01*
X481027Y309830D01*
X480992Y309748D01*
X480952Y309667D01*
X480910Y309588D01*
X480864Y309511D01*
X480814Y309436D01*
X480762Y309363D01*
X480706Y309292D01*
X480648Y309224D01*
X480586Y309159D01*
X480522Y309096D01*
X480455Y309036D01*
X480386Y308979D01*
X480314Y308925D01*
X480240Y308874D01*
X480164Y308826D01*
X480086Y308782D01*
X480006Y308741D01*
X479924Y308703D01*
X479841Y308669D01*
X479756Y308639D01*
X479670Y308612D01*
X479584Y308589D01*
X479496Y308570D01*
X479407Y308555D01*
X479318Y308543D01*
X479229Y308535D01*
X479139Y308531D01*
X479049Y308531D01*
X478959Y308535D01*
X478870Y308543D01*
X478781Y308555D01*
X478692Y308570D01*
X478604Y308589D01*
X478518Y308612D01*
X478432Y308639D01*
X478347Y308669D01*
X478264Y308703D01*
X478182Y308741D01*
X478102Y308782D01*
X478024Y308826D01*
X477948Y308874D01*
X477874Y308925D01*
X477802Y308979D01*
X477733Y309036D01*
X477666Y309096D01*
X477602Y309159D01*
X477540Y309224D01*
X477482Y309292D01*
X477426Y309363D01*
X477374Y309436D01*
X477324Y309511D01*
X477278Y309588D01*
X477236Y309667D01*
X477196Y309748D01*
X477161Y309830D01*
X477129Y309914D01*
X477100Y309999D01*
X477075Y310086D01*
X477054Y310173D01*
X477037Y310261D01*
X477023Y310350D01*
X477014Y310440D01*
X477008Y310529D01*
X477006Y310619D01*
D123*
X248880Y365720D02*
X246380Y365720D01*
X243880Y365720D01*
X246380Y365720D02*
X248880Y360720D01*
X243880Y360720D02*
X246380Y365720D01*
X243880Y360720D02*
X248880Y360720D01*
X251380Y350720D02*
X241380Y350720D01*
X241380Y375720D01*
X251380Y375720D01*
X251380Y350720D01*
D122*
X238393Y363089D02*
X228995Y363089D01*
X228995Y365700D01*
X228997Y365800D01*
X229003Y365900D01*
X229012Y365999D01*
X229026Y366099D01*
X229043Y366197D01*
X229064Y366295D01*
X229088Y366392D01*
X229117Y366488D01*
X229149Y366583D01*
X229184Y366676D01*
X229223Y366768D01*
X229266Y366859D01*
X229312Y366947D01*
X229362Y367034D01*
X229414Y367119D01*
X229470Y367202D01*
X229529Y367283D01*
X229592Y367361D01*
X229657Y367437D01*
X229725Y367511D01*
X229795Y367581D01*
X229869Y367649D01*
X229945Y367714D01*
X230023Y367777D01*
X230104Y367836D01*
X230187Y367892D01*
X230272Y367944D01*
X230359Y367994D01*
X230447Y368040D01*
X230538Y368083D01*
X230630Y368122D01*
X230723Y368157D01*
X230818Y368189D01*
X230914Y368218D01*
X231011Y368242D01*
X231109Y368263D01*
X231207Y368280D01*
X231307Y368294D01*
X231406Y368303D01*
X231506Y368309D01*
X231606Y368311D01*
X231606Y368310D02*
X235782Y368310D01*
X235782Y368311D02*
X235882Y368309D01*
X235982Y368303D01*
X236081Y368294D01*
X236181Y368280D01*
X236279Y368263D01*
X236377Y368242D01*
X236474Y368218D01*
X236570Y368189D01*
X236665Y368157D01*
X236758Y368122D01*
X236850Y368083D01*
X236941Y368040D01*
X237029Y367994D01*
X237116Y367944D01*
X237201Y367892D01*
X237284Y367836D01*
X237365Y367777D01*
X237443Y367714D01*
X237519Y367649D01*
X237593Y367581D01*
X237663Y367511D01*
X237731Y367437D01*
X237796Y367361D01*
X237859Y367283D01*
X237918Y367202D01*
X237974Y367119D01*
X238026Y367034D01*
X238076Y366947D01*
X238122Y366859D01*
X238165Y366768D01*
X238204Y366676D01*
X238239Y366583D01*
X238271Y366488D01*
X238300Y366392D01*
X238324Y366295D01*
X238345Y366197D01*
X238362Y366099D01*
X238376Y365999D01*
X238385Y365900D01*
X238391Y365800D01*
X238393Y365700D01*
X238393Y363089D01*
X231083Y372538D02*
X228995Y375148D01*
X238393Y375148D01*
X238393Y372538D02*
X238393Y377759D01*
X374048Y201811D02*
X383446Y201811D01*
X374048Y201811D02*
X374048Y205988D01*
X378225Y205988D02*
X378225Y201811D01*
X378225Y209850D02*
X378225Y212460D01*
X378227Y212561D01*
X378233Y212662D01*
X378243Y212763D01*
X378256Y212863D01*
X378274Y212963D01*
X378295Y213062D01*
X378321Y213160D01*
X378350Y213257D01*
X378382Y213353D01*
X378419Y213447D01*
X378459Y213540D01*
X378503Y213632D01*
X378550Y213721D01*
X378601Y213809D01*
X378655Y213895D01*
X378712Y213978D01*
X378772Y214060D01*
X378836Y214138D01*
X378902Y214215D01*
X378972Y214288D01*
X379044Y214359D01*
X379119Y214427D01*
X379197Y214492D01*
X379277Y214554D01*
X379359Y214613D01*
X379444Y214669D01*
X379531Y214721D01*
X379619Y214770D01*
X379710Y214816D01*
X379802Y214857D01*
X379896Y214896D01*
X379991Y214930D01*
X380087Y214961D01*
X380185Y214988D01*
X380283Y215012D01*
X380383Y215031D01*
X380483Y215047D01*
X380583Y215059D01*
X380684Y215067D01*
X380785Y215071D01*
X380887Y215071D01*
X380988Y215067D01*
X381089Y215059D01*
X381189Y215047D01*
X381289Y215031D01*
X381389Y215012D01*
X381487Y214988D01*
X381585Y214961D01*
X381681Y214930D01*
X381776Y214896D01*
X381870Y214857D01*
X381962Y214816D01*
X382053Y214770D01*
X382142Y214721D01*
X382228Y214669D01*
X382313Y214613D01*
X382395Y214554D01*
X382475Y214492D01*
X382553Y214427D01*
X382628Y214359D01*
X382700Y214288D01*
X382770Y214215D01*
X382836Y214138D01*
X382900Y214060D01*
X382960Y213978D01*
X383017Y213895D01*
X383071Y213809D01*
X383122Y213721D01*
X383169Y213632D01*
X383213Y213540D01*
X383253Y213447D01*
X383290Y213353D01*
X383322Y213257D01*
X383351Y213160D01*
X383377Y213062D01*
X383398Y212963D01*
X383416Y212863D01*
X383429Y212763D01*
X383439Y212662D01*
X383445Y212561D01*
X383447Y212460D01*
X383446Y212460D02*
X383446Y209850D01*
X374048Y209850D01*
X374048Y212460D01*
X374049Y212460D02*
X374051Y212550D01*
X374057Y212639D01*
X374066Y212729D01*
X374080Y212818D01*
X374097Y212906D01*
X374118Y212993D01*
X374143Y213080D01*
X374172Y213165D01*
X374204Y213249D01*
X374239Y213331D01*
X374279Y213412D01*
X374321Y213491D01*
X374367Y213568D01*
X374417Y213643D01*
X374469Y213716D01*
X374525Y213787D01*
X374583Y213855D01*
X374645Y213920D01*
X374709Y213983D01*
X374776Y214043D01*
X374845Y214100D01*
X374917Y214154D01*
X374991Y214205D01*
X375067Y214253D01*
X375145Y214297D01*
X375225Y214338D01*
X375307Y214376D01*
X375390Y214410D01*
X375475Y214440D01*
X375561Y214467D01*
X375647Y214490D01*
X375735Y214509D01*
X375824Y214524D01*
X375913Y214536D01*
X376002Y214544D01*
X376092Y214548D01*
X376182Y214548D01*
X376272Y214544D01*
X376361Y214536D01*
X376450Y214524D01*
X376539Y214509D01*
X376627Y214490D01*
X376713Y214467D01*
X376799Y214440D01*
X376884Y214410D01*
X376967Y214376D01*
X377049Y214338D01*
X377129Y214297D01*
X377207Y214253D01*
X377283Y214205D01*
X377357Y214154D01*
X377429Y214100D01*
X377498Y214043D01*
X377565Y213983D01*
X377629Y213920D01*
X377691Y213855D01*
X377749Y213787D01*
X377805Y213716D01*
X377857Y213643D01*
X377907Y213568D01*
X377953Y213491D01*
X377995Y213412D01*
X378035Y213331D01*
X378070Y213249D01*
X378102Y213165D01*
X378131Y213080D01*
X378156Y212993D01*
X378177Y212906D01*
X378194Y212818D01*
X378208Y212729D01*
X378217Y212639D01*
X378223Y212550D01*
X378225Y212460D01*
X376137Y218558D02*
X374048Y221168D01*
X383446Y221168D01*
X383446Y218558D02*
X383446Y223779D01*
X264356Y319373D02*
X254958Y319373D01*
X254958Y321984D01*
X254957Y321984D02*
X254959Y322085D01*
X254965Y322186D01*
X254975Y322287D01*
X254988Y322387D01*
X255006Y322487D01*
X255027Y322586D01*
X255053Y322684D01*
X255082Y322781D01*
X255114Y322877D01*
X255151Y322971D01*
X255191Y323064D01*
X255235Y323156D01*
X255282Y323245D01*
X255333Y323333D01*
X255387Y323419D01*
X255444Y323502D01*
X255504Y323584D01*
X255568Y323662D01*
X255634Y323739D01*
X255704Y323812D01*
X255776Y323883D01*
X255851Y323951D01*
X255929Y324016D01*
X256009Y324078D01*
X256091Y324137D01*
X256176Y324193D01*
X256263Y324245D01*
X256351Y324294D01*
X256442Y324340D01*
X256534Y324381D01*
X256628Y324420D01*
X256723Y324454D01*
X256819Y324485D01*
X256917Y324512D01*
X257015Y324536D01*
X257115Y324555D01*
X257215Y324571D01*
X257315Y324583D01*
X257416Y324591D01*
X257517Y324595D01*
X257619Y324595D01*
X257720Y324591D01*
X257821Y324583D01*
X257921Y324571D01*
X258021Y324555D01*
X258121Y324536D01*
X258219Y324512D01*
X258317Y324485D01*
X258413Y324454D01*
X258508Y324420D01*
X258602Y324381D01*
X258694Y324340D01*
X258785Y324294D01*
X258874Y324245D01*
X258960Y324193D01*
X259045Y324137D01*
X259127Y324078D01*
X259207Y324016D01*
X259285Y323951D01*
X259360Y323883D01*
X259432Y323812D01*
X259502Y323739D01*
X259568Y323662D01*
X259632Y323584D01*
X259692Y323502D01*
X259749Y323419D01*
X259803Y323333D01*
X259854Y323245D01*
X259901Y323156D01*
X259945Y323064D01*
X259985Y322971D01*
X260022Y322877D01*
X260054Y322781D01*
X260083Y322684D01*
X260109Y322586D01*
X260130Y322487D01*
X260148Y322387D01*
X260161Y322287D01*
X260171Y322186D01*
X260177Y322085D01*
X260179Y321984D01*
X260179Y319373D01*
X260179Y322506D02*
X264356Y324595D01*
X257046Y328460D02*
X254958Y331071D01*
X264356Y331071D01*
X264356Y333681D02*
X264356Y328460D01*
X455911Y334779D02*
X465309Y334779D01*
X455911Y334779D02*
X455911Y337390D01*
X455910Y337390D02*
X455912Y337491D01*
X455918Y337592D01*
X455928Y337693D01*
X455941Y337793D01*
X455959Y337893D01*
X455980Y337992D01*
X456006Y338090D01*
X456035Y338187D01*
X456067Y338283D01*
X456104Y338377D01*
X456144Y338470D01*
X456188Y338562D01*
X456235Y338651D01*
X456286Y338739D01*
X456340Y338825D01*
X456397Y338908D01*
X456457Y338990D01*
X456521Y339068D01*
X456587Y339145D01*
X456657Y339218D01*
X456729Y339289D01*
X456804Y339357D01*
X456882Y339422D01*
X456962Y339484D01*
X457044Y339543D01*
X457129Y339599D01*
X457216Y339651D01*
X457304Y339700D01*
X457395Y339746D01*
X457487Y339787D01*
X457581Y339826D01*
X457676Y339860D01*
X457772Y339891D01*
X457870Y339918D01*
X457968Y339942D01*
X458068Y339961D01*
X458168Y339977D01*
X458268Y339989D01*
X458369Y339997D01*
X458470Y340001D01*
X458572Y340001D01*
X458673Y339997D01*
X458774Y339989D01*
X458874Y339977D01*
X458974Y339961D01*
X459074Y339942D01*
X459172Y339918D01*
X459270Y339891D01*
X459366Y339860D01*
X459461Y339826D01*
X459555Y339787D01*
X459647Y339746D01*
X459738Y339700D01*
X459827Y339651D01*
X459913Y339599D01*
X459998Y339543D01*
X460080Y339484D01*
X460160Y339422D01*
X460238Y339357D01*
X460313Y339289D01*
X460385Y339218D01*
X460455Y339145D01*
X460521Y339068D01*
X460585Y338990D01*
X460645Y338908D01*
X460702Y338825D01*
X460756Y338739D01*
X460807Y338651D01*
X460854Y338562D01*
X460898Y338470D01*
X460938Y338377D01*
X460975Y338283D01*
X461007Y338187D01*
X461036Y338090D01*
X461062Y337992D01*
X461083Y337893D01*
X461101Y337793D01*
X461114Y337693D01*
X461124Y337592D01*
X461130Y337491D01*
X461132Y337390D01*
X461132Y334779D01*
X461132Y337912D02*
X465309Y340000D01*
X465309Y343866D02*
X465309Y346477D01*
X465307Y346578D01*
X465301Y346679D01*
X465291Y346780D01*
X465278Y346880D01*
X465260Y346980D01*
X465239Y347079D01*
X465213Y347177D01*
X465184Y347274D01*
X465152Y347370D01*
X465115Y347464D01*
X465075Y347557D01*
X465031Y347649D01*
X464984Y347738D01*
X464933Y347826D01*
X464879Y347912D01*
X464822Y347995D01*
X464762Y348077D01*
X464698Y348155D01*
X464632Y348232D01*
X464562Y348305D01*
X464490Y348376D01*
X464415Y348444D01*
X464337Y348509D01*
X464257Y348571D01*
X464175Y348630D01*
X464090Y348686D01*
X464004Y348738D01*
X463915Y348787D01*
X463824Y348833D01*
X463732Y348874D01*
X463638Y348913D01*
X463543Y348947D01*
X463447Y348978D01*
X463349Y349005D01*
X463251Y349029D01*
X463151Y349048D01*
X463051Y349064D01*
X462951Y349076D01*
X462850Y349084D01*
X462749Y349088D01*
X462647Y349088D01*
X462546Y349084D01*
X462445Y349076D01*
X462345Y349064D01*
X462245Y349048D01*
X462145Y349029D01*
X462047Y349005D01*
X461949Y348978D01*
X461853Y348947D01*
X461758Y348913D01*
X461664Y348874D01*
X461572Y348833D01*
X461481Y348787D01*
X461393Y348738D01*
X461306Y348686D01*
X461221Y348630D01*
X461139Y348571D01*
X461059Y348509D01*
X460981Y348444D01*
X460906Y348376D01*
X460834Y348305D01*
X460764Y348232D01*
X460698Y348155D01*
X460634Y348077D01*
X460574Y347995D01*
X460517Y347912D01*
X460463Y347826D01*
X460412Y347738D01*
X460365Y347649D01*
X460321Y347557D01*
X460281Y347464D01*
X460244Y347370D01*
X460212Y347274D01*
X460183Y347177D01*
X460157Y347079D01*
X460136Y346980D01*
X460118Y346880D01*
X460105Y346780D01*
X460095Y346679D01*
X460089Y346578D01*
X460087Y346477D01*
X455911Y346999D02*
X455911Y343866D01*
X455911Y346999D02*
X455913Y347089D01*
X455919Y347178D01*
X455928Y347268D01*
X455942Y347357D01*
X455959Y347445D01*
X455980Y347532D01*
X456005Y347619D01*
X456034Y347704D01*
X456066Y347788D01*
X456101Y347870D01*
X456141Y347951D01*
X456183Y348030D01*
X456229Y348107D01*
X456279Y348182D01*
X456331Y348255D01*
X456387Y348326D01*
X456445Y348394D01*
X456507Y348459D01*
X456571Y348522D01*
X456638Y348582D01*
X456707Y348639D01*
X456779Y348693D01*
X456853Y348744D01*
X456929Y348792D01*
X457007Y348836D01*
X457087Y348877D01*
X457169Y348915D01*
X457252Y348949D01*
X457337Y348979D01*
X457423Y349006D01*
X457509Y349029D01*
X457597Y349048D01*
X457686Y349063D01*
X457775Y349075D01*
X457864Y349083D01*
X457954Y349087D01*
X458044Y349087D01*
X458134Y349083D01*
X458223Y349075D01*
X458312Y349063D01*
X458401Y349048D01*
X458489Y349029D01*
X458575Y349006D01*
X458661Y348979D01*
X458746Y348949D01*
X458829Y348915D01*
X458911Y348877D01*
X458991Y348836D01*
X459069Y348792D01*
X459145Y348744D01*
X459219Y348693D01*
X459291Y348639D01*
X459360Y348582D01*
X459427Y348522D01*
X459491Y348459D01*
X459553Y348394D01*
X459611Y348326D01*
X459667Y348255D01*
X459719Y348182D01*
X459769Y348107D01*
X459815Y348030D01*
X459857Y347951D01*
X459897Y347870D01*
X459932Y347788D01*
X459964Y347704D01*
X459993Y347619D01*
X460018Y347532D01*
X460039Y347445D01*
X460056Y347357D01*
X460070Y347268D01*
X460079Y347178D01*
X460085Y347089D01*
X460087Y346999D01*
X460088Y346999D02*
X460088Y344910D01*
D11*
X219893Y357482D02*
X215942Y357482D01*
X215818Y357484D01*
X215694Y357490D01*
X215570Y357500D01*
X215447Y357513D01*
X215324Y357531D01*
X215202Y357552D01*
X215080Y357577D01*
X214959Y357606D01*
X214840Y357639D01*
X214721Y357675D01*
X214604Y357716D01*
X214488Y357759D01*
X214373Y357807D01*
X214260Y357858D01*
X214148Y357913D01*
X214039Y357971D01*
X213931Y358032D01*
X213825Y358097D01*
X213721Y358165D01*
X213620Y358237D01*
X213520Y358311D01*
X213424Y358389D01*
X213329Y358469D01*
X213237Y358553D01*
X213148Y358639D01*
X213062Y358728D01*
X212978Y358820D01*
X212898Y358915D01*
X212820Y359011D01*
X212746Y359111D01*
X212674Y359212D01*
X212606Y359316D01*
X212541Y359422D01*
X212480Y359530D01*
X212422Y359639D01*
X212367Y359751D01*
X212316Y359864D01*
X212268Y359979D01*
X212225Y360095D01*
X212184Y360212D01*
X212148Y360331D01*
X212115Y360450D01*
X212086Y360571D01*
X212061Y360693D01*
X212040Y360815D01*
X212022Y360938D01*
X212009Y361061D01*
X211999Y361185D01*
X211993Y361309D01*
X211991Y361433D01*
X211991Y371311D01*
X211993Y371435D01*
X211999Y371559D01*
X212009Y371683D01*
X212022Y371806D01*
X212040Y371929D01*
X212061Y372051D01*
X212086Y372173D01*
X212115Y372294D01*
X212148Y372413D01*
X212184Y372532D01*
X212225Y372649D01*
X212268Y372765D01*
X212316Y372880D01*
X212367Y372993D01*
X212422Y373105D01*
X212480Y373214D01*
X212541Y373322D01*
X212606Y373428D01*
X212674Y373532D01*
X212746Y373633D01*
X212820Y373733D01*
X212898Y373829D01*
X212978Y373924D01*
X213062Y374016D01*
X213148Y374105D01*
X213237Y374191D01*
X213329Y374275D01*
X213424Y374355D01*
X213520Y374433D01*
X213620Y374507D01*
X213721Y374579D01*
X213825Y374647D01*
X213931Y374712D01*
X214039Y374773D01*
X214148Y374831D01*
X214260Y374886D01*
X214373Y374937D01*
X214488Y374985D01*
X214604Y375028D01*
X214721Y375069D01*
X214840Y375105D01*
X214959Y375138D01*
X215080Y375167D01*
X215202Y375192D01*
X215324Y375213D01*
X215447Y375231D01*
X215570Y375244D01*
X215694Y375254D01*
X215818Y375260D01*
X215942Y375262D01*
X219893Y375262D01*
X210038Y315102D02*
X210038Y297322D01*
X210038Y315102D02*
X214977Y315102D01*
X215116Y315100D01*
X215254Y315094D01*
X215392Y315085D01*
X215530Y315071D01*
X215667Y315054D01*
X215804Y315032D01*
X215941Y315007D01*
X216076Y314978D01*
X216211Y314945D01*
X216344Y314909D01*
X216477Y314869D01*
X216608Y314825D01*
X216738Y314777D01*
X216867Y314726D01*
X216994Y314671D01*
X217120Y314613D01*
X217244Y314551D01*
X217366Y314486D01*
X217486Y314417D01*
X217605Y314345D01*
X217721Y314270D01*
X217835Y314191D01*
X217947Y314109D01*
X218056Y314024D01*
X218164Y313937D01*
X218268Y313846D01*
X218370Y313752D01*
X218469Y313655D01*
X218566Y313556D01*
X218660Y313454D01*
X218751Y313350D01*
X218838Y313242D01*
X218923Y313133D01*
X219005Y313021D01*
X219084Y312907D01*
X219159Y312791D01*
X219231Y312672D01*
X219300Y312552D01*
X219365Y312430D01*
X219427Y312306D01*
X219485Y312180D01*
X219540Y312053D01*
X219591Y311924D01*
X219639Y311794D01*
X219683Y311663D01*
X219723Y311530D01*
X219759Y311397D01*
X219792Y311262D01*
X219821Y311127D01*
X219846Y310990D01*
X219868Y310853D01*
X219885Y310716D01*
X219899Y310578D01*
X219908Y310440D01*
X219914Y310302D01*
X219916Y310163D01*
X219916Y302261D01*
X219914Y302122D01*
X219908Y301984D01*
X219899Y301846D01*
X219885Y301708D01*
X219868Y301571D01*
X219846Y301434D01*
X219821Y301297D01*
X219792Y301162D01*
X219759Y301027D01*
X219723Y300894D01*
X219683Y300761D01*
X219639Y300630D01*
X219591Y300500D01*
X219540Y300371D01*
X219485Y300244D01*
X219427Y300118D01*
X219365Y299994D01*
X219300Y299872D01*
X219231Y299752D01*
X219159Y299633D01*
X219084Y299517D01*
X219005Y299403D01*
X218923Y299291D01*
X218838Y299182D01*
X218751Y299074D01*
X218660Y298970D01*
X218566Y298868D01*
X218469Y298769D01*
X218370Y298672D01*
X218268Y298578D01*
X218164Y298487D01*
X218056Y298400D01*
X217947Y298315D01*
X217835Y298233D01*
X217721Y298154D01*
X217605Y298079D01*
X217486Y298007D01*
X217366Y297938D01*
X217244Y297873D01*
X217120Y297811D01*
X216994Y297753D01*
X216867Y297698D01*
X216738Y297647D01*
X216608Y297599D01*
X216477Y297555D01*
X216344Y297515D01*
X216211Y297479D01*
X216076Y297446D01*
X215941Y297417D01*
X215804Y297392D01*
X215667Y297370D01*
X215530Y297353D01*
X215392Y297339D01*
X215254Y297330D01*
X215116Y297324D01*
X214977Y297322D01*
X210038Y297322D01*
X451101Y389344D02*
X456040Y389344D01*
X456180Y389342D01*
X456319Y389336D01*
X456459Y389326D01*
X456598Y389312D01*
X456737Y389295D01*
X456875Y389273D01*
X457012Y389247D01*
X457149Y389218D01*
X457285Y389185D01*
X457419Y389148D01*
X457553Y389107D01*
X457685Y389062D01*
X457817Y389013D01*
X457946Y388961D01*
X458074Y388906D01*
X458201Y388846D01*
X458326Y388783D01*
X458449Y388717D01*
X458570Y388647D01*
X458689Y388574D01*
X458806Y388497D01*
X458920Y388417D01*
X459033Y388334D01*
X459143Y388248D01*
X459250Y388158D01*
X459355Y388066D01*
X459457Y387971D01*
X459557Y387873D01*
X459654Y387772D01*
X459748Y387668D01*
X459838Y387562D01*
X459926Y387453D01*
X460011Y387342D01*
X460092Y387228D01*
X460171Y387113D01*
X460246Y386995D01*
X460317Y386875D01*
X460385Y386752D01*
X460450Y386629D01*
X460511Y386503D01*
X460569Y386375D01*
X460623Y386247D01*
X460673Y386116D01*
X460720Y385984D01*
X460763Y385851D01*
X460802Y385717D01*
X460837Y385582D01*
X460868Y385446D01*
X460896Y385308D01*
X460919Y385171D01*
X460939Y385032D01*
X460955Y384893D01*
X460967Y384754D01*
X460975Y384615D01*
X460979Y384475D01*
X460979Y384335D01*
X460975Y384195D01*
X460967Y384056D01*
X460955Y383917D01*
X460939Y383778D01*
X460919Y383639D01*
X460896Y383502D01*
X460868Y383364D01*
X460837Y383228D01*
X460802Y383093D01*
X460763Y382959D01*
X460720Y382826D01*
X460673Y382694D01*
X460623Y382563D01*
X460569Y382435D01*
X460511Y382307D01*
X460450Y382181D01*
X460385Y382058D01*
X460317Y381936D01*
X460246Y381815D01*
X460171Y381697D01*
X460092Y381582D01*
X460011Y381468D01*
X459926Y381357D01*
X459838Y381248D01*
X459748Y381142D01*
X459654Y381038D01*
X459557Y380937D01*
X459457Y380839D01*
X459355Y380744D01*
X459250Y380652D01*
X459143Y380562D01*
X459033Y380476D01*
X458920Y380393D01*
X458806Y380313D01*
X458689Y380236D01*
X458570Y380163D01*
X458449Y380093D01*
X458326Y380027D01*
X458201Y379964D01*
X458074Y379904D01*
X457946Y379849D01*
X457817Y379797D01*
X457685Y379748D01*
X457553Y379703D01*
X457419Y379662D01*
X457285Y379625D01*
X457149Y379592D01*
X457012Y379563D01*
X456875Y379537D01*
X456737Y379515D01*
X456598Y379498D01*
X456459Y379484D01*
X456319Y379474D01*
X456180Y379468D01*
X456040Y379466D01*
X451101Y379466D01*
X451101Y397246D01*
X456040Y397246D01*
X456164Y397244D01*
X456288Y397238D01*
X456412Y397228D01*
X456535Y397215D01*
X456658Y397197D01*
X456780Y397176D01*
X456902Y397151D01*
X457023Y397122D01*
X457142Y397089D01*
X457261Y397053D01*
X457378Y397012D01*
X457494Y396969D01*
X457609Y396921D01*
X457722Y396870D01*
X457834Y396815D01*
X457943Y396757D01*
X458051Y396696D01*
X458157Y396631D01*
X458261Y396563D01*
X458362Y396491D01*
X458462Y396417D01*
X458558Y396339D01*
X458653Y396259D01*
X458745Y396175D01*
X458834Y396089D01*
X458920Y396000D01*
X459004Y395908D01*
X459084Y395813D01*
X459162Y395717D01*
X459236Y395617D01*
X459308Y395516D01*
X459376Y395412D01*
X459441Y395306D01*
X459502Y395198D01*
X459560Y395089D01*
X459615Y394977D01*
X459666Y394864D01*
X459714Y394749D01*
X459757Y394633D01*
X459798Y394516D01*
X459834Y394397D01*
X459867Y394278D01*
X459896Y394157D01*
X459921Y394035D01*
X459942Y393913D01*
X459960Y393790D01*
X459973Y393667D01*
X459983Y393543D01*
X459989Y393419D01*
X459991Y393295D01*
X459989Y393171D01*
X459983Y393047D01*
X459973Y392923D01*
X459960Y392800D01*
X459942Y392677D01*
X459921Y392555D01*
X459896Y392433D01*
X459867Y392312D01*
X459834Y392193D01*
X459798Y392074D01*
X459757Y391957D01*
X459714Y391841D01*
X459666Y391726D01*
X459615Y391613D01*
X459560Y391501D01*
X459502Y391392D01*
X459441Y391284D01*
X459376Y391178D01*
X459308Y391074D01*
X459236Y390973D01*
X459162Y390873D01*
X459084Y390777D01*
X459004Y390682D01*
X458920Y390590D01*
X458834Y390501D01*
X458745Y390415D01*
X458653Y390331D01*
X458558Y390251D01*
X458462Y390173D01*
X458362Y390099D01*
X458261Y390027D01*
X458157Y389959D01*
X458051Y389894D01*
X457943Y389833D01*
X457834Y389775D01*
X457722Y389720D01*
X457609Y389669D01*
X457494Y389621D01*
X457378Y389578D01*
X457261Y389537D01*
X457142Y389501D01*
X457023Y389468D01*
X456902Y389439D01*
X456780Y389414D01*
X456658Y389393D01*
X456535Y389375D01*
X456412Y389362D01*
X456288Y389352D01*
X456164Y389346D01*
X456040Y389344D01*
X451604Y308826D02*
X451604Y291046D01*
X451604Y308826D02*
X456543Y308826D01*
X456683Y308824D01*
X456822Y308818D01*
X456962Y308808D01*
X457101Y308794D01*
X457240Y308777D01*
X457378Y308755D01*
X457515Y308729D01*
X457652Y308700D01*
X457788Y308667D01*
X457922Y308630D01*
X458056Y308589D01*
X458188Y308544D01*
X458320Y308495D01*
X458449Y308443D01*
X458577Y308388D01*
X458704Y308328D01*
X458829Y308265D01*
X458952Y308199D01*
X459073Y308129D01*
X459192Y308056D01*
X459309Y307979D01*
X459423Y307899D01*
X459536Y307816D01*
X459646Y307730D01*
X459753Y307640D01*
X459858Y307548D01*
X459960Y307453D01*
X460060Y307355D01*
X460157Y307254D01*
X460251Y307150D01*
X460341Y307044D01*
X460429Y306935D01*
X460514Y306824D01*
X460595Y306710D01*
X460674Y306595D01*
X460749Y306477D01*
X460820Y306357D01*
X460888Y306234D01*
X460953Y306111D01*
X461014Y305985D01*
X461072Y305857D01*
X461126Y305729D01*
X461176Y305598D01*
X461223Y305466D01*
X461266Y305333D01*
X461305Y305199D01*
X461340Y305064D01*
X461371Y304928D01*
X461399Y304790D01*
X461422Y304653D01*
X461442Y304514D01*
X461458Y304375D01*
X461470Y304236D01*
X461478Y304097D01*
X461482Y303957D01*
X461482Y303817D01*
X461478Y303677D01*
X461470Y303538D01*
X461458Y303399D01*
X461442Y303260D01*
X461422Y303121D01*
X461399Y302984D01*
X461371Y302846D01*
X461340Y302710D01*
X461305Y302575D01*
X461266Y302441D01*
X461223Y302308D01*
X461176Y302176D01*
X461126Y302045D01*
X461072Y301917D01*
X461014Y301789D01*
X460953Y301663D01*
X460888Y301540D01*
X460820Y301418D01*
X460749Y301297D01*
X460674Y301179D01*
X460595Y301064D01*
X460514Y300950D01*
X460429Y300839D01*
X460341Y300730D01*
X460251Y300624D01*
X460157Y300520D01*
X460060Y300419D01*
X459960Y300321D01*
X459858Y300226D01*
X459753Y300134D01*
X459646Y300044D01*
X459536Y299958D01*
X459423Y299875D01*
X459309Y299795D01*
X459192Y299718D01*
X459073Y299645D01*
X458952Y299575D01*
X458829Y299509D01*
X458704Y299446D01*
X458577Y299386D01*
X458449Y299331D01*
X458320Y299279D01*
X458188Y299230D01*
X458056Y299185D01*
X457922Y299144D01*
X457788Y299107D01*
X457652Y299074D01*
X457515Y299045D01*
X457378Y299019D01*
X457240Y298997D01*
X457101Y298980D01*
X456962Y298966D01*
X456822Y298956D01*
X456683Y298950D01*
X456543Y298948D01*
X451604Y298948D01*
X457531Y298948D02*
X461482Y291046D01*
D123*
X313055Y238125D02*
X309245Y241935D01*
X313055Y238125D02*
X309245Y234315D01*
D122*
X293126Y244736D02*
X293126Y254134D01*
X295737Y254134D01*
X295837Y254132D01*
X295937Y254126D01*
X296036Y254117D01*
X296136Y254103D01*
X296234Y254086D01*
X296332Y254065D01*
X296429Y254041D01*
X296525Y254012D01*
X296620Y253980D01*
X296713Y253945D01*
X296805Y253906D01*
X296896Y253863D01*
X296984Y253817D01*
X297071Y253767D01*
X297156Y253715D01*
X297239Y253659D01*
X297320Y253600D01*
X297398Y253537D01*
X297474Y253472D01*
X297548Y253404D01*
X297618Y253334D01*
X297686Y253260D01*
X297751Y253184D01*
X297814Y253106D01*
X297873Y253025D01*
X297929Y252942D01*
X297981Y252857D01*
X298031Y252770D01*
X298077Y252682D01*
X298120Y252591D01*
X298159Y252499D01*
X298194Y252406D01*
X298226Y252311D01*
X298255Y252215D01*
X298279Y252118D01*
X298300Y252020D01*
X298317Y251922D01*
X298331Y251822D01*
X298340Y251723D01*
X298346Y251623D01*
X298348Y251523D01*
X298347Y251523D02*
X298347Y247347D01*
X298348Y247347D02*
X298346Y247247D01*
X298340Y247147D01*
X298331Y247048D01*
X298317Y246948D01*
X298300Y246850D01*
X298279Y246752D01*
X298255Y246655D01*
X298226Y246559D01*
X298194Y246464D01*
X298159Y246371D01*
X298120Y246279D01*
X298077Y246188D01*
X298031Y246100D01*
X297981Y246013D01*
X297929Y245928D01*
X297873Y245845D01*
X297814Y245764D01*
X297751Y245686D01*
X297686Y245610D01*
X297618Y245536D01*
X297548Y245466D01*
X297474Y245398D01*
X297398Y245333D01*
X297320Y245270D01*
X297239Y245211D01*
X297156Y245155D01*
X297071Y245103D01*
X296984Y245053D01*
X296896Y245007D01*
X296805Y244964D01*
X296713Y244925D01*
X296620Y244890D01*
X296525Y244858D01*
X296429Y244829D01*
X296332Y244805D01*
X296234Y244784D01*
X296136Y244767D01*
X296036Y244753D01*
X295937Y244744D01*
X295837Y244738D01*
X295737Y244736D01*
X293126Y244736D01*
X302575Y244736D02*
X305185Y244736D01*
X305286Y244738D01*
X305387Y244744D01*
X305488Y244754D01*
X305588Y244767D01*
X305688Y244785D01*
X305787Y244806D01*
X305885Y244832D01*
X305982Y244861D01*
X306078Y244893D01*
X306172Y244930D01*
X306265Y244970D01*
X306357Y245014D01*
X306446Y245061D01*
X306534Y245112D01*
X306620Y245166D01*
X306703Y245223D01*
X306785Y245283D01*
X306863Y245347D01*
X306940Y245413D01*
X307013Y245483D01*
X307084Y245555D01*
X307152Y245630D01*
X307217Y245708D01*
X307279Y245788D01*
X307338Y245870D01*
X307394Y245955D01*
X307446Y246041D01*
X307495Y246130D01*
X307541Y246221D01*
X307582Y246313D01*
X307621Y246407D01*
X307655Y246502D01*
X307686Y246598D01*
X307713Y246696D01*
X307737Y246794D01*
X307756Y246894D01*
X307772Y246994D01*
X307784Y247094D01*
X307792Y247195D01*
X307796Y247296D01*
X307796Y247398D01*
X307792Y247499D01*
X307784Y247600D01*
X307772Y247700D01*
X307756Y247800D01*
X307737Y247900D01*
X307713Y247998D01*
X307686Y248096D01*
X307655Y248192D01*
X307621Y248287D01*
X307582Y248381D01*
X307541Y248473D01*
X307495Y248564D01*
X307446Y248652D01*
X307394Y248739D01*
X307338Y248824D01*
X307279Y248906D01*
X307217Y248986D01*
X307152Y249064D01*
X307084Y249139D01*
X307013Y249211D01*
X306940Y249281D01*
X306863Y249347D01*
X306785Y249411D01*
X306703Y249471D01*
X306620Y249528D01*
X306534Y249582D01*
X306446Y249633D01*
X306357Y249680D01*
X306265Y249724D01*
X306172Y249764D01*
X306078Y249801D01*
X305982Y249833D01*
X305885Y249862D01*
X305787Y249888D01*
X305688Y249909D01*
X305588Y249927D01*
X305488Y249940D01*
X305387Y249950D01*
X305286Y249956D01*
X305185Y249958D01*
X305707Y254134D02*
X302575Y254134D01*
X305707Y254134D02*
X305797Y254132D01*
X305886Y254126D01*
X305976Y254117D01*
X306065Y254103D01*
X306153Y254086D01*
X306240Y254065D01*
X306327Y254040D01*
X306412Y254011D01*
X306496Y253979D01*
X306578Y253944D01*
X306659Y253904D01*
X306738Y253862D01*
X306815Y253816D01*
X306890Y253766D01*
X306963Y253714D01*
X307034Y253658D01*
X307102Y253600D01*
X307167Y253538D01*
X307230Y253474D01*
X307290Y253407D01*
X307347Y253338D01*
X307401Y253266D01*
X307452Y253192D01*
X307500Y253116D01*
X307544Y253038D01*
X307585Y252958D01*
X307623Y252876D01*
X307657Y252793D01*
X307687Y252708D01*
X307714Y252622D01*
X307737Y252536D01*
X307756Y252448D01*
X307771Y252359D01*
X307783Y252270D01*
X307791Y252181D01*
X307795Y252091D01*
X307795Y252001D01*
X307791Y251911D01*
X307783Y251822D01*
X307771Y251733D01*
X307756Y251644D01*
X307737Y251556D01*
X307714Y251470D01*
X307687Y251384D01*
X307657Y251299D01*
X307623Y251216D01*
X307585Y251134D01*
X307544Y251054D01*
X307500Y250976D01*
X307452Y250900D01*
X307401Y250826D01*
X307347Y250754D01*
X307290Y250685D01*
X307230Y250618D01*
X307167Y250554D01*
X307102Y250492D01*
X307034Y250434D01*
X306963Y250378D01*
X306890Y250326D01*
X306815Y250276D01*
X306738Y250230D01*
X306659Y250188D01*
X306578Y250148D01*
X306496Y250113D01*
X306412Y250081D01*
X306327Y250052D01*
X306240Y250027D01*
X306153Y250006D01*
X306065Y249989D01*
X305976Y249975D01*
X305886Y249966D01*
X305797Y249960D01*
X305707Y249958D01*
X305707Y249957D02*
X303619Y249957D01*
D11*
X337815Y277230D02*
X337815Y339430D01*
X270515Y339430D02*
X270515Y277230D01*
X270515Y339430D02*
X337815Y339430D01*
D124*
X281265Y342430D03*
X327065Y342430D03*
D125*
X304165Y344430D03*
D122*
X263643Y280346D02*
X259467Y280346D01*
X259366Y280348D01*
X259265Y280354D01*
X259164Y280364D01*
X259064Y280377D01*
X258964Y280395D01*
X258865Y280416D01*
X258767Y280442D01*
X258670Y280471D01*
X258574Y280503D01*
X258480Y280540D01*
X258387Y280580D01*
X258295Y280624D01*
X258206Y280671D01*
X258118Y280722D01*
X258032Y280776D01*
X257949Y280833D01*
X257867Y280893D01*
X257789Y280957D01*
X257712Y281023D01*
X257639Y281093D01*
X257568Y281165D01*
X257500Y281240D01*
X257435Y281318D01*
X257373Y281398D01*
X257314Y281480D01*
X257258Y281565D01*
X257206Y281652D01*
X257157Y281740D01*
X257111Y281831D01*
X257070Y281923D01*
X257031Y282017D01*
X256997Y282112D01*
X256966Y282208D01*
X256939Y282306D01*
X256915Y282404D01*
X256896Y282504D01*
X256880Y282604D01*
X256868Y282704D01*
X256860Y282805D01*
X256856Y282906D01*
X256856Y283008D01*
X256860Y283109D01*
X256868Y283210D01*
X256880Y283310D01*
X256896Y283410D01*
X256915Y283510D01*
X256939Y283608D01*
X256966Y283706D01*
X256997Y283802D01*
X257031Y283897D01*
X257070Y283991D01*
X257111Y284083D01*
X257157Y284174D01*
X257206Y284263D01*
X257258Y284349D01*
X257314Y284434D01*
X257373Y284516D01*
X257435Y284596D01*
X257500Y284674D01*
X257568Y284749D01*
X257639Y284821D01*
X257712Y284891D01*
X257789Y284957D01*
X257867Y285021D01*
X257949Y285081D01*
X258032Y285138D01*
X258118Y285192D01*
X258206Y285243D01*
X258295Y285290D01*
X258387Y285334D01*
X258480Y285374D01*
X258574Y285411D01*
X258670Y285443D01*
X258767Y285472D01*
X258865Y285498D01*
X258964Y285519D01*
X259064Y285537D01*
X259164Y285550D01*
X259265Y285560D01*
X259366Y285566D01*
X259467Y285568D01*
X259467Y285567D02*
X263643Y285567D01*
X263643Y285568D02*
X263744Y285566D01*
X263845Y285560D01*
X263946Y285550D01*
X264046Y285537D01*
X264146Y285519D01*
X264245Y285498D01*
X264343Y285472D01*
X264440Y285443D01*
X264536Y285411D01*
X264630Y285374D01*
X264723Y285334D01*
X264815Y285290D01*
X264904Y285243D01*
X264992Y285192D01*
X265078Y285138D01*
X265161Y285081D01*
X265243Y285021D01*
X265321Y284957D01*
X265398Y284891D01*
X265471Y284821D01*
X265542Y284749D01*
X265610Y284674D01*
X265675Y284596D01*
X265737Y284516D01*
X265796Y284434D01*
X265852Y284349D01*
X265904Y284262D01*
X265953Y284174D01*
X265999Y284083D01*
X266040Y283991D01*
X266079Y283897D01*
X266113Y283802D01*
X266144Y283706D01*
X266171Y283608D01*
X266195Y283510D01*
X266214Y283410D01*
X266230Y283310D01*
X266242Y283210D01*
X266250Y283109D01*
X266254Y283008D01*
X266254Y282906D01*
X266250Y282805D01*
X266242Y282704D01*
X266230Y282604D01*
X266214Y282504D01*
X266195Y282404D01*
X266171Y282306D01*
X266144Y282208D01*
X266113Y282112D01*
X266079Y282017D01*
X266040Y281923D01*
X265999Y281831D01*
X265953Y281740D01*
X265904Y281652D01*
X265852Y281565D01*
X265796Y281480D01*
X265737Y281398D01*
X265675Y281318D01*
X265610Y281240D01*
X265542Y281165D01*
X265471Y281093D01*
X265398Y281023D01*
X265321Y280957D01*
X265243Y280893D01*
X265161Y280833D01*
X265078Y280776D01*
X264992Y280722D01*
X264904Y280671D01*
X264815Y280624D01*
X264723Y280580D01*
X264630Y280540D01*
X264536Y280503D01*
X264440Y280471D01*
X264343Y280442D01*
X264245Y280416D01*
X264146Y280395D01*
X264046Y280377D01*
X263946Y280364D01*
X263845Y280354D01*
X263744Y280348D01*
X263643Y280346D01*
X264166Y284523D02*
X266254Y286611D01*
X259206Y294500D02*
X259111Y294498D01*
X259017Y294492D01*
X258923Y294483D01*
X258829Y294470D01*
X258736Y294453D01*
X258644Y294432D01*
X258552Y294407D01*
X258462Y294379D01*
X258373Y294347D01*
X258285Y294312D01*
X258199Y294273D01*
X258114Y294231D01*
X258031Y294185D01*
X257950Y294136D01*
X257871Y294084D01*
X257794Y294029D01*
X257720Y293970D01*
X257648Y293909D01*
X257578Y293845D01*
X257511Y293778D01*
X257447Y293708D01*
X257386Y293636D01*
X257327Y293562D01*
X257272Y293485D01*
X257220Y293406D01*
X257171Y293325D01*
X257125Y293242D01*
X257083Y293157D01*
X257044Y293071D01*
X257009Y292983D01*
X256977Y292894D01*
X256949Y292804D01*
X256924Y292712D01*
X256903Y292620D01*
X256886Y292527D01*
X256873Y292433D01*
X256864Y292339D01*
X256858Y292245D01*
X256856Y292150D01*
X256858Y292042D01*
X256864Y291933D01*
X256874Y291825D01*
X256887Y291718D01*
X256905Y291611D01*
X256926Y291504D01*
X256951Y291399D01*
X256980Y291294D01*
X257012Y291191D01*
X257049Y291089D01*
X257089Y290988D01*
X257132Y290889D01*
X257179Y290791D01*
X257230Y290695D01*
X257284Y290601D01*
X257341Y290509D01*
X257402Y290419D01*
X257466Y290331D01*
X257532Y290246D01*
X257602Y290163D01*
X257675Y290083D01*
X257751Y290005D01*
X257829Y289930D01*
X257910Y289858D01*
X257994Y289789D01*
X258080Y289723D01*
X258168Y289660D01*
X258259Y289601D01*
X258351Y289544D01*
X258446Y289491D01*
X258543Y289442D01*
X258641Y289396D01*
X258740Y289353D01*
X258842Y289314D01*
X258944Y289279D01*
X261034Y293716D02*
X260965Y293785D01*
X260894Y293851D01*
X260821Y293915D01*
X260745Y293976D01*
X260666Y294034D01*
X260586Y294088D01*
X260503Y294140D01*
X260419Y294188D01*
X260333Y294234D01*
X260245Y294275D01*
X260155Y294314D01*
X260064Y294349D01*
X259972Y294380D01*
X259879Y294408D01*
X259785Y294432D01*
X259690Y294452D01*
X259594Y294469D01*
X259497Y294482D01*
X259400Y294491D01*
X259303Y294497D01*
X259206Y294499D01*
X261033Y293716D02*
X266254Y289278D01*
X266254Y294499D01*
X437261Y317821D02*
X446659Y317821D01*
X437261Y317821D02*
X437261Y320432D01*
X437263Y320533D01*
X437269Y320634D01*
X437279Y320735D01*
X437292Y320835D01*
X437310Y320935D01*
X437331Y321034D01*
X437357Y321132D01*
X437386Y321229D01*
X437418Y321325D01*
X437455Y321419D01*
X437495Y321512D01*
X437539Y321604D01*
X437586Y321693D01*
X437637Y321781D01*
X437691Y321867D01*
X437748Y321950D01*
X437808Y322032D01*
X437872Y322110D01*
X437938Y322187D01*
X438008Y322260D01*
X438080Y322331D01*
X438155Y322399D01*
X438233Y322464D01*
X438313Y322526D01*
X438395Y322585D01*
X438480Y322641D01*
X438567Y322693D01*
X438655Y322742D01*
X438746Y322788D01*
X438838Y322829D01*
X438932Y322868D01*
X439027Y322902D01*
X439123Y322933D01*
X439221Y322960D01*
X439319Y322984D01*
X439419Y323003D01*
X439519Y323019D01*
X439619Y323031D01*
X439720Y323039D01*
X439821Y323043D01*
X439923Y323043D01*
X440024Y323039D01*
X440125Y323031D01*
X440225Y323019D01*
X440325Y323003D01*
X440425Y322984D01*
X440523Y322960D01*
X440621Y322933D01*
X440717Y322902D01*
X440812Y322868D01*
X440906Y322829D01*
X440998Y322788D01*
X441089Y322742D01*
X441178Y322693D01*
X441264Y322641D01*
X441349Y322585D01*
X441431Y322526D01*
X441511Y322464D01*
X441589Y322399D01*
X441664Y322331D01*
X441736Y322260D01*
X441806Y322187D01*
X441872Y322110D01*
X441936Y322032D01*
X441996Y321950D01*
X442053Y321867D01*
X442107Y321781D01*
X442158Y321693D01*
X442205Y321604D01*
X442249Y321512D01*
X442289Y321419D01*
X442326Y321325D01*
X442358Y321229D01*
X442387Y321132D01*
X442413Y321034D01*
X442434Y320935D01*
X442452Y320835D01*
X442465Y320735D01*
X442475Y320634D01*
X442481Y320533D01*
X442483Y320432D01*
X442482Y320432D02*
X442482Y317821D01*
X442482Y320954D02*
X446659Y323042D01*
X438305Y326908D02*
X437261Y326908D01*
X437261Y332129D01*
X446659Y329518D01*
X390657Y329697D02*
X381259Y329697D01*
X381259Y332308D01*
X381261Y332409D01*
X381267Y332510D01*
X381277Y332611D01*
X381290Y332711D01*
X381308Y332811D01*
X381329Y332910D01*
X381355Y333008D01*
X381384Y333105D01*
X381416Y333201D01*
X381453Y333295D01*
X381493Y333388D01*
X381537Y333480D01*
X381584Y333569D01*
X381635Y333657D01*
X381689Y333743D01*
X381746Y333826D01*
X381806Y333908D01*
X381870Y333986D01*
X381936Y334063D01*
X382006Y334136D01*
X382078Y334207D01*
X382153Y334275D01*
X382231Y334340D01*
X382311Y334402D01*
X382393Y334461D01*
X382478Y334517D01*
X382565Y334569D01*
X382653Y334618D01*
X382744Y334664D01*
X382836Y334705D01*
X382930Y334744D01*
X383025Y334778D01*
X383121Y334809D01*
X383219Y334836D01*
X383317Y334860D01*
X383417Y334879D01*
X383517Y334895D01*
X383617Y334907D01*
X383718Y334915D01*
X383819Y334919D01*
X383921Y334919D01*
X384022Y334915D01*
X384123Y334907D01*
X384223Y334895D01*
X384323Y334879D01*
X384423Y334860D01*
X384521Y334836D01*
X384619Y334809D01*
X384715Y334778D01*
X384810Y334744D01*
X384904Y334705D01*
X384996Y334664D01*
X385087Y334618D01*
X385176Y334569D01*
X385262Y334517D01*
X385347Y334461D01*
X385429Y334402D01*
X385509Y334340D01*
X385587Y334275D01*
X385662Y334207D01*
X385734Y334136D01*
X385804Y334063D01*
X385870Y333986D01*
X385934Y333908D01*
X385994Y333826D01*
X386051Y333743D01*
X386105Y333657D01*
X386156Y333569D01*
X386203Y333480D01*
X386247Y333388D01*
X386287Y333295D01*
X386324Y333201D01*
X386356Y333105D01*
X386385Y333008D01*
X386411Y332910D01*
X386432Y332811D01*
X386450Y332711D01*
X386463Y332611D01*
X386473Y332510D01*
X386479Y332409D01*
X386481Y332308D01*
X386480Y332308D02*
X386480Y329697D01*
X386480Y332830D02*
X390657Y334918D01*
X388047Y338784D02*
X387946Y338786D01*
X387845Y338792D01*
X387744Y338802D01*
X387644Y338815D01*
X387544Y338833D01*
X387445Y338854D01*
X387347Y338880D01*
X387250Y338909D01*
X387154Y338941D01*
X387060Y338978D01*
X386967Y339018D01*
X386875Y339062D01*
X386786Y339109D01*
X386698Y339160D01*
X386612Y339214D01*
X386529Y339271D01*
X386447Y339331D01*
X386369Y339395D01*
X386292Y339461D01*
X386219Y339531D01*
X386148Y339603D01*
X386080Y339678D01*
X386015Y339756D01*
X385953Y339836D01*
X385894Y339918D01*
X385838Y340003D01*
X385786Y340090D01*
X385737Y340178D01*
X385691Y340269D01*
X385650Y340361D01*
X385611Y340455D01*
X385577Y340550D01*
X385546Y340646D01*
X385519Y340744D01*
X385495Y340842D01*
X385476Y340942D01*
X385460Y341042D01*
X385448Y341142D01*
X385440Y341243D01*
X385436Y341344D01*
X385436Y341446D01*
X385440Y341547D01*
X385448Y341648D01*
X385460Y341748D01*
X385476Y341848D01*
X385495Y341948D01*
X385519Y342046D01*
X385546Y342144D01*
X385577Y342240D01*
X385611Y342335D01*
X385650Y342429D01*
X385691Y342521D01*
X385737Y342612D01*
X385786Y342701D01*
X385838Y342787D01*
X385894Y342872D01*
X385953Y342954D01*
X386015Y343034D01*
X386080Y343112D01*
X386148Y343187D01*
X386219Y343259D01*
X386292Y343329D01*
X386369Y343395D01*
X386447Y343459D01*
X386529Y343519D01*
X386612Y343576D01*
X386698Y343630D01*
X386786Y343681D01*
X386875Y343728D01*
X386967Y343772D01*
X387060Y343812D01*
X387154Y343849D01*
X387250Y343881D01*
X387347Y343910D01*
X387445Y343936D01*
X387544Y343957D01*
X387644Y343975D01*
X387744Y343988D01*
X387845Y343998D01*
X387946Y344004D01*
X388047Y344006D01*
X388148Y344004D01*
X388249Y343998D01*
X388350Y343988D01*
X388450Y343975D01*
X388550Y343957D01*
X388649Y343936D01*
X388747Y343910D01*
X388844Y343881D01*
X388940Y343849D01*
X389034Y343812D01*
X389127Y343772D01*
X389219Y343728D01*
X389308Y343681D01*
X389396Y343630D01*
X389482Y343576D01*
X389565Y343519D01*
X389647Y343459D01*
X389725Y343395D01*
X389802Y343329D01*
X389875Y343259D01*
X389946Y343187D01*
X390014Y343112D01*
X390079Y343034D01*
X390141Y342954D01*
X390200Y342872D01*
X390256Y342787D01*
X390308Y342700D01*
X390357Y342612D01*
X390403Y342521D01*
X390444Y342429D01*
X390483Y342335D01*
X390517Y342240D01*
X390548Y342144D01*
X390575Y342046D01*
X390599Y341948D01*
X390618Y341848D01*
X390634Y341748D01*
X390646Y341648D01*
X390654Y341547D01*
X390658Y341446D01*
X390658Y341344D01*
X390654Y341243D01*
X390646Y341142D01*
X390634Y341042D01*
X390618Y340942D01*
X390599Y340842D01*
X390575Y340744D01*
X390548Y340646D01*
X390517Y340550D01*
X390483Y340455D01*
X390444Y340361D01*
X390403Y340269D01*
X390357Y340178D01*
X390308Y340090D01*
X390256Y340003D01*
X390200Y339918D01*
X390141Y339836D01*
X390079Y339756D01*
X390014Y339678D01*
X389946Y339603D01*
X389875Y339531D01*
X389802Y339461D01*
X389725Y339395D01*
X389647Y339331D01*
X389565Y339271D01*
X389482Y339214D01*
X389396Y339160D01*
X389308Y339109D01*
X389219Y339062D01*
X389127Y339018D01*
X389034Y338978D01*
X388940Y338941D01*
X388844Y338909D01*
X388747Y338880D01*
X388649Y338854D01*
X388550Y338833D01*
X388450Y338815D01*
X388350Y338802D01*
X388249Y338792D01*
X388148Y338786D01*
X388047Y338784D01*
X383348Y339307D02*
X383258Y339309D01*
X383169Y339315D01*
X383079Y339324D01*
X382990Y339338D01*
X382902Y339355D01*
X382815Y339376D01*
X382728Y339401D01*
X382643Y339430D01*
X382559Y339462D01*
X382477Y339497D01*
X382396Y339537D01*
X382317Y339579D01*
X382240Y339625D01*
X382165Y339675D01*
X382092Y339727D01*
X382021Y339783D01*
X381953Y339841D01*
X381888Y339903D01*
X381825Y339967D01*
X381765Y340034D01*
X381708Y340103D01*
X381654Y340175D01*
X381603Y340249D01*
X381555Y340325D01*
X381511Y340403D01*
X381470Y340483D01*
X381432Y340565D01*
X381398Y340648D01*
X381368Y340733D01*
X381341Y340819D01*
X381318Y340905D01*
X381299Y340993D01*
X381284Y341082D01*
X381272Y341171D01*
X381264Y341260D01*
X381260Y341350D01*
X381260Y341440D01*
X381264Y341530D01*
X381272Y341619D01*
X381284Y341708D01*
X381299Y341797D01*
X381318Y341885D01*
X381341Y341971D01*
X381368Y342057D01*
X381398Y342142D01*
X381432Y342225D01*
X381470Y342307D01*
X381511Y342387D01*
X381555Y342465D01*
X381603Y342541D01*
X381654Y342615D01*
X381708Y342687D01*
X381765Y342756D01*
X381825Y342823D01*
X381888Y342887D01*
X381953Y342949D01*
X382021Y343007D01*
X382092Y343063D01*
X382165Y343115D01*
X382240Y343165D01*
X382317Y343211D01*
X382396Y343253D01*
X382477Y343293D01*
X382559Y343328D01*
X382643Y343360D01*
X382728Y343389D01*
X382815Y343414D01*
X382902Y343435D01*
X382990Y343452D01*
X383079Y343466D01*
X383169Y343475D01*
X383258Y343481D01*
X383348Y343483D01*
X383438Y343481D01*
X383527Y343475D01*
X383617Y343466D01*
X383706Y343452D01*
X383794Y343435D01*
X383881Y343414D01*
X383968Y343389D01*
X384053Y343360D01*
X384137Y343328D01*
X384219Y343293D01*
X384300Y343253D01*
X384379Y343211D01*
X384456Y343165D01*
X384531Y343115D01*
X384604Y343063D01*
X384675Y343007D01*
X384743Y342949D01*
X384808Y342887D01*
X384871Y342823D01*
X384931Y342756D01*
X384988Y342687D01*
X385042Y342615D01*
X385093Y342541D01*
X385141Y342465D01*
X385185Y342387D01*
X385226Y342307D01*
X385264Y342225D01*
X385298Y342142D01*
X385328Y342057D01*
X385355Y341971D01*
X385378Y341885D01*
X385397Y341797D01*
X385412Y341708D01*
X385424Y341619D01*
X385432Y341530D01*
X385436Y341440D01*
X385436Y341350D01*
X385432Y341260D01*
X385424Y341171D01*
X385412Y341082D01*
X385397Y340993D01*
X385378Y340905D01*
X385355Y340819D01*
X385328Y340733D01*
X385298Y340648D01*
X385264Y340565D01*
X385226Y340483D01*
X385185Y340403D01*
X385141Y340325D01*
X385093Y340249D01*
X385042Y340175D01*
X384988Y340103D01*
X384931Y340034D01*
X384871Y339967D01*
X384808Y339903D01*
X384743Y339841D01*
X384675Y339783D01*
X384604Y339727D01*
X384531Y339675D01*
X384456Y339625D01*
X384379Y339579D01*
X384300Y339537D01*
X384219Y339497D01*
X384137Y339462D01*
X384053Y339430D01*
X383968Y339401D01*
X383881Y339376D01*
X383794Y339355D01*
X383706Y339338D01*
X383617Y339324D01*
X383527Y339315D01*
X383438Y339309D01*
X383348Y339307D01*
D123*
X372070Y361910D02*
X369570Y361910D01*
X367070Y361910D01*
X369570Y361910D02*
X372070Y356910D01*
X367070Y356910D02*
X369570Y361910D01*
X367070Y356910D02*
X372070Y356910D01*
X374570Y346910D02*
X364570Y346910D01*
X364570Y371910D01*
X374570Y371910D01*
X374570Y346910D01*
D122*
X374029Y328164D02*
X364631Y328164D01*
X364631Y330775D01*
X364633Y330875D01*
X364639Y330975D01*
X364648Y331074D01*
X364662Y331174D01*
X364679Y331272D01*
X364700Y331370D01*
X364724Y331467D01*
X364753Y331563D01*
X364785Y331658D01*
X364820Y331751D01*
X364859Y331843D01*
X364902Y331934D01*
X364948Y332022D01*
X364998Y332109D01*
X365050Y332194D01*
X365106Y332277D01*
X365165Y332358D01*
X365228Y332436D01*
X365293Y332512D01*
X365361Y332586D01*
X365431Y332656D01*
X365505Y332724D01*
X365581Y332789D01*
X365659Y332852D01*
X365740Y332911D01*
X365823Y332967D01*
X365908Y333019D01*
X365995Y333069D01*
X366083Y333115D01*
X366174Y333158D01*
X366266Y333197D01*
X366359Y333232D01*
X366454Y333264D01*
X366550Y333293D01*
X366647Y333317D01*
X366745Y333338D01*
X366843Y333355D01*
X366943Y333369D01*
X367042Y333378D01*
X367142Y333384D01*
X367242Y333386D01*
X367242Y333385D02*
X371418Y333385D01*
X371418Y333386D02*
X371518Y333384D01*
X371618Y333378D01*
X371717Y333369D01*
X371817Y333355D01*
X371915Y333338D01*
X372013Y333317D01*
X372110Y333293D01*
X372206Y333264D01*
X372301Y333232D01*
X372394Y333197D01*
X372486Y333158D01*
X372577Y333115D01*
X372665Y333069D01*
X372752Y333019D01*
X372837Y332967D01*
X372920Y332911D01*
X373001Y332852D01*
X373079Y332789D01*
X373155Y332724D01*
X373229Y332656D01*
X373299Y332586D01*
X373367Y332512D01*
X373432Y332436D01*
X373495Y332358D01*
X373554Y332277D01*
X373610Y332194D01*
X373662Y332109D01*
X373712Y332022D01*
X373758Y331934D01*
X373801Y331843D01*
X373840Y331751D01*
X373875Y331658D01*
X373907Y331563D01*
X373936Y331467D01*
X373960Y331370D01*
X373981Y331272D01*
X373998Y331174D01*
X374012Y331074D01*
X374021Y330975D01*
X374027Y330875D01*
X374029Y330775D01*
X374029Y328164D01*
X364631Y340485D02*
X364633Y340580D01*
X364639Y340674D01*
X364648Y340768D01*
X364661Y340862D01*
X364678Y340955D01*
X364699Y341047D01*
X364724Y341139D01*
X364752Y341229D01*
X364784Y341318D01*
X364819Y341406D01*
X364858Y341492D01*
X364900Y341577D01*
X364946Y341660D01*
X364995Y341741D01*
X365047Y341820D01*
X365102Y341897D01*
X365161Y341971D01*
X365222Y342043D01*
X365286Y342113D01*
X365353Y342180D01*
X365423Y342244D01*
X365495Y342305D01*
X365569Y342364D01*
X365646Y342419D01*
X365725Y342471D01*
X365806Y342520D01*
X365889Y342566D01*
X365974Y342608D01*
X366060Y342647D01*
X366148Y342682D01*
X366237Y342714D01*
X366327Y342742D01*
X366419Y342767D01*
X366511Y342788D01*
X366604Y342805D01*
X366698Y342818D01*
X366792Y342827D01*
X366886Y342833D01*
X366981Y342835D01*
X364631Y340485D02*
X364633Y340377D01*
X364639Y340268D01*
X364649Y340160D01*
X364662Y340053D01*
X364680Y339946D01*
X364701Y339839D01*
X364726Y339734D01*
X364755Y339629D01*
X364787Y339526D01*
X364824Y339424D01*
X364864Y339323D01*
X364907Y339224D01*
X364954Y339126D01*
X365005Y339030D01*
X365059Y338936D01*
X365116Y338844D01*
X365177Y338754D01*
X365241Y338666D01*
X365307Y338581D01*
X365377Y338498D01*
X365450Y338418D01*
X365526Y338340D01*
X365604Y338265D01*
X365685Y338193D01*
X365769Y338124D01*
X365855Y338058D01*
X365943Y337995D01*
X366034Y337936D01*
X366126Y337879D01*
X366221Y337826D01*
X366318Y337777D01*
X366416Y337731D01*
X366515Y337688D01*
X366617Y337649D01*
X366719Y337614D01*
X368809Y342051D02*
X368740Y342120D01*
X368669Y342186D01*
X368596Y342250D01*
X368520Y342311D01*
X368441Y342369D01*
X368361Y342423D01*
X368278Y342475D01*
X368194Y342523D01*
X368108Y342569D01*
X368020Y342610D01*
X367930Y342649D01*
X367839Y342684D01*
X367747Y342715D01*
X367654Y342743D01*
X367560Y342767D01*
X367465Y342787D01*
X367369Y342804D01*
X367272Y342817D01*
X367175Y342826D01*
X367078Y342832D01*
X366981Y342834D01*
X368808Y342051D02*
X374029Y337613D01*
X374029Y342834D01*
D11*
X421894Y473710D02*
X421894Y487680D01*
X421894Y412750D02*
X271526Y412750D01*
X271526Y430530D01*
X271526Y487680D02*
X421894Y487680D01*
X421894Y421640D02*
X426974Y420370D01*
X421894Y421640D02*
X421894Y412750D01*
X426974Y420370D02*
X426974Y431800D01*
X421894Y430530D01*
X421894Y421640D01*
X421894Y430530D02*
X271526Y430530D01*
X271526Y473710D01*
X421894Y473710D01*
X421894Y430530D01*
X271526Y473710D02*
X271526Y487680D01*
X341630Y421640D02*
X341632Y421782D01*
X341638Y421925D01*
X341648Y422067D01*
X341662Y422209D01*
X341680Y422350D01*
X341702Y422491D01*
X341728Y422631D01*
X341757Y422770D01*
X341791Y422909D01*
X341829Y423046D01*
X341870Y423183D01*
X341915Y423318D01*
X341964Y423452D01*
X342017Y423584D01*
X342073Y423715D01*
X342133Y423844D01*
X342197Y423972D01*
X342264Y424097D01*
X342335Y424221D01*
X342409Y424343D01*
X342486Y424462D01*
X342567Y424580D01*
X342651Y424695D01*
X342738Y424807D01*
X342829Y424917D01*
X342922Y425025D01*
X343019Y425130D01*
X343118Y425232D01*
X343220Y425331D01*
X343325Y425428D01*
X343433Y425521D01*
X343543Y425612D01*
X343655Y425699D01*
X343770Y425783D01*
X343888Y425864D01*
X344007Y425941D01*
X344129Y426015D01*
X344253Y426086D01*
X344378Y426153D01*
X344506Y426217D01*
X344635Y426277D01*
X344766Y426333D01*
X344898Y426386D01*
X345032Y426435D01*
X345167Y426480D01*
X345304Y426521D01*
X345441Y426559D01*
X345580Y426593D01*
X345719Y426622D01*
X345859Y426648D01*
X346000Y426670D01*
X346141Y426688D01*
X346283Y426702D01*
X346425Y426712D01*
X346568Y426718D01*
X346710Y426720D01*
X346852Y426718D01*
X346995Y426712D01*
X347137Y426702D01*
X347279Y426688D01*
X347420Y426670D01*
X347561Y426648D01*
X347701Y426622D01*
X347840Y426593D01*
X347979Y426559D01*
X348116Y426521D01*
X348253Y426480D01*
X348388Y426435D01*
X348522Y426386D01*
X348654Y426333D01*
X348785Y426277D01*
X348914Y426217D01*
X349042Y426153D01*
X349167Y426086D01*
X349291Y426015D01*
X349413Y425941D01*
X349532Y425864D01*
X349650Y425783D01*
X349765Y425699D01*
X349877Y425612D01*
X349987Y425521D01*
X350095Y425428D01*
X350200Y425331D01*
X350302Y425232D01*
X350401Y425130D01*
X350498Y425025D01*
X350591Y424917D01*
X350682Y424807D01*
X350769Y424695D01*
X350853Y424580D01*
X350934Y424462D01*
X351011Y424343D01*
X351085Y424221D01*
X351156Y424097D01*
X351223Y423972D01*
X351287Y423844D01*
X351347Y423715D01*
X351403Y423584D01*
X351456Y423452D01*
X351505Y423318D01*
X351550Y423183D01*
X351591Y423046D01*
X351629Y422909D01*
X351663Y422770D01*
X351692Y422631D01*
X351718Y422491D01*
X351740Y422350D01*
X351758Y422209D01*
X351772Y422067D01*
X351782Y421925D01*
X351788Y421782D01*
X351790Y421640D01*
X351788Y421498D01*
X351782Y421355D01*
X351772Y421213D01*
X351758Y421071D01*
X351740Y420930D01*
X351718Y420789D01*
X351692Y420649D01*
X351663Y420510D01*
X351629Y420371D01*
X351591Y420234D01*
X351550Y420097D01*
X351505Y419962D01*
X351456Y419828D01*
X351403Y419696D01*
X351347Y419565D01*
X351287Y419436D01*
X351223Y419308D01*
X351156Y419183D01*
X351085Y419059D01*
X351011Y418937D01*
X350934Y418818D01*
X350853Y418700D01*
X350769Y418585D01*
X350682Y418473D01*
X350591Y418363D01*
X350498Y418255D01*
X350401Y418150D01*
X350302Y418048D01*
X350200Y417949D01*
X350095Y417852D01*
X349987Y417759D01*
X349877Y417668D01*
X349765Y417581D01*
X349650Y417497D01*
X349532Y417416D01*
X349413Y417339D01*
X349291Y417265D01*
X349167Y417194D01*
X349042Y417127D01*
X348914Y417063D01*
X348785Y417003D01*
X348654Y416947D01*
X348522Y416894D01*
X348388Y416845D01*
X348253Y416800D01*
X348116Y416759D01*
X347979Y416721D01*
X347840Y416687D01*
X347701Y416658D01*
X347561Y416632D01*
X347420Y416610D01*
X347279Y416592D01*
X347137Y416578D01*
X346995Y416568D01*
X346852Y416562D01*
X346710Y416560D01*
X346568Y416562D01*
X346425Y416568D01*
X346283Y416578D01*
X346141Y416592D01*
X346000Y416610D01*
X345859Y416632D01*
X345719Y416658D01*
X345580Y416687D01*
X345441Y416721D01*
X345304Y416759D01*
X345167Y416800D01*
X345032Y416845D01*
X344898Y416894D01*
X344766Y416947D01*
X344635Y417003D01*
X344506Y417063D01*
X344378Y417127D01*
X344253Y417194D01*
X344129Y417265D01*
X344007Y417339D01*
X343888Y417416D01*
X343770Y417497D01*
X343655Y417581D01*
X343543Y417668D01*
X343433Y417759D01*
X343325Y417852D01*
X343220Y417949D01*
X343118Y418048D01*
X343019Y418150D01*
X342922Y418255D01*
X342829Y418363D01*
X342738Y418473D01*
X342651Y418585D01*
X342567Y418700D01*
X342486Y418818D01*
X342409Y418937D01*
X342335Y419059D01*
X342264Y419183D01*
X342197Y419308D01*
X342133Y419436D01*
X342073Y419565D01*
X342017Y419696D01*
X341964Y419828D01*
X341915Y419962D01*
X341870Y420097D01*
X341829Y420234D01*
X341791Y420371D01*
X341757Y420510D01*
X341728Y420649D01*
X341702Y420789D01*
X341680Y420930D01*
X341662Y421071D01*
X341648Y421213D01*
X341638Y421355D01*
X341632Y421498D01*
X341630Y421640D01*
X391668Y421640D02*
X391670Y421782D01*
X391676Y421925D01*
X391686Y422067D01*
X391700Y422209D01*
X391718Y422350D01*
X391740Y422491D01*
X391766Y422631D01*
X391795Y422770D01*
X391829Y422909D01*
X391867Y423046D01*
X391908Y423183D01*
X391953Y423318D01*
X392002Y423452D01*
X392055Y423584D01*
X392111Y423715D01*
X392171Y423844D01*
X392235Y423972D01*
X392302Y424097D01*
X392373Y424221D01*
X392447Y424343D01*
X392524Y424462D01*
X392605Y424580D01*
X392689Y424695D01*
X392776Y424807D01*
X392867Y424917D01*
X392960Y425025D01*
X393057Y425130D01*
X393156Y425232D01*
X393258Y425331D01*
X393363Y425428D01*
X393471Y425521D01*
X393581Y425612D01*
X393693Y425699D01*
X393808Y425783D01*
X393926Y425864D01*
X394045Y425941D01*
X394167Y426015D01*
X394291Y426086D01*
X394416Y426153D01*
X394544Y426217D01*
X394673Y426277D01*
X394804Y426333D01*
X394936Y426386D01*
X395070Y426435D01*
X395205Y426480D01*
X395342Y426521D01*
X395479Y426559D01*
X395618Y426593D01*
X395757Y426622D01*
X395897Y426648D01*
X396038Y426670D01*
X396179Y426688D01*
X396321Y426702D01*
X396463Y426712D01*
X396606Y426718D01*
X396748Y426720D01*
X396890Y426718D01*
X397033Y426712D01*
X397175Y426702D01*
X397317Y426688D01*
X397458Y426670D01*
X397599Y426648D01*
X397739Y426622D01*
X397878Y426593D01*
X398017Y426559D01*
X398154Y426521D01*
X398291Y426480D01*
X398426Y426435D01*
X398560Y426386D01*
X398692Y426333D01*
X398823Y426277D01*
X398952Y426217D01*
X399080Y426153D01*
X399205Y426086D01*
X399329Y426015D01*
X399451Y425941D01*
X399570Y425864D01*
X399688Y425783D01*
X399803Y425699D01*
X399915Y425612D01*
X400025Y425521D01*
X400133Y425428D01*
X400238Y425331D01*
X400340Y425232D01*
X400439Y425130D01*
X400536Y425025D01*
X400629Y424917D01*
X400720Y424807D01*
X400807Y424695D01*
X400891Y424580D01*
X400972Y424462D01*
X401049Y424343D01*
X401123Y424221D01*
X401194Y424097D01*
X401261Y423972D01*
X401325Y423844D01*
X401385Y423715D01*
X401441Y423584D01*
X401494Y423452D01*
X401543Y423318D01*
X401588Y423183D01*
X401629Y423046D01*
X401667Y422909D01*
X401701Y422770D01*
X401730Y422631D01*
X401756Y422491D01*
X401778Y422350D01*
X401796Y422209D01*
X401810Y422067D01*
X401820Y421925D01*
X401826Y421782D01*
X401828Y421640D01*
X401826Y421498D01*
X401820Y421355D01*
X401810Y421213D01*
X401796Y421071D01*
X401778Y420930D01*
X401756Y420789D01*
X401730Y420649D01*
X401701Y420510D01*
X401667Y420371D01*
X401629Y420234D01*
X401588Y420097D01*
X401543Y419962D01*
X401494Y419828D01*
X401441Y419696D01*
X401385Y419565D01*
X401325Y419436D01*
X401261Y419308D01*
X401194Y419183D01*
X401123Y419059D01*
X401049Y418937D01*
X400972Y418818D01*
X400891Y418700D01*
X400807Y418585D01*
X400720Y418473D01*
X400629Y418363D01*
X400536Y418255D01*
X400439Y418150D01*
X400340Y418048D01*
X400238Y417949D01*
X400133Y417852D01*
X400025Y417759D01*
X399915Y417668D01*
X399803Y417581D01*
X399688Y417497D01*
X399570Y417416D01*
X399451Y417339D01*
X399329Y417265D01*
X399205Y417194D01*
X399080Y417127D01*
X398952Y417063D01*
X398823Y417003D01*
X398692Y416947D01*
X398560Y416894D01*
X398426Y416845D01*
X398291Y416800D01*
X398154Y416759D01*
X398017Y416721D01*
X397878Y416687D01*
X397739Y416658D01*
X397599Y416632D01*
X397458Y416610D01*
X397317Y416592D01*
X397175Y416578D01*
X397033Y416568D01*
X396890Y416562D01*
X396748Y416560D01*
X396606Y416562D01*
X396463Y416568D01*
X396321Y416578D01*
X396179Y416592D01*
X396038Y416610D01*
X395897Y416632D01*
X395757Y416658D01*
X395618Y416687D01*
X395479Y416721D01*
X395342Y416759D01*
X395205Y416800D01*
X395070Y416845D01*
X394936Y416894D01*
X394804Y416947D01*
X394673Y417003D01*
X394544Y417063D01*
X394416Y417127D01*
X394291Y417194D01*
X394167Y417265D01*
X394045Y417339D01*
X393926Y417416D01*
X393808Y417497D01*
X393693Y417581D01*
X393581Y417668D01*
X393471Y417759D01*
X393363Y417852D01*
X393258Y417949D01*
X393156Y418048D01*
X393057Y418150D01*
X392960Y418255D01*
X392867Y418363D01*
X392776Y418473D01*
X392689Y418585D01*
X392605Y418700D01*
X392524Y418818D01*
X392447Y418937D01*
X392373Y419059D01*
X392302Y419183D01*
X392235Y419308D01*
X392171Y419436D01*
X392111Y419565D01*
X392055Y419696D01*
X392002Y419828D01*
X391953Y419962D01*
X391908Y420097D01*
X391867Y420234D01*
X391829Y420371D01*
X391795Y420510D01*
X391766Y420649D01*
X391740Y420789D01*
X391718Y420930D01*
X391700Y421071D01*
X391686Y421213D01*
X391676Y421355D01*
X391670Y421498D01*
X391668Y421640D01*
X291592Y421640D02*
X291594Y421782D01*
X291600Y421925D01*
X291610Y422067D01*
X291624Y422209D01*
X291642Y422350D01*
X291664Y422491D01*
X291690Y422631D01*
X291719Y422770D01*
X291753Y422909D01*
X291791Y423046D01*
X291832Y423183D01*
X291877Y423318D01*
X291926Y423452D01*
X291979Y423584D01*
X292035Y423715D01*
X292095Y423844D01*
X292159Y423972D01*
X292226Y424097D01*
X292297Y424221D01*
X292371Y424343D01*
X292448Y424462D01*
X292529Y424580D01*
X292613Y424695D01*
X292700Y424807D01*
X292791Y424917D01*
X292884Y425025D01*
X292981Y425130D01*
X293080Y425232D01*
X293182Y425331D01*
X293287Y425428D01*
X293395Y425521D01*
X293505Y425612D01*
X293617Y425699D01*
X293732Y425783D01*
X293850Y425864D01*
X293969Y425941D01*
X294091Y426015D01*
X294215Y426086D01*
X294340Y426153D01*
X294468Y426217D01*
X294597Y426277D01*
X294728Y426333D01*
X294860Y426386D01*
X294994Y426435D01*
X295129Y426480D01*
X295266Y426521D01*
X295403Y426559D01*
X295542Y426593D01*
X295681Y426622D01*
X295821Y426648D01*
X295962Y426670D01*
X296103Y426688D01*
X296245Y426702D01*
X296387Y426712D01*
X296530Y426718D01*
X296672Y426720D01*
X296814Y426718D01*
X296957Y426712D01*
X297099Y426702D01*
X297241Y426688D01*
X297382Y426670D01*
X297523Y426648D01*
X297663Y426622D01*
X297802Y426593D01*
X297941Y426559D01*
X298078Y426521D01*
X298215Y426480D01*
X298350Y426435D01*
X298484Y426386D01*
X298616Y426333D01*
X298747Y426277D01*
X298876Y426217D01*
X299004Y426153D01*
X299129Y426086D01*
X299253Y426015D01*
X299375Y425941D01*
X299494Y425864D01*
X299612Y425783D01*
X299727Y425699D01*
X299839Y425612D01*
X299949Y425521D01*
X300057Y425428D01*
X300162Y425331D01*
X300264Y425232D01*
X300363Y425130D01*
X300460Y425025D01*
X300553Y424917D01*
X300644Y424807D01*
X300731Y424695D01*
X300815Y424580D01*
X300896Y424462D01*
X300973Y424343D01*
X301047Y424221D01*
X301118Y424097D01*
X301185Y423972D01*
X301249Y423844D01*
X301309Y423715D01*
X301365Y423584D01*
X301418Y423452D01*
X301467Y423318D01*
X301512Y423183D01*
X301553Y423046D01*
X301591Y422909D01*
X301625Y422770D01*
X301654Y422631D01*
X301680Y422491D01*
X301702Y422350D01*
X301720Y422209D01*
X301734Y422067D01*
X301744Y421925D01*
X301750Y421782D01*
X301752Y421640D01*
X301750Y421498D01*
X301744Y421355D01*
X301734Y421213D01*
X301720Y421071D01*
X301702Y420930D01*
X301680Y420789D01*
X301654Y420649D01*
X301625Y420510D01*
X301591Y420371D01*
X301553Y420234D01*
X301512Y420097D01*
X301467Y419962D01*
X301418Y419828D01*
X301365Y419696D01*
X301309Y419565D01*
X301249Y419436D01*
X301185Y419308D01*
X301118Y419183D01*
X301047Y419059D01*
X300973Y418937D01*
X300896Y418818D01*
X300815Y418700D01*
X300731Y418585D01*
X300644Y418473D01*
X300553Y418363D01*
X300460Y418255D01*
X300363Y418150D01*
X300264Y418048D01*
X300162Y417949D01*
X300057Y417852D01*
X299949Y417759D01*
X299839Y417668D01*
X299727Y417581D01*
X299612Y417497D01*
X299494Y417416D01*
X299375Y417339D01*
X299253Y417265D01*
X299129Y417194D01*
X299004Y417127D01*
X298876Y417063D01*
X298747Y417003D01*
X298616Y416947D01*
X298484Y416894D01*
X298350Y416845D01*
X298215Y416800D01*
X298078Y416759D01*
X297941Y416721D01*
X297802Y416687D01*
X297663Y416658D01*
X297523Y416632D01*
X297382Y416610D01*
X297241Y416592D01*
X297099Y416578D01*
X296957Y416568D01*
X296814Y416562D01*
X296672Y416560D01*
X296530Y416562D01*
X296387Y416568D01*
X296245Y416578D01*
X296103Y416592D01*
X295962Y416610D01*
X295821Y416632D01*
X295681Y416658D01*
X295542Y416687D01*
X295403Y416721D01*
X295266Y416759D01*
X295129Y416800D01*
X294994Y416845D01*
X294860Y416894D01*
X294728Y416947D01*
X294597Y417003D01*
X294468Y417063D01*
X294340Y417127D01*
X294215Y417194D01*
X294091Y417265D01*
X293969Y417339D01*
X293850Y417416D01*
X293732Y417497D01*
X293617Y417581D01*
X293505Y417668D01*
X293395Y417759D01*
X293287Y417852D01*
X293182Y417949D01*
X293080Y418048D01*
X292981Y418150D01*
X292884Y418255D01*
X292791Y418363D01*
X292700Y418473D01*
X292613Y418585D01*
X292529Y418700D01*
X292448Y418818D01*
X292371Y418937D01*
X292297Y419059D01*
X292226Y419183D01*
X292159Y419308D01*
X292095Y419436D01*
X292035Y419565D01*
X291979Y419696D01*
X291926Y419828D01*
X291877Y419962D01*
X291832Y420097D01*
X291791Y420234D01*
X291753Y420371D01*
X291719Y420510D01*
X291690Y420649D01*
X291664Y420789D01*
X291642Y420930D01*
X291624Y421071D01*
X291610Y421213D01*
X291600Y421355D01*
X291594Y421498D01*
X291592Y421640D01*
D123*
X408587Y424166D02*
X410986Y426085D01*
X410986Y417449D01*
X408587Y417449D02*
X413385Y417449D01*
X365125Y423926D02*
X365123Y424018D01*
X365117Y424109D01*
X365108Y424200D01*
X365094Y424291D01*
X365077Y424381D01*
X365055Y424470D01*
X365030Y424558D01*
X365002Y424645D01*
X364969Y424731D01*
X364933Y424815D01*
X364894Y424898D01*
X364851Y424979D01*
X364804Y425058D01*
X364755Y425135D01*
X364702Y425210D01*
X364646Y425282D01*
X364587Y425352D01*
X364525Y425420D01*
X364460Y425485D01*
X364392Y425547D01*
X364322Y425606D01*
X364250Y425662D01*
X364175Y425715D01*
X364098Y425764D01*
X364019Y425811D01*
X363938Y425854D01*
X363855Y425893D01*
X363771Y425929D01*
X363685Y425962D01*
X363598Y425990D01*
X363510Y426015D01*
X363421Y426037D01*
X363331Y426054D01*
X363240Y426068D01*
X363149Y426077D01*
X363058Y426083D01*
X362966Y426085D01*
X362863Y426083D01*
X362761Y426077D01*
X362659Y426068D01*
X362557Y426055D01*
X362456Y426038D01*
X362355Y426017D01*
X362256Y425993D01*
X362157Y425964D01*
X362060Y425933D01*
X361963Y425897D01*
X361868Y425859D01*
X361775Y425816D01*
X361683Y425770D01*
X361593Y425721D01*
X361505Y425669D01*
X361418Y425613D01*
X361334Y425554D01*
X361253Y425493D01*
X361173Y425428D01*
X361096Y425360D01*
X361021Y425289D01*
X360950Y425216D01*
X360881Y425140D01*
X360814Y425062D01*
X360751Y424981D01*
X360691Y424898D01*
X360634Y424813D01*
X360580Y424726D01*
X360529Y424636D01*
X360482Y424545D01*
X360438Y424453D01*
X360397Y424358D01*
X360360Y424263D01*
X360327Y424166D01*
X364405Y422247D02*
X364472Y422313D01*
X364536Y422382D01*
X364597Y422453D01*
X364655Y422527D01*
X364710Y422603D01*
X364762Y422681D01*
X364811Y422761D01*
X364857Y422843D01*
X364899Y422927D01*
X364938Y423013D01*
X364973Y423100D01*
X365004Y423188D01*
X365032Y423278D01*
X365057Y423368D01*
X365078Y423460D01*
X365095Y423552D01*
X365108Y423645D01*
X365117Y423738D01*
X365123Y423832D01*
X365125Y423926D01*
X364405Y422247D02*
X360327Y417449D01*
X365125Y417449D01*
X311926Y417449D02*
X309527Y417449D01*
X311926Y417449D02*
X312023Y417451D01*
X312119Y417457D01*
X312215Y417466D01*
X312311Y417480D01*
X312406Y417497D01*
X312500Y417519D01*
X312593Y417544D01*
X312686Y417572D01*
X312777Y417605D01*
X312866Y417641D01*
X312954Y417681D01*
X313041Y417724D01*
X313126Y417770D01*
X313208Y417820D01*
X313289Y417874D01*
X313367Y417930D01*
X313443Y417990D01*
X313517Y418052D01*
X313588Y418118D01*
X313656Y418186D01*
X313722Y418257D01*
X313784Y418331D01*
X313844Y418407D01*
X313900Y418485D01*
X313954Y418566D01*
X314004Y418649D01*
X314050Y418733D01*
X314093Y418820D01*
X314133Y418908D01*
X314169Y418997D01*
X314202Y419088D01*
X314230Y419181D01*
X314255Y419274D01*
X314277Y419368D01*
X314294Y419463D01*
X314308Y419559D01*
X314317Y419655D01*
X314323Y419751D01*
X314325Y419848D01*
X314323Y419945D01*
X314317Y420041D01*
X314308Y420137D01*
X314294Y420233D01*
X314277Y420328D01*
X314255Y420422D01*
X314230Y420515D01*
X314202Y420608D01*
X314169Y420699D01*
X314133Y420788D01*
X314093Y420876D01*
X314050Y420963D01*
X314004Y421048D01*
X313954Y421130D01*
X313900Y421211D01*
X313844Y421289D01*
X313784Y421365D01*
X313722Y421439D01*
X313656Y421510D01*
X313588Y421578D01*
X313517Y421644D01*
X313443Y421706D01*
X313367Y421766D01*
X313289Y421822D01*
X313208Y421876D01*
X313126Y421926D01*
X313041Y421972D01*
X312954Y422015D01*
X312866Y422055D01*
X312777Y422091D01*
X312686Y422124D01*
X312593Y422152D01*
X312500Y422177D01*
X312406Y422199D01*
X312311Y422216D01*
X312215Y422230D01*
X312119Y422239D01*
X312023Y422245D01*
X311926Y422247D01*
X312406Y426085D02*
X309527Y426085D01*
X312406Y426085D02*
X312492Y426083D01*
X312578Y426077D01*
X312664Y426068D01*
X312749Y426054D01*
X312833Y426037D01*
X312917Y426016D01*
X312999Y425991D01*
X313080Y425963D01*
X313160Y425931D01*
X313239Y425895D01*
X313315Y425856D01*
X313390Y425813D01*
X313463Y425768D01*
X313534Y425719D01*
X313602Y425666D01*
X313669Y425611D01*
X313732Y425553D01*
X313793Y425492D01*
X313851Y425429D01*
X313906Y425362D01*
X313959Y425294D01*
X314008Y425223D01*
X314053Y425150D01*
X314096Y425075D01*
X314135Y424999D01*
X314171Y424920D01*
X314203Y424840D01*
X314231Y424759D01*
X314256Y424677D01*
X314277Y424593D01*
X314294Y424509D01*
X314308Y424424D01*
X314317Y424338D01*
X314323Y424252D01*
X314325Y424166D01*
X314323Y424080D01*
X314317Y423994D01*
X314308Y423908D01*
X314294Y423823D01*
X314277Y423739D01*
X314256Y423655D01*
X314231Y423573D01*
X314203Y423492D01*
X314171Y423412D01*
X314135Y423333D01*
X314096Y423257D01*
X314053Y423182D01*
X314008Y423109D01*
X313959Y423038D01*
X313906Y422970D01*
X313851Y422903D01*
X313793Y422840D01*
X313732Y422779D01*
X313669Y422721D01*
X313602Y422666D01*
X313534Y422613D01*
X313463Y422564D01*
X313390Y422519D01*
X313315Y422476D01*
X313239Y422437D01*
X313160Y422401D01*
X313080Y422369D01*
X312999Y422341D01*
X312917Y422316D01*
X312833Y422295D01*
X312749Y422278D01*
X312664Y422264D01*
X312578Y422255D01*
X312492Y422249D01*
X312406Y422247D01*
X310487Y422247D01*
D126*
X371856Y452120D03*
X321564Y452120D03*
D122*
X322077Y200157D02*
X312679Y200157D01*
X312679Y202768D01*
X312681Y202869D01*
X312687Y202970D01*
X312697Y203071D01*
X312710Y203171D01*
X312728Y203271D01*
X312749Y203370D01*
X312775Y203468D01*
X312804Y203565D01*
X312836Y203661D01*
X312873Y203755D01*
X312913Y203848D01*
X312957Y203940D01*
X313004Y204029D01*
X313055Y204117D01*
X313109Y204203D01*
X313166Y204286D01*
X313226Y204368D01*
X313290Y204446D01*
X313356Y204523D01*
X313426Y204596D01*
X313498Y204667D01*
X313573Y204735D01*
X313651Y204800D01*
X313731Y204862D01*
X313813Y204921D01*
X313898Y204977D01*
X313985Y205029D01*
X314073Y205078D01*
X314164Y205124D01*
X314256Y205165D01*
X314350Y205204D01*
X314445Y205238D01*
X314541Y205269D01*
X314639Y205296D01*
X314737Y205320D01*
X314837Y205339D01*
X314937Y205355D01*
X315037Y205367D01*
X315138Y205375D01*
X315239Y205379D01*
X315341Y205379D01*
X315442Y205375D01*
X315543Y205367D01*
X315643Y205355D01*
X315743Y205339D01*
X315843Y205320D01*
X315941Y205296D01*
X316039Y205269D01*
X316135Y205238D01*
X316230Y205204D01*
X316324Y205165D01*
X316416Y205124D01*
X316507Y205078D01*
X316596Y205029D01*
X316682Y204977D01*
X316767Y204921D01*
X316849Y204862D01*
X316929Y204800D01*
X317007Y204735D01*
X317082Y204667D01*
X317154Y204596D01*
X317224Y204523D01*
X317290Y204446D01*
X317354Y204368D01*
X317414Y204286D01*
X317471Y204203D01*
X317525Y204117D01*
X317576Y204029D01*
X317623Y203940D01*
X317667Y203848D01*
X317707Y203755D01*
X317744Y203661D01*
X317776Y203565D01*
X317805Y203468D01*
X317831Y203370D01*
X317852Y203271D01*
X317870Y203171D01*
X317883Y203071D01*
X317893Y202970D01*
X317899Y202869D01*
X317901Y202768D01*
X317900Y202768D02*
X317900Y200157D01*
X317900Y203290D02*
X322077Y205378D01*
X314768Y209244D02*
X312679Y211855D01*
X322077Y211855D01*
X322077Y214465D02*
X322077Y209244D01*
X312679Y221260D02*
X312681Y221355D01*
X312687Y221449D01*
X312696Y221543D01*
X312709Y221637D01*
X312726Y221730D01*
X312747Y221822D01*
X312772Y221914D01*
X312800Y222004D01*
X312832Y222093D01*
X312867Y222181D01*
X312906Y222267D01*
X312948Y222352D01*
X312994Y222435D01*
X313043Y222516D01*
X313095Y222595D01*
X313150Y222672D01*
X313209Y222746D01*
X313270Y222818D01*
X313334Y222888D01*
X313401Y222955D01*
X313471Y223019D01*
X313543Y223080D01*
X313617Y223139D01*
X313694Y223194D01*
X313773Y223246D01*
X313854Y223295D01*
X313937Y223341D01*
X314022Y223383D01*
X314108Y223422D01*
X314196Y223457D01*
X314285Y223489D01*
X314375Y223517D01*
X314467Y223542D01*
X314559Y223563D01*
X314652Y223580D01*
X314746Y223593D01*
X314840Y223602D01*
X314934Y223608D01*
X315029Y223610D01*
X312680Y221260D02*
X312682Y221152D01*
X312688Y221043D01*
X312698Y220935D01*
X312711Y220828D01*
X312729Y220721D01*
X312750Y220614D01*
X312775Y220509D01*
X312804Y220404D01*
X312836Y220301D01*
X312873Y220199D01*
X312913Y220098D01*
X312956Y219999D01*
X313003Y219901D01*
X313054Y219805D01*
X313108Y219711D01*
X313165Y219619D01*
X313226Y219529D01*
X313290Y219441D01*
X313356Y219356D01*
X313426Y219273D01*
X313499Y219193D01*
X313575Y219115D01*
X313653Y219040D01*
X313734Y218968D01*
X313818Y218899D01*
X313904Y218833D01*
X313992Y218770D01*
X314083Y218711D01*
X314175Y218654D01*
X314270Y218601D01*
X314367Y218552D01*
X314465Y218506D01*
X314564Y218463D01*
X314666Y218424D01*
X314768Y218389D01*
X316857Y222826D02*
X316788Y222895D01*
X316717Y222961D01*
X316644Y223025D01*
X316568Y223086D01*
X316489Y223144D01*
X316409Y223198D01*
X316326Y223250D01*
X316242Y223298D01*
X316156Y223344D01*
X316068Y223385D01*
X315978Y223424D01*
X315887Y223459D01*
X315795Y223490D01*
X315702Y223518D01*
X315608Y223542D01*
X315513Y223562D01*
X315417Y223579D01*
X315320Y223592D01*
X315223Y223601D01*
X315126Y223607D01*
X315029Y223609D01*
X316856Y222826D02*
X322077Y218388D01*
X322077Y223609D01*
X349753Y330365D02*
X359151Y330365D01*
X349753Y330365D02*
X349753Y332975D01*
X349752Y332975D02*
X349754Y333076D01*
X349760Y333177D01*
X349770Y333278D01*
X349783Y333378D01*
X349801Y333478D01*
X349822Y333577D01*
X349848Y333675D01*
X349877Y333772D01*
X349909Y333868D01*
X349946Y333962D01*
X349986Y334055D01*
X350030Y334147D01*
X350077Y334236D01*
X350128Y334324D01*
X350182Y334410D01*
X350239Y334493D01*
X350299Y334575D01*
X350363Y334653D01*
X350429Y334730D01*
X350499Y334803D01*
X350571Y334874D01*
X350646Y334942D01*
X350724Y335007D01*
X350804Y335069D01*
X350886Y335128D01*
X350971Y335184D01*
X351058Y335236D01*
X351146Y335285D01*
X351237Y335331D01*
X351329Y335372D01*
X351423Y335411D01*
X351518Y335445D01*
X351614Y335476D01*
X351712Y335503D01*
X351810Y335527D01*
X351910Y335546D01*
X352010Y335562D01*
X352110Y335574D01*
X352211Y335582D01*
X352312Y335586D01*
X352414Y335586D01*
X352515Y335582D01*
X352616Y335574D01*
X352716Y335562D01*
X352816Y335546D01*
X352916Y335527D01*
X353014Y335503D01*
X353112Y335476D01*
X353208Y335445D01*
X353303Y335411D01*
X353397Y335372D01*
X353489Y335331D01*
X353580Y335285D01*
X353669Y335236D01*
X353755Y335184D01*
X353840Y335128D01*
X353922Y335069D01*
X354002Y335007D01*
X354080Y334942D01*
X354155Y334874D01*
X354227Y334803D01*
X354297Y334730D01*
X354363Y334653D01*
X354427Y334575D01*
X354487Y334493D01*
X354544Y334410D01*
X354598Y334324D01*
X354649Y334236D01*
X354696Y334147D01*
X354740Y334055D01*
X354780Y333962D01*
X354817Y333868D01*
X354849Y333772D01*
X354878Y333675D01*
X354904Y333577D01*
X354925Y333478D01*
X354943Y333378D01*
X354956Y333278D01*
X354966Y333177D01*
X354972Y333076D01*
X354974Y332975D01*
X354974Y330365D01*
X354974Y333498D02*
X359151Y335586D01*
X353930Y339452D02*
X353930Y342585D01*
X353932Y342674D01*
X353938Y342762D01*
X353947Y342850D01*
X353960Y342938D01*
X353977Y343025D01*
X353997Y343111D01*
X354022Y343196D01*
X354049Y343281D01*
X354081Y343364D01*
X354115Y343445D01*
X354154Y343525D01*
X354195Y343603D01*
X354240Y343680D01*
X354288Y343754D01*
X354339Y343827D01*
X354393Y343897D01*
X354451Y343964D01*
X354511Y344030D01*
X354573Y344092D01*
X354639Y344152D01*
X354706Y344210D01*
X354776Y344264D01*
X354849Y344315D01*
X354923Y344363D01*
X355000Y344408D01*
X355078Y344449D01*
X355158Y344488D01*
X355239Y344522D01*
X355322Y344554D01*
X355407Y344581D01*
X355492Y344606D01*
X355578Y344626D01*
X355665Y344643D01*
X355753Y344656D01*
X355841Y344665D01*
X355929Y344671D01*
X356018Y344673D01*
X356540Y344673D01*
X356641Y344671D01*
X356742Y344665D01*
X356843Y344655D01*
X356943Y344642D01*
X357043Y344624D01*
X357142Y344603D01*
X357240Y344577D01*
X357337Y344548D01*
X357433Y344516D01*
X357527Y344479D01*
X357620Y344439D01*
X357712Y344395D01*
X357801Y344348D01*
X357889Y344297D01*
X357975Y344243D01*
X358058Y344186D01*
X358140Y344126D01*
X358218Y344062D01*
X358295Y343996D01*
X358368Y343926D01*
X358439Y343854D01*
X358507Y343779D01*
X358572Y343701D01*
X358634Y343621D01*
X358693Y343539D01*
X358749Y343454D01*
X358801Y343367D01*
X358850Y343279D01*
X358896Y343188D01*
X358937Y343096D01*
X358976Y343002D01*
X359010Y342907D01*
X359041Y342811D01*
X359068Y342713D01*
X359092Y342615D01*
X359111Y342515D01*
X359127Y342415D01*
X359139Y342315D01*
X359147Y342214D01*
X359151Y342113D01*
X359151Y342011D01*
X359147Y341910D01*
X359139Y341809D01*
X359127Y341709D01*
X359111Y341609D01*
X359092Y341509D01*
X359068Y341411D01*
X359041Y341313D01*
X359010Y341217D01*
X358976Y341122D01*
X358937Y341028D01*
X358896Y340936D01*
X358850Y340845D01*
X358801Y340757D01*
X358749Y340670D01*
X358693Y340585D01*
X358634Y340503D01*
X358572Y340423D01*
X358507Y340345D01*
X358439Y340270D01*
X358368Y340198D01*
X358295Y340128D01*
X358218Y340062D01*
X358140Y339998D01*
X358058Y339938D01*
X357975Y339881D01*
X357889Y339827D01*
X357801Y339776D01*
X357712Y339729D01*
X357620Y339685D01*
X357527Y339645D01*
X357433Y339608D01*
X357337Y339576D01*
X357240Y339547D01*
X357142Y339521D01*
X357043Y339500D01*
X356943Y339482D01*
X356843Y339469D01*
X356742Y339459D01*
X356641Y339453D01*
X356540Y339451D01*
X356540Y339452D02*
X353930Y339452D01*
X353801Y339454D01*
X353673Y339460D01*
X353545Y339470D01*
X353417Y339484D01*
X353289Y339501D01*
X353162Y339523D01*
X353036Y339549D01*
X352911Y339578D01*
X352787Y339611D01*
X352664Y339649D01*
X352542Y339689D01*
X352421Y339734D01*
X352302Y339782D01*
X352184Y339834D01*
X352068Y339890D01*
X351954Y339949D01*
X351842Y340012D01*
X351731Y340078D01*
X351623Y340147D01*
X351517Y340220D01*
X351413Y340296D01*
X351311Y340375D01*
X351212Y340457D01*
X351116Y340542D01*
X351022Y340630D01*
X350931Y340721D01*
X350843Y340815D01*
X350758Y340911D01*
X350676Y341010D01*
X350597Y341112D01*
X350521Y341216D01*
X350448Y341322D01*
X350379Y341430D01*
X350313Y341540D01*
X350250Y341653D01*
X350191Y341767D01*
X350135Y341883D01*
X350083Y342001D01*
X350035Y342120D01*
X349990Y342241D01*
X349950Y342363D01*
X349912Y342486D01*
X349879Y342610D01*
X349850Y342735D01*
X349824Y342861D01*
X349802Y342988D01*
X349785Y343116D01*
X349771Y343244D01*
X349761Y343372D01*
X349755Y343500D01*
X349753Y343629D01*
M02*
