G04 EAGLE Gerber RS-274X export*
G75*
%MOMM*%
%FSLAX34Y34*%
%LPD*%
%INSilkscreen Bottom*%
%IPPOS*%
%AMOC8*
5,1,8,0,0,1.08239X$1,22.5*%
G01*
%ADD10C,0.152400*%
%ADD11C,0.101600*%
%ADD12C,0.127000*%
%ADD13C,0.076200*%
%ADD14C,0.254000*%


D10*
X474350Y367878D02*
X469411Y367878D01*
X469271Y367876D01*
X469132Y367870D01*
X468992Y367860D01*
X468853Y367846D01*
X468714Y367829D01*
X468576Y367807D01*
X468439Y367781D01*
X468302Y367752D01*
X468166Y367719D01*
X468032Y367682D01*
X467898Y367641D01*
X467766Y367596D01*
X467634Y367547D01*
X467505Y367495D01*
X467377Y367440D01*
X467250Y367380D01*
X467125Y367317D01*
X467002Y367251D01*
X466881Y367181D01*
X466762Y367108D01*
X466645Y367031D01*
X466531Y366951D01*
X466418Y366868D01*
X466308Y366782D01*
X466201Y366692D01*
X466096Y366600D01*
X465994Y366505D01*
X465894Y366407D01*
X465797Y366306D01*
X465703Y366202D01*
X465613Y366096D01*
X465525Y365987D01*
X465440Y365876D01*
X465359Y365762D01*
X465280Y365647D01*
X465205Y365529D01*
X465134Y365409D01*
X465066Y365286D01*
X465001Y365163D01*
X464940Y365037D01*
X464882Y364909D01*
X464828Y364781D01*
X464778Y364650D01*
X464731Y364518D01*
X464688Y364385D01*
X464649Y364251D01*
X464614Y364116D01*
X464583Y363980D01*
X464555Y363842D01*
X464532Y363705D01*
X464512Y363566D01*
X464496Y363427D01*
X464484Y363288D01*
X464476Y363149D01*
X464472Y363009D01*
X464472Y362869D01*
X464476Y362729D01*
X464484Y362590D01*
X464496Y362451D01*
X464512Y362312D01*
X464532Y362173D01*
X464555Y362036D01*
X464583Y361898D01*
X464614Y361762D01*
X464649Y361627D01*
X464688Y361493D01*
X464731Y361360D01*
X464778Y361228D01*
X464828Y361097D01*
X464882Y360969D01*
X464940Y360841D01*
X465001Y360715D01*
X465066Y360592D01*
X465134Y360470D01*
X465205Y360349D01*
X465280Y360231D01*
X465359Y360116D01*
X465440Y360002D01*
X465525Y359891D01*
X465613Y359782D01*
X465703Y359676D01*
X465797Y359572D01*
X465894Y359471D01*
X465994Y359373D01*
X466096Y359278D01*
X466201Y359186D01*
X466308Y359096D01*
X466418Y359010D01*
X466531Y358927D01*
X466645Y358847D01*
X466762Y358770D01*
X466881Y358697D01*
X467002Y358627D01*
X467125Y358561D01*
X467250Y358498D01*
X467377Y358438D01*
X467505Y358383D01*
X467634Y358331D01*
X467766Y358282D01*
X467898Y358237D01*
X468032Y358196D01*
X468166Y358159D01*
X468302Y358126D01*
X468439Y358097D01*
X468576Y358071D01*
X468714Y358049D01*
X468853Y358032D01*
X468992Y358018D01*
X469132Y358008D01*
X469271Y358002D01*
X469411Y358000D01*
X474350Y358000D01*
X474350Y375780D01*
X469411Y375780D01*
X469287Y375778D01*
X469163Y375772D01*
X469039Y375762D01*
X468916Y375749D01*
X468793Y375731D01*
X468671Y375710D01*
X468549Y375685D01*
X468428Y375656D01*
X468309Y375623D01*
X468190Y375587D01*
X468073Y375546D01*
X467957Y375503D01*
X467842Y375455D01*
X467729Y375404D01*
X467617Y375349D01*
X467508Y375291D01*
X467400Y375230D01*
X467294Y375165D01*
X467190Y375097D01*
X467089Y375025D01*
X466989Y374951D01*
X466893Y374873D01*
X466798Y374793D01*
X466706Y374709D01*
X466617Y374623D01*
X466531Y374534D01*
X466447Y374442D01*
X466367Y374347D01*
X466289Y374251D01*
X466215Y374151D01*
X466143Y374050D01*
X466075Y373946D01*
X466010Y373840D01*
X465949Y373732D01*
X465891Y373623D01*
X465836Y373511D01*
X465785Y373398D01*
X465737Y373283D01*
X465694Y373167D01*
X465653Y373050D01*
X465617Y372931D01*
X465584Y372812D01*
X465555Y372691D01*
X465530Y372569D01*
X465509Y372447D01*
X465491Y372324D01*
X465478Y372201D01*
X465468Y372077D01*
X465462Y371953D01*
X465460Y371829D01*
X465462Y371705D01*
X465468Y371581D01*
X465478Y371457D01*
X465491Y371334D01*
X465509Y371211D01*
X465530Y371089D01*
X465555Y370967D01*
X465584Y370846D01*
X465617Y370727D01*
X465653Y370608D01*
X465694Y370491D01*
X465737Y370375D01*
X465785Y370260D01*
X465836Y370147D01*
X465891Y370035D01*
X465949Y369926D01*
X466010Y369818D01*
X466075Y369712D01*
X466143Y369608D01*
X466215Y369507D01*
X466289Y369407D01*
X466367Y369311D01*
X466447Y369216D01*
X466531Y369124D01*
X466617Y369035D01*
X466706Y368949D01*
X466798Y368865D01*
X466893Y368785D01*
X466989Y368707D01*
X467089Y368633D01*
X467190Y368561D01*
X467294Y368493D01*
X467400Y368428D01*
X467508Y368367D01*
X467617Y368309D01*
X467729Y368254D01*
X467842Y368203D01*
X467957Y368155D01*
X468073Y368112D01*
X468190Y368071D01*
X468309Y368035D01*
X468428Y368002D01*
X468549Y367973D01*
X468671Y367948D01*
X468793Y367927D01*
X468916Y367909D01*
X469039Y367896D01*
X469163Y367886D01*
X469287Y367880D01*
X469411Y367878D01*
X476182Y335191D02*
X476182Y317411D01*
X476182Y335191D02*
X471243Y335191D01*
X471103Y335189D01*
X470964Y335183D01*
X470824Y335173D01*
X470685Y335159D01*
X470546Y335142D01*
X470408Y335120D01*
X470271Y335094D01*
X470134Y335065D01*
X469998Y335032D01*
X469864Y334995D01*
X469730Y334954D01*
X469598Y334909D01*
X469466Y334860D01*
X469337Y334808D01*
X469209Y334753D01*
X469082Y334693D01*
X468957Y334630D01*
X468834Y334564D01*
X468713Y334494D01*
X468594Y334421D01*
X468477Y334344D01*
X468363Y334264D01*
X468250Y334181D01*
X468140Y334095D01*
X468033Y334005D01*
X467928Y333913D01*
X467826Y333818D01*
X467726Y333720D01*
X467629Y333619D01*
X467535Y333515D01*
X467445Y333409D01*
X467357Y333300D01*
X467272Y333189D01*
X467191Y333075D01*
X467112Y332960D01*
X467037Y332842D01*
X466966Y332722D01*
X466898Y332599D01*
X466833Y332476D01*
X466772Y332350D01*
X466714Y332222D01*
X466660Y332094D01*
X466610Y331963D01*
X466563Y331831D01*
X466520Y331698D01*
X466481Y331564D01*
X466446Y331429D01*
X466415Y331293D01*
X466387Y331155D01*
X466364Y331018D01*
X466344Y330879D01*
X466328Y330740D01*
X466316Y330601D01*
X466308Y330462D01*
X466304Y330322D01*
X466304Y330182D01*
X466308Y330042D01*
X466316Y329903D01*
X466328Y329764D01*
X466344Y329625D01*
X466364Y329486D01*
X466387Y329349D01*
X466415Y329211D01*
X466446Y329075D01*
X466481Y328940D01*
X466520Y328806D01*
X466563Y328673D01*
X466610Y328541D01*
X466660Y328410D01*
X466714Y328282D01*
X466772Y328154D01*
X466833Y328028D01*
X466898Y327905D01*
X466966Y327783D01*
X467037Y327662D01*
X467112Y327544D01*
X467191Y327429D01*
X467272Y327315D01*
X467357Y327204D01*
X467445Y327095D01*
X467535Y326989D01*
X467629Y326885D01*
X467726Y326784D01*
X467826Y326686D01*
X467928Y326591D01*
X468033Y326499D01*
X468140Y326409D01*
X468250Y326323D01*
X468363Y326240D01*
X468477Y326160D01*
X468594Y326083D01*
X468713Y326010D01*
X468834Y325940D01*
X468957Y325874D01*
X469082Y325811D01*
X469209Y325751D01*
X469337Y325696D01*
X469466Y325644D01*
X469598Y325595D01*
X469730Y325550D01*
X469864Y325509D01*
X469998Y325472D01*
X470134Y325439D01*
X470271Y325410D01*
X470408Y325384D01*
X470546Y325362D01*
X470685Y325345D01*
X470824Y325331D01*
X470964Y325321D01*
X471103Y325315D01*
X471243Y325313D01*
X476182Y325313D01*
X470255Y325313D02*
X466304Y317411D01*
X215565Y321099D02*
X215565Y303319D01*
X215565Y321099D02*
X210626Y321099D01*
X210487Y321097D01*
X210349Y321091D01*
X210211Y321082D01*
X210073Y321068D01*
X209936Y321051D01*
X209799Y321029D01*
X209662Y321004D01*
X209527Y320975D01*
X209392Y320942D01*
X209259Y320906D01*
X209126Y320866D01*
X208995Y320822D01*
X208865Y320774D01*
X208736Y320723D01*
X208609Y320668D01*
X208483Y320610D01*
X208359Y320548D01*
X208237Y320483D01*
X208117Y320414D01*
X207998Y320342D01*
X207882Y320267D01*
X207768Y320188D01*
X207656Y320106D01*
X207547Y320021D01*
X207439Y319934D01*
X207335Y319843D01*
X207233Y319749D01*
X207134Y319652D01*
X207037Y319553D01*
X206943Y319451D01*
X206852Y319347D01*
X206765Y319239D01*
X206680Y319130D01*
X206598Y319018D01*
X206519Y318904D01*
X206444Y318788D01*
X206372Y318669D01*
X206303Y318549D01*
X206238Y318427D01*
X206176Y318303D01*
X206118Y318177D01*
X206063Y318050D01*
X206012Y317921D01*
X205964Y317791D01*
X205920Y317660D01*
X205880Y317527D01*
X205844Y317394D01*
X205811Y317259D01*
X205782Y317124D01*
X205757Y316987D01*
X205735Y316850D01*
X205718Y316713D01*
X205704Y316575D01*
X205695Y316437D01*
X205689Y316299D01*
X205687Y316160D01*
X205687Y308258D01*
X205689Y308119D01*
X205695Y307981D01*
X205704Y307843D01*
X205718Y307705D01*
X205735Y307568D01*
X205757Y307431D01*
X205782Y307294D01*
X205811Y307159D01*
X205844Y307024D01*
X205880Y306891D01*
X205920Y306758D01*
X205964Y306627D01*
X206012Y306497D01*
X206063Y306368D01*
X206118Y306241D01*
X206176Y306115D01*
X206238Y305991D01*
X206303Y305869D01*
X206372Y305749D01*
X206444Y305630D01*
X206519Y305514D01*
X206598Y305400D01*
X206680Y305288D01*
X206765Y305179D01*
X206852Y305071D01*
X206943Y304967D01*
X207037Y304865D01*
X207134Y304766D01*
X207233Y304669D01*
X207335Y304575D01*
X207439Y304484D01*
X207547Y304397D01*
X207656Y304312D01*
X207768Y304230D01*
X207882Y304151D01*
X207998Y304076D01*
X208117Y304004D01*
X208237Y303935D01*
X208359Y303870D01*
X208483Y303808D01*
X208609Y303750D01*
X208736Y303695D01*
X208865Y303644D01*
X208995Y303596D01*
X209126Y303552D01*
X209259Y303512D01*
X209392Y303476D01*
X209527Y303443D01*
X209662Y303414D01*
X209799Y303389D01*
X209936Y303367D01*
X210073Y303350D01*
X210211Y303336D01*
X210349Y303327D01*
X210487Y303321D01*
X210626Y303319D01*
X215565Y303319D01*
X211767Y347927D02*
X207816Y347927D01*
X211767Y347927D02*
X211891Y347929D01*
X212015Y347935D01*
X212139Y347945D01*
X212262Y347958D01*
X212385Y347976D01*
X212507Y347997D01*
X212629Y348022D01*
X212750Y348051D01*
X212869Y348084D01*
X212988Y348120D01*
X213105Y348161D01*
X213221Y348204D01*
X213336Y348252D01*
X213449Y348303D01*
X213561Y348358D01*
X213670Y348416D01*
X213778Y348477D01*
X213884Y348542D01*
X213988Y348610D01*
X214089Y348682D01*
X214189Y348756D01*
X214285Y348834D01*
X214380Y348914D01*
X214472Y348998D01*
X214561Y349084D01*
X214647Y349173D01*
X214731Y349265D01*
X214811Y349360D01*
X214889Y349456D01*
X214963Y349556D01*
X215035Y349657D01*
X215103Y349761D01*
X215168Y349867D01*
X215229Y349975D01*
X215287Y350084D01*
X215342Y350196D01*
X215393Y350309D01*
X215441Y350424D01*
X215484Y350540D01*
X215525Y350657D01*
X215561Y350776D01*
X215594Y350895D01*
X215623Y351016D01*
X215648Y351138D01*
X215669Y351260D01*
X215687Y351383D01*
X215700Y351506D01*
X215710Y351630D01*
X215716Y351754D01*
X215718Y351878D01*
X215718Y361756D01*
X215716Y361880D01*
X215710Y362004D01*
X215700Y362128D01*
X215687Y362251D01*
X215669Y362374D01*
X215648Y362496D01*
X215623Y362618D01*
X215594Y362739D01*
X215561Y362858D01*
X215525Y362977D01*
X215484Y363094D01*
X215441Y363210D01*
X215393Y363325D01*
X215342Y363438D01*
X215287Y363550D01*
X215229Y363659D01*
X215168Y363767D01*
X215103Y363873D01*
X215035Y363977D01*
X214963Y364078D01*
X214889Y364178D01*
X214811Y364274D01*
X214731Y364369D01*
X214647Y364461D01*
X214561Y364550D01*
X214472Y364636D01*
X214380Y364720D01*
X214285Y364800D01*
X214189Y364878D01*
X214089Y364952D01*
X213988Y365024D01*
X213884Y365092D01*
X213778Y365157D01*
X213670Y365218D01*
X213561Y365276D01*
X213449Y365331D01*
X213336Y365382D01*
X213222Y365430D01*
X213105Y365473D01*
X212988Y365514D01*
X212869Y365550D01*
X212750Y365583D01*
X212629Y365612D01*
X212507Y365637D01*
X212385Y365658D01*
X212262Y365676D01*
X212139Y365689D01*
X212015Y365699D01*
X211891Y365705D01*
X211767Y365707D01*
X207816Y365707D01*
D11*
X492049Y337254D02*
X492049Y335306D01*
X492049Y337254D02*
X485558Y337254D01*
X485558Y333359D01*
X485560Y333260D01*
X485566Y333160D01*
X485575Y333061D01*
X485588Y332963D01*
X485605Y332865D01*
X485626Y332767D01*
X485651Y332671D01*
X485679Y332576D01*
X485711Y332482D01*
X485746Y332389D01*
X485785Y332297D01*
X485828Y332207D01*
X485873Y332119D01*
X485923Y332032D01*
X485975Y331948D01*
X486031Y331865D01*
X486089Y331785D01*
X486151Y331707D01*
X486216Y331632D01*
X486284Y331559D01*
X486354Y331489D01*
X486427Y331421D01*
X486502Y331356D01*
X486580Y331294D01*
X486660Y331236D01*
X486743Y331180D01*
X486827Y331128D01*
X486914Y331078D01*
X487002Y331033D01*
X487092Y330990D01*
X487184Y330951D01*
X487277Y330916D01*
X487371Y330884D01*
X487466Y330856D01*
X487562Y330831D01*
X487660Y330810D01*
X487758Y330793D01*
X487856Y330780D01*
X487955Y330771D01*
X488055Y330765D01*
X488154Y330763D01*
X494646Y330763D01*
X494745Y330765D01*
X494845Y330771D01*
X494944Y330780D01*
X495042Y330793D01*
X495140Y330810D01*
X495238Y330831D01*
X495334Y330856D01*
X495429Y330884D01*
X495523Y330916D01*
X495616Y330951D01*
X495708Y330990D01*
X495798Y331033D01*
X495886Y331078D01*
X495973Y331128D01*
X496057Y331180D01*
X496140Y331236D01*
X496220Y331294D01*
X496298Y331356D01*
X496373Y331421D01*
X496446Y331489D01*
X496516Y331559D01*
X496584Y331632D01*
X496649Y331707D01*
X496711Y331785D01*
X496769Y331865D01*
X496825Y331948D01*
X496877Y332032D01*
X496927Y332119D01*
X496972Y332207D01*
X497015Y332297D01*
X497054Y332389D01*
X497089Y332481D01*
X497121Y332576D01*
X497149Y332671D01*
X497174Y332767D01*
X497195Y332865D01*
X497212Y332963D01*
X497225Y333061D01*
X497234Y333160D01*
X497240Y333260D01*
X497242Y333359D01*
X497242Y337254D01*
X497242Y342954D02*
X485558Y342954D01*
X485558Y349446D02*
X497242Y342954D01*
X497242Y349446D02*
X485558Y349446D01*
X485558Y355146D02*
X497242Y355146D01*
X497242Y358392D01*
X497240Y358505D01*
X497234Y358618D01*
X497224Y358731D01*
X497210Y358844D01*
X497193Y358956D01*
X497171Y359067D01*
X497146Y359177D01*
X497116Y359287D01*
X497083Y359395D01*
X497046Y359502D01*
X497006Y359608D01*
X496961Y359712D01*
X496913Y359815D01*
X496862Y359916D01*
X496807Y360015D01*
X496749Y360112D01*
X496687Y360207D01*
X496622Y360300D01*
X496554Y360390D01*
X496483Y360478D01*
X496408Y360564D01*
X496331Y360647D01*
X496251Y360727D01*
X496168Y360804D01*
X496082Y360879D01*
X495994Y360950D01*
X495904Y361018D01*
X495811Y361083D01*
X495716Y361145D01*
X495619Y361203D01*
X495520Y361258D01*
X495419Y361309D01*
X495316Y361357D01*
X495212Y361402D01*
X495106Y361442D01*
X494999Y361479D01*
X494891Y361512D01*
X494781Y361542D01*
X494671Y361567D01*
X494560Y361589D01*
X494448Y361606D01*
X494335Y361620D01*
X494222Y361630D01*
X494109Y361636D01*
X493996Y361638D01*
X488804Y361638D01*
X488691Y361636D01*
X488578Y361630D01*
X488465Y361620D01*
X488352Y361606D01*
X488240Y361589D01*
X488129Y361567D01*
X488019Y361542D01*
X487909Y361512D01*
X487801Y361479D01*
X487694Y361442D01*
X487588Y361402D01*
X487484Y361357D01*
X487381Y361309D01*
X487280Y361258D01*
X487181Y361203D01*
X487084Y361145D01*
X486989Y361083D01*
X486896Y361018D01*
X486806Y360950D01*
X486718Y360879D01*
X486632Y360804D01*
X486549Y360727D01*
X486469Y360647D01*
X486392Y360564D01*
X486317Y360478D01*
X486246Y360390D01*
X486178Y360300D01*
X486113Y360207D01*
X486051Y360112D01*
X485993Y360015D01*
X485938Y359916D01*
X485887Y359815D01*
X485839Y359712D01*
X485794Y359608D01*
X485754Y359502D01*
X485717Y359395D01*
X485684Y359287D01*
X485654Y359177D01*
X485629Y359067D01*
X485607Y358956D01*
X485590Y358844D01*
X485576Y358731D01*
X485566Y358618D01*
X485560Y358505D01*
X485558Y358392D01*
X485558Y355146D01*
X408104Y208449D02*
X406156Y208449D01*
X406156Y201958D01*
X410051Y201958D01*
X410150Y201960D01*
X410250Y201966D01*
X410349Y201975D01*
X410447Y201988D01*
X410545Y202005D01*
X410643Y202026D01*
X410739Y202051D01*
X410834Y202079D01*
X410928Y202111D01*
X411021Y202146D01*
X411113Y202185D01*
X411203Y202228D01*
X411291Y202273D01*
X411378Y202323D01*
X411462Y202375D01*
X411545Y202431D01*
X411625Y202489D01*
X411703Y202551D01*
X411778Y202616D01*
X411851Y202684D01*
X411921Y202754D01*
X411989Y202827D01*
X412054Y202902D01*
X412116Y202980D01*
X412174Y203060D01*
X412230Y203143D01*
X412282Y203227D01*
X412332Y203314D01*
X412377Y203402D01*
X412420Y203492D01*
X412459Y203584D01*
X412494Y203677D01*
X412526Y203771D01*
X412554Y203866D01*
X412579Y203962D01*
X412600Y204060D01*
X412617Y204158D01*
X412630Y204256D01*
X412639Y204355D01*
X412645Y204455D01*
X412647Y204554D01*
X412648Y204554D02*
X412648Y211046D01*
X412647Y211046D02*
X412645Y211145D01*
X412639Y211245D01*
X412630Y211344D01*
X412617Y211442D01*
X412600Y211540D01*
X412579Y211638D01*
X412554Y211734D01*
X412526Y211829D01*
X412494Y211923D01*
X412459Y212016D01*
X412420Y212108D01*
X412377Y212198D01*
X412332Y212286D01*
X412282Y212373D01*
X412230Y212457D01*
X412174Y212540D01*
X412116Y212620D01*
X412054Y212698D01*
X411989Y212773D01*
X411921Y212846D01*
X411851Y212916D01*
X411778Y212984D01*
X411703Y213049D01*
X411625Y213111D01*
X411545Y213169D01*
X411462Y213225D01*
X411378Y213277D01*
X411291Y213327D01*
X411203Y213372D01*
X411113Y213415D01*
X411021Y213454D01*
X410928Y213489D01*
X410834Y213521D01*
X410739Y213549D01*
X410643Y213574D01*
X410545Y213595D01*
X410447Y213612D01*
X410349Y213625D01*
X410250Y213634D01*
X410150Y213640D01*
X410051Y213642D01*
X406156Y213642D01*
X400456Y213642D02*
X400456Y201958D01*
X393964Y201958D02*
X400456Y213642D01*
X393964Y213642D02*
X393964Y201958D01*
X388264Y201958D02*
X388264Y213642D01*
X385018Y213642D01*
X384905Y213640D01*
X384792Y213634D01*
X384679Y213624D01*
X384566Y213610D01*
X384454Y213593D01*
X384343Y213571D01*
X384233Y213546D01*
X384123Y213516D01*
X384015Y213483D01*
X383908Y213446D01*
X383802Y213406D01*
X383698Y213361D01*
X383595Y213313D01*
X383494Y213262D01*
X383395Y213207D01*
X383298Y213149D01*
X383203Y213087D01*
X383110Y213022D01*
X383020Y212954D01*
X382932Y212883D01*
X382846Y212808D01*
X382763Y212731D01*
X382683Y212651D01*
X382606Y212568D01*
X382531Y212482D01*
X382460Y212394D01*
X382392Y212304D01*
X382327Y212211D01*
X382265Y212116D01*
X382207Y212019D01*
X382152Y211920D01*
X382101Y211819D01*
X382053Y211716D01*
X382008Y211612D01*
X381968Y211506D01*
X381931Y211399D01*
X381898Y211291D01*
X381868Y211181D01*
X381843Y211071D01*
X381821Y210960D01*
X381804Y210848D01*
X381790Y210735D01*
X381780Y210622D01*
X381774Y210509D01*
X381772Y210396D01*
X381772Y205204D01*
X381774Y205091D01*
X381780Y204978D01*
X381790Y204865D01*
X381804Y204752D01*
X381821Y204640D01*
X381843Y204529D01*
X381868Y204419D01*
X381898Y204309D01*
X381931Y204201D01*
X381968Y204094D01*
X382008Y203988D01*
X382053Y203884D01*
X382101Y203781D01*
X382152Y203680D01*
X382207Y203581D01*
X382265Y203484D01*
X382327Y203389D01*
X382392Y203296D01*
X382460Y203206D01*
X382531Y203118D01*
X382606Y203032D01*
X382683Y202949D01*
X382763Y202869D01*
X382846Y202792D01*
X382932Y202717D01*
X383020Y202646D01*
X383110Y202578D01*
X383203Y202513D01*
X383298Y202451D01*
X383395Y202393D01*
X383494Y202338D01*
X383595Y202287D01*
X383698Y202239D01*
X383802Y202194D01*
X383908Y202154D01*
X384015Y202117D01*
X384123Y202084D01*
X384233Y202054D01*
X384343Y202029D01*
X384454Y202007D01*
X384566Y201990D01*
X384679Y201976D01*
X384792Y201966D01*
X384905Y201960D01*
X385018Y201958D01*
X388264Y201958D01*
X307354Y208449D02*
X305406Y208449D01*
X305406Y201958D01*
X309301Y201958D01*
X309400Y201960D01*
X309500Y201966D01*
X309599Y201975D01*
X309697Y201988D01*
X309795Y202005D01*
X309893Y202026D01*
X309989Y202051D01*
X310084Y202079D01*
X310178Y202111D01*
X310271Y202146D01*
X310363Y202185D01*
X310453Y202228D01*
X310541Y202273D01*
X310628Y202323D01*
X310712Y202375D01*
X310795Y202431D01*
X310875Y202489D01*
X310953Y202551D01*
X311028Y202616D01*
X311101Y202684D01*
X311171Y202754D01*
X311239Y202827D01*
X311304Y202902D01*
X311366Y202980D01*
X311424Y203060D01*
X311480Y203143D01*
X311532Y203227D01*
X311582Y203314D01*
X311627Y203402D01*
X311670Y203492D01*
X311709Y203584D01*
X311744Y203677D01*
X311776Y203771D01*
X311804Y203866D01*
X311829Y203962D01*
X311850Y204060D01*
X311867Y204158D01*
X311880Y204256D01*
X311889Y204355D01*
X311895Y204455D01*
X311897Y204554D01*
X311898Y204554D02*
X311898Y211046D01*
X311897Y211046D02*
X311895Y211145D01*
X311889Y211245D01*
X311880Y211344D01*
X311867Y211442D01*
X311850Y211540D01*
X311829Y211638D01*
X311804Y211734D01*
X311776Y211829D01*
X311744Y211923D01*
X311709Y212016D01*
X311670Y212108D01*
X311627Y212198D01*
X311582Y212286D01*
X311532Y212373D01*
X311480Y212457D01*
X311424Y212540D01*
X311366Y212620D01*
X311304Y212698D01*
X311239Y212773D01*
X311171Y212846D01*
X311101Y212916D01*
X311028Y212984D01*
X310953Y213049D01*
X310875Y213111D01*
X310795Y213169D01*
X310712Y213225D01*
X310628Y213277D01*
X310541Y213327D01*
X310453Y213372D01*
X310363Y213415D01*
X310271Y213454D01*
X310178Y213489D01*
X310084Y213521D01*
X309989Y213549D01*
X309893Y213574D01*
X309795Y213595D01*
X309697Y213612D01*
X309599Y213625D01*
X309500Y213634D01*
X309400Y213640D01*
X309301Y213642D01*
X305406Y213642D01*
X299706Y213642D02*
X299706Y201958D01*
X293214Y201958D02*
X299706Y213642D01*
X293214Y213642D02*
X293214Y201958D01*
X287514Y201958D02*
X287514Y213642D01*
X284268Y213642D01*
X284155Y213640D01*
X284042Y213634D01*
X283929Y213624D01*
X283816Y213610D01*
X283704Y213593D01*
X283593Y213571D01*
X283483Y213546D01*
X283373Y213516D01*
X283265Y213483D01*
X283158Y213446D01*
X283052Y213406D01*
X282948Y213361D01*
X282845Y213313D01*
X282744Y213262D01*
X282645Y213207D01*
X282548Y213149D01*
X282453Y213087D01*
X282360Y213022D01*
X282270Y212954D01*
X282182Y212883D01*
X282096Y212808D01*
X282013Y212731D01*
X281933Y212651D01*
X281856Y212568D01*
X281781Y212482D01*
X281710Y212394D01*
X281642Y212304D01*
X281577Y212211D01*
X281515Y212116D01*
X281457Y212019D01*
X281402Y211920D01*
X281351Y211819D01*
X281303Y211716D01*
X281258Y211612D01*
X281218Y211506D01*
X281181Y211399D01*
X281148Y211291D01*
X281118Y211181D01*
X281093Y211071D01*
X281071Y210960D01*
X281054Y210848D01*
X281040Y210735D01*
X281030Y210622D01*
X281024Y210509D01*
X281022Y210396D01*
X281022Y205204D01*
X281024Y205091D01*
X281030Y204978D01*
X281040Y204865D01*
X281054Y204752D01*
X281071Y204640D01*
X281093Y204529D01*
X281118Y204419D01*
X281148Y204309D01*
X281181Y204201D01*
X281218Y204094D01*
X281258Y203988D01*
X281303Y203884D01*
X281351Y203781D01*
X281402Y203680D01*
X281457Y203581D01*
X281515Y203484D01*
X281577Y203389D01*
X281642Y203296D01*
X281710Y203206D01*
X281781Y203118D01*
X281856Y203032D01*
X281933Y202949D01*
X282013Y202869D01*
X282096Y202792D01*
X282182Y202717D01*
X282270Y202646D01*
X282360Y202578D01*
X282453Y202513D01*
X282548Y202451D01*
X282645Y202393D01*
X282744Y202338D01*
X282845Y202287D01*
X282948Y202239D01*
X283052Y202194D01*
X283158Y202154D01*
X283265Y202117D01*
X283373Y202084D01*
X283483Y202054D01*
X283593Y202029D01*
X283704Y202007D01*
X283816Y201990D01*
X283929Y201976D01*
X284042Y201966D01*
X284155Y201960D01*
X284268Y201958D01*
X287514Y201958D01*
X200379Y335306D02*
X200379Y337254D01*
X193888Y337254D01*
X193888Y333359D01*
X193890Y333260D01*
X193896Y333160D01*
X193905Y333061D01*
X193918Y332963D01*
X193935Y332865D01*
X193956Y332767D01*
X193981Y332671D01*
X194009Y332576D01*
X194041Y332482D01*
X194076Y332389D01*
X194115Y332297D01*
X194158Y332207D01*
X194203Y332119D01*
X194253Y332032D01*
X194305Y331948D01*
X194361Y331865D01*
X194419Y331785D01*
X194481Y331707D01*
X194546Y331632D01*
X194614Y331559D01*
X194684Y331489D01*
X194757Y331421D01*
X194832Y331356D01*
X194910Y331294D01*
X194990Y331236D01*
X195073Y331180D01*
X195157Y331128D01*
X195244Y331078D01*
X195332Y331033D01*
X195422Y330990D01*
X195514Y330951D01*
X195607Y330916D01*
X195701Y330884D01*
X195796Y330856D01*
X195892Y330831D01*
X195990Y330810D01*
X196088Y330793D01*
X196186Y330780D01*
X196285Y330771D01*
X196385Y330765D01*
X196484Y330763D01*
X202976Y330763D01*
X203075Y330765D01*
X203175Y330771D01*
X203274Y330780D01*
X203372Y330793D01*
X203470Y330810D01*
X203568Y330831D01*
X203664Y330856D01*
X203759Y330884D01*
X203853Y330916D01*
X203946Y330951D01*
X204038Y330990D01*
X204128Y331033D01*
X204216Y331078D01*
X204303Y331128D01*
X204387Y331180D01*
X204470Y331236D01*
X204550Y331294D01*
X204628Y331356D01*
X204703Y331421D01*
X204776Y331489D01*
X204846Y331559D01*
X204914Y331632D01*
X204979Y331707D01*
X205041Y331785D01*
X205099Y331865D01*
X205155Y331948D01*
X205207Y332032D01*
X205257Y332119D01*
X205302Y332207D01*
X205345Y332297D01*
X205384Y332389D01*
X205419Y332481D01*
X205451Y332576D01*
X205479Y332671D01*
X205504Y332767D01*
X205525Y332865D01*
X205542Y332963D01*
X205555Y333061D01*
X205564Y333160D01*
X205570Y333260D01*
X205572Y333359D01*
X205572Y337254D01*
X205572Y342954D02*
X193888Y342954D01*
X193888Y349446D02*
X205572Y342954D01*
X205572Y349446D02*
X193888Y349446D01*
X193888Y355146D02*
X205572Y355146D01*
X205572Y358392D01*
X205570Y358505D01*
X205564Y358618D01*
X205554Y358731D01*
X205540Y358844D01*
X205523Y358956D01*
X205501Y359067D01*
X205476Y359177D01*
X205446Y359287D01*
X205413Y359395D01*
X205376Y359502D01*
X205336Y359608D01*
X205291Y359712D01*
X205243Y359815D01*
X205192Y359916D01*
X205137Y360015D01*
X205079Y360112D01*
X205017Y360207D01*
X204952Y360300D01*
X204884Y360390D01*
X204813Y360478D01*
X204738Y360564D01*
X204661Y360647D01*
X204581Y360727D01*
X204498Y360804D01*
X204412Y360879D01*
X204324Y360950D01*
X204234Y361018D01*
X204141Y361083D01*
X204046Y361145D01*
X203949Y361203D01*
X203850Y361258D01*
X203749Y361309D01*
X203646Y361357D01*
X203542Y361402D01*
X203436Y361442D01*
X203329Y361479D01*
X203221Y361512D01*
X203111Y361542D01*
X203001Y361567D01*
X202890Y361589D01*
X202778Y361606D01*
X202665Y361620D01*
X202552Y361630D01*
X202439Y361636D01*
X202326Y361638D01*
X197134Y361638D01*
X197021Y361636D01*
X196908Y361630D01*
X196795Y361620D01*
X196682Y361606D01*
X196570Y361589D01*
X196459Y361567D01*
X196349Y361542D01*
X196239Y361512D01*
X196131Y361479D01*
X196024Y361442D01*
X195918Y361402D01*
X195814Y361357D01*
X195711Y361309D01*
X195610Y361258D01*
X195511Y361203D01*
X195414Y361145D01*
X195319Y361083D01*
X195226Y361018D01*
X195136Y360950D01*
X195048Y360879D01*
X194962Y360804D01*
X194879Y360727D01*
X194799Y360647D01*
X194722Y360564D01*
X194647Y360478D01*
X194576Y360390D01*
X194508Y360300D01*
X194443Y360207D01*
X194381Y360112D01*
X194323Y360015D01*
X194268Y359916D01*
X194217Y359815D01*
X194169Y359712D01*
X194124Y359608D01*
X194084Y359502D01*
X194047Y359395D01*
X194014Y359287D01*
X193984Y359177D01*
X193959Y359067D01*
X193937Y358956D01*
X193920Y358844D01*
X193906Y358731D01*
X193896Y358618D01*
X193890Y358505D01*
X193888Y358392D01*
X193888Y355146D01*
D10*
X471384Y383525D02*
X471384Y401305D01*
X466445Y401305D01*
X466305Y401303D01*
X466166Y401297D01*
X466026Y401287D01*
X465887Y401273D01*
X465748Y401256D01*
X465610Y401234D01*
X465473Y401208D01*
X465336Y401179D01*
X465200Y401146D01*
X465066Y401109D01*
X464932Y401068D01*
X464800Y401023D01*
X464668Y400974D01*
X464539Y400922D01*
X464411Y400867D01*
X464284Y400807D01*
X464159Y400744D01*
X464036Y400678D01*
X463915Y400608D01*
X463796Y400535D01*
X463679Y400458D01*
X463565Y400378D01*
X463452Y400295D01*
X463342Y400209D01*
X463235Y400119D01*
X463130Y400027D01*
X463028Y399932D01*
X462928Y399834D01*
X462831Y399733D01*
X462737Y399629D01*
X462647Y399523D01*
X462559Y399414D01*
X462474Y399303D01*
X462393Y399189D01*
X462314Y399074D01*
X462239Y398956D01*
X462168Y398836D01*
X462100Y398713D01*
X462035Y398590D01*
X461974Y398464D01*
X461916Y398336D01*
X461862Y398208D01*
X461812Y398077D01*
X461765Y397945D01*
X461722Y397812D01*
X461683Y397678D01*
X461648Y397543D01*
X461617Y397407D01*
X461589Y397269D01*
X461566Y397132D01*
X461546Y396993D01*
X461530Y396854D01*
X461518Y396715D01*
X461510Y396576D01*
X461506Y396436D01*
X461506Y396296D01*
X461510Y396156D01*
X461518Y396017D01*
X461530Y395878D01*
X461546Y395739D01*
X461566Y395600D01*
X461589Y395463D01*
X461617Y395325D01*
X461648Y395189D01*
X461683Y395054D01*
X461722Y394920D01*
X461765Y394787D01*
X461812Y394655D01*
X461862Y394524D01*
X461916Y394396D01*
X461974Y394268D01*
X462035Y394142D01*
X462100Y394019D01*
X462168Y393897D01*
X462239Y393776D01*
X462314Y393658D01*
X462393Y393543D01*
X462474Y393429D01*
X462559Y393318D01*
X462647Y393209D01*
X462737Y393103D01*
X462831Y392999D01*
X462928Y392898D01*
X463028Y392800D01*
X463130Y392705D01*
X463235Y392613D01*
X463342Y392523D01*
X463452Y392437D01*
X463565Y392354D01*
X463679Y392274D01*
X463796Y392197D01*
X463915Y392124D01*
X464036Y392054D01*
X464159Y391988D01*
X464284Y391925D01*
X464411Y391865D01*
X464539Y391810D01*
X464668Y391758D01*
X464800Y391709D01*
X464932Y391664D01*
X465066Y391623D01*
X465200Y391586D01*
X465336Y391553D01*
X465473Y391524D01*
X465610Y391498D01*
X465748Y391476D01*
X465887Y391459D01*
X466026Y391445D01*
X466166Y391435D01*
X466305Y391429D01*
X466445Y391427D01*
X471384Y391427D01*
X455389Y397354D02*
X450450Y401305D01*
X450450Y383525D01*
X455389Y383525D02*
X445511Y383525D01*
X484050Y309011D02*
X484050Y291231D01*
X484050Y309011D02*
X479111Y309011D01*
X478971Y309009D01*
X478832Y309003D01*
X478692Y308993D01*
X478553Y308979D01*
X478414Y308962D01*
X478276Y308940D01*
X478139Y308914D01*
X478002Y308885D01*
X477866Y308852D01*
X477732Y308815D01*
X477598Y308774D01*
X477466Y308729D01*
X477334Y308680D01*
X477205Y308628D01*
X477077Y308573D01*
X476950Y308513D01*
X476825Y308450D01*
X476702Y308384D01*
X476581Y308314D01*
X476462Y308241D01*
X476345Y308164D01*
X476231Y308084D01*
X476118Y308001D01*
X476008Y307915D01*
X475901Y307825D01*
X475796Y307733D01*
X475694Y307638D01*
X475594Y307540D01*
X475497Y307439D01*
X475403Y307335D01*
X475313Y307229D01*
X475225Y307120D01*
X475140Y307009D01*
X475059Y306895D01*
X474980Y306780D01*
X474905Y306662D01*
X474834Y306542D01*
X474766Y306419D01*
X474701Y306296D01*
X474640Y306170D01*
X474582Y306042D01*
X474528Y305914D01*
X474478Y305783D01*
X474431Y305651D01*
X474388Y305518D01*
X474349Y305384D01*
X474314Y305249D01*
X474283Y305113D01*
X474255Y304975D01*
X474232Y304838D01*
X474212Y304699D01*
X474196Y304560D01*
X474184Y304421D01*
X474176Y304282D01*
X474172Y304142D01*
X474172Y304002D01*
X474176Y303862D01*
X474184Y303723D01*
X474196Y303584D01*
X474212Y303445D01*
X474232Y303306D01*
X474255Y303169D01*
X474283Y303031D01*
X474314Y302895D01*
X474349Y302760D01*
X474388Y302626D01*
X474431Y302493D01*
X474478Y302361D01*
X474528Y302230D01*
X474582Y302102D01*
X474640Y301974D01*
X474701Y301848D01*
X474766Y301725D01*
X474834Y301603D01*
X474905Y301482D01*
X474980Y301364D01*
X475059Y301249D01*
X475140Y301135D01*
X475225Y301024D01*
X475313Y300915D01*
X475403Y300809D01*
X475497Y300705D01*
X475594Y300604D01*
X475694Y300506D01*
X475796Y300411D01*
X475901Y300319D01*
X476008Y300229D01*
X476118Y300143D01*
X476231Y300060D01*
X476345Y299980D01*
X476462Y299903D01*
X476581Y299830D01*
X476702Y299760D01*
X476825Y299694D01*
X476950Y299631D01*
X477077Y299571D01*
X477205Y299516D01*
X477334Y299464D01*
X477466Y299415D01*
X477598Y299370D01*
X477732Y299329D01*
X477866Y299292D01*
X478002Y299259D01*
X478139Y299230D01*
X478276Y299204D01*
X478414Y299182D01*
X478553Y299165D01*
X478692Y299151D01*
X478832Y299141D01*
X478971Y299135D01*
X479111Y299133D01*
X479111Y299134D02*
X484050Y299134D01*
X462622Y309011D02*
X462490Y309009D01*
X462359Y309003D01*
X462227Y308993D01*
X462096Y308980D01*
X461966Y308962D01*
X461836Y308941D01*
X461706Y308916D01*
X461578Y308887D01*
X461450Y308854D01*
X461324Y308817D01*
X461198Y308777D01*
X461074Y308733D01*
X460951Y308685D01*
X460830Y308634D01*
X460710Y308579D01*
X460592Y308521D01*
X460476Y308459D01*
X460362Y308393D01*
X460249Y308325D01*
X460139Y308253D01*
X460031Y308178D01*
X459925Y308099D01*
X459821Y308018D01*
X459720Y307933D01*
X459622Y307846D01*
X459526Y307755D01*
X459433Y307662D01*
X459342Y307566D01*
X459255Y307468D01*
X459170Y307367D01*
X459089Y307263D01*
X459010Y307157D01*
X458935Y307049D01*
X458863Y306939D01*
X458795Y306826D01*
X458729Y306712D01*
X458667Y306596D01*
X458609Y306478D01*
X458554Y306358D01*
X458503Y306237D01*
X458455Y306114D01*
X458411Y305990D01*
X458371Y305864D01*
X458334Y305738D01*
X458301Y305610D01*
X458272Y305482D01*
X458247Y305352D01*
X458226Y305222D01*
X458208Y305092D01*
X458195Y304961D01*
X458185Y304829D01*
X458179Y304698D01*
X458177Y304566D01*
X462622Y309012D02*
X462772Y309010D01*
X462921Y309004D01*
X463070Y308994D01*
X463219Y308981D01*
X463368Y308963D01*
X463516Y308942D01*
X463664Y308916D01*
X463810Y308887D01*
X463956Y308854D01*
X464101Y308817D01*
X464245Y308776D01*
X464388Y308732D01*
X464530Y308684D01*
X464670Y308632D01*
X464809Y308577D01*
X464947Y308518D01*
X465082Y308455D01*
X465217Y308389D01*
X465349Y308319D01*
X465479Y308246D01*
X465608Y308169D01*
X465735Y308089D01*
X465859Y308006D01*
X465981Y307920D01*
X466101Y307830D01*
X466218Y307737D01*
X466333Y307642D01*
X466446Y307543D01*
X466556Y307441D01*
X466663Y307337D01*
X466767Y307230D01*
X466869Y307120D01*
X466967Y307007D01*
X467063Y306892D01*
X467155Y306774D01*
X467245Y306654D01*
X467331Y306532D01*
X467414Y306408D01*
X467494Y306281D01*
X467570Y306153D01*
X467643Y306022D01*
X467713Y305889D01*
X467779Y305755D01*
X467841Y305619D01*
X467900Y305482D01*
X467956Y305343D01*
X468007Y305202D01*
X468055Y305061D01*
X459659Y301109D02*
X459563Y301202D01*
X459471Y301298D01*
X459381Y301397D01*
X459294Y301498D01*
X459210Y301601D01*
X459128Y301706D01*
X459050Y301814D01*
X458975Y301924D01*
X458902Y302036D01*
X458833Y302150D01*
X458767Y302266D01*
X458705Y302384D01*
X458646Y302503D01*
X458590Y302624D01*
X458537Y302747D01*
X458488Y302871D01*
X458443Y302996D01*
X458400Y303123D01*
X458362Y303250D01*
X458327Y303379D01*
X458296Y303508D01*
X458268Y303639D01*
X458244Y303770D01*
X458223Y303902D01*
X458207Y304034D01*
X458194Y304167D01*
X458184Y304300D01*
X458179Y304433D01*
X458177Y304566D01*
X459659Y301109D02*
X468055Y291231D01*
X458177Y291231D01*
X445807Y298146D02*
X445807Y304072D01*
X445807Y298146D02*
X442350Y293701D01*
X445807Y298146D02*
X449264Y293701D01*
X445807Y298146D02*
X440374Y300121D01*
X445807Y298146D02*
X451240Y300121D01*
X357866Y233490D02*
X357866Y215710D01*
X357866Y233490D02*
X352928Y233490D01*
X352788Y233488D01*
X352649Y233482D01*
X352509Y233472D01*
X352370Y233458D01*
X352231Y233441D01*
X352093Y233419D01*
X351956Y233393D01*
X351819Y233364D01*
X351683Y233331D01*
X351549Y233294D01*
X351415Y233253D01*
X351283Y233208D01*
X351151Y233159D01*
X351022Y233107D01*
X350894Y233052D01*
X350767Y232992D01*
X350642Y232929D01*
X350519Y232863D01*
X350398Y232793D01*
X350279Y232720D01*
X350162Y232643D01*
X350048Y232563D01*
X349935Y232480D01*
X349825Y232394D01*
X349718Y232304D01*
X349613Y232212D01*
X349511Y232117D01*
X349411Y232019D01*
X349314Y231918D01*
X349220Y231814D01*
X349130Y231708D01*
X349042Y231599D01*
X348957Y231488D01*
X348876Y231374D01*
X348797Y231259D01*
X348722Y231141D01*
X348651Y231021D01*
X348583Y230898D01*
X348518Y230775D01*
X348457Y230649D01*
X348399Y230521D01*
X348345Y230393D01*
X348295Y230262D01*
X348248Y230130D01*
X348205Y229997D01*
X348166Y229863D01*
X348131Y229728D01*
X348100Y229592D01*
X348072Y229454D01*
X348049Y229317D01*
X348029Y229178D01*
X348013Y229039D01*
X348001Y228900D01*
X347993Y228761D01*
X347989Y228621D01*
X347989Y228481D01*
X347993Y228341D01*
X348001Y228202D01*
X348013Y228063D01*
X348029Y227924D01*
X348049Y227785D01*
X348072Y227648D01*
X348100Y227510D01*
X348131Y227374D01*
X348166Y227239D01*
X348205Y227105D01*
X348248Y226972D01*
X348295Y226840D01*
X348345Y226709D01*
X348399Y226581D01*
X348457Y226453D01*
X348518Y226327D01*
X348583Y226204D01*
X348651Y226081D01*
X348722Y225961D01*
X348797Y225843D01*
X348876Y225728D01*
X348957Y225614D01*
X349042Y225503D01*
X349130Y225394D01*
X349220Y225288D01*
X349314Y225184D01*
X349411Y225083D01*
X349511Y224985D01*
X349613Y224890D01*
X349718Y224798D01*
X349825Y224708D01*
X349935Y224622D01*
X350048Y224539D01*
X350162Y224459D01*
X350279Y224382D01*
X350398Y224309D01*
X350519Y224239D01*
X350642Y224173D01*
X350767Y224110D01*
X350894Y224050D01*
X351022Y223995D01*
X351151Y223943D01*
X351283Y223894D01*
X351415Y223849D01*
X351549Y223808D01*
X351683Y223771D01*
X351819Y223738D01*
X351956Y223709D01*
X352093Y223683D01*
X352231Y223661D01*
X352370Y223644D01*
X352509Y223630D01*
X352649Y223620D01*
X352788Y223614D01*
X352928Y223612D01*
X357866Y223612D01*
X341871Y215710D02*
X336932Y215710D01*
X336792Y215712D01*
X336653Y215718D01*
X336513Y215728D01*
X336374Y215742D01*
X336235Y215759D01*
X336097Y215781D01*
X335960Y215807D01*
X335823Y215836D01*
X335687Y215869D01*
X335553Y215906D01*
X335419Y215947D01*
X335287Y215992D01*
X335155Y216041D01*
X335026Y216093D01*
X334898Y216148D01*
X334771Y216208D01*
X334646Y216271D01*
X334523Y216337D01*
X334402Y216407D01*
X334283Y216480D01*
X334166Y216557D01*
X334052Y216637D01*
X333939Y216720D01*
X333829Y216806D01*
X333722Y216896D01*
X333617Y216988D01*
X333515Y217083D01*
X333415Y217181D01*
X333318Y217282D01*
X333224Y217386D01*
X333134Y217492D01*
X333046Y217601D01*
X332961Y217712D01*
X332880Y217826D01*
X332801Y217941D01*
X332726Y218059D01*
X332655Y218179D01*
X332587Y218302D01*
X332522Y218425D01*
X332461Y218551D01*
X332403Y218679D01*
X332349Y218807D01*
X332299Y218938D01*
X332252Y219070D01*
X332209Y219203D01*
X332170Y219337D01*
X332135Y219472D01*
X332104Y219608D01*
X332076Y219746D01*
X332053Y219883D01*
X332033Y220022D01*
X332017Y220161D01*
X332005Y220300D01*
X331997Y220439D01*
X331993Y220579D01*
X331993Y220719D01*
X331997Y220859D01*
X332005Y220998D01*
X332017Y221137D01*
X332033Y221276D01*
X332053Y221415D01*
X332076Y221552D01*
X332104Y221690D01*
X332135Y221826D01*
X332170Y221961D01*
X332209Y222095D01*
X332252Y222228D01*
X332299Y222360D01*
X332349Y222491D01*
X332403Y222619D01*
X332461Y222747D01*
X332522Y222873D01*
X332587Y222996D01*
X332655Y223119D01*
X332726Y223239D01*
X332801Y223357D01*
X332880Y223472D01*
X332961Y223586D01*
X333046Y223697D01*
X333134Y223806D01*
X333224Y223912D01*
X333318Y224016D01*
X333415Y224117D01*
X333515Y224215D01*
X333617Y224310D01*
X333722Y224402D01*
X333829Y224492D01*
X333939Y224578D01*
X334052Y224661D01*
X334166Y224741D01*
X334283Y224818D01*
X334402Y224891D01*
X334523Y224961D01*
X334646Y225027D01*
X334771Y225090D01*
X334898Y225150D01*
X335026Y225205D01*
X335155Y225257D01*
X335287Y225306D01*
X335419Y225351D01*
X335553Y225392D01*
X335687Y225429D01*
X335823Y225462D01*
X335960Y225491D01*
X336097Y225517D01*
X336235Y225539D01*
X336374Y225556D01*
X336513Y225570D01*
X336653Y225580D01*
X336792Y225586D01*
X336932Y225588D01*
X335945Y233490D02*
X341871Y233490D01*
X335945Y233490D02*
X335821Y233488D01*
X335697Y233482D01*
X335573Y233472D01*
X335450Y233459D01*
X335327Y233441D01*
X335205Y233420D01*
X335083Y233395D01*
X334962Y233366D01*
X334843Y233333D01*
X334724Y233297D01*
X334607Y233256D01*
X334491Y233213D01*
X334376Y233165D01*
X334263Y233114D01*
X334151Y233059D01*
X334042Y233001D01*
X333934Y232940D01*
X333828Y232875D01*
X333724Y232807D01*
X333623Y232735D01*
X333523Y232661D01*
X333427Y232583D01*
X333332Y232503D01*
X333240Y232419D01*
X333151Y232333D01*
X333065Y232244D01*
X332981Y232152D01*
X332901Y232057D01*
X332823Y231961D01*
X332749Y231861D01*
X332677Y231760D01*
X332609Y231656D01*
X332544Y231550D01*
X332483Y231442D01*
X332425Y231333D01*
X332370Y231221D01*
X332319Y231108D01*
X332271Y230993D01*
X332228Y230877D01*
X332187Y230760D01*
X332151Y230641D01*
X332118Y230522D01*
X332089Y230401D01*
X332064Y230279D01*
X332043Y230157D01*
X332025Y230034D01*
X332012Y229911D01*
X332002Y229787D01*
X331996Y229663D01*
X331994Y229539D01*
X331996Y229415D01*
X332002Y229291D01*
X332012Y229167D01*
X332025Y229044D01*
X332043Y228921D01*
X332064Y228799D01*
X332089Y228677D01*
X332118Y228556D01*
X332151Y228437D01*
X332187Y228318D01*
X332228Y228201D01*
X332271Y228085D01*
X332319Y227970D01*
X332370Y227857D01*
X332425Y227745D01*
X332483Y227636D01*
X332544Y227528D01*
X332609Y227422D01*
X332677Y227318D01*
X332749Y227217D01*
X332823Y227117D01*
X332901Y227021D01*
X332981Y226926D01*
X333065Y226834D01*
X333151Y226745D01*
X333240Y226659D01*
X333332Y226575D01*
X333427Y226495D01*
X333523Y226417D01*
X333623Y226343D01*
X333724Y226271D01*
X333828Y226203D01*
X333934Y226138D01*
X334042Y226077D01*
X334151Y226019D01*
X334263Y225964D01*
X334376Y225913D01*
X334491Y225865D01*
X334607Y225822D01*
X334724Y225781D01*
X334843Y225745D01*
X334962Y225712D01*
X335083Y225683D01*
X335205Y225658D01*
X335327Y225637D01*
X335450Y225619D01*
X335573Y225606D01*
X335697Y225596D01*
X335821Y225590D01*
X335945Y225588D01*
X339896Y225588D01*
X247546Y292687D02*
X247546Y310467D01*
X242607Y310467D01*
X242467Y310465D01*
X242328Y310459D01*
X242188Y310449D01*
X242049Y310435D01*
X241910Y310418D01*
X241772Y310396D01*
X241635Y310370D01*
X241498Y310341D01*
X241362Y310308D01*
X241228Y310271D01*
X241094Y310230D01*
X240962Y310185D01*
X240830Y310136D01*
X240701Y310084D01*
X240573Y310029D01*
X240446Y309969D01*
X240321Y309906D01*
X240198Y309840D01*
X240077Y309770D01*
X239958Y309697D01*
X239841Y309620D01*
X239727Y309540D01*
X239614Y309457D01*
X239504Y309371D01*
X239397Y309281D01*
X239292Y309189D01*
X239190Y309094D01*
X239090Y308996D01*
X238993Y308895D01*
X238899Y308791D01*
X238809Y308685D01*
X238721Y308576D01*
X238636Y308465D01*
X238555Y308351D01*
X238476Y308236D01*
X238401Y308118D01*
X238330Y307998D01*
X238262Y307875D01*
X238197Y307752D01*
X238136Y307626D01*
X238078Y307498D01*
X238024Y307370D01*
X237974Y307239D01*
X237927Y307107D01*
X237884Y306974D01*
X237845Y306840D01*
X237810Y306705D01*
X237779Y306569D01*
X237751Y306431D01*
X237728Y306294D01*
X237708Y306155D01*
X237692Y306016D01*
X237680Y305877D01*
X237672Y305738D01*
X237668Y305598D01*
X237668Y305458D01*
X237672Y305318D01*
X237680Y305179D01*
X237692Y305040D01*
X237708Y304901D01*
X237728Y304762D01*
X237751Y304625D01*
X237779Y304487D01*
X237810Y304351D01*
X237845Y304216D01*
X237884Y304082D01*
X237927Y303949D01*
X237974Y303817D01*
X238024Y303686D01*
X238078Y303558D01*
X238136Y303430D01*
X238197Y303304D01*
X238262Y303181D01*
X238330Y303059D01*
X238401Y302938D01*
X238476Y302820D01*
X238555Y302705D01*
X238636Y302591D01*
X238721Y302480D01*
X238809Y302371D01*
X238899Y302265D01*
X238993Y302161D01*
X239090Y302060D01*
X239190Y301962D01*
X239292Y301867D01*
X239397Y301775D01*
X239504Y301685D01*
X239614Y301599D01*
X239727Y301516D01*
X239841Y301436D01*
X239958Y301359D01*
X240077Y301286D01*
X240198Y301216D01*
X240321Y301150D01*
X240446Y301087D01*
X240573Y301027D01*
X240701Y300972D01*
X240830Y300920D01*
X240962Y300871D01*
X241094Y300826D01*
X241228Y300785D01*
X241362Y300748D01*
X241498Y300715D01*
X241635Y300686D01*
X241772Y300660D01*
X241910Y300638D01*
X242049Y300621D01*
X242188Y300607D01*
X242328Y300597D01*
X242467Y300591D01*
X242607Y300589D01*
X247546Y300589D01*
X231551Y296638D02*
X227600Y310467D01*
X231551Y296638D02*
X221673Y296638D01*
X224637Y300589D02*
X224637Y292687D01*
X251464Y385837D02*
X251464Y403617D01*
X246525Y403617D01*
X246385Y403615D01*
X246246Y403609D01*
X246106Y403599D01*
X245967Y403585D01*
X245828Y403568D01*
X245690Y403546D01*
X245553Y403520D01*
X245416Y403491D01*
X245280Y403458D01*
X245146Y403421D01*
X245012Y403380D01*
X244880Y403335D01*
X244748Y403286D01*
X244619Y403234D01*
X244491Y403179D01*
X244364Y403119D01*
X244239Y403056D01*
X244116Y402990D01*
X243995Y402920D01*
X243876Y402847D01*
X243759Y402770D01*
X243645Y402690D01*
X243532Y402607D01*
X243422Y402521D01*
X243315Y402431D01*
X243210Y402339D01*
X243108Y402244D01*
X243008Y402146D01*
X242911Y402045D01*
X242817Y401941D01*
X242727Y401835D01*
X242639Y401726D01*
X242554Y401615D01*
X242473Y401501D01*
X242394Y401386D01*
X242319Y401268D01*
X242248Y401148D01*
X242180Y401025D01*
X242115Y400902D01*
X242054Y400776D01*
X241996Y400648D01*
X241942Y400520D01*
X241892Y400389D01*
X241845Y400257D01*
X241802Y400124D01*
X241763Y399990D01*
X241728Y399855D01*
X241697Y399719D01*
X241669Y399581D01*
X241646Y399444D01*
X241626Y399305D01*
X241610Y399166D01*
X241598Y399027D01*
X241590Y398888D01*
X241586Y398748D01*
X241586Y398608D01*
X241590Y398468D01*
X241598Y398329D01*
X241610Y398190D01*
X241626Y398051D01*
X241646Y397912D01*
X241669Y397775D01*
X241697Y397637D01*
X241728Y397501D01*
X241763Y397366D01*
X241802Y397232D01*
X241845Y397099D01*
X241892Y396967D01*
X241942Y396836D01*
X241996Y396708D01*
X242054Y396580D01*
X242115Y396454D01*
X242180Y396331D01*
X242248Y396209D01*
X242319Y396088D01*
X242394Y395970D01*
X242473Y395855D01*
X242554Y395741D01*
X242639Y395630D01*
X242727Y395521D01*
X242817Y395415D01*
X242911Y395311D01*
X243008Y395210D01*
X243108Y395112D01*
X243210Y395017D01*
X243315Y394925D01*
X243422Y394835D01*
X243532Y394749D01*
X243645Y394666D01*
X243759Y394586D01*
X243876Y394509D01*
X243995Y394436D01*
X244116Y394366D01*
X244239Y394300D01*
X244364Y394237D01*
X244491Y394177D01*
X244619Y394122D01*
X244748Y394070D01*
X244880Y394021D01*
X245012Y393976D01*
X245146Y393935D01*
X245280Y393898D01*
X245416Y393865D01*
X245553Y393836D01*
X245690Y393810D01*
X245828Y393788D01*
X245967Y393771D01*
X246106Y393757D01*
X246246Y393747D01*
X246385Y393741D01*
X246525Y393739D01*
X251464Y393739D01*
X235469Y385837D02*
X229543Y385837D01*
X229419Y385839D01*
X229295Y385845D01*
X229171Y385855D01*
X229048Y385868D01*
X228925Y385886D01*
X228803Y385907D01*
X228681Y385932D01*
X228560Y385961D01*
X228441Y385994D01*
X228322Y386030D01*
X228205Y386071D01*
X228089Y386114D01*
X227974Y386162D01*
X227861Y386213D01*
X227749Y386268D01*
X227640Y386326D01*
X227532Y386387D01*
X227426Y386452D01*
X227322Y386520D01*
X227221Y386592D01*
X227121Y386666D01*
X227025Y386744D01*
X226930Y386824D01*
X226838Y386908D01*
X226749Y386994D01*
X226663Y387083D01*
X226579Y387175D01*
X226499Y387270D01*
X226421Y387366D01*
X226347Y387466D01*
X226275Y387567D01*
X226207Y387671D01*
X226142Y387777D01*
X226081Y387885D01*
X226023Y387994D01*
X225968Y388106D01*
X225917Y388219D01*
X225869Y388334D01*
X225826Y388450D01*
X225785Y388567D01*
X225749Y388686D01*
X225716Y388805D01*
X225687Y388926D01*
X225662Y389048D01*
X225641Y389170D01*
X225623Y389293D01*
X225610Y389416D01*
X225600Y389540D01*
X225594Y389664D01*
X225592Y389788D01*
X225591Y389788D02*
X225591Y391763D01*
X225592Y391763D02*
X225594Y391887D01*
X225600Y392011D01*
X225610Y392135D01*
X225623Y392258D01*
X225641Y392381D01*
X225662Y392503D01*
X225687Y392625D01*
X225716Y392746D01*
X225749Y392865D01*
X225785Y392984D01*
X225826Y393101D01*
X225869Y393217D01*
X225917Y393332D01*
X225968Y393445D01*
X226023Y393557D01*
X226081Y393666D01*
X226142Y393774D01*
X226207Y393880D01*
X226275Y393984D01*
X226347Y394085D01*
X226421Y394185D01*
X226499Y394281D01*
X226579Y394376D01*
X226663Y394468D01*
X226749Y394557D01*
X226838Y394643D01*
X226930Y394727D01*
X227025Y394807D01*
X227121Y394885D01*
X227221Y394959D01*
X227322Y395031D01*
X227426Y395099D01*
X227532Y395164D01*
X227640Y395225D01*
X227749Y395283D01*
X227861Y395338D01*
X227974Y395389D01*
X228089Y395437D01*
X228205Y395480D01*
X228322Y395521D01*
X228441Y395557D01*
X228560Y395590D01*
X228681Y395619D01*
X228803Y395644D01*
X228925Y395665D01*
X229048Y395683D01*
X229171Y395696D01*
X229295Y395706D01*
X229419Y395712D01*
X229543Y395714D01*
X235469Y395714D01*
X235469Y403617D01*
X225591Y403617D01*
X461674Y351678D02*
X461674Y333898D01*
X461674Y343776D02*
X451796Y343776D01*
X451796Y351678D02*
X451796Y333898D01*
X444365Y342788D02*
X444361Y343138D01*
X444348Y343487D01*
X444327Y343836D01*
X444298Y344185D01*
X444261Y344533D01*
X444215Y344880D01*
X444161Y345225D01*
X444099Y345569D01*
X444028Y345912D01*
X443949Y346253D01*
X443863Y346592D01*
X443768Y346928D01*
X443665Y347263D01*
X443554Y347594D01*
X443436Y347924D01*
X443309Y348250D01*
X443175Y348573D01*
X443033Y348892D01*
X442883Y349209D01*
X442843Y349322D01*
X442799Y349432D01*
X442751Y349542D01*
X442700Y349649D01*
X442645Y349755D01*
X442587Y349860D01*
X442525Y349962D01*
X442460Y350062D01*
X442392Y350160D01*
X442321Y350256D01*
X442246Y350349D01*
X442169Y350440D01*
X442089Y350528D01*
X442006Y350613D01*
X441920Y350696D01*
X441831Y350776D01*
X441740Y350853D01*
X441646Y350927D01*
X441550Y350998D01*
X441452Y351066D01*
X441352Y351130D01*
X441249Y351192D01*
X441145Y351249D01*
X441039Y351304D01*
X440931Y351355D01*
X440821Y351402D01*
X440710Y351446D01*
X440598Y351486D01*
X440484Y351522D01*
X440370Y351555D01*
X440254Y351584D01*
X440137Y351609D01*
X440020Y351630D01*
X439902Y351648D01*
X439783Y351661D01*
X439664Y351671D01*
X439545Y351677D01*
X439426Y351679D01*
X439426Y351678D02*
X439307Y351676D01*
X439188Y351670D01*
X439069Y351660D01*
X438950Y351647D01*
X438832Y351629D01*
X438715Y351608D01*
X438598Y351583D01*
X438482Y351554D01*
X438368Y351521D01*
X438254Y351485D01*
X438142Y351445D01*
X438031Y351401D01*
X437921Y351354D01*
X437813Y351303D01*
X437707Y351248D01*
X437603Y351191D01*
X437500Y351129D01*
X437400Y351065D01*
X437302Y350997D01*
X437206Y350926D01*
X437112Y350852D01*
X437021Y350775D01*
X436932Y350695D01*
X436847Y350612D01*
X436763Y350527D01*
X436683Y350439D01*
X436606Y350348D01*
X436531Y350255D01*
X436460Y350159D01*
X436392Y350061D01*
X436327Y349961D01*
X436265Y349859D01*
X436207Y349754D01*
X436152Y349649D01*
X436101Y349541D01*
X436053Y349431D01*
X436009Y349321D01*
X435969Y349208D01*
X435969Y349209D02*
X435819Y348892D01*
X435677Y348573D01*
X435543Y348250D01*
X435416Y347924D01*
X435298Y347594D01*
X435187Y347263D01*
X435084Y346928D01*
X434989Y346592D01*
X434903Y346253D01*
X434824Y345912D01*
X434753Y345569D01*
X434691Y345225D01*
X434637Y344880D01*
X434591Y344533D01*
X434554Y344185D01*
X434525Y343836D01*
X434504Y343487D01*
X434491Y343138D01*
X434487Y342788D01*
X444365Y342788D02*
X444361Y342438D01*
X444348Y342089D01*
X444327Y341740D01*
X444298Y341391D01*
X444261Y341043D01*
X444215Y340696D01*
X444161Y340351D01*
X444099Y340007D01*
X444028Y339664D01*
X443949Y339323D01*
X443863Y338984D01*
X443768Y338648D01*
X443665Y338313D01*
X443554Y337982D01*
X443436Y337653D01*
X443309Y337326D01*
X443175Y337003D01*
X443033Y336684D01*
X442883Y336368D01*
X442843Y336255D01*
X442799Y336145D01*
X442751Y336035D01*
X442700Y335928D01*
X442645Y335822D01*
X442587Y335717D01*
X442525Y335615D01*
X442460Y335515D01*
X442392Y335417D01*
X442321Y335321D01*
X442246Y335228D01*
X442169Y335137D01*
X442089Y335049D01*
X442006Y334964D01*
X441920Y334881D01*
X441831Y334801D01*
X441740Y334724D01*
X441646Y334650D01*
X441550Y334579D01*
X441452Y334511D01*
X441352Y334447D01*
X441249Y334385D01*
X441145Y334328D01*
X441039Y334273D01*
X440931Y334222D01*
X440821Y334175D01*
X440710Y334131D01*
X440598Y334091D01*
X440484Y334055D01*
X440370Y334022D01*
X440254Y333993D01*
X440137Y333968D01*
X440020Y333947D01*
X439902Y333929D01*
X439783Y333916D01*
X439664Y333906D01*
X439545Y333900D01*
X439426Y333898D01*
X435969Y336368D02*
X435819Y336684D01*
X435677Y337003D01*
X435543Y337326D01*
X435416Y337653D01*
X435298Y337982D01*
X435187Y338313D01*
X435084Y338648D01*
X434989Y338984D01*
X434903Y339323D01*
X434824Y339664D01*
X434753Y340007D01*
X434691Y340351D01*
X434637Y340696D01*
X434591Y341043D01*
X434554Y341391D01*
X434525Y341740D01*
X434504Y342089D01*
X434491Y342438D01*
X434487Y342788D01*
X435969Y336368D02*
X436009Y336255D01*
X436053Y336145D01*
X436101Y336035D01*
X436152Y335927D01*
X436207Y335821D01*
X436265Y335717D01*
X436327Y335615D01*
X436392Y335515D01*
X436460Y335417D01*
X436531Y335321D01*
X436606Y335228D01*
X436683Y335137D01*
X436763Y335049D01*
X436847Y334964D01*
X436932Y334881D01*
X437021Y334801D01*
X437112Y334724D01*
X437206Y334650D01*
X437302Y334579D01*
X437400Y334511D01*
X437500Y334447D01*
X437603Y334385D01*
X437707Y334327D01*
X437813Y334273D01*
X437921Y334222D01*
X438031Y334175D01*
X438142Y334131D01*
X438254Y334091D01*
X438368Y334055D01*
X438482Y334022D01*
X438598Y333993D01*
X438715Y333968D01*
X438832Y333947D01*
X438950Y333929D01*
X439069Y333916D01*
X439188Y333906D01*
X439307Y333900D01*
X439426Y333898D01*
X443377Y337849D02*
X435475Y347727D01*
X427027Y351678D02*
X427027Y333898D01*
X427027Y351678D02*
X419125Y351678D01*
X419125Y343776D02*
X427027Y343776D01*
X412454Y351678D02*
X412454Y333898D01*
X412454Y351678D02*
X407515Y351678D01*
X407375Y351676D01*
X407236Y351670D01*
X407096Y351660D01*
X406957Y351646D01*
X406818Y351629D01*
X406680Y351607D01*
X406543Y351581D01*
X406406Y351552D01*
X406270Y351519D01*
X406136Y351482D01*
X406002Y351441D01*
X405870Y351396D01*
X405738Y351347D01*
X405609Y351295D01*
X405481Y351240D01*
X405354Y351180D01*
X405229Y351117D01*
X405106Y351051D01*
X404985Y350981D01*
X404866Y350908D01*
X404749Y350831D01*
X404635Y350751D01*
X404522Y350668D01*
X404412Y350582D01*
X404305Y350492D01*
X404200Y350400D01*
X404098Y350305D01*
X403998Y350207D01*
X403901Y350106D01*
X403807Y350002D01*
X403717Y349896D01*
X403629Y349787D01*
X403544Y349676D01*
X403463Y349562D01*
X403384Y349447D01*
X403309Y349329D01*
X403238Y349209D01*
X403170Y349086D01*
X403105Y348963D01*
X403044Y348837D01*
X402986Y348709D01*
X402932Y348581D01*
X402882Y348450D01*
X402835Y348318D01*
X402792Y348185D01*
X402753Y348051D01*
X402718Y347916D01*
X402687Y347780D01*
X402659Y347642D01*
X402636Y347505D01*
X402616Y347366D01*
X402600Y347227D01*
X402588Y347088D01*
X402580Y346949D01*
X402576Y346809D01*
X402576Y346669D01*
X402580Y346529D01*
X402588Y346390D01*
X402600Y346251D01*
X402616Y346112D01*
X402636Y345973D01*
X402659Y345836D01*
X402687Y345698D01*
X402718Y345562D01*
X402753Y345427D01*
X402792Y345293D01*
X402835Y345160D01*
X402882Y345028D01*
X402932Y344897D01*
X402986Y344769D01*
X403044Y344641D01*
X403105Y344515D01*
X403170Y344392D01*
X403238Y344270D01*
X403309Y344149D01*
X403384Y344031D01*
X403463Y343916D01*
X403544Y343802D01*
X403629Y343691D01*
X403717Y343582D01*
X403807Y343476D01*
X403901Y343372D01*
X403998Y343271D01*
X404098Y343173D01*
X404200Y343078D01*
X404305Y342986D01*
X404412Y342896D01*
X404522Y342810D01*
X404635Y342727D01*
X404749Y342647D01*
X404866Y342570D01*
X404985Y342497D01*
X405106Y342427D01*
X405229Y342361D01*
X405354Y342298D01*
X405481Y342238D01*
X405609Y342183D01*
X405738Y342131D01*
X405870Y342082D01*
X406002Y342037D01*
X406136Y341996D01*
X406270Y341959D01*
X406406Y341926D01*
X406543Y341897D01*
X406680Y341871D01*
X406818Y341849D01*
X406957Y341832D01*
X407096Y341818D01*
X407236Y341808D01*
X407375Y341802D01*
X407515Y341800D01*
X412454Y341800D01*
X406527Y341800D02*
X402576Y333898D01*
X395789Y349703D02*
X395789Y351678D01*
X385911Y351678D01*
X390850Y333898D01*
X379038Y342788D02*
X379034Y343138D01*
X379021Y343487D01*
X379000Y343836D01*
X378971Y344185D01*
X378934Y344533D01*
X378888Y344880D01*
X378834Y345225D01*
X378772Y345569D01*
X378701Y345912D01*
X378622Y346253D01*
X378536Y346592D01*
X378441Y346928D01*
X378338Y347263D01*
X378227Y347594D01*
X378109Y347924D01*
X377982Y348250D01*
X377848Y348573D01*
X377706Y348892D01*
X377556Y349209D01*
X377516Y349322D01*
X377472Y349432D01*
X377424Y349542D01*
X377373Y349649D01*
X377318Y349755D01*
X377260Y349860D01*
X377198Y349962D01*
X377133Y350062D01*
X377065Y350160D01*
X376994Y350256D01*
X376919Y350349D01*
X376842Y350440D01*
X376762Y350528D01*
X376679Y350613D01*
X376593Y350696D01*
X376504Y350776D01*
X376413Y350853D01*
X376319Y350927D01*
X376223Y350998D01*
X376125Y351066D01*
X376025Y351130D01*
X375922Y351192D01*
X375818Y351249D01*
X375712Y351304D01*
X375604Y351355D01*
X375494Y351402D01*
X375383Y351446D01*
X375271Y351486D01*
X375157Y351522D01*
X375043Y351555D01*
X374927Y351584D01*
X374810Y351609D01*
X374693Y351630D01*
X374575Y351648D01*
X374456Y351661D01*
X374337Y351671D01*
X374218Y351677D01*
X374099Y351679D01*
X374099Y351678D02*
X373980Y351676D01*
X373861Y351670D01*
X373742Y351660D01*
X373623Y351647D01*
X373505Y351629D01*
X373388Y351608D01*
X373271Y351583D01*
X373155Y351554D01*
X373041Y351521D01*
X372927Y351485D01*
X372815Y351445D01*
X372704Y351401D01*
X372594Y351354D01*
X372486Y351303D01*
X372380Y351248D01*
X372276Y351191D01*
X372173Y351129D01*
X372073Y351065D01*
X371975Y350997D01*
X371879Y350926D01*
X371785Y350852D01*
X371694Y350775D01*
X371605Y350695D01*
X371520Y350612D01*
X371436Y350527D01*
X371356Y350439D01*
X371279Y350348D01*
X371204Y350255D01*
X371133Y350159D01*
X371065Y350061D01*
X371000Y349961D01*
X370938Y349859D01*
X370880Y349754D01*
X370825Y349649D01*
X370774Y349541D01*
X370726Y349431D01*
X370682Y349321D01*
X370642Y349208D01*
X370642Y349209D02*
X370492Y348892D01*
X370350Y348573D01*
X370216Y348250D01*
X370089Y347924D01*
X369971Y347594D01*
X369860Y347263D01*
X369757Y346928D01*
X369662Y346592D01*
X369576Y346253D01*
X369497Y345912D01*
X369426Y345569D01*
X369364Y345225D01*
X369310Y344880D01*
X369264Y344533D01*
X369227Y344185D01*
X369198Y343836D01*
X369177Y343487D01*
X369164Y343138D01*
X369160Y342788D01*
X379038Y342788D02*
X379034Y342438D01*
X379021Y342089D01*
X379000Y341740D01*
X378971Y341391D01*
X378934Y341043D01*
X378888Y340696D01*
X378834Y340351D01*
X378772Y340007D01*
X378701Y339664D01*
X378622Y339323D01*
X378536Y338984D01*
X378441Y338648D01*
X378338Y338313D01*
X378227Y337982D01*
X378109Y337653D01*
X377982Y337326D01*
X377848Y337003D01*
X377706Y336684D01*
X377556Y336368D01*
X377516Y336255D01*
X377472Y336145D01*
X377424Y336035D01*
X377373Y335928D01*
X377318Y335822D01*
X377260Y335717D01*
X377198Y335615D01*
X377133Y335515D01*
X377065Y335417D01*
X376994Y335321D01*
X376919Y335228D01*
X376842Y335137D01*
X376762Y335049D01*
X376679Y334964D01*
X376593Y334881D01*
X376504Y334801D01*
X376413Y334724D01*
X376319Y334650D01*
X376223Y334579D01*
X376125Y334511D01*
X376025Y334447D01*
X375922Y334385D01*
X375818Y334328D01*
X375712Y334273D01*
X375604Y334222D01*
X375494Y334175D01*
X375383Y334131D01*
X375271Y334091D01*
X375157Y334055D01*
X375043Y334022D01*
X374927Y333993D01*
X374810Y333968D01*
X374693Y333947D01*
X374575Y333929D01*
X374456Y333916D01*
X374337Y333906D01*
X374218Y333900D01*
X374099Y333898D01*
X370643Y336368D02*
X370493Y336684D01*
X370351Y337003D01*
X370217Y337326D01*
X370090Y337653D01*
X369972Y337982D01*
X369861Y338313D01*
X369758Y338648D01*
X369663Y338984D01*
X369577Y339323D01*
X369498Y339664D01*
X369427Y340007D01*
X369365Y340351D01*
X369311Y340696D01*
X369265Y341043D01*
X369228Y341391D01*
X369199Y341740D01*
X369178Y342089D01*
X369165Y342438D01*
X369161Y342788D01*
X370642Y336368D02*
X370682Y336255D01*
X370726Y336145D01*
X370774Y336035D01*
X370825Y335927D01*
X370880Y335821D01*
X370938Y335717D01*
X371000Y335615D01*
X371065Y335515D01*
X371133Y335417D01*
X371204Y335321D01*
X371279Y335228D01*
X371356Y335137D01*
X371436Y335049D01*
X371520Y334964D01*
X371605Y334881D01*
X371694Y334801D01*
X371785Y334724D01*
X371879Y334650D01*
X371975Y334579D01*
X372073Y334511D01*
X372173Y334447D01*
X372276Y334385D01*
X372380Y334327D01*
X372486Y334273D01*
X372594Y334222D01*
X372704Y334175D01*
X372815Y334131D01*
X372927Y334091D01*
X373041Y334055D01*
X373155Y334022D01*
X373271Y333993D01*
X373388Y333968D01*
X373505Y333947D01*
X373623Y333929D01*
X373742Y333916D01*
X373861Y333906D01*
X373980Y333900D01*
X374099Y333898D01*
X378050Y337849D02*
X370148Y347727D01*
D12*
X329565Y484505D02*
X327025Y493395D01*
X329565Y484505D02*
X323215Y484505D01*
X325120Y487045D02*
X325120Y481965D01*
X318135Y487680D02*
X318132Y487905D01*
X318124Y488130D01*
X318111Y488354D01*
X318092Y488578D01*
X318068Y488802D01*
X318039Y489025D01*
X318004Y489247D01*
X317964Y489468D01*
X317918Y489688D01*
X317868Y489907D01*
X317812Y490125D01*
X317751Y490342D01*
X317685Y490557D01*
X317614Y490770D01*
X317537Y490981D01*
X317456Y491191D01*
X317370Y491399D01*
X317279Y491604D01*
X317183Y491807D01*
X317183Y491808D02*
X317151Y491896D01*
X317115Y491983D01*
X317076Y492069D01*
X317033Y492153D01*
X316987Y492235D01*
X316938Y492315D01*
X316886Y492393D01*
X316830Y492469D01*
X316772Y492543D01*
X316710Y492614D01*
X316646Y492683D01*
X316579Y492749D01*
X316510Y492812D01*
X316438Y492873D01*
X316364Y492931D01*
X316287Y492985D01*
X316209Y493037D01*
X316128Y493085D01*
X316046Y493130D01*
X315961Y493172D01*
X315875Y493210D01*
X315788Y493245D01*
X315700Y493277D01*
X315610Y493304D01*
X315519Y493329D01*
X315427Y493349D01*
X315335Y493366D01*
X315241Y493379D01*
X315148Y493388D01*
X315054Y493394D01*
X314960Y493396D01*
X314866Y493394D01*
X314772Y493388D01*
X314679Y493379D01*
X314585Y493366D01*
X314493Y493349D01*
X314401Y493329D01*
X314310Y493304D01*
X314220Y493277D01*
X314132Y493245D01*
X314045Y493210D01*
X313959Y493172D01*
X313874Y493130D01*
X313792Y493085D01*
X313711Y493037D01*
X313633Y492985D01*
X313556Y492931D01*
X313482Y492873D01*
X313410Y492812D01*
X313341Y492749D01*
X313274Y492683D01*
X313210Y492614D01*
X313148Y492543D01*
X313090Y492469D01*
X313034Y492393D01*
X312982Y492315D01*
X312933Y492235D01*
X312887Y492153D01*
X312844Y492069D01*
X312805Y491983D01*
X312769Y491896D01*
X312737Y491808D01*
X312737Y491807D02*
X312641Y491604D01*
X312550Y491399D01*
X312464Y491191D01*
X312383Y490981D01*
X312306Y490770D01*
X312235Y490557D01*
X312169Y490342D01*
X312108Y490125D01*
X312052Y489907D01*
X312002Y489688D01*
X311956Y489468D01*
X311916Y489247D01*
X311881Y489025D01*
X311852Y488802D01*
X311828Y488578D01*
X311809Y488354D01*
X311796Y488130D01*
X311788Y487905D01*
X311785Y487680D01*
X318135Y487680D02*
X318132Y487455D01*
X318124Y487230D01*
X318111Y487006D01*
X318092Y486782D01*
X318068Y486558D01*
X318039Y486335D01*
X318004Y486113D01*
X317964Y485892D01*
X317918Y485672D01*
X317868Y485453D01*
X317812Y485235D01*
X317751Y485018D01*
X317685Y484803D01*
X317614Y484590D01*
X317537Y484379D01*
X317456Y484169D01*
X317370Y483961D01*
X317279Y483756D01*
X317183Y483553D01*
X317151Y483465D01*
X317115Y483378D01*
X317076Y483292D01*
X317033Y483208D01*
X316987Y483126D01*
X316938Y483046D01*
X316886Y482968D01*
X316830Y482892D01*
X316772Y482818D01*
X316710Y482747D01*
X316646Y482678D01*
X316579Y482612D01*
X316510Y482549D01*
X316438Y482488D01*
X316364Y482430D01*
X316287Y482376D01*
X316209Y482324D01*
X316128Y482276D01*
X316046Y482231D01*
X315961Y482189D01*
X315875Y482151D01*
X315788Y482116D01*
X315700Y482084D01*
X315610Y482057D01*
X315519Y482032D01*
X315427Y482012D01*
X315335Y481995D01*
X315241Y481982D01*
X315148Y481973D01*
X315054Y481967D01*
X314960Y481965D01*
X312737Y483553D02*
X312641Y483756D01*
X312550Y483961D01*
X312464Y484169D01*
X312383Y484379D01*
X312306Y484590D01*
X312235Y484803D01*
X312169Y485018D01*
X312108Y485235D01*
X312052Y485453D01*
X312002Y485672D01*
X311956Y485892D01*
X311916Y486113D01*
X311881Y486335D01*
X311852Y486558D01*
X311828Y486782D01*
X311809Y487006D01*
X311796Y487230D01*
X311788Y487455D01*
X311785Y487680D01*
X312737Y483553D02*
X312769Y483465D01*
X312805Y483378D01*
X312844Y483292D01*
X312887Y483208D01*
X312933Y483126D01*
X312982Y483046D01*
X313034Y482968D01*
X313090Y482892D01*
X313148Y482818D01*
X313210Y482747D01*
X313274Y482678D01*
X313341Y482612D01*
X313410Y482549D01*
X313482Y482488D01*
X313556Y482430D01*
X313633Y482376D01*
X313711Y482324D01*
X313792Y482276D01*
X313874Y482231D01*
X313959Y482189D01*
X314045Y482151D01*
X314132Y482116D01*
X314220Y482084D01*
X314310Y482057D01*
X314401Y482032D01*
X314493Y482012D01*
X314585Y481995D01*
X314679Y481982D01*
X314772Y481973D01*
X314866Y481967D01*
X314960Y481965D01*
X317500Y484505D02*
X312420Y490855D01*
X307340Y493395D02*
X303530Y481965D01*
X299720Y493395D01*
X288671Y489585D02*
X288671Y481965D01*
X288671Y489585D02*
X282956Y489585D01*
X282871Y489583D01*
X282785Y489577D01*
X282700Y489568D01*
X282616Y489554D01*
X282532Y489537D01*
X282449Y489516D01*
X282367Y489492D01*
X282287Y489464D01*
X282207Y489432D01*
X282129Y489396D01*
X282053Y489358D01*
X281979Y489315D01*
X281907Y489270D01*
X281836Y489221D01*
X281768Y489169D01*
X281703Y489115D01*
X281640Y489057D01*
X281579Y488996D01*
X281521Y488933D01*
X281467Y488868D01*
X281415Y488800D01*
X281366Y488729D01*
X281321Y488657D01*
X281278Y488583D01*
X281240Y488507D01*
X281204Y488429D01*
X281172Y488349D01*
X281144Y488269D01*
X281120Y488187D01*
X281099Y488104D01*
X281082Y488020D01*
X281068Y487936D01*
X281059Y487851D01*
X281053Y487765D01*
X281051Y487680D01*
X281051Y481965D01*
X284861Y481965D02*
X284861Y489585D01*
X273434Y486410D02*
X270576Y486410D01*
X273434Y486411D02*
X273527Y486409D01*
X273620Y486403D01*
X273713Y486393D01*
X273805Y486380D01*
X273896Y486362D01*
X273987Y486341D01*
X274077Y486316D01*
X274165Y486287D01*
X274252Y486255D01*
X274338Y486219D01*
X274422Y486179D01*
X274505Y486136D01*
X274586Y486089D01*
X274664Y486040D01*
X274741Y485986D01*
X274815Y485930D01*
X274887Y485871D01*
X274956Y485808D01*
X275022Y485743D01*
X275086Y485675D01*
X275147Y485605D01*
X275205Y485532D01*
X275259Y485457D01*
X275311Y485379D01*
X275359Y485300D01*
X275404Y485218D01*
X275445Y485135D01*
X275483Y485049D01*
X275518Y484963D01*
X275548Y484875D01*
X275575Y484786D01*
X275598Y484696D01*
X275618Y484605D01*
X275633Y484513D01*
X275645Y484420D01*
X275653Y484328D01*
X275657Y484235D01*
X275657Y484141D01*
X275653Y484048D01*
X275645Y483956D01*
X275633Y483863D01*
X275618Y483771D01*
X275598Y483680D01*
X275575Y483590D01*
X275548Y483501D01*
X275518Y483413D01*
X275483Y483327D01*
X275445Y483241D01*
X275404Y483158D01*
X275359Y483077D01*
X275311Y482997D01*
X275259Y482919D01*
X275205Y482844D01*
X275147Y482771D01*
X275086Y482701D01*
X275022Y482633D01*
X274956Y482568D01*
X274887Y482505D01*
X274815Y482446D01*
X274741Y482390D01*
X274664Y482336D01*
X274586Y482287D01*
X274505Y482240D01*
X274422Y482197D01*
X274338Y482157D01*
X274252Y482121D01*
X274165Y482089D01*
X274077Y482060D01*
X273987Y482035D01*
X273896Y482014D01*
X273805Y481996D01*
X273713Y481983D01*
X273620Y481973D01*
X273527Y481967D01*
X273434Y481965D01*
X270576Y481965D01*
X270576Y487680D01*
X270578Y487765D01*
X270584Y487851D01*
X270593Y487936D01*
X270607Y488020D01*
X270624Y488104D01*
X270645Y488187D01*
X270669Y488269D01*
X270697Y488349D01*
X270729Y488429D01*
X270765Y488507D01*
X270803Y488583D01*
X270846Y488657D01*
X270891Y488729D01*
X270940Y488800D01*
X270992Y488868D01*
X271046Y488933D01*
X271104Y488996D01*
X271165Y489057D01*
X271228Y489115D01*
X271293Y489169D01*
X271361Y489221D01*
X271432Y489270D01*
X271504Y489315D01*
X271578Y489358D01*
X271654Y489396D01*
X271732Y489432D01*
X271812Y489464D01*
X271892Y489492D01*
X271974Y489516D01*
X272057Y489537D01*
X272141Y489554D01*
X272225Y489568D01*
X272310Y489577D01*
X272396Y489583D01*
X272481Y489585D01*
X275021Y489585D01*
X265684Y481965D02*
X260604Y489585D01*
X265684Y489585D02*
X260604Y481965D01*
X423545Y490538D02*
X423547Y490642D01*
X423553Y490747D01*
X423562Y490851D01*
X423575Y490954D01*
X423593Y491057D01*
X423613Y491159D01*
X423638Y491261D01*
X423666Y491361D01*
X423698Y491461D01*
X423734Y491559D01*
X423773Y491656D01*
X423815Y491751D01*
X423861Y491845D01*
X423911Y491937D01*
X423963Y492027D01*
X424019Y492115D01*
X424079Y492201D01*
X424141Y492285D01*
X424206Y492366D01*
X424274Y492445D01*
X424346Y492522D01*
X424419Y492595D01*
X424496Y492667D01*
X424575Y492735D01*
X424656Y492800D01*
X424740Y492862D01*
X424826Y492922D01*
X424914Y492978D01*
X425004Y493030D01*
X425096Y493080D01*
X425190Y493126D01*
X425285Y493168D01*
X425382Y493207D01*
X425480Y493243D01*
X425580Y493275D01*
X425680Y493303D01*
X425782Y493328D01*
X425884Y493348D01*
X425987Y493366D01*
X426090Y493379D01*
X426194Y493388D01*
X426299Y493394D01*
X426403Y493396D01*
X426403Y493395D02*
X426521Y493393D01*
X426640Y493387D01*
X426758Y493378D01*
X426875Y493365D01*
X426992Y493347D01*
X427109Y493327D01*
X427225Y493302D01*
X427340Y493274D01*
X427453Y493241D01*
X427566Y493206D01*
X427678Y493166D01*
X427788Y493124D01*
X427897Y493077D01*
X428005Y493027D01*
X428110Y492974D01*
X428214Y492917D01*
X428316Y492857D01*
X428416Y492794D01*
X428514Y492727D01*
X428610Y492658D01*
X428703Y492585D01*
X428794Y492509D01*
X428883Y492431D01*
X428969Y492349D01*
X429052Y492265D01*
X429133Y492179D01*
X429210Y492089D01*
X429285Y491998D01*
X429357Y491904D01*
X429426Y491807D01*
X429491Y491709D01*
X429554Y491608D01*
X429613Y491505D01*
X429669Y491401D01*
X429721Y491295D01*
X429770Y491187D01*
X429815Y491078D01*
X429857Y490967D01*
X429895Y490855D01*
X424497Y488316D02*
X424421Y488391D01*
X424346Y488470D01*
X424275Y488551D01*
X424206Y488635D01*
X424141Y488721D01*
X424079Y488809D01*
X424019Y488899D01*
X423963Y488991D01*
X423910Y489086D01*
X423861Y489182D01*
X423815Y489280D01*
X423772Y489379D01*
X423733Y489480D01*
X423698Y489582D01*
X423666Y489685D01*
X423638Y489789D01*
X423613Y489894D01*
X423592Y490001D01*
X423575Y490107D01*
X423562Y490214D01*
X423553Y490322D01*
X423547Y490430D01*
X423545Y490538D01*
X424498Y488315D02*
X429895Y481965D01*
X423545Y481965D01*
X418465Y487680D02*
X418462Y487905D01*
X418454Y488130D01*
X418441Y488354D01*
X418422Y488578D01*
X418398Y488802D01*
X418369Y489025D01*
X418334Y489247D01*
X418294Y489468D01*
X418248Y489688D01*
X418198Y489907D01*
X418142Y490125D01*
X418081Y490342D01*
X418015Y490557D01*
X417944Y490770D01*
X417867Y490981D01*
X417786Y491191D01*
X417700Y491399D01*
X417609Y491604D01*
X417513Y491807D01*
X417513Y491808D02*
X417481Y491896D01*
X417445Y491983D01*
X417406Y492069D01*
X417363Y492153D01*
X417317Y492235D01*
X417268Y492315D01*
X417216Y492393D01*
X417160Y492469D01*
X417102Y492543D01*
X417040Y492614D01*
X416976Y492683D01*
X416909Y492749D01*
X416840Y492812D01*
X416768Y492873D01*
X416694Y492931D01*
X416617Y492985D01*
X416539Y493037D01*
X416458Y493085D01*
X416376Y493130D01*
X416291Y493172D01*
X416205Y493210D01*
X416118Y493245D01*
X416030Y493277D01*
X415940Y493304D01*
X415849Y493329D01*
X415757Y493349D01*
X415665Y493366D01*
X415571Y493379D01*
X415478Y493388D01*
X415384Y493394D01*
X415290Y493396D01*
X415196Y493394D01*
X415102Y493388D01*
X415009Y493379D01*
X414915Y493366D01*
X414823Y493349D01*
X414731Y493329D01*
X414640Y493304D01*
X414550Y493277D01*
X414462Y493245D01*
X414375Y493210D01*
X414289Y493172D01*
X414204Y493130D01*
X414122Y493085D01*
X414041Y493037D01*
X413963Y492985D01*
X413886Y492931D01*
X413812Y492873D01*
X413740Y492812D01*
X413671Y492749D01*
X413604Y492683D01*
X413540Y492614D01*
X413478Y492543D01*
X413420Y492469D01*
X413364Y492393D01*
X413312Y492315D01*
X413263Y492235D01*
X413217Y492153D01*
X413174Y492069D01*
X413135Y491983D01*
X413099Y491896D01*
X413067Y491808D01*
X413067Y491807D02*
X412971Y491604D01*
X412880Y491399D01*
X412794Y491191D01*
X412713Y490981D01*
X412636Y490770D01*
X412565Y490557D01*
X412499Y490342D01*
X412438Y490125D01*
X412382Y489907D01*
X412332Y489688D01*
X412286Y489468D01*
X412246Y489247D01*
X412211Y489025D01*
X412182Y488802D01*
X412158Y488578D01*
X412139Y488354D01*
X412126Y488130D01*
X412118Y487905D01*
X412115Y487680D01*
X418465Y487680D02*
X418462Y487455D01*
X418454Y487230D01*
X418441Y487006D01*
X418422Y486782D01*
X418398Y486558D01*
X418369Y486335D01*
X418334Y486113D01*
X418294Y485892D01*
X418248Y485672D01*
X418198Y485453D01*
X418142Y485235D01*
X418081Y485018D01*
X418015Y484803D01*
X417944Y484590D01*
X417867Y484379D01*
X417786Y484169D01*
X417700Y483961D01*
X417609Y483756D01*
X417513Y483553D01*
X417481Y483465D01*
X417445Y483378D01*
X417406Y483292D01*
X417363Y483208D01*
X417317Y483126D01*
X417268Y483046D01*
X417216Y482968D01*
X417160Y482892D01*
X417102Y482818D01*
X417040Y482747D01*
X416976Y482678D01*
X416909Y482612D01*
X416840Y482549D01*
X416768Y482488D01*
X416694Y482430D01*
X416617Y482376D01*
X416539Y482324D01*
X416458Y482276D01*
X416376Y482231D01*
X416291Y482189D01*
X416205Y482151D01*
X416118Y482116D01*
X416030Y482084D01*
X415940Y482057D01*
X415849Y482032D01*
X415757Y482012D01*
X415665Y481995D01*
X415571Y481982D01*
X415478Y481973D01*
X415384Y481967D01*
X415290Y481965D01*
X413067Y483553D02*
X412971Y483756D01*
X412880Y483961D01*
X412794Y484169D01*
X412713Y484379D01*
X412636Y484590D01*
X412565Y484803D01*
X412499Y485018D01*
X412438Y485235D01*
X412382Y485453D01*
X412332Y485672D01*
X412286Y485892D01*
X412246Y486113D01*
X412211Y486335D01*
X412182Y486558D01*
X412158Y486782D01*
X412139Y487006D01*
X412126Y487230D01*
X412118Y487455D01*
X412115Y487680D01*
X413067Y483553D02*
X413099Y483465D01*
X413135Y483378D01*
X413174Y483292D01*
X413217Y483208D01*
X413263Y483126D01*
X413312Y483046D01*
X413364Y482968D01*
X413420Y482892D01*
X413478Y482818D01*
X413540Y482747D01*
X413604Y482678D01*
X413671Y482612D01*
X413740Y482549D01*
X413812Y482488D01*
X413886Y482430D01*
X413963Y482376D01*
X414041Y482324D01*
X414122Y482276D01*
X414204Y482231D01*
X414289Y482189D01*
X414375Y482151D01*
X414462Y482116D01*
X414550Y482084D01*
X414640Y482057D01*
X414731Y482032D01*
X414823Y482012D01*
X414915Y481995D01*
X415009Y481982D01*
X415102Y481973D01*
X415196Y481967D01*
X415290Y481965D01*
X417830Y484505D02*
X412750Y490855D01*
X403860Y493395D02*
X407670Y481965D01*
X400050Y481965D02*
X403860Y493395D01*
X401003Y484823D02*
X406718Y484823D01*
X389001Y481965D02*
X389001Y489585D01*
X383286Y489585D01*
X383201Y489583D01*
X383115Y489577D01*
X383030Y489568D01*
X382946Y489554D01*
X382862Y489537D01*
X382779Y489516D01*
X382697Y489492D01*
X382617Y489464D01*
X382537Y489432D01*
X382459Y489396D01*
X382383Y489358D01*
X382309Y489315D01*
X382237Y489270D01*
X382166Y489221D01*
X382098Y489169D01*
X382033Y489115D01*
X381970Y489057D01*
X381909Y488996D01*
X381851Y488933D01*
X381797Y488868D01*
X381745Y488800D01*
X381696Y488729D01*
X381651Y488657D01*
X381608Y488583D01*
X381570Y488507D01*
X381534Y488429D01*
X381502Y488349D01*
X381474Y488269D01*
X381450Y488187D01*
X381429Y488104D01*
X381412Y488020D01*
X381398Y487936D01*
X381389Y487851D01*
X381383Y487765D01*
X381381Y487680D01*
X381381Y481965D01*
X385191Y481965D02*
X385191Y489585D01*
X373764Y486410D02*
X370906Y486410D01*
X373764Y486411D02*
X373857Y486409D01*
X373950Y486403D01*
X374043Y486393D01*
X374135Y486380D01*
X374226Y486362D01*
X374317Y486341D01*
X374407Y486316D01*
X374495Y486287D01*
X374582Y486255D01*
X374668Y486219D01*
X374752Y486179D01*
X374835Y486136D01*
X374916Y486089D01*
X374994Y486040D01*
X375071Y485986D01*
X375145Y485930D01*
X375217Y485871D01*
X375286Y485808D01*
X375352Y485743D01*
X375416Y485675D01*
X375477Y485605D01*
X375535Y485532D01*
X375589Y485457D01*
X375641Y485379D01*
X375689Y485300D01*
X375734Y485218D01*
X375775Y485135D01*
X375813Y485049D01*
X375848Y484963D01*
X375878Y484875D01*
X375905Y484786D01*
X375928Y484696D01*
X375948Y484605D01*
X375963Y484513D01*
X375975Y484420D01*
X375983Y484328D01*
X375987Y484235D01*
X375987Y484141D01*
X375983Y484048D01*
X375975Y483956D01*
X375963Y483863D01*
X375948Y483771D01*
X375928Y483680D01*
X375905Y483590D01*
X375878Y483501D01*
X375848Y483413D01*
X375813Y483327D01*
X375775Y483241D01*
X375734Y483158D01*
X375689Y483077D01*
X375641Y482997D01*
X375589Y482919D01*
X375535Y482844D01*
X375477Y482771D01*
X375416Y482701D01*
X375352Y482633D01*
X375286Y482568D01*
X375217Y482505D01*
X375145Y482446D01*
X375071Y482390D01*
X374994Y482336D01*
X374916Y482287D01*
X374835Y482240D01*
X374752Y482197D01*
X374668Y482157D01*
X374582Y482121D01*
X374495Y482089D01*
X374407Y482060D01*
X374317Y482035D01*
X374226Y482014D01*
X374135Y481996D01*
X374043Y481983D01*
X373950Y481973D01*
X373857Y481967D01*
X373764Y481965D01*
X370906Y481965D01*
X370906Y487680D01*
X370908Y487765D01*
X370914Y487851D01*
X370923Y487936D01*
X370937Y488020D01*
X370954Y488104D01*
X370975Y488187D01*
X370999Y488269D01*
X371027Y488349D01*
X371059Y488429D01*
X371095Y488507D01*
X371133Y488583D01*
X371176Y488657D01*
X371221Y488729D01*
X371270Y488800D01*
X371322Y488868D01*
X371376Y488933D01*
X371434Y488996D01*
X371495Y489057D01*
X371558Y489115D01*
X371623Y489169D01*
X371691Y489221D01*
X371762Y489270D01*
X371834Y489315D01*
X371908Y489358D01*
X371984Y489396D01*
X372062Y489432D01*
X372142Y489464D01*
X372222Y489492D01*
X372304Y489516D01*
X372387Y489537D01*
X372471Y489554D01*
X372555Y489568D01*
X372640Y489577D01*
X372726Y489583D01*
X372811Y489585D01*
X375351Y489585D01*
X366014Y481965D02*
X360934Y489585D01*
X366014Y489585D02*
X360934Y481965D01*
D10*
X379895Y238773D02*
X379895Y218643D01*
D13*
X429151Y224770D02*
X431239Y224770D01*
X431328Y224772D01*
X431416Y224778D01*
X431504Y224787D01*
X431592Y224800D01*
X431679Y224817D01*
X431765Y224837D01*
X431850Y224862D01*
X431935Y224889D01*
X432018Y224921D01*
X432099Y224955D01*
X432179Y224994D01*
X432257Y225035D01*
X432334Y225080D01*
X432408Y225128D01*
X432481Y225179D01*
X432551Y225233D01*
X432618Y225291D01*
X432684Y225351D01*
X432746Y225413D01*
X432806Y225479D01*
X432864Y225546D01*
X432918Y225616D01*
X432969Y225689D01*
X433017Y225763D01*
X433062Y225840D01*
X433103Y225918D01*
X433142Y225998D01*
X433176Y226079D01*
X433208Y226162D01*
X433235Y226247D01*
X433260Y226332D01*
X433280Y226418D01*
X433297Y226505D01*
X433310Y226593D01*
X433319Y226681D01*
X433325Y226769D01*
X433327Y226858D01*
X433328Y226858D02*
X433328Y232080D01*
X433327Y232080D02*
X433325Y232169D01*
X433319Y232257D01*
X433310Y232345D01*
X433297Y232433D01*
X433280Y232520D01*
X433260Y232606D01*
X433235Y232691D01*
X433208Y232776D01*
X433176Y232859D01*
X433142Y232940D01*
X433103Y233020D01*
X433062Y233098D01*
X433017Y233175D01*
X432969Y233249D01*
X432918Y233322D01*
X432864Y233392D01*
X432806Y233459D01*
X432746Y233525D01*
X432684Y233587D01*
X432618Y233647D01*
X432551Y233705D01*
X432481Y233759D01*
X432408Y233810D01*
X432334Y233858D01*
X432257Y233903D01*
X432179Y233944D01*
X432099Y233983D01*
X432018Y234017D01*
X431935Y234049D01*
X431850Y234076D01*
X431765Y234101D01*
X431679Y234121D01*
X431592Y234138D01*
X431504Y234151D01*
X431416Y234160D01*
X431328Y234166D01*
X431239Y234168D01*
X429151Y234168D01*
X422810Y234169D02*
X422715Y234167D01*
X422621Y234161D01*
X422527Y234152D01*
X422433Y234139D01*
X422340Y234122D01*
X422248Y234101D01*
X422156Y234076D01*
X422066Y234048D01*
X421977Y234016D01*
X421889Y233981D01*
X421803Y233942D01*
X421718Y233900D01*
X421635Y233854D01*
X421554Y233805D01*
X421475Y233753D01*
X421398Y233698D01*
X421324Y233639D01*
X421252Y233578D01*
X421182Y233514D01*
X421115Y233447D01*
X421051Y233377D01*
X420990Y233305D01*
X420931Y233231D01*
X420876Y233154D01*
X420824Y233075D01*
X420775Y232994D01*
X420729Y232911D01*
X420687Y232826D01*
X420648Y232740D01*
X420613Y232652D01*
X420581Y232563D01*
X420553Y232473D01*
X420528Y232381D01*
X420507Y232289D01*
X420490Y232196D01*
X420477Y232102D01*
X420468Y232008D01*
X420462Y231914D01*
X420460Y231819D01*
X422810Y234168D02*
X422918Y234166D01*
X423027Y234160D01*
X423135Y234150D01*
X423242Y234137D01*
X423349Y234119D01*
X423456Y234098D01*
X423561Y234073D01*
X423666Y234044D01*
X423769Y234012D01*
X423871Y233975D01*
X423972Y233935D01*
X424071Y233892D01*
X424169Y233845D01*
X424265Y233794D01*
X424359Y233740D01*
X424451Y233683D01*
X424541Y233622D01*
X424629Y233558D01*
X424714Y233492D01*
X424797Y233422D01*
X424877Y233349D01*
X424955Y233273D01*
X425030Y233195D01*
X425102Y233114D01*
X425171Y233030D01*
X425237Y232944D01*
X425300Y232856D01*
X425359Y232765D01*
X425416Y232673D01*
X425469Y232578D01*
X425518Y232481D01*
X425564Y232383D01*
X425607Y232284D01*
X425646Y232182D01*
X425681Y232080D01*
X421244Y229991D02*
X421175Y230060D01*
X421109Y230131D01*
X421045Y230204D01*
X420984Y230280D01*
X420926Y230359D01*
X420872Y230439D01*
X420820Y230522D01*
X420772Y230606D01*
X420726Y230692D01*
X420685Y230780D01*
X420646Y230870D01*
X420611Y230961D01*
X420580Y231053D01*
X420552Y231146D01*
X420528Y231240D01*
X420508Y231335D01*
X420491Y231431D01*
X420478Y231528D01*
X420469Y231625D01*
X420463Y231722D01*
X420461Y231819D01*
X421244Y229991D02*
X425682Y224770D01*
X420461Y224770D01*
D12*
X380440Y305590D02*
X375440Y310590D01*
X310440Y240600D02*
X310440Y240590D01*
X385210Y303240D02*
X385212Y303329D01*
X385218Y303418D01*
X385228Y303507D01*
X385242Y303595D01*
X385259Y303682D01*
X385281Y303768D01*
X385307Y303854D01*
X385336Y303938D01*
X385369Y304021D01*
X385405Y304102D01*
X385446Y304182D01*
X385489Y304259D01*
X385536Y304335D01*
X385587Y304408D01*
X385640Y304479D01*
X385697Y304548D01*
X385757Y304614D01*
X385820Y304678D01*
X385885Y304738D01*
X385953Y304796D01*
X386024Y304850D01*
X386097Y304901D01*
X386172Y304949D01*
X386249Y304994D01*
X386328Y305035D01*
X386409Y305072D01*
X386491Y305106D01*
X386575Y305137D01*
X386660Y305163D01*
X386746Y305186D01*
X386833Y305204D01*
X386921Y305219D01*
X387010Y305230D01*
X387099Y305237D01*
X387188Y305240D01*
X387277Y305239D01*
X387366Y305234D01*
X387454Y305225D01*
X387543Y305212D01*
X387630Y305195D01*
X387717Y305175D01*
X387803Y305150D01*
X387887Y305122D01*
X387970Y305090D01*
X388052Y305054D01*
X388132Y305015D01*
X388210Y304972D01*
X388286Y304926D01*
X388360Y304876D01*
X388432Y304823D01*
X388501Y304767D01*
X388568Y304708D01*
X388632Y304646D01*
X388693Y304582D01*
X388752Y304514D01*
X388807Y304444D01*
X388859Y304372D01*
X388908Y304297D01*
X388953Y304221D01*
X388995Y304142D01*
X389033Y304062D01*
X389068Y303980D01*
X389099Y303896D01*
X389127Y303811D01*
X389150Y303725D01*
X389170Y303638D01*
X389186Y303551D01*
X389198Y303462D01*
X389206Y303374D01*
X389210Y303285D01*
X389210Y303195D01*
X389206Y303106D01*
X389198Y303018D01*
X389186Y302929D01*
X389170Y302842D01*
X389150Y302755D01*
X389127Y302669D01*
X389099Y302584D01*
X389068Y302500D01*
X389033Y302418D01*
X388995Y302338D01*
X388953Y302259D01*
X388908Y302183D01*
X388859Y302108D01*
X388807Y302036D01*
X388752Y301966D01*
X388693Y301898D01*
X388632Y301834D01*
X388568Y301772D01*
X388501Y301713D01*
X388432Y301657D01*
X388360Y301604D01*
X388286Y301554D01*
X388210Y301508D01*
X388132Y301465D01*
X388052Y301426D01*
X387970Y301390D01*
X387887Y301358D01*
X387803Y301330D01*
X387717Y301305D01*
X387630Y301285D01*
X387543Y301268D01*
X387454Y301255D01*
X387366Y301246D01*
X387277Y301241D01*
X387188Y301240D01*
X387099Y301243D01*
X387010Y301250D01*
X386921Y301261D01*
X386833Y301276D01*
X386746Y301294D01*
X386660Y301317D01*
X386575Y301343D01*
X386491Y301374D01*
X386409Y301408D01*
X386328Y301445D01*
X386249Y301486D01*
X386172Y301531D01*
X386097Y301579D01*
X386024Y301630D01*
X385953Y301684D01*
X385885Y301742D01*
X385820Y301802D01*
X385757Y301866D01*
X385697Y301932D01*
X385640Y302001D01*
X385587Y302072D01*
X385536Y302145D01*
X385489Y302221D01*
X385446Y302298D01*
X385405Y302378D01*
X385369Y302459D01*
X385336Y302542D01*
X385307Y302626D01*
X385281Y302712D01*
X385259Y302798D01*
X385242Y302885D01*
X385228Y302973D01*
X385218Y303062D01*
X385212Y303151D01*
X385210Y303240D01*
X310480Y310600D02*
X310480Y310610D01*
X315180Y310610D01*
X315140Y240600D02*
X310440Y240600D01*
X310480Y305910D02*
X310480Y310600D01*
X310430Y245290D02*
X310430Y240590D01*
X375760Y240590D02*
X380460Y240590D01*
X380460Y240580D02*
X380460Y245280D01*
D13*
X324689Y234124D02*
X324689Y227337D01*
X324687Y227236D01*
X324681Y227135D01*
X324671Y227034D01*
X324658Y226934D01*
X324640Y226834D01*
X324619Y226735D01*
X324593Y226637D01*
X324564Y226540D01*
X324532Y226444D01*
X324495Y226350D01*
X324455Y226257D01*
X324411Y226165D01*
X324364Y226076D01*
X324313Y225988D01*
X324259Y225902D01*
X324202Y225819D01*
X324142Y225737D01*
X324078Y225659D01*
X324012Y225582D01*
X323942Y225509D01*
X323870Y225438D01*
X323795Y225370D01*
X323717Y225305D01*
X323637Y225243D01*
X323555Y225184D01*
X323470Y225128D01*
X323383Y225076D01*
X323295Y225027D01*
X323204Y224981D01*
X323112Y224940D01*
X323018Y224901D01*
X322923Y224867D01*
X322827Y224836D01*
X322729Y224809D01*
X322631Y224785D01*
X322531Y224766D01*
X322431Y224750D01*
X322331Y224738D01*
X322230Y224730D01*
X322129Y224726D01*
X322027Y224726D01*
X321926Y224730D01*
X321825Y224738D01*
X321725Y224750D01*
X321625Y224766D01*
X321525Y224785D01*
X321427Y224809D01*
X321329Y224836D01*
X321233Y224867D01*
X321138Y224901D01*
X321044Y224940D01*
X320952Y224981D01*
X320861Y225027D01*
X320773Y225076D01*
X320686Y225128D01*
X320601Y225184D01*
X320519Y225243D01*
X320439Y225305D01*
X320361Y225370D01*
X320286Y225438D01*
X320214Y225509D01*
X320144Y225582D01*
X320078Y225659D01*
X320014Y225737D01*
X319954Y225819D01*
X319897Y225902D01*
X319843Y225988D01*
X319792Y226076D01*
X319745Y226165D01*
X319701Y226257D01*
X319661Y226350D01*
X319624Y226444D01*
X319592Y226540D01*
X319563Y226637D01*
X319537Y226735D01*
X319516Y226834D01*
X319498Y226934D01*
X319485Y227034D01*
X319475Y227135D01*
X319469Y227236D01*
X319467Y227337D01*
X319468Y227337D02*
X319468Y234124D01*
X315240Y232036D02*
X312630Y234124D01*
X312630Y224726D01*
X315240Y224726D02*
X310019Y224726D01*
D14*
X396240Y262890D02*
X396240Y298450D01*
X396240Y262890D02*
X416560Y262890D01*
X416560Y298450D01*
X396240Y298450D01*
D13*
X419887Y281267D02*
X429285Y287533D01*
X429285Y281267D02*
X419887Y287533D01*
X427197Y290933D02*
X429285Y293544D01*
X419887Y293544D01*
X419887Y296154D02*
X419887Y290933D01*
D10*
X287033Y336385D02*
X266903Y336385D01*
D13*
X256815Y305566D02*
X256815Y303478D01*
X256816Y303478D02*
X256818Y303389D01*
X256824Y303301D01*
X256833Y303213D01*
X256846Y303125D01*
X256863Y303038D01*
X256883Y302952D01*
X256908Y302867D01*
X256935Y302782D01*
X256967Y302699D01*
X257001Y302618D01*
X257040Y302538D01*
X257081Y302460D01*
X257126Y302383D01*
X257174Y302309D01*
X257225Y302236D01*
X257279Y302166D01*
X257337Y302099D01*
X257397Y302033D01*
X257459Y301971D01*
X257525Y301911D01*
X257592Y301853D01*
X257662Y301799D01*
X257735Y301748D01*
X257809Y301700D01*
X257886Y301655D01*
X257964Y301614D01*
X258044Y301575D01*
X258125Y301541D01*
X258208Y301509D01*
X258293Y301482D01*
X258378Y301457D01*
X258464Y301437D01*
X258551Y301420D01*
X258639Y301407D01*
X258727Y301398D01*
X258815Y301392D01*
X258904Y301390D01*
X258904Y301389D02*
X264125Y301389D01*
X264125Y301390D02*
X264216Y301392D01*
X264307Y301398D01*
X264398Y301408D01*
X264488Y301422D01*
X264577Y301439D01*
X264665Y301461D01*
X264753Y301487D01*
X264839Y301516D01*
X264924Y301549D01*
X265007Y301586D01*
X265089Y301626D01*
X265169Y301670D01*
X265247Y301717D01*
X265323Y301768D01*
X265396Y301821D01*
X265467Y301878D01*
X265536Y301939D01*
X265601Y302002D01*
X265664Y302067D01*
X265724Y302136D01*
X265782Y302207D01*
X265835Y302280D01*
X265886Y302356D01*
X265933Y302434D01*
X265977Y302514D01*
X266017Y302596D01*
X266054Y302679D01*
X266087Y302764D01*
X266116Y302850D01*
X266142Y302938D01*
X266164Y303026D01*
X266181Y303115D01*
X266195Y303205D01*
X266205Y303296D01*
X266211Y303387D01*
X266213Y303478D01*
X266213Y305566D01*
X266213Y311123D02*
X258904Y309035D01*
X258904Y314256D01*
X260992Y312690D02*
X256815Y312690D01*
D10*
X267957Y233845D02*
X288087Y233845D01*
D13*
X273083Y276738D02*
X273083Y278827D01*
X273084Y276738D02*
X273086Y276649D01*
X273092Y276561D01*
X273101Y276473D01*
X273114Y276385D01*
X273131Y276298D01*
X273151Y276212D01*
X273176Y276127D01*
X273203Y276042D01*
X273235Y275959D01*
X273269Y275878D01*
X273308Y275798D01*
X273349Y275720D01*
X273394Y275643D01*
X273442Y275569D01*
X273493Y275496D01*
X273547Y275426D01*
X273605Y275359D01*
X273665Y275293D01*
X273727Y275231D01*
X273793Y275171D01*
X273860Y275113D01*
X273930Y275059D01*
X274003Y275008D01*
X274077Y274960D01*
X274154Y274915D01*
X274232Y274874D01*
X274312Y274835D01*
X274393Y274801D01*
X274476Y274769D01*
X274561Y274742D01*
X274646Y274717D01*
X274732Y274697D01*
X274819Y274680D01*
X274907Y274667D01*
X274995Y274658D01*
X275083Y274652D01*
X275172Y274650D01*
X280393Y274650D01*
X280484Y274652D01*
X280575Y274658D01*
X280666Y274668D01*
X280756Y274682D01*
X280845Y274699D01*
X280933Y274721D01*
X281021Y274747D01*
X281107Y274776D01*
X281192Y274809D01*
X281275Y274846D01*
X281357Y274886D01*
X281437Y274930D01*
X281515Y274977D01*
X281591Y275028D01*
X281664Y275081D01*
X281735Y275138D01*
X281804Y275199D01*
X281869Y275262D01*
X281932Y275327D01*
X281992Y275396D01*
X282050Y275467D01*
X282103Y275540D01*
X282154Y275616D01*
X282201Y275694D01*
X282245Y275774D01*
X282285Y275856D01*
X282322Y275939D01*
X282355Y276024D01*
X282384Y276110D01*
X282410Y276198D01*
X282432Y276286D01*
X282449Y276375D01*
X282463Y276465D01*
X282473Y276556D01*
X282479Y276647D01*
X282481Y276738D01*
X282481Y278827D01*
X282481Y282296D02*
X281437Y282296D01*
X282481Y282296D02*
X282481Y287517D01*
X273083Y284906D01*
X436240Y245321D02*
X438328Y245321D01*
X438328Y245322D02*
X438417Y245324D01*
X438505Y245330D01*
X438593Y245339D01*
X438681Y245352D01*
X438768Y245369D01*
X438854Y245389D01*
X438939Y245414D01*
X439024Y245441D01*
X439107Y245473D01*
X439188Y245507D01*
X439268Y245546D01*
X439346Y245587D01*
X439423Y245632D01*
X439497Y245680D01*
X439570Y245731D01*
X439640Y245785D01*
X439707Y245843D01*
X439773Y245903D01*
X439835Y245965D01*
X439895Y246031D01*
X439953Y246098D01*
X440007Y246168D01*
X440058Y246241D01*
X440106Y246315D01*
X440151Y246392D01*
X440192Y246470D01*
X440231Y246550D01*
X440265Y246631D01*
X440297Y246714D01*
X440324Y246799D01*
X440349Y246884D01*
X440369Y246970D01*
X440386Y247057D01*
X440399Y247145D01*
X440408Y247233D01*
X440414Y247321D01*
X440416Y247410D01*
X440417Y247410D02*
X440417Y252631D01*
X440416Y252631D02*
X440414Y252720D01*
X440408Y252808D01*
X440399Y252896D01*
X440386Y252984D01*
X440369Y253071D01*
X440349Y253157D01*
X440324Y253242D01*
X440297Y253327D01*
X440265Y253410D01*
X440231Y253491D01*
X440192Y253571D01*
X440151Y253649D01*
X440106Y253726D01*
X440058Y253800D01*
X440007Y253873D01*
X439953Y253943D01*
X439895Y254010D01*
X439835Y254076D01*
X439773Y254138D01*
X439707Y254198D01*
X439640Y254256D01*
X439570Y254310D01*
X439497Y254361D01*
X439423Y254409D01*
X439346Y254454D01*
X439268Y254495D01*
X439188Y254534D01*
X439107Y254568D01*
X439024Y254600D01*
X438939Y254627D01*
X438854Y254652D01*
X438768Y254672D01*
X438681Y254689D01*
X438593Y254702D01*
X438505Y254711D01*
X438417Y254717D01*
X438328Y254719D01*
X436240Y254719D01*
X432771Y252631D02*
X430161Y254719D01*
X430161Y245321D01*
X432771Y245321D02*
X427550Y245321D01*
X292953Y329901D02*
X292953Y331990D01*
X292954Y329901D02*
X292956Y329812D01*
X292962Y329724D01*
X292971Y329636D01*
X292984Y329548D01*
X293001Y329461D01*
X293021Y329375D01*
X293046Y329290D01*
X293073Y329205D01*
X293105Y329122D01*
X293139Y329041D01*
X293178Y328961D01*
X293219Y328883D01*
X293264Y328806D01*
X293312Y328732D01*
X293363Y328659D01*
X293417Y328589D01*
X293475Y328522D01*
X293535Y328456D01*
X293597Y328394D01*
X293663Y328334D01*
X293730Y328276D01*
X293800Y328222D01*
X293873Y328171D01*
X293947Y328123D01*
X294024Y328078D01*
X294102Y328037D01*
X294182Y327998D01*
X294263Y327964D01*
X294346Y327932D01*
X294431Y327905D01*
X294516Y327880D01*
X294602Y327860D01*
X294689Y327843D01*
X294777Y327830D01*
X294865Y327821D01*
X294953Y327815D01*
X295042Y327813D01*
X300263Y327813D01*
X300354Y327815D01*
X300445Y327821D01*
X300536Y327831D01*
X300626Y327845D01*
X300715Y327862D01*
X300803Y327884D01*
X300891Y327910D01*
X300977Y327939D01*
X301062Y327972D01*
X301145Y328009D01*
X301227Y328049D01*
X301307Y328093D01*
X301385Y328140D01*
X301461Y328191D01*
X301534Y328244D01*
X301605Y328301D01*
X301674Y328362D01*
X301739Y328425D01*
X301802Y328490D01*
X301862Y328559D01*
X301920Y328630D01*
X301973Y328703D01*
X302024Y328779D01*
X302071Y328857D01*
X302115Y328937D01*
X302155Y329019D01*
X302192Y329102D01*
X302225Y329187D01*
X302254Y329273D01*
X302280Y329361D01*
X302302Y329449D01*
X302319Y329538D01*
X302333Y329628D01*
X302343Y329719D01*
X302349Y329810D01*
X302351Y329901D01*
X302351Y331990D01*
X292953Y335458D02*
X292953Y338069D01*
X292955Y338170D01*
X292961Y338271D01*
X292971Y338372D01*
X292984Y338472D01*
X293002Y338572D01*
X293023Y338671D01*
X293049Y338769D01*
X293078Y338866D01*
X293110Y338962D01*
X293147Y339056D01*
X293187Y339149D01*
X293231Y339241D01*
X293278Y339330D01*
X293329Y339418D01*
X293383Y339504D01*
X293440Y339587D01*
X293500Y339669D01*
X293564Y339747D01*
X293630Y339824D01*
X293700Y339897D01*
X293772Y339968D01*
X293847Y340036D01*
X293925Y340101D01*
X294005Y340163D01*
X294087Y340222D01*
X294172Y340278D01*
X294259Y340330D01*
X294347Y340379D01*
X294438Y340425D01*
X294530Y340466D01*
X294624Y340505D01*
X294719Y340539D01*
X294815Y340570D01*
X294913Y340597D01*
X295011Y340621D01*
X295111Y340640D01*
X295211Y340656D01*
X295311Y340668D01*
X295412Y340676D01*
X295513Y340680D01*
X295615Y340680D01*
X295716Y340676D01*
X295817Y340668D01*
X295917Y340656D01*
X296017Y340640D01*
X296117Y340621D01*
X296215Y340597D01*
X296313Y340570D01*
X296409Y340539D01*
X296504Y340505D01*
X296598Y340466D01*
X296690Y340425D01*
X296781Y340379D01*
X296870Y340330D01*
X296956Y340278D01*
X297041Y340222D01*
X297123Y340163D01*
X297203Y340101D01*
X297281Y340036D01*
X297356Y339968D01*
X297428Y339897D01*
X297498Y339824D01*
X297564Y339747D01*
X297628Y339669D01*
X297688Y339587D01*
X297745Y339504D01*
X297799Y339418D01*
X297850Y339330D01*
X297897Y339241D01*
X297941Y339149D01*
X297981Y339056D01*
X298018Y338962D01*
X298050Y338866D01*
X298079Y338769D01*
X298105Y338671D01*
X298126Y338572D01*
X298144Y338472D01*
X298157Y338372D01*
X298167Y338271D01*
X298173Y338170D01*
X298175Y338069D01*
X302351Y338591D02*
X302351Y335458D01*
X302351Y338591D02*
X302349Y338681D01*
X302343Y338770D01*
X302334Y338860D01*
X302320Y338949D01*
X302303Y339037D01*
X302282Y339124D01*
X302257Y339211D01*
X302228Y339296D01*
X302196Y339380D01*
X302161Y339462D01*
X302121Y339543D01*
X302079Y339622D01*
X302033Y339699D01*
X301983Y339774D01*
X301931Y339847D01*
X301875Y339918D01*
X301817Y339986D01*
X301755Y340051D01*
X301691Y340114D01*
X301624Y340174D01*
X301555Y340231D01*
X301483Y340285D01*
X301409Y340336D01*
X301333Y340384D01*
X301255Y340428D01*
X301175Y340469D01*
X301093Y340507D01*
X301010Y340541D01*
X300925Y340571D01*
X300839Y340598D01*
X300753Y340621D01*
X300665Y340640D01*
X300576Y340655D01*
X300487Y340667D01*
X300398Y340675D01*
X300308Y340679D01*
X300218Y340679D01*
X300128Y340675D01*
X300039Y340667D01*
X299950Y340655D01*
X299861Y340640D01*
X299773Y340621D01*
X299687Y340598D01*
X299601Y340571D01*
X299516Y340541D01*
X299433Y340507D01*
X299351Y340469D01*
X299271Y340428D01*
X299193Y340384D01*
X299117Y340336D01*
X299043Y340285D01*
X298971Y340231D01*
X298902Y340174D01*
X298835Y340114D01*
X298771Y340051D01*
X298709Y339986D01*
X298651Y339918D01*
X298595Y339847D01*
X298543Y339774D01*
X298493Y339699D01*
X298447Y339622D01*
X298405Y339543D01*
X298365Y339462D01*
X298330Y339380D01*
X298298Y339296D01*
X298269Y339211D01*
X298244Y339124D01*
X298223Y339037D01*
X298206Y338949D01*
X298192Y338860D01*
X298183Y338770D01*
X298177Y338681D01*
X298175Y338591D01*
X298174Y338591D02*
X298174Y336503D01*
X293626Y228045D02*
X293626Y225956D01*
X293627Y225956D02*
X293629Y225867D01*
X293635Y225779D01*
X293644Y225691D01*
X293657Y225603D01*
X293674Y225516D01*
X293694Y225430D01*
X293719Y225345D01*
X293746Y225260D01*
X293778Y225177D01*
X293812Y225096D01*
X293851Y225016D01*
X293892Y224938D01*
X293937Y224861D01*
X293985Y224787D01*
X294036Y224714D01*
X294090Y224644D01*
X294148Y224577D01*
X294208Y224511D01*
X294270Y224449D01*
X294336Y224389D01*
X294403Y224331D01*
X294473Y224277D01*
X294546Y224226D01*
X294620Y224178D01*
X294697Y224133D01*
X294775Y224092D01*
X294855Y224053D01*
X294936Y224019D01*
X295019Y223987D01*
X295104Y223960D01*
X295189Y223935D01*
X295275Y223915D01*
X295362Y223898D01*
X295450Y223885D01*
X295538Y223876D01*
X295626Y223870D01*
X295715Y223868D01*
X300936Y223868D01*
X301027Y223870D01*
X301118Y223876D01*
X301209Y223886D01*
X301299Y223900D01*
X301388Y223917D01*
X301476Y223939D01*
X301564Y223965D01*
X301650Y223994D01*
X301735Y224027D01*
X301818Y224064D01*
X301900Y224104D01*
X301980Y224148D01*
X302058Y224195D01*
X302134Y224246D01*
X302207Y224299D01*
X302278Y224356D01*
X302347Y224417D01*
X302412Y224480D01*
X302475Y224545D01*
X302535Y224614D01*
X302593Y224685D01*
X302646Y224758D01*
X302697Y224834D01*
X302744Y224912D01*
X302788Y224992D01*
X302828Y225074D01*
X302865Y225157D01*
X302898Y225242D01*
X302927Y225328D01*
X302953Y225416D01*
X302975Y225504D01*
X302992Y225593D01*
X303006Y225683D01*
X303016Y225774D01*
X303022Y225865D01*
X303024Y225956D01*
X303024Y228045D01*
X293626Y231514D02*
X293626Y234646D01*
X293627Y234646D02*
X293629Y234735D01*
X293635Y234823D01*
X293644Y234911D01*
X293657Y234999D01*
X293674Y235086D01*
X293694Y235172D01*
X293719Y235257D01*
X293746Y235342D01*
X293778Y235425D01*
X293812Y235506D01*
X293851Y235586D01*
X293892Y235664D01*
X293937Y235741D01*
X293985Y235815D01*
X294036Y235888D01*
X294090Y235958D01*
X294148Y236025D01*
X294208Y236091D01*
X294270Y236153D01*
X294336Y236213D01*
X294403Y236271D01*
X294473Y236325D01*
X294546Y236376D01*
X294620Y236424D01*
X294697Y236469D01*
X294775Y236510D01*
X294855Y236549D01*
X294936Y236583D01*
X295019Y236615D01*
X295104Y236642D01*
X295189Y236667D01*
X295275Y236687D01*
X295362Y236704D01*
X295450Y236717D01*
X295538Y236726D01*
X295626Y236732D01*
X295715Y236734D01*
X295715Y236735D02*
X296759Y236735D01*
X296759Y236734D02*
X296848Y236732D01*
X296936Y236726D01*
X297024Y236717D01*
X297112Y236704D01*
X297199Y236687D01*
X297285Y236667D01*
X297370Y236642D01*
X297455Y236615D01*
X297538Y236583D01*
X297619Y236549D01*
X297699Y236510D01*
X297777Y236469D01*
X297854Y236424D01*
X297928Y236376D01*
X298001Y236325D01*
X298071Y236271D01*
X298138Y236213D01*
X298204Y236153D01*
X298266Y236091D01*
X298326Y236025D01*
X298384Y235958D01*
X298438Y235888D01*
X298489Y235815D01*
X298537Y235741D01*
X298582Y235664D01*
X298623Y235586D01*
X298662Y235506D01*
X298696Y235425D01*
X298728Y235342D01*
X298755Y235257D01*
X298780Y235172D01*
X298800Y235086D01*
X298817Y234999D01*
X298830Y234911D01*
X298839Y234823D01*
X298845Y234735D01*
X298847Y234646D01*
X298847Y231514D01*
X303024Y231514D01*
X303024Y236735D01*
X413913Y303781D02*
X413913Y305869D01*
X413914Y303781D02*
X413916Y303692D01*
X413922Y303604D01*
X413931Y303516D01*
X413944Y303428D01*
X413961Y303341D01*
X413981Y303255D01*
X414006Y303170D01*
X414033Y303085D01*
X414065Y303002D01*
X414099Y302921D01*
X414138Y302841D01*
X414179Y302763D01*
X414224Y302686D01*
X414272Y302612D01*
X414323Y302539D01*
X414377Y302469D01*
X414435Y302402D01*
X414495Y302336D01*
X414557Y302274D01*
X414623Y302214D01*
X414690Y302156D01*
X414760Y302102D01*
X414833Y302051D01*
X414907Y302003D01*
X414984Y301958D01*
X415062Y301917D01*
X415142Y301878D01*
X415223Y301844D01*
X415306Y301812D01*
X415391Y301785D01*
X415476Y301760D01*
X415562Y301740D01*
X415649Y301723D01*
X415737Y301710D01*
X415825Y301701D01*
X415913Y301695D01*
X416002Y301693D01*
X416002Y301692D02*
X421223Y301692D01*
X421223Y301693D02*
X421314Y301695D01*
X421405Y301701D01*
X421496Y301711D01*
X421586Y301725D01*
X421675Y301742D01*
X421763Y301764D01*
X421851Y301790D01*
X421937Y301819D01*
X422022Y301852D01*
X422105Y301889D01*
X422187Y301929D01*
X422267Y301973D01*
X422345Y302020D01*
X422421Y302071D01*
X422494Y302124D01*
X422565Y302181D01*
X422634Y302242D01*
X422699Y302305D01*
X422762Y302370D01*
X422822Y302439D01*
X422880Y302510D01*
X422933Y302583D01*
X422984Y302659D01*
X423031Y302737D01*
X423075Y302817D01*
X423115Y302899D01*
X423152Y302982D01*
X423185Y303067D01*
X423214Y303153D01*
X423240Y303241D01*
X423262Y303329D01*
X423279Y303418D01*
X423293Y303508D01*
X423303Y303599D01*
X423309Y303690D01*
X423311Y303781D01*
X423311Y305869D01*
X419134Y309338D02*
X419134Y312471D01*
X419132Y312560D01*
X419126Y312648D01*
X419117Y312736D01*
X419104Y312824D01*
X419087Y312911D01*
X419067Y312997D01*
X419042Y313082D01*
X419015Y313167D01*
X418983Y313250D01*
X418949Y313331D01*
X418910Y313411D01*
X418869Y313489D01*
X418824Y313566D01*
X418776Y313640D01*
X418725Y313713D01*
X418671Y313783D01*
X418613Y313850D01*
X418553Y313916D01*
X418491Y313978D01*
X418425Y314038D01*
X418358Y314096D01*
X418288Y314150D01*
X418215Y314201D01*
X418141Y314249D01*
X418064Y314294D01*
X417986Y314335D01*
X417906Y314374D01*
X417825Y314408D01*
X417742Y314440D01*
X417657Y314467D01*
X417572Y314492D01*
X417486Y314512D01*
X417399Y314529D01*
X417311Y314542D01*
X417223Y314551D01*
X417135Y314557D01*
X417046Y314559D01*
X416524Y314559D01*
X416423Y314557D01*
X416322Y314551D01*
X416221Y314541D01*
X416121Y314528D01*
X416021Y314510D01*
X415922Y314489D01*
X415824Y314463D01*
X415727Y314434D01*
X415631Y314402D01*
X415537Y314365D01*
X415444Y314325D01*
X415352Y314281D01*
X415263Y314234D01*
X415175Y314183D01*
X415089Y314129D01*
X415006Y314072D01*
X414924Y314012D01*
X414846Y313948D01*
X414769Y313882D01*
X414696Y313812D01*
X414625Y313740D01*
X414557Y313665D01*
X414492Y313587D01*
X414430Y313507D01*
X414371Y313425D01*
X414315Y313340D01*
X414263Y313254D01*
X414214Y313165D01*
X414168Y313074D01*
X414127Y312982D01*
X414088Y312888D01*
X414054Y312793D01*
X414023Y312697D01*
X413996Y312599D01*
X413972Y312501D01*
X413953Y312401D01*
X413937Y312301D01*
X413925Y312201D01*
X413917Y312100D01*
X413913Y311999D01*
X413913Y311897D01*
X413917Y311796D01*
X413925Y311695D01*
X413937Y311595D01*
X413953Y311495D01*
X413972Y311395D01*
X413996Y311297D01*
X414023Y311199D01*
X414054Y311103D01*
X414088Y311008D01*
X414127Y310914D01*
X414168Y310822D01*
X414214Y310731D01*
X414263Y310643D01*
X414315Y310556D01*
X414371Y310471D01*
X414430Y310389D01*
X414492Y310309D01*
X414557Y310231D01*
X414625Y310156D01*
X414696Y310084D01*
X414769Y310014D01*
X414846Y309948D01*
X414924Y309884D01*
X415006Y309824D01*
X415089Y309767D01*
X415175Y309713D01*
X415263Y309662D01*
X415352Y309615D01*
X415444Y309571D01*
X415537Y309531D01*
X415631Y309494D01*
X415727Y309462D01*
X415824Y309433D01*
X415922Y309407D01*
X416021Y309386D01*
X416121Y309368D01*
X416221Y309355D01*
X416322Y309345D01*
X416423Y309339D01*
X416524Y309337D01*
X416524Y309338D02*
X419134Y309338D01*
X419263Y309340D01*
X419391Y309346D01*
X419519Y309356D01*
X419647Y309370D01*
X419775Y309387D01*
X419902Y309409D01*
X420028Y309435D01*
X420153Y309464D01*
X420277Y309497D01*
X420400Y309535D01*
X420522Y309575D01*
X420643Y309620D01*
X420762Y309668D01*
X420880Y309720D01*
X420996Y309776D01*
X421110Y309835D01*
X421222Y309898D01*
X421333Y309964D01*
X421441Y310033D01*
X421547Y310106D01*
X421651Y310182D01*
X421753Y310261D01*
X421852Y310343D01*
X421948Y310428D01*
X422042Y310516D01*
X422133Y310607D01*
X422221Y310701D01*
X422306Y310797D01*
X422388Y310896D01*
X422467Y310998D01*
X422543Y311102D01*
X422616Y311208D01*
X422685Y311316D01*
X422751Y311426D01*
X422814Y311539D01*
X422873Y311653D01*
X422929Y311769D01*
X422981Y311887D01*
X423029Y312006D01*
X423074Y312127D01*
X423114Y312249D01*
X423152Y312372D01*
X423185Y312496D01*
X423214Y312621D01*
X423240Y312747D01*
X423262Y312874D01*
X423279Y313002D01*
X423293Y313130D01*
X423303Y313258D01*
X423309Y313386D01*
X423311Y313515D01*
X360763Y318797D02*
X358674Y318797D01*
X360763Y318797D02*
X360852Y318799D01*
X360940Y318805D01*
X361028Y318814D01*
X361116Y318827D01*
X361203Y318844D01*
X361289Y318864D01*
X361374Y318889D01*
X361459Y318916D01*
X361542Y318948D01*
X361623Y318982D01*
X361703Y319021D01*
X361781Y319062D01*
X361858Y319107D01*
X361932Y319155D01*
X362005Y319206D01*
X362075Y319260D01*
X362142Y319318D01*
X362208Y319378D01*
X362270Y319440D01*
X362330Y319506D01*
X362388Y319573D01*
X362442Y319643D01*
X362493Y319716D01*
X362541Y319790D01*
X362586Y319867D01*
X362627Y319945D01*
X362666Y320025D01*
X362700Y320106D01*
X362732Y320189D01*
X362759Y320274D01*
X362784Y320359D01*
X362804Y320445D01*
X362821Y320532D01*
X362834Y320620D01*
X362843Y320708D01*
X362849Y320796D01*
X362851Y320885D01*
X362851Y326106D01*
X362849Y326195D01*
X362843Y326283D01*
X362834Y326371D01*
X362821Y326459D01*
X362804Y326546D01*
X362784Y326632D01*
X362759Y326717D01*
X362732Y326802D01*
X362700Y326885D01*
X362666Y326966D01*
X362627Y327046D01*
X362586Y327124D01*
X362541Y327201D01*
X362493Y327275D01*
X362442Y327348D01*
X362388Y327418D01*
X362330Y327485D01*
X362270Y327551D01*
X362208Y327613D01*
X362142Y327673D01*
X362075Y327731D01*
X362005Y327785D01*
X361932Y327836D01*
X361858Y327884D01*
X361781Y327929D01*
X361703Y327970D01*
X361623Y328009D01*
X361542Y328043D01*
X361459Y328075D01*
X361374Y328102D01*
X361289Y328127D01*
X361203Y328147D01*
X361116Y328164D01*
X361028Y328177D01*
X360940Y328186D01*
X360852Y328192D01*
X360763Y328194D01*
X360763Y328195D02*
X358674Y328195D01*
X353117Y322974D02*
X349984Y322974D01*
X353117Y322974D02*
X353206Y322976D01*
X353294Y322982D01*
X353382Y322991D01*
X353470Y323004D01*
X353557Y323021D01*
X353643Y323041D01*
X353728Y323066D01*
X353813Y323093D01*
X353896Y323125D01*
X353977Y323159D01*
X354057Y323198D01*
X354135Y323239D01*
X354212Y323284D01*
X354286Y323332D01*
X354359Y323383D01*
X354429Y323437D01*
X354496Y323495D01*
X354562Y323555D01*
X354624Y323617D01*
X354684Y323683D01*
X354742Y323750D01*
X354796Y323820D01*
X354847Y323893D01*
X354895Y323967D01*
X354940Y324044D01*
X354981Y324122D01*
X355020Y324202D01*
X355054Y324283D01*
X355086Y324366D01*
X355113Y324451D01*
X355138Y324536D01*
X355158Y324622D01*
X355175Y324709D01*
X355188Y324797D01*
X355197Y324885D01*
X355203Y324973D01*
X355205Y325062D01*
X355205Y325584D01*
X355206Y325584D02*
X355204Y325685D01*
X355198Y325786D01*
X355188Y325887D01*
X355175Y325987D01*
X355157Y326087D01*
X355136Y326186D01*
X355110Y326284D01*
X355081Y326381D01*
X355049Y326477D01*
X355012Y326571D01*
X354972Y326664D01*
X354928Y326756D01*
X354881Y326845D01*
X354830Y326933D01*
X354776Y327019D01*
X354719Y327102D01*
X354659Y327184D01*
X354595Y327262D01*
X354529Y327339D01*
X354459Y327412D01*
X354387Y327483D01*
X354312Y327551D01*
X354234Y327616D01*
X354154Y327678D01*
X354072Y327737D01*
X353987Y327793D01*
X353901Y327845D01*
X353812Y327894D01*
X353721Y327940D01*
X353629Y327981D01*
X353535Y328020D01*
X353440Y328054D01*
X353344Y328085D01*
X353246Y328112D01*
X353148Y328136D01*
X353048Y328155D01*
X352948Y328171D01*
X352848Y328183D01*
X352747Y328191D01*
X352646Y328195D01*
X352544Y328195D01*
X352443Y328191D01*
X352342Y328183D01*
X352242Y328171D01*
X352142Y328155D01*
X352042Y328136D01*
X351944Y328112D01*
X351846Y328085D01*
X351750Y328054D01*
X351655Y328020D01*
X351561Y327981D01*
X351469Y327940D01*
X351378Y327894D01*
X351290Y327845D01*
X351203Y327793D01*
X351118Y327737D01*
X351036Y327678D01*
X350956Y327616D01*
X350878Y327551D01*
X350803Y327483D01*
X350731Y327412D01*
X350661Y327339D01*
X350595Y327262D01*
X350531Y327184D01*
X350471Y327102D01*
X350414Y327019D01*
X350360Y326933D01*
X350309Y326845D01*
X350262Y326756D01*
X350218Y326664D01*
X350178Y326571D01*
X350141Y326477D01*
X350109Y326381D01*
X350080Y326284D01*
X350054Y326186D01*
X350033Y326087D01*
X350015Y325987D01*
X350002Y325887D01*
X349992Y325786D01*
X349986Y325685D01*
X349984Y325584D01*
X349984Y322974D01*
X349986Y322848D01*
X349992Y322722D01*
X350001Y322596D01*
X350014Y322471D01*
X350032Y322346D01*
X350052Y322221D01*
X350077Y322097D01*
X350105Y321974D01*
X350137Y321852D01*
X350173Y321731D01*
X350212Y321611D01*
X350255Y321493D01*
X350302Y321376D01*
X350352Y321260D01*
X350406Y321145D01*
X350462Y321033D01*
X350523Y320922D01*
X350586Y320813D01*
X350653Y320706D01*
X350723Y320601D01*
X350797Y320498D01*
X350873Y320398D01*
X350952Y320300D01*
X351034Y320204D01*
X351120Y320111D01*
X351207Y320020D01*
X351298Y319933D01*
X351391Y319847D01*
X351487Y319765D01*
X351585Y319686D01*
X351685Y319610D01*
X351788Y319536D01*
X351893Y319466D01*
X352000Y319399D01*
X352109Y319336D01*
X352220Y319275D01*
X352332Y319219D01*
X352447Y319165D01*
X352563Y319115D01*
X352680Y319068D01*
X352798Y319025D01*
X352918Y318986D01*
X353039Y318950D01*
X353161Y318918D01*
X353284Y318890D01*
X353408Y318865D01*
X353533Y318845D01*
X353658Y318827D01*
X353783Y318814D01*
X353909Y318805D01*
X354035Y318799D01*
X354161Y318797D01*
X368680Y395507D02*
X368680Y404905D01*
X366070Y404905D01*
X366070Y404906D02*
X365969Y404904D01*
X365868Y404898D01*
X365767Y404888D01*
X365667Y404875D01*
X365567Y404857D01*
X365468Y404836D01*
X365370Y404810D01*
X365273Y404781D01*
X365177Y404749D01*
X365083Y404712D01*
X364990Y404672D01*
X364898Y404628D01*
X364809Y404581D01*
X364721Y404530D01*
X364635Y404476D01*
X364552Y404419D01*
X364470Y404359D01*
X364392Y404295D01*
X364315Y404229D01*
X364242Y404159D01*
X364171Y404087D01*
X364103Y404012D01*
X364038Y403934D01*
X363976Y403854D01*
X363917Y403772D01*
X363861Y403687D01*
X363809Y403601D01*
X363760Y403512D01*
X363714Y403421D01*
X363673Y403329D01*
X363634Y403235D01*
X363600Y403140D01*
X363569Y403044D01*
X363542Y402946D01*
X363518Y402848D01*
X363499Y402748D01*
X363483Y402648D01*
X363471Y402548D01*
X363463Y402447D01*
X363459Y402346D01*
X363459Y402244D01*
X363463Y402143D01*
X363471Y402042D01*
X363483Y401942D01*
X363499Y401842D01*
X363518Y401742D01*
X363542Y401644D01*
X363569Y401546D01*
X363600Y401450D01*
X363634Y401355D01*
X363673Y401261D01*
X363714Y401169D01*
X363760Y401078D01*
X363809Y400990D01*
X363861Y400903D01*
X363917Y400818D01*
X363976Y400736D01*
X364038Y400656D01*
X364103Y400578D01*
X364171Y400503D01*
X364242Y400431D01*
X364315Y400361D01*
X364392Y400295D01*
X364470Y400231D01*
X364552Y400171D01*
X364635Y400114D01*
X364721Y400060D01*
X364809Y400009D01*
X364898Y399962D01*
X364990Y399918D01*
X365083Y399878D01*
X365177Y399841D01*
X365273Y399809D01*
X365370Y399780D01*
X365468Y399754D01*
X365567Y399733D01*
X365667Y399715D01*
X365767Y399702D01*
X365868Y399692D01*
X365969Y399686D01*
X366070Y399684D01*
X368680Y399684D01*
X365547Y399684D02*
X363459Y395507D01*
X354372Y402556D02*
X354374Y402651D01*
X354380Y402745D01*
X354389Y402839D01*
X354402Y402933D01*
X354419Y403026D01*
X354440Y403118D01*
X354465Y403210D01*
X354493Y403300D01*
X354525Y403389D01*
X354560Y403477D01*
X354599Y403563D01*
X354641Y403648D01*
X354687Y403731D01*
X354736Y403812D01*
X354788Y403891D01*
X354843Y403968D01*
X354902Y404042D01*
X354963Y404114D01*
X355027Y404184D01*
X355094Y404251D01*
X355164Y404315D01*
X355236Y404376D01*
X355310Y404435D01*
X355387Y404490D01*
X355466Y404542D01*
X355547Y404591D01*
X355630Y404637D01*
X355715Y404679D01*
X355801Y404718D01*
X355889Y404753D01*
X355978Y404785D01*
X356068Y404813D01*
X356160Y404838D01*
X356252Y404859D01*
X356345Y404876D01*
X356439Y404889D01*
X356533Y404898D01*
X356627Y404904D01*
X356722Y404906D01*
X356722Y404905D02*
X356830Y404903D01*
X356939Y404897D01*
X357047Y404887D01*
X357154Y404874D01*
X357261Y404856D01*
X357368Y404835D01*
X357473Y404810D01*
X357578Y404781D01*
X357681Y404749D01*
X357783Y404712D01*
X357884Y404672D01*
X357983Y404629D01*
X358081Y404582D01*
X358177Y404531D01*
X358271Y404477D01*
X358363Y404420D01*
X358453Y404359D01*
X358541Y404295D01*
X358626Y404229D01*
X358709Y404159D01*
X358789Y404086D01*
X358867Y404010D01*
X358942Y403932D01*
X359014Y403851D01*
X359083Y403767D01*
X359149Y403681D01*
X359212Y403593D01*
X359271Y403502D01*
X359328Y403410D01*
X359381Y403315D01*
X359430Y403218D01*
X359476Y403120D01*
X359519Y403021D01*
X359558Y402919D01*
X359593Y402817D01*
X355155Y400728D02*
X355086Y400797D01*
X355020Y400868D01*
X354956Y400941D01*
X354895Y401017D01*
X354837Y401096D01*
X354783Y401176D01*
X354731Y401259D01*
X354683Y401343D01*
X354637Y401429D01*
X354596Y401517D01*
X354557Y401607D01*
X354522Y401698D01*
X354491Y401790D01*
X354463Y401883D01*
X354439Y401977D01*
X354419Y402072D01*
X354402Y402168D01*
X354389Y402265D01*
X354380Y402362D01*
X354374Y402459D01*
X354372Y402556D01*
X355155Y400729D02*
X359593Y395507D01*
X354372Y395507D01*
X318389Y343083D02*
X318389Y338907D01*
X318389Y343083D02*
X318387Y343184D01*
X318381Y343285D01*
X318371Y343386D01*
X318358Y343486D01*
X318340Y343586D01*
X318319Y343685D01*
X318293Y343783D01*
X318264Y343880D01*
X318232Y343976D01*
X318195Y344070D01*
X318155Y344163D01*
X318111Y344255D01*
X318064Y344344D01*
X318013Y344432D01*
X317959Y344518D01*
X317902Y344601D01*
X317842Y344683D01*
X317778Y344761D01*
X317712Y344838D01*
X317642Y344911D01*
X317570Y344982D01*
X317495Y345050D01*
X317417Y345115D01*
X317337Y345177D01*
X317255Y345236D01*
X317170Y345292D01*
X317084Y345344D01*
X316995Y345393D01*
X316904Y345439D01*
X316812Y345480D01*
X316718Y345519D01*
X316623Y345553D01*
X316527Y345584D01*
X316429Y345611D01*
X316331Y345635D01*
X316231Y345654D01*
X316131Y345670D01*
X316031Y345682D01*
X315930Y345690D01*
X315829Y345694D01*
X315727Y345694D01*
X315626Y345690D01*
X315525Y345682D01*
X315425Y345670D01*
X315325Y345654D01*
X315225Y345635D01*
X315127Y345611D01*
X315029Y345584D01*
X314933Y345553D01*
X314838Y345519D01*
X314744Y345480D01*
X314652Y345439D01*
X314561Y345393D01*
X314473Y345344D01*
X314386Y345292D01*
X314301Y345236D01*
X314219Y345177D01*
X314139Y345115D01*
X314061Y345050D01*
X313986Y344982D01*
X313914Y344911D01*
X313844Y344838D01*
X313778Y344761D01*
X313714Y344683D01*
X313654Y344601D01*
X313597Y344518D01*
X313543Y344432D01*
X313492Y344344D01*
X313445Y344255D01*
X313401Y344163D01*
X313361Y344070D01*
X313324Y343976D01*
X313292Y343880D01*
X313263Y343783D01*
X313237Y343685D01*
X313216Y343586D01*
X313198Y343486D01*
X313185Y343386D01*
X313175Y343285D01*
X313169Y343184D01*
X313167Y343083D01*
X313168Y343083D02*
X313168Y338907D01*
X313167Y338907D02*
X313169Y338806D01*
X313175Y338705D01*
X313185Y338604D01*
X313198Y338504D01*
X313216Y338404D01*
X313237Y338305D01*
X313263Y338207D01*
X313292Y338110D01*
X313324Y338014D01*
X313361Y337920D01*
X313401Y337827D01*
X313445Y337735D01*
X313492Y337646D01*
X313543Y337558D01*
X313597Y337472D01*
X313654Y337389D01*
X313714Y337307D01*
X313778Y337229D01*
X313844Y337152D01*
X313914Y337079D01*
X313986Y337008D01*
X314061Y336940D01*
X314139Y336875D01*
X314219Y336813D01*
X314301Y336754D01*
X314386Y336698D01*
X314473Y336646D01*
X314561Y336597D01*
X314652Y336551D01*
X314744Y336510D01*
X314838Y336471D01*
X314933Y336437D01*
X315029Y336406D01*
X315127Y336379D01*
X315225Y336355D01*
X315325Y336336D01*
X315425Y336320D01*
X315525Y336308D01*
X315626Y336300D01*
X315727Y336296D01*
X315829Y336296D01*
X315930Y336300D01*
X316031Y336308D01*
X316131Y336320D01*
X316231Y336336D01*
X316331Y336355D01*
X316429Y336379D01*
X316527Y336406D01*
X316623Y336437D01*
X316718Y336471D01*
X316812Y336510D01*
X316904Y336551D01*
X316995Y336597D01*
X317083Y336646D01*
X317170Y336698D01*
X317255Y336754D01*
X317337Y336813D01*
X317417Y336875D01*
X317495Y336940D01*
X317570Y337008D01*
X317642Y337079D01*
X317712Y337152D01*
X317778Y337229D01*
X317842Y337307D01*
X317902Y337389D01*
X317959Y337472D01*
X318013Y337558D01*
X318064Y337646D01*
X318111Y337735D01*
X318155Y337827D01*
X318195Y337920D01*
X318232Y338014D01*
X318264Y338110D01*
X318293Y338207D01*
X318319Y338305D01*
X318340Y338404D01*
X318358Y338504D01*
X318371Y338604D01*
X318381Y338705D01*
X318387Y338806D01*
X318389Y338907D01*
X314212Y338384D02*
X312124Y336296D01*
X309457Y343606D02*
X306847Y345694D01*
X306847Y336296D01*
X309457Y336296D02*
X304236Y336296D01*
D10*
X258877Y337985D02*
X238747Y337985D01*
D13*
X217551Y361879D02*
X217551Y363968D01*
X217551Y361879D02*
X217553Y361790D01*
X217559Y361702D01*
X217568Y361614D01*
X217581Y361526D01*
X217598Y361439D01*
X217618Y361353D01*
X217643Y361268D01*
X217670Y361183D01*
X217702Y361100D01*
X217736Y361019D01*
X217775Y360939D01*
X217816Y360861D01*
X217861Y360784D01*
X217909Y360710D01*
X217960Y360637D01*
X218014Y360567D01*
X218072Y360500D01*
X218132Y360434D01*
X218194Y360372D01*
X218260Y360312D01*
X218327Y360254D01*
X218397Y360200D01*
X218470Y360149D01*
X218544Y360101D01*
X218621Y360056D01*
X218699Y360015D01*
X218779Y359976D01*
X218860Y359942D01*
X218943Y359910D01*
X219028Y359883D01*
X219113Y359858D01*
X219199Y359838D01*
X219286Y359821D01*
X219374Y359808D01*
X219462Y359799D01*
X219550Y359793D01*
X219639Y359791D01*
X224861Y359791D01*
X224952Y359793D01*
X225043Y359799D01*
X225134Y359809D01*
X225224Y359823D01*
X225313Y359840D01*
X225401Y359862D01*
X225489Y359888D01*
X225575Y359917D01*
X225660Y359950D01*
X225743Y359987D01*
X225825Y360027D01*
X225905Y360071D01*
X225983Y360118D01*
X226059Y360169D01*
X226132Y360222D01*
X226203Y360279D01*
X226272Y360340D01*
X226337Y360403D01*
X226400Y360468D01*
X226460Y360537D01*
X226518Y360608D01*
X226571Y360681D01*
X226622Y360757D01*
X226669Y360835D01*
X226713Y360915D01*
X226753Y360997D01*
X226790Y361080D01*
X226823Y361165D01*
X226852Y361251D01*
X226878Y361339D01*
X226900Y361427D01*
X226917Y361516D01*
X226931Y361606D01*
X226941Y361697D01*
X226947Y361788D01*
X226949Y361879D01*
X226949Y363968D01*
X224861Y367437D02*
X226949Y370047D01*
X217551Y370047D01*
X217551Y367437D02*
X217551Y372658D01*
X222250Y376580D02*
X222435Y376582D01*
X222620Y376589D01*
X222804Y376600D01*
X222988Y376615D01*
X223172Y376635D01*
X223356Y376659D01*
X223538Y376688D01*
X223720Y376721D01*
X223901Y376758D01*
X224081Y376800D01*
X224261Y376846D01*
X224439Y376896D01*
X224615Y376950D01*
X224791Y377009D01*
X224965Y377071D01*
X225137Y377138D01*
X225308Y377209D01*
X225477Y377284D01*
X225644Y377363D01*
X225724Y377393D01*
X225803Y377426D01*
X225880Y377463D01*
X225956Y377503D01*
X226030Y377546D01*
X226102Y377592D01*
X226171Y377642D01*
X226239Y377694D01*
X226304Y377750D01*
X226367Y377808D01*
X226426Y377870D01*
X226484Y377933D01*
X226538Y378000D01*
X226589Y378068D01*
X226637Y378139D01*
X226682Y378212D01*
X226724Y378286D01*
X226762Y378363D01*
X226797Y378441D01*
X226829Y378520D01*
X226857Y378601D01*
X226881Y378683D01*
X226902Y378767D01*
X226919Y378850D01*
X226932Y378935D01*
X226941Y379020D01*
X226947Y379105D01*
X226949Y379191D01*
X226947Y379277D01*
X226941Y379362D01*
X226932Y379447D01*
X226919Y379532D01*
X226902Y379615D01*
X226881Y379699D01*
X226857Y379781D01*
X226829Y379862D01*
X226797Y379941D01*
X226762Y380019D01*
X226724Y380096D01*
X226682Y380170D01*
X226637Y380243D01*
X226589Y380314D01*
X226538Y380382D01*
X226484Y380449D01*
X226426Y380512D01*
X226367Y380574D01*
X226304Y380632D01*
X226239Y380688D01*
X226171Y380740D01*
X226102Y380790D01*
X226030Y380836D01*
X225956Y380879D01*
X225880Y380919D01*
X225803Y380956D01*
X225724Y380989D01*
X225644Y381019D01*
X225477Y381098D01*
X225308Y381173D01*
X225137Y381244D01*
X224965Y381311D01*
X224791Y381373D01*
X224615Y381432D01*
X224439Y381486D01*
X224261Y381536D01*
X224081Y381582D01*
X223901Y381624D01*
X223720Y381661D01*
X223538Y381694D01*
X223356Y381723D01*
X223172Y381747D01*
X222988Y381767D01*
X222804Y381782D01*
X222620Y381793D01*
X222435Y381800D01*
X222250Y381802D01*
X222250Y376581D02*
X222065Y376583D01*
X221880Y376590D01*
X221696Y376601D01*
X221512Y376616D01*
X221328Y376636D01*
X221144Y376660D01*
X220962Y376689D01*
X220780Y376722D01*
X220599Y376759D01*
X220419Y376801D01*
X220239Y376847D01*
X220061Y376897D01*
X219885Y376951D01*
X219709Y377010D01*
X219535Y377072D01*
X219363Y377139D01*
X219192Y377210D01*
X219023Y377285D01*
X218856Y377364D01*
X218856Y377363D02*
X218776Y377393D01*
X218697Y377426D01*
X218620Y377463D01*
X218544Y377503D01*
X218470Y377546D01*
X218398Y377592D01*
X218329Y377642D01*
X218261Y377695D01*
X218196Y377750D01*
X218133Y377809D01*
X218074Y377870D01*
X218016Y377933D01*
X217962Y378000D01*
X217911Y378068D01*
X217863Y378139D01*
X217818Y378212D01*
X217776Y378286D01*
X217738Y378363D01*
X217703Y378441D01*
X217671Y378520D01*
X217643Y378601D01*
X217619Y378683D01*
X217598Y378767D01*
X217581Y378850D01*
X217568Y378935D01*
X217559Y379020D01*
X217553Y379105D01*
X217551Y379191D01*
X218856Y381019D02*
X219023Y381098D01*
X219192Y381173D01*
X219363Y381244D01*
X219535Y381311D01*
X219709Y381373D01*
X219885Y381432D01*
X220061Y381486D01*
X220239Y381536D01*
X220419Y381582D01*
X220599Y381624D01*
X220780Y381661D01*
X220962Y381694D01*
X221144Y381723D01*
X221328Y381747D01*
X221512Y381767D01*
X221696Y381782D01*
X221880Y381793D01*
X222065Y381800D01*
X222250Y381802D01*
X218856Y381019D02*
X218776Y380989D01*
X218697Y380956D01*
X218620Y380919D01*
X218544Y380879D01*
X218470Y380836D01*
X218398Y380790D01*
X218329Y380740D01*
X218261Y380688D01*
X218196Y380632D01*
X218133Y380574D01*
X218074Y380512D01*
X218016Y380449D01*
X217962Y380382D01*
X217911Y380314D01*
X217863Y380243D01*
X217818Y380170D01*
X217776Y380096D01*
X217738Y380019D01*
X217703Y379941D01*
X217671Y379862D01*
X217643Y379781D01*
X217619Y379699D01*
X217598Y379615D01*
X217581Y379532D01*
X217568Y379447D01*
X217559Y379362D01*
X217553Y379277D01*
X217551Y379191D01*
X219639Y377103D02*
X224861Y381280D01*
D10*
X375666Y377190D02*
X375666Y372618D01*
X397002Y372618D02*
X397002Y377190D01*
X394208Y376174D02*
X394164Y376074D01*
X394124Y375973D01*
X394088Y375870D01*
X394056Y375765D01*
X394027Y375660D01*
X394002Y375554D01*
X393980Y375447D01*
X393963Y375339D01*
X393949Y375231D01*
X393940Y375122D01*
X393934Y375013D01*
X393932Y374904D01*
X393934Y374795D01*
X393940Y374686D01*
X393949Y374577D01*
X393963Y374469D01*
X393980Y374361D01*
X394002Y374254D01*
X394027Y374148D01*
X394056Y374043D01*
X394088Y373938D01*
X394124Y373835D01*
X394164Y373734D01*
X394208Y373634D01*
D13*
X399994Y360137D02*
X403973Y360137D01*
X399994Y360137D02*
X397009Y362458D01*
X399994Y360137D02*
X397009Y357815D01*
X399994Y360137D02*
X401320Y363784D01*
X399994Y360137D02*
X401320Y356489D01*
X402026Y366141D02*
X408813Y366141D01*
X402026Y366141D02*
X401925Y366143D01*
X401824Y366149D01*
X401723Y366159D01*
X401623Y366172D01*
X401523Y366190D01*
X401424Y366211D01*
X401326Y366237D01*
X401229Y366266D01*
X401133Y366298D01*
X401039Y366335D01*
X400946Y366375D01*
X400854Y366419D01*
X400765Y366466D01*
X400677Y366517D01*
X400591Y366571D01*
X400508Y366628D01*
X400426Y366688D01*
X400348Y366752D01*
X400271Y366818D01*
X400198Y366888D01*
X400127Y366960D01*
X400059Y367035D01*
X399994Y367113D01*
X399932Y367193D01*
X399873Y367275D01*
X399817Y367360D01*
X399765Y367447D01*
X399716Y367535D01*
X399670Y367626D01*
X399629Y367718D01*
X399590Y367812D01*
X399556Y367907D01*
X399525Y368003D01*
X399498Y368101D01*
X399474Y368199D01*
X399455Y368299D01*
X399439Y368399D01*
X399427Y368499D01*
X399419Y368600D01*
X399415Y368701D01*
X399415Y368803D01*
X399419Y368904D01*
X399427Y369005D01*
X399439Y369105D01*
X399455Y369205D01*
X399474Y369305D01*
X399498Y369403D01*
X399525Y369501D01*
X399556Y369597D01*
X399590Y369692D01*
X399629Y369786D01*
X399670Y369878D01*
X399716Y369969D01*
X399765Y370058D01*
X399817Y370144D01*
X399873Y370229D01*
X399932Y370311D01*
X399994Y370391D01*
X400059Y370469D01*
X400127Y370544D01*
X400198Y370616D01*
X400271Y370686D01*
X400348Y370752D01*
X400426Y370816D01*
X400508Y370876D01*
X400591Y370933D01*
X400677Y370987D01*
X400765Y371038D01*
X400854Y371085D01*
X400946Y371129D01*
X401039Y371169D01*
X401133Y371206D01*
X401229Y371238D01*
X401326Y371267D01*
X401424Y371293D01*
X401523Y371314D01*
X401623Y371332D01*
X401723Y371345D01*
X401824Y371355D01*
X401925Y371361D01*
X402026Y371363D01*
X402026Y371362D02*
X408813Y371362D01*
X408814Y378461D02*
X408812Y378556D01*
X408806Y378650D01*
X408797Y378744D01*
X408784Y378838D01*
X408767Y378931D01*
X408746Y379023D01*
X408721Y379115D01*
X408693Y379205D01*
X408661Y379294D01*
X408626Y379382D01*
X408587Y379468D01*
X408545Y379553D01*
X408499Y379636D01*
X408450Y379717D01*
X408398Y379796D01*
X408343Y379873D01*
X408284Y379947D01*
X408223Y380019D01*
X408159Y380089D01*
X408092Y380156D01*
X408022Y380220D01*
X407950Y380281D01*
X407876Y380340D01*
X407799Y380395D01*
X407720Y380447D01*
X407639Y380496D01*
X407556Y380542D01*
X407471Y380584D01*
X407385Y380623D01*
X407297Y380658D01*
X407208Y380690D01*
X407118Y380718D01*
X407026Y380743D01*
X406934Y380764D01*
X406841Y380781D01*
X406747Y380794D01*
X406653Y380803D01*
X406559Y380809D01*
X406464Y380811D01*
X408813Y378461D02*
X408811Y378353D01*
X408805Y378244D01*
X408795Y378136D01*
X408782Y378029D01*
X408764Y377922D01*
X408743Y377815D01*
X408718Y377710D01*
X408689Y377605D01*
X408657Y377502D01*
X408620Y377400D01*
X408580Y377299D01*
X408537Y377200D01*
X408490Y377102D01*
X408439Y377006D01*
X408385Y376912D01*
X408328Y376820D01*
X408267Y376730D01*
X408203Y376642D01*
X408137Y376557D01*
X408067Y376474D01*
X407994Y376394D01*
X407918Y376316D01*
X407840Y376241D01*
X407759Y376169D01*
X407675Y376100D01*
X407589Y376034D01*
X407501Y375971D01*
X407410Y375912D01*
X407318Y375855D01*
X407223Y375802D01*
X407127Y375753D01*
X407028Y375707D01*
X406929Y375664D01*
X406827Y375625D01*
X406725Y375590D01*
X404636Y380028D02*
X404705Y380097D01*
X404776Y380163D01*
X404849Y380227D01*
X404925Y380288D01*
X405004Y380346D01*
X405084Y380400D01*
X405167Y380452D01*
X405251Y380500D01*
X405337Y380546D01*
X405425Y380587D01*
X405515Y380626D01*
X405606Y380661D01*
X405698Y380692D01*
X405791Y380720D01*
X405885Y380744D01*
X405980Y380764D01*
X406076Y380781D01*
X406173Y380794D01*
X406270Y380803D01*
X406367Y380809D01*
X406464Y380811D01*
X404636Y380028D02*
X399415Y375590D01*
X399415Y380811D01*
X374721Y415671D02*
X372632Y415671D01*
X374721Y415671D02*
X374810Y415673D01*
X374898Y415679D01*
X374986Y415688D01*
X375074Y415701D01*
X375161Y415718D01*
X375247Y415738D01*
X375332Y415763D01*
X375417Y415790D01*
X375500Y415822D01*
X375581Y415856D01*
X375661Y415895D01*
X375739Y415936D01*
X375816Y415981D01*
X375890Y416029D01*
X375963Y416080D01*
X376033Y416134D01*
X376100Y416192D01*
X376166Y416252D01*
X376228Y416314D01*
X376288Y416380D01*
X376346Y416447D01*
X376400Y416517D01*
X376451Y416590D01*
X376499Y416664D01*
X376544Y416741D01*
X376585Y416819D01*
X376624Y416899D01*
X376658Y416980D01*
X376690Y417063D01*
X376717Y417148D01*
X376742Y417233D01*
X376762Y417319D01*
X376779Y417406D01*
X376792Y417494D01*
X376801Y417582D01*
X376807Y417670D01*
X376809Y417759D01*
X376809Y422981D01*
X376807Y423070D01*
X376801Y423158D01*
X376792Y423246D01*
X376779Y423334D01*
X376762Y423421D01*
X376742Y423507D01*
X376717Y423592D01*
X376690Y423677D01*
X376658Y423760D01*
X376624Y423841D01*
X376585Y423921D01*
X376544Y423999D01*
X376499Y424076D01*
X376451Y424150D01*
X376400Y424223D01*
X376346Y424293D01*
X376288Y424360D01*
X376228Y424426D01*
X376166Y424488D01*
X376100Y424548D01*
X376033Y424606D01*
X375963Y424660D01*
X375890Y424711D01*
X375816Y424759D01*
X375739Y424804D01*
X375661Y424845D01*
X375581Y424884D01*
X375500Y424918D01*
X375417Y424950D01*
X375332Y424977D01*
X375247Y425002D01*
X375161Y425022D01*
X375074Y425039D01*
X374986Y425052D01*
X374898Y425061D01*
X374810Y425067D01*
X374721Y425069D01*
X372632Y425069D01*
X369163Y422981D02*
X366553Y425069D01*
X366553Y415671D01*
X369163Y415671D02*
X363942Y415671D01*
X354798Y422720D02*
X354800Y422815D01*
X354806Y422909D01*
X354815Y423003D01*
X354828Y423097D01*
X354845Y423190D01*
X354866Y423282D01*
X354891Y423374D01*
X354919Y423464D01*
X354951Y423553D01*
X354986Y423641D01*
X355025Y423727D01*
X355067Y423812D01*
X355113Y423895D01*
X355162Y423976D01*
X355214Y424055D01*
X355269Y424132D01*
X355328Y424206D01*
X355389Y424278D01*
X355453Y424348D01*
X355520Y424415D01*
X355590Y424479D01*
X355662Y424540D01*
X355736Y424599D01*
X355813Y424654D01*
X355892Y424706D01*
X355973Y424755D01*
X356056Y424801D01*
X356141Y424843D01*
X356227Y424882D01*
X356315Y424917D01*
X356404Y424949D01*
X356494Y424977D01*
X356586Y425002D01*
X356678Y425023D01*
X356771Y425040D01*
X356865Y425053D01*
X356959Y425062D01*
X357053Y425068D01*
X357148Y425070D01*
X357148Y425069D02*
X357256Y425067D01*
X357365Y425061D01*
X357473Y425051D01*
X357580Y425038D01*
X357687Y425020D01*
X357794Y424999D01*
X357899Y424974D01*
X358004Y424945D01*
X358107Y424913D01*
X358209Y424876D01*
X358310Y424836D01*
X358409Y424793D01*
X358507Y424746D01*
X358603Y424695D01*
X358697Y424641D01*
X358789Y424584D01*
X358879Y424523D01*
X358967Y424459D01*
X359052Y424393D01*
X359135Y424323D01*
X359215Y424250D01*
X359293Y424174D01*
X359368Y424096D01*
X359440Y424015D01*
X359509Y423931D01*
X359575Y423845D01*
X359638Y423757D01*
X359697Y423666D01*
X359754Y423574D01*
X359807Y423479D01*
X359856Y423382D01*
X359902Y423284D01*
X359945Y423185D01*
X359984Y423083D01*
X360019Y422981D01*
X355581Y420892D02*
X355512Y420961D01*
X355446Y421032D01*
X355382Y421105D01*
X355321Y421181D01*
X355263Y421260D01*
X355209Y421340D01*
X355157Y421423D01*
X355109Y421507D01*
X355063Y421593D01*
X355022Y421681D01*
X354983Y421771D01*
X354948Y421862D01*
X354917Y421954D01*
X354889Y422047D01*
X354865Y422141D01*
X354845Y422236D01*
X354828Y422332D01*
X354815Y422429D01*
X354806Y422526D01*
X354800Y422623D01*
X354798Y422720D01*
X355581Y420892D02*
X360019Y415671D01*
X354798Y415671D01*
X353441Y339290D02*
X353441Y337202D01*
X353443Y337113D01*
X353449Y337025D01*
X353458Y336937D01*
X353471Y336849D01*
X353488Y336762D01*
X353508Y336676D01*
X353533Y336591D01*
X353560Y336506D01*
X353592Y336423D01*
X353626Y336342D01*
X353665Y336262D01*
X353706Y336184D01*
X353751Y336107D01*
X353799Y336033D01*
X353850Y335960D01*
X353904Y335890D01*
X353962Y335823D01*
X354022Y335757D01*
X354084Y335695D01*
X354150Y335635D01*
X354217Y335577D01*
X354287Y335523D01*
X354360Y335472D01*
X354434Y335424D01*
X354511Y335379D01*
X354589Y335338D01*
X354669Y335299D01*
X354750Y335265D01*
X354833Y335233D01*
X354918Y335206D01*
X355003Y335181D01*
X355089Y335161D01*
X355176Y335144D01*
X355264Y335131D01*
X355352Y335122D01*
X355440Y335116D01*
X355529Y335114D01*
X355529Y335113D02*
X360751Y335113D01*
X360751Y335114D02*
X360842Y335116D01*
X360933Y335122D01*
X361024Y335132D01*
X361114Y335146D01*
X361203Y335163D01*
X361291Y335185D01*
X361379Y335211D01*
X361465Y335240D01*
X361550Y335273D01*
X361633Y335310D01*
X361715Y335350D01*
X361795Y335394D01*
X361873Y335441D01*
X361949Y335492D01*
X362022Y335545D01*
X362093Y335602D01*
X362162Y335663D01*
X362227Y335726D01*
X362290Y335791D01*
X362350Y335860D01*
X362408Y335931D01*
X362461Y336004D01*
X362512Y336080D01*
X362559Y336158D01*
X362603Y336238D01*
X362643Y336320D01*
X362680Y336403D01*
X362713Y336488D01*
X362742Y336574D01*
X362768Y336662D01*
X362790Y336750D01*
X362807Y336839D01*
X362821Y336929D01*
X362831Y337020D01*
X362837Y337111D01*
X362839Y337202D01*
X362839Y339290D01*
X360751Y342759D02*
X362839Y345369D01*
X353441Y345369D01*
X353441Y342759D02*
X353441Y347980D01*
X360751Y351903D02*
X362839Y354513D01*
X353441Y354513D01*
X353441Y351903D02*
X353441Y357124D01*
X408173Y394203D02*
X408173Y403601D01*
X405562Y403601D01*
X405461Y403599D01*
X405360Y403593D01*
X405259Y403583D01*
X405159Y403570D01*
X405059Y403552D01*
X404960Y403531D01*
X404862Y403505D01*
X404765Y403476D01*
X404669Y403444D01*
X404575Y403407D01*
X404482Y403367D01*
X404390Y403323D01*
X404301Y403276D01*
X404213Y403225D01*
X404127Y403171D01*
X404044Y403114D01*
X403962Y403054D01*
X403884Y402990D01*
X403807Y402924D01*
X403734Y402854D01*
X403663Y402782D01*
X403595Y402707D01*
X403530Y402629D01*
X403468Y402549D01*
X403409Y402467D01*
X403353Y402382D01*
X403301Y402296D01*
X403252Y402207D01*
X403206Y402116D01*
X403165Y402024D01*
X403126Y401930D01*
X403092Y401835D01*
X403061Y401739D01*
X403034Y401641D01*
X403010Y401543D01*
X402991Y401443D01*
X402975Y401343D01*
X402963Y401243D01*
X402955Y401142D01*
X402951Y401041D01*
X402951Y400939D01*
X402955Y400838D01*
X402963Y400737D01*
X402975Y400637D01*
X402991Y400537D01*
X403010Y400437D01*
X403034Y400339D01*
X403061Y400241D01*
X403092Y400145D01*
X403126Y400050D01*
X403165Y399956D01*
X403206Y399864D01*
X403252Y399773D01*
X403301Y399685D01*
X403353Y399598D01*
X403409Y399513D01*
X403468Y399431D01*
X403530Y399351D01*
X403595Y399273D01*
X403663Y399198D01*
X403734Y399126D01*
X403807Y399056D01*
X403884Y398990D01*
X403962Y398926D01*
X404044Y398866D01*
X404127Y398809D01*
X404213Y398755D01*
X404301Y398704D01*
X404390Y398657D01*
X404482Y398613D01*
X404575Y398573D01*
X404669Y398536D01*
X404765Y398504D01*
X404862Y398475D01*
X404960Y398449D01*
X405059Y398428D01*
X405159Y398410D01*
X405259Y398397D01*
X405360Y398387D01*
X405461Y398381D01*
X405562Y398379D01*
X405562Y398380D02*
X408173Y398380D01*
X405040Y398380D02*
X402952Y394203D01*
X399086Y401512D02*
X396476Y403601D01*
X396476Y394203D01*
X399086Y394203D02*
X393865Y394203D01*
X389942Y398902D02*
X389940Y399087D01*
X389933Y399272D01*
X389922Y399456D01*
X389907Y399640D01*
X389887Y399824D01*
X389863Y400008D01*
X389834Y400190D01*
X389801Y400372D01*
X389764Y400553D01*
X389722Y400733D01*
X389676Y400913D01*
X389626Y401091D01*
X389572Y401267D01*
X389513Y401443D01*
X389451Y401617D01*
X389384Y401789D01*
X389313Y401960D01*
X389238Y402129D01*
X389159Y402296D01*
X389160Y402296D02*
X389130Y402376D01*
X389097Y402455D01*
X389060Y402532D01*
X389020Y402608D01*
X388977Y402682D01*
X388931Y402754D01*
X388881Y402823D01*
X388829Y402891D01*
X388773Y402956D01*
X388715Y403019D01*
X388653Y403078D01*
X388590Y403136D01*
X388523Y403190D01*
X388455Y403241D01*
X388384Y403289D01*
X388311Y403334D01*
X388237Y403376D01*
X388160Y403414D01*
X388082Y403449D01*
X388003Y403481D01*
X387922Y403509D01*
X387840Y403533D01*
X387756Y403554D01*
X387673Y403571D01*
X387588Y403584D01*
X387503Y403593D01*
X387418Y403599D01*
X387332Y403601D01*
X387246Y403599D01*
X387161Y403593D01*
X387076Y403584D01*
X386991Y403571D01*
X386908Y403554D01*
X386824Y403533D01*
X386742Y403509D01*
X386662Y403481D01*
X386582Y403449D01*
X386504Y403414D01*
X386427Y403376D01*
X386353Y403334D01*
X386280Y403289D01*
X386209Y403241D01*
X386141Y403190D01*
X386074Y403136D01*
X386011Y403078D01*
X385950Y403019D01*
X385891Y402956D01*
X385836Y402891D01*
X385783Y402823D01*
X385733Y402754D01*
X385687Y402682D01*
X385644Y402608D01*
X385604Y402532D01*
X385567Y402455D01*
X385534Y402376D01*
X385504Y402296D01*
X385425Y402129D01*
X385350Y401960D01*
X385279Y401789D01*
X385212Y401617D01*
X385150Y401443D01*
X385091Y401267D01*
X385037Y401091D01*
X384987Y400913D01*
X384941Y400733D01*
X384899Y400553D01*
X384862Y400372D01*
X384829Y400190D01*
X384800Y400008D01*
X384776Y399824D01*
X384756Y399640D01*
X384741Y399456D01*
X384730Y399272D01*
X384723Y399087D01*
X384721Y398902D01*
X389942Y398902D02*
X389940Y398717D01*
X389933Y398532D01*
X389922Y398348D01*
X389907Y398164D01*
X389887Y397980D01*
X389863Y397796D01*
X389834Y397614D01*
X389801Y397432D01*
X389764Y397251D01*
X389722Y397071D01*
X389676Y396891D01*
X389626Y396713D01*
X389572Y396537D01*
X389513Y396361D01*
X389451Y396187D01*
X389384Y396015D01*
X389313Y395844D01*
X389238Y395675D01*
X389159Y395508D01*
X389160Y395508D02*
X389130Y395428D01*
X389097Y395349D01*
X389060Y395272D01*
X389020Y395196D01*
X388977Y395122D01*
X388931Y395050D01*
X388881Y394981D01*
X388828Y394913D01*
X388773Y394848D01*
X388714Y394785D01*
X388653Y394726D01*
X388590Y394668D01*
X388523Y394614D01*
X388455Y394563D01*
X388384Y394515D01*
X388311Y394470D01*
X388237Y394428D01*
X388160Y394390D01*
X388082Y394355D01*
X388003Y394323D01*
X387922Y394295D01*
X387840Y394271D01*
X387756Y394250D01*
X387673Y394233D01*
X387588Y394220D01*
X387503Y394211D01*
X387418Y394205D01*
X387332Y394203D01*
X385504Y395508D02*
X385425Y395675D01*
X385350Y395844D01*
X385279Y396015D01*
X385212Y396187D01*
X385150Y396361D01*
X385091Y396537D01*
X385037Y396713D01*
X384987Y396891D01*
X384941Y397071D01*
X384899Y397251D01*
X384862Y397432D01*
X384829Y397614D01*
X384800Y397796D01*
X384776Y397980D01*
X384756Y398164D01*
X384741Y398348D01*
X384730Y398532D01*
X384723Y398717D01*
X384721Y398902D01*
X385504Y395508D02*
X385534Y395428D01*
X385567Y395349D01*
X385604Y395272D01*
X385644Y395196D01*
X385687Y395122D01*
X385733Y395050D01*
X385783Y394981D01*
X385836Y394913D01*
X385891Y394848D01*
X385950Y394785D01*
X386011Y394726D01*
X386074Y394668D01*
X386141Y394614D01*
X386209Y394563D01*
X386280Y394515D01*
X386353Y394470D01*
X386427Y394428D01*
X386504Y394390D01*
X386582Y394355D01*
X386662Y394323D01*
X386742Y394295D01*
X386824Y394271D01*
X386908Y394250D01*
X386991Y394233D01*
X387076Y394220D01*
X387161Y394211D01*
X387246Y394205D01*
X387332Y394203D01*
X389420Y396291D02*
X385243Y401512D01*
X436132Y354711D02*
X438221Y354711D01*
X438310Y354713D01*
X438398Y354719D01*
X438486Y354728D01*
X438574Y354741D01*
X438661Y354758D01*
X438747Y354778D01*
X438832Y354803D01*
X438917Y354830D01*
X439000Y354862D01*
X439081Y354896D01*
X439161Y354935D01*
X439239Y354976D01*
X439316Y355021D01*
X439390Y355069D01*
X439463Y355120D01*
X439533Y355174D01*
X439600Y355232D01*
X439666Y355292D01*
X439728Y355354D01*
X439788Y355420D01*
X439846Y355487D01*
X439900Y355557D01*
X439951Y355630D01*
X439999Y355704D01*
X440044Y355781D01*
X440085Y355859D01*
X440124Y355939D01*
X440158Y356020D01*
X440190Y356103D01*
X440217Y356188D01*
X440242Y356273D01*
X440262Y356359D01*
X440279Y356446D01*
X440292Y356534D01*
X440301Y356622D01*
X440307Y356710D01*
X440309Y356799D01*
X440309Y362021D01*
X440307Y362110D01*
X440301Y362198D01*
X440292Y362286D01*
X440279Y362374D01*
X440262Y362461D01*
X440242Y362547D01*
X440217Y362632D01*
X440190Y362717D01*
X440158Y362800D01*
X440124Y362881D01*
X440085Y362961D01*
X440044Y363039D01*
X439999Y363116D01*
X439951Y363190D01*
X439900Y363263D01*
X439846Y363333D01*
X439788Y363400D01*
X439728Y363466D01*
X439666Y363528D01*
X439600Y363588D01*
X439533Y363646D01*
X439463Y363700D01*
X439390Y363751D01*
X439316Y363799D01*
X439239Y363844D01*
X439161Y363885D01*
X439081Y363924D01*
X439000Y363958D01*
X438917Y363990D01*
X438832Y364017D01*
X438747Y364042D01*
X438661Y364062D01*
X438574Y364079D01*
X438486Y364092D01*
X438398Y364101D01*
X438310Y364107D01*
X438221Y364109D01*
X436132Y364109D01*
X432663Y362021D02*
X430053Y364109D01*
X430053Y354711D01*
X432663Y354711D02*
X427442Y354711D01*
X423519Y354711D02*
X420909Y354711D01*
X420808Y354713D01*
X420707Y354719D01*
X420606Y354729D01*
X420506Y354742D01*
X420406Y354760D01*
X420307Y354781D01*
X420209Y354807D01*
X420112Y354836D01*
X420016Y354868D01*
X419922Y354905D01*
X419829Y354945D01*
X419737Y354989D01*
X419648Y355036D01*
X419560Y355087D01*
X419474Y355141D01*
X419391Y355198D01*
X419309Y355258D01*
X419231Y355322D01*
X419154Y355388D01*
X419081Y355458D01*
X419010Y355530D01*
X418942Y355605D01*
X418877Y355683D01*
X418815Y355763D01*
X418756Y355845D01*
X418700Y355930D01*
X418648Y356017D01*
X418599Y356105D01*
X418553Y356196D01*
X418512Y356288D01*
X418473Y356382D01*
X418439Y356477D01*
X418408Y356573D01*
X418381Y356671D01*
X418357Y356769D01*
X418338Y356869D01*
X418322Y356969D01*
X418310Y357069D01*
X418302Y357170D01*
X418298Y357271D01*
X418298Y357373D01*
X418302Y357474D01*
X418310Y357575D01*
X418322Y357675D01*
X418338Y357775D01*
X418357Y357875D01*
X418381Y357973D01*
X418408Y358071D01*
X418439Y358167D01*
X418473Y358262D01*
X418512Y358356D01*
X418553Y358448D01*
X418599Y358539D01*
X418648Y358628D01*
X418700Y358714D01*
X418756Y358799D01*
X418815Y358881D01*
X418877Y358961D01*
X418942Y359039D01*
X419010Y359114D01*
X419081Y359186D01*
X419154Y359256D01*
X419231Y359322D01*
X419309Y359386D01*
X419391Y359446D01*
X419474Y359503D01*
X419560Y359557D01*
X419648Y359608D01*
X419737Y359655D01*
X419829Y359699D01*
X419922Y359739D01*
X420016Y359776D01*
X420112Y359808D01*
X420209Y359837D01*
X420307Y359863D01*
X420406Y359884D01*
X420506Y359902D01*
X420606Y359915D01*
X420707Y359925D01*
X420808Y359931D01*
X420909Y359933D01*
X420387Y364109D02*
X423519Y364109D01*
X420387Y364109D02*
X420297Y364107D01*
X420208Y364101D01*
X420118Y364092D01*
X420029Y364078D01*
X419941Y364061D01*
X419854Y364040D01*
X419767Y364015D01*
X419682Y363986D01*
X419598Y363954D01*
X419516Y363919D01*
X419435Y363879D01*
X419356Y363837D01*
X419279Y363791D01*
X419204Y363741D01*
X419131Y363689D01*
X419060Y363633D01*
X418992Y363575D01*
X418927Y363513D01*
X418864Y363449D01*
X418804Y363382D01*
X418747Y363313D01*
X418693Y363241D01*
X418642Y363167D01*
X418594Y363091D01*
X418550Y363013D01*
X418509Y362933D01*
X418471Y362851D01*
X418437Y362768D01*
X418407Y362683D01*
X418380Y362597D01*
X418357Y362511D01*
X418338Y362423D01*
X418323Y362334D01*
X418311Y362245D01*
X418303Y362156D01*
X418299Y362066D01*
X418299Y361976D01*
X418303Y361886D01*
X418311Y361797D01*
X418323Y361708D01*
X418338Y361619D01*
X418357Y361531D01*
X418380Y361445D01*
X418407Y361359D01*
X418437Y361274D01*
X418471Y361191D01*
X418509Y361109D01*
X418550Y361029D01*
X418594Y360951D01*
X418642Y360875D01*
X418693Y360801D01*
X418747Y360729D01*
X418804Y360660D01*
X418864Y360593D01*
X418927Y360529D01*
X418992Y360467D01*
X419060Y360409D01*
X419131Y360353D01*
X419204Y360301D01*
X419279Y360251D01*
X419356Y360205D01*
X419435Y360163D01*
X419516Y360123D01*
X419598Y360088D01*
X419682Y360056D01*
X419767Y360027D01*
X419854Y360002D01*
X419941Y359981D01*
X420029Y359964D01*
X420118Y359950D01*
X420208Y359941D01*
X420297Y359935D01*
X420387Y359933D01*
X420387Y359932D02*
X422475Y359932D01*
X238257Y360845D02*
X228859Y360845D01*
X238257Y360845D02*
X238257Y363455D01*
X238258Y363455D02*
X238256Y363556D01*
X238250Y363657D01*
X238240Y363758D01*
X238227Y363858D01*
X238209Y363958D01*
X238188Y364057D01*
X238162Y364155D01*
X238133Y364252D01*
X238101Y364348D01*
X238064Y364442D01*
X238024Y364535D01*
X237980Y364627D01*
X237933Y364716D01*
X237882Y364804D01*
X237828Y364890D01*
X237771Y364973D01*
X237711Y365055D01*
X237647Y365133D01*
X237581Y365210D01*
X237511Y365283D01*
X237439Y365354D01*
X237364Y365422D01*
X237286Y365487D01*
X237206Y365549D01*
X237124Y365608D01*
X237039Y365664D01*
X236953Y365716D01*
X236864Y365765D01*
X236773Y365811D01*
X236681Y365852D01*
X236587Y365891D01*
X236492Y365925D01*
X236396Y365956D01*
X236298Y365983D01*
X236200Y366007D01*
X236100Y366026D01*
X236000Y366042D01*
X235900Y366054D01*
X235799Y366062D01*
X235698Y366066D01*
X235596Y366066D01*
X235495Y366062D01*
X235394Y366054D01*
X235294Y366042D01*
X235194Y366026D01*
X235094Y366007D01*
X234996Y365983D01*
X234898Y365956D01*
X234802Y365925D01*
X234707Y365891D01*
X234613Y365852D01*
X234521Y365811D01*
X234430Y365765D01*
X234342Y365716D01*
X234255Y365664D01*
X234170Y365608D01*
X234088Y365549D01*
X234008Y365487D01*
X233930Y365422D01*
X233855Y365354D01*
X233783Y365283D01*
X233713Y365210D01*
X233647Y365133D01*
X233583Y365055D01*
X233523Y364973D01*
X233466Y364890D01*
X233412Y364804D01*
X233361Y364716D01*
X233314Y364627D01*
X233270Y364535D01*
X233230Y364442D01*
X233193Y364348D01*
X233161Y364252D01*
X233132Y364155D01*
X233106Y364057D01*
X233085Y363958D01*
X233067Y363858D01*
X233054Y363758D01*
X233044Y363657D01*
X233038Y363556D01*
X233036Y363455D01*
X233036Y360845D01*
X233036Y363978D02*
X228859Y366066D01*
X228859Y369932D02*
X228859Y373065D01*
X228860Y373065D02*
X228862Y373154D01*
X228868Y373242D01*
X228877Y373330D01*
X228890Y373418D01*
X228907Y373505D01*
X228927Y373591D01*
X228952Y373676D01*
X228979Y373761D01*
X229011Y373844D01*
X229045Y373925D01*
X229084Y374005D01*
X229125Y374083D01*
X229170Y374160D01*
X229218Y374234D01*
X229269Y374307D01*
X229323Y374377D01*
X229381Y374444D01*
X229441Y374510D01*
X229503Y374572D01*
X229569Y374632D01*
X229636Y374690D01*
X229706Y374744D01*
X229779Y374795D01*
X229853Y374843D01*
X229930Y374888D01*
X230008Y374929D01*
X230088Y374968D01*
X230169Y375002D01*
X230252Y375034D01*
X230337Y375061D01*
X230422Y375086D01*
X230508Y375106D01*
X230595Y375123D01*
X230683Y375136D01*
X230771Y375145D01*
X230859Y375151D01*
X230948Y375153D01*
X231992Y375153D01*
X232081Y375151D01*
X232169Y375145D01*
X232257Y375136D01*
X232345Y375123D01*
X232432Y375106D01*
X232518Y375086D01*
X232603Y375061D01*
X232688Y375034D01*
X232771Y375002D01*
X232852Y374968D01*
X232932Y374929D01*
X233010Y374888D01*
X233087Y374843D01*
X233161Y374795D01*
X233234Y374744D01*
X233304Y374690D01*
X233371Y374632D01*
X233437Y374572D01*
X233499Y374510D01*
X233559Y374444D01*
X233617Y374377D01*
X233671Y374307D01*
X233722Y374234D01*
X233770Y374160D01*
X233815Y374083D01*
X233856Y374005D01*
X233895Y373925D01*
X233929Y373844D01*
X233961Y373761D01*
X233988Y373676D01*
X234013Y373591D01*
X234033Y373505D01*
X234050Y373418D01*
X234063Y373330D01*
X234072Y373242D01*
X234078Y373154D01*
X234080Y373065D01*
X234080Y369932D01*
X238257Y369932D01*
X238257Y375153D01*
X349085Y370337D02*
X349085Y360939D01*
X349085Y370337D02*
X346475Y370337D01*
X346475Y370338D02*
X346374Y370336D01*
X346273Y370330D01*
X346172Y370320D01*
X346072Y370307D01*
X345972Y370289D01*
X345873Y370268D01*
X345775Y370242D01*
X345678Y370213D01*
X345582Y370181D01*
X345488Y370144D01*
X345395Y370104D01*
X345303Y370060D01*
X345214Y370013D01*
X345126Y369962D01*
X345040Y369908D01*
X344957Y369851D01*
X344875Y369791D01*
X344797Y369727D01*
X344720Y369661D01*
X344647Y369591D01*
X344576Y369519D01*
X344508Y369444D01*
X344443Y369366D01*
X344381Y369286D01*
X344322Y369204D01*
X344266Y369119D01*
X344214Y369033D01*
X344165Y368944D01*
X344119Y368853D01*
X344078Y368761D01*
X344039Y368667D01*
X344005Y368572D01*
X343974Y368476D01*
X343947Y368378D01*
X343923Y368280D01*
X343904Y368180D01*
X343888Y368080D01*
X343876Y367980D01*
X343868Y367879D01*
X343864Y367778D01*
X343864Y367676D01*
X343868Y367575D01*
X343876Y367474D01*
X343888Y367374D01*
X343904Y367274D01*
X343923Y367174D01*
X343947Y367076D01*
X343974Y366978D01*
X344005Y366882D01*
X344039Y366787D01*
X344078Y366693D01*
X344119Y366601D01*
X344165Y366510D01*
X344214Y366422D01*
X344266Y366335D01*
X344322Y366250D01*
X344381Y366168D01*
X344443Y366088D01*
X344508Y366010D01*
X344576Y365935D01*
X344647Y365863D01*
X344720Y365793D01*
X344797Y365727D01*
X344875Y365663D01*
X344957Y365603D01*
X345040Y365546D01*
X345126Y365492D01*
X345214Y365441D01*
X345303Y365394D01*
X345395Y365350D01*
X345488Y365310D01*
X345582Y365273D01*
X345678Y365241D01*
X345775Y365212D01*
X345873Y365186D01*
X345972Y365165D01*
X346072Y365147D01*
X346172Y365134D01*
X346273Y365124D01*
X346374Y365118D01*
X346475Y365116D01*
X349085Y365116D01*
X345952Y365116D02*
X343864Y360939D01*
X339998Y363028D02*
X337910Y370337D01*
X339998Y363028D02*
X334777Y363028D01*
X336343Y365116D02*
X336343Y360939D01*
D12*
X326390Y352490D02*
X322580Y356300D01*
X326390Y352490D02*
X330200Y356300D01*
D11*
X331965Y334264D02*
X339846Y334264D01*
X339846Y336453D01*
X339845Y336453D02*
X339843Y336546D01*
X339837Y336639D01*
X339827Y336731D01*
X339814Y336823D01*
X339796Y336914D01*
X339774Y337005D01*
X339749Y337094D01*
X339720Y337182D01*
X339687Y337269D01*
X339651Y337355D01*
X339611Y337438D01*
X339567Y337521D01*
X339520Y337601D01*
X339470Y337679D01*
X339416Y337755D01*
X339359Y337828D01*
X339299Y337899D01*
X339236Y337968D01*
X339171Y338033D01*
X339102Y338096D01*
X339031Y338156D01*
X338958Y338213D01*
X338882Y338267D01*
X338804Y338317D01*
X338724Y338364D01*
X338641Y338408D01*
X338558Y338448D01*
X338472Y338484D01*
X338385Y338517D01*
X338297Y338546D01*
X338208Y338571D01*
X338117Y338593D01*
X338026Y338611D01*
X337934Y338624D01*
X337842Y338634D01*
X337749Y338640D01*
X337656Y338642D01*
X334154Y338642D01*
X334061Y338640D01*
X333968Y338634D01*
X333876Y338624D01*
X333784Y338611D01*
X333693Y338593D01*
X333602Y338571D01*
X333513Y338546D01*
X333425Y338517D01*
X333338Y338484D01*
X333252Y338448D01*
X333169Y338408D01*
X333086Y338364D01*
X333006Y338317D01*
X332928Y338267D01*
X332852Y338213D01*
X332779Y338156D01*
X332708Y338096D01*
X332639Y338033D01*
X332574Y337968D01*
X332511Y337899D01*
X332451Y337828D01*
X332394Y337755D01*
X332340Y337679D01*
X332290Y337601D01*
X332243Y337521D01*
X332199Y337438D01*
X332159Y337355D01*
X332123Y337269D01*
X332090Y337182D01*
X332061Y337094D01*
X332036Y337005D01*
X332014Y336914D01*
X331996Y336823D01*
X331983Y336731D01*
X331973Y336639D01*
X331967Y336546D01*
X331965Y336453D01*
X331965Y334264D01*
X333716Y342538D02*
X339846Y344289D01*
X333716Y342538D02*
X333716Y346916D01*
X335467Y345603D02*
X331965Y345603D01*
M02*
